G04 #@! TF.GenerationSoftware,KiCad,Pcbnew,5.99.0-unknown-4920692bcd~125~ubuntu20.04.1*
G04 #@! TF.CreationDate,2021-04-19T16:17:19+09:00*
G04 #@! TF.ProjectId,OpenHVPS-5,4f70656e-4856-4505-932d-352e6b696361,V1.2.1*
G04 #@! TF.SameCoordinates,Original*
G04 #@! TF.FileFunction,Copper,L1,Top*
G04 #@! TF.FilePolarity,Positive*
%FSLAX46Y46*%
G04 Gerber Fmt 4.6, Leading zero omitted, Abs format (unit mm)*
G04 Created by KiCad (PCBNEW 5.99.0-unknown-4920692bcd~125~ubuntu20.04.1) date 2021-04-19 16:17:19*
%MOMM*%
%LPD*%
G01*
G04 APERTURE LIST*
G04 Aperture macros list*
%AMRoundRect*
0 Rectangle with rounded corners*
0 $1 Rounding radius*
0 $2 $3 $4 $5 $6 $7 $8 $9 X,Y pos of 4 corners*
0 Add a 4 corners polygon primitive as box body*
4,1,4,$2,$3,$4,$5,$6,$7,$8,$9,$2,$3,0*
0 Add four circle primitives for the rounded corners*
1,1,$1+$1,$2,$3*
1,1,$1+$1,$4,$5*
1,1,$1+$1,$6,$7*
1,1,$1+$1,$8,$9*
0 Add four rect primitives between the rounded corners*
20,1,$1+$1,$2,$3,$4,$5,0*
20,1,$1+$1,$4,$5,$6,$7,0*
20,1,$1+$1,$6,$7,$8,$9,0*
20,1,$1+$1,$8,$9,$2,$3,0*%
G04 Aperture macros list end*
G04 #@! TA.AperFunction,SMDPad,CuDef*
%ADD10RoundRect,0.250000X-0.250000X-0.475000X0.250000X-0.475000X0.250000X0.475000X-0.250000X0.475000X0*%
G04 #@! TD*
G04 #@! TA.AperFunction,SMDPad,CuDef*
%ADD11RoundRect,0.250000X0.450000X-0.262500X0.450000X0.262500X-0.450000X0.262500X-0.450000X-0.262500X0*%
G04 #@! TD*
G04 #@! TA.AperFunction,ComponentPad*
%ADD12R,1.700000X1.700000*%
G04 #@! TD*
G04 #@! TA.AperFunction,ComponentPad*
%ADD13O,1.700000X1.700000*%
G04 #@! TD*
G04 #@! TA.AperFunction,ComponentPad*
%ADD14C,2.500000*%
G04 #@! TD*
G04 #@! TA.AperFunction,ComponentPad*
%ADD15C,2.800000*%
G04 #@! TD*
G04 #@! TA.AperFunction,SMDPad,CuDef*
%ADD16RoundRect,0.150000X0.150000X-0.587500X0.150000X0.587500X-0.150000X0.587500X-0.150000X-0.587500X0*%
G04 #@! TD*
G04 #@! TA.AperFunction,SMDPad,CuDef*
%ADD17RoundRect,0.250000X-0.450000X0.262500X-0.450000X-0.262500X0.450000X-0.262500X0.450000X0.262500X0*%
G04 #@! TD*
G04 #@! TA.AperFunction,SMDPad,CuDef*
%ADD18RoundRect,0.250000X0.262500X0.450000X-0.262500X0.450000X-0.262500X-0.450000X0.262500X-0.450000X0*%
G04 #@! TD*
G04 #@! TA.AperFunction,SMDPad,CuDef*
%ADD19RoundRect,0.250000X-0.475000X0.250000X-0.475000X-0.250000X0.475000X-0.250000X0.475000X0.250000X0*%
G04 #@! TD*
G04 #@! TA.AperFunction,SMDPad,CuDef*
%ADD20RoundRect,0.250000X-0.625000X0.312500X-0.625000X-0.312500X0.625000X-0.312500X0.625000X0.312500X0*%
G04 #@! TD*
G04 #@! TA.AperFunction,SMDPad,CuDef*
%ADD21R,3.700000X1.200000*%
G04 #@! TD*
G04 #@! TA.AperFunction,SMDPad,CuDef*
%ADD22RoundRect,0.250000X-0.262500X-0.450000X0.262500X-0.450000X0.262500X0.450000X-0.262500X0.450000X0*%
G04 #@! TD*
G04 #@! TA.AperFunction,SMDPad,CuDef*
%ADD23RoundRect,0.150000X0.150000X-0.825000X0.150000X0.825000X-0.150000X0.825000X-0.150000X-0.825000X0*%
G04 #@! TD*
G04 #@! TA.AperFunction,SMDPad,CuDef*
%ADD24R,2.000000X1.500000*%
G04 #@! TD*
G04 #@! TA.AperFunction,SMDPad,CuDef*
%ADD25R,2.000000X3.800000*%
G04 #@! TD*
G04 #@! TA.AperFunction,SMDPad,CuDef*
%ADD26R,0.450000X0.600000*%
G04 #@! TD*
G04 #@! TA.AperFunction,SMDPad,CuDef*
%ADD27R,1.000000X1.000000*%
G04 #@! TD*
G04 #@! TA.AperFunction,SMDPad,CuDef*
%ADD28RoundRect,0.250000X0.250000X0.475000X-0.250000X0.475000X-0.250000X-0.475000X0.250000X-0.475000X0*%
G04 #@! TD*
G04 #@! TA.AperFunction,ViaPad*
%ADD29C,0.800000*%
G04 #@! TD*
G04 #@! TA.AperFunction,Conductor*
%ADD30C,0.250000*%
G04 #@! TD*
G04 #@! TA.AperFunction,Conductor*
%ADD31C,0.330200*%
G04 #@! TD*
G04 #@! TA.AperFunction,Conductor*
%ADD32C,0.500000*%
G04 #@! TD*
G04 APERTURE END LIST*
D10*
X145968666Y-65050000D03*
X147868666Y-65050000D03*
D11*
X128500000Y-72413500D03*
X128500000Y-70588500D03*
D12*
X164060000Y-60325000D03*
D13*
X164060000Y-62865000D03*
D10*
X142448333Y-65050000D03*
X144348333Y-65050000D03*
D14*
X164060000Y-71755000D03*
D15*
X164060000Y-75565000D03*
D16*
X156450000Y-62937500D03*
X158350000Y-62937500D03*
X157400000Y-61062500D03*
X142450000Y-62937500D03*
X144350000Y-62937500D03*
X143400000Y-61062500D03*
D10*
X148530000Y-59000000D03*
X150430000Y-59000000D03*
X149488999Y-65050000D03*
X151388999Y-65050000D03*
D17*
X157520000Y-70520000D03*
X157520000Y-72345000D03*
D10*
X145020000Y-59010000D03*
X146920000Y-59010000D03*
D16*
X138928000Y-62913500D03*
X140828000Y-62913500D03*
X139878000Y-61038500D03*
D18*
X147824498Y-67520000D03*
X145999498Y-67520000D03*
D11*
X128020000Y-60912500D03*
X128020000Y-59087500D03*
D18*
X151351499Y-67520000D03*
X149526499Y-67520000D03*
D17*
X145020000Y-71857500D03*
X145020000Y-73682500D03*
D10*
X153009332Y-65050000D03*
X154909332Y-65050000D03*
D16*
X149450000Y-62937500D03*
X151350000Y-62937500D03*
X150400000Y-61062500D03*
D15*
X138660000Y-75565000D03*
D16*
X152950000Y-62937500D03*
X154850000Y-62937500D03*
X153900000Y-61062500D03*
D10*
X138030000Y-58990000D03*
X139930000Y-58990000D03*
D19*
X130100000Y-59050000D03*
X130100000Y-60950000D03*
D12*
X128500000Y-75565000D03*
D13*
X131040000Y-75565000D03*
X133580000Y-75565000D03*
D20*
X163298000Y-65720500D03*
X163298000Y-68645500D03*
D10*
X156529665Y-65050000D03*
X158429665Y-65050000D03*
D18*
X142682500Y-72520000D03*
X140857500Y-72520000D03*
D10*
X138928000Y-65050000D03*
X140828000Y-65050000D03*
X152060000Y-59010000D03*
X153960000Y-59010000D03*
D21*
X134500000Y-58700000D03*
X134500000Y-61500000D03*
D11*
X141520000Y-76682500D03*
X141520000Y-74857500D03*
D22*
X138945500Y-67520000D03*
X140770500Y-67520000D03*
D10*
X159020000Y-59000000D03*
X160920000Y-59000000D03*
D18*
X144297499Y-67520000D03*
X142472499Y-67520000D03*
X142682500Y-70520000D03*
X140857500Y-70520000D03*
D10*
X155540000Y-59000000D03*
X157440000Y-59000000D03*
D23*
X146825000Y-75995000D03*
X148095000Y-75995000D03*
X149365000Y-75995000D03*
X150635000Y-75995000D03*
X151905000Y-75995000D03*
X153175000Y-75995000D03*
X154445000Y-75995000D03*
X155715000Y-75995000D03*
X155715000Y-71045000D03*
X154445000Y-71045000D03*
X153175000Y-71045000D03*
X151905000Y-71045000D03*
X150635000Y-71045000D03*
X149365000Y-71045000D03*
X148095000Y-71045000D03*
X146825000Y-71045000D03*
D24*
X128676000Y-63740000D03*
X128676000Y-68340000D03*
D25*
X134976000Y-66040000D03*
D24*
X128676000Y-66040000D03*
D16*
X159950000Y-62937500D03*
X161850000Y-62937500D03*
X160900000Y-61062500D03*
D26*
X157520000Y-76320000D03*
X157520000Y-74220000D03*
D27*
X165584000Y-65913000D03*
D28*
X139020000Y-70520000D03*
X137120000Y-70520000D03*
D10*
X141530000Y-58990000D03*
X143430000Y-58990000D03*
D16*
X145968666Y-62937500D03*
X147868666Y-62937500D03*
X146918666Y-61062500D03*
D10*
X143320000Y-76270000D03*
X145220000Y-76270000D03*
D29*
X145200000Y-61113817D03*
X154500000Y-68000000D03*
X146153000Y-75819000D03*
X150400000Y-70231000D03*
X150600000Y-77072500D03*
X132770000Y-72770000D03*
X141700000Y-61065000D03*
X148861441Y-61049870D03*
X138020000Y-62770000D03*
X156567000Y-75520000D03*
X150600000Y-72465000D03*
X135770000Y-70520000D03*
X130270000Y-62270000D03*
X139020000Y-57770000D03*
X133520000Y-67020000D03*
X139634500Y-72517000D03*
X135764700Y-71941100D03*
X126920900Y-69342400D03*
X148020000Y-72770000D03*
X130664198Y-66968888D03*
X149000000Y-76665000D03*
X145770000Y-72020000D03*
X152919800Y-74131600D03*
X127770000Y-67520000D03*
X140700000Y-58665000D03*
X152000000Y-67065000D03*
D30*
X143320000Y-76270000D02*
X145020000Y-74570000D01*
X148095000Y-75095000D02*
X146682500Y-73682500D01*
X148095000Y-76695000D02*
X148095000Y-75995000D01*
X145020000Y-74570000D02*
X145020000Y-73682500D01*
X148095000Y-75995000D02*
X148095000Y-75095000D01*
X146682500Y-73682500D02*
X145020000Y-73682500D01*
D31*
X150600000Y-72465000D02*
X150045000Y-73020000D01*
X153175000Y-71045000D02*
X153175000Y-72365000D01*
X150635000Y-74905000D02*
X150635000Y-75995000D01*
D32*
X130500000Y-62040000D02*
X130270000Y-62270000D01*
D31*
X156567000Y-75520000D02*
X155795000Y-75995000D01*
X155795000Y-75995000D02*
X155715000Y-75995000D01*
D32*
X130500000Y-60950000D02*
X130500000Y-62040000D01*
D31*
X146825000Y-76467000D02*
X146825000Y-75995000D01*
X146495000Y-75995000D02*
X146825000Y-75995000D01*
X148095000Y-71595000D02*
X148095000Y-71045000D01*
X135770000Y-70520000D02*
X137120000Y-70520000D01*
X138020000Y-59030000D02*
X138050000Y-59000000D01*
X151000000Y-69770000D02*
X152830000Y-69770000D01*
X149520000Y-73020000D02*
X148095000Y-71595000D01*
X145770000Y-76270000D02*
X146270000Y-75770000D01*
X146270000Y-75770000D02*
X146495000Y-75995000D01*
X150520000Y-75880000D02*
X150635000Y-75995000D01*
X138050000Y-59000000D02*
X138050000Y-58650000D01*
X152830000Y-69770000D02*
X153175000Y-70115000D01*
X138050000Y-58740000D02*
X139020000Y-57770000D01*
X138020000Y-62770000D02*
X138020000Y-59030000D01*
X138050000Y-59000000D02*
X138050000Y-58740000D01*
X150635000Y-70135000D02*
X151000000Y-69770000D01*
X145220000Y-76270000D02*
X145770000Y-76270000D01*
X153175000Y-70115000D02*
X153175000Y-71045000D01*
X150045000Y-73020000D02*
X149520000Y-73020000D01*
X153175000Y-72365000D02*
X150635000Y-74905000D01*
X150635000Y-71045000D02*
X150635000Y-70135000D01*
D32*
X133800000Y-59000000D02*
X133900000Y-58900000D01*
X130500000Y-59250000D02*
X130750000Y-59000000D01*
D30*
X130462000Y-59087500D02*
X130500000Y-59050000D01*
D32*
X130500000Y-59050000D02*
X130500000Y-59250000D01*
X130750000Y-59000000D02*
X133800000Y-59000000D01*
X128000000Y-59087500D02*
X130462000Y-59087500D01*
D30*
X134050000Y-59050000D02*
X134500000Y-58600000D01*
D32*
X134976000Y-64064000D02*
X134976000Y-61876000D01*
D30*
X134568000Y-61468000D02*
X134500000Y-61400000D01*
X139050000Y-64030000D02*
X139050000Y-65000000D01*
X139088000Y-63656000D02*
X139088000Y-63992000D01*
D32*
X134976000Y-66040000D02*
X134976000Y-64064000D01*
D30*
X134500000Y-61400000D02*
X134609000Y-61400000D01*
X138873000Y-63726000D02*
X138943000Y-63656000D01*
D32*
X136314000Y-63726000D02*
X134976000Y-65064000D01*
D30*
X133400000Y-61400000D02*
X134500000Y-61400000D01*
X134976000Y-64064000D02*
X134976000Y-66040000D01*
D32*
X138873000Y-63726000D02*
X136314000Y-63726000D01*
D30*
X139088000Y-63992000D02*
X139050000Y-64030000D01*
D32*
X133520000Y-67020000D02*
X133996000Y-67020000D01*
D30*
X139004000Y-63595400D02*
X139004000Y-62913500D01*
X138943000Y-63656000D02*
X139088000Y-63656000D01*
X139088000Y-63992000D02*
X139088000Y-64328000D01*
X138943000Y-63656000D02*
X139004000Y-63595400D01*
X134568000Y-61468000D02*
X134500000Y-61400000D01*
X134976000Y-61876000D02*
X134568000Y-61468000D01*
D32*
X134976000Y-65064000D02*
X134976000Y-66040000D01*
D30*
X141629500Y-65027500D02*
X141607000Y-65050000D01*
X142448333Y-65050000D02*
X141607000Y-65050000D01*
X141629500Y-62913500D02*
X142424333Y-62913500D01*
X141607000Y-65050000D02*
X140828000Y-65050000D01*
X142628000Y-62859000D02*
X142550000Y-62937500D01*
X141629500Y-62913500D02*
X141629500Y-65027500D01*
X140828000Y-62913500D02*
X141629500Y-62913500D01*
X142526000Y-62913500D02*
X142550000Y-62937500D01*
X142424333Y-62913500D02*
X142448333Y-62937500D01*
D32*
X126900000Y-61556000D02*
X127523500Y-60932500D01*
D30*
X134412100Y-70588500D02*
X128500000Y-70588500D01*
D32*
X127523500Y-60932500D02*
X128020000Y-60932500D01*
D30*
X128000000Y-60912500D02*
X127391000Y-60912500D01*
X139634500Y-72517000D02*
X139637500Y-72520000D01*
X139637500Y-72520000D02*
X140945500Y-72520000D01*
D32*
X126756000Y-69342400D02*
X126900000Y-69198400D01*
D30*
X128499000Y-70587500D02*
X128500000Y-70588500D01*
D32*
X128412000Y-70500000D02*
X128100000Y-70500000D01*
D30*
X128151000Y-70587500D02*
X128499000Y-70587500D01*
X128500000Y-70587500D02*
X128412000Y-70500000D01*
X126920900Y-69342400D02*
X126756000Y-69342400D01*
X135764700Y-71941100D02*
X134412100Y-70588500D01*
D32*
X128100000Y-70500000D02*
X126942400Y-69342400D01*
X126942400Y-69342400D02*
X126920900Y-69342400D01*
D30*
X128499000Y-70587500D02*
X128500000Y-70587500D01*
X127391000Y-60912500D02*
X128000000Y-60912500D01*
D32*
X126900000Y-69198400D02*
X126900000Y-61556000D01*
D30*
X141770000Y-71520000D02*
X141770000Y-74607500D01*
X143770000Y-70730000D02*
X144800000Y-69700000D01*
X142182500Y-74857500D02*
X143770000Y-73270000D01*
X141770000Y-74607500D02*
X141520000Y-74857500D01*
X147450000Y-72200000D02*
X148020000Y-72770000D01*
X143770000Y-73270000D02*
X143770000Y-70730000D01*
X147200000Y-69700000D02*
X147450000Y-69950000D01*
X140857500Y-70520000D02*
X140857500Y-70607500D01*
X144800000Y-69700000D02*
X147200000Y-69700000D01*
X147450000Y-69950000D02*
X147450000Y-72200000D01*
X140857500Y-70607500D02*
X141770000Y-71520000D01*
X128777000Y-63740000D02*
X128676000Y-63740000D01*
X129490000Y-63740000D02*
X128777000Y-63740000D01*
D32*
X130664198Y-64914198D02*
X130664198Y-66968888D01*
D30*
X128777000Y-63740000D02*
X128676000Y-63740000D01*
D32*
X129490000Y-63740000D02*
X130664198Y-64914198D01*
D30*
X151905000Y-77155000D02*
X151905000Y-75995000D01*
X151974000Y-77724000D02*
X142561500Y-77724000D01*
X156116000Y-77724000D02*
X155974000Y-77724000D01*
X142561500Y-77724000D02*
X141520000Y-76682500D01*
X151905000Y-77655000D02*
X151974000Y-77724000D01*
X155974000Y-77724000D02*
X151974000Y-77724000D01*
X151905000Y-75995000D02*
X151905000Y-77655000D01*
X157520000Y-76320000D02*
X156116000Y-77724000D01*
D32*
X164060000Y-69407500D02*
X164060000Y-71755000D01*
X163298000Y-68645500D02*
X164060000Y-69407500D01*
X164060000Y-71755000D02*
X164060000Y-75565000D01*
D30*
X144520000Y-67520000D02*
X144520500Y-67520000D01*
X144520500Y-67520000D02*
X146357500Y-67520000D01*
X146357500Y-67520000D02*
X146358000Y-67520000D01*
X142770000Y-70432500D02*
X142682500Y-70520000D01*
X142682000Y-70520000D02*
X142682300Y-70520200D01*
X139020000Y-70520000D02*
X139020000Y-69770000D01*
X157520000Y-70520000D02*
X157520000Y-70370000D01*
X142770000Y-69770000D02*
X142770000Y-70432500D01*
X142450000Y-69450000D02*
X142770000Y-69770000D01*
X142770000Y-70607500D02*
X142770000Y-71476000D01*
X157520000Y-70370000D02*
X156400000Y-69250000D01*
X143952000Y-69250000D02*
X142682000Y-70520000D01*
X139020000Y-69770000D02*
X139340000Y-69450000D01*
X142770000Y-71563700D02*
X142770000Y-72520000D01*
X139340000Y-69450000D02*
X142450000Y-69450000D01*
X142682300Y-70520200D02*
X142770000Y-70607500D01*
X142682500Y-70520000D02*
X142682300Y-70520200D01*
X156400000Y-69250000D02*
X143952000Y-69250000D01*
X158020000Y-68770000D02*
X138780300Y-68770000D01*
X157997300Y-74220000D02*
X158770000Y-73447300D01*
X153820000Y-74220000D02*
X153175000Y-74865000D01*
X138020000Y-69530300D02*
X138020000Y-71308350D01*
X131225000Y-75565000D02*
X131040000Y-75565000D01*
X135674550Y-73653800D02*
X133136200Y-73653800D01*
X133136200Y-73653800D02*
X131225000Y-75565000D01*
X138020000Y-71308350D02*
X135674550Y-73653800D01*
X138780300Y-68770000D02*
X138020000Y-69530300D01*
X157520000Y-74220000D02*
X157997300Y-74220000D01*
X157520000Y-74220000D02*
X153820000Y-74220000D01*
X158770000Y-73447300D02*
X158770000Y-69520000D01*
X153175000Y-74865000D02*
X153175000Y-75995000D01*
X158770000Y-69520000D02*
X158020000Y-68770000D01*
D32*
X128500000Y-72412500D02*
X128500000Y-72413500D01*
X128500000Y-72413500D02*
X128500000Y-75250000D01*
D30*
X128500000Y-75250000D02*
X128500000Y-75565000D01*
X142695000Y-67520000D02*
X142695500Y-67520000D01*
X140770000Y-67520000D02*
X140770500Y-67520000D01*
X140770500Y-67520000D02*
X142695000Y-67520000D01*
X147645000Y-73395000D02*
X149365000Y-75115000D01*
X145020000Y-71857500D02*
X146012500Y-71857500D01*
X152020000Y-72520000D02*
X152020000Y-71160000D01*
X149270000Y-75900000D02*
X149365000Y-75995000D01*
X147645000Y-73395000D02*
X148770000Y-74520000D01*
X145020000Y-71857500D02*
X145607500Y-71857500D01*
X150020000Y-74520000D02*
X152020000Y-72520000D01*
X146012500Y-71857500D02*
X146825000Y-71045000D01*
X149000000Y-76665000D02*
X149000000Y-76360000D01*
X146825000Y-71045000D02*
X146825000Y-72575000D01*
X152020000Y-71160000D02*
X151905000Y-71045000D01*
X145607500Y-71857500D02*
X145770000Y-72020000D01*
X146825000Y-72575000D02*
X147645000Y-73395000D01*
X149365000Y-75115000D02*
X149365000Y-75995000D01*
X149000000Y-76360000D02*
X149365000Y-75995000D01*
X149365000Y-76175000D02*
X149365000Y-75995000D01*
X148770000Y-74520000D02*
X150020000Y-74520000D01*
X154706400Y-72345000D02*
X157520000Y-72345000D01*
X152919800Y-74131600D02*
X154706400Y-72345000D01*
X148182000Y-67520000D02*
X148182500Y-67520000D01*
X147824498Y-67520000D02*
X149526499Y-67520000D01*
X129046000Y-68340000D02*
X129090000Y-68340000D01*
X129046000Y-68340000D02*
X129090000Y-68340000D01*
D32*
X128856000Y-68520000D02*
X128676000Y-68340000D01*
D30*
X129090000Y-68340000D02*
X129427000Y-68340000D01*
X128676000Y-68340000D02*
X129046000Y-68340000D01*
X128676000Y-68340000D02*
X129046000Y-68340000D01*
X128676000Y-68340000D02*
X129046000Y-68340000D01*
X141569000Y-59000000D02*
X141588000Y-59000000D01*
X141540000Y-59000000D02*
X141550000Y-59000000D01*
X141550000Y-59000000D02*
X141569000Y-59000000D01*
X138945500Y-67520000D02*
X138945500Y-67119500D01*
X139878000Y-61038500D02*
X139878000Y-59042000D01*
X140020000Y-61104500D02*
X139954000Y-61038500D01*
X138945000Y-67307500D02*
X138945000Y-67095000D01*
X138945000Y-67307500D02*
X138945500Y-67308000D01*
X138945000Y-67520000D02*
X138945000Y-67307500D01*
X139912000Y-59000000D02*
X139950000Y-59000000D01*
X138945500Y-67308000D02*
X138945500Y-67520000D01*
X139878000Y-59042000D02*
X139930000Y-58990000D01*
X139950000Y-59000000D02*
X141550000Y-59000000D01*
X139954000Y-60579600D02*
X139912000Y-60537600D01*
X141588000Y-59000000D02*
X141863000Y-59000000D01*
X139878000Y-66187000D02*
X139878000Y-61038500D01*
X141750000Y-59200000D02*
X141550000Y-59000000D01*
X138945500Y-67119500D02*
X139878000Y-66187000D01*
X139954000Y-61038500D02*
X139954000Y-60579600D01*
X143450000Y-59000000D02*
X145050000Y-59000000D01*
X143412000Y-60975000D02*
X143412000Y-59000000D01*
X145050000Y-59000000D02*
X145088000Y-59000000D01*
X143500000Y-61062500D02*
X143412000Y-60975000D01*
X143412000Y-59000000D02*
X143450000Y-59000000D01*
X145191500Y-62937500D02*
X144348333Y-62937500D01*
X144348333Y-65050000D02*
X145163000Y-65050000D01*
X146050000Y-65000000D02*
X146088000Y-65000000D01*
X145968666Y-62937500D02*
X145191500Y-62937500D01*
X144500000Y-65000000D02*
X144538000Y-65000000D01*
X145191500Y-62937500D02*
X145191500Y-65021500D01*
X145191500Y-65021500D02*
X145163000Y-65050000D01*
X145163000Y-65050000D02*
X145968666Y-65050000D01*
X147000000Y-61062500D02*
X147000000Y-59087500D01*
X147088000Y-59000000D02*
X147000000Y-59087500D01*
X147000000Y-59087500D02*
X146931100Y-59019100D01*
X146931100Y-59019100D02*
X146912000Y-59000200D01*
X148588000Y-59000000D02*
X148550000Y-59000000D01*
X146950000Y-59000000D02*
X146931100Y-59018900D01*
X148550000Y-59000000D02*
X147088000Y-59000000D01*
X146931100Y-59018900D02*
X146931100Y-59019100D01*
X148638500Y-62937500D02*
X148638500Y-64969500D01*
X147868666Y-65050000D02*
X148719000Y-65050000D01*
X148719000Y-65050000D02*
X149488999Y-65050000D01*
X147868666Y-62937500D02*
X148638500Y-62937500D01*
X148638500Y-64969500D02*
X148719000Y-65050000D01*
X148638500Y-62937500D02*
X149488999Y-62937500D01*
X150450000Y-59000000D02*
X150500000Y-59050000D01*
X152000000Y-59087500D02*
X152068900Y-59019100D01*
X152068900Y-59019100D02*
X152088000Y-59000200D01*
X152050000Y-59000000D02*
X152068900Y-59018900D01*
X150500000Y-61062500D02*
X150500000Y-59087500D01*
X150500000Y-59087500D02*
X152000000Y-59087500D01*
X152068900Y-59018900D02*
X152068900Y-59019100D01*
X150500000Y-59050000D02*
X150500000Y-59087500D01*
X152176500Y-62937500D02*
X152176500Y-65021500D01*
X151388999Y-65050000D02*
X152148000Y-65050000D01*
X151388999Y-62937500D02*
X152176500Y-62937500D01*
X152176500Y-62937500D02*
X153009332Y-62937500D01*
X152148000Y-65050000D02*
X153009332Y-65050000D01*
X152176500Y-65021500D02*
X152148000Y-65050000D01*
X155638000Y-59000000D02*
X155676000Y-59000000D01*
X154000000Y-61062500D02*
X153912000Y-60975000D01*
X153912000Y-60975000D02*
X153912000Y-59000000D01*
X153912000Y-59000000D02*
X153950000Y-59000000D01*
X153950000Y-59000000D02*
X155638000Y-59000000D01*
X154909332Y-65050000D02*
X155779000Y-65050000D01*
X155750500Y-65021500D02*
X155779000Y-65050000D01*
X155750500Y-62937500D02*
X155750500Y-65021500D01*
X154909332Y-62937500D02*
X155750500Y-62937500D01*
X155779000Y-65050000D02*
X156529665Y-65050000D01*
X155750500Y-62937500D02*
X156529665Y-62937500D01*
X157538000Y-59000000D02*
X157500000Y-59000000D01*
X157500000Y-59000000D02*
X157500000Y-61062500D01*
X159088000Y-59000000D02*
X159050000Y-59000000D01*
X159050000Y-59000000D02*
X157538000Y-59000000D01*
X160050000Y-62937500D02*
X158450000Y-62937500D01*
X158538000Y-65000000D02*
X158500000Y-65000000D01*
X158450000Y-64949500D02*
X158450000Y-62937500D01*
X158500000Y-65000000D02*
X158450000Y-64949500D01*
D32*
X161850000Y-62415000D02*
X161850000Y-62937500D01*
D30*
X165391500Y-65720500D02*
X165584000Y-65913000D01*
D32*
X163298000Y-65720500D02*
X165391500Y-65720500D01*
X160900000Y-61062500D02*
X160950000Y-61012500D01*
X160900000Y-61062500D02*
X160900000Y-61465000D01*
D30*
X161000000Y-59087500D02*
X160912000Y-59000200D01*
D32*
X160900000Y-61465000D02*
X161850000Y-62415000D01*
X163298000Y-65913000D02*
X161800000Y-64415000D01*
X160950000Y-61012500D02*
X160950000Y-59000000D01*
D30*
X162000000Y-62887500D02*
X161950000Y-62937500D01*
X160950000Y-61012500D02*
X161000000Y-61062500D01*
D32*
X161800000Y-64415000D02*
X161800000Y-63087500D01*
D30*
X152000000Y-67115000D02*
X151932500Y-67182500D01*
X152000000Y-67065000D02*
X152000000Y-67115000D01*
G04 #@! TA.AperFunction,Conductor*
G36*
X126954512Y-70427647D02*
G01*
X126961095Y-70433776D01*
X127254595Y-70727276D01*
X127288621Y-70789588D01*
X127291500Y-70816371D01*
X127291500Y-70893886D01*
X127306978Y-71026643D01*
X127309474Y-71033521D01*
X127309475Y-71033523D01*
X127316827Y-71053778D01*
X127367313Y-71192864D01*
X127464269Y-71340747D01*
X127469581Y-71345779D01*
X127535480Y-71408206D01*
X127571178Y-71469576D01*
X127568030Y-71540502D01*
X127540300Y-71586332D01*
X127438642Y-71693645D01*
X127349825Y-71846555D01*
X127298567Y-72015796D01*
X127297992Y-72022236D01*
X127297992Y-72022237D01*
X127296853Y-72035006D01*
X127291500Y-72094978D01*
X127291500Y-72718886D01*
X127306978Y-72851643D01*
X127309474Y-72858521D01*
X127309475Y-72858523D01*
X127346924Y-72961694D01*
X127367313Y-73017864D01*
X127412522Y-73086819D01*
X127453719Y-73149655D01*
X127464269Y-73165747D01*
X127592645Y-73287358D01*
X127627623Y-73307675D01*
X127678786Y-73337393D01*
X127727644Y-73388904D01*
X127741500Y-73446347D01*
X127741500Y-74077646D01*
X127721498Y-74145767D01*
X127667842Y-74192260D01*
X127624489Y-74203325D01*
X127576921Y-74206727D01*
X127524780Y-74222037D01*
X127445330Y-74245365D01*
X127445328Y-74245366D01*
X127436684Y-74247904D01*
X127416350Y-74260972D01*
X127321309Y-74322051D01*
X127321306Y-74322053D01*
X127313729Y-74326923D01*
X127307828Y-74333733D01*
X127223918Y-74430569D01*
X127223916Y-74430572D01*
X127218016Y-74437381D01*
X127214272Y-74445579D01*
X127175599Y-74530262D01*
X127157300Y-74570330D01*
X127156018Y-74579245D01*
X127156018Y-74579246D01*
X127137139Y-74710552D01*
X127137138Y-74710559D01*
X127136500Y-74715000D01*
X127136500Y-76415000D01*
X127141727Y-76488079D01*
X127145191Y-76499875D01*
X127179338Y-76616170D01*
X127182904Y-76628316D01*
X127187775Y-76635895D01*
X127257051Y-76743691D01*
X127257053Y-76743694D01*
X127261923Y-76751271D01*
X127268733Y-76757172D01*
X127365569Y-76841082D01*
X127365572Y-76841084D01*
X127372381Y-76846984D01*
X127380579Y-76850728D01*
X127492998Y-76902068D01*
X127505330Y-76907700D01*
X127514245Y-76908982D01*
X127514246Y-76908982D01*
X127645552Y-76927861D01*
X127645559Y-76927862D01*
X127650000Y-76928500D01*
X129350000Y-76928500D01*
X129423079Y-76923273D01*
X129515636Y-76896096D01*
X129554670Y-76884635D01*
X129554672Y-76884634D01*
X129563316Y-76882096D01*
X129630446Y-76838954D01*
X129678691Y-76807949D01*
X129678694Y-76807947D01*
X129686271Y-76803077D01*
X129712451Y-76772864D01*
X129776082Y-76699431D01*
X129776084Y-76699428D01*
X129781984Y-76692619D01*
X129842700Y-76559670D01*
X129843320Y-76555360D01*
X129880432Y-76497610D01*
X129945012Y-76468117D01*
X130015286Y-76478220D01*
X130047335Y-76499270D01*
X130215629Y-76651069D01*
X130410406Y-76774439D01*
X130623184Y-76863228D01*
X130628387Y-76864425D01*
X130628392Y-76864426D01*
X130842678Y-76913701D01*
X130842683Y-76913702D01*
X130847881Y-76914897D01*
X130853209Y-76915200D01*
X130853212Y-76915200D01*
X131003877Y-76923755D01*
X131078071Y-76927968D01*
X131083378Y-76927368D01*
X131083380Y-76927368D01*
X131204272Y-76913701D01*
X131307173Y-76902068D01*
X131312288Y-76900587D01*
X131312292Y-76900586D01*
X131437161Y-76864426D01*
X131528635Y-76837937D01*
X131736125Y-76737409D01*
X131740463Y-76734309D01*
X131740468Y-76734306D01*
X131894197Y-76624448D01*
X131923711Y-76603357D01*
X132086030Y-76439617D01*
X132195486Y-76283587D01*
X132207953Y-76265816D01*
X132263449Y-76221536D01*
X132334075Y-76214289D01*
X132397407Y-76246375D01*
X132421781Y-76277958D01*
X132439550Y-76310617D01*
X132445402Y-76319491D01*
X132581486Y-76492113D01*
X132588750Y-76499875D01*
X132751967Y-76647094D01*
X132760444Y-76653528D01*
X132946122Y-76771136D01*
X132955567Y-76776053D01*
X133158406Y-76860694D01*
X133168545Y-76863950D01*
X133308345Y-76896096D01*
X133322422Y-76895257D01*
X133326000Y-76885999D01*
X133326000Y-75832548D01*
X133834000Y-75832548D01*
X133834000Y-76884941D01*
X133838151Y-76899079D01*
X133848798Y-76900774D01*
X133852192Y-76900096D01*
X134063333Y-76838954D01*
X134073259Y-76835143D01*
X134271065Y-76739307D01*
X134280212Y-76733876D01*
X134459041Y-76606083D01*
X134467149Y-76599182D01*
X134621893Y-76443082D01*
X134628706Y-76434933D01*
X134754940Y-76254988D01*
X134760295Y-76245787D01*
X134854399Y-76047156D01*
X134858123Y-76037197D01*
X134915968Y-75830718D01*
X134914430Y-75822351D01*
X134902137Y-75819000D01*
X133852115Y-75819000D01*
X133836876Y-75823475D01*
X133835671Y-75824865D01*
X133834000Y-75832548D01*
X133326000Y-75832548D01*
X133326000Y-75437000D01*
X133346002Y-75368879D01*
X133399658Y-75322386D01*
X133452000Y-75311000D01*
X134899079Y-75311000D01*
X134912610Y-75307027D01*
X134913876Y-75298218D01*
X134866954Y-75117433D01*
X134863419Y-75107395D01*
X134773147Y-74906998D01*
X134767967Y-74897692D01*
X134645218Y-74715366D01*
X134638557Y-74707080D01*
X134486830Y-74548030D01*
X134478873Y-74540990D01*
X134443120Y-74514389D01*
X134400407Y-74457679D01*
X134395134Y-74386878D01*
X134428977Y-74324466D01*
X134491189Y-74290259D01*
X134518333Y-74287300D01*
X135596166Y-74287300D01*
X135607070Y-74287814D01*
X135614461Y-74289466D01*
X135622387Y-74289217D01*
X135622388Y-74289217D01*
X135681416Y-74287362D01*
X135685373Y-74287300D01*
X135714128Y-74287300D01*
X135718395Y-74286761D01*
X135730237Y-74285828D01*
X135761885Y-74284833D01*
X135766510Y-74284688D01*
X135774433Y-74284439D01*
X135793884Y-74278788D01*
X135813245Y-74274778D01*
X135815970Y-74274434D01*
X135825480Y-74273233D01*
X135825483Y-74273232D01*
X135833338Y-74272240D01*
X135840703Y-74269324D01*
X135840707Y-74269323D01*
X135874451Y-74255963D01*
X135885680Y-74252118D01*
X135928128Y-74239786D01*
X135940269Y-74232606D01*
X135945561Y-74229477D01*
X135963312Y-74220781D01*
X135974776Y-74216242D01*
X135974779Y-74216240D01*
X135982150Y-74213322D01*
X136017918Y-74187335D01*
X136027841Y-74180816D01*
X136038709Y-74174389D01*
X136065891Y-74158314D01*
X136066309Y-74157945D01*
X136080392Y-74143862D01*
X136095417Y-74131028D01*
X136111633Y-74119246D01*
X136139580Y-74085464D01*
X136147569Y-74076685D01*
X138412513Y-71811741D01*
X138420601Y-71804381D01*
X138426995Y-71800323D01*
X138458878Y-71766371D01*
X138520091Y-71730406D01*
X138587251Y-71732034D01*
X138628603Y-71744558D01*
X138628609Y-71744559D01*
X138634796Y-71746433D01*
X138641232Y-71747007D01*
X138641235Y-71747008D01*
X138711185Y-71753251D01*
X138711191Y-71753251D01*
X138713978Y-71753500D01*
X138816457Y-71753500D01*
X138884578Y-71773502D01*
X138931071Y-71827158D01*
X138941175Y-71897432D01*
X138910094Y-71963808D01*
X138895463Y-71980058D01*
X138892162Y-71985776D01*
X138804676Y-72137306D01*
X138799976Y-72145446D01*
X138740962Y-72327073D01*
X138740272Y-72333636D01*
X138740272Y-72333637D01*
X138734915Y-72384606D01*
X138721000Y-72517000D01*
X138721690Y-72523565D01*
X138729562Y-72598458D01*
X138740962Y-72706927D01*
X138743002Y-72713205D01*
X138743002Y-72713206D01*
X138761456Y-72770000D01*
X138799976Y-72888554D01*
X138895463Y-73053942D01*
X138899881Y-73058849D01*
X138899882Y-73058850D01*
X139016488Y-73188354D01*
X139023249Y-73195863D01*
X139028591Y-73199744D01*
X139028593Y-73199746D01*
X139172085Y-73303998D01*
X139177750Y-73308114D01*
X139183778Y-73310798D01*
X139183780Y-73310799D01*
X139346182Y-73383105D01*
X139352213Y-73385790D01*
X139419376Y-73400066D01*
X139532556Y-73424124D01*
X139532561Y-73424124D01*
X139539013Y-73425496D01*
X139729987Y-73425496D01*
X139736440Y-73424124D01*
X139736453Y-73424123D01*
X139871090Y-73395504D01*
X139941880Y-73400905D01*
X139998513Y-73443722D01*
X140002659Y-73449665D01*
X140004783Y-73452904D01*
X140009269Y-73459747D01*
X140137645Y-73581358D01*
X140290555Y-73670175D01*
X140459796Y-73721433D01*
X140466236Y-73722008D01*
X140466237Y-73722008D01*
X140536185Y-73728251D01*
X140536191Y-73728251D01*
X140538978Y-73728500D01*
X140586511Y-73728500D01*
X140654632Y-73748502D01*
X140701125Y-73802158D01*
X140711229Y-73872432D01*
X140681735Y-73937012D01*
X140655596Y-73959872D01*
X140580253Y-74009269D01*
X140458642Y-74137645D01*
X140369825Y-74290555D01*
X140361269Y-74318803D01*
X140361172Y-74319125D01*
X140322283Y-74378523D01*
X140257454Y-74407467D01*
X140187269Y-74396767D01*
X140140419Y-74359044D01*
X140095899Y-74300709D01*
X140095898Y-74300708D01*
X140093127Y-74297077D01*
X140087166Y-74291249D01*
X139994105Y-74200277D01*
X139895083Y-74103476D01*
X139733315Y-73985729D01*
X139674862Y-73943182D01*
X139674857Y-73943179D01*
X139671167Y-73940493D01*
X139426068Y-73811540D01*
X139164921Y-73719319D01*
X138893197Y-73665763D01*
X138888640Y-73665536D01*
X138888639Y-73665536D01*
X138621157Y-73652220D01*
X138621151Y-73652220D01*
X138616588Y-73651993D01*
X138340888Y-73678297D01*
X138336454Y-73679382D01*
X138336448Y-73679383D01*
X138086291Y-73740596D01*
X138071873Y-73744124D01*
X138067647Y-73745836D01*
X138067643Y-73745837D01*
X137819412Y-73846381D01*
X137819407Y-73846384D01*
X137815179Y-73848096D01*
X137811244Y-73850400D01*
X137811238Y-73850403D01*
X137580120Y-73985729D01*
X137576182Y-73988035D01*
X137460071Y-74080891D01*
X137366608Y-74155635D01*
X137359889Y-74161008D01*
X137170832Y-74363393D01*
X137117838Y-74439783D01*
X137015573Y-74587196D01*
X137015570Y-74587201D01*
X137012970Y-74590949D01*
X137010938Y-74595034D01*
X137010936Y-74595037D01*
X136957201Y-74703049D01*
X136889611Y-74838911D01*
X136888190Y-74843245D01*
X136888189Y-74843248D01*
X136810735Y-75079522D01*
X136803339Y-75102082D01*
X136802559Y-75106573D01*
X136802559Y-75106574D01*
X136802140Y-75108989D01*
X136755961Y-75374952D01*
X136755838Y-75379510D01*
X136748824Y-75638733D01*
X136748470Y-75651802D01*
X136749005Y-75656320D01*
X136749005Y-75656326D01*
X136770066Y-75834269D01*
X136781022Y-75926834D01*
X136782206Y-75931236D01*
X136782207Y-75931243D01*
X136786423Y-75946921D01*
X136852936Y-76194286D01*
X136962705Y-76448556D01*
X137108029Y-76684317D01*
X137285865Y-76896629D01*
X137492487Y-77081046D01*
X137723567Y-77233705D01*
X137723289Y-77234126D01*
X137770837Y-77282790D01*
X137785123Y-77352334D01*
X137759543Y-77418563D01*
X137702218Y-77460447D01*
X137659584Y-77467889D01*
X133285528Y-77468819D01*
X127820524Y-77469982D01*
X127798876Y-77468112D01*
X127785461Y-77465774D01*
X127780594Y-77465686D01*
X127683864Y-77463937D01*
X127676255Y-77463569D01*
X127658659Y-77462184D01*
X127648836Y-77461022D01*
X127559817Y-77446923D01*
X127519028Y-77440463D01*
X127509320Y-77438531D01*
X127505660Y-77437652D01*
X127496148Y-77434969D01*
X127371155Y-77394356D01*
X127361886Y-77390937D01*
X127361757Y-77390884D01*
X127358426Y-77389504D01*
X127349436Y-77385360D01*
X127232321Y-77325686D01*
X127223681Y-77320847D01*
X127220493Y-77318893D01*
X127212277Y-77313403D01*
X127166279Y-77279984D01*
X127105936Y-77236142D01*
X127098181Y-77230028D01*
X127095309Y-77227575D01*
X127088055Y-77220869D01*
X126995127Y-77127940D01*
X126988412Y-77120676D01*
X126985971Y-77117818D01*
X126979846Y-77110048D01*
X126966136Y-77091177D01*
X126936307Y-77050122D01*
X126902599Y-77003726D01*
X126897105Y-76995504D01*
X126895150Y-76992314D01*
X126890313Y-76983678D01*
X126830641Y-76866566D01*
X126826494Y-76857569D01*
X126825060Y-76854106D01*
X126821641Y-76844837D01*
X126781030Y-76719852D01*
X126778350Y-76710353D01*
X126777466Y-76706669D01*
X126775539Y-76696985D01*
X126754977Y-76567156D01*
X126753814Y-76557332D01*
X126752431Y-76539758D01*
X126752064Y-76532152D01*
X126750366Y-76438299D01*
X126750285Y-76433816D01*
X126747616Y-76417312D01*
X126746000Y-76397197D01*
X126746000Y-70522871D01*
X126766002Y-70454750D01*
X126819658Y-70408257D01*
X126889932Y-70398153D01*
X126954512Y-70427647D01*
G37*
G04 #@! TD.AperFunction*
G04 #@! TA.AperFunction,Conductor*
G36*
X159110032Y-74107338D02*
G01*
X159166868Y-74149885D01*
X159191679Y-74216405D01*
X159192000Y-74225394D01*
X159192000Y-77337336D01*
X159171998Y-77405457D01*
X159118342Y-77451950D01*
X159066029Y-77463336D01*
X158349404Y-77463489D01*
X157576467Y-77463653D01*
X157508343Y-77443665D01*
X157461839Y-77390020D01*
X157451720Y-77319748D01*
X157481199Y-77255161D01*
X157487346Y-77248558D01*
X157565499Y-77170405D01*
X157627811Y-77136379D01*
X157654594Y-77133500D01*
X157745000Y-77133500D01*
X157818079Y-77128273D01*
X157896165Y-77105345D01*
X157949670Y-77089635D01*
X157949672Y-77089634D01*
X157958316Y-77087096D01*
X158016902Y-77049445D01*
X158073691Y-77012949D01*
X158073694Y-77012947D01*
X158081271Y-77008077D01*
X158130767Y-76950956D01*
X158171082Y-76904431D01*
X158171084Y-76904428D01*
X158176984Y-76897619D01*
X158186298Y-76877225D01*
X158233958Y-76772864D01*
X158233958Y-76772863D01*
X158237700Y-76764670D01*
X158238982Y-76755754D01*
X158257861Y-76624448D01*
X158257862Y-76624441D01*
X158258500Y-76620000D01*
X158258500Y-76020000D01*
X158253273Y-75946921D01*
X158220196Y-75834269D01*
X158214635Y-75815330D01*
X158214634Y-75815328D01*
X158212096Y-75806684D01*
X158163687Y-75731358D01*
X158137949Y-75691309D01*
X158137947Y-75691306D01*
X158133077Y-75683729D01*
X158126267Y-75677828D01*
X158029431Y-75593918D01*
X158029428Y-75593916D01*
X158022619Y-75588016D01*
X157889670Y-75527300D01*
X157880755Y-75526018D01*
X157880754Y-75526018D01*
X157749448Y-75507139D01*
X157749441Y-75507138D01*
X157745000Y-75506500D01*
X157295000Y-75506500D01*
X157221921Y-75511727D01*
X157168884Y-75527300D01*
X157090330Y-75550365D01*
X157090328Y-75550366D01*
X157081684Y-75552904D01*
X157043528Y-75577426D01*
X156966309Y-75627051D01*
X156966306Y-75627053D01*
X156958729Y-75631923D01*
X156952828Y-75638733D01*
X156868918Y-75735569D01*
X156868916Y-75735572D01*
X156863016Y-75742381D01*
X156802300Y-75875330D01*
X156801018Y-75884245D01*
X156801018Y-75884246D01*
X156782139Y-76015552D01*
X156782138Y-76015559D01*
X156781500Y-76020000D01*
X156781500Y-76110406D01*
X156761498Y-76178527D01*
X156744595Y-76199501D01*
X156694535Y-76249561D01*
X156632223Y-76283587D01*
X156561408Y-76278522D01*
X156522928Y-76255691D01*
X156517135Y-76250671D01*
X156509452Y-76249000D01*
X155587000Y-76249000D01*
X155518879Y-76228998D01*
X155472386Y-76175342D01*
X155461000Y-76123000D01*
X155461000Y-75867000D01*
X155481002Y-75798879D01*
X155534658Y-75752386D01*
X155587000Y-75741000D01*
X156504885Y-75741000D01*
X156520124Y-75736525D01*
X156521329Y-75735135D01*
X156523000Y-75727452D01*
X156523000Y-75134379D01*
X156522503Y-75126489D01*
X156508165Y-75012986D01*
X156507612Y-75010833D01*
X156507672Y-75009085D01*
X156507171Y-75005119D01*
X156507811Y-75005038D01*
X156510046Y-74939878D01*
X156550454Y-74881503D01*
X156616008Y-74854241D01*
X156629654Y-74853500D01*
X156856729Y-74853500D01*
X156924850Y-74873502D01*
X156939242Y-74884276D01*
X157010569Y-74946082D01*
X157010572Y-74946084D01*
X157017381Y-74951984D01*
X157025579Y-74955728D01*
X157133553Y-75005038D01*
X157150330Y-75012700D01*
X157159245Y-75013982D01*
X157159246Y-75013982D01*
X157290552Y-75032861D01*
X157290559Y-75032862D01*
X157295000Y-75033500D01*
X157745000Y-75033500D01*
X157818079Y-75028273D01*
X157915748Y-74999595D01*
X157949670Y-74989635D01*
X157949672Y-74989634D01*
X157958316Y-74987096D01*
X157996472Y-74962574D01*
X158073691Y-74912949D01*
X158073694Y-74912947D01*
X158081271Y-74908077D01*
X158111231Y-74873502D01*
X158113870Y-74870457D01*
X158162709Y-74835819D01*
X158197200Y-74822163D01*
X158208430Y-74818318D01*
X158250878Y-74805986D01*
X158257706Y-74801948D01*
X158268311Y-74795677D01*
X158286062Y-74786981D01*
X158297526Y-74782442D01*
X158297529Y-74782440D01*
X158304900Y-74779522D01*
X158340668Y-74753535D01*
X158350591Y-74747016D01*
X158388641Y-74724514D01*
X158389059Y-74724145D01*
X158403142Y-74710062D01*
X158418167Y-74697228D01*
X158434383Y-74685446D01*
X158462330Y-74651664D01*
X158470319Y-74642885D01*
X158976905Y-74136299D01*
X159039217Y-74102273D01*
X159110032Y-74107338D01*
G37*
G04 #@! TD.AperFunction*
G04 #@! TA.AperFunction,Conductor*
G36*
X134165627Y-71242002D02*
G01*
X134186601Y-71258905D01*
X134817582Y-71889886D01*
X134851608Y-71952198D01*
X134853797Y-71965810D01*
X134867373Y-72094978D01*
X134871162Y-72131027D01*
X134873202Y-72137305D01*
X134873202Y-72137306D01*
X134875847Y-72145446D01*
X134930176Y-72312654D01*
X134933479Y-72318376D01*
X134933480Y-72318377D01*
X134949536Y-72346186D01*
X135025663Y-72478042D01*
X135030081Y-72482949D01*
X135030082Y-72482950D01*
X135108130Y-72569631D01*
X135153449Y-72619963D01*
X135158791Y-72623844D01*
X135158793Y-72623846D01*
X135284564Y-72715223D01*
X135307950Y-72732214D01*
X135313976Y-72734897D01*
X135313983Y-72734901D01*
X135411901Y-72778496D01*
X135465997Y-72824476D01*
X135486647Y-72892403D01*
X135467295Y-72960711D01*
X135449748Y-72982698D01*
X135449051Y-72983395D01*
X135386739Y-73017421D01*
X135359956Y-73020300D01*
X133214584Y-73020300D01*
X133203680Y-73019786D01*
X133196289Y-73018134D01*
X133188363Y-73018383D01*
X133188362Y-73018383D01*
X133129334Y-73020238D01*
X133125377Y-73020300D01*
X133096622Y-73020300D01*
X133092355Y-73020839D01*
X133080513Y-73021772D01*
X133048865Y-73022767D01*
X133044240Y-73022912D01*
X133036317Y-73023161D01*
X133016867Y-73028812D01*
X132997505Y-73032822D01*
X132994780Y-73033166D01*
X132985270Y-73034367D01*
X132985267Y-73034368D01*
X132977412Y-73035360D01*
X132970047Y-73038276D01*
X132970043Y-73038277D01*
X132936299Y-73051637D01*
X132925072Y-73055481D01*
X132882622Y-73067814D01*
X132875794Y-73071852D01*
X132865189Y-73078123D01*
X132847438Y-73086819D01*
X132835974Y-73091358D01*
X132835971Y-73091360D01*
X132828600Y-73094278D01*
X132822184Y-73098939D01*
X132822185Y-73098939D01*
X132792833Y-73120265D01*
X132782910Y-73126783D01*
X132744859Y-73149286D01*
X132744441Y-73149655D01*
X132730358Y-73163738D01*
X132715333Y-73176572D01*
X132699117Y-73188354D01*
X132673882Y-73218858D01*
X132671171Y-73222135D01*
X132663181Y-73230915D01*
X131636873Y-74257223D01*
X131574561Y-74291249D01*
X131510417Y-74288461D01*
X131332792Y-74233307D01*
X131205266Y-74216405D01*
X131109515Y-74203714D01*
X131109510Y-74203714D01*
X131104230Y-74203014D01*
X131098900Y-74203214D01*
X131098899Y-74203214D01*
X131005320Y-74206727D01*
X130873831Y-74211663D01*
X130823136Y-74222300D01*
X130653411Y-74257912D01*
X130653408Y-74257913D01*
X130648184Y-74259009D01*
X130433740Y-74343697D01*
X130236631Y-74463306D01*
X130232601Y-74466803D01*
X130070015Y-74607887D01*
X130062492Y-74614415D01*
X130057339Y-74620700D01*
X130056364Y-74621365D01*
X130055390Y-74622366D01*
X130055186Y-74622168D01*
X129998681Y-74660695D01*
X129927710Y-74662628D01*
X129866961Y-74625885D01*
X129839008Y-74576309D01*
X129825487Y-74530262D01*
X129817096Y-74501684D01*
X129790176Y-74459796D01*
X129742949Y-74386309D01*
X129742947Y-74386306D01*
X129738077Y-74378729D01*
X129724703Y-74367140D01*
X129634431Y-74288918D01*
X129634428Y-74288916D01*
X129627619Y-74283016D01*
X129612302Y-74276021D01*
X129502864Y-74226042D01*
X129502863Y-74226042D01*
X129494670Y-74222300D01*
X129485755Y-74221018D01*
X129485754Y-74221018D01*
X129366568Y-74203882D01*
X129301988Y-74174389D01*
X129263604Y-74114662D01*
X129258500Y-74079164D01*
X129258500Y-73448618D01*
X129278502Y-73380497D01*
X129315414Y-73343247D01*
X129400659Y-73287358D01*
X129433628Y-73265743D01*
X129433629Y-73265742D01*
X129439747Y-73261731D01*
X129561358Y-73133355D01*
X129650175Y-72980445D01*
X129701433Y-72811204D01*
X129702036Y-72804449D01*
X129708251Y-72734815D01*
X129708251Y-72734809D01*
X129708500Y-72732022D01*
X129708500Y-72108114D01*
X129693022Y-71975357D01*
X129680588Y-71941100D01*
X129635184Y-71816015D01*
X129632687Y-71809136D01*
X129535731Y-71661253D01*
X129480048Y-71608504D01*
X129464520Y-71593794D01*
X129428822Y-71532424D01*
X129431970Y-71461498D01*
X129459700Y-71415668D01*
X129470604Y-71404158D01*
X129561358Y-71308355D01*
X129575089Y-71284715D01*
X129626599Y-71235856D01*
X129684043Y-71222000D01*
X134097506Y-71222000D01*
X134165627Y-71242002D01*
G37*
G04 #@! TD.AperFunction*
G04 #@! TA.AperFunction,Conductor*
G36*
X150831121Y-70811002D02*
G01*
X150877614Y-70864658D01*
X150889000Y-70917000D01*
X150889000Y-72501747D01*
X150893475Y-72516986D01*
X150916369Y-72536824D01*
X150954753Y-72596551D01*
X150954753Y-72667547D01*
X150922952Y-72721144D01*
X149794501Y-73849595D01*
X149732189Y-73883621D01*
X149705406Y-73886500D01*
X149084594Y-73886500D01*
X149016473Y-73866498D01*
X148995499Y-73849595D01*
X148698513Y-73552609D01*
X148664487Y-73490297D01*
X148669552Y-73419482D01*
X148693972Y-73379204D01*
X148754618Y-73311850D01*
X148754619Y-73311849D01*
X148759037Y-73306942D01*
X148854524Y-73141554D01*
X148894545Y-73018383D01*
X148911498Y-72966206D01*
X148911498Y-72966205D01*
X148913538Y-72959927D01*
X148921061Y-72888355D01*
X148932810Y-72776565D01*
X148933500Y-72770000D01*
X148920821Y-72649367D01*
X148933593Y-72579529D01*
X148982095Y-72527683D01*
X149050928Y-72510288D01*
X149069741Y-72512429D01*
X149148147Y-72527386D01*
X149148152Y-72527386D01*
X149153989Y-72528500D01*
X149554579Y-72528500D01*
X149613693Y-72521032D01*
X149672141Y-72513649D01*
X149672144Y-72513648D01*
X149680006Y-72512655D01*
X149687372Y-72509738D01*
X149687374Y-72509738D01*
X149827275Y-72454347D01*
X149827277Y-72454346D01*
X149834644Y-72451429D01*
X149859783Y-72433165D01*
X149883199Y-72416152D01*
X149926619Y-72384606D01*
X149993486Y-72360747D01*
X150062637Y-72376828D01*
X150080994Y-72389457D01*
X150123639Y-72424736D01*
X150136921Y-72433165D01*
X150272945Y-72497173D01*
X150287913Y-72502036D01*
X150363206Y-72516400D01*
X150376245Y-72515129D01*
X150381000Y-72500207D01*
X150381000Y-70917000D01*
X150401002Y-70848879D01*
X150454658Y-70802386D01*
X150507000Y-70791000D01*
X150763000Y-70791000D01*
X150831121Y-70811002D01*
G37*
G04 #@! TD.AperFunction*
G04 #@! TA.AperFunction,Conductor*
G36*
X153371121Y-70811002D02*
G01*
X153417614Y-70864658D01*
X153429000Y-70917000D01*
X153429000Y-72501747D01*
X153433475Y-72516987D01*
X153441047Y-72523548D01*
X153479430Y-72583274D01*
X153479430Y-72654271D01*
X153447629Y-72707867D01*
X152969297Y-73186199D01*
X152906985Y-73220225D01*
X152880202Y-73223104D01*
X152824313Y-73223104D01*
X152817861Y-73224476D01*
X152817856Y-73224476D01*
X152730913Y-73242957D01*
X152637513Y-73262810D01*
X152631483Y-73265495D01*
X152631482Y-73265495D01*
X152469080Y-73337801D01*
X152469078Y-73337802D01*
X152463050Y-73340486D01*
X152457709Y-73344366D01*
X152457708Y-73344367D01*
X152413884Y-73376207D01*
X152347016Y-73400066D01*
X152277864Y-73383985D01*
X152228384Y-73333071D01*
X152214285Y-73263488D01*
X152240044Y-73197329D01*
X152250728Y-73185176D01*
X152412513Y-73023391D01*
X152420601Y-73016031D01*
X152426995Y-73011973D01*
X152472870Y-72963121D01*
X152475624Y-72960280D01*
X152495938Y-72939966D01*
X152498583Y-72936555D01*
X152506289Y-72927533D01*
X152531133Y-72901077D01*
X152536557Y-72895301D01*
X152540376Y-72888355D01*
X152546318Y-72877547D01*
X152557172Y-72861023D01*
X152564725Y-72851286D01*
X152564725Y-72851285D01*
X152569583Y-72845023D01*
X152587142Y-72804447D01*
X152592363Y-72793790D01*
X152600771Y-72778496D01*
X152613662Y-72755048D01*
X152615635Y-72747364D01*
X152618699Y-72735432D01*
X152625103Y-72716728D01*
X152629999Y-72705415D01*
X152630001Y-72705408D01*
X152633148Y-72698136D01*
X152640065Y-72654465D01*
X152642472Y-72642844D01*
X152651989Y-72605776D01*
X152651990Y-72605770D01*
X152653465Y-72600025D01*
X152653500Y-72599469D01*
X152653500Y-72597716D01*
X152683562Y-72534306D01*
X152743831Y-72496780D01*
X152816533Y-72498339D01*
X152827910Y-72502036D01*
X152903206Y-72516400D01*
X152916245Y-72515129D01*
X152921000Y-72500207D01*
X152921000Y-70917000D01*
X152941002Y-70848879D01*
X152994658Y-70802386D01*
X153047000Y-70791000D01*
X153303000Y-70791000D01*
X153371121Y-70811002D01*
G37*
G04 #@! TD.AperFunction*
G04 #@! TA.AperFunction,Conductor*
G36*
X138226121Y-58756002D02*
G01*
X138272614Y-58809658D01*
X138284000Y-58862000D01*
X138284000Y-60204885D01*
X138288475Y-60220124D01*
X138289865Y-60221329D01*
X138297548Y-60223000D01*
X138319223Y-60223000D01*
X138326524Y-60222576D01*
X138448255Y-60208383D01*
X138462410Y-60205037D01*
X138614761Y-60149737D01*
X138627760Y-60143227D01*
X138763306Y-60054359D01*
X138774458Y-60045035D01*
X138888919Y-59924207D01*
X138950288Y-59888509D01*
X139021215Y-59891656D01*
X139079181Y-59932650D01*
X139085763Y-59941774D01*
X139090046Y-59948306D01*
X139094269Y-59954747D01*
X139099581Y-59959779D01*
X139099585Y-59959784D01*
X139124771Y-59983643D01*
X139160469Y-60045012D01*
X139157321Y-60115939D01*
X139152127Y-60128760D01*
X139096974Y-60245967D01*
X139095489Y-60253750D01*
X139095488Y-60253754D01*
X139077976Y-60345555D01*
X139069500Y-60389989D01*
X139069500Y-61541500D01*
X139049498Y-61609621D01*
X138995842Y-61656114D01*
X138943500Y-61667500D01*
X138738421Y-61667500D01*
X138689050Y-61673737D01*
X138620859Y-61682351D01*
X138620856Y-61682352D01*
X138612994Y-61683345D01*
X138605628Y-61686262D01*
X138605626Y-61686262D01*
X138465725Y-61741653D01*
X138465723Y-61741654D01*
X138458356Y-61744571D01*
X138451945Y-61749229D01*
X138451943Y-61749230D01*
X138396710Y-61789359D01*
X138323803Y-61842329D01*
X138217788Y-61970479D01*
X138214413Y-61977652D01*
X138214412Y-61977653D01*
X138206460Y-61994553D01*
X138146974Y-62120967D01*
X138145489Y-62128750D01*
X138145488Y-62128754D01*
X138125077Y-62235754D01*
X138119500Y-62264989D01*
X138119500Y-62841500D01*
X138099498Y-62909621D01*
X138045842Y-62956114D01*
X137993500Y-62967500D01*
X136379994Y-62967500D01*
X136361044Y-62966067D01*
X136347881Y-62964064D01*
X136347875Y-62964064D01*
X136340646Y-62962964D01*
X136333354Y-62963557D01*
X136333351Y-62963557D01*
X136289981Y-62967085D01*
X136279766Y-62967500D01*
X136271114Y-62967500D01*
X136257545Y-62969082D01*
X136241537Y-62970948D01*
X136237162Y-62971381D01*
X136171693Y-62976706D01*
X136171690Y-62976707D01*
X136164395Y-62977300D01*
X136157434Y-62979555D01*
X136151539Y-62980733D01*
X136145626Y-62982131D01*
X136138357Y-62982978D01*
X136069733Y-63007887D01*
X136065605Y-63009304D01*
X136003132Y-63029542D01*
X136003127Y-63029544D01*
X135996170Y-63031798D01*
X135989916Y-63035593D01*
X135984438Y-63038101D01*
X135979020Y-63040814D01*
X135972136Y-63043313D01*
X135929583Y-63071212D01*
X135861650Y-63091834D01*
X135793350Y-63072454D01*
X135746369Y-63019225D01*
X135734500Y-62965839D01*
X135734500Y-62739500D01*
X135754502Y-62671379D01*
X135808158Y-62624886D01*
X135860500Y-62613500D01*
X136350000Y-62613500D01*
X136423079Y-62608273D01*
X136501165Y-62585345D01*
X136554670Y-62569635D01*
X136554672Y-62569634D01*
X136563316Y-62567096D01*
X136627135Y-62526082D01*
X136678691Y-62492949D01*
X136678694Y-62492947D01*
X136686271Y-62488077D01*
X136726048Y-62442172D01*
X136776082Y-62384431D01*
X136776084Y-62384428D01*
X136781984Y-62377619D01*
X136842700Y-62244670D01*
X136859366Y-62128754D01*
X136862861Y-62104448D01*
X136862862Y-62104441D01*
X136863500Y-62100000D01*
X136863500Y-60900000D01*
X136858273Y-60826921D01*
X136823175Y-60707386D01*
X136819635Y-60695330D01*
X136819634Y-60695328D01*
X136817096Y-60686684D01*
X136765959Y-60607114D01*
X136742949Y-60571309D01*
X136742947Y-60571306D01*
X136738077Y-60563729D01*
X136701166Y-60531745D01*
X136634431Y-60473918D01*
X136634428Y-60473916D01*
X136627619Y-60468016D01*
X136494670Y-60407300D01*
X136485755Y-60406018D01*
X136485754Y-60406018D01*
X136354448Y-60387139D01*
X136354441Y-60387138D01*
X136350000Y-60386500D01*
X132650000Y-60386500D01*
X132576921Y-60391727D01*
X132523884Y-60407300D01*
X132445330Y-60430365D01*
X132445328Y-60430366D01*
X132436684Y-60432904D01*
X132398528Y-60457426D01*
X132321309Y-60507051D01*
X132321306Y-60507053D01*
X132313729Y-60511923D01*
X132307828Y-60518733D01*
X132223918Y-60615569D01*
X132223916Y-60615572D01*
X132218016Y-60622381D01*
X132157300Y-60755330D01*
X132156018Y-60764245D01*
X132156018Y-60764246D01*
X132137139Y-60895552D01*
X132137138Y-60895559D01*
X132136500Y-60900000D01*
X132136500Y-62100000D01*
X132141727Y-62173079D01*
X132143631Y-62179562D01*
X132180169Y-62304000D01*
X132182904Y-62313316D01*
X132187775Y-62320895D01*
X132257051Y-62428691D01*
X132257053Y-62428694D01*
X132261923Y-62436271D01*
X132268733Y-62442172D01*
X132365569Y-62526082D01*
X132365572Y-62526084D01*
X132372381Y-62531984D01*
X132505330Y-62592700D01*
X132514245Y-62593982D01*
X132514246Y-62593982D01*
X132645552Y-62612861D01*
X132645559Y-62612862D01*
X132650000Y-62613500D01*
X134091500Y-62613500D01*
X134159621Y-62633502D01*
X134206114Y-62687158D01*
X134217500Y-62739500D01*
X134217500Y-63500500D01*
X134197498Y-63568621D01*
X134143842Y-63615114D01*
X134091500Y-63626500D01*
X133976000Y-63626500D01*
X133902921Y-63631727D01*
X133824835Y-63654655D01*
X133771330Y-63670365D01*
X133771328Y-63670366D01*
X133762684Y-63672904D01*
X133755105Y-63677775D01*
X133647309Y-63747051D01*
X133647306Y-63747053D01*
X133639729Y-63751923D01*
X133633828Y-63758733D01*
X133549918Y-63855569D01*
X133549916Y-63855572D01*
X133544016Y-63862381D01*
X133540272Y-63870579D01*
X133503417Y-63951281D01*
X133483300Y-63995330D01*
X133482018Y-64004245D01*
X133482018Y-64004246D01*
X133463139Y-64135552D01*
X133463138Y-64135559D01*
X133462500Y-64140000D01*
X133462500Y-66001397D01*
X133442498Y-66069518D01*
X133388842Y-66116011D01*
X133362701Y-66124643D01*
X133237713Y-66151210D01*
X133231683Y-66153895D01*
X133231682Y-66153895D01*
X133069280Y-66226201D01*
X133069278Y-66226202D01*
X133063250Y-66228886D01*
X133057909Y-66232766D01*
X133057908Y-66232767D01*
X132914093Y-66337254D01*
X132914091Y-66337256D01*
X132908749Y-66341137D01*
X132904328Y-66346047D01*
X132904327Y-66346048D01*
X132798415Y-66463676D01*
X132780963Y-66483058D01*
X132739150Y-66555480D01*
X132702491Y-66618976D01*
X132685476Y-66648446D01*
X132626462Y-66830073D01*
X132606500Y-67020000D01*
X132626462Y-67209927D01*
X132685476Y-67391554D01*
X132780963Y-67556942D01*
X132785381Y-67561849D01*
X132785382Y-67561850D01*
X132866224Y-67651634D01*
X132908749Y-67698863D01*
X132914091Y-67702744D01*
X132914093Y-67702746D01*
X133057908Y-67807233D01*
X133063250Y-67811114D01*
X133069278Y-67813798D01*
X133069280Y-67813799D01*
X133231682Y-67886105D01*
X133237713Y-67888790D01*
X133371570Y-67917242D01*
X133434042Y-67950970D01*
X133466853Y-68013336D01*
X133467727Y-68013079D01*
X133482339Y-68062842D01*
X133504411Y-68138013D01*
X133508904Y-68153316D01*
X133533426Y-68191472D01*
X133583051Y-68268691D01*
X133583053Y-68268694D01*
X133587923Y-68276271D01*
X133594733Y-68282172D01*
X133691569Y-68366082D01*
X133691572Y-68366084D01*
X133698381Y-68371984D01*
X133831330Y-68432700D01*
X133840245Y-68433982D01*
X133840246Y-68433982D01*
X133971552Y-68452861D01*
X133971559Y-68452862D01*
X133976000Y-68453500D01*
X135976000Y-68453500D01*
X136049079Y-68448273D01*
X136127165Y-68425345D01*
X136180670Y-68409635D01*
X136180672Y-68409634D01*
X136189316Y-68407096D01*
X136244874Y-68371391D01*
X136304691Y-68332949D01*
X136304694Y-68332947D01*
X136312271Y-68328077D01*
X136326320Y-68311864D01*
X136402082Y-68224431D01*
X136402084Y-68224428D01*
X136407984Y-68217619D01*
X136425092Y-68180158D01*
X136464958Y-68092864D01*
X136464958Y-68092863D01*
X136468700Y-68084670D01*
X136478369Y-68017418D01*
X136488861Y-67944448D01*
X136488862Y-67944441D01*
X136489500Y-67940000D01*
X136489500Y-64675371D01*
X136509502Y-64607250D01*
X136526405Y-64586276D01*
X136591276Y-64521405D01*
X136653588Y-64487379D01*
X136680371Y-64484500D01*
X137793500Y-64484500D01*
X137861621Y-64504502D01*
X137908114Y-64558158D01*
X137919500Y-64610500D01*
X137919500Y-65567886D01*
X137934978Y-65700643D01*
X137995313Y-65866864D01*
X138049122Y-65948936D01*
X138084044Y-66002201D01*
X138092269Y-66014747D01*
X138220645Y-66136358D01*
X138311084Y-66188889D01*
X138359942Y-66240398D01*
X138373196Y-66310147D01*
X138346637Y-66375989D01*
X138316883Y-66403214D01*
X138224663Y-66463676D01*
X138193253Y-66484269D01*
X138071642Y-66612645D01*
X137982825Y-66765555D01*
X137931567Y-66934796D01*
X137924500Y-67013978D01*
X137924500Y-68012886D01*
X137939978Y-68145643D01*
X137942474Y-68152521D01*
X137942475Y-68152523D01*
X137992893Y-68291423D01*
X138000313Y-68311864D01*
X138079639Y-68432856D01*
X138100261Y-68500789D01*
X138080881Y-68569090D01*
X138063361Y-68591034D01*
X137627485Y-69026910D01*
X137619397Y-69034270D01*
X137613005Y-69038327D01*
X137585591Y-69067519D01*
X137567145Y-69087162D01*
X137564395Y-69090000D01*
X137544062Y-69110334D01*
X137541417Y-69113745D01*
X137533713Y-69122765D01*
X137503443Y-69154999D01*
X137499626Y-69161943D01*
X137499624Y-69161945D01*
X137493682Y-69172753D01*
X137482828Y-69189277D01*
X137470417Y-69205277D01*
X137467270Y-69212548D01*
X137467267Y-69212554D01*
X137464762Y-69218344D01*
X137419351Y-69272919D01*
X137384623Y-69289200D01*
X137376876Y-69291475D01*
X137375671Y-69292865D01*
X137374000Y-69300548D01*
X137374000Y-70648000D01*
X137353998Y-70716121D01*
X137300342Y-70762614D01*
X137248000Y-70774000D01*
X136130115Y-70774000D01*
X136114876Y-70778475D01*
X136113671Y-70779865D01*
X136112000Y-70787548D01*
X136112000Y-70930531D01*
X136091998Y-70998652D01*
X136038342Y-71045145D01*
X135968068Y-71055249D01*
X135959803Y-71053778D01*
X135866644Y-71033976D01*
X135866639Y-71033976D01*
X135860187Y-71032604D01*
X135804298Y-71032604D01*
X135736177Y-71012602D01*
X135715203Y-70995699D01*
X134915491Y-70195987D01*
X134908131Y-70187899D01*
X134904073Y-70181505D01*
X134855221Y-70135630D01*
X134852380Y-70132876D01*
X134832066Y-70112562D01*
X134828655Y-70109917D01*
X134819633Y-70102211D01*
X134793177Y-70077367D01*
X134787401Y-70071943D01*
X134780457Y-70068126D01*
X134780455Y-70068124D01*
X134769647Y-70062182D01*
X134753123Y-70051328D01*
X134743386Y-70043775D01*
X134743385Y-70043775D01*
X134737123Y-70038917D01*
X134696547Y-70021358D01*
X134685890Y-70016137D01*
X134674887Y-70010088D01*
X134647148Y-69994838D01*
X134639465Y-69992866D01*
X134639464Y-69992865D01*
X134635235Y-69991779D01*
X136112000Y-69991779D01*
X136112000Y-70247885D01*
X136116475Y-70263124D01*
X136117865Y-70264329D01*
X136125548Y-70266000D01*
X136847885Y-70266000D01*
X136863124Y-70261525D01*
X136864329Y-70260135D01*
X136866000Y-70252452D01*
X136866000Y-69305115D01*
X136861525Y-69289876D01*
X136860135Y-69288671D01*
X136852452Y-69287000D01*
X136830777Y-69287000D01*
X136823476Y-69287424D01*
X136701745Y-69301617D01*
X136687590Y-69304963D01*
X136535239Y-69360263D01*
X136522240Y-69366773D01*
X136386694Y-69455641D01*
X136375542Y-69464965D01*
X136264078Y-69582629D01*
X136255365Y-69594276D01*
X136173957Y-69734429D01*
X136168163Y-69747754D01*
X136120932Y-69903700D01*
X136118484Y-69916323D01*
X136112249Y-69986184D01*
X136112000Y-69991779D01*
X134635235Y-69991779D01*
X134627532Y-69989801D01*
X134608828Y-69983397D01*
X134597515Y-69978501D01*
X134597508Y-69978499D01*
X134590236Y-69975352D01*
X134582412Y-69974113D01*
X134582409Y-69974112D01*
X134546565Y-69968435D01*
X134534944Y-69966028D01*
X134497882Y-69956513D01*
X134497881Y-69956513D01*
X134492125Y-69955035D01*
X134491569Y-69955000D01*
X134471648Y-69955000D01*
X134451938Y-69953449D01*
X134439986Y-69951556D01*
X134439985Y-69951556D01*
X134432156Y-69950316D01*
X134424264Y-69951062D01*
X134388518Y-69954441D01*
X134376660Y-69955000D01*
X129681642Y-69955000D01*
X129613521Y-69934998D01*
X129576270Y-69898085D01*
X129567820Y-69885197D01*
X129535731Y-69836253D01*
X129519601Y-69820973D01*
X129483903Y-69759604D01*
X129487050Y-69688677D01*
X129528044Y-69630711D01*
X129593869Y-69604110D01*
X129606254Y-69603500D01*
X129676000Y-69603500D01*
X129749079Y-69598273D01*
X129827165Y-69575345D01*
X129880670Y-69559635D01*
X129880672Y-69559634D01*
X129889316Y-69557096D01*
X129962219Y-69510244D01*
X130004691Y-69482949D01*
X130004694Y-69482947D01*
X130012271Y-69478077D01*
X130083931Y-69395378D01*
X130102082Y-69374431D01*
X130102084Y-69374428D01*
X130107984Y-69367619D01*
X130138126Y-69301617D01*
X130164958Y-69242864D01*
X130164958Y-69242863D01*
X130168700Y-69234670D01*
X130172926Y-69205277D01*
X130188861Y-69094448D01*
X130188862Y-69094441D01*
X130189500Y-69090000D01*
X130189500Y-67946034D01*
X130209502Y-67877913D01*
X130263158Y-67831420D01*
X130333432Y-67821316D01*
X130366752Y-67830929D01*
X130375876Y-67834992D01*
X130375884Y-67834995D01*
X130381911Y-67837678D01*
X130468645Y-67856114D01*
X130562254Y-67876012D01*
X130562259Y-67876012D01*
X130568711Y-67877384D01*
X130759685Y-67877384D01*
X130766137Y-67876012D01*
X130766142Y-67876012D01*
X130859751Y-67856114D01*
X130946485Y-67837678D01*
X130960541Y-67831420D01*
X131114918Y-67762687D01*
X131114920Y-67762686D01*
X131120948Y-67760002D01*
X131205099Y-67698863D01*
X131270105Y-67651634D01*
X131270107Y-67651632D01*
X131275449Y-67647751D01*
X131321841Y-67596227D01*
X131398816Y-67510738D01*
X131398817Y-67510737D01*
X131403235Y-67505830D01*
X131498722Y-67340442D01*
X131557736Y-67158815D01*
X131577698Y-66968888D01*
X131557736Y-66778961D01*
X131551324Y-66759225D01*
X131500764Y-66603619D01*
X131498722Y-66597334D01*
X131439579Y-66494895D01*
X131422698Y-66431896D01*
X131422698Y-64980192D01*
X131424131Y-64961242D01*
X131426134Y-64948079D01*
X131426134Y-64948073D01*
X131427234Y-64940844D01*
X131423113Y-64890179D01*
X131422698Y-64879964D01*
X131422698Y-64871312D01*
X131419250Y-64841735D01*
X131418817Y-64837360D01*
X131413492Y-64771891D01*
X131413491Y-64771888D01*
X131412898Y-64764593D01*
X131410643Y-64757632D01*
X131409465Y-64751737D01*
X131408067Y-64745824D01*
X131407220Y-64738555D01*
X131382311Y-64669931D01*
X131380894Y-64665803D01*
X131360656Y-64603330D01*
X131360654Y-64603325D01*
X131358400Y-64596368D01*
X131354605Y-64590114D01*
X131352097Y-64584636D01*
X131349383Y-64579217D01*
X131346885Y-64572334D01*
X131306853Y-64511275D01*
X131304516Y-64507571D01*
X131269576Y-64449990D01*
X131269573Y-64449986D01*
X131266664Y-64445192D01*
X131258447Y-64435888D01*
X131256226Y-64433304D01*
X131253943Y-64430574D01*
X131249929Y-64424451D01*
X131198066Y-64375321D01*
X131195624Y-64372943D01*
X130226405Y-63403724D01*
X130192379Y-63341412D01*
X130189500Y-63314629D01*
X130189500Y-62990000D01*
X130184273Y-62916921D01*
X130143096Y-62776684D01*
X130085561Y-62687158D01*
X130068949Y-62661309D01*
X130068947Y-62661306D01*
X130064077Y-62653729D01*
X130012175Y-62608755D01*
X129960431Y-62563918D01*
X129960428Y-62563916D01*
X129953619Y-62558016D01*
X129820670Y-62497300D01*
X129811755Y-62496018D01*
X129811754Y-62496018D01*
X129680448Y-62477139D01*
X129680441Y-62477138D01*
X129676000Y-62476500D01*
X127784500Y-62476500D01*
X127716379Y-62456498D01*
X127669886Y-62402842D01*
X127658500Y-62350500D01*
X127658500Y-62059500D01*
X127678502Y-61991379D01*
X127732158Y-61944886D01*
X127784500Y-61933500D01*
X128512886Y-61933500D01*
X128608106Y-61922398D01*
X128638371Y-61918870D01*
X128638372Y-61918870D01*
X128645643Y-61918022D01*
X128652521Y-61915526D01*
X128652523Y-61915525D01*
X128804985Y-61860184D01*
X128811864Y-61857687D01*
X128957052Y-61762498D01*
X128957054Y-61762497D01*
X128959747Y-61760731D01*
X128960049Y-61761192D01*
X129020602Y-61734821D01*
X129090686Y-61746165D01*
X129122981Y-61768363D01*
X129162629Y-61805922D01*
X129174276Y-61814635D01*
X129314429Y-61896043D01*
X129327754Y-61901837D01*
X129483700Y-61949068D01*
X129496323Y-61951516D01*
X129566184Y-61957751D01*
X129571779Y-61958000D01*
X129827885Y-61958000D01*
X129843124Y-61953525D01*
X129844329Y-61952135D01*
X129846000Y-61944452D01*
X129846000Y-61217548D01*
X130354000Y-61217548D01*
X130354000Y-61939885D01*
X130358475Y-61955124D01*
X130359865Y-61956329D01*
X130367548Y-61958000D01*
X130614223Y-61958000D01*
X130621524Y-61957576D01*
X130743255Y-61943383D01*
X130757410Y-61940037D01*
X130909761Y-61884737D01*
X130922760Y-61878227D01*
X131058306Y-61789359D01*
X131069458Y-61780035D01*
X131180922Y-61662371D01*
X131189635Y-61650724D01*
X131271043Y-61510571D01*
X131276837Y-61497246D01*
X131324068Y-61341300D01*
X131326516Y-61328677D01*
X131332751Y-61258816D01*
X131333000Y-61253221D01*
X131333000Y-61222115D01*
X131328525Y-61206876D01*
X131327135Y-61205671D01*
X131319452Y-61204000D01*
X130372115Y-61204000D01*
X130356876Y-61208475D01*
X130355671Y-61209865D01*
X130354000Y-61217548D01*
X129846000Y-61217548D01*
X129846000Y-60822000D01*
X129866002Y-60753879D01*
X129919658Y-60707386D01*
X129972000Y-60696000D01*
X131314885Y-60696000D01*
X131330124Y-60691525D01*
X131331329Y-60690135D01*
X131333000Y-60682452D01*
X131333000Y-60660777D01*
X131332576Y-60653476D01*
X131318383Y-60531745D01*
X131315037Y-60517590D01*
X131259737Y-60365239D01*
X131253227Y-60352240D01*
X131164359Y-60216694D01*
X131155035Y-60205542D01*
X131034207Y-60091081D01*
X130998509Y-60029712D01*
X131001656Y-59958785D01*
X131042650Y-59900819D01*
X131051774Y-59894237D01*
X131058625Y-59889745D01*
X131058626Y-59889744D01*
X131064747Y-59885731D01*
X131117360Y-59830191D01*
X131148000Y-59797847D01*
X131209369Y-59762149D01*
X131239473Y-59758500D01*
X132403034Y-59758500D01*
X132455377Y-59769887D01*
X132497133Y-59788957D01*
X132497136Y-59788958D01*
X132505330Y-59792700D01*
X132514247Y-59793982D01*
X132645552Y-59812861D01*
X132645559Y-59812862D01*
X132650000Y-59813500D01*
X136350000Y-59813500D01*
X136423079Y-59808273D01*
X136521259Y-59779445D01*
X136554670Y-59769635D01*
X136554672Y-59769634D01*
X136563316Y-59767096D01*
X136601472Y-59742574D01*
X136678691Y-59692949D01*
X136678694Y-59692947D01*
X136686271Y-59688077D01*
X136692172Y-59681267D01*
X136776082Y-59584431D01*
X136776084Y-59584428D01*
X136781984Y-59577619D01*
X136792166Y-59555324D01*
X136838658Y-59501668D01*
X136906779Y-59481665D01*
X136974900Y-59501666D01*
X137021393Y-59555322D01*
X137031932Y-59593073D01*
X137036617Y-59633255D01*
X137039963Y-59647410D01*
X137095263Y-59799761D01*
X137101773Y-59812760D01*
X137190641Y-59948306D01*
X137199965Y-59959458D01*
X137317629Y-60070922D01*
X137329276Y-60079635D01*
X137469429Y-60161043D01*
X137482754Y-60166837D01*
X137638700Y-60214068D01*
X137651323Y-60216516D01*
X137721184Y-60222751D01*
X137726779Y-60223000D01*
X137757885Y-60223000D01*
X137773124Y-60218525D01*
X137774329Y-60217135D01*
X137776000Y-60209452D01*
X137776000Y-58862000D01*
X137796002Y-58793879D01*
X137849658Y-58747386D01*
X137902000Y-58736000D01*
X138158000Y-58736000D01*
X138226121Y-58756002D01*
G37*
G04 #@! TD.AperFunction*
G04 #@! TA.AperFunction,Conductor*
G36*
X159491689Y-67485002D02*
G01*
X159538182Y-67538658D01*
X159549567Y-67590405D01*
X159552932Y-68304985D01*
X159555671Y-68886707D01*
X159535990Y-68954921D01*
X159489498Y-68995083D01*
X159490528Y-68996715D01*
X159490527Y-68996716D01*
X159490526Y-68996716D01*
X159465555Y-69012472D01*
X159450481Y-69020605D01*
X159423611Y-69032822D01*
X159404197Y-69049550D01*
X159389190Y-69060654D01*
X159367514Y-69074331D01*
X159367513Y-69074332D01*
X159366082Y-69072064D01*
X159313975Y-69095305D01*
X159243793Y-69084580D01*
X159216833Y-69067519D01*
X159201665Y-69054971D01*
X159192885Y-69046981D01*
X158523391Y-68377487D01*
X158516031Y-68369399D01*
X158511973Y-68363005D01*
X158463121Y-68317130D01*
X158460280Y-68314376D01*
X158439966Y-68294062D01*
X158436555Y-68291417D01*
X158427533Y-68283711D01*
X158411539Y-68268691D01*
X158395301Y-68253443D01*
X158388357Y-68249626D01*
X158388355Y-68249624D01*
X158377547Y-68243682D01*
X158361023Y-68232828D01*
X158351286Y-68225275D01*
X158351285Y-68225275D01*
X158345023Y-68220417D01*
X158304447Y-68202858D01*
X158293790Y-68197637D01*
X158255048Y-68176338D01*
X158247365Y-68174366D01*
X158247364Y-68174365D01*
X158235432Y-68171301D01*
X158216728Y-68164897D01*
X158205415Y-68160001D01*
X158205408Y-68159999D01*
X158198136Y-68156852D01*
X158190312Y-68155613D01*
X158190309Y-68155612D01*
X158154465Y-68149935D01*
X158142844Y-68147528D01*
X158105782Y-68138013D01*
X158105781Y-68138013D01*
X158100025Y-68136535D01*
X158099469Y-68136500D01*
X158079548Y-68136500D01*
X158059838Y-68134949D01*
X158047886Y-68133056D01*
X158047885Y-68133056D01*
X158040056Y-68131816D01*
X158032164Y-68132562D01*
X157996418Y-68135941D01*
X157984560Y-68136500D01*
X152498499Y-68136500D01*
X152430378Y-68116498D01*
X152383885Y-68062842D01*
X152372499Y-68010500D01*
X152372499Y-67975451D01*
X152392501Y-67907330D01*
X152445064Y-67862219D01*
X152444997Y-67862103D01*
X152445617Y-67861745D01*
X152447247Y-67860346D01*
X152450713Y-67858803D01*
X152450722Y-67858798D01*
X152456750Y-67856114D01*
X152490739Y-67831420D01*
X152605907Y-67747746D01*
X152605909Y-67747744D01*
X152611251Y-67743863D01*
X152694294Y-67651634D01*
X152734618Y-67606850D01*
X152734619Y-67606849D01*
X152739037Y-67601942D01*
X152781729Y-67527998D01*
X152833111Y-67479006D01*
X152890847Y-67465000D01*
X159423568Y-67465000D01*
X159491689Y-67485002D01*
G37*
G04 #@! TD.AperFunction*
G04 #@! TA.AperFunction,Conductor*
G36*
X146011495Y-59912083D02*
G01*
X146069461Y-59953077D01*
X146076039Y-59962194D01*
X146084269Y-59974747D01*
X146089581Y-59979779D01*
X146151117Y-60038073D01*
X146186815Y-60099443D01*
X146183667Y-60170369D01*
X146178472Y-60183194D01*
X146137640Y-60269967D01*
X146136155Y-60277750D01*
X146136154Y-60277754D01*
X146111442Y-60407300D01*
X146110166Y-60413989D01*
X146110166Y-61565500D01*
X146090164Y-61633621D01*
X146036508Y-61680114D01*
X145984166Y-61691500D01*
X145779087Y-61691500D01*
X145719973Y-61698968D01*
X145661525Y-61706351D01*
X145661522Y-61706352D01*
X145653660Y-61707345D01*
X145646294Y-61710262D01*
X145646292Y-61710262D01*
X145506391Y-61765653D01*
X145506389Y-61765654D01*
X145499022Y-61768571D01*
X145492611Y-61773229D01*
X145492609Y-61773230D01*
X145435620Y-61814635D01*
X145364469Y-61866329D01*
X145258454Y-61994479D01*
X145257374Y-61993585D01*
X145210347Y-62034806D01*
X145140132Y-62045310D01*
X145075384Y-62016185D01*
X145055417Y-61994553D01*
X144988331Y-61902217D01*
X144983671Y-61895803D01*
X144855521Y-61789788D01*
X144705033Y-61718974D01*
X144697250Y-61717489D01*
X144697246Y-61717488D01*
X144566852Y-61692614D01*
X144566849Y-61692614D01*
X144561011Y-61691500D01*
X144334500Y-61691500D01*
X144266379Y-61671498D01*
X144219886Y-61617842D01*
X144208500Y-61565500D01*
X144208500Y-60435421D01*
X144197814Y-60350831D01*
X144193649Y-60317859D01*
X144193648Y-60317856D01*
X144192655Y-60309994D01*
X144189737Y-60302623D01*
X144189737Y-60302622D01*
X144180733Y-60279882D01*
X144174252Y-60209182D01*
X144207024Y-60146202D01*
X144268643Y-60110937D01*
X144339546Y-60114584D01*
X144361170Y-60124543D01*
X144465555Y-60185175D01*
X144634796Y-60236433D01*
X144641236Y-60237008D01*
X144641237Y-60237008D01*
X144711185Y-60243251D01*
X144711191Y-60243251D01*
X144713978Y-60243500D01*
X145312886Y-60243500D01*
X145408106Y-60232398D01*
X145438371Y-60228870D01*
X145438372Y-60228870D01*
X145445643Y-60228022D01*
X145452521Y-60225526D01*
X145452523Y-60225525D01*
X145604985Y-60170184D01*
X145611864Y-60167687D01*
X145728752Y-60091052D01*
X145753628Y-60074743D01*
X145753629Y-60074742D01*
X145759747Y-60070731D01*
X145879199Y-59944634D01*
X145940568Y-59908936D01*
X146011495Y-59912083D01*
G37*
G04 #@! TD.AperFunction*
G04 #@! TA.AperFunction,Conductor*
G36*
X142521495Y-59892083D02*
G01*
X142579461Y-59933077D01*
X142586039Y-59942194D01*
X142594269Y-59954747D01*
X142645665Y-60003434D01*
X142647799Y-60005456D01*
X142683497Y-60066825D01*
X142680350Y-60137752D01*
X142675154Y-60150577D01*
X142643835Y-60217135D01*
X142618974Y-60269967D01*
X142617489Y-60277750D01*
X142617488Y-60277754D01*
X142592776Y-60407300D01*
X142591500Y-60413989D01*
X142591500Y-61565500D01*
X142571498Y-61633621D01*
X142517842Y-61680114D01*
X142465500Y-61691500D01*
X142260421Y-61691500D01*
X142201307Y-61698968D01*
X142142859Y-61706351D01*
X142142856Y-61706352D01*
X142134994Y-61707345D01*
X142127628Y-61710262D01*
X142127626Y-61710262D01*
X141987725Y-61765653D01*
X141987723Y-61765654D01*
X141980356Y-61768571D01*
X141973945Y-61773229D01*
X141973943Y-61773230D01*
X141916954Y-61814635D01*
X141845803Y-61866329D01*
X141840750Y-61872437D01*
X141840749Y-61872438D01*
X141742709Y-61990947D01*
X141683876Y-62030685D01*
X141612897Y-62032306D01*
X141552310Y-61995297D01*
X141543689Y-61984692D01*
X141532828Y-61969742D01*
X141461671Y-61871803D01*
X141333521Y-61765788D01*
X141322775Y-61760731D01*
X141288432Y-61744571D01*
X141183033Y-61694974D01*
X141175250Y-61693489D01*
X141175246Y-61693488D01*
X141044852Y-61668614D01*
X141044849Y-61668614D01*
X141039011Y-61667500D01*
X140812500Y-61667500D01*
X140744379Y-61647498D01*
X140697886Y-61593842D01*
X140686500Y-61541500D01*
X140686500Y-60411421D01*
X140678179Y-60345555D01*
X140671649Y-60293859D01*
X140671648Y-60293856D01*
X140670655Y-60285994D01*
X140664310Y-60269967D01*
X140651232Y-60236938D01*
X140644753Y-60166238D01*
X140677525Y-60103258D01*
X140739144Y-60067994D01*
X140810047Y-60071641D01*
X140831669Y-60081600D01*
X140886206Y-60113277D01*
X140975555Y-60165175D01*
X141144796Y-60216433D01*
X141151236Y-60217008D01*
X141151237Y-60217008D01*
X141221185Y-60223251D01*
X141221191Y-60223251D01*
X141223978Y-60223500D01*
X141822886Y-60223500D01*
X141918106Y-60212398D01*
X141948371Y-60208870D01*
X141948372Y-60208870D01*
X141955643Y-60208022D01*
X141962521Y-60205526D01*
X141962523Y-60205525D01*
X142114985Y-60150184D01*
X142121864Y-60147687D01*
X142230659Y-60076358D01*
X142263628Y-60054743D01*
X142263629Y-60054742D01*
X142269747Y-60050731D01*
X142389199Y-59924634D01*
X142450568Y-59888936D01*
X142521495Y-59892083D01*
G37*
G04 #@! TD.AperFunction*
G04 #@! TA.AperFunction,Conductor*
G36*
X149521495Y-59902083D02*
G01*
X149579461Y-59943077D01*
X149586039Y-59952194D01*
X149594269Y-59964747D01*
X149644545Y-60012373D01*
X149680243Y-60073741D01*
X149677096Y-60144668D01*
X149671903Y-60157487D01*
X149618974Y-60269967D01*
X149617489Y-60277750D01*
X149617488Y-60277754D01*
X149592776Y-60407300D01*
X149591500Y-60413989D01*
X149591500Y-61565500D01*
X149571498Y-61633621D01*
X149517842Y-61680114D01*
X149465500Y-61691500D01*
X149260421Y-61691500D01*
X149201307Y-61698968D01*
X149142859Y-61706351D01*
X149142856Y-61706352D01*
X149134994Y-61707345D01*
X149127628Y-61710262D01*
X149127626Y-61710262D01*
X148987725Y-61765653D01*
X148987723Y-61765654D01*
X148980356Y-61768571D01*
X148973945Y-61773229D01*
X148973943Y-61773230D01*
X148916954Y-61814635D01*
X148845803Y-61866329D01*
X148759643Y-61970479D01*
X148755078Y-61975997D01*
X148696244Y-62015736D01*
X148625266Y-62017358D01*
X148564679Y-61980349D01*
X148556061Y-61969749D01*
X148502337Y-61895803D01*
X148374187Y-61789788D01*
X148223699Y-61718974D01*
X148215916Y-61717489D01*
X148215912Y-61717488D01*
X148085518Y-61692614D01*
X148085515Y-61692614D01*
X148079677Y-61691500D01*
X147853166Y-61691500D01*
X147785045Y-61671498D01*
X147738552Y-61617842D01*
X147727166Y-61565500D01*
X147727166Y-60435421D01*
X147716480Y-60350831D01*
X147712315Y-60317859D01*
X147712314Y-60317856D01*
X147711321Y-60309994D01*
X147708403Y-60302623D01*
X147708403Y-60302622D01*
X147696845Y-60273430D01*
X147690366Y-60202729D01*
X147723139Y-60139750D01*
X147784759Y-60104486D01*
X147855662Y-60108135D01*
X147877273Y-60118088D01*
X147975555Y-60175175D01*
X148144796Y-60226433D01*
X148151236Y-60227008D01*
X148151237Y-60227008D01*
X148221185Y-60233251D01*
X148221191Y-60233251D01*
X148223978Y-60233500D01*
X148822886Y-60233500D01*
X148918106Y-60222398D01*
X148948371Y-60218870D01*
X148948372Y-60218870D01*
X148955643Y-60218022D01*
X148962521Y-60215526D01*
X148962523Y-60215525D01*
X149114985Y-60160184D01*
X149121864Y-60157687D01*
X149235079Y-60083460D01*
X149263628Y-60064743D01*
X149263629Y-60064742D01*
X149269747Y-60060731D01*
X149389199Y-59934634D01*
X149450568Y-59898936D01*
X149521495Y-59902083D01*
G37*
G04 #@! TD.AperFunction*
G04 #@! TA.AperFunction,Conductor*
G36*
X139241627Y-57683556D02*
G01*
X139288132Y-57737201D01*
X139298250Y-57807473D01*
X139268771Y-57872060D01*
X139242613Y-57894940D01*
X139196376Y-57925254D01*
X139196373Y-57925257D01*
X139190253Y-57929269D01*
X139185222Y-57934580D01*
X139185217Y-57934584D01*
X139070450Y-58055736D01*
X139009081Y-58091435D01*
X138938154Y-58088288D01*
X138880189Y-58047294D01*
X138873606Y-58038171D01*
X138869359Y-58031693D01*
X138860035Y-58020542D01*
X138742371Y-57909078D01*
X138730718Y-57900360D01*
X138727688Y-57898600D01*
X138726034Y-57896856D01*
X138724863Y-57895980D01*
X138725013Y-57895780D01*
X138678832Y-57847087D01*
X138665581Y-57777338D01*
X138692143Y-57711498D01*
X138750084Y-57670470D01*
X138790951Y-57663649D01*
X138823433Y-57663642D01*
X139173502Y-57663568D01*
X139241627Y-57683556D01*
G37*
G04 #@! TD.AperFunction*
M02*
