<?xml version="1.0" standalone="no"?>
 <!DOCTYPE svg PUBLIC "-//W3C//DTD SVG 1.1//EN" 
 "http://www.w3.org/Graphics/SVG/1.1/DTD/svg11.dtd"> 
<svg
  xmlns:svg="http://www.w3.org/2000/svg"
  xmlns="http://www.w3.org/2000/svg"
  xmlns:xlink="http://www.w3.org/1999/xlink"
  version="1.1"
  width="29.700220cm" height="21.000720cm" viewBox="0 0 297002200 210007200">
<title>SVG Picture created as OpenHVPS-5-F_Paste.svg date 2021/04/25 21:02:59 </title>
  <desc>Picture generated by PCBNEW </desc>
<g style="fill:#000000; fill-opacity:1.000000;stroke:#000000; stroke-opacity:1.000000;
stroke-linecap:round; stroke-linejoin:round;"
 transform="translate(0 0) scale(1 1)">
</g>
<g style="fill:#000000; fill-opacity:0.0; 
stroke:#000000; stroke-width:0.000000; stroke-opacity:1; 
stroke-linecap:round; stroke-linejoin:round;">
<g >
</g>
<g style="fill:#000000; fill-opacity:0.0; 
stroke:#000000; stroke-width:1.000000; stroke-opacity:1; 
stroke-linecap:round; stroke-linejoin:round;">
</g>
<g style="fill:#000000; fill-opacity:1.0; 
stroke:#000000; stroke-width:1.000000; stroke-opacity:1; 
stroke-linecap:round; stroke-linejoin:round;">
<path style="fill:#000000; fill-opacity:1.0; 
stroke:#000000; stroke-width:1.000000; stroke-opacity:1; 
stroke-linecap:round; stroke-linejoin:round;fill-rule:evenodd;"
d="M 145468666.000000,65525000.000000
145487696.000000,65620671.000000
145541889.000000,65701777.000000
145622995.000000,65755970.000000
145718666.000000,65775000.000000
146218666.000000,65775000.000000
146314337.000000,65755970.000000
146395443.000000,65701777.000000
146449636.000000,65620671.000000
146468666.000000,65525000.000000
146468666.000000,64575000.000000
146449636.000000,64479329.000000
146395443.000000,64398223.000000
146314337.000000,64344030.000000
146218666.000000,64325000.000000
145718666.000000,64325000.000000
145622995.000000,64344030.000000
145541889.000000,64398223.000000
145487696.000000,64479329.000000
145468666.000000,64575000.000000
Z" /> 
<path style="fill:#000000; fill-opacity:1.0; 
stroke:#000000; stroke-width:1.000000; stroke-opacity:1; 
stroke-linecap:round; stroke-linejoin:round;fill-rule:evenodd;"
d="M 147368666.000000,65525000.000000
147387696.000000,65620671.000000
147441889.000000,65701777.000000
147522995.000000,65755970.000000
147618666.000000,65775000.000000
148118666.000000,65775000.000000
148214337.000000,65755970.000000
148295443.000000,65701777.000000
148349636.000000,65620671.000000
148368666.000000,65525000.000000
148368666.000000,64575000.000000
148349636.000000,64479329.000000
148295443.000000,64398223.000000
148214337.000000,64344030.000000
148118666.000000,64325000.000000
147618666.000000,64325000.000000
147522995.000000,64344030.000000
147441889.000000,64398223.000000
147387696.000000,64479329.000000
147368666.000000,64575000.000000
Z" /> 
</g>
<g >
</g>
<g style="fill:#000000; fill-opacity:1.0; 
stroke:#000000; stroke-width:1.000000; stroke-opacity:1; 
stroke-linecap:round; stroke-linejoin:round;">
<path style="fill:#000000; fill-opacity:1.0; 
stroke:#000000; stroke-width:1.000000; stroke-opacity:1; 
stroke-linecap:round; stroke-linejoin:round;fill-rule:evenodd;"
d="M 128950000.000000,72926000.000000
129045671.000000,72906970.000000
129126777.000000,72852777.000000
129180970.000000,72771671.000000
129200000.000000,72676000.000000
129200000.000000,72151000.000000
129180970.000000,72055329.000000
129126777.000000,71974223.000000
129045671.000000,71920030.000000
128950000.000000,71901000.000000
128050000.000000,71901000.000000
127954329.000000,71920030.000000
127873223.000000,71974223.000000
127819030.000000,72055329.000000
127800000.000000,72151000.000000
127800000.000000,72676000.000000
127819030.000000,72771671.000000
127873223.000000,72852777.000000
127954329.000000,72906970.000000
128050000.000000,72926000.000000
Z" /> 
<path style="fill:#000000; fill-opacity:1.0; 
stroke:#000000; stroke-width:1.000000; stroke-opacity:1; 
stroke-linecap:round; stroke-linejoin:round;fill-rule:evenodd;"
d="M 128950000.000000,71101000.000000
129045671.000000,71081970.000000
129126777.000000,71027777.000000
129180970.000000,70946671.000000
129200000.000000,70851000.000000
129200000.000000,70326000.000000
129180970.000000,70230329.000000
129126777.000000,70149223.000000
129045671.000000,70095030.000000
128950000.000000,70076000.000000
128050000.000000,70076000.000000
127954329.000000,70095030.000000
127873223.000000,70149223.000000
127819030.000000,70230329.000000
127800000.000000,70326000.000000
127800000.000000,70851000.000000
127819030.000000,70946671.000000
127873223.000000,71027777.000000
127954329.000000,71081970.000000
128050000.000000,71101000.000000
Z" /> 
</g>
<g >
</g>
<g >
</g>
<g style="fill:#000000; fill-opacity:1.0; 
stroke:#000000; stroke-width:1.000000; stroke-opacity:1; 
stroke-linecap:round; stroke-linejoin:round;">
<path style="fill:#000000; fill-opacity:1.0; 
stroke:#000000; stroke-width:1.000000; stroke-opacity:1; 
stroke-linecap:round; stroke-linejoin:round;fill-rule:evenodd;"
d="M 141948333.000000,65525000.000000
141967363.000000,65620671.000000
142021556.000000,65701777.000000
142102662.000000,65755970.000000
142198333.000000,65775000.000000
142698333.000000,65775000.000000
142794004.000000,65755970.000000
142875110.000000,65701777.000000
142929303.000000,65620671.000000
142948333.000000,65525000.000000
142948333.000000,64575000.000000
142929303.000000,64479329.000000
142875110.000000,64398223.000000
142794004.000000,64344030.000000
142698333.000000,64325000.000000
142198333.000000,64325000.000000
142102662.000000,64344030.000000
142021556.000000,64398223.000000
141967363.000000,64479329.000000
141948333.000000,64575000.000000
Z" /> 
<path style="fill:#000000; fill-opacity:1.0; 
stroke:#000000; stroke-width:1.000000; stroke-opacity:1; 
stroke-linecap:round; stroke-linejoin:round;fill-rule:evenodd;"
d="M 143848333.000000,65525000.000000
143867363.000000,65620671.000000
143921556.000000,65701777.000000
144002662.000000,65755970.000000
144098333.000000,65775000.000000
144598333.000000,65775000.000000
144694004.000000,65755970.000000
144775110.000000,65701777.000000
144829303.000000,65620671.000000
144848333.000000,65525000.000000
144848333.000000,64575000.000000
144829303.000000,64479329.000000
144775110.000000,64398223.000000
144694004.000000,64344030.000000
144598333.000000,64325000.000000
144098333.000000,64325000.000000
144002662.000000,64344030.000000
143921556.000000,64398223.000000
143867363.000000,64479329.000000
143848333.000000,64575000.000000
Z" /> 
</g>
<g >
</g>
<g >
</g>
<g >
</g>
<g style="fill:#000000; fill-opacity:1.0; 
stroke:#000000; stroke-width:1.000000; stroke-opacity:1; 
stroke-linecap:round; stroke-linejoin:round;">
<path style="fill:#000000; fill-opacity:1.0; 
stroke:#000000; stroke-width:1.000000; stroke-opacity:1; 
stroke-linecap:round; stroke-linejoin:round;fill-rule:evenodd;"
d="M 156600000.000000,63675000.000000
156657403.000000,63663582.000000
156706066.000000,63631066.000000
156738582.000000,63582403.000000
156750000.000000,63525000.000000
156750000.000000,62350000.000000
156738582.000000,62292597.000000
156706066.000000,62243934.000000
156657403.000000,62211418.000000
156600000.000000,62200000.000000
156300000.000000,62200000.000000
156242597.000000,62211418.000000
156193934.000000,62243934.000000
156161418.000000,62292597.000000
156150000.000000,62350000.000000
156150000.000000,63525000.000000
156161418.000000,63582403.000000
156193934.000000,63631066.000000
156242597.000000,63663582.000000
156300000.000000,63675000.000000
Z" /> 
<path style="fill:#000000; fill-opacity:1.0; 
stroke:#000000; stroke-width:1.000000; stroke-opacity:1; 
stroke-linecap:round; stroke-linejoin:round;fill-rule:evenodd;"
d="M 158500000.000000,63675000.000000
158557403.000000,63663582.000000
158606066.000000,63631066.000000
158638582.000000,63582403.000000
158650000.000000,63525000.000000
158650000.000000,62350000.000000
158638582.000000,62292597.000000
158606066.000000,62243934.000000
158557403.000000,62211418.000000
158500000.000000,62200000.000000
158200000.000000,62200000.000000
158142597.000000,62211418.000000
158093934.000000,62243934.000000
158061418.000000,62292597.000000
158050000.000000,62350000.000000
158050000.000000,63525000.000000
158061418.000000,63582403.000000
158093934.000000,63631066.000000
158142597.000000,63663582.000000
158200000.000000,63675000.000000
Z" /> 
<path style="fill:#000000; fill-opacity:1.0; 
stroke:#000000; stroke-width:1.000000; stroke-opacity:1; 
stroke-linecap:round; stroke-linejoin:round;fill-rule:evenodd;"
d="M 157550000.000000,61800000.000000
157607403.000000,61788582.000000
157656066.000000,61756066.000000
157688582.000000,61707403.000000
157700000.000000,61650000.000000
157700000.000000,60475000.000000
157688582.000000,60417597.000000
157656066.000000,60368934.000000
157607403.000000,60336418.000000
157550000.000000,60325000.000000
157250000.000000,60325000.000000
157192597.000000,60336418.000000
157143934.000000,60368934.000000
157111418.000000,60417597.000000
157100000.000000,60475000.000000
157100000.000000,61650000.000000
157111418.000000,61707403.000000
157143934.000000,61756066.000000
157192597.000000,61788582.000000
157250000.000000,61800000.000000
Z" /> 
</g>
<g >
</g>
<g style="fill:#000000; fill-opacity:1.0; 
stroke:#000000; stroke-width:1.000000; stroke-opacity:1; 
stroke-linecap:round; stroke-linejoin:round;">
<path style="fill:#000000; fill-opacity:1.0; 
stroke:#000000; stroke-width:1.000000; stroke-opacity:1; 
stroke-linecap:round; stroke-linejoin:round;fill-rule:evenodd;"
d="M 142600000.000000,63675000.000000
142657403.000000,63663582.000000
142706066.000000,63631066.000000
142738582.000000,63582403.000000
142750000.000000,63525000.000000
142750000.000000,62350000.000000
142738582.000000,62292597.000000
142706066.000000,62243934.000000
142657403.000000,62211418.000000
142600000.000000,62200000.000000
142300000.000000,62200000.000000
142242597.000000,62211418.000000
142193934.000000,62243934.000000
142161418.000000,62292597.000000
142150000.000000,62350000.000000
142150000.000000,63525000.000000
142161418.000000,63582403.000000
142193934.000000,63631066.000000
142242597.000000,63663582.000000
142300000.000000,63675000.000000
Z" /> 
<path style="fill:#000000; fill-opacity:1.0; 
stroke:#000000; stroke-width:1.000000; stroke-opacity:1; 
stroke-linecap:round; stroke-linejoin:round;fill-rule:evenodd;"
d="M 144500000.000000,63675000.000000
144557403.000000,63663582.000000
144606066.000000,63631066.000000
144638582.000000,63582403.000000
144650000.000000,63525000.000000
144650000.000000,62350000.000000
144638582.000000,62292597.000000
144606066.000000,62243934.000000
144557403.000000,62211418.000000
144500000.000000,62200000.000000
144200000.000000,62200000.000000
144142597.000000,62211418.000000
144093934.000000,62243934.000000
144061418.000000,62292597.000000
144050000.000000,62350000.000000
144050000.000000,63525000.000000
144061418.000000,63582403.000000
144093934.000000,63631066.000000
144142597.000000,63663582.000000
144200000.000000,63675000.000000
Z" /> 
<path style="fill:#000000; fill-opacity:1.0; 
stroke:#000000; stroke-width:1.000000; stroke-opacity:1; 
stroke-linecap:round; stroke-linejoin:round;fill-rule:evenodd;"
d="M 143550000.000000,61800000.000000
143607403.000000,61788582.000000
143656066.000000,61756066.000000
143688582.000000,61707403.000000
143700000.000000,61650000.000000
143700000.000000,60475000.000000
143688582.000000,60417597.000000
143656066.000000,60368934.000000
143607403.000000,60336418.000000
143550000.000000,60325000.000000
143250000.000000,60325000.000000
143192597.000000,60336418.000000
143143934.000000,60368934.000000
143111418.000000,60417597.000000
143100000.000000,60475000.000000
143100000.000000,61650000.000000
143111418.000000,61707403.000000
143143934.000000,61756066.000000
143192597.000000,61788582.000000
143250000.000000,61800000.000000
Z" /> 
</g>
<g >
</g>
<g style="fill:#000000; fill-opacity:1.0; 
stroke:#000000; stroke-width:1.000000; stroke-opacity:1; 
stroke-linecap:round; stroke-linejoin:round;">
<path style="fill:#000000; fill-opacity:1.0; 
stroke:#000000; stroke-width:1.000000; stroke-opacity:1; 
stroke-linecap:round; stroke-linejoin:round;fill-rule:evenodd;"
d="M 148030000.000000,59475000.000000
148049030.000000,59570671.000000
148103223.000000,59651777.000000
148184329.000000,59705970.000000
148280000.000000,59725000.000000
148780000.000000,59725000.000000
148875671.000000,59705970.000000
148956777.000000,59651777.000000
149010970.000000,59570671.000000
149030000.000000,59475000.000000
149030000.000000,58525000.000000
149010970.000000,58429329.000000
148956777.000000,58348223.000000
148875671.000000,58294030.000000
148780000.000000,58275000.000000
148280000.000000,58275000.000000
148184329.000000,58294030.000000
148103223.000000,58348223.000000
148049030.000000,58429329.000000
148030000.000000,58525000.000000
Z" /> 
<path style="fill:#000000; fill-opacity:1.0; 
stroke:#000000; stroke-width:1.000000; stroke-opacity:1; 
stroke-linecap:round; stroke-linejoin:round;fill-rule:evenodd;"
d="M 149930000.000000,59475000.000000
149949030.000000,59570671.000000
150003223.000000,59651777.000000
150084329.000000,59705970.000000
150180000.000000,59725000.000000
150680000.000000,59725000.000000
150775671.000000,59705970.000000
150856777.000000,59651777.000000
150910970.000000,59570671.000000
150930000.000000,59475000.000000
150930000.000000,58525000.000000
150910970.000000,58429329.000000
150856777.000000,58348223.000000
150775671.000000,58294030.000000
150680000.000000,58275000.000000
150180000.000000,58275000.000000
150084329.000000,58294030.000000
150003223.000000,58348223.000000
149949030.000000,58429329.000000
149930000.000000,58525000.000000
Z" /> 
</g>
<g >
</g>
<g style="fill:#000000; fill-opacity:1.0; 
stroke:#000000; stroke-width:1.000000; stroke-opacity:1; 
stroke-linecap:round; stroke-linejoin:round;">
<path style="fill:#000000; fill-opacity:1.0; 
stroke:#000000; stroke-width:1.000000; stroke-opacity:1; 
stroke-linecap:round; stroke-linejoin:round;fill-rule:evenodd;"
d="M 148988999.000000,65525000.000000
149008029.000000,65620671.000000
149062222.000000,65701777.000000
149143328.000000,65755970.000000
149238999.000000,65775000.000000
149738999.000000,65775000.000000
149834670.000000,65755970.000000
149915776.000000,65701777.000000
149969969.000000,65620671.000000
149988999.000000,65525000.000000
149988999.000000,64575000.000000
149969969.000000,64479329.000000
149915776.000000,64398223.000000
149834670.000000,64344030.000000
149738999.000000,64325000.000000
149238999.000000,64325000.000000
149143328.000000,64344030.000000
149062222.000000,64398223.000000
149008029.000000,64479329.000000
148988999.000000,64575000.000000
Z" /> 
<path style="fill:#000000; fill-opacity:1.0; 
stroke:#000000; stroke-width:1.000000; stroke-opacity:1; 
stroke-linecap:round; stroke-linejoin:round;fill-rule:evenodd;"
d="M 150888999.000000,65525000.000000
150908029.000000,65620671.000000
150962222.000000,65701777.000000
151043328.000000,65755970.000000
151138999.000000,65775000.000000
151638999.000000,65775000.000000
151734670.000000,65755970.000000
151815776.000000,65701777.000000
151869969.000000,65620671.000000
151888999.000000,65525000.000000
151888999.000000,64575000.000000
151869969.000000,64479329.000000
151815776.000000,64398223.000000
151734670.000000,64344030.000000
151638999.000000,64325000.000000
151138999.000000,64325000.000000
151043328.000000,64344030.000000
150962222.000000,64398223.000000
150908029.000000,64479329.000000
150888999.000000,64575000.000000
Z" /> 
</g>
<g >
</g>
<g style="fill:#000000; fill-opacity:1.0; 
stroke:#000000; stroke-width:1.000000; stroke-opacity:1; 
stroke-linecap:round; stroke-linejoin:round;">
<path style="fill:#000000; fill-opacity:1.0; 
stroke:#000000; stroke-width:1.000000; stroke-opacity:1; 
stroke-linecap:round; stroke-linejoin:round;fill-rule:evenodd;"
d="M 157070000.000000,70007500.000000
156974329.000000,70026530.000000
156893223.000000,70080723.000000
156839030.000000,70161829.000000
156820000.000000,70257500.000000
156820000.000000,70782500.000000
156839030.000000,70878171.000000
156893223.000000,70959277.000000
156974329.000000,71013470.000000
157070000.000000,71032500.000000
157970000.000000,71032500.000000
158065671.000000,71013470.000000
158146777.000000,70959277.000000
158200970.000000,70878171.000000
158220000.000000,70782500.000000
158220000.000000,70257500.000000
158200970.000000,70161829.000000
158146777.000000,70080723.000000
158065671.000000,70026530.000000
157970000.000000,70007500.000000
Z" /> 
<path style="fill:#000000; fill-opacity:1.0; 
stroke:#000000; stroke-width:1.000000; stroke-opacity:1; 
stroke-linecap:round; stroke-linejoin:round;fill-rule:evenodd;"
d="M 157070000.000000,71832500.000000
156974329.000000,71851530.000000
156893223.000000,71905723.000000
156839030.000000,71986829.000000
156820000.000000,72082500.000000
156820000.000000,72607500.000000
156839030.000000,72703171.000000
156893223.000000,72784277.000000
156974329.000000,72838470.000000
157070000.000000,72857500.000000
157970000.000000,72857500.000000
158065671.000000,72838470.000000
158146777.000000,72784277.000000
158200970.000000,72703171.000000
158220000.000000,72607500.000000
158220000.000000,72082500.000000
158200970.000000,71986829.000000
158146777.000000,71905723.000000
158065671.000000,71851530.000000
157970000.000000,71832500.000000
Z" /> 
</g>
<g >
</g>
<g style="fill:#000000; fill-opacity:1.0; 
stroke:#000000; stroke-width:1.000000; stroke-opacity:1; 
stroke-linecap:round; stroke-linejoin:round;">
<path style="fill:#000000; fill-opacity:1.0; 
stroke:#000000; stroke-width:1.000000; stroke-opacity:1; 
stroke-linecap:round; stroke-linejoin:round;fill-rule:evenodd;"
d="M 144520000.000000,59485000.000000
144539030.000000,59580671.000000
144593223.000000,59661777.000000
144674329.000000,59715970.000000
144770000.000000,59735000.000000
145270000.000000,59735000.000000
145365671.000000,59715970.000000
145446777.000000,59661777.000000
145500970.000000,59580671.000000
145520000.000000,59485000.000000
145520000.000000,58535000.000000
145500970.000000,58439329.000000
145446777.000000,58358223.000000
145365671.000000,58304030.000000
145270000.000000,58285000.000000
144770000.000000,58285000.000000
144674329.000000,58304030.000000
144593223.000000,58358223.000000
144539030.000000,58439329.000000
144520000.000000,58535000.000000
Z" /> 
<path style="fill:#000000; fill-opacity:1.0; 
stroke:#000000; stroke-width:1.000000; stroke-opacity:1; 
stroke-linecap:round; stroke-linejoin:round;fill-rule:evenodd;"
d="M 146420000.000000,59485000.000000
146439030.000000,59580671.000000
146493223.000000,59661777.000000
146574329.000000,59715970.000000
146670000.000000,59735000.000000
147170000.000000,59735000.000000
147265671.000000,59715970.000000
147346777.000000,59661777.000000
147400970.000000,59580671.000000
147420000.000000,59485000.000000
147420000.000000,58535000.000000
147400970.000000,58439329.000000
147346777.000000,58358223.000000
147265671.000000,58304030.000000
147170000.000000,58285000.000000
146670000.000000,58285000.000000
146574329.000000,58304030.000000
146493223.000000,58358223.000000
146439030.000000,58439329.000000
146420000.000000,58535000.000000
Z" /> 
</g>
<g >
</g>
<g style="fill:#000000; fill-opacity:1.0; 
stroke:#000000; stroke-width:1.000000; stroke-opacity:1; 
stroke-linecap:round; stroke-linejoin:round;">
<path style="fill:#000000; fill-opacity:1.0; 
stroke:#000000; stroke-width:1.000000; stroke-opacity:1; 
stroke-linecap:round; stroke-linejoin:round;fill-rule:evenodd;"
d="M 139078000.000000,63651000.000000
139135403.000000,63639582.000000
139184066.000000,63607066.000000
139216582.000000,63558403.000000
139228000.000000,63501000.000000
139228000.000000,62326000.000000
139216582.000000,62268597.000000
139184066.000000,62219934.000000
139135403.000000,62187418.000000
139078000.000000,62176000.000000
138778000.000000,62176000.000000
138720597.000000,62187418.000000
138671934.000000,62219934.000000
138639418.000000,62268597.000000
138628000.000000,62326000.000000
138628000.000000,63501000.000000
138639418.000000,63558403.000000
138671934.000000,63607066.000000
138720597.000000,63639582.000000
138778000.000000,63651000.000000
Z" /> 
<path style="fill:#000000; fill-opacity:1.0; 
stroke:#000000; stroke-width:1.000000; stroke-opacity:1; 
stroke-linecap:round; stroke-linejoin:round;fill-rule:evenodd;"
d="M 140978000.000000,63651000.000000
141035403.000000,63639582.000000
141084066.000000,63607066.000000
141116582.000000,63558403.000000
141128000.000000,63501000.000000
141128000.000000,62326000.000000
141116582.000000,62268597.000000
141084066.000000,62219934.000000
141035403.000000,62187418.000000
140978000.000000,62176000.000000
140678000.000000,62176000.000000
140620597.000000,62187418.000000
140571934.000000,62219934.000000
140539418.000000,62268597.000000
140528000.000000,62326000.000000
140528000.000000,63501000.000000
140539418.000000,63558403.000000
140571934.000000,63607066.000000
140620597.000000,63639582.000000
140678000.000000,63651000.000000
Z" /> 
<path style="fill:#000000; fill-opacity:1.0; 
stroke:#000000; stroke-width:1.000000; stroke-opacity:1; 
stroke-linecap:round; stroke-linejoin:round;fill-rule:evenodd;"
d="M 140028000.000000,61776000.000000
140085403.000000,61764582.000000
140134066.000000,61732066.000000
140166582.000000,61683403.000000
140178000.000000,61626000.000000
140178000.000000,60451000.000000
140166582.000000,60393597.000000
140134066.000000,60344934.000000
140085403.000000,60312418.000000
140028000.000000,60301000.000000
139728000.000000,60301000.000000
139670597.000000,60312418.000000
139621934.000000,60344934.000000
139589418.000000,60393597.000000
139578000.000000,60451000.000000
139578000.000000,61626000.000000
139589418.000000,61683403.000000
139621934.000000,61732066.000000
139670597.000000,61764582.000000
139728000.000000,61776000.000000
Z" /> 
</g>
<g >
</g>
<g style="fill:#000000; fill-opacity:1.0; 
stroke:#000000; stroke-width:1.000000; stroke-opacity:1; 
stroke-linecap:round; stroke-linejoin:round;">
<path style="fill:#000000; fill-opacity:1.0; 
stroke:#000000; stroke-width:1.000000; stroke-opacity:1; 
stroke-linecap:round; stroke-linejoin:round;fill-rule:evenodd;"
d="M 148336998.000000,67070000.000000
148317968.000000,66974329.000000
148263775.000000,66893223.000000
148182669.000000,66839030.000000
148086998.000000,66820000.000000
147561998.000000,66820000.000000
147466327.000000,66839030.000000
147385221.000000,66893223.000000
147331028.000000,66974329.000000
147311998.000000,67070000.000000
147311998.000000,67970000.000000
147331028.000000,68065671.000000
147385221.000000,68146777.000000
147466327.000000,68200970.000000
147561998.000000,68220000.000000
148086998.000000,68220000.000000
148182669.000000,68200970.000000
148263775.000000,68146777.000000
148317968.000000,68065671.000000
148336998.000000,67970000.000000
Z" /> 
<path style="fill:#000000; fill-opacity:1.0; 
stroke:#000000; stroke-width:1.000000; stroke-opacity:1; 
stroke-linecap:round; stroke-linejoin:round;fill-rule:evenodd;"
d="M 146511998.000000,67070000.000000
146492968.000000,66974329.000000
146438775.000000,66893223.000000
146357669.000000,66839030.000000
146261998.000000,66820000.000000
145736998.000000,66820000.000000
145641327.000000,66839030.000000
145560221.000000,66893223.000000
145506028.000000,66974329.000000
145486998.000000,67070000.000000
145486998.000000,67970000.000000
145506028.000000,68065671.000000
145560221.000000,68146777.000000
145641327.000000,68200970.000000
145736998.000000,68220000.000000
146261998.000000,68220000.000000
146357669.000000,68200970.000000
146438775.000000,68146777.000000
146492968.000000,68065671.000000
146511998.000000,67970000.000000
Z" /> 
</g>
<g >
</g>
<g style="fill:#000000; fill-opacity:1.0; 
stroke:#000000; stroke-width:1.000000; stroke-opacity:1; 
stroke-linecap:round; stroke-linejoin:round;">
<path style="fill:#000000; fill-opacity:1.0; 
stroke:#000000; stroke-width:1.000000; stroke-opacity:1; 
stroke-linecap:round; stroke-linejoin:round;fill-rule:evenodd;"
d="M 128470000.000000,61425000.000000
128565671.000000,61405970.000000
128646777.000000,61351777.000000
128700970.000000,61270671.000000
128720000.000000,61175000.000000
128720000.000000,60650000.000000
128700970.000000,60554329.000000
128646777.000000,60473223.000000
128565671.000000,60419030.000000
128470000.000000,60400000.000000
127570000.000000,60400000.000000
127474329.000000,60419030.000000
127393223.000000,60473223.000000
127339030.000000,60554329.000000
127320000.000000,60650000.000000
127320000.000000,61175000.000000
127339030.000000,61270671.000000
127393223.000000,61351777.000000
127474329.000000,61405970.000000
127570000.000000,61425000.000000
Z" /> 
<path style="fill:#000000; fill-opacity:1.0; 
stroke:#000000; stroke-width:1.000000; stroke-opacity:1; 
stroke-linecap:round; stroke-linejoin:round;fill-rule:evenodd;"
d="M 128470000.000000,59600000.000000
128565671.000000,59580970.000000
128646777.000000,59526777.000000
128700970.000000,59445671.000000
128720000.000000,59350000.000000
128720000.000000,58825000.000000
128700970.000000,58729329.000000
128646777.000000,58648223.000000
128565671.000000,58594030.000000
128470000.000000,58575000.000000
127570000.000000,58575000.000000
127474329.000000,58594030.000000
127393223.000000,58648223.000000
127339030.000000,58729329.000000
127320000.000000,58825000.000000
127320000.000000,59350000.000000
127339030.000000,59445671.000000
127393223.000000,59526777.000000
127474329.000000,59580970.000000
127570000.000000,59600000.000000
Z" /> 
</g>
<g >
</g>
<g style="fill:#000000; fill-opacity:1.0; 
stroke:#000000; stroke-width:1.000000; stroke-opacity:1; 
stroke-linecap:round; stroke-linejoin:round;">
<path style="fill:#000000; fill-opacity:1.0; 
stroke:#000000; stroke-width:1.000000; stroke-opacity:1; 
stroke-linecap:round; stroke-linejoin:round;fill-rule:evenodd;"
d="M 151863999.000000,67070000.000000
151844969.000000,66974329.000000
151790776.000000,66893223.000000
151709670.000000,66839030.000000
151613999.000000,66820000.000000
151088999.000000,66820000.000000
150993328.000000,66839030.000000
150912222.000000,66893223.000000
150858029.000000,66974329.000000
150838999.000000,67070000.000000
150838999.000000,67970000.000000
150858029.000000,68065671.000000
150912222.000000,68146777.000000
150993328.000000,68200970.000000
151088999.000000,68220000.000000
151613999.000000,68220000.000000
151709670.000000,68200970.000000
151790776.000000,68146777.000000
151844969.000000,68065671.000000
151863999.000000,67970000.000000
Z" /> 
<path style="fill:#000000; fill-opacity:1.0; 
stroke:#000000; stroke-width:1.000000; stroke-opacity:1; 
stroke-linecap:round; stroke-linejoin:round;fill-rule:evenodd;"
d="M 150038999.000000,67070000.000000
150019969.000000,66974329.000000
149965776.000000,66893223.000000
149884670.000000,66839030.000000
149788999.000000,66820000.000000
149263999.000000,66820000.000000
149168328.000000,66839030.000000
149087222.000000,66893223.000000
149033029.000000,66974329.000000
149013999.000000,67070000.000000
149013999.000000,67970000.000000
149033029.000000,68065671.000000
149087222.000000,68146777.000000
149168328.000000,68200970.000000
149263999.000000,68220000.000000
149788999.000000,68220000.000000
149884670.000000,68200970.000000
149965776.000000,68146777.000000
150019969.000000,68065671.000000
150038999.000000,67970000.000000
Z" /> 
</g>
<g >
</g>
<g style="fill:#000000; fill-opacity:1.0; 
stroke:#000000; stroke-width:1.000000; stroke-opacity:1; 
stroke-linecap:round; stroke-linejoin:round;">
<path style="fill:#000000; fill-opacity:1.0; 
stroke:#000000; stroke-width:1.000000; stroke-opacity:1; 
stroke-linecap:round; stroke-linejoin:round;fill-rule:evenodd;"
d="M 144570000.000000,71345000.000000
144474329.000000,71364030.000000
144393223.000000,71418223.000000
144339030.000000,71499329.000000
144320000.000000,71595000.000000
144320000.000000,72120000.000000
144339030.000000,72215671.000000
144393223.000000,72296777.000000
144474329.000000,72350970.000000
144570000.000000,72370000.000000
145470000.000000,72370000.000000
145565671.000000,72350970.000000
145646777.000000,72296777.000000
145700970.000000,72215671.000000
145720000.000000,72120000.000000
145720000.000000,71595000.000000
145700970.000000,71499329.000000
145646777.000000,71418223.000000
145565671.000000,71364030.000000
145470000.000000,71345000.000000
Z" /> 
<path style="fill:#000000; fill-opacity:1.0; 
stroke:#000000; stroke-width:1.000000; stroke-opacity:1; 
stroke-linecap:round; stroke-linejoin:round;fill-rule:evenodd;"
d="M 144570000.000000,73170000.000000
144474329.000000,73189030.000000
144393223.000000,73243223.000000
144339030.000000,73324329.000000
144320000.000000,73420000.000000
144320000.000000,73945000.000000
144339030.000000,74040671.000000
144393223.000000,74121777.000000
144474329.000000,74175970.000000
144570000.000000,74195000.000000
145470000.000000,74195000.000000
145565671.000000,74175970.000000
145646777.000000,74121777.000000
145700970.000000,74040671.000000
145720000.000000,73945000.000000
145720000.000000,73420000.000000
145700970.000000,73324329.000000
145646777.000000,73243223.000000
145565671.000000,73189030.000000
145470000.000000,73170000.000000
Z" /> 
</g>
<g >
</g>
<g style="fill:#000000; fill-opacity:1.0; 
stroke:#000000; stroke-width:1.000000; stroke-opacity:1; 
stroke-linecap:round; stroke-linejoin:round;">
<path style="fill:#000000; fill-opacity:1.0; 
stroke:#000000; stroke-width:1.000000; stroke-opacity:1; 
stroke-linecap:round; stroke-linejoin:round;fill-rule:evenodd;"
d="M 152509332.000000,65525000.000000
152528362.000000,65620671.000000
152582555.000000,65701777.000000
152663661.000000,65755970.000000
152759332.000000,65775000.000000
153259332.000000,65775000.000000
153355003.000000,65755970.000000
153436109.000000,65701777.000000
153490302.000000,65620671.000000
153509332.000000,65525000.000000
153509332.000000,64575000.000000
153490302.000000,64479329.000000
153436109.000000,64398223.000000
153355003.000000,64344030.000000
153259332.000000,64325000.000000
152759332.000000,64325000.000000
152663661.000000,64344030.000000
152582555.000000,64398223.000000
152528362.000000,64479329.000000
152509332.000000,64575000.000000
Z" /> 
<path style="fill:#000000; fill-opacity:1.0; 
stroke:#000000; stroke-width:1.000000; stroke-opacity:1; 
stroke-linecap:round; stroke-linejoin:round;fill-rule:evenodd;"
d="M 154409332.000000,65525000.000000
154428362.000000,65620671.000000
154482555.000000,65701777.000000
154563661.000000,65755970.000000
154659332.000000,65775000.000000
155159332.000000,65775000.000000
155255003.000000,65755970.000000
155336109.000000,65701777.000000
155390302.000000,65620671.000000
155409332.000000,65525000.000000
155409332.000000,64575000.000000
155390302.000000,64479329.000000
155336109.000000,64398223.000000
155255003.000000,64344030.000000
155159332.000000,64325000.000000
154659332.000000,64325000.000000
154563661.000000,64344030.000000
154482555.000000,64398223.000000
154428362.000000,64479329.000000
154409332.000000,64575000.000000
Z" /> 
</g>
<g >
</g>
<g style="fill:#000000; fill-opacity:1.0; 
stroke:#000000; stroke-width:1.000000; stroke-opacity:1; 
stroke-linecap:round; stroke-linejoin:round;">
<path style="fill:#000000; fill-opacity:1.0; 
stroke:#000000; stroke-width:1.000000; stroke-opacity:1; 
stroke-linecap:round; stroke-linejoin:round;fill-rule:evenodd;"
d="M 149600000.000000,63675000.000000
149657403.000000,63663582.000000
149706066.000000,63631066.000000
149738582.000000,63582403.000000
149750000.000000,63525000.000000
149750000.000000,62350000.000000
149738582.000000,62292597.000000
149706066.000000,62243934.000000
149657403.000000,62211418.000000
149600000.000000,62200000.000000
149300000.000000,62200000.000000
149242597.000000,62211418.000000
149193934.000000,62243934.000000
149161418.000000,62292597.000000
149150000.000000,62350000.000000
149150000.000000,63525000.000000
149161418.000000,63582403.000000
149193934.000000,63631066.000000
149242597.000000,63663582.000000
149300000.000000,63675000.000000
Z" /> 
<path style="fill:#000000; fill-opacity:1.0; 
stroke:#000000; stroke-width:1.000000; stroke-opacity:1; 
stroke-linecap:round; stroke-linejoin:round;fill-rule:evenodd;"
d="M 151500000.000000,63675000.000000
151557403.000000,63663582.000000
151606066.000000,63631066.000000
151638582.000000,63582403.000000
151650000.000000,63525000.000000
151650000.000000,62350000.000000
151638582.000000,62292597.000000
151606066.000000,62243934.000000
151557403.000000,62211418.000000
151500000.000000,62200000.000000
151200000.000000,62200000.000000
151142597.000000,62211418.000000
151093934.000000,62243934.000000
151061418.000000,62292597.000000
151050000.000000,62350000.000000
151050000.000000,63525000.000000
151061418.000000,63582403.000000
151093934.000000,63631066.000000
151142597.000000,63663582.000000
151200000.000000,63675000.000000
Z" /> 
<path style="fill:#000000; fill-opacity:1.0; 
stroke:#000000; stroke-width:1.000000; stroke-opacity:1; 
stroke-linecap:round; stroke-linejoin:round;fill-rule:evenodd;"
d="M 150550000.000000,61800000.000000
150607403.000000,61788582.000000
150656066.000000,61756066.000000
150688582.000000,61707403.000000
150700000.000000,61650000.000000
150700000.000000,60475000.000000
150688582.000000,60417597.000000
150656066.000000,60368934.000000
150607403.000000,60336418.000000
150550000.000000,60325000.000000
150250000.000000,60325000.000000
150192597.000000,60336418.000000
150143934.000000,60368934.000000
150111418.000000,60417597.000000
150100000.000000,60475000.000000
150100000.000000,61650000.000000
150111418.000000,61707403.000000
150143934.000000,61756066.000000
150192597.000000,61788582.000000
150250000.000000,61800000.000000
Z" /> 
</g>
<g >
</g>
<g >
</g>
<g style="fill:#000000; fill-opacity:1.0; 
stroke:#000000; stroke-width:1.000000; stroke-opacity:1; 
stroke-linecap:round; stroke-linejoin:round;">
<path style="fill:#000000; fill-opacity:1.0; 
stroke:#000000; stroke-width:1.000000; stroke-opacity:1; 
stroke-linecap:round; stroke-linejoin:round;fill-rule:evenodd;"
d="M 153100000.000000,63675000.000000
153157403.000000,63663582.000000
153206066.000000,63631066.000000
153238582.000000,63582403.000000
153250000.000000,63525000.000000
153250000.000000,62350000.000000
153238582.000000,62292597.000000
153206066.000000,62243934.000000
153157403.000000,62211418.000000
153100000.000000,62200000.000000
152800000.000000,62200000.000000
152742597.000000,62211418.000000
152693934.000000,62243934.000000
152661418.000000,62292597.000000
152650000.000000,62350000.000000
152650000.000000,63525000.000000
152661418.000000,63582403.000000
152693934.000000,63631066.000000
152742597.000000,63663582.000000
152800000.000000,63675000.000000
Z" /> 
<path style="fill:#000000; fill-opacity:1.0; 
stroke:#000000; stroke-width:1.000000; stroke-opacity:1; 
stroke-linecap:round; stroke-linejoin:round;fill-rule:evenodd;"
d="M 155000000.000000,63675000.000000
155057403.000000,63663582.000000
155106066.000000,63631066.000000
155138582.000000,63582403.000000
155150000.000000,63525000.000000
155150000.000000,62350000.000000
155138582.000000,62292597.000000
155106066.000000,62243934.000000
155057403.000000,62211418.000000
155000000.000000,62200000.000000
154700000.000000,62200000.000000
154642597.000000,62211418.000000
154593934.000000,62243934.000000
154561418.000000,62292597.000000
154550000.000000,62350000.000000
154550000.000000,63525000.000000
154561418.000000,63582403.000000
154593934.000000,63631066.000000
154642597.000000,63663582.000000
154700000.000000,63675000.000000
Z" /> 
<path style="fill:#000000; fill-opacity:1.0; 
stroke:#000000; stroke-width:1.000000; stroke-opacity:1; 
stroke-linecap:round; stroke-linejoin:round;fill-rule:evenodd;"
d="M 154050000.000000,61800000.000000
154107403.000000,61788582.000000
154156066.000000,61756066.000000
154188582.000000,61707403.000000
154200000.000000,61650000.000000
154200000.000000,60475000.000000
154188582.000000,60417597.000000
154156066.000000,60368934.000000
154107403.000000,60336418.000000
154050000.000000,60325000.000000
153750000.000000,60325000.000000
153692597.000000,60336418.000000
153643934.000000,60368934.000000
153611418.000000,60417597.000000
153600000.000000,60475000.000000
153600000.000000,61650000.000000
153611418.000000,61707403.000000
153643934.000000,61756066.000000
153692597.000000,61788582.000000
153750000.000000,61800000.000000
Z" /> 
</g>
<g >
</g>
<g style="fill:#000000; fill-opacity:1.0; 
stroke:#000000; stroke-width:1.000000; stroke-opacity:1; 
stroke-linecap:round; stroke-linejoin:round;">
<path style="fill:#000000; fill-opacity:1.0; 
stroke:#000000; stroke-width:1.000000; stroke-opacity:1; 
stroke-linecap:round; stroke-linejoin:round;fill-rule:evenodd;"
d="M 137530000.000000,59465000.000000
137549030.000000,59560671.000000
137603223.000000,59641777.000000
137684329.000000,59695970.000000
137780000.000000,59715000.000000
138280000.000000,59715000.000000
138375671.000000,59695970.000000
138456777.000000,59641777.000000
138510970.000000,59560671.000000
138530000.000000,59465000.000000
138530000.000000,58515000.000000
138510970.000000,58419329.000000
138456777.000000,58338223.000000
138375671.000000,58284030.000000
138280000.000000,58265000.000000
137780000.000000,58265000.000000
137684329.000000,58284030.000000
137603223.000000,58338223.000000
137549030.000000,58419329.000000
137530000.000000,58515000.000000
Z" /> 
<path style="fill:#000000; fill-opacity:1.0; 
stroke:#000000; stroke-width:1.000000; stroke-opacity:1; 
stroke-linecap:round; stroke-linejoin:round;fill-rule:evenodd;"
d="M 139430000.000000,59465000.000000
139449030.000000,59560671.000000
139503223.000000,59641777.000000
139584329.000000,59695970.000000
139680000.000000,59715000.000000
140180000.000000,59715000.000000
140275671.000000,59695970.000000
140356777.000000,59641777.000000
140410970.000000,59560671.000000
140430000.000000,59465000.000000
140430000.000000,58515000.000000
140410970.000000,58419329.000000
140356777.000000,58338223.000000
140275671.000000,58284030.000000
140180000.000000,58265000.000000
139680000.000000,58265000.000000
139584329.000000,58284030.000000
139503223.000000,58338223.000000
139449030.000000,58419329.000000
139430000.000000,58515000.000000
Z" /> 
</g>
<g >
</g>
<g style="fill:#000000; fill-opacity:1.0; 
stroke:#000000; stroke-width:1.000000; stroke-opacity:1; 
stroke-linecap:round; stroke-linejoin:round;">
<path style="fill:#000000; fill-opacity:1.0; 
stroke:#000000; stroke-width:1.000000; stroke-opacity:1; 
stroke-linecap:round; stroke-linejoin:round;fill-rule:evenodd;"
d="M 129625000.000000,58550000.000000
129529329.000000,58569030.000000
129448223.000000,58623223.000000
129394030.000000,58704329.000000
129375000.000000,58800000.000000
129375000.000000,59300000.000000
129394030.000000,59395671.000000
129448223.000000,59476777.000000
129529329.000000,59530970.000000
129625000.000000,59550000.000000
130575000.000000,59550000.000000
130670671.000000,59530970.000000
130751777.000000,59476777.000000
130805970.000000,59395671.000000
130825000.000000,59300000.000000
130825000.000000,58800000.000000
130805970.000000,58704329.000000
130751777.000000,58623223.000000
130670671.000000,58569030.000000
130575000.000000,58550000.000000
Z" /> 
<path style="fill:#000000; fill-opacity:1.0; 
stroke:#000000; stroke-width:1.000000; stroke-opacity:1; 
stroke-linecap:round; stroke-linejoin:round;fill-rule:evenodd;"
d="M 129625000.000000,60450000.000000
129529329.000000,60469030.000000
129448223.000000,60523223.000000
129394030.000000,60604329.000000
129375000.000000,60700000.000000
129375000.000000,61200000.000000
129394030.000000,61295671.000000
129448223.000000,61376777.000000
129529329.000000,61430970.000000
129625000.000000,61450000.000000
130575000.000000,61450000.000000
130670671.000000,61430970.000000
130751777.000000,61376777.000000
130805970.000000,61295671.000000
130825000.000000,61200000.000000
130825000.000000,60700000.000000
130805970.000000,60604329.000000
130751777.000000,60523223.000000
130670671.000000,60469030.000000
130575000.000000,60450000.000000
Z" /> 
</g>
<g >
</g>
<g >
</g>
<g >
</g>
<g style="fill:#000000; fill-opacity:1.0; 
stroke:#000000; stroke-width:1.000000; stroke-opacity:1; 
stroke-linecap:round; stroke-linejoin:round;">
<path style="fill:#000000; fill-opacity:1.0; 
stroke:#000000; stroke-width:1.000000; stroke-opacity:1; 
stroke-linecap:round; stroke-linejoin:round;fill-rule:evenodd;"
d="M 162673000.000000,65158000.000000
162577329.000000,65177030.000000
162496223.000000,65231223.000000
162442030.000000,65312329.000000
162423000.000000,65408000.000000
162423000.000000,66033000.000000
162442030.000000,66128671.000000
162496223.000000,66209777.000000
162577329.000000,66263970.000000
162673000.000000,66283000.000000
163923000.000000,66283000.000000
164018671.000000,66263970.000000
164099777.000000,66209777.000000
164153970.000000,66128671.000000
164173000.000000,66033000.000000
164173000.000000,65408000.000000
164153970.000000,65312329.000000
164099777.000000,65231223.000000
164018671.000000,65177030.000000
163923000.000000,65158000.000000
Z" /> 
<path style="fill:#000000; fill-opacity:1.0; 
stroke:#000000; stroke-width:1.000000; stroke-opacity:1; 
stroke-linecap:round; stroke-linejoin:round;fill-rule:evenodd;"
d="M 162673000.000000,68083000.000000
162577329.000000,68102030.000000
162496223.000000,68156223.000000
162442030.000000,68237329.000000
162423000.000000,68333000.000000
162423000.000000,68958000.000000
162442030.000000,69053671.000000
162496223.000000,69134777.000000
162577329.000000,69188970.000000
162673000.000000,69208000.000000
163923000.000000,69208000.000000
164018671.000000,69188970.000000
164099777.000000,69134777.000000
164153970.000000,69053671.000000
164173000.000000,68958000.000000
164173000.000000,68333000.000000
164153970.000000,68237329.000000
164099777.000000,68156223.000000
164018671.000000,68102030.000000
163923000.000000,68083000.000000
Z" /> 
</g>
<g >
</g>
<g style="fill:#000000; fill-opacity:1.0; 
stroke:#000000; stroke-width:1.000000; stroke-opacity:1; 
stroke-linecap:round; stroke-linejoin:round;">
<path style="fill:#000000; fill-opacity:1.0; 
stroke:#000000; stroke-width:1.000000; stroke-opacity:1; 
stroke-linecap:round; stroke-linejoin:round;fill-rule:evenodd;"
d="M 156029665.000000,65525000.000000
156048695.000000,65620671.000000
156102888.000000,65701777.000000
156183994.000000,65755970.000000
156279665.000000,65775000.000000
156779665.000000,65775000.000000
156875336.000000,65755970.000000
156956442.000000,65701777.000000
157010635.000000,65620671.000000
157029665.000000,65525000.000000
157029665.000000,64575000.000000
157010635.000000,64479329.000000
156956442.000000,64398223.000000
156875336.000000,64344030.000000
156779665.000000,64325000.000000
156279665.000000,64325000.000000
156183994.000000,64344030.000000
156102888.000000,64398223.000000
156048695.000000,64479329.000000
156029665.000000,64575000.000000
Z" /> 
<path style="fill:#000000; fill-opacity:1.0; 
stroke:#000000; stroke-width:1.000000; stroke-opacity:1; 
stroke-linecap:round; stroke-linejoin:round;fill-rule:evenodd;"
d="M 157929665.000000,65525000.000000
157948695.000000,65620671.000000
158002888.000000,65701777.000000
158083994.000000,65755970.000000
158179665.000000,65775000.000000
158679665.000000,65775000.000000
158775336.000000,65755970.000000
158856442.000000,65701777.000000
158910635.000000,65620671.000000
158929665.000000,65525000.000000
158929665.000000,64575000.000000
158910635.000000,64479329.000000
158856442.000000,64398223.000000
158775336.000000,64344030.000000
158679665.000000,64325000.000000
158179665.000000,64325000.000000
158083994.000000,64344030.000000
158002888.000000,64398223.000000
157948695.000000,64479329.000000
157929665.000000,64575000.000000
Z" /> 
</g>
<g >
</g>
<g style="fill:#000000; fill-opacity:1.0; 
stroke:#000000; stroke-width:1.000000; stroke-opacity:1; 
stroke-linecap:round; stroke-linejoin:round;">
<path style="fill:#000000; fill-opacity:1.0; 
stroke:#000000; stroke-width:1.000000; stroke-opacity:1; 
stroke-linecap:round; stroke-linejoin:round;fill-rule:evenodd;"
d="M 143195000.000000,72070000.000000
143175970.000000,71974329.000000
143121777.000000,71893223.000000
143040671.000000,71839030.000000
142945000.000000,71820000.000000
142420000.000000,71820000.000000
142324329.000000,71839030.000000
142243223.000000,71893223.000000
142189030.000000,71974329.000000
142170000.000000,72070000.000000
142170000.000000,72970000.000000
142189030.000000,73065671.000000
142243223.000000,73146777.000000
142324329.000000,73200970.000000
142420000.000000,73220000.000000
142945000.000000,73220000.000000
143040671.000000,73200970.000000
143121777.000000,73146777.000000
143175970.000000,73065671.000000
143195000.000000,72970000.000000
Z" /> 
<path style="fill:#000000; fill-opacity:1.0; 
stroke:#000000; stroke-width:1.000000; stroke-opacity:1; 
stroke-linecap:round; stroke-linejoin:round;fill-rule:evenodd;"
d="M 141370000.000000,72070000.000000
141350970.000000,71974329.000000
141296777.000000,71893223.000000
141215671.000000,71839030.000000
141120000.000000,71820000.000000
140595000.000000,71820000.000000
140499329.000000,71839030.000000
140418223.000000,71893223.000000
140364030.000000,71974329.000000
140345000.000000,72070000.000000
140345000.000000,72970000.000000
140364030.000000,73065671.000000
140418223.000000,73146777.000000
140499329.000000,73200970.000000
140595000.000000,73220000.000000
141120000.000000,73220000.000000
141215671.000000,73200970.000000
141296777.000000,73146777.000000
141350970.000000,73065671.000000
141370000.000000,72970000.000000
Z" /> 
</g>
<g >
</g>
<g style="fill:#000000; fill-opacity:1.0; 
stroke:#000000; stroke-width:1.000000; stroke-opacity:1; 
stroke-linecap:round; stroke-linejoin:round;">
<path style="fill:#000000; fill-opacity:1.0; 
stroke:#000000; stroke-width:1.000000; stroke-opacity:1; 
stroke-linecap:round; stroke-linejoin:round;fill-rule:evenodd;"
d="M 138428000.000000,65525000.000000
138447030.000000,65620671.000000
138501223.000000,65701777.000000
138582329.000000,65755970.000000
138678000.000000,65775000.000000
139178000.000000,65775000.000000
139273671.000000,65755970.000000
139354777.000000,65701777.000000
139408970.000000,65620671.000000
139428000.000000,65525000.000000
139428000.000000,64575000.000000
139408970.000000,64479329.000000
139354777.000000,64398223.000000
139273671.000000,64344030.000000
139178000.000000,64325000.000000
138678000.000000,64325000.000000
138582329.000000,64344030.000000
138501223.000000,64398223.000000
138447030.000000,64479329.000000
138428000.000000,64575000.000000
Z" /> 
<path style="fill:#000000; fill-opacity:1.0; 
stroke:#000000; stroke-width:1.000000; stroke-opacity:1; 
stroke-linecap:round; stroke-linejoin:round;fill-rule:evenodd;"
d="M 140328000.000000,65525000.000000
140347030.000000,65620671.000000
140401223.000000,65701777.000000
140482329.000000,65755970.000000
140578000.000000,65775000.000000
141078000.000000,65775000.000000
141173671.000000,65755970.000000
141254777.000000,65701777.000000
141308970.000000,65620671.000000
141328000.000000,65525000.000000
141328000.000000,64575000.000000
141308970.000000,64479329.000000
141254777.000000,64398223.000000
141173671.000000,64344030.000000
141078000.000000,64325000.000000
140578000.000000,64325000.000000
140482329.000000,64344030.000000
140401223.000000,64398223.000000
140347030.000000,64479329.000000
140328000.000000,64575000.000000
Z" /> 
</g>
<g >
</g>
<g style="fill:#000000; fill-opacity:1.0; 
stroke:#000000; stroke-width:1.000000; stroke-opacity:1; 
stroke-linecap:round; stroke-linejoin:round;">
<path style="fill:#000000; fill-opacity:1.0; 
stroke:#000000; stroke-width:1.000000; stroke-opacity:1; 
stroke-linecap:round; stroke-linejoin:round;fill-rule:evenodd;"
d="M 151560000.000000,59485000.000000
151579030.000000,59580671.000000
151633223.000000,59661777.000000
151714329.000000,59715970.000000
151810000.000000,59735000.000000
152310000.000000,59735000.000000
152405671.000000,59715970.000000
152486777.000000,59661777.000000
152540970.000000,59580671.000000
152560000.000000,59485000.000000
152560000.000000,58535000.000000
152540970.000000,58439329.000000
152486777.000000,58358223.000000
152405671.000000,58304030.000000
152310000.000000,58285000.000000
151810000.000000,58285000.000000
151714329.000000,58304030.000000
151633223.000000,58358223.000000
151579030.000000,58439329.000000
151560000.000000,58535000.000000
Z" /> 
<path style="fill:#000000; fill-opacity:1.0; 
stroke:#000000; stroke-width:1.000000; stroke-opacity:1; 
stroke-linecap:round; stroke-linejoin:round;fill-rule:evenodd;"
d="M 153460000.000000,59485000.000000
153479030.000000,59580671.000000
153533223.000000,59661777.000000
153614329.000000,59715970.000000
153710000.000000,59735000.000000
154210000.000000,59735000.000000
154305671.000000,59715970.000000
154386777.000000,59661777.000000
154440970.000000,59580671.000000
154460000.000000,59485000.000000
154460000.000000,58535000.000000
154440970.000000,58439329.000000
154386777.000000,58358223.000000
154305671.000000,58304030.000000
154210000.000000,58285000.000000
153710000.000000,58285000.000000
153614329.000000,58304030.000000
153533223.000000,58358223.000000
153479030.000000,58439329.000000
153460000.000000,58535000.000000
Z" /> 
</g>
<g >
</g>
<g style="fill:#000000; fill-opacity:1.0; 
stroke:#000000; stroke-width:1.000000; stroke-opacity:1; 
stroke-linecap:round; stroke-linejoin:round;">
<path style="fill:#000000; fill-opacity:1.0; 
stroke:#000000; stroke-width:1.000000; stroke-opacity:1; 
stroke-linecap:round; stroke-linejoin:round;fill-rule:evenodd;"
d="M 132650001.000000,58100001.000000
136349999.000000,58100001.000000
136349999.000000,59299999.000000
132650001.000000,59299999.000000
Z" /> 
<path style="fill:#000000; fill-opacity:1.0; 
stroke:#000000; stroke-width:1.000000; stroke-opacity:1; 
stroke-linecap:round; stroke-linejoin:round;fill-rule:evenodd;"
d="M 132650001.000000,60900001.000000
136349999.000000,60900001.000000
136349999.000000,62099999.000000
132650001.000000,62099999.000000
Z" /> 
</g>
<g >
</g>
<g style="fill:#000000; fill-opacity:1.0; 
stroke:#000000; stroke-width:1.000000; stroke-opacity:1; 
stroke-linecap:round; stroke-linejoin:round;">
<path style="fill:#000000; fill-opacity:1.0; 
stroke:#000000; stroke-width:1.000000; stroke-opacity:1; 
stroke-linecap:round; stroke-linejoin:round;fill-rule:evenodd;"
d="M 141970000.000000,77195000.000000
142065671.000000,77175970.000000
142146777.000000,77121777.000000
142200970.000000,77040671.000000
142220000.000000,76945000.000000
142220000.000000,76420000.000000
142200970.000000,76324329.000000
142146777.000000,76243223.000000
142065671.000000,76189030.000000
141970000.000000,76170000.000000
141070000.000000,76170000.000000
140974329.000000,76189030.000000
140893223.000000,76243223.000000
140839030.000000,76324329.000000
140820000.000000,76420000.000000
140820000.000000,76945000.000000
140839030.000000,77040671.000000
140893223.000000,77121777.000000
140974329.000000,77175970.000000
141070000.000000,77195000.000000
Z" /> 
<path style="fill:#000000; fill-opacity:1.0; 
stroke:#000000; stroke-width:1.000000; stroke-opacity:1; 
stroke-linecap:round; stroke-linejoin:round;fill-rule:evenodd;"
d="M 141970000.000000,75370000.000000
142065671.000000,75350970.000000
142146777.000000,75296777.000000
142200970.000000,75215671.000000
142220000.000000,75120000.000000
142220000.000000,74595000.000000
142200970.000000,74499329.000000
142146777.000000,74418223.000000
142065671.000000,74364030.000000
141970000.000000,74345000.000000
141070000.000000,74345000.000000
140974329.000000,74364030.000000
140893223.000000,74418223.000000
140839030.000000,74499329.000000
140820000.000000,74595000.000000
140820000.000000,75120000.000000
140839030.000000,75215671.000000
140893223.000000,75296777.000000
140974329.000000,75350970.000000
141070000.000000,75370000.000000
Z" /> 
</g>
<g >
</g>
<g style="fill:#000000; fill-opacity:1.0; 
stroke:#000000; stroke-width:1.000000; stroke-opacity:1; 
stroke-linecap:round; stroke-linejoin:round;">
<path style="fill:#000000; fill-opacity:1.0; 
stroke:#000000; stroke-width:1.000000; stroke-opacity:1; 
stroke-linecap:round; stroke-linejoin:round;fill-rule:evenodd;"
d="M 138433000.000000,67970000.000000
138452030.000000,68065671.000000
138506223.000000,68146777.000000
138587329.000000,68200970.000000
138683000.000000,68220000.000000
139208000.000000,68220000.000000
139303671.000000,68200970.000000
139384777.000000,68146777.000000
139438970.000000,68065671.000000
139458000.000000,67970000.000000
139458000.000000,67070000.000000
139438970.000000,66974329.000000
139384777.000000,66893223.000000
139303671.000000,66839030.000000
139208000.000000,66820000.000000
138683000.000000,66820000.000000
138587329.000000,66839030.000000
138506223.000000,66893223.000000
138452030.000000,66974329.000000
138433000.000000,67070000.000000
Z" /> 
<path style="fill:#000000; fill-opacity:1.0; 
stroke:#000000; stroke-width:1.000000; stroke-opacity:1; 
stroke-linecap:round; stroke-linejoin:round;fill-rule:evenodd;"
d="M 140258000.000000,67970000.000000
140277030.000000,68065671.000000
140331223.000000,68146777.000000
140412329.000000,68200970.000000
140508000.000000,68220000.000000
141033000.000000,68220000.000000
141128671.000000,68200970.000000
141209777.000000,68146777.000000
141263970.000000,68065671.000000
141283000.000000,67970000.000000
141283000.000000,67070000.000000
141263970.000000,66974329.000000
141209777.000000,66893223.000000
141128671.000000,66839030.000000
141033000.000000,66820000.000000
140508000.000000,66820000.000000
140412329.000000,66839030.000000
140331223.000000,66893223.000000
140277030.000000,66974329.000000
140258000.000000,67070000.000000
Z" /> 
</g>
<g >
</g>
<g style="fill:#000000; fill-opacity:1.0; 
stroke:#000000; stroke-width:1.000000; stroke-opacity:1; 
stroke-linecap:round; stroke-linejoin:round;">
<path style="fill:#000000; fill-opacity:1.0; 
stroke:#000000; stroke-width:1.000000; stroke-opacity:1; 
stroke-linecap:round; stroke-linejoin:round;fill-rule:evenodd;"
d="M 158520000.000000,59475000.000000
158539030.000000,59570671.000000
158593223.000000,59651777.000000
158674329.000000,59705970.000000
158770000.000000,59725000.000000
159270000.000000,59725000.000000
159365671.000000,59705970.000000
159446777.000000,59651777.000000
159500970.000000,59570671.000000
159520000.000000,59475000.000000
159520000.000000,58525000.000000
159500970.000000,58429329.000000
159446777.000000,58348223.000000
159365671.000000,58294030.000000
159270000.000000,58275000.000000
158770000.000000,58275000.000000
158674329.000000,58294030.000000
158593223.000000,58348223.000000
158539030.000000,58429329.000000
158520000.000000,58525000.000000
Z" /> 
<path style="fill:#000000; fill-opacity:1.0; 
stroke:#000000; stroke-width:1.000000; stroke-opacity:1; 
stroke-linecap:round; stroke-linejoin:round;fill-rule:evenodd;"
d="M 160420000.000000,59475000.000000
160439030.000000,59570671.000000
160493223.000000,59651777.000000
160574329.000000,59705970.000000
160670000.000000,59725000.000000
161170000.000000,59725000.000000
161265671.000000,59705970.000000
161346777.000000,59651777.000000
161400970.000000,59570671.000000
161420000.000000,59475000.000000
161420000.000000,58525000.000000
161400970.000000,58429329.000000
161346777.000000,58348223.000000
161265671.000000,58294030.000000
161170000.000000,58275000.000000
160670000.000000,58275000.000000
160574329.000000,58294030.000000
160493223.000000,58348223.000000
160439030.000000,58429329.000000
160420000.000000,58525000.000000
Z" /> 
</g>
<g >
</g>
<g style="fill:#000000; fill-opacity:1.0; 
stroke:#000000; stroke-width:1.000000; stroke-opacity:1; 
stroke-linecap:round; stroke-linejoin:round;">
<path style="fill:#000000; fill-opacity:1.0; 
stroke:#000000; stroke-width:1.000000; stroke-opacity:1; 
stroke-linecap:round; stroke-linejoin:round;fill-rule:evenodd;"
d="M 144809999.000000,67070000.000000
144790969.000000,66974329.000000
144736776.000000,66893223.000000
144655670.000000,66839030.000000
144559999.000000,66820000.000000
144034999.000000,66820000.000000
143939328.000000,66839030.000000
143858222.000000,66893223.000000
143804029.000000,66974329.000000
143784999.000000,67070000.000000
143784999.000000,67970000.000000
143804029.000000,68065671.000000
143858222.000000,68146777.000000
143939328.000000,68200970.000000
144034999.000000,68220000.000000
144559999.000000,68220000.000000
144655670.000000,68200970.000000
144736776.000000,68146777.000000
144790969.000000,68065671.000000
144809999.000000,67970000.000000
Z" /> 
<path style="fill:#000000; fill-opacity:1.0; 
stroke:#000000; stroke-width:1.000000; stroke-opacity:1; 
stroke-linecap:round; stroke-linejoin:round;fill-rule:evenodd;"
d="M 142984999.000000,67070000.000000
142965969.000000,66974329.000000
142911776.000000,66893223.000000
142830670.000000,66839030.000000
142734999.000000,66820000.000000
142209999.000000,66820000.000000
142114328.000000,66839030.000000
142033222.000000,66893223.000000
141979029.000000,66974329.000000
141959999.000000,67070000.000000
141959999.000000,67970000.000000
141979029.000000,68065671.000000
142033222.000000,68146777.000000
142114328.000000,68200970.000000
142209999.000000,68220000.000000
142734999.000000,68220000.000000
142830670.000000,68200970.000000
142911776.000000,68146777.000000
142965969.000000,68065671.000000
142984999.000000,67970000.000000
Z" /> 
</g>
<g >
</g>
<g style="fill:#000000; fill-opacity:1.0; 
stroke:#000000; stroke-width:1.000000; stroke-opacity:1; 
stroke-linecap:round; stroke-linejoin:round;">
<path style="fill:#000000; fill-opacity:1.0; 
stroke:#000000; stroke-width:1.000000; stroke-opacity:1; 
stroke-linecap:round; stroke-linejoin:round;fill-rule:evenodd;"
d="M 143195000.000000,70070000.000000
143175970.000000,69974329.000000
143121777.000000,69893223.000000
143040671.000000,69839030.000000
142945000.000000,69820000.000000
142420000.000000,69820000.000000
142324329.000000,69839030.000000
142243223.000000,69893223.000000
142189030.000000,69974329.000000
142170000.000000,70070000.000000
142170000.000000,70970000.000000
142189030.000000,71065671.000000
142243223.000000,71146777.000000
142324329.000000,71200970.000000
142420000.000000,71220000.000000
142945000.000000,71220000.000000
143040671.000000,71200970.000000
143121777.000000,71146777.000000
143175970.000000,71065671.000000
143195000.000000,70970000.000000
Z" /> 
<path style="fill:#000000; fill-opacity:1.0; 
stroke:#000000; stroke-width:1.000000; stroke-opacity:1; 
stroke-linecap:round; stroke-linejoin:round;fill-rule:evenodd;"
d="M 141370000.000000,70070000.000000
141350970.000000,69974329.000000
141296777.000000,69893223.000000
141215671.000000,69839030.000000
141120000.000000,69820000.000000
140595000.000000,69820000.000000
140499329.000000,69839030.000000
140418223.000000,69893223.000000
140364030.000000,69974329.000000
140345000.000000,70070000.000000
140345000.000000,70970000.000000
140364030.000000,71065671.000000
140418223.000000,71146777.000000
140499329.000000,71200970.000000
140595000.000000,71220000.000000
141120000.000000,71220000.000000
141215671.000000,71200970.000000
141296777.000000,71146777.000000
141350970.000000,71065671.000000
141370000.000000,70970000.000000
Z" /> 
</g>
<g >
</g>
<g style="fill:#000000; fill-opacity:1.0; 
stroke:#000000; stroke-width:1.000000; stroke-opacity:1; 
stroke-linecap:round; stroke-linejoin:round;">
<path style="fill:#000000; fill-opacity:1.0; 
stroke:#000000; stroke-width:1.000000; stroke-opacity:1; 
stroke-linecap:round; stroke-linejoin:round;fill-rule:evenodd;"
d="M 155040000.000000,59475000.000000
155059030.000000,59570671.000000
155113223.000000,59651777.000000
155194329.000000,59705970.000000
155290000.000000,59725000.000000
155790000.000000,59725000.000000
155885671.000000,59705970.000000
155966777.000000,59651777.000000
156020970.000000,59570671.000000
156040000.000000,59475000.000000
156040000.000000,58525000.000000
156020970.000000,58429329.000000
155966777.000000,58348223.000000
155885671.000000,58294030.000000
155790000.000000,58275000.000000
155290000.000000,58275000.000000
155194329.000000,58294030.000000
155113223.000000,58348223.000000
155059030.000000,58429329.000000
155040000.000000,58525000.000000
Z" /> 
<path style="fill:#000000; fill-opacity:1.0; 
stroke:#000000; stroke-width:1.000000; stroke-opacity:1; 
stroke-linecap:round; stroke-linejoin:round;fill-rule:evenodd;"
d="M 156940000.000000,59475000.000000
156959030.000000,59570671.000000
157013223.000000,59651777.000000
157094329.000000,59705970.000000
157190000.000000,59725000.000000
157690000.000000,59725000.000000
157785671.000000,59705970.000000
157866777.000000,59651777.000000
157920970.000000,59570671.000000
157940000.000000,59475000.000000
157940000.000000,58525000.000000
157920970.000000,58429329.000000
157866777.000000,58348223.000000
157785671.000000,58294030.000000
157690000.000000,58275000.000000
157190000.000000,58275000.000000
157094329.000000,58294030.000000
157013223.000000,58348223.000000
156959030.000000,58429329.000000
156940000.000000,58525000.000000
Z" /> 
</g>
<g >
</g>
<g >
</g>
<g style="fill:#000000; fill-opacity:1.0; 
stroke:#000000; stroke-width:1.000000; stroke-opacity:1; 
stroke-linecap:round; stroke-linejoin:round;">
<path style="fill:#000000; fill-opacity:1.0; 
stroke:#000000; stroke-width:1.000000; stroke-opacity:1; 
stroke-linecap:round; stroke-linejoin:round;fill-rule:evenodd;"
d="M 146975000.000000,76970000.000000
147032403.000000,76958582.000000
147081066.000000,76926066.000000
147113582.000000,76877403.000000
147125000.000000,76820000.000000
147125000.000000,75170000.000000
147113582.000000,75112597.000000
147081066.000000,75063934.000000
147032403.000000,75031418.000000
146975000.000000,75020000.000000
146675000.000000,75020000.000000
146617597.000000,75031418.000000
146568934.000000,75063934.000000
146536418.000000,75112597.000000
146525000.000000,75170000.000000
146525000.000000,76820000.000000
146536418.000000,76877403.000000
146568934.000000,76926066.000000
146617597.000000,76958582.000000
146675000.000000,76970000.000000
Z" /> 
<path style="fill:#000000; fill-opacity:1.0; 
stroke:#000000; stroke-width:1.000000; stroke-opacity:1; 
stroke-linecap:round; stroke-linejoin:round;fill-rule:evenodd;"
d="M 148245000.000000,76970000.000000
148302403.000000,76958582.000000
148351066.000000,76926066.000000
148383582.000000,76877403.000000
148395000.000000,76820000.000000
148395000.000000,75170000.000000
148383582.000000,75112597.000000
148351066.000000,75063934.000000
148302403.000000,75031418.000000
148245000.000000,75020000.000000
147945000.000000,75020000.000000
147887597.000000,75031418.000000
147838934.000000,75063934.000000
147806418.000000,75112597.000000
147795000.000000,75170000.000000
147795000.000000,76820000.000000
147806418.000000,76877403.000000
147838934.000000,76926066.000000
147887597.000000,76958582.000000
147945000.000000,76970000.000000
Z" /> 
<path style="fill:#000000; fill-opacity:1.0; 
stroke:#000000; stroke-width:1.000000; stroke-opacity:1; 
stroke-linecap:round; stroke-linejoin:round;fill-rule:evenodd;"
d="M 149515000.000000,76970000.000000
149572403.000000,76958582.000000
149621066.000000,76926066.000000
149653582.000000,76877403.000000
149665000.000000,76820000.000000
149665000.000000,75170000.000000
149653582.000000,75112597.000000
149621066.000000,75063934.000000
149572403.000000,75031418.000000
149515000.000000,75020000.000000
149215000.000000,75020000.000000
149157597.000000,75031418.000000
149108934.000000,75063934.000000
149076418.000000,75112597.000000
149065000.000000,75170000.000000
149065000.000000,76820000.000000
149076418.000000,76877403.000000
149108934.000000,76926066.000000
149157597.000000,76958582.000000
149215000.000000,76970000.000000
Z" /> 
<path style="fill:#000000; fill-opacity:1.0; 
stroke:#000000; stroke-width:1.000000; stroke-opacity:1; 
stroke-linecap:round; stroke-linejoin:round;fill-rule:evenodd;"
d="M 150785000.000000,76970000.000000
150842403.000000,76958582.000000
150891066.000000,76926066.000000
150923582.000000,76877403.000000
150935000.000000,76820000.000000
150935000.000000,75170000.000000
150923582.000000,75112597.000000
150891066.000000,75063934.000000
150842403.000000,75031418.000000
150785000.000000,75020000.000000
150485000.000000,75020000.000000
150427597.000000,75031418.000000
150378934.000000,75063934.000000
150346418.000000,75112597.000000
150335000.000000,75170000.000000
150335000.000000,76820000.000000
150346418.000000,76877403.000000
150378934.000000,76926066.000000
150427597.000000,76958582.000000
150485000.000000,76970000.000000
Z" /> 
<path style="fill:#000000; fill-opacity:1.0; 
stroke:#000000; stroke-width:1.000000; stroke-opacity:1; 
stroke-linecap:round; stroke-linejoin:round;fill-rule:evenodd;"
d="M 152055000.000000,76970000.000000
152112403.000000,76958582.000000
152161066.000000,76926066.000000
152193582.000000,76877403.000000
152205000.000000,76820000.000000
152205000.000000,75170000.000000
152193582.000000,75112597.000000
152161066.000000,75063934.000000
152112403.000000,75031418.000000
152055000.000000,75020000.000000
151755000.000000,75020000.000000
151697597.000000,75031418.000000
151648934.000000,75063934.000000
151616418.000000,75112597.000000
151605000.000000,75170000.000000
151605000.000000,76820000.000000
151616418.000000,76877403.000000
151648934.000000,76926066.000000
151697597.000000,76958582.000000
151755000.000000,76970000.000000
Z" /> 
<path style="fill:#000000; fill-opacity:1.0; 
stroke:#000000; stroke-width:1.000000; stroke-opacity:1; 
stroke-linecap:round; stroke-linejoin:round;fill-rule:evenodd;"
d="M 153325000.000000,76970000.000000
153382403.000000,76958582.000000
153431066.000000,76926066.000000
153463582.000000,76877403.000000
153475000.000000,76820000.000000
153475000.000000,75170000.000000
153463582.000000,75112597.000000
153431066.000000,75063934.000000
153382403.000000,75031418.000000
153325000.000000,75020000.000000
153025000.000000,75020000.000000
152967597.000000,75031418.000000
152918934.000000,75063934.000000
152886418.000000,75112597.000000
152875000.000000,75170000.000000
152875000.000000,76820000.000000
152886418.000000,76877403.000000
152918934.000000,76926066.000000
152967597.000000,76958582.000000
153025000.000000,76970000.000000
Z" /> 
<path style="fill:#000000; fill-opacity:1.0; 
stroke:#000000; stroke-width:1.000000; stroke-opacity:1; 
stroke-linecap:round; stroke-linejoin:round;fill-rule:evenodd;"
d="M 154595000.000000,76970000.000000
154652403.000000,76958582.000000
154701066.000000,76926066.000000
154733582.000000,76877403.000000
154745000.000000,76820000.000000
154745000.000000,75170000.000000
154733582.000000,75112597.000000
154701066.000000,75063934.000000
154652403.000000,75031418.000000
154595000.000000,75020000.000000
154295000.000000,75020000.000000
154237597.000000,75031418.000000
154188934.000000,75063934.000000
154156418.000000,75112597.000000
154145000.000000,75170000.000000
154145000.000000,76820000.000000
154156418.000000,76877403.000000
154188934.000000,76926066.000000
154237597.000000,76958582.000000
154295000.000000,76970000.000000
Z" /> 
<path style="fill:#000000; fill-opacity:1.0; 
stroke:#000000; stroke-width:1.000000; stroke-opacity:1; 
stroke-linecap:round; stroke-linejoin:round;fill-rule:evenodd;"
d="M 155865000.000000,76970000.000000
155922403.000000,76958582.000000
155971066.000000,76926066.000000
156003582.000000,76877403.000000
156015000.000000,76820000.000000
156015000.000000,75170000.000000
156003582.000000,75112597.000000
155971066.000000,75063934.000000
155922403.000000,75031418.000000
155865000.000000,75020000.000000
155565000.000000,75020000.000000
155507597.000000,75031418.000000
155458934.000000,75063934.000000
155426418.000000,75112597.000000
155415000.000000,75170000.000000
155415000.000000,76820000.000000
155426418.000000,76877403.000000
155458934.000000,76926066.000000
155507597.000000,76958582.000000
155565000.000000,76970000.000000
Z" /> 
<path style="fill:#000000; fill-opacity:1.0; 
stroke:#000000; stroke-width:1.000000; stroke-opacity:1; 
stroke-linecap:round; stroke-linejoin:round;fill-rule:evenodd;"
d="M 155865000.000000,72020000.000000
155922403.000000,72008582.000000
155971066.000000,71976066.000000
156003582.000000,71927403.000000
156015000.000000,71870000.000000
156015000.000000,70220000.000000
156003582.000000,70162597.000000
155971066.000000,70113934.000000
155922403.000000,70081418.000000
155865000.000000,70070000.000000
155565000.000000,70070000.000000
155507597.000000,70081418.000000
155458934.000000,70113934.000000
155426418.000000,70162597.000000
155415000.000000,70220000.000000
155415000.000000,71870000.000000
155426418.000000,71927403.000000
155458934.000000,71976066.000000
155507597.000000,72008582.000000
155565000.000000,72020000.000000
Z" /> 
<path style="fill:#000000; fill-opacity:1.0; 
stroke:#000000; stroke-width:1.000000; stroke-opacity:1; 
stroke-linecap:round; stroke-linejoin:round;fill-rule:evenodd;"
d="M 154595000.000000,72020000.000000
154652403.000000,72008582.000000
154701066.000000,71976066.000000
154733582.000000,71927403.000000
154745000.000000,71870000.000000
154745000.000000,70220000.000000
154733582.000000,70162597.000000
154701066.000000,70113934.000000
154652403.000000,70081418.000000
154595000.000000,70070000.000000
154295000.000000,70070000.000000
154237597.000000,70081418.000000
154188934.000000,70113934.000000
154156418.000000,70162597.000000
154145000.000000,70220000.000000
154145000.000000,71870000.000000
154156418.000000,71927403.000000
154188934.000000,71976066.000000
154237597.000000,72008582.000000
154295000.000000,72020000.000000
Z" /> 
<path style="fill:#000000; fill-opacity:1.0; 
stroke:#000000; stroke-width:1.000000; stroke-opacity:1; 
stroke-linecap:round; stroke-linejoin:round;fill-rule:evenodd;"
d="M 153325000.000000,72020000.000000
153382403.000000,72008582.000000
153431066.000000,71976066.000000
153463582.000000,71927403.000000
153475000.000000,71870000.000000
153475000.000000,70220000.000000
153463582.000000,70162597.000000
153431066.000000,70113934.000000
153382403.000000,70081418.000000
153325000.000000,70070000.000000
153025000.000000,70070000.000000
152967597.000000,70081418.000000
152918934.000000,70113934.000000
152886418.000000,70162597.000000
152875000.000000,70220000.000000
152875000.000000,71870000.000000
152886418.000000,71927403.000000
152918934.000000,71976066.000000
152967597.000000,72008582.000000
153025000.000000,72020000.000000
Z" /> 
<path style="fill:#000000; fill-opacity:1.0; 
stroke:#000000; stroke-width:1.000000; stroke-opacity:1; 
stroke-linecap:round; stroke-linejoin:round;fill-rule:evenodd;"
d="M 152055000.000000,72020000.000000
152112403.000000,72008582.000000
152161066.000000,71976066.000000
152193582.000000,71927403.000000
152205000.000000,71870000.000000
152205000.000000,70220000.000000
152193582.000000,70162597.000000
152161066.000000,70113934.000000
152112403.000000,70081418.000000
152055000.000000,70070000.000000
151755000.000000,70070000.000000
151697597.000000,70081418.000000
151648934.000000,70113934.000000
151616418.000000,70162597.000000
151605000.000000,70220000.000000
151605000.000000,71870000.000000
151616418.000000,71927403.000000
151648934.000000,71976066.000000
151697597.000000,72008582.000000
151755000.000000,72020000.000000
Z" /> 
<path style="fill:#000000; fill-opacity:1.0; 
stroke:#000000; stroke-width:1.000000; stroke-opacity:1; 
stroke-linecap:round; stroke-linejoin:round;fill-rule:evenodd;"
d="M 150785000.000000,72020000.000000
150842403.000000,72008582.000000
150891066.000000,71976066.000000
150923582.000000,71927403.000000
150935000.000000,71870000.000000
150935000.000000,70220000.000000
150923582.000000,70162597.000000
150891066.000000,70113934.000000
150842403.000000,70081418.000000
150785000.000000,70070000.000000
150485000.000000,70070000.000000
150427597.000000,70081418.000000
150378934.000000,70113934.000000
150346418.000000,70162597.000000
150335000.000000,70220000.000000
150335000.000000,71870000.000000
150346418.000000,71927403.000000
150378934.000000,71976066.000000
150427597.000000,72008582.000000
150485000.000000,72020000.000000
Z" /> 
<path style="fill:#000000; fill-opacity:1.0; 
stroke:#000000; stroke-width:1.000000; stroke-opacity:1; 
stroke-linecap:round; stroke-linejoin:round;fill-rule:evenodd;"
d="M 149515000.000000,72020000.000000
149572403.000000,72008582.000000
149621066.000000,71976066.000000
149653582.000000,71927403.000000
149665000.000000,71870000.000000
149665000.000000,70220000.000000
149653582.000000,70162597.000000
149621066.000000,70113934.000000
149572403.000000,70081418.000000
149515000.000000,70070000.000000
149215000.000000,70070000.000000
149157597.000000,70081418.000000
149108934.000000,70113934.000000
149076418.000000,70162597.000000
149065000.000000,70220000.000000
149065000.000000,71870000.000000
149076418.000000,71927403.000000
149108934.000000,71976066.000000
149157597.000000,72008582.000000
149215000.000000,72020000.000000
Z" /> 
<path style="fill:#000000; fill-opacity:1.0; 
stroke:#000000; stroke-width:1.000000; stroke-opacity:1; 
stroke-linecap:round; stroke-linejoin:round;fill-rule:evenodd;"
d="M 148245000.000000,72020000.000000
148302403.000000,72008582.000000
148351066.000000,71976066.000000
148383582.000000,71927403.000000
148395000.000000,71870000.000000
148395000.000000,70220000.000000
148383582.000000,70162597.000000
148351066.000000,70113934.000000
148302403.000000,70081418.000000
148245000.000000,70070000.000000
147945000.000000,70070000.000000
147887597.000000,70081418.000000
147838934.000000,70113934.000000
147806418.000000,70162597.000000
147795000.000000,70220000.000000
147795000.000000,71870000.000000
147806418.000000,71927403.000000
147838934.000000,71976066.000000
147887597.000000,72008582.000000
147945000.000000,72020000.000000
Z" /> 
<path style="fill:#000000; fill-opacity:1.0; 
stroke:#000000; stroke-width:1.000000; stroke-opacity:1; 
stroke-linecap:round; stroke-linejoin:round;fill-rule:evenodd;"
d="M 146975000.000000,72020000.000000
147032403.000000,72008582.000000
147081066.000000,71976066.000000
147113582.000000,71927403.000000
147125000.000000,71870000.000000
147125000.000000,70220000.000000
147113582.000000,70162597.000000
147081066.000000,70113934.000000
147032403.000000,70081418.000000
146975000.000000,70070000.000000
146675000.000000,70070000.000000
146617597.000000,70081418.000000
146568934.000000,70113934.000000
146536418.000000,70162597.000000
146525000.000000,70220000.000000
146525000.000000,71870000.000000
146536418.000000,71927403.000000
146568934.000000,71976066.000000
146617597.000000,72008582.000000
146675000.000000,72020000.000000
Z" /> 
</g>
<g >
</g>
<g style="fill:#000000; fill-opacity:1.0; 
stroke:#000000; stroke-width:1.000000; stroke-opacity:1; 
stroke-linecap:round; stroke-linejoin:round;">
<path style="fill:#000000; fill-opacity:1.0; 
stroke:#000000; stroke-width:1.000000; stroke-opacity:1; 
stroke-linecap:round; stroke-linejoin:round;fill-rule:evenodd;"
d="M 127676001.000000,64489999.000000
127676001.000000,62990001.000000
129675999.000000,62990001.000000
129675999.000000,64489999.000000
Z" /> 
<path style="fill:#000000; fill-opacity:1.0; 
stroke:#000000; stroke-width:1.000000; stroke-opacity:1; 
stroke-linecap:round; stroke-linejoin:round;fill-rule:evenodd;"
d="M 127676001.000000,69089999.000000
127676001.000000,67590001.000000
129675999.000000,67590001.000000
129675999.000000,69089999.000000
Z" /> 
<path style="fill:#000000; fill-opacity:1.0; 
stroke:#000000; stroke-width:1.000000; stroke-opacity:1; 
stroke-linecap:round; stroke-linejoin:round;fill-rule:evenodd;"
d="M 133976001.000000,67939999.000000
133976001.000000,64140001.000000
135975999.000000,64140001.000000
135975999.000000,67939999.000000
Z" /> 
<path style="fill:#000000; fill-opacity:1.0; 
stroke:#000000; stroke-width:1.000000; stroke-opacity:1; 
stroke-linecap:round; stroke-linejoin:round;fill-rule:evenodd;"
d="M 127676001.000000,66789999.000000
127676001.000000,65290001.000000
129675999.000000,65290001.000000
129675999.000000,66789999.000000
Z" /> 
</g>
<g >
</g>
<g style="fill:#000000; fill-opacity:1.0; 
stroke:#000000; stroke-width:1.000000; stroke-opacity:1; 
stroke-linecap:round; stroke-linejoin:round;">
<path style="fill:#000000; fill-opacity:1.0; 
stroke:#000000; stroke-width:1.000000; stroke-opacity:1; 
stroke-linecap:round; stroke-linejoin:round;fill-rule:evenodd;"
d="M 160100000.000000,63675000.000000
160157403.000000,63663582.000000
160206066.000000,63631066.000000
160238582.000000,63582403.000000
160250000.000000,63525000.000000
160250000.000000,62350000.000000
160238582.000000,62292597.000000
160206066.000000,62243934.000000
160157403.000000,62211418.000000
160100000.000000,62200000.000000
159800000.000000,62200000.000000
159742597.000000,62211418.000000
159693934.000000,62243934.000000
159661418.000000,62292597.000000
159650000.000000,62350000.000000
159650000.000000,63525000.000000
159661418.000000,63582403.000000
159693934.000000,63631066.000000
159742597.000000,63663582.000000
159800000.000000,63675000.000000
Z" /> 
<path style="fill:#000000; fill-opacity:1.0; 
stroke:#000000; stroke-width:1.000000; stroke-opacity:1; 
stroke-linecap:round; stroke-linejoin:round;fill-rule:evenodd;"
d="M 162000000.000000,63675000.000000
162057403.000000,63663582.000000
162106066.000000,63631066.000000
162138582.000000,63582403.000000
162150000.000000,63525000.000000
162150000.000000,62350000.000000
162138582.000000,62292597.000000
162106066.000000,62243934.000000
162057403.000000,62211418.000000
162000000.000000,62200000.000000
161700000.000000,62200000.000000
161642597.000000,62211418.000000
161593934.000000,62243934.000000
161561418.000000,62292597.000000
161550000.000000,62350000.000000
161550000.000000,63525000.000000
161561418.000000,63582403.000000
161593934.000000,63631066.000000
161642597.000000,63663582.000000
161700000.000000,63675000.000000
Z" /> 
<path style="fill:#000000; fill-opacity:1.0; 
stroke:#000000; stroke-width:1.000000; stroke-opacity:1; 
stroke-linecap:round; stroke-linejoin:round;fill-rule:evenodd;"
d="M 161050000.000000,61800000.000000
161107403.000000,61788582.000000
161156066.000000,61756066.000000
161188582.000000,61707403.000000
161200000.000000,61650000.000000
161200000.000000,60475000.000000
161188582.000000,60417597.000000
161156066.000000,60368934.000000
161107403.000000,60336418.000000
161050000.000000,60325000.000000
160750000.000000,60325000.000000
160692597.000000,60336418.000000
160643934.000000,60368934.000000
160611418.000000,60417597.000000
160600000.000000,60475000.000000
160600000.000000,61650000.000000
160611418.000000,61707403.000000
160643934.000000,61756066.000000
160692597.000000,61788582.000000
160750000.000000,61800000.000000
Z" /> 
</g>
<g >
</g>
<g style="fill:#000000; fill-opacity:1.0; 
stroke:#000000; stroke-width:1.000000; stroke-opacity:1; 
stroke-linecap:round; stroke-linejoin:round;">
<path style="fill:#000000; fill-opacity:1.0; 
stroke:#000000; stroke-width:1.000000; stroke-opacity:1; 
stroke-linecap:round; stroke-linejoin:round;fill-rule:evenodd;"
d="M 157744999.000000,76619999.000000
157295001.000000,76619999.000000
157295001.000000,76020001.000000
157744999.000000,76020001.000000
Z" /> 
<path style="fill:#000000; fill-opacity:1.0; 
stroke:#000000; stroke-width:1.000000; stroke-opacity:1; 
stroke-linecap:round; stroke-linejoin:round;fill-rule:evenodd;"
d="M 157744999.000000,74519999.000000
157295001.000000,74519999.000000
157295001.000000,73920001.000000
157744999.000000,73920001.000000
Z" /> 
</g>
<g >
</g>
<g >
</g>
<g style="fill:#000000; fill-opacity:1.0; 
stroke:#000000; stroke-width:1.000000; stroke-opacity:1; 
stroke-linecap:round; stroke-linejoin:round;">
<path style="fill:#000000; fill-opacity:1.0; 
stroke:#000000; stroke-width:1.000000; stroke-opacity:1; 
stroke-linecap:round; stroke-linejoin:round;fill-rule:evenodd;"
d="M 139520000.000000,70045000.000000
139500970.000000,69949329.000000
139446777.000000,69868223.000000
139365671.000000,69814030.000000
139270000.000000,69795000.000000
138770000.000000,69795000.000000
138674329.000000,69814030.000000
138593223.000000,69868223.000000
138539030.000000,69949329.000000
138520000.000000,70045000.000000
138520000.000000,70995000.000000
138539030.000000,71090671.000000
138593223.000000,71171777.000000
138674329.000000,71225970.000000
138770000.000000,71245000.000000
139270000.000000,71245000.000000
139365671.000000,71225970.000000
139446777.000000,71171777.000000
139500970.000000,71090671.000000
139520000.000000,70995000.000000
Z" /> 
<path style="fill:#000000; fill-opacity:1.0; 
stroke:#000000; stroke-width:1.000000; stroke-opacity:1; 
stroke-linecap:round; stroke-linejoin:round;fill-rule:evenodd;"
d="M 137620000.000000,70045000.000000
137600970.000000,69949329.000000
137546777.000000,69868223.000000
137465671.000000,69814030.000000
137370000.000000,69795000.000000
136870000.000000,69795000.000000
136774329.000000,69814030.000000
136693223.000000,69868223.000000
136639030.000000,69949329.000000
136620000.000000,70045000.000000
136620000.000000,70995000.000000
136639030.000000,71090671.000000
136693223.000000,71171777.000000
136774329.000000,71225970.000000
136870000.000000,71245000.000000
137370000.000000,71245000.000000
137465671.000000,71225970.000000
137546777.000000,71171777.000000
137600970.000000,71090671.000000
137620000.000000,70995000.000000
Z" /> 
</g>
<g >
</g>
<g style="fill:#000000; fill-opacity:1.0; 
stroke:#000000; stroke-width:1.000000; stroke-opacity:1; 
stroke-linecap:round; stroke-linejoin:round;">
<path style="fill:#000000; fill-opacity:1.0; 
stroke:#000000; stroke-width:1.000000; stroke-opacity:1; 
stroke-linecap:round; stroke-linejoin:round;fill-rule:evenodd;"
d="M 141030000.000000,59465000.000000
141049030.000000,59560671.000000
141103223.000000,59641777.000000
141184329.000000,59695970.000000
141280000.000000,59715000.000000
141780000.000000,59715000.000000
141875671.000000,59695970.000000
141956777.000000,59641777.000000
142010970.000000,59560671.000000
142030000.000000,59465000.000000
142030000.000000,58515000.000000
142010970.000000,58419329.000000
141956777.000000,58338223.000000
141875671.000000,58284030.000000
141780000.000000,58265000.000000
141280000.000000,58265000.000000
141184329.000000,58284030.000000
141103223.000000,58338223.000000
141049030.000000,58419329.000000
141030000.000000,58515000.000000
Z" /> 
<path style="fill:#000000; fill-opacity:1.0; 
stroke:#000000; stroke-width:1.000000; stroke-opacity:1; 
stroke-linecap:round; stroke-linejoin:round;fill-rule:evenodd;"
d="M 142930000.000000,59465000.000000
142949030.000000,59560671.000000
143003223.000000,59641777.000000
143084329.000000,59695970.000000
143180000.000000,59715000.000000
143680000.000000,59715000.000000
143775671.000000,59695970.000000
143856777.000000,59641777.000000
143910970.000000,59560671.000000
143930000.000000,59465000.000000
143930000.000000,58515000.000000
143910970.000000,58419329.000000
143856777.000000,58338223.000000
143775671.000000,58284030.000000
143680000.000000,58265000.000000
143180000.000000,58265000.000000
143084329.000000,58284030.000000
143003223.000000,58338223.000000
142949030.000000,58419329.000000
142930000.000000,58515000.000000
Z" /> 
</g>
<g >
</g>
<g style="fill:#000000; fill-opacity:1.0; 
stroke:#000000; stroke-width:1.000000; stroke-opacity:1; 
stroke-linecap:round; stroke-linejoin:round;">
<path style="fill:#000000; fill-opacity:1.0; 
stroke:#000000; stroke-width:1.000000; stroke-opacity:1; 
stroke-linecap:round; stroke-linejoin:round;fill-rule:evenodd;"
d="M 146118666.000000,63675000.000000
146176069.000000,63663582.000000
146224732.000000,63631066.000000
146257248.000000,63582403.000000
146268666.000000,63525000.000000
146268666.000000,62350000.000000
146257248.000000,62292597.000000
146224732.000000,62243934.000000
146176069.000000,62211418.000000
146118666.000000,62200000.000000
145818666.000000,62200000.000000
145761263.000000,62211418.000000
145712600.000000,62243934.000000
145680084.000000,62292597.000000
145668666.000000,62350000.000000
145668666.000000,63525000.000000
145680084.000000,63582403.000000
145712600.000000,63631066.000000
145761263.000000,63663582.000000
145818666.000000,63675000.000000
Z" /> 
<path style="fill:#000000; fill-opacity:1.0; 
stroke:#000000; stroke-width:1.000000; stroke-opacity:1; 
stroke-linecap:round; stroke-linejoin:round;fill-rule:evenodd;"
d="M 148018666.000000,63675000.000000
148076069.000000,63663582.000000
148124732.000000,63631066.000000
148157248.000000,63582403.000000
148168666.000000,63525000.000000
148168666.000000,62350000.000000
148157248.000000,62292597.000000
148124732.000000,62243934.000000
148076069.000000,62211418.000000
148018666.000000,62200000.000000
147718666.000000,62200000.000000
147661263.000000,62211418.000000
147612600.000000,62243934.000000
147580084.000000,62292597.000000
147568666.000000,62350000.000000
147568666.000000,63525000.000000
147580084.000000,63582403.000000
147612600.000000,63631066.000000
147661263.000000,63663582.000000
147718666.000000,63675000.000000
Z" /> 
<path style="fill:#000000; fill-opacity:1.0; 
stroke:#000000; stroke-width:1.000000; stroke-opacity:1; 
stroke-linecap:round; stroke-linejoin:round;fill-rule:evenodd;"
d="M 147068666.000000,61800000.000000
147126069.000000,61788582.000000
147174732.000000,61756066.000000
147207248.000000,61707403.000000
147218666.000000,61650000.000000
147218666.000000,60475000.000000
147207248.000000,60417597.000000
147174732.000000,60368934.000000
147126069.000000,60336418.000000
147068666.000000,60325000.000000
146768666.000000,60325000.000000
146711263.000000,60336418.000000
146662600.000000,60368934.000000
146630084.000000,60417597.000000
146618666.000000,60475000.000000
146618666.000000,61650000.000000
146630084.000000,61707403.000000
146662600.000000,61756066.000000
146711263.000000,61788582.000000
146768666.000000,61800000.000000
Z" /> 
</g>
<g >
</g>
<g style="fill:#000000; fill-opacity:1.0; 
stroke:#000000; stroke-width:1.000000; stroke-opacity:1; 
stroke-linecap:round; stroke-linejoin:round;">
<path style="fill:#000000; fill-opacity:1.0; 
stroke:#000000; stroke-width:1.000000; stroke-opacity:1; 
stroke-linecap:round; stroke-linejoin:round;fill-rule:evenodd;"
d="M 142820000.000000,76745000.000000
142839030.000000,76840671.000000
142893223.000000,76921777.000000
142974329.000000,76975970.000000
143070000.000000,76995000.000000
143570000.000000,76995000.000000
143665671.000000,76975970.000000
143746777.000000,76921777.000000
143800970.000000,76840671.000000
143820000.000000,76745000.000000
143820000.000000,75795000.000000
143800970.000000,75699329.000000
143746777.000000,75618223.000000
143665671.000000,75564030.000000
143570000.000000,75545000.000000
143070000.000000,75545000.000000
142974329.000000,75564030.000000
142893223.000000,75618223.000000
142839030.000000,75699329.000000
142820000.000000,75795000.000000
Z" /> 
<path style="fill:#000000; fill-opacity:1.0; 
stroke:#000000; stroke-width:1.000000; stroke-opacity:1; 
stroke-linecap:round; stroke-linejoin:round;fill-rule:evenodd;"
d="M 144720000.000000,76745000.000000
144739030.000000,76840671.000000
144793223.000000,76921777.000000
144874329.000000,76975970.000000
144970000.000000,76995000.000000
145470000.000000,76995000.000000
145565671.000000,76975970.000000
145646777.000000,76921777.000000
145700970.000000,76840671.000000
145720000.000000,76745000.000000
145720000.000000,75795000.000000
145700970.000000,75699329.000000
145646777.000000,75618223.000000
145565671.000000,75564030.000000
145470000.000000,75545000.000000
144970000.000000,75545000.000000
144874329.000000,75564030.000000
144793223.000000,75618223.000000
144739030.000000,75699329.000000
144720000.000000,75795000.000000
Z" /> 
</g>
<g >
</g>
<g >
</g>
<g >
</g>
<g >
</g>
<g >
</g>
<g >
</g>
<g >
</g>
<g >
</g>
<g >
</g>
<g >
</g>
<g >
</g>
<g >
</g>
<g >
</g>
<g >
</g>
<g >
</g>
<g >
</g>
<g >
</g>
<g >
</g>
<g >
</g>
<g >
</g>
<g >
</g>
<g >
</g>
<g >
</g>
<g >
</g>
<g >
</g>
<g >
</g>
<g >
</g>
<g >
</g>
<g >
</g>
<g >
</g>
<g >
</g>
<g >
</g>
<g >
</g>
<g >
</g>
<g >
</g>
<g >
</g>
<g >
</g>
<g >
</g>
<g >
</g>
<g >
</g>
<g >
</g>
<g >
</g>
<g >
</g>
<g >
</g>
<g >
</g>
<g >
</g>
</g> 
</svg>
