<?xml version="1.0" standalone="no"?>
 <!DOCTYPE svg PUBLIC "-//W3C//DTD SVG 1.1//EN" 
 "http://www.w3.org/Graphics/SVG/1.1/DTD/svg11.dtd"> 
<svg
  xmlns:svg="http://www.w3.org/2000/svg"
  xmlns="http://www.w3.org/2000/svg"
  xmlns:xlink="http://www.w3.org/1999/xlink"
  version="1.1"
  width="29.700220cm" height="21.000720cm" viewBox="0 0 297002200 210007200">
<title>SVG Picture created as OpenHVPS-5-B_Paste.svg date 2021/04/25 21:02:59 </title>
  <desc>Picture generated by PCBNEW </desc>
<g style="fill:#000000; fill-opacity:1.000000;stroke:#000000; stroke-opacity:1.000000;
stroke-linecap:round; stroke-linejoin:round;"
 transform="translate(0 0) scale(1 1)">
</g>
<g style="fill:#000000; fill-opacity:0.0; 
stroke:#000000; stroke-width:0.000000; stroke-opacity:1; 
stroke-linecap:round; stroke-linejoin:round;">
<g >
</g>
<g >
</g>
<g >
</g>
<g >
</g>
<g >
</g>
<g >
</g>
<g >
</g>
<g >
</g>
<g >
</g>
<g >
</g>
<g >
</g>
<g >
</g>
<g >
</g>
<g >
</g>
<g >
</g>
<g >
</g>
<g >
</g>
<g >
</g>
<g >
</g>
<g >
</g>
<g >
</g>
<g >
</g>
<g >
</g>
<g >
</g>
<g >
</g>
<g >
</g>
<g >
</g>
<g >
</g>
<g >
</g>
<g >
</g>
<g >
</g>
<g >
</g>
<g >
</g>
<g >
</g>
<g >
</g>
<g >
</g>
<g >
</g>
<g >
</g>
<g >
</g>
<g >
</g>
<g >
</g>
<g >
</g>
<g >
</g>
<g >
</g>
<g >
</g>
<g >
</g>
<g >
</g>
<g >
</g>
<g >
</g>
<g style="fill:#000000; fill-opacity:0.0; 
stroke:#000000; stroke-width:0.000000; stroke-opacity:1; 
stroke-linecap:round; stroke-linejoin:round;">
</g>
<g style="fill:#000000; fill-opacity:0.0; 
stroke:#000000; stroke-width:1.000000; stroke-opacity:1; 
stroke-linecap:round; stroke-linejoin:round;">
</g>
<g style="fill:#000000; fill-opacity:1.0; 
stroke:#000000; stroke-width:1.000000; stroke-opacity:1; 
stroke-linecap:round; stroke-linejoin:round;">
<path style="fill:#000000; fill-opacity:1.0; 
stroke:#000000; stroke-width:1.000000; stroke-opacity:1; 
stroke-linecap:round; stroke-linejoin:round;fill-rule:evenodd;"
d="M 140283000.000000,75253000.000000
140302030.000000,75348671.000000
140356223.000000,75429777.000000
140437329.000000,75483970.000000
140533000.000000,75503000.000000
141058000.000000,75503000.000000
141153671.000000,75483970.000000
141234777.000000,75429777.000000
141288970.000000,75348671.000000
141308000.000000,75253000.000000
141308000.000000,74353000.000000
141288970.000000,74257329.000000
141234777.000000,74176223.000000
141153671.000000,74122030.000000
141058000.000000,74103000.000000
140533000.000000,74103000.000000
140437329.000000,74122030.000000
140356223.000000,74176223.000000
140302030.000000,74257329.000000
140283000.000000,74353000.000000
Z" /> 
<path style="fill:#000000; fill-opacity:1.0; 
stroke:#000000; stroke-width:1.000000; stroke-opacity:1; 
stroke-linecap:round; stroke-linejoin:round;fill-rule:evenodd;"
d="M 142108000.000000,75253000.000000
142127030.000000,75348671.000000
142181223.000000,75429777.000000
142262329.000000,75483970.000000
142358000.000000,75503000.000000
142883000.000000,75503000.000000
142978671.000000,75483970.000000
143059777.000000,75429777.000000
143113970.000000,75348671.000000
143133000.000000,75253000.000000
143133000.000000,74353000.000000
143113970.000000,74257329.000000
143059777.000000,74176223.000000
142978671.000000,74122030.000000
142883000.000000,74103000.000000
142358000.000000,74103000.000000
142262329.000000,74122030.000000
142181223.000000,74176223.000000
142127030.000000,74257329.000000
142108000.000000,74353000.000000
Z" /> 
</g>
<g >
</g>
<g >
</g>
<g style="fill:#000000; fill-opacity:1.0; 
stroke:#000000; stroke-width:1.000000; stroke-opacity:1; 
stroke-linecap:round; stroke-linejoin:round;">
<path style="fill:#000000; fill-opacity:1.0; 
stroke:#000000; stroke-width:1.000000; stroke-opacity:1; 
stroke-linecap:round; stroke-linejoin:round;fill-rule:evenodd;"
d="M 140283000.000000,73221000.000000
140302030.000000,73316671.000000
140356223.000000,73397777.000000
140437329.000000,73451970.000000
140533000.000000,73471000.000000
141058000.000000,73471000.000000
141153671.000000,73451970.000000
141234777.000000,73397777.000000
141288970.000000,73316671.000000
141308000.000000,73221000.000000
141308000.000000,72321000.000000
141288970.000000,72225329.000000
141234777.000000,72144223.000000
141153671.000000,72090030.000000
141058000.000000,72071000.000000
140533000.000000,72071000.000000
140437329.000000,72090030.000000
140356223.000000,72144223.000000
140302030.000000,72225329.000000
140283000.000000,72321000.000000
Z" /> 
<path style="fill:#000000; fill-opacity:1.0; 
stroke:#000000; stroke-width:1.000000; stroke-opacity:1; 
stroke-linecap:round; stroke-linejoin:round;fill-rule:evenodd;"
d="M 142108000.000000,73221000.000000
142127030.000000,73316671.000000
142181223.000000,73397777.000000
142262329.000000,73451970.000000
142358000.000000,73471000.000000
142883000.000000,73471000.000000
142978671.000000,73451970.000000
143059777.000000,73397777.000000
143113970.000000,73316671.000000
143133000.000000,73221000.000000
143133000.000000,72321000.000000
143113970.000000,72225329.000000
143059777.000000,72144223.000000
142978671.000000,72090030.000000
142883000.000000,72071000.000000
142358000.000000,72071000.000000
142262329.000000,72090030.000000
142181223.000000,72144223.000000
142127030.000000,72225329.000000
142108000.000000,72321000.000000
Z" /> 
</g>
<g >
</g>
<g style="fill:#000000; fill-opacity:1.0; 
stroke:#000000; stroke-width:1.000000; stroke-opacity:1; 
stroke-linecap:round; stroke-linejoin:round;">
<path style="fill:#000000; fill-opacity:1.0; 
stroke:#000000; stroke-width:1.000000; stroke-opacity:1; 
stroke-linecap:round; stroke-linejoin:round;fill-rule:evenodd;"
d="M 154945000.000000,71670000.000000
154933582.000000,71612597.000000
154901066.000000,71563934.000000
154852403.000000,71531418.000000
154795000.000000,71520000.000000
153620000.000000,71520000.000000
153562597.000000,71531418.000000
153513934.000000,71563934.000000
153481418.000000,71612597.000000
153470000.000000,71670000.000000
153470000.000000,71970000.000000
153481418.000000,72027403.000000
153513934.000000,72076066.000000
153562597.000000,72108582.000000
153620000.000000,72120000.000000
154795000.000000,72120000.000000
154852403.000000,72108582.000000
154901066.000000,72076066.000000
154933582.000000,72027403.000000
154945000.000000,71970000.000000
Z" /> 
<path style="fill:#000000; fill-opacity:1.0; 
stroke:#000000; stroke-width:1.000000; stroke-opacity:1; 
stroke-linecap:round; stroke-linejoin:round;fill-rule:evenodd;"
d="M 154945000.000000,73570000.000000
154933582.000000,73512597.000000
154901066.000000,73463934.000000
154852403.000000,73431418.000000
154795000.000000,73420000.000000
153620000.000000,73420000.000000
153562597.000000,73431418.000000
153513934.000000,73463934.000000
153481418.000000,73512597.000000
153470000.000000,73570000.000000
153470000.000000,73870000.000000
153481418.000000,73927403.000000
153513934.000000,73976066.000000
153562597.000000,74008582.000000
153620000.000000,74020000.000000
154795000.000000,74020000.000000
154852403.000000,74008582.000000
154901066.000000,73976066.000000
154933582.000000,73927403.000000
154945000.000000,73870000.000000
Z" /> 
<path style="fill:#000000; fill-opacity:1.0; 
stroke:#000000; stroke-width:1.000000; stroke-opacity:1; 
stroke-linecap:round; stroke-linejoin:round;fill-rule:evenodd;"
d="M 153070000.000000,72620000.000000
153058582.000000,72562597.000000
153026066.000000,72513934.000000
152977403.000000,72481418.000000
152920000.000000,72470000.000000
151745000.000000,72470000.000000
151687597.000000,72481418.000000
151638934.000000,72513934.000000
151606418.000000,72562597.000000
151595000.000000,72620000.000000
151595000.000000,72920000.000000
151606418.000000,72977403.000000
151638934.000000,73026066.000000
151687597.000000,73058582.000000
151745000.000000,73070000.000000
152920000.000000,73070000.000000
152977403.000000,73058582.000000
153026066.000000,73026066.000000
153058582.000000,72977403.000000
153070000.000000,72920000.000000
Z" /> 
</g>
<g >
</g>
<g >
</g>
<g style="fill:#000000; fill-opacity:1.0; 
stroke:#000000; stroke-width:1.000000; stroke-opacity:1; 
stroke-linecap:round; stroke-linejoin:round;">
<path style="fill:#000000; fill-opacity:1.0; 
stroke:#000000; stroke-width:1.000000; stroke-opacity:1; 
stroke-linecap:round; stroke-linejoin:round;fill-rule:evenodd;"
d="M 145225000.000000,57815000.000000
145205970.000000,57719329.000000
145151777.000000,57638223.000000
145070671.000000,57584030.000000
144975000.000000,57565000.000000
144450000.000000,57565000.000000
144354329.000000,57584030.000000
144273223.000000,57638223.000000
144219030.000000,57719329.000000
144200000.000000,57815000.000000
144200000.000000,58715000.000000
144219030.000000,58810671.000000
144273223.000000,58891777.000000
144354329.000000,58945970.000000
144450000.000000,58965000.000000
144975000.000000,58965000.000000
145070671.000000,58945970.000000
145151777.000000,58891777.000000
145205970.000000,58810671.000000
145225000.000000,58715000.000000
Z" /> 
<path style="fill:#000000; fill-opacity:1.0; 
stroke:#000000; stroke-width:1.000000; stroke-opacity:1; 
stroke-linecap:round; stroke-linejoin:round;fill-rule:evenodd;"
d="M 143400000.000000,57815000.000000
143380970.000000,57719329.000000
143326777.000000,57638223.000000
143245671.000000,57584030.000000
143150000.000000,57565000.000000
142625000.000000,57565000.000000
142529329.000000,57584030.000000
142448223.000000,57638223.000000
142394030.000000,57719329.000000
142375000.000000,57815000.000000
142375000.000000,58715000.000000
142394030.000000,58810671.000000
142448223.000000,58891777.000000
142529329.000000,58945970.000000
142625000.000000,58965000.000000
143150000.000000,58965000.000000
143245671.000000,58945970.000000
143326777.000000,58891777.000000
143380970.000000,58810671.000000
143400000.000000,58715000.000000
Z" /> 
</g>
<g >
</g>
<g style="fill:#000000; fill-opacity:1.0; 
stroke:#000000; stroke-width:1.000000; stroke-opacity:1; 
stroke-linecap:round; stroke-linejoin:round;">
<path style="fill:#000000; fill-opacity:1.0; 
stroke:#000000; stroke-width:1.000000; stroke-opacity:1; 
stroke-linecap:round; stroke-linejoin:round;fill-rule:evenodd;"
d="M 148050000.000000,76745000.000000
148069030.000000,76840671.000000
148123223.000000,76921777.000000
148204329.000000,76975970.000000
148300000.000000,76995000.000000
148800000.000000,76995000.000000
148895671.000000,76975970.000000
148976777.000000,76921777.000000
149030970.000000,76840671.000000
149050000.000000,76745000.000000
149050000.000000,75795000.000000
149030970.000000,75699329.000000
148976777.000000,75618223.000000
148895671.000000,75564030.000000
148800000.000000,75545000.000000
148300000.000000,75545000.000000
148204329.000000,75564030.000000
148123223.000000,75618223.000000
148069030.000000,75699329.000000
148050000.000000,75795000.000000
Z" /> 
<path style="fill:#000000; fill-opacity:1.0; 
stroke:#000000; stroke-width:1.000000; stroke-opacity:1; 
stroke-linecap:round; stroke-linejoin:round;fill-rule:evenodd;"
d="M 149950000.000000,76745000.000000
149969030.000000,76840671.000000
150023223.000000,76921777.000000
150104329.000000,76975970.000000
150200000.000000,76995000.000000
150700000.000000,76995000.000000
150795671.000000,76975970.000000
150876777.000000,76921777.000000
150930970.000000,76840671.000000
150950000.000000,76745000.000000
150950000.000000,75795000.000000
150930970.000000,75699329.000000
150876777.000000,75618223.000000
150795671.000000,75564030.000000
150700000.000000,75545000.000000
150200000.000000,75545000.000000
150104329.000000,75564030.000000
150023223.000000,75618223.000000
149969030.000000,75699329.000000
149950000.000000,75795000.000000
Z" /> 
</g>
<g >
</g>
<g style="fill:#000000; fill-opacity:1.0; 
stroke:#000000; stroke-width:1.000000; stroke-opacity:1; 
stroke-linecap:round; stroke-linejoin:round;">
<path style="fill:#000000; fill-opacity:1.0; 
stroke:#000000; stroke-width:1.000000; stroke-opacity:1; 
stroke-linecap:round; stroke-linejoin:round;fill-rule:evenodd;"
d="M 129045000.000000,58570000.000000
128949329.000000,58589030.000000
128868223.000000,58643223.000000
128814030.000000,58724329.000000
128795000.000000,58820000.000000
128795000.000000,59320000.000000
128814030.000000,59415671.000000
128868223.000000,59496777.000000
128949329.000000,59550970.000000
129045000.000000,59570000.000000
129995000.000000,59570000.000000
130090671.000000,59550970.000000
130171777.000000,59496777.000000
130225970.000000,59415671.000000
130245000.000000,59320000.000000
130245000.000000,58820000.000000
130225970.000000,58724329.000000
130171777.000000,58643223.000000
130090671.000000,58589030.000000
129995000.000000,58570000.000000
Z" /> 
<path style="fill:#000000; fill-opacity:1.0; 
stroke:#000000; stroke-width:1.000000; stroke-opacity:1; 
stroke-linecap:round; stroke-linejoin:round;fill-rule:evenodd;"
d="M 129045000.000000,60470000.000000
128949329.000000,60489030.000000
128868223.000000,60543223.000000
128814030.000000,60624329.000000
128795000.000000,60720000.000000
128795000.000000,61220000.000000
128814030.000000,61315671.000000
128868223.000000,61396777.000000
128949329.000000,61450970.000000
129045000.000000,61470000.000000
129995000.000000,61470000.000000
130090671.000000,61450970.000000
130171777.000000,61396777.000000
130225970.000000,61315671.000000
130245000.000000,61220000.000000
130245000.000000,60720000.000000
130225970.000000,60624329.000000
130171777.000000,60543223.000000
130090671.000000,60489030.000000
129995000.000000,60470000.000000
Z" /> 
</g>
<g >
</g>
<g >
</g>
<g style="fill:#000000; fill-opacity:1.0; 
stroke:#000000; stroke-width:1.000000; stroke-opacity:1; 
stroke-linecap:round; stroke-linejoin:round;">
<path style="fill:#000000; fill-opacity:1.0; 
stroke:#000000; stroke-width:1.000000; stroke-opacity:1; 
stroke-linecap:round; stroke-linejoin:round;fill-rule:evenodd;"
d="M 154370000.000000,70495000.000000
154389030.000000,70590671.000000
154443223.000000,70671777.000000
154524329.000000,70725970.000000
154620000.000000,70745000.000000
155120000.000000,70745000.000000
155215671.000000,70725970.000000
155296777.000000,70671777.000000
155350970.000000,70590671.000000
155370000.000000,70495000.000000
155370000.000000,69545000.000000
155350970.000000,69449329.000000
155296777.000000,69368223.000000
155215671.000000,69314030.000000
155120000.000000,69295000.000000
154620000.000000,69295000.000000
154524329.000000,69314030.000000
154443223.000000,69368223.000000
154389030.000000,69449329.000000
154370000.000000,69545000.000000
Z" /> 
<path style="fill:#000000; fill-opacity:1.0; 
stroke:#000000; stroke-width:1.000000; stroke-opacity:1; 
stroke-linecap:round; stroke-linejoin:round;fill-rule:evenodd;"
d="M 156270000.000000,70495000.000000
156289030.000000,70590671.000000
156343223.000000,70671777.000000
156424329.000000,70725970.000000
156520000.000000,70745000.000000
157020000.000000,70745000.000000
157115671.000000,70725970.000000
157196777.000000,70671777.000000
157250970.000000,70590671.000000
157270000.000000,70495000.000000
157270000.000000,69545000.000000
157250970.000000,69449329.000000
157196777.000000,69368223.000000
157115671.000000,69314030.000000
157020000.000000,69295000.000000
156520000.000000,69295000.000000
156424329.000000,69314030.000000
156343223.000000,69368223.000000
156289030.000000,69449329.000000
156270000.000000,69545000.000000
Z" /> 
</g>
<g >
</g>
<g style="fill:#000000; fill-opacity:1.0; 
stroke:#000000; stroke-width:1.000000; stroke-opacity:1; 
stroke-linecap:round; stroke-linejoin:round;">
<path style="fill:#000000; fill-opacity:1.0; 
stroke:#000000; stroke-width:1.000000; stroke-opacity:1; 
stroke-linecap:round; stroke-linejoin:round;fill-rule:evenodd;"
d="M 141970000.000000,71445000.000000
142065671.000000,71425970.000000
142146777.000000,71371777.000000
142200970.000000,71290671.000000
142220000.000000,71195000.000000
142220000.000000,70670000.000000
142200970.000000,70574329.000000
142146777.000000,70493223.000000
142065671.000000,70439030.000000
141970000.000000,70420000.000000
141070000.000000,70420000.000000
140974329.000000,70439030.000000
140893223.000000,70493223.000000
140839030.000000,70574329.000000
140820000.000000,70670000.000000
140820000.000000,71195000.000000
140839030.000000,71290671.000000
140893223.000000,71371777.000000
140974329.000000,71425970.000000
141070000.000000,71445000.000000
Z" /> 
<path style="fill:#000000; fill-opacity:1.0; 
stroke:#000000; stroke-width:1.000000; stroke-opacity:1; 
stroke-linecap:round; stroke-linejoin:round;fill-rule:evenodd;"
d="M 141970000.000000,69620000.000000
142065671.000000,69600970.000000
142146777.000000,69546777.000000
142200970.000000,69465671.000000
142220000.000000,69370000.000000
142220000.000000,68845000.000000
142200970.000000,68749329.000000
142146777.000000,68668223.000000
142065671.000000,68614030.000000
141970000.000000,68595000.000000
141070000.000000,68595000.000000
140974329.000000,68614030.000000
140893223.000000,68668223.000000
140839030.000000,68749329.000000
140820000.000000,68845000.000000
140820000.000000,69370000.000000
140839030.000000,69465671.000000
140893223.000000,69546777.000000
140974329.000000,69600970.000000
141070000.000000,69620000.000000
Z" /> 
</g>
<g >
</g>
<g style="fill:#000000; fill-opacity:1.0; 
stroke:#000000; stroke-width:1.000000; stroke-opacity:1; 
stroke-linecap:round; stroke-linejoin:round;">
<path style="fill:#000000; fill-opacity:1.0; 
stroke:#000000; stroke-width:1.000000; stroke-opacity:1; 
stroke-linecap:round; stroke-linejoin:round;fill-rule:evenodd;"
d="M 144052000.000000,74095000.000000
143956329.000000,74114030.000000
143875223.000000,74168223.000000
143821030.000000,74249329.000000
143802000.000000,74345000.000000
143802000.000000,74870000.000000
143821030.000000,74965671.000000
143875223.000000,75046777.000000
143956329.000000,75100970.000000
144052000.000000,75120000.000000
144952000.000000,75120000.000000
145047671.000000,75100970.000000
145128777.000000,75046777.000000
145182970.000000,74965671.000000
145202000.000000,74870000.000000
145202000.000000,74345000.000000
145182970.000000,74249329.000000
145128777.000000,74168223.000000
145047671.000000,74114030.000000
144952000.000000,74095000.000000
Z" /> 
<path style="fill:#000000; fill-opacity:1.0; 
stroke:#000000; stroke-width:1.000000; stroke-opacity:1; 
stroke-linecap:round; stroke-linejoin:round;fill-rule:evenodd;"
d="M 144052000.000000,75920000.000000
143956329.000000,75939030.000000
143875223.000000,75993223.000000
143821030.000000,76074329.000000
143802000.000000,76170000.000000
143802000.000000,76695000.000000
143821030.000000,76790671.000000
143875223.000000,76871777.000000
143956329.000000,76925970.000000
144052000.000000,76945000.000000
144952000.000000,76945000.000000
145047671.000000,76925970.000000
145128777.000000,76871777.000000
145182970.000000,76790671.000000
145202000.000000,76695000.000000
145202000.000000,76170000.000000
145182970.000000,76074329.000000
145128777.000000,75993223.000000
145047671.000000,75939030.000000
144952000.000000,75920000.000000
Z" /> 
</g>
<g >
</g>
<g style="fill:#000000; fill-opacity:1.0; 
stroke:#000000; stroke-width:1.000000; stroke-opacity:1; 
stroke-linecap:round; stroke-linejoin:round;">
<path style="fill:#000000; fill-opacity:1.0; 
stroke:#000000; stroke-width:1.000000; stroke-opacity:1; 
stroke-linecap:round; stroke-linejoin:round;fill-rule:evenodd;"
d="M 134295001.000000,66870001.000000
134744999.000000,66870001.000000
134744999.000000,67469999.000000
134295001.000000,67469999.000000
Z" /> 
<path style="fill:#000000; fill-opacity:1.0; 
stroke:#000000; stroke-width:1.000000; stroke-opacity:1; 
stroke-linecap:round; stroke-linejoin:round;fill-rule:evenodd;"
d="M 134295001.000000,68970001.000000
134744999.000000,68970001.000000
134744999.000000,69569999.000000
134295001.000000,69569999.000000
Z" /> 
</g>
<g >
</g>
<g style="fill:#000000; fill-opacity:1.0; 
stroke:#000000; stroke-width:1.000000; stroke-opacity:1; 
stroke-linecap:round; stroke-linejoin:round;">
<path style="fill:#000000; fill-opacity:1.0; 
stroke:#000000; stroke-width:1.000000; stroke-opacity:1; 
stroke-linecap:round; stroke-linejoin:round;fill-rule:evenodd;"
d="M 127070000.000000,58595000.000000
126974329.000000,58614030.000000
126893223.000000,58668223.000000
126839030.000000,58749329.000000
126820000.000000,58845000.000000
126820000.000000,59370000.000000
126839030.000000,59465671.000000
126893223.000000,59546777.000000
126974329.000000,59600970.000000
127070000.000000,59620000.000000
127970000.000000,59620000.000000
128065671.000000,59600970.000000
128146777.000000,59546777.000000
128200970.000000,59465671.000000
128220000.000000,59370000.000000
128220000.000000,58845000.000000
128200970.000000,58749329.000000
128146777.000000,58668223.000000
128065671.000000,58614030.000000
127970000.000000,58595000.000000
Z" /> 
<path style="fill:#000000; fill-opacity:1.0; 
stroke:#000000; stroke-width:1.000000; stroke-opacity:1; 
stroke-linecap:round; stroke-linejoin:round;fill-rule:evenodd;"
d="M 127070000.000000,60420000.000000
126974329.000000,60439030.000000
126893223.000000,60493223.000000
126839030.000000,60574329.000000
126820000.000000,60670000.000000
126820000.000000,61195000.000000
126839030.000000,61290671.000000
126893223.000000,61371777.000000
126974329.000000,61425970.000000
127070000.000000,61445000.000000
127970000.000000,61445000.000000
128065671.000000,61425970.000000
128146777.000000,61371777.000000
128200970.000000,61290671.000000
128220000.000000,61195000.000000
128220000.000000,60670000.000000
128200970.000000,60574329.000000
128146777.000000,60493223.000000
128065671.000000,60439030.000000
127970000.000000,60420000.000000
Z" /> 
</g>
<g >
</g>
<g style="fill:#000000; fill-opacity:1.0; 
stroke:#000000; stroke-width:1.000000; stroke-opacity:1; 
stroke-linecap:round; stroke-linejoin:round;">
<path style="fill:#000000; fill-opacity:1.0; 
stroke:#000000; stroke-width:1.000000; stroke-opacity:1; 
stroke-linecap:round; stroke-linejoin:round;fill-rule:evenodd;"
d="M 143400000.000000,62065000.000000
143411418.000000,62122403.000000
143443934.000000,62171066.000000
143492597.000000,62203582.000000
143550000.000000,62215000.000000
144575000.000000,62215000.000000
144632403.000000,62203582.000000
144681066.000000,62171066.000000
144713582.000000,62122403.000000
144725000.000000,62065000.000000
144725000.000000,61765000.000000
144713582.000000,61707597.000000
144681066.000000,61658934.000000
144632403.000000,61626418.000000
144575000.000000,61615000.000000
143550000.000000,61615000.000000
143492597.000000,61626418.000000
143443934.000000,61658934.000000
143411418.000000,61707597.000000
143400000.000000,61765000.000000
Z" /> 
<path style="fill:#000000; fill-opacity:1.0; 
stroke:#000000; stroke-width:1.000000; stroke-opacity:1; 
stroke-linecap:round; stroke-linejoin:round;fill-rule:evenodd;"
d="M 143400000.000000,61115000.000000
143411418.000000,61172403.000000
143443934.000000,61221066.000000
143492597.000000,61253582.000000
143550000.000000,61265000.000000
144575000.000000,61265000.000000
144632403.000000,61253582.000000
144681066.000000,61221066.000000
144713582.000000,61172403.000000
144725000.000000,61115000.000000
144725000.000000,60815000.000000
144713582.000000,60757597.000000
144681066.000000,60708934.000000
144632403.000000,60676418.000000
144575000.000000,60665000.000000
143550000.000000,60665000.000000
143492597.000000,60676418.000000
143443934.000000,60708934.000000
143411418.000000,60757597.000000
143400000.000000,60815000.000000
Z" /> 
<path style="fill:#000000; fill-opacity:1.0; 
stroke:#000000; stroke-width:1.000000; stroke-opacity:1; 
stroke-linecap:round; stroke-linejoin:round;fill-rule:evenodd;"
d="M 143400000.000000,60165000.000000
143411418.000000,60222403.000000
143443934.000000,60271066.000000
143492597.000000,60303582.000000
143550000.000000,60315000.000000
144575000.000000,60315000.000000
144632403.000000,60303582.000000
144681066.000000,60271066.000000
144713582.000000,60222403.000000
144725000.000000,60165000.000000
144725000.000000,59865000.000000
144713582.000000,59807597.000000
144681066.000000,59758934.000000
144632403.000000,59726418.000000
144575000.000000,59715000.000000
143550000.000000,59715000.000000
143492597.000000,59726418.000000
143443934.000000,59758934.000000
143411418.000000,59807597.000000
143400000.000000,59865000.000000
Z" /> 
<path style="fill:#000000; fill-opacity:1.0; 
stroke:#000000; stroke-width:1.000000; stroke-opacity:1; 
stroke-linecap:round; stroke-linejoin:round;fill-rule:evenodd;"
d="M 145675000.000000,60165000.000000
145686418.000000,60222403.000000
145718934.000000,60271066.000000
145767597.000000,60303582.000000
145825000.000000,60315000.000000
146850000.000000,60315000.000000
146907403.000000,60303582.000000
146956066.000000,60271066.000000
146988582.000000,60222403.000000
147000000.000000,60165000.000000
147000000.000000,59865000.000000
146988582.000000,59807597.000000
146956066.000000,59758934.000000
146907403.000000,59726418.000000
146850000.000000,59715000.000000
145825000.000000,59715000.000000
145767597.000000,59726418.000000
145718934.000000,59758934.000000
145686418.000000,59807597.000000
145675000.000000,59865000.000000
Z" /> 
<path style="fill:#000000; fill-opacity:1.0; 
stroke:#000000; stroke-width:1.000000; stroke-opacity:1; 
stroke-linecap:round; stroke-linejoin:round;fill-rule:evenodd;"
d="M 145675000.000000,62065000.000000
145686418.000000,62122403.000000
145718934.000000,62171066.000000
145767597.000000,62203582.000000
145825000.000000,62215000.000000
146850000.000000,62215000.000000
146907403.000000,62203582.000000
146956066.000000,62171066.000000
146988582.000000,62122403.000000
147000000.000000,62065000.000000
147000000.000000,61765000.000000
146988582.000000,61707597.000000
146956066.000000,61658934.000000
146907403.000000,61626418.000000
146850000.000000,61615000.000000
145825000.000000,61615000.000000
145767597.000000,61626418.000000
145718934.000000,61658934.000000
145686418.000000,61707597.000000
145675000.000000,61765000.000000
Z" /> 
</g>
<g >
</g>
<g style="fill:#000000; fill-opacity:1.0; 
stroke:#000000; stroke-width:1.000000; stroke-opacity:1; 
stroke-linecap:round; stroke-linejoin:round;">
<path style="fill:#000000; fill-opacity:1.0; 
stroke:#000000; stroke-width:1.000000; stroke-opacity:1; 
stroke-linecap:round; stroke-linejoin:round;fill-rule:evenodd;"
d="M 146059000.000000,74115000.000000
145963329.000000,74134030.000000
145882223.000000,74188223.000000
145828030.000000,74269329.000000
145809000.000000,74365000.000000
145809000.000000,74865000.000000
145828030.000000,74960671.000000
145882223.000000,75041777.000000
145963329.000000,75095970.000000
146059000.000000,75115000.000000
147009000.000000,75115000.000000
147104671.000000,75095970.000000
147185777.000000,75041777.000000
147239970.000000,74960671.000000
147259000.000000,74865000.000000
147259000.000000,74365000.000000
147239970.000000,74269329.000000
147185777.000000,74188223.000000
147104671.000000,74134030.000000
147009000.000000,74115000.000000
Z" /> 
<path style="fill:#000000; fill-opacity:1.0; 
stroke:#000000; stroke-width:1.000000; stroke-opacity:1; 
stroke-linecap:round; stroke-linejoin:round;fill-rule:evenodd;"
d="M 146059000.000000,76015000.000000
145963329.000000,76034030.000000
145882223.000000,76088223.000000
145828030.000000,76169329.000000
145809000.000000,76265000.000000
145809000.000000,76765000.000000
145828030.000000,76860671.000000
145882223.000000,76941777.000000
145963329.000000,76995970.000000
146059000.000000,77015000.000000
147009000.000000,77015000.000000
147104671.000000,76995970.000000
147185777.000000,76941777.000000
147239970.000000,76860671.000000
147259000.000000,76765000.000000
147259000.000000,76265000.000000
147239970.000000,76169329.000000
147185777.000000,76088223.000000
147104671.000000,76034030.000000
147009000.000000,76015000.000000
Z" /> 
</g>
<g >
</g>
<g style="fill:#000000; fill-opacity:1.0; 
stroke:#000000; stroke-width:1.000000; stroke-opacity:1; 
stroke-linecap:round; stroke-linejoin:round;">
<path style="fill:#000000; fill-opacity:1.0; 
stroke:#000000; stroke-width:1.000000; stroke-opacity:1; 
stroke-linecap:round; stroke-linejoin:round;fill-rule:evenodd;"
d="M 155525000.000000,76620000.000000
155536418.000000,76677403.000000
155568934.000000,76726066.000000
155617597.000000,76758582.000000
155675000.000000,76770000.000000
156850000.000000,76770000.000000
156907403.000000,76758582.000000
156956066.000000,76726066.000000
156988582.000000,76677403.000000
157000000.000000,76620000.000000
157000000.000000,76320000.000000
156988582.000000,76262597.000000
156956066.000000,76213934.000000
156907403.000000,76181418.000000
156850000.000000,76170000.000000
155675000.000000,76170000.000000
155617597.000000,76181418.000000
155568934.000000,76213934.000000
155536418.000000,76262597.000000
155525000.000000,76320000.000000
Z" /> 
<path style="fill:#000000; fill-opacity:1.0; 
stroke:#000000; stroke-width:1.000000; stroke-opacity:1; 
stroke-linecap:round; stroke-linejoin:round;fill-rule:evenodd;"
d="M 155525000.000000,74720000.000000
155536418.000000,74777403.000000
155568934.000000,74826066.000000
155617597.000000,74858582.000000
155675000.000000,74870000.000000
156850000.000000,74870000.000000
156907403.000000,74858582.000000
156956066.000000,74826066.000000
156988582.000000,74777403.000000
157000000.000000,74720000.000000
157000000.000000,74420000.000000
156988582.000000,74362597.000000
156956066.000000,74313934.000000
156907403.000000,74281418.000000
156850000.000000,74270000.000000
155675000.000000,74270000.000000
155617597.000000,74281418.000000
155568934.000000,74313934.000000
155536418.000000,74362597.000000
155525000.000000,74420000.000000
Z" /> 
<path style="fill:#000000; fill-opacity:1.0; 
stroke:#000000; stroke-width:1.000000; stroke-opacity:1; 
stroke-linecap:round; stroke-linejoin:round;fill-rule:evenodd;"
d="M 157400000.000000,75670000.000000
157411418.000000,75727403.000000
157443934.000000,75776066.000000
157492597.000000,75808582.000000
157550000.000000,75820000.000000
158725000.000000,75820000.000000
158782403.000000,75808582.000000
158831066.000000,75776066.000000
158863582.000000,75727403.000000
158875000.000000,75670000.000000
158875000.000000,75370000.000000
158863582.000000,75312597.000000
158831066.000000,75263934.000000
158782403.000000,75231418.000000
158725000.000000,75220000.000000
157550000.000000,75220000.000000
157492597.000000,75231418.000000
157443934.000000,75263934.000000
157411418.000000,75312597.000000
157400000.000000,75370000.000000
Z" /> 
</g>
<g >
</g>
<g style="fill:#000000; fill-opacity:1.0; 
stroke:#000000; stroke-width:1.000000; stroke-opacity:1; 
stroke-linecap:round; stroke-linejoin:round;">
<path style="fill:#000000; fill-opacity:1.0; 
stroke:#000000; stroke-width:1.000000; stroke-opacity:1; 
stroke-linecap:round; stroke-linejoin:round;fill-rule:evenodd;"
d="M 145875000.000000,67474000.000000
145894030.000000,67569671.000000
145948223.000000,67650777.000000
146029329.000000,67704970.000000
146125000.000000,67724000.000000
146650000.000000,67724000.000000
146745671.000000,67704970.000000
146826777.000000,67650777.000000
146880970.000000,67569671.000000
146900000.000000,67474000.000000
146900000.000000,66574000.000000
146880970.000000,66478329.000000
146826777.000000,66397223.000000
146745671.000000,66343030.000000
146650000.000000,66324000.000000
146125000.000000,66324000.000000
146029329.000000,66343030.000000
145948223.000000,66397223.000000
145894030.000000,66478329.000000
145875000.000000,66574000.000000
Z" /> 
<path style="fill:#000000; fill-opacity:1.0; 
stroke:#000000; stroke-width:1.000000; stroke-opacity:1; 
stroke-linecap:round; stroke-linejoin:round;fill-rule:evenodd;"
d="M 147700000.000000,67474000.000000
147719030.000000,67569671.000000
147773223.000000,67650777.000000
147854329.000000,67704970.000000
147950000.000000,67724000.000000
148475000.000000,67724000.000000
148570671.000000,67704970.000000
148651777.000000,67650777.000000
148705970.000000,67569671.000000
148725000.000000,67474000.000000
148725000.000000,66574000.000000
148705970.000000,66478329.000000
148651777.000000,66397223.000000
148570671.000000,66343030.000000
148475000.000000,66324000.000000
147950000.000000,66324000.000000
147854329.000000,66343030.000000
147773223.000000,66397223.000000
147719030.000000,66478329.000000
147700000.000000,66574000.000000
Z" /> 
</g>
<g >
</g>
<g style="fill:#000000; fill-opacity:1.0; 
stroke:#000000; stroke-width:1.000000; stroke-opacity:1; 
stroke-linecap:round; stroke-linejoin:round;">
<path style="fill:#000000; fill-opacity:1.0; 
stroke:#000000; stroke-width:1.000000; stroke-opacity:1; 
stroke-linecap:round; stroke-linejoin:round;fill-rule:evenodd;"
d="M 150620000.000000,74695000.000000
150677403.000000,74683582.000000
150726066.000000,74651066.000000
150758582.000000,74602403.000000
150770000.000000,74545000.000000
150770000.000000,73370000.000000
150758582.000000,73312597.000000
150726066.000000,73263934.000000
150677403.000000,73231418.000000
150620000.000000,73220000.000000
150320000.000000,73220000.000000
150262597.000000,73231418.000000
150213934.000000,73263934.000000
150181418.000000,73312597.000000
150170000.000000,73370000.000000
150170000.000000,74545000.000000
150181418.000000,74602403.000000
150213934.000000,74651066.000000
150262597.000000,74683582.000000
150320000.000000,74695000.000000
Z" /> 
<path style="fill:#000000; fill-opacity:1.0; 
stroke:#000000; stroke-width:1.000000; stroke-opacity:1; 
stroke-linecap:round; stroke-linejoin:round;fill-rule:evenodd;"
d="M 148720000.000000,74695000.000000
148777403.000000,74683582.000000
148826066.000000,74651066.000000
148858582.000000,74602403.000000
148870000.000000,74545000.000000
148870000.000000,73370000.000000
148858582.000000,73312597.000000
148826066.000000,73263934.000000
148777403.000000,73231418.000000
148720000.000000,73220000.000000
148420000.000000,73220000.000000
148362597.000000,73231418.000000
148313934.000000,73263934.000000
148281418.000000,73312597.000000
148270000.000000,73370000.000000
148270000.000000,74545000.000000
148281418.000000,74602403.000000
148313934.000000,74651066.000000
148362597.000000,74683582.000000
148420000.000000,74695000.000000
Z" /> 
<path style="fill:#000000; fill-opacity:1.0; 
stroke:#000000; stroke-width:1.000000; stroke-opacity:1; 
stroke-linecap:round; stroke-linejoin:round;fill-rule:evenodd;"
d="M 149670000.000000,72820000.000000
149727403.000000,72808582.000000
149776066.000000,72776066.000000
149808582.000000,72727403.000000
149820000.000000,72670000.000000
149820000.000000,71495000.000000
149808582.000000,71437597.000000
149776066.000000,71388934.000000
149727403.000000,71356418.000000
149670000.000000,71345000.000000
149370000.000000,71345000.000000
149312597.000000,71356418.000000
149263934.000000,71388934.000000
149231418.000000,71437597.000000
149220000.000000,71495000.000000
149220000.000000,72670000.000000
149231418.000000,72727403.000000
149263934.000000,72776066.000000
149312597.000000,72808582.000000
149370000.000000,72820000.000000
Z" /> 
</g>
<g >
</g>
<g >
</g>
<g >
</g>
<g style="fill:#000000; fill-opacity:1.0; 
stroke:#000000; stroke-width:1.000000; stroke-opacity:1; 
stroke-linecap:round; stroke-linejoin:round;">
<path style="fill:#000000; fill-opacity:1.0; 
stroke:#000000; stroke-width:1.000000; stroke-opacity:1; 
stroke-linecap:round; stroke-linejoin:round;fill-rule:evenodd;"
d="M 148625000.000000,57815000.000000
148605970.000000,57719329.000000
148551777.000000,57638223.000000
148470671.000000,57584030.000000
148375000.000000,57565000.000000
147850000.000000,57565000.000000
147754329.000000,57584030.000000
147673223.000000,57638223.000000
147619030.000000,57719329.000000
147600000.000000,57815000.000000
147600000.000000,58715000.000000
147619030.000000,58810671.000000
147673223.000000,58891777.000000
147754329.000000,58945970.000000
147850000.000000,58965000.000000
148375000.000000,58965000.000000
148470671.000000,58945970.000000
148551777.000000,58891777.000000
148605970.000000,58810671.000000
148625000.000000,58715000.000000
Z" /> 
<path style="fill:#000000; fill-opacity:1.0; 
stroke:#000000; stroke-width:1.000000; stroke-opacity:1; 
stroke-linecap:round; stroke-linejoin:round;fill-rule:evenodd;"
d="M 146800000.000000,57815000.000000
146780970.000000,57719329.000000
146726777.000000,57638223.000000
146645671.000000,57584030.000000
146550000.000000,57565000.000000
146025000.000000,57565000.000000
145929329.000000,57584030.000000
145848223.000000,57638223.000000
145794030.000000,57719329.000000
145775000.000000,57815000.000000
145775000.000000,58715000.000000
145794030.000000,58810671.000000
145848223.000000,58891777.000000
145929329.000000,58945970.000000
146025000.000000,58965000.000000
146550000.000000,58965000.000000
146645671.000000,58945970.000000
146726777.000000,58891777.000000
146780970.000000,58810671.000000
146800000.000000,58715000.000000
Z" /> 
</g>
<g >
</g>
<g style="fill:#000000; fill-opacity:1.0; 
stroke:#000000; stroke-width:1.000000; stroke-opacity:1; 
stroke-linecap:round; stroke-linejoin:round;">
<path style="fill:#000000; fill-opacity:1.0; 
stroke:#000000; stroke-width:1.000000; stroke-opacity:1; 
stroke-linecap:round; stroke-linejoin:round;fill-rule:evenodd;"
d="M 138295000.000000,66820000.000000
138199329.000000,66839030.000000
138118223.000000,66893223.000000
138064030.000000,66974329.000000
138045000.000000,67070000.000000
138045000.000000,67570000.000000
138064030.000000,67665671.000000
138118223.000000,67746777.000000
138199329.000000,67800970.000000
138295000.000000,67820000.000000
139245000.000000,67820000.000000
139340671.000000,67800970.000000
139421777.000000,67746777.000000
139475970.000000,67665671.000000
139495000.000000,67570000.000000
139495000.000000,67070000.000000
139475970.000000,66974329.000000
139421777.000000,66893223.000000
139340671.000000,66839030.000000
139245000.000000,66820000.000000
Z" /> 
<path style="fill:#000000; fill-opacity:1.0; 
stroke:#000000; stroke-width:1.000000; stroke-opacity:1; 
stroke-linecap:round; stroke-linejoin:round;fill-rule:evenodd;"
d="M 138295000.000000,68720000.000000
138199329.000000,68739030.000000
138118223.000000,68793223.000000
138064030.000000,68874329.000000
138045000.000000,68970000.000000
138045000.000000,69470000.000000
138064030.000000,69565671.000000
138118223.000000,69646777.000000
138199329.000000,69700970.000000
138295000.000000,69720000.000000
139245000.000000,69720000.000000
139340671.000000,69700970.000000
139421777.000000,69646777.000000
139475970.000000,69565671.000000
139495000.000000,69470000.000000
139495000.000000,68970000.000000
139475970.000000,68874329.000000
139421777.000000,68793223.000000
139340671.000000,68739030.000000
139245000.000000,68720000.000000
Z" /> 
</g>
<g >
</g>
<g style="fill:#000000; fill-opacity:1.0; 
stroke:#000000; stroke-width:1.000000; stroke-opacity:1; 
stroke-linecap:round; stroke-linejoin:round;">
<path style="fill:#000000; fill-opacity:1.0; 
stroke:#000000; stroke-width:1.000000; stroke-opacity:1; 
stroke-linecap:round; stroke-linejoin:round;fill-rule:evenodd;"
d="M 146887000.000000,69665000.000000
146906030.000000,69760671.000000
146960223.000000,69841777.000000
147041329.000000,69895970.000000
147137000.000000,69915000.000000
147662000.000000,69915000.000000
147757671.000000,69895970.000000
147838777.000000,69841777.000000
147892970.000000,69760671.000000
147912000.000000,69665000.000000
147912000.000000,68765000.000000
147892970.000000,68669329.000000
147838777.000000,68588223.000000
147757671.000000,68534030.000000
147662000.000000,68515000.000000
147137000.000000,68515000.000000
147041329.000000,68534030.000000
146960223.000000,68588223.000000
146906030.000000,68669329.000000
146887000.000000,68765000.000000
Z" /> 
<path style="fill:#000000; fill-opacity:1.0; 
stroke:#000000; stroke-width:1.000000; stroke-opacity:1; 
stroke-linecap:round; stroke-linejoin:round;fill-rule:evenodd;"
d="M 148712000.000000,69665000.000000
148731030.000000,69760671.000000
148785223.000000,69841777.000000
148866329.000000,69895970.000000
148962000.000000,69915000.000000
149487000.000000,69915000.000000
149582671.000000,69895970.000000
149663777.000000,69841777.000000
149717970.000000,69760671.000000
149737000.000000,69665000.000000
149737000.000000,68765000.000000
149717970.000000,68669329.000000
149663777.000000,68588223.000000
149582671.000000,68534030.000000
149487000.000000,68515000.000000
148962000.000000,68515000.000000
148866329.000000,68534030.000000
148785223.000000,68588223.000000
148731030.000000,68669329.000000
148712000.000000,68765000.000000
Z" /> 
</g>
<g >
</g>
<g >
</g>
<g >
</g>
<g >
</g>
<g style="fill:#000000; fill-opacity:1.0; 
stroke:#000000; stroke-width:1.000000; stroke-opacity:1; 
stroke-linecap:round; stroke-linejoin:round;">
<path style="fill:#000000; fill-opacity:1.0; 
stroke:#000000; stroke-width:1.000000; stroke-opacity:1; 
stroke-linecap:round; stroke-linejoin:round;fill-rule:evenodd;"
d="M 139230000.000000,66170000.000000
139287403.000000,66158582.000000
139336066.000000,66126066.000000
139368582.000000,66077403.000000
139380000.000000,66020000.000000
139380000.000000,64370000.000000
139368582.000000,64312597.000000
139336066.000000,64263934.000000
139287403.000000,64231418.000000
139230000.000000,64220000.000000
138930000.000000,64220000.000000
138872597.000000,64231418.000000
138823934.000000,64263934.000000
138791418.000000,64312597.000000
138780000.000000,64370000.000000
138780000.000000,66020000.000000
138791418.000000,66077403.000000
138823934.000000,66126066.000000
138872597.000000,66158582.000000
138930000.000000,66170000.000000
Z" /> 
<path style="fill:#000000; fill-opacity:1.0; 
stroke:#000000; stroke-width:1.000000; stroke-opacity:1; 
stroke-linecap:round; stroke-linejoin:round;fill-rule:evenodd;"
d="M 137960000.000000,66170000.000000
138017403.000000,66158582.000000
138066066.000000,66126066.000000
138098582.000000,66077403.000000
138110000.000000,66020000.000000
138110000.000000,64370000.000000
138098582.000000,64312597.000000
138066066.000000,64263934.000000
138017403.000000,64231418.000000
137960000.000000,64220000.000000
137660000.000000,64220000.000000
137602597.000000,64231418.000000
137553934.000000,64263934.000000
137521418.000000,64312597.000000
137510000.000000,64370000.000000
137510000.000000,66020000.000000
137521418.000000,66077403.000000
137553934.000000,66126066.000000
137602597.000000,66158582.000000
137660000.000000,66170000.000000
Z" /> 
<path style="fill:#000000; fill-opacity:1.0; 
stroke:#000000; stroke-width:1.000000; stroke-opacity:1; 
stroke-linecap:round; stroke-linejoin:round;fill-rule:evenodd;"
d="M 136690000.000000,66170000.000000
136747403.000000,66158582.000000
136796066.000000,66126066.000000
136828582.000000,66077403.000000
136840000.000000,66020000.000000
136840000.000000,64370000.000000
136828582.000000,64312597.000000
136796066.000000,64263934.000000
136747403.000000,64231418.000000
136690000.000000,64220000.000000
136390000.000000,64220000.000000
136332597.000000,64231418.000000
136283934.000000,64263934.000000
136251418.000000,64312597.000000
136240000.000000,64370000.000000
136240000.000000,66020000.000000
136251418.000000,66077403.000000
136283934.000000,66126066.000000
136332597.000000,66158582.000000
136390000.000000,66170000.000000
Z" /> 
<path style="fill:#000000; fill-opacity:1.0; 
stroke:#000000; stroke-width:1.000000; stroke-opacity:1; 
stroke-linecap:round; stroke-linejoin:round;fill-rule:evenodd;"
d="M 135420000.000000,66170000.000000
135477403.000000,66158582.000000
135526066.000000,66126066.000000
135558582.000000,66077403.000000
135570000.000000,66020000.000000
135570000.000000,64370000.000000
135558582.000000,64312597.000000
135526066.000000,64263934.000000
135477403.000000,64231418.000000
135420000.000000,64220000.000000
135120000.000000,64220000.000000
135062597.000000,64231418.000000
135013934.000000,64263934.000000
134981418.000000,64312597.000000
134970000.000000,64370000.000000
134970000.000000,66020000.000000
134981418.000000,66077403.000000
135013934.000000,66126066.000000
135062597.000000,66158582.000000
135120000.000000,66170000.000000
Z" /> 
<path style="fill:#000000; fill-opacity:1.0; 
stroke:#000000; stroke-width:1.000000; stroke-opacity:1; 
stroke-linecap:round; stroke-linejoin:round;fill-rule:evenodd;"
d="M 134150000.000000,66170000.000000
134207403.000000,66158582.000000
134256066.000000,66126066.000000
134288582.000000,66077403.000000
134300000.000000,66020000.000000
134300000.000000,64370000.000000
134288582.000000,64312597.000000
134256066.000000,64263934.000000
134207403.000000,64231418.000000
134150000.000000,64220000.000000
133850000.000000,64220000.000000
133792597.000000,64231418.000000
133743934.000000,64263934.000000
133711418.000000,64312597.000000
133700000.000000,64370000.000000
133700000.000000,66020000.000000
133711418.000000,66077403.000000
133743934.000000,66126066.000000
133792597.000000,66158582.000000
133850000.000000,66170000.000000
Z" /> 
<path style="fill:#000000; fill-opacity:1.0; 
stroke:#000000; stroke-width:1.000000; stroke-opacity:1; 
stroke-linecap:round; stroke-linejoin:round;fill-rule:evenodd;"
d="M 132880000.000000,66170000.000000
132937403.000000,66158582.000000
132986066.000000,66126066.000000
133018582.000000,66077403.000000
133030000.000000,66020000.000000
133030000.000000,64370000.000000
133018582.000000,64312597.000000
132986066.000000,64263934.000000
132937403.000000,64231418.000000
132880000.000000,64220000.000000
132580000.000000,64220000.000000
132522597.000000,64231418.000000
132473934.000000,64263934.000000
132441418.000000,64312597.000000
132430000.000000,64370000.000000
132430000.000000,66020000.000000
132441418.000000,66077403.000000
132473934.000000,66126066.000000
132522597.000000,66158582.000000
132580000.000000,66170000.000000
Z" /> 
<path style="fill:#000000; fill-opacity:1.0; 
stroke:#000000; stroke-width:1.000000; stroke-opacity:1; 
stroke-linecap:round; stroke-linejoin:round;fill-rule:evenodd;"
d="M 131610000.000000,66170000.000000
131667403.000000,66158582.000000
131716066.000000,66126066.000000
131748582.000000,66077403.000000
131760000.000000,66020000.000000
131760000.000000,64370000.000000
131748582.000000,64312597.000000
131716066.000000,64263934.000000
131667403.000000,64231418.000000
131610000.000000,64220000.000000
131310000.000000,64220000.000000
131252597.000000,64231418.000000
131203934.000000,64263934.000000
131171418.000000,64312597.000000
131160000.000000,64370000.000000
131160000.000000,66020000.000000
131171418.000000,66077403.000000
131203934.000000,66126066.000000
131252597.000000,66158582.000000
131310000.000000,66170000.000000
Z" /> 
<path style="fill:#000000; fill-opacity:1.0; 
stroke:#000000; stroke-width:1.000000; stroke-opacity:1; 
stroke-linecap:round; stroke-linejoin:round;fill-rule:evenodd;"
d="M 131610000.000000,61220000.000000
131667403.000000,61208582.000000
131716066.000000,61176066.000000
131748582.000000,61127403.000000
131760000.000000,61070000.000000
131760000.000000,59420000.000000
131748582.000000,59362597.000000
131716066.000000,59313934.000000
131667403.000000,59281418.000000
131610000.000000,59270000.000000
131310000.000000,59270000.000000
131252597.000000,59281418.000000
131203934.000000,59313934.000000
131171418.000000,59362597.000000
131160000.000000,59420000.000000
131160000.000000,61070000.000000
131171418.000000,61127403.000000
131203934.000000,61176066.000000
131252597.000000,61208582.000000
131310000.000000,61220000.000000
Z" /> 
<path style="fill:#000000; fill-opacity:1.0; 
stroke:#000000; stroke-width:1.000000; stroke-opacity:1; 
stroke-linecap:round; stroke-linejoin:round;fill-rule:evenodd;"
d="M 132880000.000000,61220000.000000
132937403.000000,61208582.000000
132986066.000000,61176066.000000
133018582.000000,61127403.000000
133030000.000000,61070000.000000
133030000.000000,59420000.000000
133018582.000000,59362597.000000
132986066.000000,59313934.000000
132937403.000000,59281418.000000
132880000.000000,59270000.000000
132580000.000000,59270000.000000
132522597.000000,59281418.000000
132473934.000000,59313934.000000
132441418.000000,59362597.000000
132430000.000000,59420000.000000
132430000.000000,61070000.000000
132441418.000000,61127403.000000
132473934.000000,61176066.000000
132522597.000000,61208582.000000
132580000.000000,61220000.000000
Z" /> 
<path style="fill:#000000; fill-opacity:1.0; 
stroke:#000000; stroke-width:1.000000; stroke-opacity:1; 
stroke-linecap:round; stroke-linejoin:round;fill-rule:evenodd;"
d="M 134150000.000000,61220000.000000
134207403.000000,61208582.000000
134256066.000000,61176066.000000
134288582.000000,61127403.000000
134300000.000000,61070000.000000
134300000.000000,59420000.000000
134288582.000000,59362597.000000
134256066.000000,59313934.000000
134207403.000000,59281418.000000
134150000.000000,59270000.000000
133850000.000000,59270000.000000
133792597.000000,59281418.000000
133743934.000000,59313934.000000
133711418.000000,59362597.000000
133700000.000000,59420000.000000
133700000.000000,61070000.000000
133711418.000000,61127403.000000
133743934.000000,61176066.000000
133792597.000000,61208582.000000
133850000.000000,61220000.000000
Z" /> 
<path style="fill:#000000; fill-opacity:1.0; 
stroke:#000000; stroke-width:1.000000; stroke-opacity:1; 
stroke-linecap:round; stroke-linejoin:round;fill-rule:evenodd;"
d="M 135420000.000000,61220000.000000
135477403.000000,61208582.000000
135526066.000000,61176066.000000
135558582.000000,61127403.000000
135570000.000000,61070000.000000
135570000.000000,59420000.000000
135558582.000000,59362597.000000
135526066.000000,59313934.000000
135477403.000000,59281418.000000
135420000.000000,59270000.000000
135120000.000000,59270000.000000
135062597.000000,59281418.000000
135013934.000000,59313934.000000
134981418.000000,59362597.000000
134970000.000000,59420000.000000
134970000.000000,61070000.000000
134981418.000000,61127403.000000
135013934.000000,61176066.000000
135062597.000000,61208582.000000
135120000.000000,61220000.000000
Z" /> 
<path style="fill:#000000; fill-opacity:1.0; 
stroke:#000000; stroke-width:1.000000; stroke-opacity:1; 
stroke-linecap:round; stroke-linejoin:round;fill-rule:evenodd;"
d="M 136690000.000000,61220000.000000
136747403.000000,61208582.000000
136796066.000000,61176066.000000
136828582.000000,61127403.000000
136840000.000000,61070000.000000
136840000.000000,59420000.000000
136828582.000000,59362597.000000
136796066.000000,59313934.000000
136747403.000000,59281418.000000
136690000.000000,59270000.000000
136390000.000000,59270000.000000
136332597.000000,59281418.000000
136283934.000000,59313934.000000
136251418.000000,59362597.000000
136240000.000000,59420000.000000
136240000.000000,61070000.000000
136251418.000000,61127403.000000
136283934.000000,61176066.000000
136332597.000000,61208582.000000
136390000.000000,61220000.000000
Z" /> 
<path style="fill:#000000; fill-opacity:1.0; 
stroke:#000000; stroke-width:1.000000; stroke-opacity:1; 
stroke-linecap:round; stroke-linejoin:round;fill-rule:evenodd;"
d="M 137960000.000000,61220000.000000
138017403.000000,61208582.000000
138066066.000000,61176066.000000
138098582.000000,61127403.000000
138110000.000000,61070000.000000
138110000.000000,59420000.000000
138098582.000000,59362597.000000
138066066.000000,59313934.000000
138017403.000000,59281418.000000
137960000.000000,59270000.000000
137660000.000000,59270000.000000
137602597.000000,59281418.000000
137553934.000000,59313934.000000
137521418.000000,59362597.000000
137510000.000000,59420000.000000
137510000.000000,61070000.000000
137521418.000000,61127403.000000
137553934.000000,61176066.000000
137602597.000000,61208582.000000
137660000.000000,61220000.000000
Z" /> 
<path style="fill:#000000; fill-opacity:1.0; 
stroke:#000000; stroke-width:1.000000; stroke-opacity:1; 
stroke-linecap:round; stroke-linejoin:round;fill-rule:evenodd;"
d="M 139230000.000000,61220000.000000
139287403.000000,61208582.000000
139336066.000000,61176066.000000
139368582.000000,61127403.000000
139380000.000000,61070000.000000
139380000.000000,59420000.000000
139368582.000000,59362597.000000
139336066.000000,59313934.000000
139287403.000000,59281418.000000
139230000.000000,59270000.000000
138930000.000000,59270000.000000
138872597.000000,59281418.000000
138823934.000000,59313934.000000
138791418.000000,59362597.000000
138780000.000000,59420000.000000
138780000.000000,61070000.000000
138791418.000000,61127403.000000
138823934.000000,61176066.000000
138872597.000000,61208582.000000
138930000.000000,61220000.000000
Z" /> 
</g>
<g >
</g>
<g style="fill:#000000; fill-opacity:1.0; 
stroke:#000000; stroke-width:1.000000; stroke-opacity:1; 
stroke-linecap:round; stroke-linejoin:round;">
<path style="fill:#000000; fill-opacity:1.0; 
stroke:#000000; stroke-width:1.000000; stroke-opacity:1; 
stroke-linecap:round; stroke-linejoin:round;fill-rule:evenodd;"
d="M 127820000.000000,66595000.000000
127724329.000000,66614030.000000
127643223.000000,66668223.000000
127589030.000000,66749329.000000
127570000.000000,66845000.000000
127570000.000000,67370000.000000
127589030.000000,67465671.000000
127643223.000000,67546777.000000
127724329.000000,67600970.000000
127820000.000000,67620000.000000
128720000.000000,67620000.000000
128815671.000000,67600970.000000
128896777.000000,67546777.000000
128950970.000000,67465671.000000
128970000.000000,67370000.000000
128970000.000000,66845000.000000
128950970.000000,66749329.000000
128896777.000000,66668223.000000
128815671.000000,66614030.000000
128720000.000000,66595000.000000
Z" /> 
<path style="fill:#000000; fill-opacity:1.0; 
stroke:#000000; stroke-width:1.000000; stroke-opacity:1; 
stroke-linecap:round; stroke-linejoin:round;fill-rule:evenodd;"
d="M 127820000.000000,68420000.000000
127724329.000000,68439030.000000
127643223.000000,68493223.000000
127589030.000000,68574329.000000
127570000.000000,68670000.000000
127570000.000000,69195000.000000
127589030.000000,69290671.000000
127643223.000000,69371777.000000
127724329.000000,69425970.000000
127820000.000000,69445000.000000
128720000.000000,69445000.000000
128815671.000000,69425970.000000
128896777.000000,69371777.000000
128950970.000000,69290671.000000
128970000.000000,69195000.000000
128970000.000000,68670000.000000
128950970.000000,68574329.000000
128896777.000000,68493223.000000
128815671.000000,68439030.000000
128720000.000000,68420000.000000
Z" /> 
</g>
<g >
</g>
<g style="fill:#000000; fill-opacity:1.0; 
stroke:#000000; stroke-width:1.000000; stroke-opacity:1; 
stroke-linecap:round; stroke-linejoin:round;">
<path style="fill:#000000; fill-opacity:1.0; 
stroke:#000000; stroke-width:1.000000; stroke-opacity:1; 
stroke-linecap:round; stroke-linejoin:round;fill-rule:evenodd;"
d="M 139720000.000000,70545000.000000
139700970.000000,70449329.000000
139646777.000000,70368223.000000
139565671.000000,70314030.000000
139470000.000000,70295000.000000
138970000.000000,70295000.000000
138874329.000000,70314030.000000
138793223.000000,70368223.000000
138739030.000000,70449329.000000
138720000.000000,70545000.000000
138720000.000000,71495000.000000
138739030.000000,71590671.000000
138793223.000000,71671777.000000
138874329.000000,71725970.000000
138970000.000000,71745000.000000
139470000.000000,71745000.000000
139565671.000000,71725970.000000
139646777.000000,71671777.000000
139700970.000000,71590671.000000
139720000.000000,71495000.000000
Z" /> 
<path style="fill:#000000; fill-opacity:1.0; 
stroke:#000000; stroke-width:1.000000; stroke-opacity:1; 
stroke-linecap:round; stroke-linejoin:round;fill-rule:evenodd;"
d="M 137820000.000000,70545000.000000
137800970.000000,70449329.000000
137746777.000000,70368223.000000
137665671.000000,70314030.000000
137570000.000000,70295000.000000
137070000.000000,70295000.000000
136974329.000000,70314030.000000
136893223.000000,70368223.000000
136839030.000000,70449329.000000
136820000.000000,70545000.000000
136820000.000000,71495000.000000
136839030.000000,71590671.000000
136893223.000000,71671777.000000
136974329.000000,71725970.000000
137070000.000000,71745000.000000
137570000.000000,71745000.000000
137665671.000000,71725970.000000
137746777.000000,71671777.000000
137800970.000000,71590671.000000
137820000.000000,71495000.000000
Z" /> 
</g>
<g >
</g>
<g style="fill:#000000; fill-opacity:1.0; 
stroke:#000000; stroke-width:1.000000; stroke-opacity:1; 
stroke-linecap:round; stroke-linejoin:round;">
<path style="fill:#000000; fill-opacity:1.0; 
stroke:#000000; stroke-width:1.000000; stroke-opacity:1; 
stroke-linecap:round; stroke-linejoin:round;fill-rule:evenodd;"
d="M 140283000.000000,67633000.000000
140302030.000000,67728671.000000
140356223.000000,67809777.000000
140437329.000000,67863970.000000
140533000.000000,67883000.000000
141058000.000000,67883000.000000
141153671.000000,67863970.000000
141234777.000000,67809777.000000
141288970.000000,67728671.000000
141308000.000000,67633000.000000
141308000.000000,66733000.000000
141288970.000000,66637329.000000
141234777.000000,66556223.000000
141153671.000000,66502030.000000
141058000.000000,66483000.000000
140533000.000000,66483000.000000
140437329.000000,66502030.000000
140356223.000000,66556223.000000
140302030.000000,66637329.000000
140283000.000000,66733000.000000
Z" /> 
<path style="fill:#000000; fill-opacity:1.0; 
stroke:#000000; stroke-width:1.000000; stroke-opacity:1; 
stroke-linecap:round; stroke-linejoin:round;fill-rule:evenodd;"
d="M 142108000.000000,67633000.000000
142127030.000000,67728671.000000
142181223.000000,67809777.000000
142262329.000000,67863970.000000
142358000.000000,67883000.000000
142883000.000000,67883000.000000
142978671.000000,67863970.000000
143059777.000000,67809777.000000
143113970.000000,67728671.000000
143133000.000000,67633000.000000
143133000.000000,66733000.000000
143113970.000000,66637329.000000
143059777.000000,66556223.000000
142978671.000000,66502030.000000
142883000.000000,66483000.000000
142358000.000000,66483000.000000
142262329.000000,66502030.000000
142181223.000000,66556223.000000
142127030.000000,66637329.000000
142108000.000000,66733000.000000
Z" /> 
</g>
<g >
</g>
<g style="fill:#000000; fill-opacity:1.0; 
stroke:#000000; stroke-width:1.000000; stroke-opacity:1; 
stroke-linecap:round; stroke-linejoin:round;">
<path style="fill:#000000; fill-opacity:1.0; 
stroke:#000000; stroke-width:1.000000; stroke-opacity:1; 
stroke-linecap:round; stroke-linejoin:round;fill-rule:evenodd;"
d="M 136070000.000000,66795000.000000
135974329.000000,66814030.000000
135893223.000000,66868223.000000
135839030.000000,66949329.000000
135820000.000000,67045000.000000
135820000.000000,67570000.000000
135839030.000000,67665671.000000
135893223.000000,67746777.000000
135974329.000000,67800970.000000
136070000.000000,67820000.000000
136970000.000000,67820000.000000
137065671.000000,67800970.000000
137146777.000000,67746777.000000
137200970.000000,67665671.000000
137220000.000000,67570000.000000
137220000.000000,67045000.000000
137200970.000000,66949329.000000
137146777.000000,66868223.000000
137065671.000000,66814030.000000
136970000.000000,66795000.000000
Z" /> 
<path style="fill:#000000; fill-opacity:1.0; 
stroke:#000000; stroke-width:1.000000; stroke-opacity:1; 
stroke-linecap:round; stroke-linejoin:round;fill-rule:evenodd;"
d="M 136070000.000000,68620000.000000
135974329.000000,68639030.000000
135893223.000000,68693223.000000
135839030.000000,68774329.000000
135820000.000000,68870000.000000
135820000.000000,69395000.000000
135839030.000000,69490671.000000
135893223.000000,69571777.000000
135974329.000000,69625970.000000
136070000.000000,69645000.000000
136970000.000000,69645000.000000
137065671.000000,69625970.000000
137146777.000000,69571777.000000
137200970.000000,69490671.000000
137220000.000000,69395000.000000
137220000.000000,68870000.000000
137200970.000000,68774329.000000
137146777.000000,68693223.000000
137065671.000000,68639030.000000
136970000.000000,68620000.000000
Z" /> 
</g>
<g >
</g>
<g style="fill:#000000; fill-opacity:1.0; 
stroke:#000000; stroke-width:1.000000; stroke-opacity:1; 
stroke-linecap:round; stroke-linejoin:round;">
<path style="fill:#000000; fill-opacity:1.0; 
stroke:#000000; stroke-width:1.000000; stroke-opacity:1; 
stroke-linecap:round; stroke-linejoin:round;fill-rule:evenodd;"
d="M 155595000.000000,72470000.000000
155614030.000000,72565671.000000
155668223.000000,72646777.000000
155749329.000000,72700970.000000
155845000.000000,72720000.000000
156370000.000000,72720000.000000
156465671.000000,72700970.000000
156546777.000000,72646777.000000
156600970.000000,72565671.000000
156620000.000000,72470000.000000
156620000.000000,71570000.000000
156600970.000000,71474329.000000
156546777.000000,71393223.000000
156465671.000000,71339030.000000
156370000.000000,71320000.000000
155845000.000000,71320000.000000
155749329.000000,71339030.000000
155668223.000000,71393223.000000
155614030.000000,71474329.000000
155595000.000000,71570000.000000
Z" /> 
<path style="fill:#000000; fill-opacity:1.0; 
stroke:#000000; stroke-width:1.000000; stroke-opacity:1; 
stroke-linecap:round; stroke-linejoin:round;fill-rule:evenodd;"
d="M 157420000.000000,72470000.000000
157439030.000000,72565671.000000
157493223.000000,72646777.000000
157574329.000000,72700970.000000
157670000.000000,72720000.000000
158195000.000000,72720000.000000
158290671.000000,72700970.000000
158371777.000000,72646777.000000
158425970.000000,72565671.000000
158445000.000000,72470000.000000
158445000.000000,71570000.000000
158425970.000000,71474329.000000
158371777.000000,71393223.000000
158290671.000000,71339030.000000
158195000.000000,71320000.000000
157670000.000000,71320000.000000
157574329.000000,71339030.000000
157493223.000000,71393223.000000
157439030.000000,71474329.000000
157420000.000000,71570000.000000
Z" /> 
</g>
<g >
</g>
<g >
</g>
<g style="fill:#000000; fill-opacity:1.0; 
stroke:#000000; stroke-width:1.000000; stroke-opacity:1; 
stroke-linecap:round; stroke-linejoin:round;">
<path style="fill:#000000; fill-opacity:1.0; 
stroke:#000000; stroke-width:1.000000; stroke-opacity:1; 
stroke-linecap:round; stroke-linejoin:round;fill-rule:evenodd;"
d="M 146195000.000000,68920000.000000
146183582.000000,68862597.000000
146151066.000000,68813934.000000
146102403.000000,68781418.000000
146045000.000000,68770000.000000
144870000.000000,68770000.000000
144812597.000000,68781418.000000
144763934.000000,68813934.000000
144731418.000000,68862597.000000
144720000.000000,68920000.000000
144720000.000000,69220000.000000
144731418.000000,69277403.000000
144763934.000000,69326066.000000
144812597.000000,69358582.000000
144870000.000000,69370000.000000
146045000.000000,69370000.000000
146102403.000000,69358582.000000
146151066.000000,69326066.000000
146183582.000000,69277403.000000
146195000.000000,69220000.000000
Z" /> 
<path style="fill:#000000; fill-opacity:1.0; 
stroke:#000000; stroke-width:1.000000; stroke-opacity:1; 
stroke-linecap:round; stroke-linejoin:round;fill-rule:evenodd;"
d="M 146195000.000000,70820000.000000
146183582.000000,70762597.000000
146151066.000000,70713934.000000
146102403.000000,70681418.000000
146045000.000000,70670000.000000
144870000.000000,70670000.000000
144812597.000000,70681418.000000
144763934.000000,70713934.000000
144731418.000000,70762597.000000
144720000.000000,70820000.000000
144720000.000000,71120000.000000
144731418.000000,71177403.000000
144763934.000000,71226066.000000
144812597.000000,71258582.000000
144870000.000000,71270000.000000
146045000.000000,71270000.000000
146102403.000000,71258582.000000
146151066.000000,71226066.000000
146183582.000000,71177403.000000
146195000.000000,71120000.000000
Z" /> 
<path style="fill:#000000; fill-opacity:1.0; 
stroke:#000000; stroke-width:1.000000; stroke-opacity:1; 
stroke-linecap:round; stroke-linejoin:round;fill-rule:evenodd;"
d="M 144320000.000000,69870000.000000
144308582.000000,69812597.000000
144276066.000000,69763934.000000
144227403.000000,69731418.000000
144170000.000000,69720000.000000
142995000.000000,69720000.000000
142937597.000000,69731418.000000
142888934.000000,69763934.000000
142856418.000000,69812597.000000
142845000.000000,69870000.000000
142845000.000000,70170000.000000
142856418.000000,70227403.000000
142888934.000000,70276066.000000
142937597.000000,70308582.000000
142995000.000000,70320000.000000
144170000.000000,70320000.000000
144227403.000000,70308582.000000
144276066.000000,70276066.000000
144308582.000000,70227403.000000
144320000.000000,70170000.000000
Z" /> 
</g>
<g >
</g>
<g style="fill:#000000; fill-opacity:1.0; 
stroke:#000000; stroke-width:1.000000; stroke-opacity:1; 
stroke-linecap:round; stroke-linejoin:round;">
<path style="fill:#000000; fill-opacity:1.0; 
stroke:#000000; stroke-width:1.000000; stroke-opacity:1; 
stroke-linecap:round; stroke-linejoin:round;fill-rule:evenodd;"
d="M 153445000.000000,69570000.000000
153425970.000000,69474329.000000
153371777.000000,69393223.000000
153290671.000000,69339030.000000
153195000.000000,69320000.000000
152670000.000000,69320000.000000
152574329.000000,69339030.000000
152493223.000000,69393223.000000
152439030.000000,69474329.000000
152420000.000000,69570000.000000
152420000.000000,70470000.000000
152439030.000000,70565671.000000
152493223.000000,70646777.000000
152574329.000000,70700970.000000
152670000.000000,70720000.000000
153195000.000000,70720000.000000
153290671.000000,70700970.000000
153371777.000000,70646777.000000
153425970.000000,70565671.000000
153445000.000000,70470000.000000
Z" /> 
<path style="fill:#000000; fill-opacity:1.0; 
stroke:#000000; stroke-width:1.000000; stroke-opacity:1; 
stroke-linecap:round; stroke-linejoin:round;fill-rule:evenodd;"
d="M 151620000.000000,69570000.000000
151600970.000000,69474329.000000
151546777.000000,69393223.000000
151465671.000000,69339030.000000
151370000.000000,69320000.000000
150845000.000000,69320000.000000
150749329.000000,69339030.000000
150668223.000000,69393223.000000
150614030.000000,69474329.000000
150595000.000000,69570000.000000
150595000.000000,70470000.000000
150614030.000000,70565671.000000
150668223.000000,70646777.000000
150749329.000000,70700970.000000
150845000.000000,70720000.000000
151370000.000000,70720000.000000
151465671.000000,70700970.000000
151546777.000000,70646777.000000
151600970.000000,70565671.000000
151620000.000000,70470000.000000
Z" /> 
</g>
<g >
</g>
<g style="fill:#000000; fill-opacity:1.0; 
stroke:#000000; stroke-width:1.000000; stroke-opacity:1; 
stroke-linecap:round; stroke-linejoin:round;">
<path style="fill:#000000; fill-opacity:1.0; 
stroke:#000000; stroke-width:1.000000; stroke-opacity:1; 
stroke-linecap:round; stroke-linejoin:round;fill-rule:evenodd;"
d="M 150575000.000000,64750000.000000
150670671.000000,64730970.000000
150751777.000000,64676777.000000
150805970.000000,64595671.000000
150825000.000000,64500000.000000
150825000.000000,64000000.000000
150805970.000000,63904329.000000
150751777.000000,63823223.000000
150670671.000000,63769030.000000
150575000.000000,63750000.000000
149625000.000000,63750000.000000
149529329.000000,63769030.000000
149448223.000000,63823223.000000
149394030.000000,63904329.000000
149375000.000000,64000000.000000
149375000.000000,64500000.000000
149394030.000000,64595671.000000
149448223.000000,64676777.000000
149529329.000000,64730970.000000
149625000.000000,64750000.000000
Z" /> 
<path style="fill:#000000; fill-opacity:1.0; 
stroke:#000000; stroke-width:1.000000; stroke-opacity:1; 
stroke-linecap:round; stroke-linejoin:round;fill-rule:evenodd;"
d="M 150575000.000000,62850000.000000
150670671.000000,62830970.000000
150751777.000000,62776777.000000
150805970.000000,62695671.000000
150825000.000000,62600000.000000
150825000.000000,62100000.000000
150805970.000000,62004329.000000
150751777.000000,61923223.000000
150670671.000000,61869030.000000
150575000.000000,61850000.000000
149625000.000000,61850000.000000
149529329.000000,61869030.000000
149448223.000000,61923223.000000
149394030.000000,62004329.000000
149375000.000000,62100000.000000
149375000.000000,62600000.000000
149394030.000000,62695671.000000
149448223.000000,62776777.000000
149529329.000000,62830970.000000
149625000.000000,62850000.000000
Z" /> 
</g>
<g >
</g>
<g style="fill:#000000; fill-opacity:1.0; 
stroke:#000000; stroke-width:1.000000; stroke-opacity:1; 
stroke-linecap:round; stroke-linejoin:round;">
<path style="fill:#000000; fill-opacity:1.0; 
stroke:#000000; stroke-width:1.000000; stroke-opacity:1; 
stroke-linecap:round; stroke-linejoin:round;fill-rule:evenodd;"
d="M 127970000.000000,64945000.000000
128065671.000000,64925970.000000
128146777.000000,64871777.000000
128200970.000000,64790671.000000
128220000.000000,64695000.000000
128220000.000000,64170000.000000
128200970.000000,64074329.000000
128146777.000000,63993223.000000
128065671.000000,63939030.000000
127970000.000000,63920000.000000
127070000.000000,63920000.000000
126974329.000000,63939030.000000
126893223.000000,63993223.000000
126839030.000000,64074329.000000
126820000.000000,64170000.000000
126820000.000000,64695000.000000
126839030.000000,64790671.000000
126893223.000000,64871777.000000
126974329.000000,64925970.000000
127070000.000000,64945000.000000
Z" /> 
<path style="fill:#000000; fill-opacity:1.0; 
stroke:#000000; stroke-width:1.000000; stroke-opacity:1; 
stroke-linecap:round; stroke-linejoin:round;fill-rule:evenodd;"
d="M 127970000.000000,63120000.000000
128065671.000000,63100970.000000
128146777.000000,63046777.000000
128200970.000000,62965671.000000
128220000.000000,62870000.000000
128220000.000000,62345000.000000
128200970.000000,62249329.000000
128146777.000000,62168223.000000
128065671.000000,62114030.000000
127970000.000000,62095000.000000
127070000.000000,62095000.000000
126974329.000000,62114030.000000
126893223.000000,62168223.000000
126839030.000000,62249329.000000
126820000.000000,62345000.000000
126820000.000000,62870000.000000
126839030.000000,62965671.000000
126893223.000000,63046777.000000
126974329.000000,63100970.000000
127070000.000000,63120000.000000
Z" /> 
</g>
<g >
</g>
<g style="fill:#000000; fill-opacity:1.0; 
stroke:#000000; stroke-width:1.000000; stroke-opacity:1; 
stroke-linecap:round; stroke-linejoin:round;">
<path style="fill:#000000; fill-opacity:1.0; 
stroke:#000000; stroke-width:1.000000; stroke-opacity:1; 
stroke-linecap:round; stroke-linejoin:round;fill-rule:evenodd;"
d="M 148550000.000000,65790000.000000
148645671.000000,65770970.000000
148726777.000000,65716777.000000
148780970.000000,65635671.000000
148800000.000000,65540000.000000
148800000.000000,65015000.000000
148780970.000000,64919329.000000
148726777.000000,64838223.000000
148645671.000000,64784030.000000
148550000.000000,64765000.000000
147650000.000000,64765000.000000
147554329.000000,64784030.000000
147473223.000000,64838223.000000
147419030.000000,64919329.000000
147400000.000000,65015000.000000
147400000.000000,65540000.000000
147419030.000000,65635671.000000
147473223.000000,65716777.000000
147554329.000000,65770970.000000
147650000.000000,65790000.000000
Z" /> 
<path style="fill:#000000; fill-opacity:1.0; 
stroke:#000000; stroke-width:1.000000; stroke-opacity:1; 
stroke-linecap:round; stroke-linejoin:round;fill-rule:evenodd;"
d="M 148550000.000000,63965000.000000
148645671.000000,63945970.000000
148726777.000000,63891777.000000
148780970.000000,63810671.000000
148800000.000000,63715000.000000
148800000.000000,63190000.000000
148780970.000000,63094329.000000
148726777.000000,63013223.000000
148645671.000000,62959030.000000
148550000.000000,62940000.000000
147650000.000000,62940000.000000
147554329.000000,62959030.000000
147473223.000000,63013223.000000
147419030.000000,63094329.000000
147400000.000000,63190000.000000
147400000.000000,63715000.000000
147419030.000000,63810671.000000
147473223.000000,63891777.000000
147554329.000000,63945970.000000
147650000.000000,63965000.000000
Z" /> 
</g>
<g >
</g>
<g style="fill:#000000; fill-opacity:1.0; 
stroke:#000000; stroke-width:1.000000; stroke-opacity:1; 
stroke-linecap:round; stroke-linejoin:round;">
<path style="fill:#000000; fill-opacity:1.0; 
stroke:#000000; stroke-width:1.000000; stroke-opacity:1; 
stroke-linecap:round; stroke-linejoin:round;fill-rule:evenodd;"
d="M 127720000.000000,72601000.000000
127739030.000000,72696671.000000
127793223.000000,72777777.000000
127874329.000000,72831970.000000
127970000.000000,72851000.000000
128620000.000000,72851000.000000
128715671.000000,72831970.000000
128796777.000000,72777777.000000
128850970.000000,72696671.000000
128870000.000000,72601000.000000
128870000.000000,70401000.000000
128850970.000000,70305329.000000
128796777.000000,70224223.000000
128715671.000000,70170030.000000
128620000.000000,70151000.000000
127970000.000000,70151000.000000
127874329.000000,70170030.000000
127793223.000000,70224223.000000
127739030.000000,70305329.000000
127720000.000000,70401000.000000
Z" /> 
<path style="fill:#000000; fill-opacity:1.0; 
stroke:#000000; stroke-width:1.000000; stroke-opacity:1; 
stroke-linecap:round; stroke-linejoin:round;fill-rule:evenodd;"
d="M 130670000.000000,72601000.000000
130689030.000000,72696671.000000
130743223.000000,72777777.000000
130824329.000000,72831970.000000
130920000.000000,72851000.000000
131570000.000000,72851000.000000
131665671.000000,72831970.000000
131746777.000000,72777777.000000
131800970.000000,72696671.000000
131820000.000000,72601000.000000
131820000.000000,70401000.000000
131800970.000000,70305329.000000
131746777.000000,70224223.000000
131665671.000000,70170030.000000
131570000.000000,70151000.000000
130920000.000000,70151000.000000
130824329.000000,70170030.000000
130743223.000000,70224223.000000
130689030.000000,70305329.000000
130670000.000000,70401000.000000
Z" /> 
</g>
<g >
</g>
<g style="fill:#000000; fill-opacity:1.0; 
stroke:#000000; stroke-width:1.000000; stroke-opacity:1; 
stroke-linecap:round; stroke-linejoin:round;">
<path style="fill:#000000; fill-opacity:1.0; 
stroke:#000000; stroke-width:1.000000; stroke-opacity:1; 
stroke-linecap:round; stroke-linejoin:round;fill-rule:evenodd;"
d="M 154425000.000000,75820000.000000
154405970.000000,75724329.000000
154351777.000000,75643223.000000
154270671.000000,75589030.000000
154175000.000000,75570000.000000
153650000.000000,75570000.000000
153554329.000000,75589030.000000
153473223.000000,75643223.000000
153419030.000000,75724329.000000
153400000.000000,75820000.000000
153400000.000000,76720000.000000
153419030.000000,76815671.000000
153473223.000000,76896777.000000
153554329.000000,76950970.000000
153650000.000000,76970000.000000
154175000.000000,76970000.000000
154270671.000000,76950970.000000
154351777.000000,76896777.000000
154405970.000000,76815671.000000
154425000.000000,76720000.000000
Z" /> 
<path style="fill:#000000; fill-opacity:1.0; 
stroke:#000000; stroke-width:1.000000; stroke-opacity:1; 
stroke-linecap:round; stroke-linejoin:round;fill-rule:evenodd;"
d="M 152600000.000000,75820000.000000
152580970.000000,75724329.000000
152526777.000000,75643223.000000
152445671.000000,75589030.000000
152350000.000000,75570000.000000
151825000.000000,75570000.000000
151729329.000000,75589030.000000
151648223.000000,75643223.000000
151594030.000000,75724329.000000
151575000.000000,75820000.000000
151575000.000000,76720000.000000
151594030.000000,76815671.000000
151648223.000000,76896777.000000
151729329.000000,76950970.000000
151825000.000000,76970000.000000
152350000.000000,76970000.000000
152445671.000000,76950970.000000
152526777.000000,76896777.000000
152580970.000000,76815671.000000
152600000.000000,76720000.000000
Z" /> 
</g>
<g >
</g>
<g style="fill:#000000; fill-opacity:1.0; 
stroke:#000000; stroke-width:1.000000; stroke-opacity:1; 
stroke-linecap:round; stroke-linejoin:round;">
<path style="fill:#000000; fill-opacity:1.0; 
stroke:#000000; stroke-width:1.000000; stroke-opacity:1; 
stroke-linecap:round; stroke-linejoin:round;fill-rule:evenodd;"
d="M 145849999.000000,65663999.000000
145450001.000000,65663999.000000
145450001.000000,65014001.000000
145849999.000000,65014001.000000
Z" /> 
<path style="fill:#000000; fill-opacity:1.0; 
stroke:#000000; stroke-width:1.000000; stroke-opacity:1; 
stroke-linecap:round; stroke-linejoin:round;fill-rule:evenodd;"
d="M 145199999.000000,65663999.000000
144800001.000000,65663999.000000
144800001.000000,65014001.000000
145199999.000000,65014001.000000
Z" /> 
<path style="fill:#000000; fill-opacity:1.0; 
stroke:#000000; stroke-width:1.000000; stroke-opacity:1; 
stroke-linecap:round; stroke-linejoin:round;fill-rule:evenodd;"
d="M 144549999.000000,65663999.000000
144150001.000000,65663999.000000
144150001.000000,65014001.000000
144549999.000000,65014001.000000
Z" /> 
<path style="fill:#000000; fill-opacity:1.0; 
stroke:#000000; stroke-width:1.000000; stroke-opacity:1; 
stroke-linecap:round; stroke-linejoin:round;fill-rule:evenodd;"
d="M 144549999.000000,63763999.000000
144150001.000000,63763999.000000
144150001.000000,63114001.000000
144549999.000000,63114001.000000
Z" /> 
<path style="fill:#000000; fill-opacity:1.0; 
stroke:#000000; stroke-width:1.000000; stroke-opacity:1; 
stroke-linecap:round; stroke-linejoin:round;fill-rule:evenodd;"
d="M 145849999.000000,63763999.000000
145450001.000000,63763999.000000
145450001.000000,63114001.000000
145849999.000000,63114001.000000
Z" /> 
</g>
<g >
</g>
<g >
</g>
<g >
</g>
</g> 
</svg>
