M48
INCH,TZ
T1C0.0157
T2C0.0394
T3C0.0551
%
G90
G05
T1
X49969Y-27300
X50303Y-26583
X51287Y-24516
X51443Y-26366
X52272Y-28650
X52567Y-26386
X53451Y-28323
X53453Y-27764
X54339Y-24713
X54732Y-22744
X54974Y-28550
X55394Y-23096
X55787Y-24041
X57165Y-24061
X57390Y-28354
X57541Y-29850
X58276Y-28650
X58607Y-24035
X58661Y-30183
X59213Y-27650
X59291Y-28530
X59291Y-30344
X59843Y-26404
X60205Y-29186
X60827Y-26772
X61641Y-29732
T2
X50591Y-29750
X51591Y-29750
X52591Y-29750
X54591Y-29750
X64591Y-23750
X64591Y-24750
X64591Y-28250
T3
X64591Y-29750
T0
M30
