G04 #@! TF.GenerationSoftware,KiCad,Pcbnew,5.99.0-unknown-4920692bcd~125~ubuntu20.04.1*
G04 #@! TF.CreationDate,2021-04-19T16:17:19+09:00*
G04 #@! TF.ProjectId,OpenHVPS-5,4f70656e-4856-4505-932d-352e6b696361,V1.2.1*
G04 #@! TF.SameCoordinates,Original*
G04 #@! TF.FileFunction,Copper,L4,Bot*
G04 #@! TF.FilePolarity,Positive*
%FSLAX46Y46*%
G04 Gerber Fmt 4.6, Leading zero omitted, Abs format (unit mm)*
G04 Created by KiCad (PCBNEW 5.99.0-unknown-4920692bcd~125~ubuntu20.04.1) date 2021-04-19 16:17:19*
%MOMM*%
%LPD*%
G01*
G04 APERTURE LIST*
G04 Aperture macros list*
%AMRoundRect*
0 Rectangle with rounded corners*
0 $1 Rounding radius*
0 $2 $3 $4 $5 $6 $7 $8 $9 X,Y pos of 4 corners*
0 Add a 4 corners polygon primitive as box body*
4,1,4,$2,$3,$4,$5,$6,$7,$8,$9,$2,$3,0*
0 Add four circle primitives for the rounded corners*
1,1,$1+$1,$2,$3*
1,1,$1+$1,$4,$5*
1,1,$1+$1,$6,$7*
1,1,$1+$1,$8,$9*
0 Add four rect primitives between the rounded corners*
20,1,$1+$1,$2,$3,$4,$5,0*
20,1,$1+$1,$4,$5,$6,$7,0*
20,1,$1+$1,$6,$7,$8,$9,0*
20,1,$1+$1,$8,$9,$2,$3,0*%
G04 Aperture macros list end*
G04 #@! TA.AperFunction,ComponentPad*
%ADD10R,1.700000X1.700000*%
G04 #@! TD*
G04 #@! TA.AperFunction,ComponentPad*
%ADD11O,1.700000X1.700000*%
G04 #@! TD*
G04 #@! TA.AperFunction,ComponentPad*
%ADD12C,2.500000*%
G04 #@! TD*
G04 #@! TA.AperFunction,ComponentPad*
%ADD13C,2.800000*%
G04 #@! TD*
G04 #@! TA.AperFunction,SMDPad,CuDef*
%ADD14R,1.000000X1.000000*%
G04 #@! TD*
G04 #@! TA.AperFunction,SMDPad,CuDef*
%ADD15RoundRect,0.250000X-0.262500X-0.450000X0.262500X-0.450000X0.262500X0.450000X-0.262500X0.450000X0*%
G04 #@! TD*
G04 #@! TA.AperFunction,SMDPad,CuDef*
%ADD16RoundRect,0.150000X0.587500X0.150000X-0.587500X0.150000X-0.587500X-0.150000X0.587500X-0.150000X0*%
G04 #@! TD*
G04 #@! TA.AperFunction,SMDPad,CuDef*
%ADD17RoundRect,0.250000X0.262500X0.450000X-0.262500X0.450000X-0.262500X-0.450000X0.262500X-0.450000X0*%
G04 #@! TD*
G04 #@! TA.AperFunction,SMDPad,CuDef*
%ADD18RoundRect,0.250000X-0.250000X-0.475000X0.250000X-0.475000X0.250000X0.475000X-0.250000X0.475000X0*%
G04 #@! TD*
G04 #@! TA.AperFunction,SMDPad,CuDef*
%ADD19RoundRect,0.250000X-0.475000X0.250000X-0.475000X-0.250000X0.475000X-0.250000X0.475000X0.250000X0*%
G04 #@! TD*
G04 #@! TA.AperFunction,SMDPad,CuDef*
%ADD20RoundRect,0.250000X0.450000X-0.262500X0.450000X0.262500X-0.450000X0.262500X-0.450000X-0.262500X0*%
G04 #@! TD*
G04 #@! TA.AperFunction,SMDPad,CuDef*
%ADD21RoundRect,0.250000X-0.450000X0.262500X-0.450000X-0.262500X0.450000X-0.262500X0.450000X0.262500X0*%
G04 #@! TD*
G04 #@! TA.AperFunction,SMDPad,CuDef*
%ADD22R,0.450000X0.600000*%
G04 #@! TD*
G04 #@! TA.AperFunction,SMDPad,CuDef*
%ADD23RoundRect,0.150000X-0.512500X-0.150000X0.512500X-0.150000X0.512500X0.150000X-0.512500X0.150000X0*%
G04 #@! TD*
G04 #@! TA.AperFunction,SMDPad,CuDef*
%ADD24RoundRect,0.150000X-0.587500X-0.150000X0.587500X-0.150000X0.587500X0.150000X-0.587500X0.150000X0*%
G04 #@! TD*
G04 #@! TA.AperFunction,SMDPad,CuDef*
%ADD25RoundRect,0.150000X0.150000X-0.587500X0.150000X0.587500X-0.150000X0.587500X-0.150000X-0.587500X0*%
G04 #@! TD*
G04 #@! TA.AperFunction,SMDPad,CuDef*
%ADD26RoundRect,0.150000X0.150000X-0.825000X0.150000X0.825000X-0.150000X0.825000X-0.150000X-0.825000X0*%
G04 #@! TD*
G04 #@! TA.AperFunction,SMDPad,CuDef*
%ADD27RoundRect,0.250000X0.250000X0.475000X-0.250000X0.475000X-0.250000X-0.475000X0.250000X-0.475000X0*%
G04 #@! TD*
G04 #@! TA.AperFunction,SMDPad,CuDef*
%ADD28RoundRect,0.250000X0.475000X-0.250000X0.475000X0.250000X-0.475000X0.250000X-0.475000X-0.250000X0*%
G04 #@! TD*
G04 #@! TA.AperFunction,SMDPad,CuDef*
%ADD29RoundRect,0.250000X-0.325000X-1.100000X0.325000X-1.100000X0.325000X1.100000X-0.325000X1.100000X0*%
G04 #@! TD*
G04 #@! TA.AperFunction,SMDPad,CuDef*
%ADD30R,0.400000X0.650000*%
G04 #@! TD*
G04 #@! TA.AperFunction,ViaPad*
%ADD31C,0.800000*%
G04 #@! TD*
G04 #@! TA.AperFunction,Conductor*
%ADD32C,0.250000*%
G04 #@! TD*
G04 #@! TA.AperFunction,Conductor*
%ADD33C,0.330200*%
G04 #@! TD*
G04 #@! TA.AperFunction,Conductor*
%ADD34C,0.500000*%
G04 #@! TD*
G04 APERTURE END LIST*
D10*
X164060000Y-60325000D03*
D11*
X164060000Y-62865000D03*
D12*
X164060000Y-71755000D03*
D13*
X164060000Y-75565000D03*
X138660000Y-75565000D03*
D10*
X128500000Y-75565000D03*
D11*
X131040000Y-75565000D03*
X133580000Y-75565000D03*
D14*
X132520000Y-68020000D03*
D15*
X140795500Y-74803000D03*
X142620500Y-74803000D03*
D14*
X150100000Y-66000000D03*
D15*
X140795500Y-72771000D03*
X142620500Y-72771000D03*
D16*
X154207500Y-71820000D03*
X154207500Y-73720000D03*
X152332500Y-72770000D03*
D14*
X140900000Y-58265000D03*
D17*
X144712500Y-58265000D03*
X142887500Y-58265000D03*
D18*
X148550000Y-76270000D03*
X150450000Y-76270000D03*
D19*
X129520000Y-59070000D03*
X129520000Y-60970000D03*
D14*
X133270000Y-71020000D03*
D18*
X154870000Y-70020000D03*
X156770000Y-70020000D03*
D20*
X141520000Y-70932500D03*
X141520000Y-69107500D03*
D21*
X144502000Y-74607500D03*
X144502000Y-76432500D03*
D22*
X134520000Y-67170000D03*
X134520000Y-69270000D03*
D21*
X127520000Y-59107500D03*
X127520000Y-60932500D03*
D23*
X144062500Y-61915000D03*
X144062500Y-60965000D03*
X144062500Y-60015000D03*
X146337500Y-60015000D03*
X146337500Y-61915000D03*
D19*
X146534000Y-74615000D03*
X146534000Y-76515000D03*
D24*
X156262500Y-76470000D03*
X156262500Y-74570000D03*
X158137500Y-75520000D03*
D15*
X146387500Y-67024000D03*
X148212500Y-67024000D03*
D25*
X150470000Y-73957500D03*
X148570000Y-73957500D03*
X149520000Y-72082500D03*
D14*
X129520000Y-64270000D03*
D17*
X148112500Y-58265000D03*
X146287500Y-58265000D03*
D19*
X138770000Y-67320000D03*
X138770000Y-69220000D03*
D15*
X147399500Y-69215000D03*
X149224500Y-69215000D03*
D14*
X144500000Y-67265000D03*
X144520000Y-72770000D03*
X147804000Y-71247000D03*
D26*
X139080000Y-65195000D03*
X137810000Y-65195000D03*
X136540000Y-65195000D03*
X135270000Y-65195000D03*
X134000000Y-65195000D03*
X132730000Y-65195000D03*
X131460000Y-65195000D03*
X131460000Y-60245000D03*
X132730000Y-60245000D03*
X134000000Y-60245000D03*
X135270000Y-60245000D03*
X136540000Y-60245000D03*
X137810000Y-60245000D03*
X139080000Y-60245000D03*
D21*
X128270000Y-67107500D03*
X128270000Y-68932500D03*
D27*
X139220000Y-71020000D03*
X137320000Y-71020000D03*
D15*
X140795500Y-67183000D03*
X142620500Y-67183000D03*
D21*
X136520000Y-67307500D03*
X136520000Y-69132500D03*
D15*
X156107500Y-72020000D03*
X157932500Y-72020000D03*
D14*
X130520000Y-68020000D03*
D16*
X145457500Y-69070000D03*
X145457500Y-70970000D03*
X143582500Y-70020000D03*
D17*
X152932500Y-70020000D03*
X151107500Y-70020000D03*
D28*
X150100000Y-64250000D03*
X150100000Y-62350000D03*
D20*
X127520000Y-64432500D03*
X127520000Y-62607500D03*
X148100000Y-65277500D03*
X148100000Y-63452500D03*
D29*
X128295000Y-71501000D03*
X131245000Y-71501000D03*
D17*
X153912500Y-76270000D03*
X152087500Y-76270000D03*
D30*
X145650000Y-65339000D03*
X145000000Y-65339000D03*
X144350000Y-65339000D03*
X144350000Y-63439000D03*
X145650000Y-63439000D03*
D31*
X145200000Y-61113817D03*
X154500000Y-68000000D03*
X146153000Y-75819000D03*
X150400000Y-70231000D03*
X150600000Y-77072500D03*
X132770000Y-72770000D03*
X141700000Y-61065000D03*
X148861441Y-61049870D03*
X138020000Y-62770000D03*
X156567000Y-75520000D03*
X150600000Y-72465000D03*
X135770000Y-70520000D03*
X130270000Y-62270000D03*
X139020000Y-57770000D03*
X133520000Y-67020000D03*
X139634500Y-72517000D03*
X135764700Y-71941100D03*
X126920900Y-69342400D03*
X148020000Y-72770000D03*
X130664198Y-66968888D03*
X149000000Y-76665000D03*
X145770000Y-72020000D03*
X152919800Y-74131600D03*
X127770000Y-67520000D03*
X140700000Y-58665000D03*
X152000000Y-67065000D03*
D32*
X140627500Y-67000000D02*
X140857500Y-66770000D01*
X138770000Y-67320000D02*
X139090000Y-67000000D01*
X138758000Y-67307500D02*
X138770000Y-67320000D01*
X139080000Y-65195000D02*
X139080000Y-67010000D01*
X139080000Y-67010000D02*
X138770000Y-67320000D01*
X139090000Y-67000000D02*
X140627500Y-67000000D01*
X136520000Y-67307500D02*
X138758000Y-67307500D01*
D33*
X156567000Y-75520000D02*
X157457500Y-75520000D01*
X150600000Y-72465000D02*
X150400000Y-72665000D01*
X158137500Y-77516500D02*
X158141000Y-77520000D01*
X131460000Y-65195000D02*
X129728389Y-66926611D01*
X146005000Y-70970000D02*
X147000000Y-71965000D01*
D34*
X134770000Y-77520000D02*
X158141000Y-77520000D01*
D33*
X139020000Y-57770000D02*
X139250000Y-58000000D01*
X157932500Y-72020000D02*
X157932500Y-71182500D01*
X129728389Y-66926611D02*
X129728389Y-67474111D01*
X131460000Y-65195000D02*
X131460000Y-64210000D01*
D32*
X131318000Y-70612000D02*
X131318000Y-70568000D01*
X131318000Y-71341500D02*
X131342000Y-71341500D01*
X137520000Y-70520000D02*
X135770000Y-70520000D01*
D33*
X131460000Y-64210000D02*
X130270000Y-63020000D01*
X146270000Y-76470000D02*
X146270000Y-77520000D01*
X146600000Y-63065000D02*
X146600000Y-63565000D01*
X146822000Y-61087000D02*
X147383380Y-61648380D01*
D34*
X158141000Y-77520000D02*
X159020000Y-77520000D01*
D33*
X150083380Y-70206620D02*
X150025000Y-70265000D01*
X131501000Y-71501000D02*
X132770000Y-72770000D01*
X133580000Y-75565000D02*
X133580000Y-76330000D01*
X144062500Y-60965000D02*
X145051183Y-60965000D01*
X148183915Y-73957500D02*
X148570000Y-73957500D01*
X146600000Y-63565000D02*
X145900000Y-64265000D01*
X150220000Y-76270000D02*
X150220000Y-77470000D01*
X145200000Y-61113817D02*
X145226817Y-61087000D01*
X132770000Y-72770000D02*
X133520000Y-72770000D01*
X157932500Y-72020000D02*
X157932500Y-75315000D01*
X144270000Y-76432500D02*
X144270000Y-77520000D01*
X145000000Y-64939100D02*
X145000000Y-65339000D01*
X129728389Y-67474111D02*
X128270000Y-68932500D01*
D32*
X138770000Y-69220000D02*
X138770000Y-69270000D01*
D33*
X133580000Y-73580000D02*
X132770000Y-72770000D01*
X146162500Y-70265000D02*
X145457500Y-70970000D01*
X128676500Y-68932500D02*
X128270000Y-68932500D01*
X147000000Y-72773585D02*
X148183915Y-73957500D01*
X145457500Y-70970000D02*
X145457500Y-70832500D01*
X145051183Y-60965000D02*
X145200000Y-61113817D01*
X131245000Y-71501000D02*
X128676500Y-68932500D01*
D32*
X138770000Y-69220000D02*
X138570000Y-69220000D01*
D34*
X133580000Y-76330000D02*
X134770000Y-77520000D01*
D33*
X130270000Y-63020000D02*
X130270000Y-62270000D01*
D32*
X138770000Y-69270000D02*
X137520000Y-70520000D01*
D33*
X145457500Y-70970000D02*
X146005000Y-70970000D01*
X129520000Y-61520000D02*
X129520000Y-60970000D01*
X133580000Y-75565000D02*
X133580000Y-73580000D01*
X138090000Y-62700000D02*
X138020000Y-62770000D01*
X133520000Y-72770000D02*
X135770000Y-70520000D01*
X147383380Y-62281620D02*
X146600000Y-63065000D01*
X157932500Y-75315000D02*
X158137500Y-75520000D01*
D32*
X131318000Y-70568000D02*
X131318000Y-70612000D01*
D33*
X146270000Y-75770000D02*
X146270000Y-76470000D01*
D32*
X131318000Y-71341500D02*
X131318000Y-70612000D01*
D33*
X145226817Y-61087000D02*
X146822000Y-61087000D01*
X147000000Y-71965000D02*
X147000000Y-72773585D01*
X145674100Y-64265000D02*
X145000000Y-64939100D01*
X150025000Y-70265000D02*
X146162500Y-70265000D01*
X131245000Y-71501000D02*
X131501000Y-71501000D01*
X147383380Y-61648380D02*
X147383380Y-62281620D01*
D34*
X131318000Y-72068000D02*
X131318000Y-71341500D01*
D33*
X157932500Y-71182500D02*
X156770000Y-70020000D01*
X130270000Y-62270000D02*
X129520000Y-61520000D01*
X158137500Y-75520000D02*
X158137500Y-77516500D01*
X150400000Y-72665000D02*
X150393382Y-72665000D01*
D32*
X151020000Y-69479400D02*
X151020000Y-70569000D01*
D33*
X145900000Y-64265000D02*
X145674100Y-64265000D01*
D32*
X133520000Y-67270000D02*
X133520000Y-67020000D01*
X132520000Y-68270000D02*
X133520000Y-67270000D01*
X156107500Y-72020000D02*
X155857500Y-71770000D01*
X149371020Y-69068480D02*
X149224500Y-69215000D01*
X154870000Y-70020000D02*
X153918480Y-69068480D01*
X155857500Y-71770000D02*
X154257500Y-71770000D01*
X154870000Y-70020000D02*
X154870000Y-71157500D01*
X154257500Y-71770000D02*
X154207500Y-71820000D01*
X154870000Y-71157500D02*
X154207500Y-71820000D01*
X153918480Y-69068480D02*
X149371020Y-69068480D01*
X154870000Y-70020000D02*
X154770000Y-70020000D01*
X154307500Y-71920000D02*
X154207500Y-71820000D01*
X154308000Y-71920000D02*
X154307500Y-71920000D01*
X154308000Y-71920000D02*
X154208000Y-71820000D01*
X156108000Y-72020000D02*
X156107500Y-72020000D01*
X128368000Y-71341500D02*
X128368000Y-70789500D01*
X139634500Y-72668600D02*
X136492200Y-72668600D01*
X139735900Y-72770000D02*
X139634500Y-72668600D01*
X140857500Y-72770000D02*
X140857500Y-71595000D01*
X136492200Y-72668600D02*
X135764700Y-71941100D01*
X127083100Y-69180200D02*
X126920900Y-69342400D01*
X140379300Y-72770000D02*
X139735900Y-72770000D01*
X128368000Y-70789500D02*
X126920900Y-69342400D01*
X126920900Y-65031600D02*
X127520000Y-64432500D01*
X140695000Y-72770000D02*
X140695000Y-72454300D01*
X126920900Y-69342400D02*
X126920900Y-65031600D01*
X140857500Y-71595000D02*
X141520000Y-70932500D01*
X140695000Y-72454300D02*
X140379300Y-72770000D01*
X139634500Y-72668600D02*
X139634500Y-72517000D01*
X148707500Y-72082500D02*
X149520000Y-72082500D01*
X149457500Y-72020000D02*
X149513300Y-72075700D01*
X148020000Y-71385000D02*
X148020000Y-72770000D01*
X147900000Y-71265000D02*
X148020000Y-71385000D01*
X148020000Y-72770000D02*
X148707500Y-72082500D01*
X149513300Y-72075700D02*
X149520000Y-72082500D01*
X151738500Y-73363700D02*
X152332000Y-72770000D01*
X150470000Y-73957500D02*
X151145000Y-73957500D01*
X152932500Y-72170000D02*
X152332500Y-72770000D01*
X151738500Y-73363700D02*
X151738800Y-73363700D01*
X152932500Y-70020000D02*
X152932500Y-72170000D01*
X151145000Y-73957500D02*
X151738500Y-73363700D01*
X151738800Y-73363700D02*
X152332500Y-72770000D01*
X136300000Y-58300000D02*
X136800000Y-58800000D01*
X136800000Y-58800000D02*
X138300000Y-58800000D01*
X131700000Y-58300000D02*
X136300000Y-58300000D01*
X129520000Y-59070000D02*
X129590000Y-59000000D01*
X127520000Y-59107500D02*
X129482500Y-59107500D01*
X139080000Y-59580000D02*
X139080000Y-60245000D01*
X129590000Y-59000000D02*
X131000000Y-59000000D01*
X129482500Y-59107500D02*
X129520000Y-59070000D01*
X138300000Y-58800000D02*
X139080000Y-59580000D01*
X131000000Y-59000000D02*
X131700000Y-58300000D01*
X139080000Y-60245000D02*
X139080000Y-61210000D01*
X132730000Y-60245000D02*
X132730000Y-59760000D01*
X137810000Y-60245000D02*
X137810000Y-60730000D01*
X132730000Y-61230000D02*
X133520000Y-62020000D01*
X134520000Y-67770000D02*
X133520000Y-68770000D01*
X134520000Y-67170000D02*
X134520000Y-66720000D01*
X134520000Y-66720000D02*
X134000000Y-66200000D01*
X136540000Y-65700000D02*
X135020000Y-67220000D01*
X132730000Y-60245000D02*
X132730000Y-61230000D01*
X135270000Y-60245000D02*
X135270000Y-61020000D01*
X137770000Y-60285000D02*
X137810000Y-60245000D01*
X136540000Y-65195000D02*
X137810000Y-65195000D01*
X134020000Y-65175000D02*
X134000000Y-65195000D01*
X133520000Y-70770000D02*
X133270000Y-71020000D01*
X134570000Y-67220000D02*
X134520000Y-67170000D01*
X136540000Y-62000000D02*
X135270000Y-60730000D01*
X137770000Y-60770000D02*
X137770000Y-60285000D01*
X136540000Y-65195000D02*
X136540000Y-62250000D01*
X133520000Y-62020000D02*
X136520000Y-62020000D01*
X136540000Y-65195000D02*
X136540000Y-65700000D01*
X134520000Y-67170000D02*
X134520000Y-67770000D01*
X135270000Y-60730000D02*
X135270000Y-60245000D01*
X133520000Y-68770000D02*
X133520000Y-70770000D01*
X136540000Y-62250000D02*
X136540000Y-62000000D01*
X134000000Y-66200000D02*
X134000000Y-65195000D01*
X136540000Y-62000000D02*
X137810000Y-60730000D01*
X135270000Y-60245000D02*
X135270000Y-60980000D01*
X135020000Y-67220000D02*
X134570000Y-67220000D01*
X135270000Y-59470000D02*
X135270000Y-60245000D01*
X147845000Y-64881250D02*
X147895000Y-64831250D01*
X148412500Y-66600000D02*
X149200000Y-66600000D01*
X145457500Y-69070000D02*
X145577500Y-68950000D01*
X148412500Y-66887500D02*
X148412500Y-66600000D01*
X149200000Y-66600000D02*
X149800000Y-66000000D01*
X145577500Y-68950000D02*
X147137500Y-68950000D01*
X148412500Y-66600000D02*
X148412500Y-65712500D01*
X147900000Y-65200000D02*
X147900000Y-64812500D01*
X150200000Y-64350000D02*
X150100000Y-64250000D01*
X149750000Y-63900000D02*
X150100000Y-64250000D01*
X149800000Y-66000000D02*
X150200000Y-66000000D01*
X150200000Y-66000000D02*
X150200000Y-64350000D01*
X148212500Y-68402000D02*
X147399500Y-69215000D01*
X148412500Y-65712500D02*
X147900000Y-65200000D01*
X148212500Y-67024000D02*
X148212500Y-68402000D01*
X145720000Y-69070000D02*
X145457500Y-69070000D01*
X132020000Y-58770000D02*
X133770000Y-58770000D01*
X132730000Y-65195000D02*
X132730000Y-66170000D01*
X131460000Y-60245000D02*
X131460000Y-61210000D01*
X135270000Y-64270000D02*
X135270000Y-65195000D01*
X133770000Y-58770000D02*
X134000000Y-59000000D01*
X132730000Y-64310000D02*
X133270000Y-63770000D01*
X132770000Y-65155000D02*
X132730000Y-65195000D01*
X133770000Y-58770000D02*
X136020000Y-58770000D01*
X131460000Y-61210000D02*
X132770000Y-62520000D01*
X130520000Y-68270000D02*
X130520000Y-67113086D01*
X134770000Y-63770000D02*
X135270000Y-64270000D01*
X131460000Y-60245000D02*
X131460000Y-59330000D01*
X133270000Y-63770000D02*
X134770000Y-63770000D01*
X131931112Y-66968888D02*
X130664198Y-66968888D01*
X132770000Y-62520000D02*
X132770000Y-65155000D01*
X132730000Y-65195000D02*
X132730000Y-64310000D01*
X136020000Y-58770000D02*
X136540000Y-59290000D01*
X134000000Y-59000000D02*
X134000000Y-60245000D01*
X136540000Y-59290000D02*
X136540000Y-60245000D01*
X132730000Y-66170000D02*
X131931112Y-66968888D01*
X131460000Y-59330000D02*
X132020000Y-58770000D01*
X130520000Y-67113086D02*
X130664198Y-66968888D01*
X136382000Y-69270000D02*
X136520000Y-69132500D01*
X134520000Y-69270000D02*
X136382000Y-69270000D01*
X151110980Y-75293480D02*
X147212480Y-75293480D01*
X142816000Y-74607500D02*
X144270000Y-74607500D01*
X144308000Y-74570000D02*
X144270000Y-74607500D01*
X146270000Y-74570000D02*
X144308000Y-74570000D01*
X151857500Y-76107500D02*
X151857500Y-76040000D01*
X142620500Y-74803000D02*
X142816000Y-74607500D01*
X144502000Y-74607500D02*
X144520000Y-72770000D01*
X147212480Y-75293480D02*
X146534000Y-74615000D01*
X151857500Y-76040000D02*
X151110980Y-75293480D01*
X144270000Y-74607500D02*
X144502000Y-74607500D01*
X127520000Y-60932500D02*
X127520000Y-62607500D01*
X139422000Y-74803000D02*
X138660000Y-75565000D01*
X140795500Y-74803000D02*
X139422000Y-74803000D01*
X149020000Y-76520000D02*
X148570000Y-76520000D01*
X142520500Y-72770500D02*
X142520000Y-72770000D01*
X142520500Y-72770500D02*
X142520500Y-72770000D01*
X142682500Y-72357500D02*
X143270000Y-71770000D01*
X142682500Y-72770000D02*
X142682500Y-72357500D01*
X143270000Y-71770000D02*
X145520000Y-71770000D01*
X148570000Y-76520000D02*
X148320000Y-76270000D01*
X145520000Y-71770000D02*
X145770000Y-72020000D01*
X148270000Y-76270000D02*
X148320000Y-76270000D01*
X153008400Y-74131600D02*
X152919800Y-74131600D01*
X154620000Y-73720000D02*
X155500000Y-74600000D01*
X153420000Y-73720000D02*
X153008400Y-74131600D01*
X154207500Y-73720000D02*
X154620000Y-73720000D01*
X154207500Y-73720000D02*
X153420000Y-73720000D01*
X153682500Y-76270000D02*
X155382500Y-76270000D01*
X155382500Y-76270000D02*
X155582500Y-76470000D01*
X155582500Y-76395100D02*
X155582500Y-76470000D01*
X141520000Y-69107500D02*
X141770000Y-68857500D01*
X145650000Y-62602500D02*
X146337500Y-61915000D01*
X139220000Y-71020000D02*
X139607500Y-71020000D01*
X143800000Y-65766720D02*
X143800000Y-64665000D01*
X143800000Y-64665000D02*
X144200000Y-64265000D01*
X145650000Y-63439000D02*
X145650000Y-62602500D01*
X146587500Y-67112500D02*
X145518000Y-68199000D01*
X145794989Y-66431489D02*
X144464769Y-66431489D01*
X144200000Y-64265000D02*
X144824000Y-64265000D01*
X145518000Y-68199000D02*
X142470000Y-68199000D01*
X144464769Y-66431489D02*
X143800000Y-65766720D01*
X139607500Y-71020000D02*
X141520000Y-69107500D01*
X144824000Y-64265000D02*
X145650000Y-63439000D01*
X146387500Y-67024000D02*
X145794989Y-66431489D01*
X142470000Y-68199000D02*
X141520000Y-69020000D01*
X141520000Y-69020000D02*
X141520000Y-69107500D01*
X128107500Y-67520000D02*
X128520000Y-67107500D01*
X129520000Y-65270000D02*
X128520000Y-66270000D01*
X129520000Y-65270000D02*
X129520000Y-64270000D01*
X127770000Y-67520000D02*
X128107500Y-67520000D01*
X128520000Y-66270000D02*
X128520000Y-67107500D01*
X143705000Y-67183000D02*
X143300000Y-66778000D01*
X143300000Y-66778000D02*
X143300000Y-64365000D01*
X143705000Y-67183000D02*
X144555000Y-67183000D01*
X142682500Y-67183000D02*
X143705000Y-67183000D01*
X144262500Y-63402500D02*
X144262500Y-62015000D01*
X143300000Y-64365000D02*
X144262500Y-63402500D01*
X147291836Y-64365000D02*
X148616328Y-64365000D01*
X147550000Y-60015000D02*
X146337500Y-60015000D01*
X149100000Y-63881328D02*
X149100000Y-63865000D01*
X147000000Y-64656836D02*
X147291836Y-64365000D01*
X146537500Y-60115000D02*
X146537500Y-60040000D01*
X149165000Y-63300000D02*
X149100000Y-63365000D01*
X150591328Y-63300000D02*
X149165000Y-63300000D01*
X144600000Y-65965000D02*
X146601720Y-65965000D01*
X144600000Y-65965000D02*
X145062000Y-65965000D01*
X151500000Y-66565000D02*
X151500000Y-64208672D01*
X146601720Y-65965000D02*
X147000000Y-65566720D01*
X144350000Y-65339000D02*
X144350000Y-65715000D01*
X149100000Y-63365000D02*
X149100000Y-63865000D01*
X149100000Y-63865000D02*
X149100000Y-62404358D01*
X151500000Y-64208672D02*
X150591328Y-63300000D01*
X144350000Y-65715000D02*
X144600000Y-65965000D01*
X146537500Y-60040000D02*
X148212500Y-58365000D01*
X148209930Y-61514288D02*
X148209930Y-60674930D01*
X152000000Y-67065000D02*
X151500000Y-66565000D01*
X149100000Y-62404358D02*
X148209930Y-61514288D01*
X147000000Y-65566720D02*
X147000000Y-64656836D01*
X148616328Y-64365000D02*
X149100000Y-63881328D01*
X148209930Y-60674930D02*
X147550000Y-60015000D01*
X152000000Y-67065000D02*
X151955000Y-67020000D01*
X144712500Y-58365000D02*
X146387500Y-58365000D01*
X147736500Y-63252500D02*
X145650000Y-65339000D01*
X147341565Y-60670389D02*
X145720809Y-60670389D01*
X147900000Y-62987500D02*
X147712500Y-62987500D01*
X147800000Y-61128824D02*
X147341565Y-60670389D01*
X147800000Y-63214000D02*
X147800000Y-61128824D01*
X145720809Y-60670389D02*
X145165420Y-60115000D01*
X147716620Y-63297380D02*
X147800000Y-63214000D01*
X145165420Y-60115000D02*
X144262500Y-60115000D01*
X148100000Y-63252500D02*
X147736500Y-63252500D01*
G04 #@! TA.AperFunction,Conductor*
G36*
X129516995Y-68698502D02*
G01*
X129554872Y-68736379D01*
X129627051Y-68848691D01*
X129627053Y-68848694D01*
X129631923Y-68856271D01*
X129638733Y-68862172D01*
X129735569Y-68946082D01*
X129735572Y-68946084D01*
X129742381Y-68951984D01*
X129750579Y-68955728D01*
X129775739Y-68967218D01*
X129875330Y-69012700D01*
X129884245Y-69013982D01*
X129884246Y-69013982D01*
X130015552Y-69032861D01*
X130015559Y-69032862D01*
X130020000Y-69033500D01*
X131020000Y-69033500D01*
X131093079Y-69028273D01*
X131191719Y-68999310D01*
X131224670Y-68989635D01*
X131224672Y-68989634D01*
X131233316Y-68987096D01*
X131308033Y-68939078D01*
X131348691Y-68912949D01*
X131348694Y-68912947D01*
X131356271Y-68908077D01*
X131374789Y-68886707D01*
X131423432Y-68830570D01*
X131483158Y-68792186D01*
X131554154Y-68792186D01*
X131613880Y-68830570D01*
X131624652Y-68844958D01*
X131626930Y-68848502D01*
X131631923Y-68856271D01*
X131638733Y-68862172D01*
X131735569Y-68946082D01*
X131735572Y-68946084D01*
X131742381Y-68951984D01*
X131750579Y-68955728D01*
X131775739Y-68967218D01*
X131875330Y-69012700D01*
X131884245Y-69013982D01*
X131884246Y-69013982D01*
X132015552Y-69032861D01*
X132015559Y-69032862D01*
X132020000Y-69033500D01*
X132760500Y-69033500D01*
X132828621Y-69053502D01*
X132875114Y-69107158D01*
X132886500Y-69159500D01*
X132886500Y-69880858D01*
X132866498Y-69948979D01*
X132812842Y-69995472D01*
X132769490Y-70006536D01*
X132696921Y-70011727D01*
X132627111Y-70032225D01*
X132565330Y-70050365D01*
X132565328Y-70050366D01*
X132556684Y-70052904D01*
X132509327Y-70083339D01*
X132440653Y-70127473D01*
X132372532Y-70147475D01*
X132304412Y-70127473D01*
X132257918Y-70073818D01*
X132255181Y-70067126D01*
X132248227Y-70053240D01*
X132159359Y-69917694D01*
X132150035Y-69906542D01*
X132032371Y-69795078D01*
X132020724Y-69786365D01*
X131880571Y-69704957D01*
X131867246Y-69699163D01*
X131711300Y-69651932D01*
X131698677Y-69649484D01*
X131628816Y-69643249D01*
X131623221Y-69643000D01*
X131517115Y-69643000D01*
X131501876Y-69647475D01*
X131500671Y-69648865D01*
X131499000Y-69656548D01*
X131499000Y-73340885D01*
X131503475Y-73356124D01*
X131504865Y-73357329D01*
X131512548Y-73359000D01*
X131609223Y-73359000D01*
X131616524Y-73358576D01*
X131738255Y-73344383D01*
X131752410Y-73341037D01*
X131904761Y-73285737D01*
X131917760Y-73279227D01*
X132053306Y-73190359D01*
X132064458Y-73181035D01*
X132175922Y-73063371D01*
X132184635Y-73051724D01*
X132266043Y-72911571D01*
X132271837Y-72898246D01*
X132319068Y-72742300D01*
X132321516Y-72729677D01*
X132327751Y-72659816D01*
X132328000Y-72654221D01*
X132328000Y-72072974D01*
X132348002Y-72004853D01*
X132401658Y-71958360D01*
X132471932Y-71948256D01*
X132506342Y-71958360D01*
X132617136Y-72008958D01*
X132625330Y-72012700D01*
X132634245Y-72013982D01*
X132634246Y-72013982D01*
X132765552Y-72032861D01*
X132765559Y-72032862D01*
X132770000Y-72033500D01*
X133770000Y-72033500D01*
X133843079Y-72028273D01*
X133922841Y-72004853D01*
X133974670Y-71989635D01*
X133974672Y-71989634D01*
X133983316Y-71987096D01*
X134043752Y-71948256D01*
X134098691Y-71912949D01*
X134098694Y-71912947D01*
X134106271Y-71908077D01*
X134112172Y-71901267D01*
X134196082Y-71804431D01*
X134196084Y-71804428D01*
X134201984Y-71797619D01*
X134262700Y-71664670D01*
X134275473Y-71575831D01*
X134282861Y-71524448D01*
X134282862Y-71524441D01*
X134283500Y-71520000D01*
X134283500Y-70520000D01*
X134278273Y-70446921D01*
X134249869Y-70350184D01*
X134239635Y-70315330D01*
X134239634Y-70315328D01*
X134237096Y-70306684D01*
X134218419Y-70277622D01*
X134198416Y-70209501D01*
X134218417Y-70141380D01*
X134272073Y-70094887D01*
X134324416Y-70083500D01*
X134745000Y-70083500D01*
X134818079Y-70078273D01*
X134913126Y-70050365D01*
X134949670Y-70039635D01*
X134949672Y-70039634D01*
X134958316Y-70037096D01*
X135013978Y-70001324D01*
X135073691Y-69962949D01*
X135073694Y-69962947D01*
X135081271Y-69958077D01*
X135089155Y-69948979D01*
X135090883Y-69946985D01*
X135150610Y-69908603D01*
X135186105Y-69903500D01*
X135453860Y-69903500D01*
X135521981Y-69923502D01*
X135540511Y-69938026D01*
X135612645Y-70006358D01*
X135765555Y-70095175D01*
X135934796Y-70146433D01*
X135941236Y-70147008D01*
X135941237Y-70147008D01*
X136011185Y-70153251D01*
X136011191Y-70153251D01*
X136013978Y-70153500D01*
X136226895Y-70153500D01*
X136295016Y-70173502D01*
X136341509Y-70227158D01*
X136351613Y-70297432D01*
X136347486Y-70316022D01*
X136320933Y-70403697D01*
X136318484Y-70416323D01*
X136312249Y-70486184D01*
X136312000Y-70491779D01*
X136312000Y-70747885D01*
X136316475Y-70763124D01*
X136317865Y-70764329D01*
X136325548Y-70766000D01*
X137448000Y-70766000D01*
X137516121Y-70786002D01*
X137562614Y-70839658D01*
X137574000Y-70892000D01*
X137574000Y-71148000D01*
X137553998Y-71216121D01*
X137500342Y-71262614D01*
X137448000Y-71274000D01*
X136433081Y-71274000D01*
X136359020Y-71249936D01*
X136226792Y-71153867D01*
X136226791Y-71153866D01*
X136221450Y-71149986D01*
X136215422Y-71147302D01*
X136215420Y-71147301D01*
X136053018Y-71074995D01*
X136053017Y-71074995D01*
X136046987Y-71072310D01*
X135942193Y-71050035D01*
X135866644Y-71033976D01*
X135866639Y-71033976D01*
X135860187Y-71032604D01*
X135669213Y-71032604D01*
X135662761Y-71033976D01*
X135662756Y-71033976D01*
X135587207Y-71050035D01*
X135482413Y-71072310D01*
X135476383Y-71074995D01*
X135476382Y-71074995D01*
X135313980Y-71147301D01*
X135313978Y-71147302D01*
X135307950Y-71149986D01*
X135302609Y-71153866D01*
X135302608Y-71153867D01*
X135158793Y-71258354D01*
X135158791Y-71258356D01*
X135153449Y-71262237D01*
X135149028Y-71267147D01*
X135149027Y-71267148D01*
X135099075Y-71322626D01*
X135025663Y-71404158D01*
X134930176Y-71569546D01*
X134871162Y-71751173D01*
X134851200Y-71941100D01*
X134851890Y-71947665D01*
X134861445Y-72038571D01*
X134871162Y-72131027D01*
X134873202Y-72137305D01*
X134873202Y-72137306D01*
X134884826Y-72173082D01*
X134930176Y-72312654D01*
X135025663Y-72478042D01*
X135030081Y-72482949D01*
X135030082Y-72482950D01*
X135096705Y-72556942D01*
X135153449Y-72619963D01*
X135158791Y-72623844D01*
X135158793Y-72623846D01*
X135279439Y-72711500D01*
X135307950Y-72732214D01*
X135313978Y-72734898D01*
X135313980Y-72734899D01*
X135476382Y-72807205D01*
X135482413Y-72809890D01*
X135575813Y-72829743D01*
X135662756Y-72848224D01*
X135662761Y-72848224D01*
X135669213Y-72849596D01*
X135725101Y-72849596D01*
X135793222Y-72869598D01*
X135814196Y-72886501D01*
X135988818Y-73061123D01*
X135996169Y-73069201D01*
X136000227Y-73075595D01*
X136006006Y-73081022D01*
X136006007Y-73081023D01*
X136049062Y-73121454D01*
X136051892Y-73124197D01*
X136072233Y-73144538D01*
X136075653Y-73147190D01*
X136084676Y-73154897D01*
X136116899Y-73185157D01*
X136123843Y-73188974D01*
X136123848Y-73188978D01*
X136134650Y-73194916D01*
X136151177Y-73205772D01*
X136167177Y-73218183D01*
X136174448Y-73221330D01*
X136174449Y-73221330D01*
X136207751Y-73235741D01*
X136218407Y-73240962D01*
X136257152Y-73262262D01*
X136264835Y-73264234D01*
X136264836Y-73264235D01*
X136276768Y-73267299D01*
X136295472Y-73273703D01*
X136306785Y-73278599D01*
X136306792Y-73278601D01*
X136314064Y-73281748D01*
X136321888Y-73282987D01*
X136321891Y-73282988D01*
X136357735Y-73288665D01*
X136369356Y-73291072D01*
X136406418Y-73300587D01*
X136412175Y-73302065D01*
X136412731Y-73302100D01*
X136432652Y-73302100D01*
X136452362Y-73303651D01*
X136464314Y-73305544D01*
X136464315Y-73305544D01*
X136472144Y-73306784D01*
X136480036Y-73306038D01*
X136515782Y-73302659D01*
X136527640Y-73302100D01*
X139137459Y-73302100D01*
X139188708Y-73312993D01*
X139346182Y-73383105D01*
X139352213Y-73385790D01*
X139429218Y-73402158D01*
X139532556Y-73424124D01*
X139532561Y-73424124D01*
X139539013Y-73425496D01*
X139712143Y-73425496D01*
X139780264Y-73445498D01*
X139826757Y-73499154D01*
X139830582Y-73508505D01*
X139847252Y-73554430D01*
X139850313Y-73562864D01*
X139947187Y-73710622D01*
X139947188Y-73710624D01*
X139947269Y-73710747D01*
X139947248Y-73710761D01*
X139974363Y-73773008D01*
X139963026Y-73843093D01*
X139940826Y-73875394D01*
X139921642Y-73895645D01*
X139899066Y-73934513D01*
X139847555Y-73983371D01*
X139777806Y-73996625D01*
X139715964Y-73973100D01*
X139671167Y-73940493D01*
X139426068Y-73811540D01*
X139164921Y-73719319D01*
X138893197Y-73665763D01*
X138888640Y-73665536D01*
X138888639Y-73665536D01*
X138621157Y-73652220D01*
X138621151Y-73652220D01*
X138616588Y-73651993D01*
X138340888Y-73678297D01*
X138336454Y-73679382D01*
X138336448Y-73679383D01*
X138085506Y-73740788D01*
X138071873Y-73744124D01*
X138067647Y-73745836D01*
X138067643Y-73745837D01*
X137819412Y-73846381D01*
X137819407Y-73846384D01*
X137815179Y-73848096D01*
X137811244Y-73850400D01*
X137811238Y-73850403D01*
X137584147Y-73983371D01*
X137576182Y-73988035D01*
X137359889Y-74161008D01*
X137170832Y-74363393D01*
X137117339Y-74440502D01*
X137015573Y-74587196D01*
X137015570Y-74587201D01*
X137012970Y-74590949D01*
X137010938Y-74595034D01*
X137010936Y-74595037D01*
X136989392Y-74638342D01*
X136889611Y-74838911D01*
X136888190Y-74843245D01*
X136888189Y-74843248D01*
X136808935Y-75085013D01*
X136803339Y-75102082D01*
X136802559Y-75106573D01*
X136802559Y-75106574D01*
X136801600Y-75112098D01*
X136755961Y-75374952D01*
X136754507Y-75428699D01*
X136748991Y-75632562D01*
X136748470Y-75651802D01*
X136749005Y-75656320D01*
X136749005Y-75656326D01*
X136774063Y-75868035D01*
X136781022Y-75926834D01*
X136782206Y-75931236D01*
X136782207Y-75931243D01*
X136803787Y-76011500D01*
X136852936Y-76194286D01*
X136962705Y-76448556D01*
X137108029Y-76684317D01*
X137285865Y-76896629D01*
X137492487Y-77081046D01*
X137723567Y-77233705D01*
X137723289Y-77234126D01*
X137770837Y-77282790D01*
X137785123Y-77352334D01*
X137759543Y-77418563D01*
X137702218Y-77460447D01*
X137659584Y-77467889D01*
X133285528Y-77468819D01*
X127820524Y-77469982D01*
X127798876Y-77468112D01*
X127785461Y-77465774D01*
X127780594Y-77465686D01*
X127683864Y-77463937D01*
X127676255Y-77463569D01*
X127658659Y-77462184D01*
X127648836Y-77461022D01*
X127548779Y-77445175D01*
X127519028Y-77440463D01*
X127509320Y-77438531D01*
X127505660Y-77437652D01*
X127496148Y-77434969D01*
X127371155Y-77394356D01*
X127361886Y-77390937D01*
X127361757Y-77390884D01*
X127358426Y-77389504D01*
X127349436Y-77385360D01*
X127232321Y-77325686D01*
X127223681Y-77320847D01*
X127220493Y-77318893D01*
X127212277Y-77313403D01*
X127142427Y-77262655D01*
X127105936Y-77236142D01*
X127098181Y-77230028D01*
X127095309Y-77227575D01*
X127088055Y-77220869D01*
X126995127Y-77127940D01*
X126988412Y-77120676D01*
X126985971Y-77117818D01*
X126979846Y-77110048D01*
X126970775Y-77097562D01*
X126936307Y-77050122D01*
X126902599Y-77003726D01*
X126897105Y-76995504D01*
X126895150Y-76992314D01*
X126890313Y-76983678D01*
X126830641Y-76866566D01*
X126826494Y-76857569D01*
X126825060Y-76854106D01*
X126821641Y-76844837D01*
X126781030Y-76719852D01*
X126778350Y-76710353D01*
X126777466Y-76706669D01*
X126775539Y-76696985D01*
X126754977Y-76567156D01*
X126753814Y-76557332D01*
X126752431Y-76539758D01*
X126752064Y-76532152D01*
X126750366Y-76438299D01*
X126750285Y-76433816D01*
X126747616Y-76417312D01*
X126746000Y-76397197D01*
X126746000Y-74715000D01*
X127136500Y-74715000D01*
X127136500Y-76415000D01*
X127141727Y-76488079D01*
X127145191Y-76499875D01*
X127179338Y-76616170D01*
X127182904Y-76628316D01*
X127187775Y-76635895D01*
X127257051Y-76743691D01*
X127257053Y-76743694D01*
X127261923Y-76751271D01*
X127268733Y-76757172D01*
X127365569Y-76841082D01*
X127365572Y-76841084D01*
X127372381Y-76846984D01*
X127380579Y-76850728D01*
X127492998Y-76902068D01*
X127505330Y-76907700D01*
X127514245Y-76908982D01*
X127514246Y-76908982D01*
X127645552Y-76927861D01*
X127645559Y-76927862D01*
X127650000Y-76928500D01*
X129350000Y-76928500D01*
X129423079Y-76923273D01*
X129517179Y-76895643D01*
X129554670Y-76884635D01*
X129554672Y-76884634D01*
X129563316Y-76882096D01*
X129603835Y-76856056D01*
X129678691Y-76807949D01*
X129678694Y-76807947D01*
X129686271Y-76803077D01*
X129711086Y-76774439D01*
X129776082Y-76699431D01*
X129776084Y-76699428D01*
X129781984Y-76692619D01*
X129842700Y-76559670D01*
X129843320Y-76555360D01*
X129880432Y-76497610D01*
X129945012Y-76468117D01*
X130015286Y-76478220D01*
X130047335Y-76499270D01*
X130215629Y-76651069D01*
X130220142Y-76653928D01*
X130220144Y-76653929D01*
X130272123Y-76686852D01*
X130410406Y-76774439D01*
X130623184Y-76863228D01*
X130628387Y-76864425D01*
X130628392Y-76864426D01*
X130842678Y-76913701D01*
X130842683Y-76913702D01*
X130847881Y-76914897D01*
X130853209Y-76915200D01*
X130853212Y-76915200D01*
X131003877Y-76923755D01*
X131078071Y-76927968D01*
X131083378Y-76927368D01*
X131083380Y-76927368D01*
X131204272Y-76913701D01*
X131307173Y-76902068D01*
X131312288Y-76900587D01*
X131312292Y-76900586D01*
X131437161Y-76864426D01*
X131528635Y-76837937D01*
X131736125Y-76737409D01*
X131740463Y-76734309D01*
X131740468Y-76734306D01*
X131919370Y-76606459D01*
X131923711Y-76603357D01*
X132086030Y-76439617D01*
X132164679Y-76327503D01*
X132207953Y-76265816D01*
X132263449Y-76221536D01*
X132334075Y-76214289D01*
X132397407Y-76246375D01*
X132421781Y-76277958D01*
X132439550Y-76310617D01*
X132445402Y-76319491D01*
X132581486Y-76492113D01*
X132588750Y-76499875D01*
X132751967Y-76647094D01*
X132760444Y-76653528D01*
X132946122Y-76771136D01*
X132955567Y-76776053D01*
X133158406Y-76860694D01*
X133168545Y-76863950D01*
X133308345Y-76896096D01*
X133322422Y-76895257D01*
X133326000Y-76885999D01*
X133326000Y-75832548D01*
X133834000Y-75832548D01*
X133834000Y-76884941D01*
X133838151Y-76899079D01*
X133848798Y-76900774D01*
X133852192Y-76900096D01*
X134063333Y-76838954D01*
X134073259Y-76835143D01*
X134271065Y-76739307D01*
X134280212Y-76733876D01*
X134459041Y-76606083D01*
X134467149Y-76599182D01*
X134621893Y-76443082D01*
X134628706Y-76434933D01*
X134754940Y-76254988D01*
X134760295Y-76245787D01*
X134854399Y-76047156D01*
X134858123Y-76037197D01*
X134915968Y-75830718D01*
X134914430Y-75822351D01*
X134902137Y-75819000D01*
X133852115Y-75819000D01*
X133836876Y-75823475D01*
X133835671Y-75824865D01*
X133834000Y-75832548D01*
X133326000Y-75832548D01*
X133326000Y-74248717D01*
X133325328Y-74246430D01*
X133834000Y-74246430D01*
X133834000Y-75292885D01*
X133838475Y-75308124D01*
X133839865Y-75309329D01*
X133847548Y-75311000D01*
X134899079Y-75311000D01*
X134912610Y-75307027D01*
X134913876Y-75298218D01*
X134866954Y-75117433D01*
X134863419Y-75107395D01*
X134773147Y-74906998D01*
X134767967Y-74897692D01*
X134645218Y-74715366D01*
X134638557Y-74707080D01*
X134486830Y-74548030D01*
X134478873Y-74540990D01*
X134302523Y-74409782D01*
X134293486Y-74404178D01*
X134097550Y-74304559D01*
X134087699Y-74300559D01*
X133877778Y-74235378D01*
X133867396Y-74233095D01*
X133851959Y-74231049D01*
X133837792Y-74233246D01*
X133834000Y-74246430D01*
X133325328Y-74246430D01*
X133322027Y-74235186D01*
X133311420Y-74233661D01*
X133193554Y-74258391D01*
X133183358Y-74261451D01*
X132978932Y-74342182D01*
X132969396Y-74346916D01*
X132781486Y-74460942D01*
X132772896Y-74467206D01*
X132606884Y-74611264D01*
X132599464Y-74618895D01*
X132460100Y-74788860D01*
X132454079Y-74797622D01*
X132420427Y-74856739D01*
X132369344Y-74906045D01*
X132299714Y-74919906D01*
X132233643Y-74893922D01*
X132206405Y-74864773D01*
X132157886Y-74792705D01*
X132102627Y-74710626D01*
X132058388Y-74664251D01*
X131999099Y-74602101D01*
X131943482Y-74543799D01*
X131922920Y-74528500D01*
X131762786Y-74409357D01*
X131762787Y-74409357D01*
X131758504Y-74406171D01*
X131753753Y-74403755D01*
X131753749Y-74403753D01*
X131557740Y-74304097D01*
X131557739Y-74304097D01*
X131552982Y-74301678D01*
X131427965Y-74262859D01*
X131337895Y-74234891D01*
X131337889Y-74234890D01*
X131332792Y-74233307D01*
X131227798Y-74219391D01*
X131109515Y-74203714D01*
X131109510Y-74203714D01*
X131104230Y-74203014D01*
X131098900Y-74203214D01*
X131098899Y-74203214D01*
X131005320Y-74206727D01*
X130873831Y-74211663D01*
X130829246Y-74221018D01*
X130653411Y-74257912D01*
X130653408Y-74257913D01*
X130648184Y-74259009D01*
X130433740Y-74343697D01*
X130236631Y-74463306D01*
X130232601Y-74466803D01*
X130072177Y-74606011D01*
X130062492Y-74614415D01*
X130057339Y-74620700D01*
X130056364Y-74621365D01*
X130055390Y-74622366D01*
X130055186Y-74622168D01*
X129998681Y-74660695D01*
X129927710Y-74662628D01*
X129866961Y-74625885D01*
X129839008Y-74576309D01*
X129823577Y-74523758D01*
X129817096Y-74501684D01*
X129781039Y-74445579D01*
X129742949Y-74386309D01*
X129742947Y-74386306D01*
X129738077Y-74378729D01*
X129724703Y-74367140D01*
X129634431Y-74288918D01*
X129634428Y-74288916D01*
X129627619Y-74283016D01*
X129594719Y-74267991D01*
X129502864Y-74226042D01*
X129502863Y-74226042D01*
X129494670Y-74222300D01*
X129485755Y-74221018D01*
X129485754Y-74221018D01*
X129354448Y-74202139D01*
X129354441Y-74202138D01*
X129350000Y-74201500D01*
X127650000Y-74201500D01*
X127576921Y-74206727D01*
X127523884Y-74222300D01*
X127445330Y-74245365D01*
X127445328Y-74245366D01*
X127436684Y-74247904D01*
X127416350Y-74260972D01*
X127321309Y-74322051D01*
X127321306Y-74322053D01*
X127313729Y-74326923D01*
X127307828Y-74333733D01*
X127223918Y-74430569D01*
X127223916Y-74430572D01*
X127218016Y-74437381D01*
X127214272Y-74445579D01*
X127167269Y-74548502D01*
X127157300Y-74570330D01*
X127156018Y-74579245D01*
X127156018Y-74579246D01*
X127137139Y-74710552D01*
X127137138Y-74710559D01*
X127136500Y-74715000D01*
X126746000Y-74715000D01*
X126746000Y-70376896D01*
X126766002Y-70308775D01*
X126819658Y-70262282D01*
X126872000Y-70250896D01*
X126881301Y-70250896D01*
X126949422Y-70270898D01*
X126970397Y-70287801D01*
X127174596Y-70492001D01*
X127208621Y-70554313D01*
X127211500Y-70581096D01*
X127211500Y-72643886D01*
X127219383Y-72711500D01*
X127226117Y-72769255D01*
X127226978Y-72776643D01*
X127229474Y-72783521D01*
X127229475Y-72783523D01*
X127281775Y-72927608D01*
X127287313Y-72942864D01*
X127331190Y-73009788D01*
X127377894Y-73081023D01*
X127384269Y-73090747D01*
X127512645Y-73212358D01*
X127665555Y-73301175D01*
X127834796Y-73352433D01*
X127841236Y-73353008D01*
X127841237Y-73353008D01*
X127911185Y-73359251D01*
X127911191Y-73359251D01*
X127913978Y-73359500D01*
X128662886Y-73359500D01*
X128758106Y-73348398D01*
X128788371Y-73344870D01*
X128788372Y-73344870D01*
X128795643Y-73344022D01*
X128802521Y-73341526D01*
X128802523Y-73341525D01*
X128954985Y-73286184D01*
X128961864Y-73283687D01*
X129078337Y-73207324D01*
X129103628Y-73190743D01*
X129103629Y-73190742D01*
X129109747Y-73186731D01*
X129231358Y-73058355D01*
X129320175Y-72905445D01*
X129371433Y-72736204D01*
X129372016Y-72729677D01*
X129378251Y-72659815D01*
X129378251Y-72659809D01*
X129378500Y-72657022D01*
X129378500Y-71768548D01*
X130162000Y-71768548D01*
X130162000Y-72640223D01*
X130162424Y-72647524D01*
X130176617Y-72769255D01*
X130179963Y-72783410D01*
X130235263Y-72935761D01*
X130241773Y-72948760D01*
X130330641Y-73084306D01*
X130339965Y-73095458D01*
X130457629Y-73206922D01*
X130469276Y-73215635D01*
X130609429Y-73297043D01*
X130622754Y-73302837D01*
X130778700Y-73350068D01*
X130791323Y-73352516D01*
X130861184Y-73358751D01*
X130866779Y-73359000D01*
X130972885Y-73359000D01*
X130988124Y-73354525D01*
X130989329Y-73353135D01*
X130991000Y-73345452D01*
X130991000Y-71773115D01*
X130986525Y-71757876D01*
X130985135Y-71756671D01*
X130977452Y-71755000D01*
X130180115Y-71755000D01*
X130164876Y-71759475D01*
X130163671Y-71760865D01*
X130162000Y-71768548D01*
X129378500Y-71768548D01*
X129378500Y-70358114D01*
X129377295Y-70347779D01*
X130162000Y-70347779D01*
X130162000Y-71228885D01*
X130166475Y-71244124D01*
X130167865Y-71245329D01*
X130175548Y-71247000D01*
X130972885Y-71247000D01*
X130988124Y-71242525D01*
X130989329Y-71241135D01*
X130991000Y-71233452D01*
X130991000Y-69661115D01*
X130986525Y-69645876D01*
X130985135Y-69644671D01*
X130977452Y-69643000D01*
X130880777Y-69643000D01*
X130873476Y-69643424D01*
X130751745Y-69657617D01*
X130737590Y-69660963D01*
X130585239Y-69716263D01*
X130572240Y-69722773D01*
X130436694Y-69811641D01*
X130425542Y-69820965D01*
X130314078Y-69938629D01*
X130305365Y-69950276D01*
X130223957Y-70090429D01*
X130218163Y-70103754D01*
X130170932Y-70259700D01*
X130168484Y-70272323D01*
X130162249Y-70342184D01*
X130162000Y-70347779D01*
X129377295Y-70347779D01*
X129364032Y-70234016D01*
X129363870Y-70232629D01*
X129363870Y-70232628D01*
X129363022Y-70225357D01*
X129351215Y-70192827D01*
X129305184Y-70066015D01*
X129302687Y-70059136D01*
X129229158Y-69946985D01*
X129211179Y-69919562D01*
X129190556Y-69851626D01*
X129209936Y-69783326D01*
X129225078Y-69763824D01*
X129325922Y-69657371D01*
X129334635Y-69645724D01*
X129416043Y-69505571D01*
X129421837Y-69492246D01*
X129469068Y-69336300D01*
X129471516Y-69323677D01*
X129477751Y-69253816D01*
X129478000Y-69248221D01*
X129478000Y-69204615D01*
X129473525Y-69189376D01*
X129472135Y-69188171D01*
X129464452Y-69186500D01*
X128142000Y-69186500D01*
X128073879Y-69166498D01*
X128027386Y-69112842D01*
X128016000Y-69060500D01*
X128016000Y-68804500D01*
X128036002Y-68736379D01*
X128089658Y-68689886D01*
X128142000Y-68678500D01*
X129448874Y-68678500D01*
X129516995Y-68698502D01*
G37*
G04 #@! TD.AperFunction*
G04 #@! TA.AperFunction,Conductor*
G36*
X141747502Y-75734970D02*
G01*
X141793332Y-75762700D01*
X141900645Y-75864358D01*
X142053555Y-75953175D01*
X142186777Y-75993524D01*
X142212987Y-76001462D01*
X142222796Y-76004433D01*
X142229236Y-76005008D01*
X142229237Y-76005008D01*
X142299185Y-76011251D01*
X142299191Y-76011251D01*
X142301978Y-76011500D01*
X142925886Y-76011500D01*
X143021470Y-76000356D01*
X143051371Y-75996870D01*
X143051372Y-75996870D01*
X143058643Y-75996022D01*
X143126669Y-75971330D01*
X143197527Y-75966889D01*
X143259537Y-76001462D01*
X143293012Y-76064071D01*
X143295161Y-76100971D01*
X143294249Y-76111187D01*
X143294000Y-76116779D01*
X143294000Y-76160385D01*
X143298475Y-76175624D01*
X143299865Y-76176829D01*
X143307548Y-76178500D01*
X145636773Y-76178500D01*
X145704894Y-76198502D01*
X145751387Y-76252158D01*
X145753200Y-76257020D01*
X145755865Y-76259329D01*
X145763548Y-76261000D01*
X146662000Y-76261000D01*
X146730121Y-76281002D01*
X146776614Y-76334658D01*
X146788000Y-76387000D01*
X146788000Y-76643000D01*
X146767998Y-76711121D01*
X146714342Y-76757614D01*
X146662000Y-76769000D01*
X145374227Y-76769000D01*
X145306106Y-76748998D01*
X145259613Y-76695342D01*
X145257800Y-76690480D01*
X145255135Y-76688171D01*
X145247452Y-76686500D01*
X143312115Y-76686500D01*
X143296876Y-76690975D01*
X143295671Y-76692365D01*
X143294000Y-76700048D01*
X143294000Y-76734223D01*
X143294424Y-76741524D01*
X143308617Y-76863255D01*
X143311963Y-76877410D01*
X143367263Y-77029761D01*
X143373773Y-77042760D01*
X143462641Y-77178306D01*
X143471965Y-77189458D01*
X143535014Y-77249185D01*
X143570712Y-77310554D01*
X143567564Y-77381481D01*
X143526571Y-77439447D01*
X143460746Y-77466048D01*
X143448394Y-77466658D01*
X139659776Y-77467464D01*
X139591652Y-77447476D01*
X139545147Y-77393831D01*
X139535029Y-77323559D01*
X139564508Y-77258972D01*
X139591218Y-77235732D01*
X139810398Y-77093666D01*
X139814238Y-77091177D01*
X140022462Y-76908570D01*
X140028006Y-76902068D01*
X140199190Y-76701282D01*
X140199191Y-76701281D01*
X140202144Y-76697817D01*
X140206444Y-76690975D01*
X140347091Y-76467199D01*
X140347092Y-76467197D01*
X140349520Y-76463334D01*
X140461504Y-76210032D01*
X140491086Y-76103722D01*
X140528617Y-76043457D01*
X140592773Y-76013050D01*
X140612474Y-76011500D01*
X141100886Y-76011500D01*
X141196470Y-76000356D01*
X141226371Y-75996870D01*
X141226372Y-75996870D01*
X141233643Y-75996022D01*
X141240521Y-75993526D01*
X141240523Y-75993525D01*
X141392985Y-75938184D01*
X141399864Y-75935687D01*
X141547747Y-75838731D01*
X141574929Y-75810037D01*
X141615206Y-75767520D01*
X141676576Y-75731822D01*
X141747502Y-75734970D01*
G37*
G04 #@! TD.AperFunction*
G04 #@! TA.AperFunction,Conductor*
G36*
X159445488Y-57679259D02*
G01*
X159491993Y-57732904D01*
X159503389Y-57784677D01*
X159531786Y-63814841D01*
X159555671Y-68886707D01*
X159535990Y-68954921D01*
X159489498Y-68995083D01*
X159490528Y-68996715D01*
X159490527Y-68996716D01*
X159490526Y-68996716D01*
X159465555Y-69012472D01*
X159450481Y-69020605D01*
X159423611Y-69032822D01*
X159404197Y-69049550D01*
X159389190Y-69060654D01*
X159367514Y-69074331D01*
X159351910Y-69092000D01*
X159347977Y-69096453D01*
X159335781Y-69108500D01*
X159320223Y-69121905D01*
X159320220Y-69121909D01*
X159313422Y-69127766D01*
X159308542Y-69135295D01*
X159308541Y-69135296D01*
X159299483Y-69149271D01*
X159288193Y-69164145D01*
X159271231Y-69183351D01*
X159258683Y-69210077D01*
X159250367Y-69225048D01*
X159234310Y-69249821D01*
X159231737Y-69258425D01*
X159231736Y-69258427D01*
X159226966Y-69274377D01*
X159220304Y-69291822D01*
X159209416Y-69315013D01*
X159208036Y-69323877D01*
X159208033Y-69323886D01*
X159204873Y-69344180D01*
X159201092Y-69360891D01*
X159195207Y-69380572D01*
X159192635Y-69389174D01*
X159192580Y-69398146D01*
X159192580Y-69398147D01*
X159192434Y-69421998D01*
X159192316Y-69424838D01*
X159192000Y-69426865D01*
X159192000Y-69492622D01*
X159191998Y-69493392D01*
X159191746Y-69534622D01*
X159191984Y-69535454D01*
X159192000Y-69535692D01*
X159192000Y-71408296D01*
X159171998Y-71476417D01*
X159118342Y-71522910D01*
X159048068Y-71533014D01*
X158983488Y-71503520D01*
X158945104Y-71443794D01*
X158940848Y-71422887D01*
X158938383Y-71401746D01*
X158935037Y-71387590D01*
X158879737Y-71235239D01*
X158873227Y-71222240D01*
X158784359Y-71086694D01*
X158775035Y-71075542D01*
X158657371Y-70964078D01*
X158645724Y-70955365D01*
X158505571Y-70873957D01*
X158492246Y-70868163D01*
X158336300Y-70820932D01*
X158323677Y-70818484D01*
X158253816Y-70812249D01*
X158248221Y-70812000D01*
X158204615Y-70812000D01*
X158189376Y-70816475D01*
X158188171Y-70817865D01*
X158186500Y-70825548D01*
X158186500Y-73209885D01*
X158190975Y-73225124D01*
X158192365Y-73226329D01*
X158200048Y-73228000D01*
X158234223Y-73228000D01*
X158241524Y-73227576D01*
X158363255Y-73213383D01*
X158377410Y-73210037D01*
X158529761Y-73154737D01*
X158542760Y-73148227D01*
X158678306Y-73059359D01*
X158689458Y-73050035D01*
X158800922Y-72932371D01*
X158809635Y-72920724D01*
X158891043Y-72780571D01*
X158896840Y-72767238D01*
X158945410Y-72606873D01*
X158984299Y-72547475D01*
X159049127Y-72518531D01*
X159119313Y-72529231D01*
X159172572Y-72576177D01*
X159192000Y-72643396D01*
X159192000Y-74664251D01*
X159171998Y-74732372D01*
X159118342Y-74778865D01*
X159048068Y-74788969D01*
X159012352Y-74778259D01*
X158937055Y-74742827D01*
X158922087Y-74737964D01*
X158791824Y-74713114D01*
X158780039Y-74712000D01*
X158409615Y-74712000D01*
X158394376Y-74716475D01*
X158393171Y-74717865D01*
X158391500Y-74725548D01*
X158391500Y-76309885D01*
X158395975Y-76325124D01*
X158397365Y-76326329D01*
X158405048Y-76328000D01*
X158760621Y-76328000D01*
X158768511Y-76327503D01*
X158882016Y-76313165D01*
X158897249Y-76309254D01*
X159019616Y-76260805D01*
X159090316Y-76254326D01*
X159153296Y-76287098D01*
X159188560Y-76348718D01*
X159192000Y-76377957D01*
X159192000Y-77337336D01*
X159171998Y-77405457D01*
X159118342Y-77451950D01*
X159066029Y-77463336D01*
X157167664Y-77463740D01*
X157099542Y-77443752D01*
X157053038Y-77390107D01*
X157042919Y-77319835D01*
X157072398Y-77255248D01*
X157121255Y-77220589D01*
X157162271Y-77204349D01*
X157162276Y-77204346D01*
X157169644Y-77201429D01*
X157195459Y-77182674D01*
X157297783Y-77108331D01*
X157304197Y-77103671D01*
X157410212Y-76975521D01*
X157481026Y-76825033D01*
X157482511Y-76817250D01*
X157482512Y-76817246D01*
X157507386Y-76686852D01*
X157507386Y-76686849D01*
X157508500Y-76681011D01*
X157508500Y-76454000D01*
X157528502Y-76385879D01*
X157582158Y-76339386D01*
X157634500Y-76328000D01*
X157865385Y-76328000D01*
X157880624Y-76323525D01*
X157881829Y-76322135D01*
X157883500Y-76314452D01*
X157883500Y-75792115D01*
X157879025Y-75776876D01*
X157877635Y-75775671D01*
X157869952Y-75774000D01*
X157262667Y-75774000D01*
X157206511Y-75757684D01*
X157205521Y-75759788D01*
X157055033Y-75688974D01*
X157047250Y-75687489D01*
X157047246Y-75687488D01*
X156916852Y-75662614D01*
X156916849Y-75662614D01*
X156911011Y-75661500D01*
X155635421Y-75661500D01*
X155624443Y-75662887D01*
X155617852Y-75663719D01*
X155567312Y-75659741D01*
X155560636Y-75656852D01*
X155552807Y-75655612D01*
X155516965Y-75649935D01*
X155505344Y-75647528D01*
X155468282Y-75638013D01*
X155468281Y-75638013D01*
X155462525Y-75636535D01*
X155461969Y-75636500D01*
X155442048Y-75636500D01*
X155422338Y-75634949D01*
X155410386Y-75633056D01*
X155410385Y-75633056D01*
X155402556Y-75631816D01*
X155394664Y-75632562D01*
X155358918Y-75635941D01*
X155347060Y-75636500D01*
X155003478Y-75636500D01*
X154935357Y-75616498D01*
X154888864Y-75562842D01*
X154885039Y-75553490D01*
X154860185Y-75485017D01*
X154860184Y-75485015D01*
X154857687Y-75478136D01*
X154760731Y-75330253D01*
X154632355Y-75208642D01*
X154479445Y-75119825D01*
X154333164Y-75075521D01*
X154316395Y-75070442D01*
X154316394Y-75070442D01*
X154310204Y-75068567D01*
X154303764Y-75067992D01*
X154303763Y-75067992D01*
X154233815Y-75061749D01*
X154233809Y-75061749D01*
X154231022Y-75061500D01*
X153607114Y-75061500D01*
X153582842Y-75064330D01*
X153512864Y-75052349D01*
X153460472Y-75004438D01*
X153442299Y-74935806D01*
X153464116Y-74868245D01*
X153494195Y-74837240D01*
X153525705Y-74814348D01*
X153525710Y-74814343D01*
X153531051Y-74810463D01*
X153550404Y-74788969D01*
X153654418Y-74673450D01*
X153654419Y-74673449D01*
X153658837Y-74668542D01*
X153703317Y-74591500D01*
X153754699Y-74542507D01*
X153812436Y-74528500D01*
X154480406Y-74528500D01*
X154548527Y-74548502D01*
X154569501Y-74565405D01*
X155080034Y-75075938D01*
X155157302Y-75135873D01*
X155182008Y-75161368D01*
X155191329Y-75174197D01*
X155319479Y-75280212D01*
X155326652Y-75283587D01*
X155326653Y-75283588D01*
X155354667Y-75296770D01*
X155469967Y-75351026D01*
X155477750Y-75352511D01*
X155477754Y-75352512D01*
X155608148Y-75377386D01*
X155608151Y-75377386D01*
X155613989Y-75378500D01*
X156889579Y-75378500D01*
X156953207Y-75370462D01*
X157007141Y-75363649D01*
X157007144Y-75363648D01*
X157015006Y-75362655D01*
X157022372Y-75359738D01*
X157022374Y-75359738D01*
X157162275Y-75304347D01*
X157162277Y-75304346D01*
X157169644Y-75301429D01*
X157185288Y-75290063D01*
X157259348Y-75266000D01*
X157865385Y-75266000D01*
X157880624Y-75261525D01*
X157881829Y-75260135D01*
X157883500Y-75252452D01*
X157883500Y-74730115D01*
X157879025Y-74714876D01*
X157877635Y-74713671D01*
X157869952Y-74712000D01*
X157634500Y-74712000D01*
X157566379Y-74691998D01*
X157519886Y-74638342D01*
X157508500Y-74586000D01*
X157508500Y-74380421D01*
X157500231Y-74314963D01*
X157493649Y-74262859D01*
X157493648Y-74262856D01*
X157492655Y-74254994D01*
X157488843Y-74245365D01*
X157434347Y-74107725D01*
X157434346Y-74107723D01*
X157431429Y-74100356D01*
X157399512Y-74056425D01*
X157338331Y-73972217D01*
X157333671Y-73965803D01*
X157205521Y-73859788D01*
X157196201Y-73855402D01*
X157109495Y-73814602D01*
X157055033Y-73788974D01*
X157047250Y-73787489D01*
X157047246Y-73787488D01*
X156916852Y-73762614D01*
X156916849Y-73762614D01*
X156911011Y-73761500D01*
X155635421Y-73761500D01*
X155631491Y-73761996D01*
X155631482Y-73761997D01*
X155627388Y-73762514D01*
X155557298Y-73751205D01*
X155522506Y-73726602D01*
X155490405Y-73694501D01*
X155456379Y-73632189D01*
X155453500Y-73605406D01*
X155453500Y-73530421D01*
X155440072Y-73424124D01*
X155438649Y-73412859D01*
X155438648Y-73412856D01*
X155437655Y-73404994D01*
X155428989Y-73383105D01*
X155423024Y-73368040D01*
X155414051Y-73345377D01*
X155407572Y-73274678D01*
X155440344Y-73211698D01*
X155501963Y-73176434D01*
X155567725Y-73178404D01*
X155709796Y-73221433D01*
X155716236Y-73222008D01*
X155716237Y-73222008D01*
X155786185Y-73228251D01*
X155786191Y-73228251D01*
X155788978Y-73228500D01*
X156412886Y-73228500D01*
X156508106Y-73217398D01*
X156538371Y-73213870D01*
X156538372Y-73213870D01*
X156545643Y-73213022D01*
X156552521Y-73210526D01*
X156552523Y-73210525D01*
X156704985Y-73155184D01*
X156711864Y-73152687D01*
X156821170Y-73081023D01*
X156853628Y-73059743D01*
X156853629Y-73059742D01*
X156859747Y-73055731D01*
X156864778Y-73050420D01*
X156864783Y-73050416D01*
X156927547Y-72984160D01*
X156988916Y-72948461D01*
X157059842Y-72951608D01*
X157105673Y-72979339D01*
X157207629Y-73075922D01*
X157219276Y-73084635D01*
X157359429Y-73166043D01*
X157372754Y-73171837D01*
X157528700Y-73219068D01*
X157541323Y-73221516D01*
X157611184Y-73227751D01*
X157616779Y-73228000D01*
X157660385Y-73228000D01*
X157675624Y-73223525D01*
X157676829Y-73222135D01*
X157678500Y-73214452D01*
X157678500Y-70868292D01*
X157698502Y-70800171D01*
X157709276Y-70785779D01*
X157731598Y-70760018D01*
X157769068Y-70636300D01*
X157771516Y-70623677D01*
X157777751Y-70553816D01*
X157778000Y-70548221D01*
X157778000Y-70292115D01*
X157773525Y-70276876D01*
X157772135Y-70275671D01*
X157764452Y-70274000D01*
X156642000Y-70274000D01*
X156573879Y-70253998D01*
X156527386Y-70200342D01*
X156516000Y-70148000D01*
X156516000Y-68805115D01*
X156514659Y-68800548D01*
X157024000Y-68800548D01*
X157024000Y-69747885D01*
X157028475Y-69763124D01*
X157029865Y-69764329D01*
X157037548Y-69766000D01*
X157759885Y-69766000D01*
X157775124Y-69761525D01*
X157776329Y-69760135D01*
X157778000Y-69752452D01*
X157778000Y-69505777D01*
X157777576Y-69498476D01*
X157763383Y-69376745D01*
X157760037Y-69362590D01*
X157704737Y-69210239D01*
X157698227Y-69197240D01*
X157609359Y-69061694D01*
X157600035Y-69050542D01*
X157482371Y-68939078D01*
X157470724Y-68930365D01*
X157330571Y-68848957D01*
X157317246Y-68843163D01*
X157161300Y-68795932D01*
X157148677Y-68793484D01*
X157078816Y-68787249D01*
X157073221Y-68787000D01*
X157042115Y-68787000D01*
X157026876Y-68791475D01*
X157025671Y-68792865D01*
X157024000Y-68800548D01*
X156514659Y-68800548D01*
X156511525Y-68789876D01*
X156510135Y-68788671D01*
X156502452Y-68787000D01*
X156480777Y-68787000D01*
X156473476Y-68787424D01*
X156351745Y-68801617D01*
X156337590Y-68804963D01*
X156185239Y-68860263D01*
X156172240Y-68866773D01*
X156036694Y-68955641D01*
X156025542Y-68964965D01*
X155911081Y-69085793D01*
X155849712Y-69121491D01*
X155778785Y-69118344D01*
X155720819Y-69077350D01*
X155714237Y-69068226D01*
X155709745Y-69061375D01*
X155709744Y-69061374D01*
X155705731Y-69055253D01*
X155577355Y-68933642D01*
X155424445Y-68844825D01*
X155255204Y-68793567D01*
X155248764Y-68792992D01*
X155248763Y-68792992D01*
X155178815Y-68786749D01*
X155178809Y-68786749D01*
X155176022Y-68786500D01*
X154584594Y-68786500D01*
X154516473Y-68766498D01*
X154495499Y-68749595D01*
X154421871Y-68675967D01*
X154414511Y-68667879D01*
X154410453Y-68661485D01*
X154361601Y-68615610D01*
X154358760Y-68612856D01*
X154338446Y-68592542D01*
X154335035Y-68589897D01*
X154326013Y-68582191D01*
X154299557Y-68557347D01*
X154293781Y-68551923D01*
X154286837Y-68548106D01*
X154286835Y-68548104D01*
X154276027Y-68542162D01*
X154259503Y-68531308D01*
X154249766Y-68523755D01*
X154249765Y-68523755D01*
X154243503Y-68518897D01*
X154202927Y-68501338D01*
X154192270Y-68496117D01*
X154191912Y-68495920D01*
X154153528Y-68474818D01*
X154145845Y-68472846D01*
X154145844Y-68472845D01*
X154133912Y-68469781D01*
X154115208Y-68463377D01*
X154103895Y-68458481D01*
X154103888Y-68458479D01*
X154096616Y-68455332D01*
X154088792Y-68454093D01*
X154088789Y-68454092D01*
X154052945Y-68448415D01*
X154041324Y-68446008D01*
X154004262Y-68436493D01*
X154004261Y-68436493D01*
X153998505Y-68435015D01*
X153997949Y-68434980D01*
X153978028Y-68434980D01*
X153958318Y-68433429D01*
X153946366Y-68431536D01*
X153946365Y-68431536D01*
X153938536Y-68430296D01*
X153930644Y-68431042D01*
X153894898Y-68434421D01*
X153883040Y-68434980D01*
X150245509Y-68434980D01*
X150177388Y-68414978D01*
X150140137Y-68378065D01*
X150139042Y-68376394D01*
X150072731Y-68275253D01*
X149944355Y-68153642D01*
X149791445Y-68064825D01*
X149622204Y-68013567D01*
X149615764Y-68012992D01*
X149615763Y-68012992D01*
X149545815Y-68006749D01*
X149545809Y-68006749D01*
X149543022Y-68006500D01*
X149261610Y-68006500D01*
X149193489Y-67986498D01*
X149146996Y-67932842D01*
X149136892Y-67862568D01*
X149152656Y-67817215D01*
X149171498Y-67784776D01*
X149171499Y-67784774D01*
X149175175Y-67778445D01*
X149226433Y-67609204D01*
X149227081Y-67601942D01*
X149233251Y-67532815D01*
X149233251Y-67532809D01*
X149233500Y-67530022D01*
X149233500Y-67345352D01*
X149253502Y-67277231D01*
X149307158Y-67230738D01*
X149343707Y-67220346D01*
X149350923Y-67219434D01*
X149350927Y-67219433D01*
X149358788Y-67218440D01*
X149366153Y-67215524D01*
X149366157Y-67215523D01*
X149399901Y-67202163D01*
X149411130Y-67198318D01*
X149453578Y-67185986D01*
X149460406Y-67181948D01*
X149471011Y-67175677D01*
X149488762Y-67166981D01*
X149500226Y-67162442D01*
X149500229Y-67162440D01*
X149507600Y-67159522D01*
X149543368Y-67133535D01*
X149553291Y-67127016D01*
X149559642Y-67123260D01*
X149591341Y-67104514D01*
X149591759Y-67104145D01*
X149605842Y-67090062D01*
X149620867Y-67077228D01*
X149637083Y-67065446D01*
X149642266Y-67059180D01*
X149642399Y-67059091D01*
X149647915Y-67053911D01*
X149648751Y-67054801D01*
X149701102Y-67019445D01*
X149739348Y-67013500D01*
X150600000Y-67013500D01*
X150673079Y-67008273D01*
X150776674Y-66977855D01*
X150804670Y-66969635D01*
X150804672Y-66969634D01*
X150813316Y-66967096D01*
X150838899Y-66950654D01*
X150845316Y-66946531D01*
X150913437Y-66926530D01*
X150981558Y-66946533D01*
X151002531Y-66963435D01*
X151009938Y-66970842D01*
X151022772Y-66985867D01*
X151034554Y-67002083D01*
X151040662Y-67007136D01*
X151040663Y-67007137D01*
X151044581Y-67010378D01*
X151084321Y-67069210D01*
X151089579Y-67094295D01*
X151106462Y-67254927D01*
X151165476Y-67436554D01*
X151260963Y-67601942D01*
X151388749Y-67743863D01*
X151394091Y-67747744D01*
X151394093Y-67747746D01*
X151534869Y-67850025D01*
X151543250Y-67856114D01*
X151549278Y-67858798D01*
X151549280Y-67858799D01*
X151638668Y-67898597D01*
X151717713Y-67933790D01*
X151811113Y-67953643D01*
X151898056Y-67972124D01*
X151898061Y-67972124D01*
X151904513Y-67973496D01*
X152095487Y-67973496D01*
X152101939Y-67972124D01*
X152101944Y-67972124D01*
X152188887Y-67953643D01*
X152282287Y-67933790D01*
X152361332Y-67898597D01*
X152450720Y-67858799D01*
X152450722Y-67858798D01*
X152456750Y-67856114D01*
X152465131Y-67850025D01*
X152605907Y-67747746D01*
X152605909Y-67747744D01*
X152611251Y-67743863D01*
X152739037Y-67601942D01*
X152834524Y-67436554D01*
X152893538Y-67254927D01*
X152897269Y-67219434D01*
X152912810Y-67071565D01*
X152913500Y-67065000D01*
X152906887Y-67002083D01*
X152894228Y-66881637D01*
X152894228Y-66881636D01*
X152893538Y-66875073D01*
X152834524Y-66693446D01*
X152739037Y-66528058D01*
X152611251Y-66386137D01*
X152605909Y-66382256D01*
X152605907Y-66382254D01*
X152462092Y-66277767D01*
X152462091Y-66277766D01*
X152456750Y-66273886D01*
X152450722Y-66271202D01*
X152450720Y-66271201D01*
X152288318Y-66198895D01*
X152288317Y-66198895D01*
X152282287Y-66196210D01*
X152233303Y-66185798D01*
X152170829Y-66152069D01*
X152136508Y-66089920D01*
X152133500Y-66062551D01*
X152133500Y-64287055D01*
X152134014Y-64276151D01*
X152135666Y-64268760D01*
X152133562Y-64201806D01*
X152133500Y-64197848D01*
X152133500Y-64169094D01*
X152132961Y-64164827D01*
X152132027Y-64152977D01*
X152130888Y-64116712D01*
X152130639Y-64108789D01*
X152124988Y-64089338D01*
X152120978Y-64069976D01*
X152119433Y-64057745D01*
X152118440Y-64049884D01*
X152102166Y-64008780D01*
X152098321Y-63997550D01*
X152088198Y-63962706D01*
X152088197Y-63962704D01*
X152085986Y-63955093D01*
X152075677Y-63937661D01*
X152066980Y-63919908D01*
X152062442Y-63908447D01*
X152059522Y-63901072D01*
X152033531Y-63865298D01*
X152027016Y-63855379D01*
X152007529Y-63822430D01*
X152007527Y-63822427D01*
X152004513Y-63817331D01*
X152004145Y-63816913D01*
X151990062Y-63802830D01*
X151977228Y-63787805D01*
X151965446Y-63771589D01*
X151931664Y-63743642D01*
X151922885Y-63735653D01*
X151275941Y-63088709D01*
X151241915Y-63026397D01*
X151246980Y-62955582D01*
X151256082Y-62936329D01*
X151271040Y-62910577D01*
X151276838Y-62897242D01*
X151324068Y-62741300D01*
X151326516Y-62728677D01*
X151332751Y-62658816D01*
X151333000Y-62653221D01*
X151333000Y-62622115D01*
X151328525Y-62606876D01*
X151327135Y-62605671D01*
X151319452Y-62604000D01*
X149972000Y-62604000D01*
X149903879Y-62583998D01*
X149857386Y-62530342D01*
X149846000Y-62478000D01*
X149846000Y-61360115D01*
X149844659Y-61355548D01*
X150354000Y-61355548D01*
X150354000Y-62077885D01*
X150358475Y-62093124D01*
X150359865Y-62094329D01*
X150367548Y-62096000D01*
X151314885Y-62096000D01*
X151330124Y-62091525D01*
X151331329Y-62090135D01*
X151333000Y-62082452D01*
X151333000Y-62060777D01*
X151332576Y-62053476D01*
X151318383Y-61931745D01*
X151315037Y-61917590D01*
X151259737Y-61765239D01*
X151253227Y-61752240D01*
X151164359Y-61616694D01*
X151155035Y-61605542D01*
X151037371Y-61494078D01*
X151025724Y-61485365D01*
X150885571Y-61403957D01*
X150872246Y-61398163D01*
X150716300Y-61350932D01*
X150703677Y-61348484D01*
X150633816Y-61342249D01*
X150628221Y-61342000D01*
X150372115Y-61342000D01*
X150356876Y-61346475D01*
X150355671Y-61347865D01*
X150354000Y-61355548D01*
X149844659Y-61355548D01*
X149841525Y-61344876D01*
X149840135Y-61343671D01*
X149832452Y-61342000D01*
X149585777Y-61342000D01*
X149578476Y-61342424D01*
X149456745Y-61356617D01*
X149442590Y-61359963D01*
X149290239Y-61415263D01*
X149277240Y-61421773D01*
X149203541Y-61470092D01*
X149135606Y-61490715D01*
X149067305Y-61471335D01*
X149045361Y-61453815D01*
X148880335Y-61288789D01*
X148846309Y-61226477D01*
X148843430Y-61199694D01*
X148843430Y-60753314D01*
X148843944Y-60742410D01*
X148845596Y-60735019D01*
X148843492Y-60668064D01*
X148843430Y-60664107D01*
X148843430Y-60635352D01*
X148842891Y-60631085D01*
X148841957Y-60619235D01*
X148841916Y-60617913D01*
X148840569Y-60575047D01*
X148834918Y-60555596D01*
X148830908Y-60536234D01*
X148829363Y-60524000D01*
X148829362Y-60523997D01*
X148828370Y-60516142D01*
X148825454Y-60508777D01*
X148825453Y-60508773D01*
X148812093Y-60475029D01*
X148808248Y-60463800D01*
X148798127Y-60428964D01*
X148795916Y-60421352D01*
X148791878Y-60414524D01*
X148785607Y-60403919D01*
X148776911Y-60386168D01*
X148772372Y-60374704D01*
X148772370Y-60374701D01*
X148769452Y-60367330D01*
X148743465Y-60331562D01*
X148736946Y-60321639D01*
X148717478Y-60288720D01*
X148714444Y-60283589D01*
X148714075Y-60283171D01*
X148699992Y-60269088D01*
X148687158Y-60254063D01*
X148675376Y-60237847D01*
X148641594Y-60209900D01*
X148632815Y-60201911D01*
X148119499Y-59688595D01*
X148085473Y-59626283D01*
X148090538Y-59555468D01*
X148133085Y-59498632D01*
X148199605Y-59473821D01*
X148208594Y-59473500D01*
X148417886Y-59473500D01*
X148513106Y-59462398D01*
X148543371Y-59458870D01*
X148543372Y-59458870D01*
X148550643Y-59458022D01*
X148557521Y-59455526D01*
X148557523Y-59455525D01*
X148709985Y-59400184D01*
X148716864Y-59397687D01*
X148820661Y-59329635D01*
X148858628Y-59304743D01*
X148858629Y-59304742D01*
X148864747Y-59300731D01*
X148986358Y-59172355D01*
X149075175Y-59019445D01*
X149126433Y-58850204D01*
X149128842Y-58823211D01*
X149133251Y-58773815D01*
X149133251Y-58773809D01*
X149133500Y-58771022D01*
X149133500Y-57787422D01*
X149153502Y-57719301D01*
X149207158Y-57672808D01*
X149259471Y-57661422D01*
X152795487Y-57660670D01*
X159377363Y-57659271D01*
X159445488Y-57679259D01*
G37*
G04 #@! TD.AperFunction*
G04 #@! TA.AperFunction,Conductor*
G36*
X149603621Y-73348502D02*
G01*
X149650114Y-73402158D01*
X149661500Y-73454500D01*
X149661500Y-74533980D01*
X149641498Y-74602101D01*
X149587842Y-74648594D01*
X149535500Y-74659980D01*
X149504000Y-74659980D01*
X149435879Y-74639978D01*
X149389386Y-74586322D01*
X149378000Y-74533980D01*
X149378000Y-74229615D01*
X149373525Y-74214376D01*
X149372135Y-74213171D01*
X149364452Y-74211500D01*
X148442000Y-74211500D01*
X148373879Y-74191498D01*
X148327386Y-74137842D01*
X148316000Y-74085500D01*
X148316000Y-73829500D01*
X148336002Y-73761379D01*
X148389658Y-73714886D01*
X148442000Y-73703500D01*
X149359885Y-73703500D01*
X149375124Y-73699025D01*
X149376329Y-73697635D01*
X149378000Y-73689952D01*
X149378000Y-73454500D01*
X149398002Y-73386379D01*
X149451658Y-73339886D01*
X149504000Y-73328500D01*
X149535500Y-73328500D01*
X149603621Y-73348502D01*
G37*
G04 #@! TD.AperFunction*
G04 #@! TA.AperFunction,Conductor*
G36*
X146890302Y-72047206D02*
G01*
X146904286Y-72065164D01*
X146915923Y-72083271D01*
X146922733Y-72089172D01*
X147019569Y-72173082D01*
X147019572Y-72173084D01*
X147026381Y-72178984D01*
X147126896Y-72224888D01*
X147180550Y-72271380D01*
X147200552Y-72339501D01*
X147189658Y-72390752D01*
X147188781Y-72392721D01*
X147185476Y-72398446D01*
X147183434Y-72404731D01*
X147131381Y-72564935D01*
X147126462Y-72580073D01*
X147125772Y-72586636D01*
X147125772Y-72586637D01*
X147119755Y-72643886D01*
X147106500Y-72770000D01*
X147107190Y-72776565D01*
X147124124Y-72937678D01*
X147126462Y-72959927D01*
X147128502Y-72966205D01*
X147128502Y-72966206D01*
X147158443Y-73058355D01*
X147185476Y-73141554D01*
X147188779Y-73147276D01*
X147188780Y-73147277D01*
X147193345Y-73155184D01*
X147280963Y-73306942D01*
X147285381Y-73311849D01*
X147285382Y-73311850D01*
X147408749Y-73448863D01*
X147406692Y-73450716D01*
X147437515Y-73500765D01*
X147436151Y-73571749D01*
X147396627Y-73630727D01*
X147331492Y-73658974D01*
X147279437Y-73654525D01*
X147144204Y-73613567D01*
X147137764Y-73612992D01*
X147137763Y-73612992D01*
X147067815Y-73606749D01*
X147067809Y-73606749D01*
X147065022Y-73606500D01*
X146016114Y-73606500D01*
X145920894Y-73617602D01*
X145890629Y-73621130D01*
X145890628Y-73621130D01*
X145883357Y-73621978D01*
X145876479Y-73624474D01*
X145876477Y-73624475D01*
X145728200Y-73678297D01*
X145717136Y-73682313D01*
X145590363Y-73765429D01*
X145522428Y-73786052D01*
X145454127Y-73766672D01*
X145407147Y-73713443D01*
X145396402Y-73643264D01*
X145426053Y-73577545D01*
X145446082Y-73554430D01*
X145451984Y-73547619D01*
X145507756Y-73425496D01*
X145508958Y-73422864D01*
X145508958Y-73422863D01*
X145512700Y-73414670D01*
X145520944Y-73357329D01*
X145532861Y-73274448D01*
X145532862Y-73274441D01*
X145533500Y-73270000D01*
X145533500Y-73052918D01*
X145553502Y-72984797D01*
X145607158Y-72938304D01*
X145671350Y-72927824D01*
X145674513Y-72928496D01*
X145865487Y-72928496D01*
X145871939Y-72927124D01*
X145871944Y-72927124D01*
X145973932Y-72905445D01*
X146052287Y-72888790D01*
X146095393Y-72869598D01*
X146220720Y-72813799D01*
X146220722Y-72813798D01*
X146226750Y-72811114D01*
X146232092Y-72807233D01*
X146375907Y-72702746D01*
X146375909Y-72702744D01*
X146381251Y-72698863D01*
X146385673Y-72693952D01*
X146504618Y-72561850D01*
X146504619Y-72561849D01*
X146509037Y-72556942D01*
X146586511Y-72422754D01*
X146601220Y-72397277D01*
X146601221Y-72397276D01*
X146604524Y-72391554D01*
X146663538Y-72209927D01*
X146667411Y-72173082D01*
X146672978Y-72120113D01*
X146699991Y-72054456D01*
X146758213Y-72013827D01*
X146829158Y-72011124D01*
X146890302Y-72047206D01*
G37*
G04 #@! TD.AperFunction*
G04 #@! TA.AperFunction,Conductor*
G36*
X151303621Y-69786002D02*
G01*
X151350114Y-69839658D01*
X151361500Y-69892000D01*
X151361500Y-71209885D01*
X151365975Y-71225124D01*
X151367365Y-71226329D01*
X151375048Y-71228000D01*
X151409223Y-71228000D01*
X151416524Y-71227576D01*
X151538255Y-71213383D01*
X151552410Y-71210037D01*
X151704761Y-71154737D01*
X151717760Y-71148227D01*
X151853306Y-71059359D01*
X151864458Y-71050035D01*
X151926845Y-70984178D01*
X151988214Y-70948480D01*
X152059141Y-70951628D01*
X152104971Y-70979358D01*
X152212645Y-71081358D01*
X152221832Y-71086694D01*
X152236285Y-71095089D01*
X152285144Y-71146599D01*
X152299000Y-71204043D01*
X152299000Y-71835500D01*
X152278998Y-71903621D01*
X152225342Y-71950114D01*
X152173000Y-71961500D01*
X151705421Y-71961500D01*
X151646307Y-71968968D01*
X151587859Y-71976351D01*
X151587856Y-71976352D01*
X151579994Y-71977345D01*
X151572628Y-71980262D01*
X151572626Y-71980262D01*
X151432725Y-72035653D01*
X151432723Y-72035654D01*
X151425356Y-72038571D01*
X151418945Y-72043229D01*
X151418943Y-72043230D01*
X151307135Y-72124463D01*
X151290803Y-72136329D01*
X151184788Y-72264479D01*
X151113974Y-72414967D01*
X151112489Y-72422750D01*
X151112488Y-72422754D01*
X151088696Y-72547475D01*
X151086500Y-72558989D01*
X151086500Y-72663467D01*
X151066498Y-72731588D01*
X151012842Y-72778081D01*
X150942568Y-72788185D01*
X150906852Y-72777475D01*
X150900245Y-72774366D01*
X150825033Y-72738974D01*
X150817250Y-72737489D01*
X150817246Y-72737488D01*
X150686852Y-72712614D01*
X150686849Y-72712614D01*
X150681011Y-72711500D01*
X150454500Y-72711500D01*
X150386379Y-72691498D01*
X150339886Y-72637842D01*
X150328500Y-72585500D01*
X150328500Y-71455421D01*
X150312655Y-71329994D01*
X150295881Y-71287628D01*
X150289402Y-71216928D01*
X150322174Y-71153948D01*
X150383794Y-71118684D01*
X150454696Y-71122332D01*
X150476319Y-71132290D01*
X150534429Y-71166043D01*
X150547754Y-71171837D01*
X150703700Y-71219068D01*
X150716323Y-71221516D01*
X150786184Y-71227751D01*
X150791779Y-71228000D01*
X150835385Y-71228000D01*
X150850624Y-71223525D01*
X150851829Y-71222135D01*
X150853500Y-71214452D01*
X150853500Y-69892000D01*
X150873502Y-69823879D01*
X150927158Y-69777386D01*
X150979500Y-69766000D01*
X151235500Y-69766000D01*
X151303621Y-69786002D01*
G37*
G04 #@! TD.AperFunction*
G04 #@! TA.AperFunction,Conductor*
G36*
X146390951Y-69870234D02*
G01*
X146422094Y-69918102D01*
X146429545Y-69938629D01*
X146454313Y-70006864D01*
X146458324Y-70012981D01*
X146458326Y-70012986D01*
X146474094Y-70037035D01*
X146494718Y-70104970D01*
X146475339Y-70173271D01*
X146422110Y-70220252D01*
X146351931Y-70230997D01*
X146315075Y-70220129D01*
X146257056Y-70192827D01*
X146242087Y-70187964D01*
X146111824Y-70163114D01*
X146100039Y-70162000D01*
X145729615Y-70162000D01*
X145714376Y-70166475D01*
X145713171Y-70167865D01*
X145711500Y-70175548D01*
X145711500Y-71001609D01*
X145691498Y-71069730D01*
X145637842Y-71116223D01*
X145611698Y-71124855D01*
X145584784Y-71130576D01*
X145554628Y-71133268D01*
X145547887Y-71133056D01*
X145540056Y-71131816D01*
X145532164Y-71132562D01*
X145496418Y-71135941D01*
X145484560Y-71136500D01*
X143348383Y-71136500D01*
X143337479Y-71135986D01*
X143330088Y-71134334D01*
X143322162Y-71134583D01*
X143322161Y-71134583D01*
X143263134Y-71136438D01*
X143259176Y-71136500D01*
X143230422Y-71136500D01*
X143226155Y-71137039D01*
X143214313Y-71137972D01*
X143182665Y-71138967D01*
X143178040Y-71139112D01*
X143170117Y-71139361D01*
X143150667Y-71145012D01*
X143131305Y-71149022D01*
X143111212Y-71151560D01*
X143077349Y-71164967D01*
X143070108Y-71167834D01*
X143058878Y-71171679D01*
X143024034Y-71181802D01*
X143024032Y-71181803D01*
X143016421Y-71184014D01*
X143009597Y-71188050D01*
X142998988Y-71194324D01*
X142981241Y-71203018D01*
X142962400Y-71210478D01*
X142955984Y-71215139D01*
X142955983Y-71215140D01*
X142928562Y-71235063D01*
X142861694Y-71258922D01*
X142792543Y-71242843D01*
X142743062Y-71191929D01*
X142728500Y-71133128D01*
X142728500Y-70941608D01*
X142748502Y-70873487D01*
X142802158Y-70826994D01*
X142878109Y-70817840D01*
X142933989Y-70828500D01*
X144209579Y-70828500D01*
X144269486Y-70820932D01*
X144327141Y-70813649D01*
X144327144Y-70813648D01*
X144335006Y-70812655D01*
X144342372Y-70809738D01*
X144342374Y-70809738D01*
X144482275Y-70754347D01*
X144482277Y-70754346D01*
X144489644Y-70751429D01*
X144505288Y-70740063D01*
X144579348Y-70716000D01*
X145185385Y-70716000D01*
X145200624Y-70711525D01*
X145201829Y-70710135D01*
X145203500Y-70702452D01*
X145203500Y-70180115D01*
X145199025Y-70164876D01*
X145197635Y-70163671D01*
X145189952Y-70162000D01*
X144954500Y-70162000D01*
X144886379Y-70141998D01*
X144839886Y-70088342D01*
X144828500Y-70036000D01*
X144828500Y-70004500D01*
X144848502Y-69936379D01*
X144902158Y-69889886D01*
X144954500Y-69878500D01*
X146084579Y-69878500D01*
X146150012Y-69870234D01*
X146202141Y-69863649D01*
X146202144Y-69863648D01*
X146210006Y-69862655D01*
X146217372Y-69859738D01*
X146217378Y-69859737D01*
X146257270Y-69843942D01*
X146327971Y-69837461D01*
X146390951Y-69870234D01*
G37*
G04 #@! TD.AperFunction*
G04 #@! TA.AperFunction,Conductor*
G36*
X150028151Y-70305106D02*
G01*
X150075131Y-70358335D01*
X150087000Y-70411721D01*
X150087000Y-70509223D01*
X150087424Y-70516524D01*
X150101617Y-70638255D01*
X150104963Y-70652410D01*
X150140764Y-70751040D01*
X150145205Y-70821897D01*
X150110632Y-70883908D01*
X150048023Y-70917383D01*
X149977255Y-70911694D01*
X149968677Y-70908039D01*
X149882207Y-70867350D01*
X149882208Y-70867350D01*
X149875033Y-70863974D01*
X149867250Y-70862489D01*
X149867246Y-70862488D01*
X149736852Y-70837614D01*
X149736849Y-70837614D01*
X149731011Y-70836500D01*
X149330421Y-70836500D01*
X149271307Y-70843968D01*
X149212859Y-70851351D01*
X149212856Y-70851352D01*
X149204994Y-70852345D01*
X149197628Y-70855262D01*
X149197626Y-70855262D01*
X149057725Y-70910653D01*
X149057723Y-70910654D01*
X149050356Y-70913571D01*
X149043945Y-70918229D01*
X149043943Y-70918230D01*
X149017561Y-70937398D01*
X148950693Y-70961257D01*
X148881542Y-70945176D01*
X148832061Y-70894262D01*
X148817500Y-70835462D01*
X148817500Y-70747000D01*
X148812273Y-70673921D01*
X148786163Y-70584998D01*
X148786163Y-70514002D01*
X148824547Y-70454275D01*
X148889128Y-70424782D01*
X148907059Y-70423500D01*
X149529886Y-70423500D01*
X149639425Y-70410729D01*
X149655371Y-70408870D01*
X149655372Y-70408870D01*
X149662643Y-70408022D01*
X149669521Y-70405526D01*
X149669523Y-70405525D01*
X149821985Y-70350184D01*
X149828864Y-70347687D01*
X149891915Y-70306349D01*
X149959851Y-70285726D01*
X150028151Y-70305106D01*
G37*
G04 #@! TD.AperFunction*
G04 #@! TA.AperFunction,Conductor*
G36*
X139897819Y-68090689D02*
G01*
X139946162Y-68123916D01*
X139947269Y-68122747D01*
X140075645Y-68244358D01*
X140228555Y-68333175D01*
X140235560Y-68335297D01*
X140235561Y-68335297D01*
X140298707Y-68354422D01*
X140358105Y-68393311D01*
X140387048Y-68458140D01*
X140376348Y-68528326D01*
X140374675Y-68531526D01*
X140373501Y-68534226D01*
X140369825Y-68540555D01*
X140318567Y-68709796D01*
X140311500Y-68788978D01*
X140311500Y-69367906D01*
X140291498Y-69436027D01*
X140274595Y-69457001D01*
X140206838Y-69524758D01*
X140144526Y-69558784D01*
X140073711Y-69553719D01*
X140016875Y-69511172D01*
X140000613Y-69478685D01*
X139997135Y-69475671D01*
X139989452Y-69474000D01*
X138642000Y-69474000D01*
X138573879Y-69453998D01*
X138527386Y-69400342D01*
X138516000Y-69348000D01*
X138516000Y-69092000D01*
X138536002Y-69023879D01*
X138589658Y-68977386D01*
X138642000Y-68966000D01*
X139984885Y-68966000D01*
X140000124Y-68961525D01*
X140001329Y-68960135D01*
X140003000Y-68952452D01*
X140003000Y-68930777D01*
X140002576Y-68923476D01*
X139988383Y-68801745D01*
X139985037Y-68787590D01*
X139929737Y-68635239D01*
X139923227Y-68622240D01*
X139834359Y-68486694D01*
X139825035Y-68475542D01*
X139704207Y-68361081D01*
X139668509Y-68299712D01*
X139671656Y-68228785D01*
X139712650Y-68170819D01*
X139721774Y-68164237D01*
X139728625Y-68159745D01*
X139728626Y-68159744D01*
X139734747Y-68155731D01*
X139743655Y-68146328D01*
X139765524Y-68123242D01*
X139826892Y-68087542D01*
X139897819Y-68090689D01*
G37*
G04 #@! TD.AperFunction*
G04 #@! TA.AperFunction,Conductor*
G36*
X129716121Y-60736002D02*
G01*
X129762614Y-60789658D01*
X129774000Y-60842000D01*
X129774000Y-61959885D01*
X129778475Y-61975124D01*
X129779865Y-61976329D01*
X129787548Y-61978000D01*
X130034223Y-61978000D01*
X130041524Y-61977576D01*
X130163255Y-61963383D01*
X130177410Y-61960037D01*
X130329761Y-61904737D01*
X130342760Y-61898227D01*
X130478306Y-61809359D01*
X130489458Y-61800035D01*
X130600922Y-61682371D01*
X130609635Y-61670724D01*
X130662763Y-61579259D01*
X130714274Y-61530401D01*
X130784023Y-61517147D01*
X130852032Y-61545461D01*
X130861957Y-61553671D01*
X130948370Y-61625159D01*
X130948374Y-61625162D01*
X130954479Y-61630212D01*
X130961652Y-61633587D01*
X130961653Y-61633588D01*
X130985720Y-61644913D01*
X131012386Y-61661835D01*
X131028334Y-61675028D01*
X131037115Y-61683019D01*
X132099595Y-62745499D01*
X132133621Y-62807811D01*
X132136500Y-62834594D01*
X132136500Y-63692250D01*
X132116498Y-63760371D01*
X132062842Y-63806864D01*
X131992568Y-63816968D01*
X131956852Y-63806258D01*
X131822055Y-63742827D01*
X131807087Y-63737964D01*
X131731794Y-63723600D01*
X131718755Y-63724871D01*
X131714000Y-63739793D01*
X131714000Y-65323000D01*
X131693998Y-65391121D01*
X131640342Y-65437614D01*
X131588000Y-65449000D01*
X130670115Y-65449000D01*
X130654876Y-65453475D01*
X130653671Y-65454865D01*
X130652000Y-65462548D01*
X130652000Y-65940655D01*
X130631998Y-66008776D01*
X130578342Y-66055269D01*
X130552197Y-66063902D01*
X130505328Y-66073865D01*
X130381911Y-66100098D01*
X130375881Y-66102783D01*
X130375880Y-66102783D01*
X130213478Y-66175089D01*
X130213476Y-66175090D01*
X130207448Y-66177774D01*
X130202107Y-66181654D01*
X130202106Y-66181655D01*
X130058291Y-66286142D01*
X130058289Y-66286144D01*
X130052947Y-66290025D01*
X130048526Y-66294935D01*
X130048525Y-66294936D01*
X129961986Y-66391048D01*
X129925161Y-66431946D01*
X129829674Y-66597334D01*
X129770660Y-66778961D01*
X129769970Y-66785524D01*
X129769970Y-66785525D01*
X129755150Y-66926530D01*
X129750698Y-66968888D01*
X129751388Y-66975453D01*
X129754398Y-67004092D01*
X129741626Y-67073930D01*
X129697208Y-67123260D01*
X129691312Y-67127049D01*
X129691309Y-67127052D01*
X129683729Y-67131923D01*
X129683225Y-67132504D01*
X129622431Y-67160268D01*
X129552157Y-67150163D01*
X129498502Y-67103670D01*
X129478500Y-67035550D01*
X129478500Y-66802114D01*
X129463022Y-66669357D01*
X129439161Y-66603619D01*
X129405184Y-66510015D01*
X129402687Y-66503136D01*
X129371792Y-66456013D01*
X129351170Y-66388078D01*
X129370551Y-66319777D01*
X129388070Y-66297834D01*
X129912513Y-65773391D01*
X129920601Y-65766031D01*
X129926995Y-65761973D01*
X129972870Y-65713121D01*
X129975624Y-65710280D01*
X129995938Y-65689966D01*
X129998583Y-65686555D01*
X130006289Y-65677533D01*
X130031133Y-65651077D01*
X130036557Y-65645301D01*
X130040376Y-65638355D01*
X130046318Y-65627547D01*
X130057172Y-65611023D01*
X130064723Y-65601289D01*
X130064724Y-65601287D01*
X130069583Y-65595023D01*
X130087146Y-65554439D01*
X130092353Y-65543810D01*
X130113662Y-65505048D01*
X130118701Y-65485422D01*
X130125102Y-65466728D01*
X130129999Y-65455412D01*
X130133148Y-65448135D01*
X130140064Y-65404469D01*
X130142471Y-65392844D01*
X130151988Y-65355777D01*
X130153465Y-65350025D01*
X130153500Y-65349469D01*
X130153500Y-65346231D01*
X130154767Y-65338231D01*
X130156933Y-65338574D01*
X130175585Y-65281739D01*
X130226334Y-65239146D01*
X130233316Y-65237096D01*
X130324264Y-65178647D01*
X130348691Y-65162949D01*
X130348694Y-65162947D01*
X130356271Y-65158077D01*
X130362172Y-65151267D01*
X130446082Y-65054431D01*
X130446084Y-65054428D01*
X130451984Y-65047619D01*
X130455728Y-65039422D01*
X130455730Y-65039418D01*
X130475869Y-64995320D01*
X130522362Y-64941665D01*
X130590483Y-64921663D01*
X130630011Y-64933270D01*
X130665548Y-64941000D01*
X131187885Y-64941000D01*
X131203124Y-64936525D01*
X131204329Y-64935135D01*
X131206000Y-64927452D01*
X131206000Y-63738253D01*
X131201925Y-63724376D01*
X131188574Y-63722339D01*
X131152984Y-63726835D01*
X131137751Y-63730746D01*
X130997966Y-63786091D01*
X130984184Y-63793668D01*
X130862559Y-63882034D01*
X130851092Y-63892802D01*
X130756585Y-64007042D01*
X130697751Y-64046780D01*
X130626773Y-64048403D01*
X130566186Y-64011394D01*
X130535225Y-63947504D01*
X130533500Y-63926727D01*
X130533500Y-63770000D01*
X130528273Y-63696921D01*
X130487096Y-63556684D01*
X130422217Y-63455731D01*
X130412949Y-63441309D01*
X130412947Y-63441306D01*
X130408077Y-63433729D01*
X130398472Y-63425406D01*
X130304431Y-63343918D01*
X130304428Y-63343916D01*
X130297619Y-63338016D01*
X130274275Y-63327355D01*
X130172864Y-63281042D01*
X130172863Y-63281042D01*
X130164670Y-63277300D01*
X130155755Y-63276018D01*
X130155754Y-63276018D01*
X130024448Y-63257139D01*
X130024441Y-63257138D01*
X130020000Y-63256500D01*
X129020000Y-63256500D01*
X128946921Y-63261727D01*
X128898250Y-63276018D01*
X128837801Y-63293767D01*
X128766804Y-63293767D01*
X128707078Y-63255383D01*
X128677585Y-63190802D01*
X128681713Y-63136350D01*
X128721433Y-63005204D01*
X128728500Y-62926022D01*
X128728500Y-62302114D01*
X128713022Y-62169357D01*
X128693641Y-62115963D01*
X128689200Y-62045105D01*
X128723773Y-61983095D01*
X128786382Y-61949620D01*
X128848603Y-61952381D01*
X128903700Y-61969068D01*
X128916323Y-61971516D01*
X128986184Y-61977751D01*
X128991779Y-61978000D01*
X129247885Y-61978000D01*
X129263124Y-61973525D01*
X129264329Y-61972135D01*
X129266000Y-61964452D01*
X129266000Y-60842000D01*
X129286002Y-60773879D01*
X129339658Y-60727386D01*
X129392000Y-60716000D01*
X129648000Y-60716000D01*
X129716121Y-60736002D01*
G37*
G04 #@! TD.AperFunction*
G04 #@! TA.AperFunction,Conductor*
G36*
X143083621Y-58031002D02*
G01*
X143130114Y-58084658D01*
X143141500Y-58137000D01*
X143141500Y-59285255D01*
X143121498Y-59353376D01*
X143101961Y-59376855D01*
X143095803Y-59381329D01*
X143090750Y-59387437D01*
X143090749Y-59387438D01*
X143025330Y-59466516D01*
X142989788Y-59509479D01*
X142986413Y-59516652D01*
X142986412Y-59516653D01*
X142975867Y-59539062D01*
X142918974Y-59659967D01*
X142917489Y-59667750D01*
X142917488Y-59667754D01*
X142892614Y-59798148D01*
X142891500Y-59803989D01*
X142891500Y-60204579D01*
X142897750Y-60254055D01*
X142901137Y-60280861D01*
X142907345Y-60330006D01*
X142910262Y-60337372D01*
X142910262Y-60337374D01*
X142953034Y-60445402D01*
X142959513Y-60516102D01*
X142949890Y-60545434D01*
X142922827Y-60602945D01*
X142917964Y-60617913D01*
X142903600Y-60693206D01*
X142904871Y-60706245D01*
X142919793Y-60711000D01*
X143137333Y-60711000D01*
X143193489Y-60727316D01*
X143194479Y-60725212D01*
X143344967Y-60796026D01*
X143352750Y-60797511D01*
X143352754Y-60797512D01*
X143483148Y-60822386D01*
X143483151Y-60822386D01*
X143488989Y-60823500D01*
X144190500Y-60823500D01*
X144258621Y-60843502D01*
X144305114Y-60897158D01*
X144316500Y-60949500D01*
X144316500Y-60980500D01*
X144296498Y-61048621D01*
X144242842Y-61095114D01*
X144190500Y-61106500D01*
X143510421Y-61106500D01*
X143451307Y-61113968D01*
X143392859Y-61121351D01*
X143392856Y-61121352D01*
X143384994Y-61122345D01*
X143377628Y-61125262D01*
X143377626Y-61125262D01*
X143237725Y-61180653D01*
X143237723Y-61180654D01*
X143230356Y-61183571D01*
X143214712Y-61194937D01*
X143140652Y-61219000D01*
X142918253Y-61219000D01*
X142904376Y-61223075D01*
X142902339Y-61236426D01*
X142906835Y-61272016D01*
X142910746Y-61287249D01*
X142953073Y-61394153D01*
X142959552Y-61464853D01*
X142949931Y-61494179D01*
X142918974Y-61559967D01*
X142917489Y-61567750D01*
X142917488Y-61567754D01*
X142895906Y-61680891D01*
X142891500Y-61703989D01*
X142891500Y-62104579D01*
X142907345Y-62230006D01*
X142910262Y-62237372D01*
X142910262Y-62237374D01*
X142936830Y-62304475D01*
X142968571Y-62384644D01*
X143066329Y-62519197D01*
X143194479Y-62625212D01*
X143201652Y-62628587D01*
X143201653Y-62628588D01*
X143231623Y-62642691D01*
X143344967Y-62696026D01*
X143352750Y-62697511D01*
X143352754Y-62697512D01*
X143483148Y-62722386D01*
X143483151Y-62722386D01*
X143488989Y-62723500D01*
X143503000Y-62723500D01*
X143571121Y-62743502D01*
X143617614Y-62797158D01*
X143629000Y-62849500D01*
X143629000Y-63087904D01*
X143608998Y-63156025D01*
X143592096Y-63176999D01*
X142907482Y-63861614D01*
X142899398Y-63868970D01*
X142893005Y-63873027D01*
X142887580Y-63878804D01*
X142847131Y-63921878D01*
X142844376Y-63924720D01*
X142824062Y-63945034D01*
X142821417Y-63948445D01*
X142813713Y-63957465D01*
X142783443Y-63989699D01*
X142779626Y-63996643D01*
X142779624Y-63996645D01*
X142773682Y-64007453D01*
X142762828Y-64023977D01*
X142750417Y-64039977D01*
X142747270Y-64047248D01*
X142747270Y-64047249D01*
X142732859Y-64080551D01*
X142727638Y-64091207D01*
X142706338Y-64129952D01*
X142704366Y-64137635D01*
X142704365Y-64137636D01*
X142701301Y-64149568D01*
X142694897Y-64168272D01*
X142690001Y-64179585D01*
X142689999Y-64179592D01*
X142686852Y-64186864D01*
X142685613Y-64194688D01*
X142685612Y-64194691D01*
X142679935Y-64230535D01*
X142677528Y-64242156D01*
X142672733Y-64260833D01*
X142666535Y-64284975D01*
X142666500Y-64285531D01*
X142666500Y-64305452D01*
X142664949Y-64325162D01*
X142661816Y-64344944D01*
X142662562Y-64352836D01*
X142665941Y-64388582D01*
X142666500Y-64400440D01*
X142666500Y-65848500D01*
X142646498Y-65916621D01*
X142592842Y-65963114D01*
X142540500Y-65974500D01*
X142315114Y-65974500D01*
X142220328Y-65985551D01*
X142189629Y-65989130D01*
X142189628Y-65989130D01*
X142182357Y-65989978D01*
X142175479Y-65992474D01*
X142175477Y-65992475D01*
X142070161Y-66030703D01*
X142016136Y-66050313D01*
X141936106Y-66102783D01*
X141906690Y-66122069D01*
X141868253Y-66147269D01*
X141863221Y-66152581D01*
X141800794Y-66218480D01*
X141739424Y-66254178D01*
X141668498Y-66251030D01*
X141622668Y-66223300D01*
X141574610Y-66177774D01*
X141515355Y-66121642D01*
X141362445Y-66032825D01*
X141193204Y-65981567D01*
X141186764Y-65980992D01*
X141186763Y-65980992D01*
X141116815Y-65974749D01*
X141116809Y-65974749D01*
X141114022Y-65974500D01*
X140490114Y-65974500D01*
X140395328Y-65985551D01*
X140364629Y-65989130D01*
X140364628Y-65989130D01*
X140357357Y-65989978D01*
X140350479Y-65992474D01*
X140350477Y-65992475D01*
X140245161Y-66030703D01*
X140191136Y-66050313D01*
X140135295Y-66086924D01*
X140083585Y-66120826D01*
X140015649Y-66141449D01*
X139947349Y-66122069D01*
X139900368Y-66068839D01*
X139888500Y-66015454D01*
X139888500Y-64330421D01*
X139872655Y-64204994D01*
X139856807Y-64164967D01*
X139814347Y-64057725D01*
X139814346Y-64057723D01*
X139811429Y-64050356D01*
X139803889Y-64039977D01*
X139718331Y-63922217D01*
X139713671Y-63915803D01*
X139585521Y-63809788D01*
X139578020Y-63806258D01*
X139540432Y-63788571D01*
X139435033Y-63738974D01*
X139427250Y-63737489D01*
X139427246Y-63737488D01*
X139296852Y-63712614D01*
X139296849Y-63712614D01*
X139291011Y-63711500D01*
X138890421Y-63711500D01*
X138831307Y-63718968D01*
X138772859Y-63726351D01*
X138772856Y-63726352D01*
X138764994Y-63727345D01*
X138757628Y-63730262D01*
X138757626Y-63730262D01*
X138617725Y-63785653D01*
X138617723Y-63785654D01*
X138610356Y-63788571D01*
X138603945Y-63793229D01*
X138603943Y-63793230D01*
X138518797Y-63855092D01*
X138451929Y-63878951D01*
X138382777Y-63862870D01*
X138364421Y-63850241D01*
X138321629Y-63814841D01*
X138315521Y-63809788D01*
X138308020Y-63806258D01*
X138270432Y-63788571D01*
X138165033Y-63738974D01*
X138157250Y-63737489D01*
X138157246Y-63737488D01*
X138026852Y-63712614D01*
X138026849Y-63712614D01*
X138021011Y-63711500D01*
X137620421Y-63711500D01*
X137561307Y-63718968D01*
X137502859Y-63726351D01*
X137502856Y-63726352D01*
X137494994Y-63727345D01*
X137487628Y-63730262D01*
X137487626Y-63730262D01*
X137345884Y-63786382D01*
X137275184Y-63792861D01*
X137212204Y-63760089D01*
X137176940Y-63698469D01*
X137173500Y-63669230D01*
X137173500Y-62314594D01*
X137193502Y-62246473D01*
X137210405Y-62225499D01*
X137670499Y-61765405D01*
X137732811Y-61731379D01*
X137759594Y-61728500D01*
X137999579Y-61728500D01*
X138058693Y-61721032D01*
X138117141Y-61713649D01*
X138117144Y-61713648D01*
X138125006Y-61712655D01*
X138132372Y-61709738D01*
X138132374Y-61709738D01*
X138272275Y-61654347D01*
X138272277Y-61654346D01*
X138279644Y-61651429D01*
X138304201Y-61633588D01*
X138371203Y-61584908D01*
X138438071Y-61561049D01*
X138507223Y-61577130D01*
X138525579Y-61589759D01*
X138567182Y-61624176D01*
X138574479Y-61630212D01*
X138581652Y-61633587D01*
X138581653Y-61633588D01*
X138605720Y-61644913D01*
X138632387Y-61661836D01*
X138731766Y-61744050D01*
X138731770Y-61744053D01*
X138737875Y-61749103D01*
X138882693Y-61817250D01*
X138890476Y-61818735D01*
X138890477Y-61818735D01*
X139032122Y-61845755D01*
X139032124Y-61845755D01*
X139039908Y-61847240D01*
X139119776Y-61842215D01*
X139191732Y-61837688D01*
X139191734Y-61837688D01*
X139199643Y-61837190D01*
X139207179Y-61834741D01*
X139207181Y-61834741D01*
X139344318Y-61790183D01*
X139344321Y-61790181D01*
X139351860Y-61787732D01*
X139486995Y-61701973D01*
X139506793Y-61680890D01*
X139537942Y-61656728D01*
X139542269Y-61654349D01*
X139549644Y-61651429D01*
X139684197Y-61553671D01*
X139790212Y-61425521D01*
X139861026Y-61275033D01*
X139862511Y-61267250D01*
X139862512Y-61267246D01*
X139887386Y-61136852D01*
X139887386Y-61136849D01*
X139888500Y-61131011D01*
X139888500Y-59445630D01*
X139908502Y-59377509D01*
X139962158Y-59331016D01*
X140032432Y-59320912D01*
X140086910Y-59346394D01*
X140088749Y-59343863D01*
X140189190Y-59416837D01*
X140243250Y-59456114D01*
X140249278Y-59458798D01*
X140249280Y-59458799D01*
X140411682Y-59531105D01*
X140417713Y-59533790D01*
X140511113Y-59553643D01*
X140598056Y-59572124D01*
X140598061Y-59572124D01*
X140604513Y-59573496D01*
X140795487Y-59573496D01*
X140801939Y-59572124D01*
X140801944Y-59572124D01*
X140888887Y-59553643D01*
X140982287Y-59533790D01*
X140988318Y-59531105D01*
X141150720Y-59458799D01*
X141150722Y-59458798D01*
X141156750Y-59456114D01*
X141171180Y-59445630D01*
X141305907Y-59347746D01*
X141305909Y-59347744D01*
X141311251Y-59343863D01*
X141322819Y-59331016D01*
X141334060Y-59318531D01*
X141394506Y-59281291D01*
X141418707Y-59277162D01*
X141466340Y-59273755D01*
X141473079Y-59273273D01*
X141551165Y-59250345D01*
X141604670Y-59234635D01*
X141604672Y-59234634D01*
X141613316Y-59232096D01*
X141665892Y-59198307D01*
X141728691Y-59157949D01*
X141728694Y-59157947D01*
X141736271Y-59153077D01*
X141780631Y-59101883D01*
X141840357Y-59063500D01*
X141911353Y-59063500D01*
X141971080Y-59101884D01*
X141981227Y-59115311D01*
X142035641Y-59198307D01*
X142044965Y-59209458D01*
X142162629Y-59320922D01*
X142174276Y-59329635D01*
X142314429Y-59411043D01*
X142327754Y-59416837D01*
X142483700Y-59464068D01*
X142496323Y-59466516D01*
X142566184Y-59472751D01*
X142571779Y-59473000D01*
X142615385Y-59473000D01*
X142630624Y-59468525D01*
X142631829Y-59467135D01*
X142633500Y-59459452D01*
X142633500Y-58137000D01*
X142653502Y-58068879D01*
X142707158Y-58022386D01*
X142759500Y-58011000D01*
X143015500Y-58011000D01*
X143083621Y-58031002D01*
G37*
G04 #@! TD.AperFunction*
G04 #@! TA.AperFunction,Conductor*
G36*
X146897214Y-62743502D02*
G01*
X146943707Y-62797158D01*
X146953811Y-62867432D01*
X146949683Y-62886023D01*
X146938417Y-62923220D01*
X146898567Y-63054796D01*
X146897992Y-63061236D01*
X146897992Y-63061237D01*
X146893082Y-63116257D01*
X146891500Y-63133978D01*
X146891500Y-63149406D01*
X146871498Y-63217527D01*
X146854595Y-63238501D01*
X146578595Y-63514501D01*
X146516283Y-63548527D01*
X146445468Y-63543462D01*
X146388632Y-63500915D01*
X146363821Y-63434395D01*
X146363500Y-63425406D01*
X146363500Y-63114000D01*
X146358273Y-63040921D01*
X146322411Y-62918785D01*
X146322411Y-62847788D01*
X146354212Y-62794192D01*
X146387999Y-62760405D01*
X146450311Y-62726379D01*
X146477094Y-62723500D01*
X146829093Y-62723500D01*
X146897214Y-62743502D01*
G37*
G04 #@! TD.AperFunction*
G04 #@! TA.AperFunction,Conductor*
G36*
X139828598Y-57683431D02*
G01*
X139875103Y-57737076D01*
X139886500Y-57789443D01*
X139886500Y-58223270D01*
X139870911Y-58281449D01*
X139871464Y-58281695D01*
X139869911Y-58285183D01*
X139869620Y-58286268D01*
X139865476Y-58293446D01*
X139806462Y-58475073D01*
X139786500Y-58665000D01*
X139787190Y-58671565D01*
X139787190Y-58671566D01*
X139795788Y-58753373D01*
X139783016Y-58823211D01*
X139734514Y-58875058D01*
X139665681Y-58892452D01*
X139598371Y-58869870D01*
X139592406Y-58865334D01*
X139591629Y-58864841D01*
X139585521Y-58859788D01*
X139578311Y-58856395D01*
X139548377Y-58842309D01*
X139435033Y-58788974D01*
X139427250Y-58787489D01*
X139427246Y-58787488D01*
X139296852Y-58762614D01*
X139296849Y-58762614D01*
X139291011Y-58761500D01*
X139209595Y-58761500D01*
X139141474Y-58741498D01*
X139120500Y-58724595D01*
X138803390Y-58407485D01*
X138796030Y-58399397D01*
X138791973Y-58393005D01*
X138743138Y-58347145D01*
X138740299Y-58344394D01*
X138722768Y-58326864D01*
X138719966Y-58324062D01*
X138716555Y-58321417D01*
X138707533Y-58313711D01*
X138684286Y-58291880D01*
X138675301Y-58283443D01*
X138668357Y-58279626D01*
X138668355Y-58279624D01*
X138657547Y-58273682D01*
X138641023Y-58262828D01*
X138631286Y-58255275D01*
X138631285Y-58255275D01*
X138625023Y-58250417D01*
X138584447Y-58232858D01*
X138573790Y-58227637D01*
X138535048Y-58206338D01*
X138527365Y-58204366D01*
X138527364Y-58204365D01*
X138515432Y-58201301D01*
X138496728Y-58194897D01*
X138485415Y-58190001D01*
X138485408Y-58189999D01*
X138478136Y-58186852D01*
X138470312Y-58185613D01*
X138470309Y-58185612D01*
X138434465Y-58179935D01*
X138422844Y-58177528D01*
X138385782Y-58168013D01*
X138385781Y-58168013D01*
X138380025Y-58166535D01*
X138379469Y-58166500D01*
X138359548Y-58166500D01*
X138339838Y-58164949D01*
X138327886Y-58163056D01*
X138327885Y-58163056D01*
X138320056Y-58161816D01*
X138312164Y-58162562D01*
X138276418Y-58165941D01*
X138264560Y-58166500D01*
X137114594Y-58166500D01*
X137046473Y-58146498D01*
X137025499Y-58129595D01*
X136803391Y-57907487D01*
X136796031Y-57899399D01*
X136791973Y-57893005D01*
X136780156Y-57881908D01*
X136744190Y-57820695D01*
X136747029Y-57749755D01*
X136787769Y-57691611D01*
X136853478Y-57664723D01*
X136866373Y-57664058D01*
X137003793Y-57664029D01*
X137907537Y-57663837D01*
X138750086Y-57663658D01*
X139760473Y-57663443D01*
X139828598Y-57683431D01*
G37*
G04 #@! TD.AperFunction*
M02*
