G04 #@! TF.GenerationSoftware,KiCad,Pcbnew,5.99.0-unknown-f7cc6d1e1e~106~ubuntu20.04.1*
G04 #@! TF.CreationDate,2021-04-14T19:56:09+09:00*
G04 #@! TF.ProjectId,OpenHVPS-5,4f70656e-4856-4505-932d-352e6b696361,V1.2.0*
G04 #@! TF.SameCoordinates,Original*
G04 #@! TF.FileFunction,Copper,L2,Inr*
G04 #@! TF.FilePolarity,Positive*
%FSLAX46Y46*%
G04 Gerber Fmt 4.6, Leading zero omitted, Abs format (unit mm)*
G04 Created by KiCad (PCBNEW 5.99.0-unknown-f7cc6d1e1e~106~ubuntu20.04.1) date 2021-04-14 19:56:09*
%MOMM*%
%LPD*%
G01*
G04 APERTURE LIST*
G04 #@! TA.AperFunction,ComponentPad*
%ADD10R,1.700000X1.700000*%
G04 #@! TD*
G04 #@! TA.AperFunction,ComponentPad*
%ADD11O,1.700000X1.700000*%
G04 #@! TD*
G04 #@! TA.AperFunction,ComponentPad*
%ADD12C,2.500000*%
G04 #@! TD*
G04 #@! TA.AperFunction,ComponentPad*
%ADD13C,2.800000*%
G04 #@! TD*
G04 #@! TA.AperFunction,ViaPad*
%ADD14C,0.800000*%
G04 #@! TD*
G04 APERTURE END LIST*
D10*
X164060000Y-60325000D03*
D11*
X164060000Y-62865000D03*
D12*
X164060000Y-71755000D03*
D13*
X164060000Y-75565000D03*
X138660000Y-75565000D03*
D10*
X128500000Y-75565000D03*
D11*
X131040000Y-75565000D03*
X133580000Y-75565000D03*
D14*
X154500000Y-68000000D03*
X146270000Y-75770000D03*
X150270000Y-70020000D03*
X150520000Y-77020000D03*
X132770000Y-72770000D03*
X138020000Y-62770000D03*
X156270000Y-75520000D03*
X150368200Y-72621800D03*
X135770000Y-70520000D03*
X130270000Y-62270000D03*
X139020000Y-57770000D03*
X133520000Y-67020000D03*
X139634500Y-72517000D03*
X135764700Y-71941100D03*
X126920900Y-69342400D03*
X148020000Y-72770000D03*
X130520000Y-66770000D03*
X151770000Y-67020000D03*
X149020000Y-76520000D03*
X145770000Y-72020000D03*
X152919800Y-74131600D03*
X127770000Y-67520000D03*
X140750000Y-59750000D03*
G04 #@! TA.AperFunction,Conductor*
G36*
X165331987Y-57162313D02*
G01*
X165332605Y-57163884D01*
X165334660Y-57164779D01*
X165347070Y-57165003D01*
X165347072Y-57165004D01*
X165425203Y-57166417D01*
X165432810Y-57166784D01*
X165484915Y-57170885D01*
X165494739Y-57172048D01*
X165663195Y-57198728D01*
X165672900Y-57200659D01*
X165714614Y-57210674D01*
X165724135Y-57213359D01*
X165886338Y-57266062D01*
X165895610Y-57269482D01*
X165935252Y-57285902D01*
X165944221Y-57290037D01*
X166020210Y-57328755D01*
X166096195Y-57367472D01*
X166104818Y-57372301D01*
X166141411Y-57394726D01*
X166149618Y-57400209D01*
X166287602Y-57500461D01*
X166295351Y-57506570D01*
X166327215Y-57533784D01*
X166327992Y-57534448D01*
X166335255Y-57541163D01*
X166455837Y-57661745D01*
X166462552Y-57669008D01*
X166490430Y-57701649D01*
X166496539Y-57709398D01*
X166502361Y-57717411D01*
X166596787Y-57847377D01*
X166602274Y-57855589D01*
X166607186Y-57863603D01*
X166624694Y-57892173D01*
X166629528Y-57900805D01*
X166706961Y-58052775D01*
X166711103Y-58061761D01*
X166727515Y-58101384D01*
X166730939Y-58110665D01*
X166783641Y-58272864D01*
X166786327Y-58282386D01*
X166796342Y-58324101D01*
X166798272Y-58333805D01*
X166824952Y-58502261D01*
X166826115Y-58512085D01*
X166830216Y-58564191D01*
X166830583Y-58571798D01*
X166832221Y-58662340D01*
X166833116Y-58664395D01*
X166834691Y-58665014D01*
X166837000Y-58686470D01*
X166837000Y-76433530D01*
X166834691Y-76454986D01*
X166833116Y-76455605D01*
X166832221Y-76457660D01*
X166831093Y-76520000D01*
X166830583Y-76548202D01*
X166830216Y-76555809D01*
X166826115Y-76607915D01*
X166824952Y-76617739D01*
X166798272Y-76786195D01*
X166796342Y-76795899D01*
X166786327Y-76837614D01*
X166783641Y-76847136D01*
X166730939Y-77009335D01*
X166727515Y-77018616D01*
X166711103Y-77058239D01*
X166706963Y-77067220D01*
X166695749Y-77089229D01*
X166629528Y-77219195D01*
X166624699Y-77227818D01*
X166602274Y-77264411D01*
X166596791Y-77272618D01*
X166496539Y-77410602D01*
X166490430Y-77418351D01*
X166490227Y-77418589D01*
X166462552Y-77450992D01*
X166455837Y-77458255D01*
X166335255Y-77578837D01*
X166327992Y-77585552D01*
X166295351Y-77613430D01*
X166287602Y-77619539D01*
X166149623Y-77719787D01*
X166141411Y-77725274D01*
X166104818Y-77747699D01*
X166096195Y-77752528D01*
X165944225Y-77829961D01*
X165935252Y-77834098D01*
X165895610Y-77850518D01*
X165886338Y-77853938D01*
X165724135Y-77906641D01*
X165714614Y-77909326D01*
X165672900Y-77919341D01*
X165663195Y-77921272D01*
X165494740Y-77947952D01*
X165484916Y-77949115D01*
X165432809Y-77953216D01*
X165425202Y-77953583D01*
X165412242Y-77953818D01*
X165334660Y-77955221D01*
X165332605Y-77956116D01*
X165331984Y-77957696D01*
X165310523Y-77960007D01*
X146545369Y-77963999D01*
X136891786Y-77966053D01*
X127774455Y-77967992D01*
X127753013Y-77965687D01*
X127752395Y-77964116D01*
X127750340Y-77963221D01*
X127737930Y-77962997D01*
X127737928Y-77962996D01*
X127659797Y-77961583D01*
X127652190Y-77961216D01*
X127600085Y-77957115D01*
X127590261Y-77955952D01*
X127421805Y-77929272D01*
X127412101Y-77927342D01*
X127370386Y-77917327D01*
X127360864Y-77914641D01*
X127198665Y-77861939D01*
X127189384Y-77858515D01*
X127149761Y-77842103D01*
X127140775Y-77837961D01*
X127133194Y-77834098D01*
X127024754Y-77778845D01*
X126988805Y-77760528D01*
X126980182Y-77755699D01*
X126943589Y-77733274D01*
X126935377Y-77727787D01*
X126797398Y-77627539D01*
X126789649Y-77621430D01*
X126757008Y-77593552D01*
X126749745Y-77586837D01*
X126629163Y-77466255D01*
X126622448Y-77458992D01*
X126615615Y-77450992D01*
X126594570Y-77426351D01*
X126588461Y-77418602D01*
X126488209Y-77280618D01*
X126482726Y-77272411D01*
X126460301Y-77235818D01*
X126455472Y-77227195D01*
X126388108Y-77094986D01*
X126378037Y-77075221D01*
X126373902Y-77066252D01*
X126357482Y-77026610D01*
X126354062Y-77017338D01*
X126301359Y-76855135D01*
X126298674Y-76845614D01*
X126288659Y-76803900D01*
X126286728Y-76794195D01*
X126260048Y-76625739D01*
X126258885Y-76615915D01*
X126254784Y-76563809D01*
X126254417Y-76556202D01*
X126254046Y-76535711D01*
X126252779Y-76465660D01*
X126251884Y-76463605D01*
X126250309Y-76462986D01*
X126248000Y-76441530D01*
X126248000Y-74715000D01*
X127517500Y-74715000D01*
X127517500Y-76415000D01*
X127518707Y-76421068D01*
X127524621Y-76450798D01*
X127527586Y-76465706D01*
X127556308Y-76508692D01*
X127566624Y-76515585D01*
X127573232Y-76520000D01*
X127599294Y-76537414D01*
X127611463Y-76539835D01*
X127611464Y-76539835D01*
X127637276Y-76544969D01*
X127650000Y-76547500D01*
X129350000Y-76547500D01*
X129362724Y-76544969D01*
X129388536Y-76539835D01*
X129388537Y-76539835D01*
X129400706Y-76537414D01*
X129426768Y-76520000D01*
X129433376Y-76515585D01*
X129443692Y-76508692D01*
X129472414Y-76465706D01*
X129475380Y-76450798D01*
X129481293Y-76421068D01*
X129482500Y-76415000D01*
X129482500Y-75660875D01*
X130062189Y-75660875D01*
X130101439Y-75855533D01*
X130179029Y-76038323D01*
X130291789Y-76201778D01*
X130435113Y-76339221D01*
X130603146Y-76445037D01*
X130609120Y-76447282D01*
X130609121Y-76447283D01*
X130722274Y-76489814D01*
X130789025Y-76514904D01*
X130795323Y-76515902D01*
X130795325Y-76515902D01*
X130850350Y-76524617D01*
X130985155Y-76545968D01*
X131183527Y-76536960D01*
X131208974Y-76530521D01*
X131369847Y-76489814D01*
X131369849Y-76489813D01*
X131376035Y-76488248D01*
X131381782Y-76485470D01*
X131549068Y-76404601D01*
X131549070Y-76404600D01*
X131554816Y-76401822D01*
X131559885Y-76397946D01*
X131559889Y-76397944D01*
X131683530Y-76303413D01*
X131712568Y-76281212D01*
X131786184Y-76196526D01*
X131838657Y-76136163D01*
X131838658Y-76136162D01*
X131842845Y-76131345D01*
X131940326Y-75958343D01*
X131997607Y-75779934D01*
X132037475Y-75721189D01*
X132102775Y-75693324D01*
X132172774Y-75705186D01*
X132225247Y-75753010D01*
X132241972Y-75798415D01*
X132256639Y-75889472D01*
X132259212Y-75899793D01*
X132330230Y-76107810D01*
X132334497Y-76117533D01*
X132439556Y-76310625D01*
X132445402Y-76319491D01*
X132581486Y-76492113D01*
X132588750Y-76499875D01*
X132751967Y-76647094D01*
X132760444Y-76653528D01*
X132946122Y-76771136D01*
X132955567Y-76776053D01*
X133158406Y-76860694D01*
X133168545Y-76863950D01*
X133308345Y-76896096D01*
X133322422Y-76895257D01*
X133326000Y-76885999D01*
X133326000Y-75832548D01*
X133834000Y-75832548D01*
X133834000Y-76884941D01*
X133838151Y-76899079D01*
X133848798Y-76900774D01*
X133852192Y-76900096D01*
X134063333Y-76838954D01*
X134073259Y-76835143D01*
X134271065Y-76739307D01*
X134280212Y-76733876D01*
X134459041Y-76606083D01*
X134467149Y-76599182D01*
X134621893Y-76443082D01*
X134628706Y-76434933D01*
X134754940Y-76254988D01*
X134760295Y-76245787D01*
X134854399Y-76047156D01*
X134858123Y-76037197D01*
X134915968Y-75830718D01*
X134914430Y-75822351D01*
X134902137Y-75819000D01*
X133852115Y-75819000D01*
X133836876Y-75823475D01*
X133835671Y-75824865D01*
X133834000Y-75832548D01*
X133326000Y-75832548D01*
X133326000Y-75671902D01*
X137131233Y-75671902D01*
X137131990Y-75676905D01*
X137131990Y-75676910D01*
X137158058Y-75849274D01*
X137167990Y-75914948D01*
X137169536Y-75919764D01*
X137169537Y-75919767D01*
X137239015Y-76136163D01*
X137243133Y-76148990D01*
X137354728Y-76368008D01*
X137499905Y-76566367D01*
X137503515Y-76569927D01*
X137517917Y-76584129D01*
X137674928Y-76738963D01*
X137679053Y-76741895D01*
X137679056Y-76741897D01*
X137741390Y-76786195D01*
X137875294Y-76881356D01*
X137879830Y-76883588D01*
X138091308Y-76987648D01*
X138091313Y-76987650D01*
X138095849Y-76989882D01*
X138100693Y-76991363D01*
X138326070Y-77060268D01*
X138326072Y-77060268D01*
X138330918Y-77061750D01*
X138335939Y-77062438D01*
X138335940Y-77062438D01*
X138530616Y-77089105D01*
X138574454Y-77095110D01*
X138646742Y-77093344D01*
X138815129Y-77089229D01*
X138815133Y-77089229D01*
X138820190Y-77089105D01*
X139061805Y-77043888D01*
X139293083Y-76960623D01*
X139508073Y-76841452D01*
X139512950Y-76837614D01*
X139697275Y-76692565D01*
X139697280Y-76692560D01*
X139701244Y-76689441D01*
X139795682Y-76586740D01*
X148491699Y-76586740D01*
X148529108Y-76726352D01*
X148533479Y-76733743D01*
X148579567Y-76811673D01*
X148602683Y-76850761D01*
X148707004Y-76950802D01*
X148714580Y-76954864D01*
X148714581Y-76954865D01*
X148758242Y-76978276D01*
X148834385Y-77019103D01*
X148842769Y-77020977D01*
X148943615Y-77043518D01*
X148975442Y-77050632D01*
X148984016Y-77050183D01*
X148984019Y-77050183D01*
X149111198Y-77043518D01*
X149111200Y-77043518D01*
X149119781Y-77043068D01*
X149256768Y-76996967D01*
X149376312Y-76915725D01*
X149401433Y-76885999D01*
X149442321Y-76837614D01*
X149469605Y-76805328D01*
X149529773Y-76673909D01*
X149552383Y-76531152D01*
X149552500Y-76520000D01*
X149532884Y-76376800D01*
X149529080Y-76368008D01*
X149478892Y-76252033D01*
X149478892Y-76252032D01*
X149475481Y-76244151D01*
X149384521Y-76131824D01*
X149377518Y-76126847D01*
X149273706Y-76053072D01*
X149273704Y-76053071D01*
X149266705Y-76048097D01*
X149258628Y-76045189D01*
X149258626Y-76045188D01*
X149138796Y-76002046D01*
X149138795Y-76002046D01*
X149130713Y-75999136D01*
X148986564Y-75988551D01*
X148844879Y-76017120D01*
X148716095Y-76082738D01*
X148709775Y-76088550D01*
X148709773Y-76088551D01*
X148649293Y-76144166D01*
X148609702Y-76180572D01*
X148605179Y-76187867D01*
X148605178Y-76187868D01*
X148547302Y-76281212D01*
X148533537Y-76303413D01*
X148493212Y-76442211D01*
X148493122Y-76450797D01*
X148493122Y-76450798D01*
X148492451Y-76514904D01*
X148491699Y-76586740D01*
X139795682Y-76586740D01*
X139838813Y-76539835D01*
X139864202Y-76512225D01*
X139864204Y-76512222D01*
X139867626Y-76508501D01*
X139880981Y-76488248D01*
X139910762Y-76443082D01*
X140002940Y-76303288D01*
X140011118Y-76285091D01*
X140101629Y-76083696D01*
X140101631Y-76083691D01*
X140103703Y-76079080D01*
X140112784Y-76045188D01*
X140166015Y-75846528D01*
X140166015Y-75846527D01*
X140167323Y-75841646D01*
X140184565Y-75671902D01*
X162531233Y-75671902D01*
X162531990Y-75676905D01*
X162531990Y-75676910D01*
X162558058Y-75849274D01*
X162567990Y-75914948D01*
X162569536Y-75919764D01*
X162569537Y-75919767D01*
X162639015Y-76136163D01*
X162643133Y-76148990D01*
X162754728Y-76368008D01*
X162899905Y-76566367D01*
X162903515Y-76569927D01*
X162917917Y-76584129D01*
X163074928Y-76738963D01*
X163079053Y-76741895D01*
X163079056Y-76741897D01*
X163141390Y-76786195D01*
X163275294Y-76881356D01*
X163279830Y-76883588D01*
X163491308Y-76987648D01*
X163491313Y-76987650D01*
X163495849Y-76989882D01*
X163500693Y-76991363D01*
X163726070Y-77060268D01*
X163726072Y-77060268D01*
X163730918Y-77061750D01*
X163735939Y-77062438D01*
X163735940Y-77062438D01*
X163930616Y-77089105D01*
X163974454Y-77095110D01*
X164046742Y-77093344D01*
X164215129Y-77089229D01*
X164215133Y-77089229D01*
X164220190Y-77089105D01*
X164461805Y-77043888D01*
X164693083Y-76960623D01*
X164908073Y-76841452D01*
X164912950Y-76837614D01*
X165097275Y-76692565D01*
X165097280Y-76692560D01*
X165101244Y-76689441D01*
X165238813Y-76539835D01*
X165264202Y-76512225D01*
X165264204Y-76512222D01*
X165267626Y-76508501D01*
X165280981Y-76488248D01*
X165310762Y-76443082D01*
X165402940Y-76303288D01*
X165411118Y-76285091D01*
X165501629Y-76083696D01*
X165501631Y-76083691D01*
X165503703Y-76079080D01*
X165512784Y-76045188D01*
X165566015Y-75846528D01*
X165566015Y-75846527D01*
X165567323Y-75841646D01*
X165592164Y-75597094D01*
X165592500Y-75565000D01*
X165582043Y-75435029D01*
X165573192Y-75325024D01*
X165573191Y-75325020D01*
X165572786Y-75319982D01*
X165570170Y-75309329D01*
X165515359Y-75086182D01*
X165514152Y-75081268D01*
X165479415Y-74999431D01*
X165420083Y-74859654D01*
X165420083Y-74859653D01*
X165418107Y-74854999D01*
X165287121Y-74646996D01*
X165124564Y-74462612D01*
X164934619Y-74306589D01*
X164722171Y-74182942D01*
X164717448Y-74181129D01*
X164717446Y-74181128D01*
X164497408Y-74096663D01*
X164497410Y-74096663D01*
X164492688Y-74094851D01*
X164487742Y-74093818D01*
X164487736Y-74093816D01*
X164296240Y-74053811D01*
X164252073Y-74044584D01*
X164247025Y-74044355D01*
X164247019Y-74044354D01*
X164129295Y-74039009D01*
X164006517Y-74033434D01*
X164001496Y-74034015D01*
X164001493Y-74034015D01*
X163767363Y-74061104D01*
X163767358Y-74061105D01*
X163762336Y-74061686D01*
X163757472Y-74063062D01*
X163757469Y-74063063D01*
X163645133Y-74094851D01*
X163525813Y-74128615D01*
X163521234Y-74130750D01*
X163521232Y-74130751D01*
X163505397Y-74138135D01*
X163303034Y-74232499D01*
X163298853Y-74235340D01*
X163298852Y-74235341D01*
X163103917Y-74367819D01*
X163103913Y-74367822D01*
X163099730Y-74370665D01*
X162921131Y-74539557D01*
X162918053Y-74543583D01*
X162918052Y-74543584D01*
X162774910Y-74730806D01*
X162771832Y-74734832D01*
X162655674Y-74951465D01*
X162654028Y-74956246D01*
X162654026Y-74956250D01*
X162579897Y-75171537D01*
X162575646Y-75183883D01*
X162533807Y-75426106D01*
X162531233Y-75671902D01*
X140184565Y-75671902D01*
X140192164Y-75597094D01*
X140192500Y-75565000D01*
X140182043Y-75435029D01*
X140173192Y-75325024D01*
X140173191Y-75325020D01*
X140172786Y-75319982D01*
X140170170Y-75309329D01*
X140115359Y-75086182D01*
X140114152Y-75081268D01*
X140079415Y-74999431D01*
X140020083Y-74859654D01*
X140020083Y-74859653D01*
X140018107Y-74854999D01*
X139887121Y-74646996D01*
X139724564Y-74462612D01*
X139534619Y-74306589D01*
X139348628Y-74198340D01*
X152391499Y-74198340D01*
X152428908Y-74337952D01*
X152502483Y-74462361D01*
X152606804Y-74562402D01*
X152734185Y-74630703D01*
X152742569Y-74632577D01*
X152843415Y-74655118D01*
X152875242Y-74662232D01*
X152883816Y-74661783D01*
X152883819Y-74661783D01*
X153010998Y-74655118D01*
X153011000Y-74655118D01*
X153019581Y-74654668D01*
X153156568Y-74608567D01*
X153276112Y-74527325D01*
X153369405Y-74416928D01*
X153375243Y-74404178D01*
X153420851Y-74304559D01*
X153429573Y-74285509D01*
X153452183Y-74142752D01*
X153452300Y-74131600D01*
X153432684Y-73988400D01*
X153375281Y-73855751D01*
X153284321Y-73743424D01*
X153166505Y-73659697D01*
X153158428Y-73656789D01*
X153158426Y-73656788D01*
X153038596Y-73613646D01*
X153038595Y-73613646D01*
X153030513Y-73610736D01*
X152886364Y-73600151D01*
X152744679Y-73628720D01*
X152615895Y-73694338D01*
X152609575Y-73700150D01*
X152609573Y-73700151D01*
X152515820Y-73786362D01*
X152509502Y-73792172D01*
X152504979Y-73799467D01*
X152504978Y-73799468D01*
X152470081Y-73855751D01*
X152433337Y-73915013D01*
X152393012Y-74053811D01*
X152391499Y-74198340D01*
X139348628Y-74198340D01*
X139322171Y-74182942D01*
X139317448Y-74181129D01*
X139317446Y-74181128D01*
X139097408Y-74096663D01*
X139097410Y-74096663D01*
X139092688Y-74094851D01*
X139087742Y-74093818D01*
X139087736Y-74093816D01*
X138896240Y-74053811D01*
X138852073Y-74044584D01*
X138847025Y-74044355D01*
X138847019Y-74044354D01*
X138729295Y-74039009D01*
X138606517Y-74033434D01*
X138601496Y-74034015D01*
X138601493Y-74034015D01*
X138367363Y-74061104D01*
X138367358Y-74061105D01*
X138362336Y-74061686D01*
X138357472Y-74063062D01*
X138357469Y-74063063D01*
X138245133Y-74094851D01*
X138125813Y-74128615D01*
X138121234Y-74130750D01*
X138121232Y-74130751D01*
X138105397Y-74138135D01*
X137903034Y-74232499D01*
X137898853Y-74235340D01*
X137898852Y-74235341D01*
X137703917Y-74367819D01*
X137703913Y-74367822D01*
X137699730Y-74370665D01*
X137521131Y-74539557D01*
X137518053Y-74543583D01*
X137518052Y-74543584D01*
X137374910Y-74730806D01*
X137371832Y-74734832D01*
X137255674Y-74951465D01*
X137254028Y-74956246D01*
X137254026Y-74956250D01*
X137179897Y-75171537D01*
X137175646Y-75183883D01*
X137133807Y-75426106D01*
X137131233Y-75671902D01*
X133326000Y-75671902D01*
X133326000Y-74248717D01*
X133325328Y-74246430D01*
X133834000Y-74246430D01*
X133834000Y-75292885D01*
X133838475Y-75308124D01*
X133839865Y-75309329D01*
X133847548Y-75311000D01*
X134899079Y-75311000D01*
X134912610Y-75307027D01*
X134913876Y-75298218D01*
X134866954Y-75117433D01*
X134863419Y-75107395D01*
X134773147Y-74906998D01*
X134767967Y-74897692D01*
X134645218Y-74715366D01*
X134638557Y-74707080D01*
X134486830Y-74548030D01*
X134478873Y-74540990D01*
X134302523Y-74409782D01*
X134293486Y-74404178D01*
X134097550Y-74304559D01*
X134087699Y-74300559D01*
X133877778Y-74235378D01*
X133867396Y-74233095D01*
X133851959Y-74231049D01*
X133837792Y-74233246D01*
X133834000Y-74246430D01*
X133325328Y-74246430D01*
X133322027Y-74235186D01*
X133311420Y-74233661D01*
X133193554Y-74258391D01*
X133183358Y-74261451D01*
X132978932Y-74342182D01*
X132969396Y-74346916D01*
X132781486Y-74460942D01*
X132772896Y-74467206D01*
X132606884Y-74611264D01*
X132599464Y-74618895D01*
X132460100Y-74788860D01*
X132454075Y-74797627D01*
X132345342Y-74988644D01*
X132340877Y-74998308D01*
X132265882Y-75204916D01*
X132263111Y-75215184D01*
X132241381Y-75335351D01*
X132209576Y-75398826D01*
X132148504Y-75435029D01*
X132077553Y-75432466D01*
X132019251Y-75391952D01*
X131997158Y-75350609D01*
X131944960Y-75184046D01*
X131944959Y-75184044D01*
X131943050Y-75177952D01*
X131886877Y-75076612D01*
X131849872Y-75009854D01*
X131846779Y-75004274D01*
X131717551Y-74853501D01*
X131570319Y-74739296D01*
X131565690Y-74735705D01*
X131565687Y-74735703D01*
X131560646Y-74731793D01*
X131554920Y-74728975D01*
X131554916Y-74728973D01*
X131388204Y-74646940D01*
X131388200Y-74646938D01*
X131382472Y-74644120D01*
X131190309Y-74594066D01*
X131102609Y-74589470D01*
X130998387Y-74584007D01*
X130998382Y-74584007D01*
X130992005Y-74583673D01*
X130859338Y-74603737D01*
X130801976Y-74612412D01*
X130801975Y-74612412D01*
X130795662Y-74613367D01*
X130789676Y-74615570D01*
X130789670Y-74615571D01*
X130714573Y-74643202D01*
X130609300Y-74681935D01*
X130603884Y-74685293D01*
X130603880Y-74685295D01*
X130445955Y-74783212D01*
X130445951Y-74783215D01*
X130440532Y-74786575D01*
X130296252Y-74923014D01*
X130292590Y-74928244D01*
X130292589Y-74928245D01*
X130239353Y-75004274D01*
X130182354Y-75085678D01*
X130103490Y-75267922D01*
X130102185Y-75274169D01*
X130070444Y-75426106D01*
X130062882Y-75462301D01*
X130062860Y-75468689D01*
X130062412Y-75597094D01*
X130062189Y-75660875D01*
X129482500Y-75660875D01*
X129482500Y-74715000D01*
X129480925Y-74707080D01*
X129474835Y-74676464D01*
X129474835Y-74676463D01*
X129472414Y-74664294D01*
X129443692Y-74621308D01*
X129431808Y-74613367D01*
X129411022Y-74599479D01*
X129411023Y-74599479D01*
X129400706Y-74592586D01*
X129388537Y-74590165D01*
X129388536Y-74590165D01*
X129356068Y-74583707D01*
X129350000Y-74582500D01*
X127650000Y-74582500D01*
X127643932Y-74583707D01*
X127611464Y-74590165D01*
X127611463Y-74590165D01*
X127599294Y-74592586D01*
X127588977Y-74599479D01*
X127588978Y-74599479D01*
X127568193Y-74613367D01*
X127556308Y-74621308D01*
X127527586Y-74664294D01*
X127525165Y-74676463D01*
X127525165Y-74676464D01*
X127519075Y-74707080D01*
X127517500Y-74715000D01*
X126248000Y-74715000D01*
X126248000Y-72583740D01*
X139106199Y-72583740D01*
X139143608Y-72723352D01*
X139217183Y-72847761D01*
X139321504Y-72947802D01*
X139448885Y-73016103D01*
X139457269Y-73017977D01*
X139581187Y-73045675D01*
X139589942Y-73047632D01*
X139598516Y-73047183D01*
X139598519Y-73047183D01*
X139725698Y-73040518D01*
X139725700Y-73040518D01*
X139734281Y-73040068D01*
X139871268Y-72993967D01*
X139990812Y-72912725D01*
X140055025Y-72836740D01*
X147491699Y-72836740D01*
X147529108Y-72976352D01*
X147602683Y-73100761D01*
X147707004Y-73200802D01*
X147834385Y-73269103D01*
X147842769Y-73270977D01*
X147943615Y-73293518D01*
X147975442Y-73300632D01*
X147984016Y-73300183D01*
X147984019Y-73300183D01*
X148111198Y-73293518D01*
X148111200Y-73293518D01*
X148119781Y-73293068D01*
X148256768Y-73246967D01*
X148376312Y-73165725D01*
X148469605Y-73055328D01*
X148474025Y-73045675D01*
X148520691Y-72943746D01*
X148529773Y-72923909D01*
X148552383Y-72781152D01*
X148552500Y-72770000D01*
X148532884Y-72626800D01*
X148499729Y-72550183D01*
X148478892Y-72502033D01*
X148478892Y-72502032D01*
X148475481Y-72494151D01*
X148384521Y-72381824D01*
X148373230Y-72373800D01*
X148273706Y-72303072D01*
X148273704Y-72303071D01*
X148266705Y-72298097D01*
X148258628Y-72295189D01*
X148258626Y-72295188D01*
X148138796Y-72252046D01*
X148138795Y-72252046D01*
X148130713Y-72249136D01*
X147986564Y-72238551D01*
X147844879Y-72267120D01*
X147716095Y-72332738D01*
X147709775Y-72338550D01*
X147709773Y-72338551D01*
X147620321Y-72420807D01*
X147609702Y-72430572D01*
X147605179Y-72437867D01*
X147605178Y-72437868D01*
X147539951Y-72543068D01*
X147533537Y-72553413D01*
X147493212Y-72692211D01*
X147491699Y-72836740D01*
X140055025Y-72836740D01*
X140084105Y-72802328D01*
X140144273Y-72670909D01*
X140166883Y-72528152D01*
X140167000Y-72517000D01*
X140147384Y-72373800D01*
X140139989Y-72356710D01*
X140093392Y-72249033D01*
X140093392Y-72249032D01*
X140089981Y-72241151D01*
X139999021Y-72128824D01*
X139992018Y-72123847D01*
X139939803Y-72086740D01*
X145241699Y-72086740D01*
X145279108Y-72226352D01*
X145352683Y-72350761D01*
X145457004Y-72450802D01*
X145464580Y-72454864D01*
X145464581Y-72454865D01*
X145492545Y-72469859D01*
X145584385Y-72519103D01*
X145592769Y-72520977D01*
X145705225Y-72546113D01*
X145725442Y-72550632D01*
X145734016Y-72550183D01*
X145734019Y-72550183D01*
X145861198Y-72543518D01*
X145861200Y-72543518D01*
X145869781Y-72543068D01*
X146006768Y-72496967D01*
X146074698Y-72450802D01*
X146119208Y-72420553D01*
X146119209Y-72420552D01*
X146126312Y-72415725D01*
X146161742Y-72373800D01*
X146214062Y-72311887D01*
X146219605Y-72305328D01*
X146224248Y-72295188D01*
X146259560Y-72218058D01*
X146279773Y-72173909D01*
X146302383Y-72031152D01*
X146302500Y-72020000D01*
X146282884Y-71876800D01*
X146275034Y-71858658D01*
X162681392Y-71858658D01*
X162682241Y-71863928D01*
X162682241Y-71863930D01*
X162717001Y-72079738D01*
X162718566Y-72089457D01*
X162794096Y-72310693D01*
X162796646Y-72315380D01*
X162796647Y-72315382D01*
X162819133Y-72356710D01*
X162905823Y-72516040D01*
X162909127Y-72520231D01*
X163047248Y-72695437D01*
X163047252Y-72695441D01*
X163050551Y-72699626D01*
X163224142Y-72856203D01*
X163421633Y-72981292D01*
X163426561Y-72983348D01*
X163426564Y-72983350D01*
X163495323Y-73012042D01*
X163637376Y-73071319D01*
X163642579Y-73072516D01*
X163642584Y-73072517D01*
X163860001Y-73122512D01*
X163860006Y-73122513D01*
X163865204Y-73123708D01*
X163870532Y-73124011D01*
X163870535Y-73124011D01*
X164028052Y-73132955D01*
X164098602Y-73136961D01*
X164103909Y-73136361D01*
X164103911Y-73136361D01*
X164226412Y-73122512D01*
X164330896Y-73110700D01*
X164336011Y-73109219D01*
X164336015Y-73109218D01*
X164550321Y-73047159D01*
X164550326Y-73047157D01*
X164555444Y-73045675D01*
X164765826Y-72943746D01*
X164884331Y-72859061D01*
X164951680Y-72810933D01*
X164951682Y-72810931D01*
X164956026Y-72807827D01*
X165070637Y-72692211D01*
X165116853Y-72645590D01*
X165116854Y-72645589D01*
X165120606Y-72641804D01*
X165254860Y-72450425D01*
X165264080Y-72430965D01*
X165352664Y-72243985D01*
X165354949Y-72239162D01*
X165356468Y-72233743D01*
X165387254Y-72123847D01*
X165418012Y-72014055D01*
X165442245Y-71781540D01*
X165442500Y-71755000D01*
X165442248Y-71752033D01*
X165423186Y-71527374D01*
X165423185Y-71527370D01*
X165422735Y-71522063D01*
X165421012Y-71515423D01*
X165365347Y-71300956D01*
X165365346Y-71300952D01*
X165364005Y-71295787D01*
X165267990Y-71082641D01*
X165137435Y-70888720D01*
X164976072Y-70719569D01*
X164788516Y-70580023D01*
X164783765Y-70577607D01*
X164783761Y-70577605D01*
X164584886Y-70476492D01*
X164584885Y-70476492D01*
X164580130Y-70474074D01*
X164356872Y-70404751D01*
X164351585Y-70404050D01*
X164351584Y-70404050D01*
X164130409Y-70374735D01*
X164130405Y-70374735D01*
X164125125Y-70374035D01*
X164119796Y-70374235D01*
X164119794Y-70374235D01*
X164008320Y-70378420D01*
X163891516Y-70382805D01*
X163886298Y-70383900D01*
X163886297Y-70383900D01*
X163667950Y-70429713D01*
X163667945Y-70429715D01*
X163662724Y-70430810D01*
X163445292Y-70516678D01*
X163245436Y-70637954D01*
X163068871Y-70791169D01*
X163065488Y-70795295D01*
X163065484Y-70795299D01*
X162965887Y-70916767D01*
X162920646Y-70971943D01*
X162804998Y-71175107D01*
X162725234Y-71394853D01*
X162724285Y-71400102D01*
X162724284Y-71400105D01*
X162695443Y-71559600D01*
X162683636Y-71624895D01*
X162682750Y-71717213D01*
X162681894Y-71806414D01*
X162681392Y-71858658D01*
X146275034Y-71858658D01*
X146272722Y-71853316D01*
X146228892Y-71752033D01*
X146228892Y-71752032D01*
X146225481Y-71744151D01*
X146134521Y-71631824D01*
X146117378Y-71619641D01*
X146023706Y-71553072D01*
X146023704Y-71553071D01*
X146016705Y-71548097D01*
X146008628Y-71545189D01*
X146008626Y-71545188D01*
X145888796Y-71502046D01*
X145888795Y-71502046D01*
X145880713Y-71499136D01*
X145736564Y-71488551D01*
X145594879Y-71517120D01*
X145466095Y-71582738D01*
X145459775Y-71588550D01*
X145459773Y-71588551D01*
X145383620Y-71658578D01*
X145359702Y-71680572D01*
X145355179Y-71687867D01*
X145355178Y-71687868D01*
X145320281Y-71744151D01*
X145283537Y-71803413D01*
X145243212Y-71942211D01*
X145243122Y-71950797D01*
X145243122Y-71950798D01*
X145242477Y-72012423D01*
X145241699Y-72086740D01*
X139939803Y-72086740D01*
X139888206Y-72050072D01*
X139888204Y-72050071D01*
X139881205Y-72045097D01*
X139873128Y-72042189D01*
X139873126Y-72042188D01*
X139753296Y-71999046D01*
X139753295Y-71999046D01*
X139745213Y-71996136D01*
X139601064Y-71985551D01*
X139459379Y-72014120D01*
X139330595Y-72079738D01*
X139324275Y-72085550D01*
X139324273Y-72085551D01*
X139230520Y-72171762D01*
X139224202Y-72177572D01*
X139219679Y-72184867D01*
X139219678Y-72184868D01*
X139152563Y-72293113D01*
X139148037Y-72300413D01*
X139107712Y-72439211D01*
X139107622Y-72447797D01*
X139107622Y-72447798D01*
X139107207Y-72487478D01*
X139106199Y-72583740D01*
X126248000Y-72583740D01*
X126248000Y-72007840D01*
X135236399Y-72007840D01*
X135273808Y-72147452D01*
X135278179Y-72154843D01*
X135333944Y-72249136D01*
X135347383Y-72271861D01*
X135451704Y-72371902D01*
X135579085Y-72440203D01*
X135587469Y-72442077D01*
X135688315Y-72464618D01*
X135720142Y-72471732D01*
X135728716Y-72471283D01*
X135728719Y-72471283D01*
X135855898Y-72464618D01*
X135855900Y-72464618D01*
X135864481Y-72464168D01*
X136001468Y-72418067D01*
X136121012Y-72336825D01*
X136214305Y-72226428D01*
X136274473Y-72095009D01*
X136297083Y-71952252D01*
X136297200Y-71941100D01*
X136277584Y-71797900D01*
X136271782Y-71784491D01*
X136223592Y-71673133D01*
X136223592Y-71673132D01*
X136220181Y-71665251D01*
X136129221Y-71552924D01*
X136122218Y-71547947D01*
X136018406Y-71474172D01*
X136018404Y-71474171D01*
X136011405Y-71469197D01*
X136003328Y-71466289D01*
X136003326Y-71466288D01*
X135883496Y-71423146D01*
X135883495Y-71423146D01*
X135875413Y-71420236D01*
X135731264Y-71409651D01*
X135589579Y-71438220D01*
X135460795Y-71503838D01*
X135454475Y-71509650D01*
X135454473Y-71509651D01*
X135374992Y-71582738D01*
X135354402Y-71601672D01*
X135349879Y-71608967D01*
X135349878Y-71608968D01*
X135300958Y-71687868D01*
X135278237Y-71724513D01*
X135237912Y-71863311D01*
X135236399Y-72007840D01*
X126248000Y-72007840D01*
X126248000Y-69701573D01*
X126268002Y-69633452D01*
X126321658Y-69586959D01*
X126391932Y-69576855D01*
X126456512Y-69606349D01*
X126482453Y-69637434D01*
X126499205Y-69665760D01*
X126499209Y-69665765D01*
X126503583Y-69673161D01*
X126607904Y-69773202D01*
X126735285Y-69841503D01*
X126743669Y-69843377D01*
X126844515Y-69865918D01*
X126876342Y-69873032D01*
X126884916Y-69872583D01*
X126884919Y-69872583D01*
X127012098Y-69865918D01*
X127012100Y-69865918D01*
X127020681Y-69865468D01*
X127157668Y-69819367D01*
X127277212Y-69738125D01*
X127370505Y-69627728D01*
X127389171Y-69586959D01*
X127427098Y-69504117D01*
X127430673Y-69496309D01*
X127453283Y-69353552D01*
X127453400Y-69342400D01*
X127433784Y-69199200D01*
X127389961Y-69097931D01*
X127379792Y-69074433D01*
X127379792Y-69074432D01*
X127376381Y-69066551D01*
X127285421Y-68954224D01*
X127167605Y-68870497D01*
X127159528Y-68867589D01*
X127159526Y-68867588D01*
X127039696Y-68824446D01*
X127039695Y-68824446D01*
X127031613Y-68821536D01*
X126887464Y-68810951D01*
X126745779Y-68839520D01*
X126616995Y-68905138D01*
X126610675Y-68910950D01*
X126610673Y-68910951D01*
X126531039Y-68984179D01*
X126510602Y-69002972D01*
X126506079Y-69010267D01*
X126506078Y-69010268D01*
X126481086Y-69050576D01*
X126428190Y-69097931D01*
X126358089Y-69109170D01*
X126293039Y-69080726D01*
X126253694Y-69021629D01*
X126248000Y-68984179D01*
X126248000Y-67586740D01*
X127241699Y-67586740D01*
X127279108Y-67726352D01*
X127352683Y-67850761D01*
X127457004Y-67950802D01*
X127584385Y-68019103D01*
X127592769Y-68020977D01*
X127693615Y-68043518D01*
X127725442Y-68050632D01*
X127734016Y-68050183D01*
X127734019Y-68050183D01*
X127861198Y-68043518D01*
X127861200Y-68043518D01*
X127869781Y-68043068D01*
X128006768Y-67996967D01*
X128126312Y-67915725D01*
X128219605Y-67805328D01*
X128279773Y-67673909D01*
X128302383Y-67531152D01*
X128302500Y-67520000D01*
X128282884Y-67376800D01*
X128249729Y-67300183D01*
X128228892Y-67252033D01*
X128228892Y-67252032D01*
X128225481Y-67244151D01*
X128134521Y-67131824D01*
X128073630Y-67088551D01*
X128023706Y-67053072D01*
X128023704Y-67053071D01*
X128016705Y-67048097D01*
X128008628Y-67045189D01*
X128008626Y-67045188D01*
X127888796Y-67002046D01*
X127888795Y-67002046D01*
X127880713Y-66999136D01*
X127736564Y-66988551D01*
X127594879Y-67017120D01*
X127466095Y-67082738D01*
X127459775Y-67088550D01*
X127459773Y-67088551D01*
X127366948Y-67173909D01*
X127359702Y-67180572D01*
X127355179Y-67187867D01*
X127355178Y-67187868D01*
X127289951Y-67293068D01*
X127283537Y-67303413D01*
X127243212Y-67442211D01*
X127243122Y-67450797D01*
X127243122Y-67450798D01*
X127242689Y-67492137D01*
X127241699Y-67586740D01*
X126248000Y-67586740D01*
X126248000Y-66836740D01*
X129991699Y-66836740D01*
X130029108Y-66976352D01*
X130033479Y-66983743D01*
X130061517Y-67031152D01*
X130102683Y-67100761D01*
X130207004Y-67200802D01*
X130334385Y-67269103D01*
X130342769Y-67270977D01*
X130455225Y-67296113D01*
X130475442Y-67300632D01*
X130484016Y-67300183D01*
X130484019Y-67300183D01*
X130611198Y-67293518D01*
X130611200Y-67293518D01*
X130619781Y-67293068D01*
X130756768Y-67246967D01*
X130843730Y-67187868D01*
X130869208Y-67170553D01*
X130869209Y-67170552D01*
X130876312Y-67165725D01*
X130943060Y-67086740D01*
X132991699Y-67086740D01*
X133029108Y-67226352D01*
X133102683Y-67350761D01*
X133207004Y-67450802D01*
X133334385Y-67519103D01*
X133342769Y-67520977D01*
X133443615Y-67543518D01*
X133475442Y-67550632D01*
X133484016Y-67550183D01*
X133484019Y-67550183D01*
X133611198Y-67543518D01*
X133611200Y-67543518D01*
X133619781Y-67543068D01*
X133756768Y-67496967D01*
X133876312Y-67415725D01*
X133969605Y-67305328D01*
X134029773Y-67173909D01*
X134043579Y-67086740D01*
X151241699Y-67086740D01*
X151279108Y-67226352D01*
X151352683Y-67350761D01*
X151457004Y-67450802D01*
X151584385Y-67519103D01*
X151592769Y-67520977D01*
X151693615Y-67543518D01*
X151725442Y-67550632D01*
X151734016Y-67550183D01*
X151734019Y-67550183D01*
X151861198Y-67543518D01*
X151861200Y-67543518D01*
X151869781Y-67543068D01*
X152006768Y-67496967D01*
X152126312Y-67415725D01*
X152219605Y-67305328D01*
X152279773Y-67173909D01*
X152302383Y-67031152D01*
X152302500Y-67020000D01*
X152282884Y-66876800D01*
X152225481Y-66744151D01*
X152134521Y-66631824D01*
X152127452Y-66626800D01*
X152023706Y-66553072D01*
X152023704Y-66553071D01*
X152016705Y-66548097D01*
X152008628Y-66545189D01*
X152008626Y-66545188D01*
X151888796Y-66502046D01*
X151888795Y-66502046D01*
X151880713Y-66499136D01*
X151736564Y-66488551D01*
X151594879Y-66517120D01*
X151466095Y-66582738D01*
X151459775Y-66588550D01*
X151459773Y-66588551D01*
X151366020Y-66674762D01*
X151359702Y-66680572D01*
X151355179Y-66687867D01*
X151355178Y-66687868D01*
X151320281Y-66744151D01*
X151283537Y-66803413D01*
X151243212Y-66942211D01*
X151241699Y-67086740D01*
X134043579Y-67086740D01*
X134052383Y-67031152D01*
X134052500Y-67020000D01*
X134032884Y-66876800D01*
X133975481Y-66744151D01*
X133884521Y-66631824D01*
X133877452Y-66626800D01*
X133773706Y-66553072D01*
X133773704Y-66553071D01*
X133766705Y-66548097D01*
X133758628Y-66545189D01*
X133758626Y-66545188D01*
X133638796Y-66502046D01*
X133638795Y-66502046D01*
X133630713Y-66499136D01*
X133486564Y-66488551D01*
X133344879Y-66517120D01*
X133216095Y-66582738D01*
X133209775Y-66588550D01*
X133209773Y-66588551D01*
X133116020Y-66674762D01*
X133109702Y-66680572D01*
X133105179Y-66687867D01*
X133105178Y-66687868D01*
X133070281Y-66744151D01*
X133033537Y-66803413D01*
X132993212Y-66942211D01*
X132991699Y-67086740D01*
X130943060Y-67086740D01*
X130969605Y-67055328D01*
X130974248Y-67045188D01*
X131026198Y-66931717D01*
X131029773Y-66923909D01*
X131052383Y-66781152D01*
X131052500Y-66770000D01*
X131032884Y-66626800D01*
X131013817Y-66582738D01*
X130978892Y-66502033D01*
X130978892Y-66502032D01*
X130975481Y-66494151D01*
X130884521Y-66381824D01*
X130766705Y-66298097D01*
X130758628Y-66295189D01*
X130758626Y-66295188D01*
X130638796Y-66252046D01*
X130638795Y-66252046D01*
X130630713Y-66249136D01*
X130486564Y-66238551D01*
X130344879Y-66267120D01*
X130216095Y-66332738D01*
X130209775Y-66338550D01*
X130209773Y-66338551D01*
X130116020Y-66424762D01*
X130109702Y-66430572D01*
X130105179Y-66437867D01*
X130105178Y-66437868D01*
X130053622Y-66521019D01*
X130033537Y-66553413D01*
X129993212Y-66692211D01*
X129991699Y-66836740D01*
X126248000Y-66836740D01*
X126248000Y-62960875D01*
X163082189Y-62960875D01*
X163121439Y-63155533D01*
X163199029Y-63338323D01*
X163311789Y-63501778D01*
X163455113Y-63639221D01*
X163623146Y-63745037D01*
X163629120Y-63747282D01*
X163629121Y-63747283D01*
X163742274Y-63789814D01*
X163809025Y-63814904D01*
X163815323Y-63815902D01*
X163815325Y-63815902D01*
X163895742Y-63828639D01*
X164005155Y-63845968D01*
X164203527Y-63836960D01*
X164209712Y-63835395D01*
X164389847Y-63789814D01*
X164389849Y-63789813D01*
X164396035Y-63788248D01*
X164401782Y-63785470D01*
X164569068Y-63704601D01*
X164569070Y-63704600D01*
X164574816Y-63701822D01*
X164579885Y-63697946D01*
X164579889Y-63697944D01*
X164727494Y-63585091D01*
X164732568Y-63581212D01*
X164862845Y-63431345D01*
X164960326Y-63258343D01*
X165021030Y-63069273D01*
X165042476Y-62871859D01*
X165042500Y-62865000D01*
X165032717Y-62768689D01*
X165023078Y-62673787D01*
X165023077Y-62673783D01*
X165022433Y-62667441D01*
X164963050Y-62477952D01*
X164866779Y-62304274D01*
X164737551Y-62153501D01*
X164646935Y-62083212D01*
X164585690Y-62035705D01*
X164585687Y-62035703D01*
X164580646Y-62031793D01*
X164574920Y-62028975D01*
X164574916Y-62028973D01*
X164408204Y-61946940D01*
X164408200Y-61946938D01*
X164402472Y-61944120D01*
X164210309Y-61894066D01*
X164122609Y-61889470D01*
X164018387Y-61884007D01*
X164018382Y-61884007D01*
X164012005Y-61883673D01*
X163863386Y-61906150D01*
X163821976Y-61912412D01*
X163821975Y-61912412D01*
X163815662Y-61913367D01*
X163809676Y-61915570D01*
X163809670Y-61915571D01*
X163732078Y-61944120D01*
X163629300Y-61981935D01*
X163623884Y-61985293D01*
X163623880Y-61985295D01*
X163465955Y-62083212D01*
X163465951Y-62083215D01*
X163460532Y-62086575D01*
X163316252Y-62223014D01*
X163312590Y-62228244D01*
X163312589Y-62228245D01*
X163259353Y-62304274D01*
X163202354Y-62385678D01*
X163123490Y-62567922D01*
X163122185Y-62574169D01*
X163101374Y-62673787D01*
X163082882Y-62762301D01*
X163082189Y-62960875D01*
X126248000Y-62960875D01*
X126248000Y-59816740D01*
X140221699Y-59816740D01*
X140259108Y-59956352D01*
X140332683Y-60080761D01*
X140437004Y-60180802D01*
X140564385Y-60249103D01*
X140572769Y-60250977D01*
X140673615Y-60273518D01*
X140705442Y-60280632D01*
X140714016Y-60280183D01*
X140714019Y-60280183D01*
X140841198Y-60273518D01*
X140841200Y-60273518D01*
X140849781Y-60273068D01*
X140986768Y-60226967D01*
X141106312Y-60145725D01*
X141199605Y-60035328D01*
X141259773Y-59903909D01*
X141282383Y-59761152D01*
X141282500Y-59750000D01*
X141262884Y-59606800D01*
X141205848Y-59475000D01*
X163077500Y-59475000D01*
X163077500Y-61175000D01*
X163087586Y-61225706D01*
X163116308Y-61268692D01*
X163159294Y-61297414D01*
X163171463Y-61299835D01*
X163171464Y-61299835D01*
X163203192Y-61306146D01*
X163210000Y-61307500D01*
X164910000Y-61307500D01*
X164916808Y-61306146D01*
X164948536Y-61299835D01*
X164948537Y-61299835D01*
X164960706Y-61297414D01*
X165003692Y-61268692D01*
X165032414Y-61225706D01*
X165042500Y-61175000D01*
X165042500Y-59475000D01*
X165032414Y-59424294D01*
X165003692Y-59381308D01*
X164960706Y-59352586D01*
X164948537Y-59350165D01*
X164948536Y-59350165D01*
X164916068Y-59343707D01*
X164910000Y-59342500D01*
X163210000Y-59342500D01*
X163203932Y-59343707D01*
X163171464Y-59350165D01*
X163171463Y-59350165D01*
X163159294Y-59352586D01*
X163116308Y-59381308D01*
X163087586Y-59424294D01*
X163077500Y-59475000D01*
X141205848Y-59475000D01*
X141205481Y-59474151D01*
X141114521Y-59361824D01*
X141089028Y-59343707D01*
X141003706Y-59283072D01*
X141003704Y-59283071D01*
X140996705Y-59278097D01*
X140988628Y-59275189D01*
X140988626Y-59275188D01*
X140868796Y-59232046D01*
X140868795Y-59232046D01*
X140860713Y-59229136D01*
X140716564Y-59218551D01*
X140574879Y-59247120D01*
X140446095Y-59312738D01*
X140439775Y-59318550D01*
X140439773Y-59318551D01*
X140346020Y-59404762D01*
X140339702Y-59410572D01*
X140335179Y-59417867D01*
X140335178Y-59417868D01*
X140295394Y-59482033D01*
X140263537Y-59533413D01*
X140223212Y-59672211D01*
X140221699Y-59816740D01*
X126248000Y-59816740D01*
X126248000Y-58694470D01*
X126250309Y-58673014D01*
X126251884Y-58672395D01*
X126252779Y-58670340D01*
X126254417Y-58579798D01*
X126254784Y-58572191D01*
X126258885Y-58520085D01*
X126260048Y-58510261D01*
X126286728Y-58341805D01*
X126288659Y-58332100D01*
X126298674Y-58290386D01*
X126301359Y-58280865D01*
X126354062Y-58118662D01*
X126357486Y-58109380D01*
X126360798Y-58101384D01*
X126373902Y-58069748D01*
X126378039Y-58060775D01*
X126455472Y-57908805D01*
X126460306Y-57900173D01*
X126482726Y-57863589D01*
X126488213Y-57855377D01*
X126489268Y-57853925D01*
X126588461Y-57717398D01*
X126594570Y-57709649D01*
X126622448Y-57677008D01*
X126629163Y-57669745D01*
X126749745Y-57549163D01*
X126757008Y-57542448D01*
X126766375Y-57534448D01*
X126789649Y-57514570D01*
X126797398Y-57508461D01*
X126935382Y-57408209D01*
X126943589Y-57402726D01*
X126980182Y-57380301D01*
X126988805Y-57375472D01*
X127140775Y-57298039D01*
X127149761Y-57293897D01*
X127189384Y-57277485D01*
X127198665Y-57274061D01*
X127360864Y-57221359D01*
X127370386Y-57218673D01*
X127412101Y-57208658D01*
X127421805Y-57206728D01*
X127590260Y-57180048D01*
X127600084Y-57178885D01*
X127652191Y-57174784D01*
X127659798Y-57174417D01*
X127672758Y-57174182D01*
X127750340Y-57172779D01*
X127752395Y-57171884D01*
X127753016Y-57170304D01*
X127774477Y-57167993D01*
X146542501Y-57164000D01*
X165310545Y-57160008D01*
X165331987Y-57162313D01*
G37*
G04 #@! TD.AperFunction*
M02*
