M48
; DRILL file {KiCad (5.99.0-10559-g8513ca974c)} date Sun May 16 19:19:12 2021
; FORMAT={-:-/ absolute / metric / decimal}
; #@! TF.CreationDate,2021-05-16T19:19:12+12:00
; #@! TF.GenerationSoftware,Kicad,Pcbnew,(5.99.0-10559-g8513ca974c)
; #@! TF.FileFunction,Plated,1,4,PTH
FMAT,2
METRIC
; #@! TA.AperFunction,Plated,PTH,ViaDrill
T1C0.400
; #@! TA.AperFunction,Plated,PTH,ComponentDrill
T2C1.000
; #@! TA.AperFunction,Plated,PTH,ComponentDrill
T3C1.400
%
G90
G05
T1
X126.921Y-69.342
X127.77Y-67.52
X130.27Y-62.27
X130.664Y-66.969
X132.77Y-72.77
X133.52Y-67.02
X135.765Y-71.941
X135.77Y-70.52
X138.02Y-62.77
X139.02Y-57.77
X139.635Y-72.517
X140.7Y-58.665
X141.7Y-61.065
X145.2Y-61.114
X145.77Y-72.02
X146.153Y-75.819
X148.02Y-72.77
X148.861Y-61.05
X149.17Y-76.743
X150.4Y-70.231
X150.6Y-72.465
X150.6Y-77.072
X152.0Y-67.065
X152.92Y-74.132
X154.5Y-68.0
X156.27Y-75.52
T2
X128.5Y-75.565
X131.04Y-75.565
X133.58Y-75.565
X138.66Y-75.565
X164.06Y-60.325
X164.06Y-62.865
X164.06Y-71.755
T3
X164.06Y-75.565
T0
M30
