G04 #@! TF.GenerationSoftware,KiCad,Pcbnew,(5.99.0-10559-g8513ca974c)*
G04 #@! TF.CreationDate,2021-05-16T19:19:17+12:00*
G04 #@! TF.ProjectId,SafePulse,53616665-5075-46c7-9365-2e6b69636164,V1.2.2*
G04 #@! TF.SameCoordinates,Original*
G04 #@! TF.FileFunction,Legend,Top*
G04 #@! TF.FilePolarity,Positive*
%FSLAX46Y46*%
G04 Gerber Fmt 4.6, Leading zero omitted, Abs format (unit mm)*
G04 Created by KiCad (PCBNEW (5.99.0-10559-g8513ca974c)) date 2021-05-16 19:19:17*
%MOMM*%
%LPD*%
G01*
G04 APERTURE LIST*
%ADD10C,0.150000*%
%ADD11C,0.075000*%
%ADD12C,0.100000*%
%ADD13C,0.120000*%
%ADD14C,0.360000*%
G04 APERTURE END LIST*
D10*
X137414000Y-69270000D02*
X159400000Y-69270000D01*
X158370000Y-75770000D02*
X156670000Y-75770000D01*
X159400000Y-69270000D02*
X159400000Y-77570000D01*
X159400000Y-77585000D02*
X165471000Y-77580787D01*
X137414000Y-69270000D02*
X137414000Y-57658000D01*
X166597000Y-76300000D02*
X165471000Y-77580787D01*
X166604000Y-58658000D02*
X166597000Y-76300000D01*
X165520000Y-57658000D02*
X137414000Y-57658000D01*
X165520000Y-57658000D02*
X166604000Y-58658000D01*
D11*
X127766666Y-77467380D02*
X127838095Y-77491190D01*
X127957142Y-77491190D01*
X128004761Y-77467380D01*
X128028571Y-77443571D01*
X128052380Y-77395952D01*
X128052380Y-77348333D01*
X128028571Y-77300714D01*
X128004761Y-77276904D01*
X127957142Y-77253095D01*
X127861904Y-77229285D01*
X127814285Y-77205476D01*
X127790476Y-77181666D01*
X127766666Y-77134047D01*
X127766666Y-77086428D01*
X127790476Y-77038809D01*
X127814285Y-77015000D01*
X127861904Y-76991190D01*
X127980952Y-76991190D01*
X128052380Y-77015000D01*
X128242857Y-77348333D02*
X128480952Y-77348333D01*
X128195238Y-77491190D02*
X128361904Y-76991190D01*
X128528571Y-77491190D01*
X128861904Y-77229285D02*
X128695238Y-77229285D01*
X128695238Y-77491190D02*
X128695238Y-76991190D01*
X128933333Y-76991190D01*
X129123809Y-77229285D02*
X129290476Y-77229285D01*
X129361904Y-77491190D02*
X129123809Y-77491190D01*
X129123809Y-76991190D01*
X129361904Y-76991190D01*
X129576190Y-77491190D02*
X129576190Y-76991190D01*
X129766666Y-76991190D01*
X129814285Y-77015000D01*
X129838095Y-77038809D01*
X129861904Y-77086428D01*
X129861904Y-77157857D01*
X129838095Y-77205476D01*
X129814285Y-77229285D01*
X129766666Y-77253095D01*
X129576190Y-77253095D01*
X130076190Y-76991190D02*
X130076190Y-77395952D01*
X130100000Y-77443571D01*
X130123809Y-77467380D01*
X130171428Y-77491190D01*
X130266666Y-77491190D01*
X130314285Y-77467380D01*
X130338095Y-77443571D01*
X130361904Y-77395952D01*
X130361904Y-76991190D01*
X130838095Y-77491190D02*
X130600000Y-77491190D01*
X130600000Y-76991190D01*
X130980952Y-77467380D02*
X131052380Y-77491190D01*
X131171428Y-77491190D01*
X131219047Y-77467380D01*
X131242857Y-77443571D01*
X131266666Y-77395952D01*
X131266666Y-77348333D01*
X131242857Y-77300714D01*
X131219047Y-77276904D01*
X131171428Y-77253095D01*
X131076190Y-77229285D01*
X131028571Y-77205476D01*
X131004761Y-77181666D01*
X130980952Y-77134047D01*
X130980952Y-77086428D01*
X131004761Y-77038809D01*
X131028571Y-77015000D01*
X131076190Y-76991190D01*
X131195238Y-76991190D01*
X131266666Y-77015000D01*
X131480952Y-77229285D02*
X131647619Y-77229285D01*
X131719047Y-77491190D02*
X131480952Y-77491190D01*
X131480952Y-76991190D01*
X131719047Y-76991190D01*
X132242857Y-76991190D02*
X132409523Y-77491190D01*
X132576190Y-76991190D01*
X133004761Y-77491190D02*
X132719047Y-77491190D01*
X132861904Y-77491190D02*
X132861904Y-76991190D01*
X132814285Y-77062619D01*
X132766666Y-77110238D01*
X132719047Y-77134047D01*
X133219047Y-77443571D02*
X133242857Y-77467380D01*
X133219047Y-77491190D01*
X133195238Y-77467380D01*
X133219047Y-77443571D01*
X133219047Y-77491190D01*
X133433333Y-77038809D02*
X133457142Y-77015000D01*
X133504761Y-76991190D01*
X133623809Y-76991190D01*
X133671428Y-77015000D01*
X133695238Y-77038809D01*
X133719047Y-77086428D01*
X133719047Y-77134047D01*
X133695238Y-77205476D01*
X133409523Y-77491190D01*
X133719047Y-77491190D01*
X133933333Y-77443571D02*
X133957142Y-77467380D01*
X133933333Y-77491190D01*
X133909523Y-77467380D01*
X133933333Y-77443571D01*
X133933333Y-77491190D01*
X134147619Y-77038809D02*
X134171428Y-77015000D01*
X134219047Y-76991190D01*
X134338095Y-76991190D01*
X134385714Y-77015000D01*
X134409523Y-77038809D01*
X134433333Y-77086428D01*
X134433333Y-77134047D01*
X134409523Y-77205476D01*
X134123809Y-77491190D01*
X134433333Y-77491190D01*
D12*
X128079047Y-73471428D02*
X128840952Y-73471428D01*
X128460000Y-73852380D02*
X128460000Y-73090476D01*
X130095238Y-73626190D02*
X130095238Y-73126190D01*
X130285714Y-73126190D01*
X130333333Y-73150000D01*
X130357142Y-73173809D01*
X130380952Y-73221428D01*
X130380952Y-73292857D01*
X130357142Y-73340476D01*
X130333333Y-73364285D01*
X130285714Y-73388095D01*
X130095238Y-73388095D01*
X130809523Y-73292857D02*
X130809523Y-73626190D01*
X130595238Y-73292857D02*
X130595238Y-73554761D01*
X130619047Y-73602380D01*
X130666666Y-73626190D01*
X130738095Y-73626190D01*
X130785714Y-73602380D01*
X130809523Y-73578571D01*
X131119047Y-73626190D02*
X131071428Y-73602380D01*
X131047619Y-73554761D01*
X131047619Y-73126190D01*
X131285714Y-73602380D02*
X131333333Y-73626190D01*
X131428571Y-73626190D01*
X131476190Y-73602380D01*
X131500000Y-73554761D01*
X131500000Y-73530952D01*
X131476190Y-73483333D01*
X131428571Y-73459523D01*
X131357142Y-73459523D01*
X131309523Y-73435714D01*
X131285714Y-73388095D01*
X131285714Y-73364285D01*
X131309523Y-73316666D01*
X131357142Y-73292857D01*
X131428571Y-73292857D01*
X131476190Y-73316666D01*
X131904761Y-73602380D02*
X131857142Y-73626190D01*
X131761904Y-73626190D01*
X131714285Y-73602380D01*
X131690476Y-73554761D01*
X131690476Y-73364285D01*
X131714285Y-73316666D01*
X131761904Y-73292857D01*
X131857142Y-73292857D01*
X131904761Y-73316666D01*
X131928571Y-73364285D01*
X131928571Y-73411904D01*
X131690476Y-73459523D01*
X133413047Y-73150000D02*
X133365428Y-73126190D01*
X133294000Y-73126190D01*
X133222571Y-73150000D01*
X133174952Y-73197619D01*
X133151142Y-73245238D01*
X133127333Y-73340476D01*
X133127333Y-73411904D01*
X133151142Y-73507142D01*
X133174952Y-73554761D01*
X133222571Y-73602380D01*
X133294000Y-73626190D01*
X133341619Y-73626190D01*
X133413047Y-73602380D01*
X133436857Y-73578571D01*
X133436857Y-73411904D01*
X133341619Y-73411904D01*
X133651142Y-73626190D02*
X133651142Y-73126190D01*
X133936857Y-73626190D01*
X133936857Y-73126190D01*
X134174952Y-73626190D02*
X134174952Y-73126190D01*
X134294000Y-73126190D01*
X134365428Y-73150000D01*
X134413047Y-73197619D01*
X134436857Y-73245238D01*
X134460666Y-73340476D01*
X134460666Y-73411904D01*
X134436857Y-73507142D01*
X134413047Y-73554761D01*
X134365428Y-73602380D01*
X134294000Y-73626190D01*
X134174952Y-73626190D01*
D11*
X146617237Y-66378571D02*
X146593427Y-66402380D01*
X146521999Y-66426190D01*
X146474380Y-66426190D01*
X146402951Y-66402380D01*
X146355332Y-66354761D01*
X146331523Y-66307142D01*
X146307713Y-66211904D01*
X146307713Y-66140476D01*
X146331523Y-66045238D01*
X146355332Y-65997619D01*
X146402951Y-65950000D01*
X146474380Y-65926190D01*
X146521999Y-65926190D01*
X146593427Y-65950000D01*
X146617237Y-65973809D01*
X147093427Y-66426190D02*
X146807713Y-66426190D01*
X146950570Y-66426190D02*
X146950570Y-65926190D01*
X146902951Y-65997619D01*
X146855332Y-66045238D01*
X146807713Y-66069047D01*
X147569618Y-66426190D02*
X147283904Y-66426190D01*
X147426761Y-66426190D02*
X147426761Y-65926190D01*
X147379142Y-65997619D01*
X147331523Y-66045238D01*
X147283904Y-66069047D01*
X126964285Y-71667666D02*
X126964285Y-71834333D01*
X127226190Y-71834333D02*
X126726190Y-71834333D01*
X126726190Y-71596238D01*
X127226190Y-71143857D02*
X127226190Y-71429571D01*
X127226190Y-71286714D02*
X126726190Y-71286714D01*
X126797619Y-71334333D01*
X126845238Y-71381952D01*
X126869047Y-71429571D01*
X143314999Y-66438571D02*
X143291190Y-66462380D01*
X143219761Y-66486190D01*
X143172142Y-66486190D01*
X143100713Y-66462380D01*
X143053094Y-66414761D01*
X143029285Y-66367142D01*
X143005475Y-66271904D01*
X143005475Y-66200476D01*
X143029285Y-66105238D01*
X143053094Y-66057619D01*
X143100713Y-66010000D01*
X143172142Y-65986190D01*
X143219761Y-65986190D01*
X143291190Y-66010000D01*
X143314999Y-66033809D01*
X143553094Y-66486190D02*
X143648333Y-66486190D01*
X143695952Y-66462380D01*
X143719761Y-66438571D01*
X143767380Y-66367142D01*
X143791190Y-66271904D01*
X143791190Y-66081428D01*
X143767380Y-66033809D01*
X143743571Y-66010000D01*
X143695952Y-65986190D01*
X143600713Y-65986190D01*
X143553094Y-66010000D01*
X143529285Y-66033809D01*
X143505475Y-66081428D01*
X143505475Y-66200476D01*
X143529285Y-66248095D01*
X143553094Y-66271904D01*
X143600713Y-66295714D01*
X143695952Y-66295714D01*
X143743571Y-66271904D01*
X143767380Y-66248095D01*
X143791190Y-66200476D01*
X160858095Y-73538333D02*
X161096190Y-73538333D01*
X160810476Y-73681190D02*
X160977142Y-73181190D01*
X161143809Y-73681190D01*
X161310476Y-73347857D02*
X161310476Y-73681190D01*
X161310476Y-73395476D02*
X161334285Y-73371666D01*
X161381904Y-73347857D01*
X161453333Y-73347857D01*
X161500952Y-73371666D01*
X161524761Y-73419285D01*
X161524761Y-73681190D01*
X161834285Y-73681190D02*
X161786666Y-73657380D01*
X161762857Y-73633571D01*
X161739047Y-73585952D01*
X161739047Y-73443095D01*
X161762857Y-73395476D01*
X161786666Y-73371666D01*
X161834285Y-73347857D01*
X161905714Y-73347857D01*
X161953333Y-73371666D01*
X161977142Y-73395476D01*
X162000952Y-73443095D01*
X162000952Y-73585952D01*
X161977142Y-73633571D01*
X161953333Y-73657380D01*
X161905714Y-73681190D01*
X161834285Y-73681190D01*
X162429523Y-73681190D02*
X162429523Y-73181190D01*
X162429523Y-73657380D02*
X162381904Y-73681190D01*
X162286666Y-73681190D01*
X162239047Y-73657380D01*
X162215238Y-73633571D01*
X162191428Y-73585952D01*
X162191428Y-73443095D01*
X162215238Y-73395476D01*
X162239047Y-73371666D01*
X162286666Y-73347857D01*
X162381904Y-73347857D01*
X162429523Y-73371666D01*
X162858095Y-73657380D02*
X162810476Y-73681190D01*
X162715238Y-73681190D01*
X162667619Y-73657380D01*
X162643809Y-73609761D01*
X162643809Y-73419285D01*
X162667619Y-73371666D01*
X162715238Y-73347857D01*
X162810476Y-73347857D01*
X162858095Y-73371666D01*
X162881904Y-73419285D01*
X162881904Y-73466904D01*
X162643809Y-73514523D01*
X160818095Y-77248333D02*
X161056190Y-77248333D01*
X160770476Y-77391190D02*
X160937142Y-76891190D01*
X161103809Y-77391190D01*
X161270476Y-77057857D02*
X161270476Y-77391190D01*
X161270476Y-77105476D02*
X161294285Y-77081666D01*
X161341904Y-77057857D01*
X161413333Y-77057857D01*
X161460952Y-77081666D01*
X161484761Y-77129285D01*
X161484761Y-77391190D01*
X161794285Y-77391190D02*
X161746666Y-77367380D01*
X161722857Y-77343571D01*
X161699047Y-77295952D01*
X161699047Y-77153095D01*
X161722857Y-77105476D01*
X161746666Y-77081666D01*
X161794285Y-77057857D01*
X161865714Y-77057857D01*
X161913333Y-77081666D01*
X161937142Y-77105476D01*
X161960952Y-77153095D01*
X161960952Y-77295952D01*
X161937142Y-77343571D01*
X161913333Y-77367380D01*
X161865714Y-77391190D01*
X161794285Y-77391190D01*
X162389523Y-77391190D02*
X162389523Y-76891190D01*
X162389523Y-77367380D02*
X162341904Y-77391190D01*
X162246666Y-77391190D01*
X162199047Y-77367380D01*
X162175238Y-77343571D01*
X162151428Y-77295952D01*
X162151428Y-77153095D01*
X162175238Y-77105476D01*
X162199047Y-77081666D01*
X162246666Y-77057857D01*
X162341904Y-77057857D01*
X162389523Y-77081666D01*
X162818095Y-77367380D02*
X162770476Y-77391190D01*
X162675238Y-77391190D01*
X162627619Y-77367380D01*
X162603809Y-77319761D01*
X162603809Y-77129285D01*
X162627619Y-77081666D01*
X162675238Y-77057857D01*
X162770476Y-77057857D01*
X162818095Y-77081666D01*
X162841904Y-77129285D01*
X162841904Y-77176904D01*
X162603809Y-77224523D01*
X157626190Y-63619047D02*
X157126190Y-63619047D01*
X157126190Y-63500000D01*
X157150000Y-63428571D01*
X157197619Y-63380952D01*
X157245238Y-63357142D01*
X157340476Y-63333333D01*
X157411904Y-63333333D01*
X157507142Y-63357142D01*
X157554761Y-63380952D01*
X157602380Y-63428571D01*
X157626190Y-63500000D01*
X157626190Y-63619047D01*
X157340476Y-63047619D02*
X157316666Y-63095238D01*
X157292857Y-63119047D01*
X157245238Y-63142857D01*
X157221428Y-63142857D01*
X157173809Y-63119047D01*
X157150000Y-63095238D01*
X157126190Y-63047619D01*
X157126190Y-62952380D01*
X157150000Y-62904761D01*
X157173809Y-62880952D01*
X157221428Y-62857142D01*
X157245238Y-62857142D01*
X157292857Y-62880952D01*
X157316666Y-62904761D01*
X157340476Y-62952380D01*
X157340476Y-63047619D01*
X157364285Y-63095238D01*
X157388095Y-63119047D01*
X157435714Y-63142857D01*
X157530952Y-63142857D01*
X157578571Y-63119047D01*
X157602380Y-63095238D01*
X157626190Y-63047619D01*
X157626190Y-62952380D01*
X157602380Y-62904761D01*
X157578571Y-62880952D01*
X157530952Y-62857142D01*
X157435714Y-62857142D01*
X157388095Y-62880952D01*
X157364285Y-62904761D01*
X157340476Y-62952380D01*
X143626190Y-63619047D02*
X143126190Y-63619047D01*
X143126190Y-63500000D01*
X143150000Y-63428571D01*
X143197619Y-63380952D01*
X143245238Y-63357142D01*
X143340476Y-63333333D01*
X143411904Y-63333333D01*
X143507142Y-63357142D01*
X143554761Y-63380952D01*
X143602380Y-63428571D01*
X143626190Y-63500000D01*
X143626190Y-63619047D01*
X143292857Y-62904761D02*
X143626190Y-62904761D01*
X143102380Y-63023809D02*
X143459523Y-63142857D01*
X143459523Y-62833333D01*
X149048571Y-60408571D02*
X149024761Y-60432380D01*
X148953333Y-60456190D01*
X148905714Y-60456190D01*
X148834285Y-60432380D01*
X148786666Y-60384761D01*
X148762857Y-60337142D01*
X148739047Y-60241904D01*
X148739047Y-60170476D01*
X148762857Y-60075238D01*
X148786666Y-60027619D01*
X148834285Y-59980000D01*
X148905714Y-59956190D01*
X148953333Y-59956190D01*
X149024761Y-59980000D01*
X149048571Y-60003809D01*
X149524761Y-60456190D02*
X149239047Y-60456190D01*
X149381904Y-60456190D02*
X149381904Y-59956190D01*
X149334285Y-60027619D01*
X149286666Y-60075238D01*
X149239047Y-60099047D01*
X149715238Y-60003809D02*
X149739047Y-59980000D01*
X149786666Y-59956190D01*
X149905714Y-59956190D01*
X149953333Y-59980000D01*
X149977142Y-60003809D01*
X150000952Y-60051428D01*
X150000952Y-60099047D01*
X149977142Y-60170476D01*
X149691428Y-60456190D01*
X150000952Y-60456190D01*
X150097570Y-66438571D02*
X150073760Y-66462380D01*
X150002332Y-66486190D01*
X149954713Y-66486190D01*
X149883284Y-66462380D01*
X149835665Y-66414761D01*
X149811856Y-66367142D01*
X149788046Y-66271904D01*
X149788046Y-66200476D01*
X149811856Y-66105238D01*
X149835665Y-66057619D01*
X149883284Y-66010000D01*
X149954713Y-65986190D01*
X150002332Y-65986190D01*
X150073760Y-66010000D01*
X150097570Y-66033809D01*
X150573760Y-66486190D02*
X150288046Y-66486190D01*
X150430903Y-66486190D02*
X150430903Y-65986190D01*
X150383284Y-66057619D01*
X150335665Y-66105238D01*
X150288046Y-66129047D01*
X150740427Y-65986190D02*
X151049951Y-65986190D01*
X150883284Y-66176666D01*
X150954713Y-66176666D01*
X151002332Y-66200476D01*
X151026141Y-66224285D01*
X151049951Y-66271904D01*
X151049951Y-66390952D01*
X151026141Y-66438571D01*
X151002332Y-66462380D01*
X150954713Y-66486190D01*
X150811856Y-66486190D01*
X150764237Y-66462380D01*
X150740427Y-66438571D01*
X159126190Y-71886428D02*
X158888095Y-72053095D01*
X159126190Y-72172142D02*
X158626190Y-72172142D01*
X158626190Y-71981666D01*
X158650000Y-71934047D01*
X158673809Y-71910238D01*
X158721428Y-71886428D01*
X158792857Y-71886428D01*
X158840476Y-71910238D01*
X158864285Y-71934047D01*
X158888095Y-71981666D01*
X158888095Y-72172142D01*
X159126190Y-71410238D02*
X159126190Y-71695952D01*
X159126190Y-71553095D02*
X158626190Y-71553095D01*
X158697619Y-71600714D01*
X158745238Y-71648333D01*
X158769047Y-71695952D01*
X158626190Y-71243571D02*
X158626190Y-70910238D01*
X159126190Y-71124523D01*
X145448571Y-60408571D02*
X145424761Y-60432380D01*
X145353333Y-60456190D01*
X145305714Y-60456190D01*
X145234285Y-60432380D01*
X145186666Y-60384761D01*
X145162857Y-60337142D01*
X145139047Y-60241904D01*
X145139047Y-60170476D01*
X145162857Y-60075238D01*
X145186666Y-60027619D01*
X145234285Y-59980000D01*
X145305714Y-59956190D01*
X145353333Y-59956190D01*
X145424761Y-59980000D01*
X145448571Y-60003809D01*
X145924761Y-60456190D02*
X145639047Y-60456190D01*
X145781904Y-60456190D02*
X145781904Y-59956190D01*
X145734285Y-60027619D01*
X145686666Y-60075238D01*
X145639047Y-60099047D01*
X146234285Y-59956190D02*
X146281904Y-59956190D01*
X146329523Y-59980000D01*
X146353333Y-60003809D01*
X146377142Y-60051428D01*
X146400952Y-60146666D01*
X146400952Y-60265714D01*
X146377142Y-60360952D01*
X146353333Y-60408571D01*
X146329523Y-60432380D01*
X146281904Y-60456190D01*
X146234285Y-60456190D01*
X146186666Y-60432380D01*
X146162857Y-60408571D01*
X146139047Y-60360952D01*
X146115238Y-60265714D01*
X146115238Y-60146666D01*
X146139047Y-60051428D01*
X146162857Y-60003809D01*
X146186666Y-59980000D01*
X146234285Y-59956190D01*
X140150190Y-63619047D02*
X139650190Y-63619047D01*
X139650190Y-63500000D01*
X139674000Y-63428571D01*
X139721619Y-63380952D01*
X139769238Y-63357142D01*
X139864476Y-63333333D01*
X139935904Y-63333333D01*
X140031142Y-63357142D01*
X140078761Y-63380952D01*
X140126380Y-63428571D01*
X140150190Y-63500000D01*
X140150190Y-63619047D01*
X139650190Y-63166666D02*
X139650190Y-62857142D01*
X139840666Y-63023809D01*
X139840666Y-62952380D01*
X139864476Y-62904761D01*
X139888285Y-62880952D01*
X139935904Y-62857142D01*
X140054952Y-62857142D01*
X140102571Y-62880952D01*
X140126380Y-62904761D01*
X140150190Y-62952380D01*
X140150190Y-63095238D01*
X140126380Y-63142857D01*
X140102571Y-63166666D01*
X146828664Y-68996190D02*
X146661998Y-68758095D01*
X146542950Y-68996190D02*
X146542950Y-68496190D01*
X146733426Y-68496190D01*
X146781045Y-68520000D01*
X146804855Y-68543809D01*
X146828664Y-68591428D01*
X146828664Y-68662857D01*
X146804855Y-68710476D01*
X146781045Y-68734285D01*
X146733426Y-68758095D01*
X146542950Y-68758095D01*
X147114378Y-68710476D02*
X147066759Y-68686666D01*
X147042950Y-68662857D01*
X147019140Y-68615238D01*
X147019140Y-68591428D01*
X147042950Y-68543809D01*
X147066759Y-68520000D01*
X147114378Y-68496190D01*
X147209617Y-68496190D01*
X147257236Y-68520000D01*
X147281045Y-68543809D01*
X147304855Y-68591428D01*
X147304855Y-68615238D01*
X147281045Y-68662857D01*
X147257236Y-68686666D01*
X147209617Y-68710476D01*
X147114378Y-68710476D01*
X147066759Y-68734285D01*
X147042950Y-68758095D01*
X147019140Y-68805714D01*
X147019140Y-68900952D01*
X147042950Y-68948571D01*
X147066759Y-68972380D01*
X147114378Y-68996190D01*
X147209617Y-68996190D01*
X147257236Y-68972380D01*
X147281045Y-68948571D01*
X147304855Y-68900952D01*
X147304855Y-68805714D01*
X147281045Y-68758095D01*
X147257236Y-68734285D01*
X147209617Y-68710476D01*
X127693333Y-57904285D02*
X127526666Y-57904285D01*
X127526666Y-58166190D02*
X127526666Y-57666190D01*
X127764761Y-57666190D01*
X128121904Y-57904285D02*
X128193333Y-57928095D01*
X128217142Y-57951904D01*
X128240952Y-57999523D01*
X128240952Y-58070952D01*
X128217142Y-58118571D01*
X128193333Y-58142380D01*
X128145714Y-58166190D01*
X127955238Y-58166190D01*
X127955238Y-57666190D01*
X128121904Y-57666190D01*
X128169523Y-57690000D01*
X128193333Y-57713809D01*
X128217142Y-57761428D01*
X128217142Y-57809047D01*
X128193333Y-57856666D01*
X128169523Y-57880476D01*
X128121904Y-57904285D01*
X127955238Y-57904285D01*
X128431428Y-57713809D02*
X128455238Y-57690000D01*
X128502857Y-57666190D01*
X128621904Y-57666190D01*
X128669523Y-57690000D01*
X128693333Y-57713809D01*
X128717142Y-57761428D01*
X128717142Y-57809047D01*
X128693333Y-57880476D01*
X128407619Y-58166190D01*
X128717142Y-58166190D01*
X150355665Y-68996190D02*
X150188999Y-68758095D01*
X150069951Y-68996190D02*
X150069951Y-68496190D01*
X150260427Y-68496190D01*
X150308046Y-68520000D01*
X150331856Y-68543809D01*
X150355665Y-68591428D01*
X150355665Y-68662857D01*
X150331856Y-68710476D01*
X150308046Y-68734285D01*
X150260427Y-68758095D01*
X150069951Y-68758095D01*
X150522332Y-68496190D02*
X150855665Y-68496190D01*
X150641379Y-68996190D01*
X143996190Y-72853333D02*
X143758095Y-73020000D01*
X143996190Y-73139047D02*
X143496190Y-73139047D01*
X143496190Y-72948571D01*
X143520000Y-72900952D01*
X143543809Y-72877142D01*
X143591428Y-72853333D01*
X143662857Y-72853333D01*
X143710476Y-72877142D01*
X143734285Y-72900952D01*
X143758095Y-72948571D01*
X143758095Y-73139047D01*
X143496190Y-72424761D02*
X143496190Y-72520000D01*
X143520000Y-72567619D01*
X143543809Y-72591428D01*
X143615238Y-72639047D01*
X143710476Y-72662857D01*
X143900952Y-72662857D01*
X143948571Y-72639047D01*
X143972380Y-72615238D01*
X143996190Y-72567619D01*
X143996190Y-72472380D01*
X143972380Y-72424761D01*
X143948571Y-72400952D01*
X143900952Y-72377142D01*
X143781904Y-72377142D01*
X143734285Y-72400952D01*
X143710476Y-72424761D01*
X143686666Y-72472380D01*
X143686666Y-72567619D01*
X143710476Y-72615238D01*
X143734285Y-72639047D01*
X143781904Y-72662857D01*
X153587903Y-66458571D02*
X153564093Y-66482380D01*
X153492665Y-66506190D01*
X153445046Y-66506190D01*
X153373617Y-66482380D01*
X153325998Y-66434761D01*
X153302189Y-66387142D01*
X153278379Y-66291904D01*
X153278379Y-66220476D01*
X153302189Y-66125238D01*
X153325998Y-66077619D01*
X153373617Y-66030000D01*
X153445046Y-66006190D01*
X153492665Y-66006190D01*
X153564093Y-66030000D01*
X153587903Y-66053809D01*
X154064093Y-66506190D02*
X153778379Y-66506190D01*
X153921236Y-66506190D02*
X153921236Y-66006190D01*
X153873617Y-66077619D01*
X153825998Y-66125238D01*
X153778379Y-66149047D01*
X154516474Y-66006190D02*
X154278379Y-66006190D01*
X154254570Y-66244285D01*
X154278379Y-66220476D01*
X154325998Y-66196666D01*
X154445046Y-66196666D01*
X154492665Y-66220476D01*
X154516474Y-66244285D01*
X154540284Y-66291904D01*
X154540284Y-66410952D01*
X154516474Y-66458571D01*
X154492665Y-66482380D01*
X154445046Y-66506190D01*
X154325998Y-66506190D01*
X154278379Y-66482380D01*
X154254570Y-66458571D01*
X150626190Y-63619047D02*
X150126190Y-63619047D01*
X150126190Y-63500000D01*
X150150000Y-63428571D01*
X150197619Y-63380952D01*
X150245238Y-63357142D01*
X150340476Y-63333333D01*
X150411904Y-63333333D01*
X150507142Y-63357142D01*
X150554761Y-63380952D01*
X150602380Y-63428571D01*
X150626190Y-63500000D01*
X150626190Y-63619047D01*
X150126190Y-62904761D02*
X150126190Y-63000000D01*
X150150000Y-63047619D01*
X150173809Y-63071428D01*
X150245238Y-63119047D01*
X150340476Y-63142857D01*
X150530952Y-63142857D01*
X150578571Y-63119047D01*
X150602380Y-63095238D01*
X150626190Y-63047619D01*
X150626190Y-62952380D01*
X150602380Y-62904761D01*
X150578571Y-62880952D01*
X150530952Y-62857142D01*
X150411904Y-62857142D01*
X150364285Y-62880952D01*
X150340476Y-62904761D01*
X150316666Y-62952380D01*
X150316666Y-63047619D01*
X150340476Y-63095238D01*
X150364285Y-63119047D01*
X150411904Y-63142857D01*
X137492857Y-73443571D02*
X137469047Y-73467380D01*
X137397619Y-73491190D01*
X137350000Y-73491190D01*
X137278571Y-73467380D01*
X137230952Y-73419761D01*
X137207142Y-73372142D01*
X137183333Y-73276904D01*
X137183333Y-73205476D01*
X137207142Y-73110238D01*
X137230952Y-73062619D01*
X137278571Y-73015000D01*
X137350000Y-72991190D01*
X137397619Y-72991190D01*
X137469047Y-73015000D01*
X137492857Y-73038809D01*
X137921428Y-73491190D02*
X137921428Y-73229285D01*
X137897619Y-73181666D01*
X137850000Y-73157857D01*
X137754761Y-73157857D01*
X137707142Y-73181666D01*
X137921428Y-73467380D02*
X137873809Y-73491190D01*
X137754761Y-73491190D01*
X137707142Y-73467380D01*
X137683333Y-73419761D01*
X137683333Y-73372142D01*
X137707142Y-73324523D01*
X137754761Y-73300714D01*
X137873809Y-73300714D01*
X137921428Y-73276904D01*
X138088095Y-73157857D02*
X138278571Y-73157857D01*
X138159523Y-72991190D02*
X138159523Y-73419761D01*
X138183333Y-73467380D01*
X138230952Y-73491190D01*
X138278571Y-73491190D01*
X138445238Y-73491190D02*
X138445238Y-72991190D01*
X138659523Y-73491190D02*
X138659523Y-73229285D01*
X138635714Y-73181666D01*
X138588095Y-73157857D01*
X138516666Y-73157857D01*
X138469047Y-73181666D01*
X138445238Y-73205476D01*
X138969047Y-73491190D02*
X138921428Y-73467380D01*
X138897619Y-73443571D01*
X138873809Y-73395952D01*
X138873809Y-73253095D01*
X138897619Y-73205476D01*
X138921428Y-73181666D01*
X138969047Y-73157857D01*
X139040476Y-73157857D01*
X139088095Y-73181666D01*
X139111904Y-73205476D01*
X139135714Y-73253095D01*
X139135714Y-73395952D01*
X139111904Y-73443571D01*
X139088095Y-73467380D01*
X139040476Y-73491190D01*
X138969047Y-73491190D01*
X139564285Y-73491190D02*
X139564285Y-72991190D01*
X139564285Y-73467380D02*
X139516666Y-73491190D01*
X139421428Y-73491190D01*
X139373809Y-73467380D01*
X139350000Y-73443571D01*
X139326190Y-73395952D01*
X139326190Y-73253095D01*
X139350000Y-73205476D01*
X139373809Y-73181666D01*
X139421428Y-73157857D01*
X139516666Y-73157857D01*
X139564285Y-73181666D01*
X139992857Y-73467380D02*
X139945238Y-73491190D01*
X139850000Y-73491190D01*
X139802380Y-73467380D01*
X139778571Y-73419761D01*
X139778571Y-73229285D01*
X139802380Y-73181666D01*
X139850000Y-73157857D01*
X139945238Y-73157857D01*
X139992857Y-73181666D01*
X140016666Y-73229285D01*
X140016666Y-73276904D01*
X139778571Y-73324523D01*
X154126190Y-63619047D02*
X153626190Y-63619047D01*
X153626190Y-63500000D01*
X153650000Y-63428571D01*
X153697619Y-63380952D01*
X153745238Y-63357142D01*
X153840476Y-63333333D01*
X153911904Y-63333333D01*
X154007142Y-63357142D01*
X154054761Y-63380952D01*
X154102380Y-63428571D01*
X154126190Y-63500000D01*
X154126190Y-63619047D01*
X153626190Y-63166666D02*
X153626190Y-62833333D01*
X154126190Y-63047619D01*
X138846666Y-60488571D02*
X138822857Y-60512380D01*
X138751428Y-60536190D01*
X138703809Y-60536190D01*
X138632380Y-60512380D01*
X138584761Y-60464761D01*
X138560952Y-60417142D01*
X138537142Y-60321904D01*
X138537142Y-60250476D01*
X138560952Y-60155238D01*
X138584761Y-60107619D01*
X138632380Y-60060000D01*
X138703809Y-60036190D01*
X138751428Y-60036190D01*
X138822857Y-60060000D01*
X138846666Y-60083809D01*
X139275238Y-60036190D02*
X139180000Y-60036190D01*
X139132380Y-60060000D01*
X139108571Y-60083809D01*
X139060952Y-60155238D01*
X139037142Y-60250476D01*
X139037142Y-60440952D01*
X139060952Y-60488571D01*
X139084761Y-60512380D01*
X139132380Y-60536190D01*
X139227619Y-60536190D01*
X139275238Y-60512380D01*
X139299047Y-60488571D01*
X139322857Y-60440952D01*
X139322857Y-60321904D01*
X139299047Y-60274285D01*
X139275238Y-60250476D01*
X139227619Y-60226666D01*
X139132380Y-60226666D01*
X139084761Y-60250476D01*
X139060952Y-60274285D01*
X139037142Y-60321904D01*
X130016666Y-58178571D02*
X129992857Y-58202380D01*
X129921428Y-58226190D01*
X129873809Y-58226190D01*
X129802380Y-58202380D01*
X129754761Y-58154761D01*
X129730952Y-58107142D01*
X129707142Y-58011904D01*
X129707142Y-57940476D01*
X129730952Y-57845238D01*
X129754761Y-57797619D01*
X129802380Y-57750000D01*
X129873809Y-57726190D01*
X129921428Y-57726190D01*
X129992857Y-57750000D01*
X130016666Y-57773809D01*
X130469047Y-57726190D02*
X130230952Y-57726190D01*
X130207142Y-57964285D01*
X130230952Y-57940476D01*
X130278571Y-57916666D01*
X130397619Y-57916666D01*
X130445238Y-57940476D01*
X130469047Y-57964285D01*
X130492857Y-58011904D01*
X130492857Y-58130952D01*
X130469047Y-58178571D01*
X130445238Y-58202380D01*
X130397619Y-58226190D01*
X130278571Y-58226190D01*
X130230952Y-58202380D01*
X130207142Y-58178571D01*
X162024190Y-67012333D02*
X161786095Y-67179000D01*
X162024190Y-67298047D02*
X161524190Y-67298047D01*
X161524190Y-67107571D01*
X161548000Y-67059952D01*
X161571809Y-67036142D01*
X161619428Y-67012333D01*
X161690857Y-67012333D01*
X161738476Y-67036142D01*
X161762285Y-67059952D01*
X161786095Y-67107571D01*
X161786095Y-67298047D01*
X162024190Y-66536142D02*
X162024190Y-66821857D01*
X162024190Y-66679000D02*
X161524190Y-66679000D01*
X161595619Y-66726619D01*
X161643238Y-66774238D01*
X161667047Y-66821857D01*
X157088236Y-66508571D02*
X157064426Y-66532380D01*
X156992998Y-66556190D01*
X156945379Y-66556190D01*
X156873950Y-66532380D01*
X156826331Y-66484761D01*
X156802522Y-66437142D01*
X156778712Y-66341904D01*
X156778712Y-66270476D01*
X156802522Y-66175238D01*
X156826331Y-66127619D01*
X156873950Y-66080000D01*
X156945379Y-66056190D01*
X156992998Y-66056190D01*
X157064426Y-66080000D01*
X157088236Y-66103809D01*
X157564426Y-66556190D02*
X157278712Y-66556190D01*
X157421569Y-66556190D02*
X157421569Y-66056190D01*
X157373950Y-66127619D01*
X157326331Y-66175238D01*
X157278712Y-66199047D01*
X157731093Y-66056190D02*
X158064426Y-66056190D01*
X157850141Y-66556190D01*
X141360571Y-73996190D02*
X141193904Y-73758095D01*
X141074857Y-73996190D02*
X141074857Y-73496190D01*
X141265333Y-73496190D01*
X141312952Y-73520000D01*
X141336761Y-73543809D01*
X141360571Y-73591428D01*
X141360571Y-73662857D01*
X141336761Y-73710476D01*
X141312952Y-73734285D01*
X141265333Y-73758095D01*
X141074857Y-73758095D01*
X141836761Y-73996190D02*
X141551047Y-73996190D01*
X141693904Y-73996190D02*
X141693904Y-73496190D01*
X141646285Y-73567619D01*
X141598666Y-73615238D01*
X141551047Y-73639047D01*
X142122476Y-73710476D02*
X142074857Y-73686666D01*
X142051047Y-73662857D01*
X142027238Y-73615238D01*
X142027238Y-73591428D01*
X142051047Y-73543809D01*
X142074857Y-73520000D01*
X142122476Y-73496190D01*
X142217714Y-73496190D01*
X142265333Y-73520000D01*
X142289142Y-73543809D01*
X142312952Y-73591428D01*
X142312952Y-73615238D01*
X142289142Y-73662857D01*
X142265333Y-73686666D01*
X142217714Y-73710476D01*
X142122476Y-73710476D01*
X142074857Y-73734285D01*
X142051047Y-73758095D01*
X142027238Y-73805714D01*
X142027238Y-73900952D01*
X142051047Y-73948571D01*
X142074857Y-73972380D01*
X142122476Y-73996190D01*
X142217714Y-73996190D01*
X142265333Y-73972380D01*
X142289142Y-73948571D01*
X142312952Y-73900952D01*
X142312952Y-73805714D01*
X142289142Y-73758095D01*
X142265333Y-73734285D01*
X142217714Y-73710476D01*
X139754666Y-66428571D02*
X139730857Y-66452380D01*
X139659428Y-66476190D01*
X139611809Y-66476190D01*
X139540380Y-66452380D01*
X139492761Y-66404761D01*
X139468952Y-66357142D01*
X139445142Y-66261904D01*
X139445142Y-66190476D01*
X139468952Y-66095238D01*
X139492761Y-66047619D01*
X139540380Y-66000000D01*
X139611809Y-65976190D01*
X139659428Y-65976190D01*
X139730857Y-66000000D01*
X139754666Y-66023809D01*
X139921333Y-65976190D02*
X140254666Y-65976190D01*
X140040380Y-66476190D01*
X152488571Y-60448571D02*
X152464761Y-60472380D01*
X152393333Y-60496190D01*
X152345714Y-60496190D01*
X152274285Y-60472380D01*
X152226666Y-60424761D01*
X152202857Y-60377142D01*
X152179047Y-60281904D01*
X152179047Y-60210476D01*
X152202857Y-60115238D01*
X152226666Y-60067619D01*
X152274285Y-60020000D01*
X152345714Y-59996190D01*
X152393333Y-59996190D01*
X152464761Y-60020000D01*
X152488571Y-60043809D01*
X152964761Y-60496190D02*
X152679047Y-60496190D01*
X152821904Y-60496190D02*
X152821904Y-59996190D01*
X152774285Y-60067619D01*
X152726666Y-60115238D01*
X152679047Y-60139047D01*
X153393333Y-60162857D02*
X153393333Y-60496190D01*
X153274285Y-59972380D02*
X153155238Y-60329523D01*
X153464761Y-60329523D01*
X134416666Y-63076190D02*
X134178571Y-63076190D01*
X134178571Y-62576190D01*
X134845238Y-63076190D02*
X134559523Y-63076190D01*
X134702380Y-63076190D02*
X134702380Y-62576190D01*
X134654761Y-62647619D01*
X134607142Y-62695238D01*
X134559523Y-62719047D01*
X141132571Y-77823190D02*
X140965904Y-77585095D01*
X140846857Y-77823190D02*
X140846857Y-77323190D01*
X141037333Y-77323190D01*
X141084952Y-77347000D01*
X141108761Y-77370809D01*
X141132571Y-77418428D01*
X141132571Y-77489857D01*
X141108761Y-77537476D01*
X141084952Y-77561285D01*
X141037333Y-77585095D01*
X140846857Y-77585095D01*
X141608761Y-77823190D02*
X141323047Y-77823190D01*
X141465904Y-77823190D02*
X141465904Y-77323190D01*
X141418285Y-77394619D01*
X141370666Y-77442238D01*
X141323047Y-77466047D01*
X142084952Y-77823190D02*
X141799238Y-77823190D01*
X141942095Y-77823190D02*
X141942095Y-77323190D01*
X141894476Y-77394619D01*
X141846857Y-77442238D01*
X141799238Y-77466047D01*
X139505571Y-68996190D02*
X139338904Y-68758095D01*
X139219857Y-68996190D02*
X139219857Y-68496190D01*
X139410333Y-68496190D01*
X139457952Y-68520000D01*
X139481761Y-68543809D01*
X139505571Y-68591428D01*
X139505571Y-68662857D01*
X139481761Y-68710476D01*
X139457952Y-68734285D01*
X139410333Y-68758095D01*
X139219857Y-68758095D01*
X139981761Y-68996190D02*
X139696047Y-68996190D01*
X139838904Y-68996190D02*
X139838904Y-68496190D01*
X139791285Y-68567619D01*
X139743666Y-68615238D01*
X139696047Y-68639047D01*
X140291285Y-68496190D02*
X140338904Y-68496190D01*
X140386523Y-68520000D01*
X140410333Y-68543809D01*
X140434142Y-68591428D01*
X140457952Y-68686666D01*
X140457952Y-68805714D01*
X140434142Y-68900952D01*
X140410333Y-68948571D01*
X140386523Y-68972380D01*
X140338904Y-68996190D01*
X140291285Y-68996190D01*
X140243666Y-68972380D01*
X140219857Y-68948571D01*
X140196047Y-68900952D01*
X140172238Y-68805714D01*
X140172238Y-68686666D01*
X140196047Y-68591428D01*
X140219857Y-68543809D01*
X140243666Y-68520000D01*
X140291285Y-68496190D01*
X159498571Y-60518571D02*
X159474761Y-60542380D01*
X159403333Y-60566190D01*
X159355714Y-60566190D01*
X159284285Y-60542380D01*
X159236666Y-60494761D01*
X159212857Y-60447142D01*
X159189047Y-60351904D01*
X159189047Y-60280476D01*
X159212857Y-60185238D01*
X159236666Y-60137619D01*
X159284285Y-60090000D01*
X159355714Y-60066190D01*
X159403333Y-60066190D01*
X159474761Y-60090000D01*
X159498571Y-60113809D01*
X159974761Y-60566190D02*
X159689047Y-60566190D01*
X159831904Y-60566190D02*
X159831904Y-60066190D01*
X159784285Y-60137619D01*
X159736666Y-60185238D01*
X159689047Y-60209047D01*
X160260476Y-60280476D02*
X160212857Y-60256666D01*
X160189047Y-60232857D01*
X160165238Y-60185238D01*
X160165238Y-60161428D01*
X160189047Y-60113809D01*
X160212857Y-60090000D01*
X160260476Y-60066190D01*
X160355714Y-60066190D01*
X160403333Y-60090000D01*
X160427142Y-60113809D01*
X160450952Y-60161428D01*
X160450952Y-60185238D01*
X160427142Y-60232857D01*
X160403333Y-60256666D01*
X160355714Y-60280476D01*
X160260476Y-60280476D01*
X160212857Y-60304285D01*
X160189047Y-60328095D01*
X160165238Y-60375714D01*
X160165238Y-60470952D01*
X160189047Y-60518571D01*
X160212857Y-60542380D01*
X160260476Y-60566190D01*
X160355714Y-60566190D01*
X160403333Y-60542380D01*
X160427142Y-60518571D01*
X160450952Y-60470952D01*
X160450952Y-60375714D01*
X160427142Y-60328095D01*
X160403333Y-60304285D01*
X160355714Y-60280476D01*
X143330665Y-68996190D02*
X143163999Y-68758095D01*
X143044951Y-68996190D02*
X143044951Y-68496190D01*
X143235427Y-68496190D01*
X143283046Y-68520000D01*
X143306856Y-68543809D01*
X143330665Y-68591428D01*
X143330665Y-68662857D01*
X143306856Y-68710476D01*
X143283046Y-68734285D01*
X143235427Y-68758095D01*
X143044951Y-68758095D01*
X143568760Y-68996190D02*
X143663999Y-68996190D01*
X143711618Y-68972380D01*
X143735427Y-68948571D01*
X143783046Y-68877142D01*
X143806856Y-68781904D01*
X143806856Y-68591428D01*
X143783046Y-68543809D01*
X143759237Y-68520000D01*
X143711618Y-68496190D01*
X143616379Y-68496190D01*
X143568760Y-68520000D01*
X143544951Y-68543809D01*
X143521141Y-68591428D01*
X143521141Y-68710476D01*
X143544951Y-68758095D01*
X143568760Y-68781904D01*
X143616379Y-68805714D01*
X143711618Y-68805714D01*
X143759237Y-68781904D01*
X143783046Y-68758095D01*
X143806856Y-68710476D01*
X143698571Y-70746190D02*
X143531904Y-70508095D01*
X143412857Y-70746190D02*
X143412857Y-70246190D01*
X143603333Y-70246190D01*
X143650952Y-70270000D01*
X143674761Y-70293809D01*
X143698571Y-70341428D01*
X143698571Y-70412857D01*
X143674761Y-70460476D01*
X143650952Y-70484285D01*
X143603333Y-70508095D01*
X143412857Y-70508095D01*
X144174761Y-70746190D02*
X143889047Y-70746190D01*
X144031904Y-70746190D02*
X144031904Y-70246190D01*
X143984285Y-70317619D01*
X143936666Y-70365238D01*
X143889047Y-70389047D01*
X144341428Y-70246190D02*
X144650952Y-70246190D01*
X144484285Y-70436666D01*
X144555714Y-70436666D01*
X144603333Y-70460476D01*
X144627142Y-70484285D01*
X144650952Y-70531904D01*
X144650952Y-70650952D01*
X144627142Y-70698571D01*
X144603333Y-70722380D01*
X144555714Y-70746190D01*
X144412857Y-70746190D01*
X144365238Y-70722380D01*
X144341428Y-70698571D01*
X156018571Y-60448571D02*
X155994761Y-60472380D01*
X155923333Y-60496190D01*
X155875714Y-60496190D01*
X155804285Y-60472380D01*
X155756666Y-60424761D01*
X155732857Y-60377142D01*
X155709047Y-60281904D01*
X155709047Y-60210476D01*
X155732857Y-60115238D01*
X155756666Y-60067619D01*
X155804285Y-60020000D01*
X155875714Y-59996190D01*
X155923333Y-59996190D01*
X155994761Y-60020000D01*
X156018571Y-60043809D01*
X156494761Y-60496190D02*
X156209047Y-60496190D01*
X156351904Y-60496190D02*
X156351904Y-59996190D01*
X156304285Y-60067619D01*
X156256666Y-60115238D01*
X156209047Y-60139047D01*
X156923333Y-59996190D02*
X156828095Y-59996190D01*
X156780476Y-60020000D01*
X156756666Y-60043809D01*
X156709047Y-60115238D01*
X156685238Y-60210476D01*
X156685238Y-60400952D01*
X156709047Y-60448571D01*
X156732857Y-60472380D01*
X156780476Y-60496190D01*
X156875714Y-60496190D01*
X156923333Y-60472380D01*
X156947142Y-60448571D01*
X156970952Y-60400952D01*
X156970952Y-60281904D01*
X156947142Y-60234285D01*
X156923333Y-60210476D01*
X156875714Y-60186666D01*
X156780476Y-60186666D01*
X156732857Y-60210476D01*
X156709047Y-60234285D01*
X156685238Y-60281904D01*
X144919047Y-74626190D02*
X144919047Y-75030952D01*
X144942857Y-75078571D01*
X144966666Y-75102380D01*
X145014285Y-75126190D01*
X145109523Y-75126190D01*
X145157142Y-75102380D01*
X145180952Y-75078571D01*
X145204761Y-75030952D01*
X145204761Y-74626190D01*
X145657142Y-74792857D02*
X145657142Y-75126190D01*
X145538095Y-74602380D02*
X145419047Y-74959523D01*
X145728571Y-74959523D01*
X134722380Y-69043809D02*
X134674761Y-69020000D01*
X134627142Y-68972380D01*
X134555714Y-68900952D01*
X134508095Y-68877142D01*
X134460476Y-68877142D01*
X134484285Y-68996190D02*
X134436666Y-68972380D01*
X134389047Y-68924761D01*
X134365238Y-68829523D01*
X134365238Y-68662857D01*
X134389047Y-68567619D01*
X134436666Y-68520000D01*
X134484285Y-68496190D01*
X134579523Y-68496190D01*
X134627142Y-68520000D01*
X134674761Y-68567619D01*
X134698571Y-68662857D01*
X134698571Y-68829523D01*
X134674761Y-68924761D01*
X134627142Y-68972380D01*
X134579523Y-68996190D01*
X134484285Y-68996190D01*
X135174761Y-68996190D02*
X134889047Y-68996190D01*
X135031904Y-68996190D02*
X135031904Y-68496190D01*
X134984285Y-68567619D01*
X134936666Y-68615238D01*
X134889047Y-68639047D01*
X161126190Y-63619047D02*
X160626190Y-63619047D01*
X160626190Y-63500000D01*
X160650000Y-63428571D01*
X160697619Y-63380952D01*
X160745238Y-63357142D01*
X160840476Y-63333333D01*
X160911904Y-63333333D01*
X161007142Y-63357142D01*
X161054761Y-63380952D01*
X161102380Y-63428571D01*
X161126190Y-63500000D01*
X161126190Y-63619047D01*
X161126190Y-63095238D02*
X161126190Y-63000000D01*
X161102380Y-62952380D01*
X161078571Y-62928571D01*
X161007142Y-62880952D01*
X160911904Y-62857142D01*
X160721428Y-62857142D01*
X160673809Y-62880952D01*
X160650000Y-62904761D01*
X160626190Y-62952380D01*
X160626190Y-63047619D01*
X160650000Y-63095238D01*
X160673809Y-63119047D01*
X160721428Y-63142857D01*
X160840476Y-63142857D01*
X160888095Y-63119047D01*
X160911904Y-63095238D01*
X160935714Y-63047619D01*
X160935714Y-62952380D01*
X160911904Y-62904761D01*
X160888095Y-62880952D01*
X160840476Y-62857142D01*
X159126190Y-75734047D02*
X158626190Y-75734047D01*
X158626190Y-75615000D01*
X158650000Y-75543571D01*
X158697619Y-75495952D01*
X158745238Y-75472142D01*
X158840476Y-75448333D01*
X158911904Y-75448333D01*
X159007142Y-75472142D01*
X159054761Y-75495952D01*
X159102380Y-75543571D01*
X159126190Y-75615000D01*
X159126190Y-75734047D01*
X158673809Y-75257857D02*
X158650000Y-75234047D01*
X158626190Y-75186428D01*
X158626190Y-75067380D01*
X158650000Y-75019761D01*
X158673809Y-74995952D01*
X158721428Y-74972142D01*
X158769047Y-74972142D01*
X158840476Y-74995952D01*
X159126190Y-75281666D01*
X159126190Y-74972142D01*
X164953047Y-67163190D02*
X165238761Y-67163190D01*
X165095904Y-67663190D02*
X165095904Y-67163190D01*
X165405428Y-67663190D02*
X165405428Y-67163190D01*
X165595904Y-67163190D01*
X165643523Y-67187000D01*
X165667333Y-67210809D01*
X165691142Y-67258428D01*
X165691142Y-67329857D01*
X165667333Y-67377476D01*
X165643523Y-67401285D01*
X165595904Y-67425095D01*
X165405428Y-67425095D01*
X165857809Y-67163190D02*
X166191142Y-67163190D01*
X165976857Y-67663190D01*
X137748571Y-71948571D02*
X137724761Y-71972380D01*
X137653333Y-71996190D01*
X137605714Y-71996190D01*
X137534285Y-71972380D01*
X137486666Y-71924761D01*
X137462857Y-71877142D01*
X137439047Y-71781904D01*
X137439047Y-71710476D01*
X137462857Y-71615238D01*
X137486666Y-71567619D01*
X137534285Y-71520000D01*
X137605714Y-71496190D01*
X137653333Y-71496190D01*
X137724761Y-71520000D01*
X137748571Y-71543809D01*
X138224761Y-71996190D02*
X137939047Y-71996190D01*
X138081904Y-71996190D02*
X138081904Y-71496190D01*
X138034285Y-71567619D01*
X137986666Y-71615238D01*
X137939047Y-71639047D01*
X138462857Y-71996190D02*
X138558095Y-71996190D01*
X138605714Y-71972380D01*
X138629523Y-71948571D01*
X138677142Y-71877142D01*
X138700952Y-71781904D01*
X138700952Y-71591428D01*
X138677142Y-71543809D01*
X138653333Y-71520000D01*
X138605714Y-71496190D01*
X138510476Y-71496190D01*
X138462857Y-71520000D01*
X138439047Y-71543809D01*
X138415238Y-71591428D01*
X138415238Y-71710476D01*
X138439047Y-71758095D01*
X138462857Y-71781904D01*
X138510476Y-71805714D01*
X138605714Y-71805714D01*
X138653333Y-71781904D01*
X138677142Y-71758095D01*
X138700952Y-71710476D01*
X142356666Y-60428571D02*
X142332857Y-60452380D01*
X142261428Y-60476190D01*
X142213809Y-60476190D01*
X142142380Y-60452380D01*
X142094761Y-60404761D01*
X142070952Y-60357142D01*
X142047142Y-60261904D01*
X142047142Y-60190476D01*
X142070952Y-60095238D01*
X142094761Y-60047619D01*
X142142380Y-60000000D01*
X142213809Y-59976190D01*
X142261428Y-59976190D01*
X142332857Y-60000000D01*
X142356666Y-60023809D01*
X142642380Y-60190476D02*
X142594761Y-60166666D01*
X142570952Y-60142857D01*
X142547142Y-60095238D01*
X142547142Y-60071428D01*
X142570952Y-60023809D01*
X142594761Y-60000000D01*
X142642380Y-59976190D01*
X142737619Y-59976190D01*
X142785238Y-60000000D01*
X142809047Y-60023809D01*
X142832857Y-60071428D01*
X142832857Y-60095238D01*
X142809047Y-60142857D01*
X142785238Y-60166666D01*
X142737619Y-60190476D01*
X142642380Y-60190476D01*
X142594761Y-60214285D01*
X142570952Y-60238095D01*
X142547142Y-60285714D01*
X142547142Y-60380952D01*
X142570952Y-60428571D01*
X142594761Y-60452380D01*
X142642380Y-60476190D01*
X142737619Y-60476190D01*
X142785238Y-60452380D01*
X142809047Y-60428571D01*
X142832857Y-60380952D01*
X142832857Y-60285714D01*
X142809047Y-60238095D01*
X142785238Y-60214285D01*
X142737619Y-60190476D01*
X147144856Y-63619047D02*
X146644856Y-63619047D01*
X146644856Y-63500000D01*
X146668666Y-63428571D01*
X146716285Y-63380952D01*
X146763904Y-63357142D01*
X146859142Y-63333333D01*
X146930570Y-63333333D01*
X147025808Y-63357142D01*
X147073427Y-63380952D01*
X147121046Y-63428571D01*
X147144856Y-63500000D01*
X147144856Y-63619047D01*
X146644856Y-62880952D02*
X146644856Y-63119047D01*
X146882951Y-63142857D01*
X146859142Y-63119047D01*
X146835332Y-63071428D01*
X146835332Y-62952380D01*
X146859142Y-62904761D01*
X146882951Y-62880952D01*
X146930570Y-62857142D01*
X147049618Y-62857142D01*
X147097237Y-62880952D01*
X147121046Y-62904761D01*
X147144856Y-62952380D01*
X147144856Y-63071428D01*
X147121046Y-63119047D01*
X147097237Y-63142857D01*
X144186666Y-77698571D02*
X144162857Y-77722380D01*
X144091428Y-77746190D01*
X144043809Y-77746190D01*
X143972380Y-77722380D01*
X143924761Y-77674761D01*
X143900952Y-77627142D01*
X143877142Y-77531904D01*
X143877142Y-77460476D01*
X143900952Y-77365238D01*
X143924761Y-77317619D01*
X143972380Y-77270000D01*
X144043809Y-77246190D01*
X144091428Y-77246190D01*
X144162857Y-77270000D01*
X144186666Y-77293809D01*
X144353333Y-77246190D02*
X144662857Y-77246190D01*
X144496190Y-77436666D01*
X144567619Y-77436666D01*
X144615238Y-77460476D01*
X144639047Y-77484285D01*
X144662857Y-77531904D01*
X144662857Y-77650952D01*
X144639047Y-77698571D01*
X144615238Y-77722380D01*
X144567619Y-77746190D01*
X144424761Y-77746190D01*
X144377142Y-77722380D01*
X144353333Y-77698571D01*
D13*
X146657414Y-65785000D02*
X147179918Y-65785000D01*
X146657414Y-64315000D02*
X147179918Y-64315000D01*
X129235000Y-71728064D02*
X129235000Y-71273936D01*
X127765000Y-71728064D02*
X127765000Y-71273936D01*
X143137081Y-64315000D02*
X143659585Y-64315000D01*
X143137081Y-65785000D02*
X143659585Y-65785000D01*
X165860000Y-71755000D02*
G75*
G03*
X165860000Y-71755000I-1800000J0D01*
G01*
X165860000Y-75565000D02*
G75*
G03*
X165860000Y-75565000I-1800000J0D01*
G01*
X158960000Y-62000000D02*
X158960000Y-61350000D01*
X155840000Y-62000000D02*
X155840000Y-63675000D01*
X158960000Y-62000000D02*
X158960000Y-62650000D01*
X155840000Y-62000000D02*
X155840000Y-61350000D01*
X141840000Y-62000000D02*
X141840000Y-63675000D01*
X144960000Y-62000000D02*
X144960000Y-61350000D01*
X141840000Y-62000000D02*
X141840000Y-61350000D01*
X144960000Y-62000000D02*
X144960000Y-62650000D01*
X149218748Y-59735000D02*
X149741252Y-59735000D01*
X149218748Y-58265000D02*
X149741252Y-58265000D01*
X150177747Y-65785000D02*
X150700251Y-65785000D01*
X150177747Y-64315000D02*
X150700251Y-64315000D01*
X158255000Y-71205436D02*
X158255000Y-71659564D01*
X156785000Y-71205436D02*
X156785000Y-71659564D01*
X145708748Y-58275000D02*
X146231252Y-58275000D01*
X145708748Y-59745000D02*
X146231252Y-59745000D01*
X138318000Y-61976000D02*
X138318000Y-63651000D01*
X141438000Y-61976000D02*
X141438000Y-61326000D01*
X141438000Y-61976000D02*
X141438000Y-62626000D01*
X138318000Y-61976000D02*
X138318000Y-61326000D01*
X147139062Y-66785000D02*
X146684934Y-66785000D01*
X147139062Y-68255000D02*
X146684934Y-68255000D01*
X128755000Y-60227064D02*
X128755000Y-59772936D01*
X127285000Y-60227064D02*
X127285000Y-59772936D01*
X150666063Y-68255000D02*
X150211935Y-68255000D01*
X150666063Y-66785000D02*
X150211935Y-66785000D01*
X145755000Y-72542936D02*
X145755000Y-72997064D01*
X144285000Y-72542936D02*
X144285000Y-72997064D01*
X153698080Y-65785000D02*
X154220584Y-65785000D01*
X153698080Y-64315000D02*
X154220584Y-64315000D01*
X148840000Y-62000000D02*
X148840000Y-61350000D01*
X151960000Y-62000000D02*
X151960000Y-61350000D01*
X148840000Y-62000000D02*
X148840000Y-63675000D01*
X151960000Y-62000000D02*
X151960000Y-62650000D01*
X140360000Y-75565000D02*
G75*
G03*
X140360000Y-75565000I-1700000J0D01*
G01*
X155460000Y-62000000D02*
X155460000Y-61350000D01*
X155460000Y-62000000D02*
X155460000Y-62650000D01*
X152340000Y-62000000D02*
X152340000Y-61350000D01*
X152340000Y-62000000D02*
X152340000Y-63675000D01*
X138718748Y-58255000D02*
X139241252Y-58255000D01*
X138718748Y-59725000D02*
X139241252Y-59725000D01*
X129365000Y-59738748D02*
X129365000Y-60261252D01*
X130835000Y-59738748D02*
X130835000Y-60261252D01*
G36*
X158354008Y-68107981D02*
G01*
X158418465Y-67985190D01*
X158495031Y-67845078D01*
X158542273Y-67760910D01*
X158641984Y-67584889D01*
X158755844Y-67383887D01*
X158875200Y-67173177D01*
X158991401Y-66968035D01*
X159095794Y-66783735D01*
X159111786Y-66755503D01*
X159193331Y-66611567D01*
X159269700Y-66476823D01*
X159337174Y-66357828D01*
X159392034Y-66261140D01*
X159430562Y-66193316D01*
X159446342Y-66165612D01*
X159475428Y-66114485D01*
X159521151Y-66033815D01*
X159577423Y-65934359D01*
X159638152Y-65826873D01*
X159642813Y-65818618D01*
X159704233Y-65711645D01*
X159762815Y-65612863D01*
X159812217Y-65532759D01*
X159846098Y-65481820D01*
X159847960Y-65479304D01*
X159922055Y-65412165D01*
X160008073Y-65387764D01*
X160099526Y-65407762D01*
X160108994Y-65412410D01*
X160125812Y-65421067D01*
X160141065Y-65430376D01*
X160156880Y-65443742D01*
X160175388Y-65464576D01*
X160198715Y-65496283D01*
X160228991Y-65542273D01*
X160268343Y-65605954D01*
X160318900Y-65690733D01*
X160382791Y-65800018D01*
X160462143Y-65937218D01*
X160559086Y-66105740D01*
X160675747Y-66308992D01*
X160752752Y-66443208D01*
X160866014Y-66640539D01*
X160990071Y-66856567D01*
X161118313Y-67079788D01*
X161244130Y-67298699D01*
X161360912Y-67501797D01*
X161462049Y-67677579D01*
X161472342Y-67695460D01*
X161559194Y-67848331D01*
X161636974Y-67989103D01*
X161702830Y-68112314D01*
X161753907Y-68212502D01*
X161787350Y-68284204D01*
X161800305Y-68321958D01*
X161800371Y-68323271D01*
X161785864Y-68384043D01*
X161756160Y-68435864D01*
X161711949Y-68490476D01*
X160316133Y-68492178D01*
X160055908Y-68492265D01*
X159801432Y-68491914D01*
X159557891Y-68491159D01*
X159330472Y-68490035D01*
X159124363Y-68488579D01*
X158944748Y-68486827D01*
X158796817Y-68484812D01*
X158685754Y-68482572D01*
X158626292Y-68480612D01*
X158502378Y-68474249D01*
X158416405Y-68467305D01*
X158360053Y-68458274D01*
X158325007Y-68445649D01*
X158302948Y-68427927D01*
X158297382Y-68421077D01*
X158269222Y-68360622D01*
X158261763Y-68316101D01*
X158272810Y-68279071D01*
X158292454Y-68234916D01*
X158561756Y-68234916D01*
X158584241Y-68237123D01*
X158649105Y-68239208D01*
X158752463Y-68241137D01*
X158890426Y-68242877D01*
X159059110Y-68244394D01*
X159254626Y-68245655D01*
X159473089Y-68246626D01*
X159710613Y-68247274D01*
X159963309Y-68247566D01*
X160030699Y-68247579D01*
X160286690Y-68247418D01*
X160528513Y-68246952D01*
X160752281Y-68246210D01*
X160954109Y-68245219D01*
X161130109Y-68244008D01*
X161276395Y-68242604D01*
X161389081Y-68241035D01*
X161464280Y-68239329D01*
X161498105Y-68237515D01*
X161499643Y-68237031D01*
X161488785Y-68213122D01*
X161460541Y-68161515D01*
X161427259Y-68104016D01*
X161402166Y-68060963D01*
X161356469Y-67981929D01*
X161292563Y-67871077D01*
X161212842Y-67732572D01*
X161119700Y-67570577D01*
X161015533Y-67389255D01*
X160902735Y-67192772D01*
X160783700Y-66985290D01*
X160718259Y-66871168D01*
X160575769Y-66622625D01*
X160454548Y-66411211D01*
X160352832Y-66233929D01*
X160268855Y-66087785D01*
X160200851Y-65969781D01*
X160147057Y-65876924D01*
X160105706Y-65806216D01*
X160075033Y-65754662D01*
X160053274Y-65719267D01*
X160038662Y-65697035D01*
X160029434Y-65684969D01*
X160023823Y-65680075D01*
X160020065Y-65679357D01*
X160016394Y-65679819D01*
X160016272Y-65679820D01*
X160001653Y-65699180D01*
X159967164Y-65754073D01*
X159915631Y-65839717D01*
X159849882Y-65951329D01*
X159772746Y-66084128D01*
X159687051Y-66233330D01*
X159636665Y-66321760D01*
X159457132Y-66637958D01*
X159290996Y-66931015D01*
X159139261Y-67199141D01*
X159002934Y-67440547D01*
X158883018Y-67653445D01*
X158780519Y-67836045D01*
X158696442Y-67986559D01*
X158631793Y-68103197D01*
X158587576Y-68184172D01*
X158564796Y-68227693D01*
X158561756Y-68234916D01*
X158292454Y-68234916D01*
X158304508Y-68207820D01*
X158354008Y-68107981D01*
G37*
G36*
X160121073Y-66391159D02*
G01*
X160092020Y-66458589D01*
X160053680Y-66547809D01*
X160019168Y-66628272D01*
X159974405Y-66731584D01*
X159925546Y-66842620D01*
X159893431Y-66914512D01*
X159862793Y-66987041D01*
X159843198Y-67042552D01*
X159838878Y-67067526D01*
X159860338Y-67063844D01*
X159913325Y-67040723D01*
X159989453Y-67002123D01*
X160065379Y-66960507D01*
X160154382Y-66911989D01*
X160227186Y-66875647D01*
X160275453Y-66855426D01*
X160290944Y-66853814D01*
X160287077Y-66880591D01*
X160272870Y-66944910D01*
X160250044Y-67039648D01*
X160220322Y-67157680D01*
X160185426Y-67291884D01*
X160181082Y-67308322D01*
X160145353Y-67444414D01*
X160114105Y-67565559D01*
X160089161Y-67664517D01*
X160072342Y-67734050D01*
X160065469Y-67766918D01*
X160065399Y-67767976D01*
X160079445Y-67774348D01*
X160100657Y-67761323D01*
X160137455Y-67738158D01*
X160148487Y-67749335D01*
X160134678Y-67791408D01*
X160096951Y-67860926D01*
X160057226Y-67923441D01*
X160007063Y-67997263D01*
X159966803Y-68053502D01*
X159942949Y-68083189D01*
X159939623Y-68085649D01*
X159930396Y-68064978D01*
X159916420Y-68011377D01*
X159903967Y-67952634D01*
X159881609Y-67837517D01*
X159867403Y-67761091D01*
X159860755Y-67716617D01*
X159861069Y-67697356D01*
X159867752Y-67696568D01*
X159880208Y-67707513D01*
X159882524Y-67709738D01*
X159915800Y-67734520D01*
X159927929Y-67738654D01*
X159936911Y-67717354D01*
X159949226Y-67660296D01*
X159963472Y-67577749D01*
X159978247Y-67479977D01*
X159992149Y-67377247D01*
X160003775Y-67279825D01*
X160011724Y-67197977D01*
X160014593Y-67141971D01*
X160012093Y-67122446D01*
X159987428Y-67127201D01*
X159932703Y-67151388D01*
X159857472Y-67190538D01*
X159813175Y-67215468D01*
X159708719Y-67273896D01*
X159638620Y-67308073D01*
X159598640Y-67319262D01*
X159584542Y-67308723D01*
X159590450Y-67281778D01*
X159603537Y-67241767D01*
X159624764Y-67170112D01*
X159650307Y-67079859D01*
X159660002Y-67044665D01*
X159689190Y-66938297D01*
X159725509Y-66806508D01*
X159763677Y-66668449D01*
X159789249Y-66576222D01*
X159864738Y-66304410D01*
X160158552Y-66304410D01*
X160121073Y-66391159D01*
G37*
X164208000Y-66455936D02*
X164208000Y-67910064D01*
X162388000Y-66455936D02*
X162388000Y-67910064D01*
X157218413Y-65785000D02*
X157740917Y-65785000D01*
X157218413Y-64315000D02*
X157740917Y-64315000D01*
X141997064Y-71785000D02*
X141542936Y-71785000D01*
X141997064Y-73255000D02*
X141542936Y-73255000D01*
X139616748Y-64315000D02*
X140139252Y-64315000D01*
X139616748Y-65785000D02*
X140139252Y-65785000D01*
X152748748Y-58275000D02*
X153271252Y-58275000D01*
X152748748Y-59745000D02*
X153271252Y-59745000D01*
X132400000Y-58100000D02*
X132400000Y-62100000D01*
X136600000Y-58100000D02*
X136600000Y-62100000D01*
X140785000Y-75997064D02*
X140785000Y-75542936D01*
X142255000Y-75997064D02*
X142255000Y-75542936D01*
X139630936Y-66785000D02*
X140085064Y-66785000D01*
X139630936Y-68255000D02*
X140085064Y-68255000D01*
X159708748Y-59735000D02*
X160231252Y-59735000D01*
X159708748Y-58265000D02*
X160231252Y-58265000D01*
X143612063Y-68255000D02*
X143157935Y-68255000D01*
X143612063Y-66785000D02*
X143157935Y-66785000D01*
X141997064Y-71255000D02*
X141542936Y-71255000D01*
X141997064Y-69785000D02*
X141542936Y-69785000D01*
X156228748Y-59735000D02*
X156751252Y-59735000D01*
X156228748Y-58265000D02*
X156751252Y-58265000D01*
X156330000Y-73520000D02*
X156330000Y-75470000D01*
X156330000Y-73520000D02*
X156330000Y-71570000D01*
X146170000Y-75520000D02*
X146210000Y-71570000D01*
D14*
X146350000Y-74920000D02*
G75*
G03*
X146350000Y-74920000I-180000J0D01*
G01*
D13*
X127726000Y-62630000D02*
X133736000Y-62630000D01*
X129976000Y-69450000D02*
X133736000Y-69450000D01*
X133736000Y-69450000D02*
X133736000Y-68190000D01*
X133736000Y-62630000D02*
X133736000Y-63890000D01*
X162460000Y-62000000D02*
X162460000Y-61350000D01*
X159340000Y-62000000D02*
X159340000Y-61350000D01*
X159340000Y-62000000D02*
X159340000Y-63675000D01*
X162460000Y-62000000D02*
X162460000Y-62650000D01*
X158370000Y-76770000D02*
X158370000Y-74220000D01*
X156670000Y-76770000D02*
X156670000Y-74220000D01*
X156670000Y-76770000D02*
X158370000Y-76770000D01*
X166284000Y-66613000D02*
X164884000Y-66613000D01*
X166284000Y-65213000D02*
X166284000Y-66613000D01*
X164884000Y-66613000D02*
X164884000Y-65213000D01*
X164884000Y-65213000D02*
X166284000Y-65213000D01*
X138331252Y-71255000D02*
X137808748Y-71255000D01*
X138331252Y-69785000D02*
X137808748Y-69785000D01*
X142218748Y-58255000D02*
X142741252Y-58255000D01*
X142218748Y-59725000D02*
X142741252Y-59725000D01*
X145358666Y-62000000D02*
X145358666Y-63675000D01*
X148478666Y-62000000D02*
X148478666Y-62650000D01*
X148478666Y-62000000D02*
X148478666Y-61350000D01*
X145358666Y-62000000D02*
X145358666Y-61350000D01*
X144008748Y-77005000D02*
X144531252Y-77005000D01*
X144008748Y-75535000D02*
X144531252Y-75535000D01*
M02*
