G04 #@! TF.GenerationSoftware,KiCad,Pcbnew,(5.99.0-10559-g8513ca974c)*
G04 #@! TF.CreationDate,2021-05-16T19:19:17+12:00*
G04 #@! TF.ProjectId,SafePulse,53616665-5075-46c7-9365-2e6b69636164,V1.2.2*
G04 #@! TF.SameCoordinates,Original*
G04 #@! TF.FileFunction,Legend,Bot*
G04 #@! TF.FilePolarity,Positive*
%FSLAX46Y46*%
G04 Gerber Fmt 4.6, Leading zero omitted, Abs format (unit mm)*
G04 Created by KiCad (PCBNEW (5.99.0-10559-g8513ca974c)) date 2021-05-16 19:19:17*
%MOMM*%
%LPD*%
G01*
G04 APERTURE LIST*
%ADD10C,0.150000*%
%ADD11C,0.325000*%
%ADD12C,0.100000*%
%ADD13C,0.075000*%
%ADD14C,0.120000*%
G04 APERTURE END LIST*
D10*
X159270000Y-77575000D02*
X165100000Y-77575000D01*
X166370000Y-76200000D02*
X165100000Y-77575000D01*
X159270000Y-68825000D02*
X161495000Y-68825000D01*
X161520000Y-65405000D02*
X166370000Y-65405000D01*
X133670000Y-67770000D02*
X135370000Y-67770000D01*
X166370000Y-65405000D02*
X166370000Y-76200000D01*
X159250000Y-68835000D02*
X159250000Y-77575000D01*
D11*
X140362500Y-65500000D02*
G75*
G03*
X140362500Y-65500000I-162500J0D01*
G01*
D10*
X161520000Y-68825000D02*
X161520000Y-65405000D01*
D12*
X134305952Y-73450000D02*
X134353571Y-73426190D01*
X134425000Y-73426190D01*
X134496428Y-73450000D01*
X134544047Y-73497619D01*
X134567857Y-73545238D01*
X134591666Y-73640476D01*
X134591666Y-73711904D01*
X134567857Y-73807142D01*
X134544047Y-73854761D01*
X134496428Y-73902380D01*
X134425000Y-73926190D01*
X134377380Y-73926190D01*
X134305952Y-73902380D01*
X134282142Y-73878571D01*
X134282142Y-73711904D01*
X134377380Y-73711904D01*
X134067857Y-73926190D02*
X134067857Y-73426190D01*
X133782142Y-73926190D01*
X133782142Y-73426190D01*
X133544047Y-73926190D02*
X133544047Y-73426190D01*
X133425000Y-73426190D01*
X133353571Y-73450000D01*
X133305952Y-73497619D01*
X133282142Y-73545238D01*
X133258333Y-73640476D01*
X133258333Y-73711904D01*
X133282142Y-73807142D01*
X133305952Y-73854761D01*
X133353571Y-73902380D01*
X133425000Y-73926190D01*
X133544047Y-73926190D01*
X160815714Y-58429523D02*
X160680000Y-58474761D01*
X160453809Y-58474761D01*
X160363333Y-58429523D01*
X160318095Y-58384285D01*
X160272857Y-58293809D01*
X160272857Y-58203333D01*
X160318095Y-58112857D01*
X160363333Y-58067619D01*
X160453809Y-58022380D01*
X160634761Y-57977142D01*
X160725238Y-57931904D01*
X160770476Y-57886666D01*
X160815714Y-57796190D01*
X160815714Y-57705714D01*
X160770476Y-57615238D01*
X160725238Y-57570000D01*
X160634761Y-57524761D01*
X160408571Y-57524761D01*
X160272857Y-57570000D01*
X159910952Y-58203333D02*
X159458571Y-58203333D01*
X160001428Y-58474761D02*
X159684761Y-57524761D01*
X159368095Y-58474761D01*
X158734761Y-57977142D02*
X159051428Y-57977142D01*
X159051428Y-58474761D02*
X159051428Y-57524761D01*
X158599047Y-57524761D01*
X158237142Y-57977142D02*
X157920476Y-57977142D01*
X157784761Y-58474761D02*
X158237142Y-58474761D01*
X158237142Y-57524761D01*
X157784761Y-57524761D01*
X156834761Y-58384285D02*
X156880000Y-58429523D01*
X157015714Y-58474761D01*
X157106190Y-58474761D01*
X157241904Y-58429523D01*
X157332380Y-58339047D01*
X157377619Y-58248571D01*
X157422857Y-58067619D01*
X157422857Y-57931904D01*
X157377619Y-57750952D01*
X157332380Y-57660476D01*
X157241904Y-57570000D01*
X157106190Y-57524761D01*
X157015714Y-57524761D01*
X156880000Y-57570000D01*
X156834761Y-57615238D01*
X156472857Y-58203333D02*
X156020476Y-58203333D01*
X156563333Y-58474761D02*
X156246666Y-57524761D01*
X155930000Y-58474761D01*
X155658571Y-58429523D02*
X155522857Y-58474761D01*
X155296666Y-58474761D01*
X155206190Y-58429523D01*
X155160952Y-58384285D01*
X155115714Y-58293809D01*
X155115714Y-58203333D01*
X155160952Y-58112857D01*
X155206190Y-58067619D01*
X155296666Y-58022380D01*
X155477619Y-57977142D01*
X155568095Y-57931904D01*
X155613333Y-57886666D01*
X155658571Y-57796190D01*
X155658571Y-57705714D01*
X155613333Y-57615238D01*
X155568095Y-57570000D01*
X155477619Y-57524761D01*
X155251428Y-57524761D01*
X155115714Y-57570000D01*
X154844285Y-57524761D02*
X154301428Y-57524761D01*
X154572857Y-58474761D02*
X154572857Y-57524761D01*
X153984761Y-58384285D02*
X153939523Y-58429523D01*
X153984761Y-58474761D01*
X154030000Y-58429523D01*
X153984761Y-58384285D01*
X153984761Y-58474761D01*
X153351428Y-57524761D02*
X153170476Y-57524761D01*
X153080000Y-57570000D01*
X152989523Y-57660476D01*
X152944285Y-57841428D01*
X152944285Y-58158095D01*
X152989523Y-58339047D01*
X153080000Y-58429523D01*
X153170476Y-58474761D01*
X153351428Y-58474761D01*
X153441904Y-58429523D01*
X153532380Y-58339047D01*
X153577619Y-58158095D01*
X153577619Y-57841428D01*
X153532380Y-57660476D01*
X153441904Y-57570000D01*
X153351428Y-57524761D01*
X151994285Y-58474761D02*
X152310952Y-58022380D01*
X152537142Y-58474761D02*
X152537142Y-57524761D01*
X152175238Y-57524761D01*
X152084761Y-57570000D01*
X152039523Y-57615238D01*
X151994285Y-57705714D01*
X151994285Y-57841428D01*
X152039523Y-57931904D01*
X152084761Y-57977142D01*
X152175238Y-58022380D01*
X152537142Y-58022380D01*
X151089523Y-57570000D02*
X151180000Y-57524761D01*
X151315714Y-57524761D01*
X151451428Y-57570000D01*
X151541904Y-57660476D01*
X151587142Y-57750952D01*
X151632380Y-57931904D01*
X151632380Y-58067619D01*
X151587142Y-58248571D01*
X151541904Y-58339047D01*
X151451428Y-58429523D01*
X151315714Y-58474761D01*
X151225238Y-58474761D01*
X151089523Y-58429523D01*
X151044285Y-58384285D01*
X151044285Y-58067619D01*
X151225238Y-58067619D01*
X128721952Y-73711428D02*
X127960047Y-73711428D01*
X128341000Y-74092380D02*
X128341000Y-73330476D01*
D13*
X134633333Y-77567380D02*
X134561904Y-77591190D01*
X134442857Y-77591190D01*
X134395238Y-77567380D01*
X134371428Y-77543571D01*
X134347619Y-77495952D01*
X134347619Y-77448333D01*
X134371428Y-77400714D01*
X134395238Y-77376904D01*
X134442857Y-77353095D01*
X134538095Y-77329285D01*
X134585714Y-77305476D01*
X134609523Y-77281666D01*
X134633333Y-77234047D01*
X134633333Y-77186428D01*
X134609523Y-77138809D01*
X134585714Y-77115000D01*
X134538095Y-77091190D01*
X134419047Y-77091190D01*
X134347619Y-77115000D01*
X134157142Y-77448333D02*
X133919047Y-77448333D01*
X134204761Y-77591190D02*
X134038095Y-77091190D01*
X133871428Y-77591190D01*
X133538095Y-77329285D02*
X133704761Y-77329285D01*
X133704761Y-77591190D02*
X133704761Y-77091190D01*
X133466666Y-77091190D01*
X133276190Y-77329285D02*
X133109523Y-77329285D01*
X133038095Y-77591190D02*
X133276190Y-77591190D01*
X133276190Y-77091190D01*
X133038095Y-77091190D01*
X132823809Y-77591190D02*
X132823809Y-77091190D01*
X132633333Y-77091190D01*
X132585714Y-77115000D01*
X132561904Y-77138809D01*
X132538095Y-77186428D01*
X132538095Y-77257857D01*
X132561904Y-77305476D01*
X132585714Y-77329285D01*
X132633333Y-77353095D01*
X132823809Y-77353095D01*
X132323809Y-77091190D02*
X132323809Y-77495952D01*
X132300000Y-77543571D01*
X132276190Y-77567380D01*
X132228571Y-77591190D01*
X132133333Y-77591190D01*
X132085714Y-77567380D01*
X132061904Y-77543571D01*
X132038095Y-77495952D01*
X132038095Y-77091190D01*
X131561904Y-77591190D02*
X131800000Y-77591190D01*
X131800000Y-77091190D01*
X131419047Y-77567380D02*
X131347619Y-77591190D01*
X131228571Y-77591190D01*
X131180952Y-77567380D01*
X131157142Y-77543571D01*
X131133333Y-77495952D01*
X131133333Y-77448333D01*
X131157142Y-77400714D01*
X131180952Y-77376904D01*
X131228571Y-77353095D01*
X131323809Y-77329285D01*
X131371428Y-77305476D01*
X131395238Y-77281666D01*
X131419047Y-77234047D01*
X131419047Y-77186428D01*
X131395238Y-77138809D01*
X131371428Y-77115000D01*
X131323809Y-77091190D01*
X131204761Y-77091190D01*
X131133333Y-77115000D01*
X130919047Y-77329285D02*
X130752380Y-77329285D01*
X130680952Y-77591190D02*
X130919047Y-77591190D01*
X130919047Y-77091190D01*
X130680952Y-77091190D01*
X130157142Y-77091190D02*
X129990476Y-77591190D01*
X129823809Y-77091190D01*
X129395238Y-77591190D02*
X129680952Y-77591190D01*
X129538095Y-77591190D02*
X129538095Y-77091190D01*
X129585714Y-77162619D01*
X129633333Y-77210238D01*
X129680952Y-77234047D01*
X129180952Y-77543571D02*
X129157142Y-77567380D01*
X129180952Y-77591190D01*
X129204761Y-77567380D01*
X129180952Y-77543571D01*
X129180952Y-77591190D01*
X128966666Y-77138809D02*
X128942857Y-77115000D01*
X128895238Y-77091190D01*
X128776190Y-77091190D01*
X128728571Y-77115000D01*
X128704761Y-77138809D01*
X128680952Y-77186428D01*
X128680952Y-77234047D01*
X128704761Y-77305476D01*
X128990476Y-77591190D01*
X128680952Y-77591190D01*
X128466666Y-77543571D02*
X128442857Y-77567380D01*
X128466666Y-77591190D01*
X128490476Y-77567380D01*
X128466666Y-77543571D01*
X128466666Y-77591190D01*
X128252380Y-77138809D02*
X128228571Y-77115000D01*
X128180952Y-77091190D01*
X128061904Y-77091190D01*
X128014285Y-77115000D01*
X127990476Y-77138809D01*
X127966666Y-77186428D01*
X127966666Y-77234047D01*
X127990476Y-77305476D01*
X128276190Y-77591190D01*
X127966666Y-77591190D01*
D12*
X131785761Y-73926190D02*
X131785761Y-73426190D01*
X131595285Y-73426190D01*
X131547666Y-73450000D01*
X131523857Y-73473809D01*
X131500047Y-73521428D01*
X131500047Y-73592857D01*
X131523857Y-73640476D01*
X131547666Y-73664285D01*
X131595285Y-73688095D01*
X131785761Y-73688095D01*
X131071476Y-73592857D02*
X131071476Y-73926190D01*
X131285761Y-73592857D02*
X131285761Y-73854761D01*
X131261952Y-73902380D01*
X131214333Y-73926190D01*
X131142904Y-73926190D01*
X131095285Y-73902380D01*
X131071476Y-73878571D01*
X130761952Y-73926190D02*
X130809571Y-73902380D01*
X130833380Y-73854761D01*
X130833380Y-73426190D01*
X130595285Y-73902380D02*
X130547666Y-73926190D01*
X130452428Y-73926190D01*
X130404809Y-73902380D01*
X130381000Y-73854761D01*
X130381000Y-73830952D01*
X130404809Y-73783333D01*
X130452428Y-73759523D01*
X130523857Y-73759523D01*
X130571476Y-73735714D01*
X130595285Y-73688095D01*
X130595285Y-73664285D01*
X130571476Y-73616666D01*
X130523857Y-73592857D01*
X130452428Y-73592857D01*
X130404809Y-73616666D01*
X129976238Y-73902380D02*
X130023857Y-73926190D01*
X130119095Y-73926190D01*
X130166714Y-73902380D01*
X130190523Y-73854761D01*
X130190523Y-73664285D01*
X130166714Y-73616666D01*
X130119095Y-73592857D01*
X130023857Y-73592857D01*
X129976238Y-73616666D01*
X129952428Y-73664285D01*
X129952428Y-73711904D01*
X130190523Y-73759523D01*
D13*
X162851904Y-73028333D02*
X162613809Y-73028333D01*
X162899523Y-73171190D02*
X162732857Y-72671190D01*
X162566190Y-73171190D01*
X162399523Y-72837857D02*
X162399523Y-73171190D01*
X162399523Y-72885476D02*
X162375714Y-72861666D01*
X162328095Y-72837857D01*
X162256666Y-72837857D01*
X162209047Y-72861666D01*
X162185238Y-72909285D01*
X162185238Y-73171190D01*
X161875714Y-73171190D02*
X161923333Y-73147380D01*
X161947142Y-73123571D01*
X161970952Y-73075952D01*
X161970952Y-72933095D01*
X161947142Y-72885476D01*
X161923333Y-72861666D01*
X161875714Y-72837857D01*
X161804285Y-72837857D01*
X161756666Y-72861666D01*
X161732857Y-72885476D01*
X161709047Y-72933095D01*
X161709047Y-73075952D01*
X161732857Y-73123571D01*
X161756666Y-73147380D01*
X161804285Y-73171190D01*
X161875714Y-73171190D01*
X161280476Y-73171190D02*
X161280476Y-72671190D01*
X161280476Y-73147380D02*
X161328095Y-73171190D01*
X161423333Y-73171190D01*
X161470952Y-73147380D01*
X161494761Y-73123571D01*
X161518571Y-73075952D01*
X161518571Y-72933095D01*
X161494761Y-72885476D01*
X161470952Y-72861666D01*
X161423333Y-72837857D01*
X161328095Y-72837857D01*
X161280476Y-72861666D01*
X160851904Y-73147380D02*
X160899523Y-73171190D01*
X160994761Y-73171190D01*
X161042380Y-73147380D01*
X161066190Y-73099761D01*
X161066190Y-72909285D01*
X161042380Y-72861666D01*
X160994761Y-72837857D01*
X160899523Y-72837857D01*
X160851904Y-72861666D01*
X160828095Y-72909285D01*
X160828095Y-72956904D01*
X161066190Y-73004523D01*
X162851904Y-76898333D02*
X162613809Y-76898333D01*
X162899523Y-77041190D02*
X162732857Y-76541190D01*
X162566190Y-77041190D01*
X162399523Y-76707857D02*
X162399523Y-77041190D01*
X162399523Y-76755476D02*
X162375714Y-76731666D01*
X162328095Y-76707857D01*
X162256666Y-76707857D01*
X162209047Y-76731666D01*
X162185238Y-76779285D01*
X162185238Y-77041190D01*
X161875714Y-77041190D02*
X161923333Y-77017380D01*
X161947142Y-76993571D01*
X161970952Y-76945952D01*
X161970952Y-76803095D01*
X161947142Y-76755476D01*
X161923333Y-76731666D01*
X161875714Y-76707857D01*
X161804285Y-76707857D01*
X161756666Y-76731666D01*
X161732857Y-76755476D01*
X161709047Y-76803095D01*
X161709047Y-76945952D01*
X161732857Y-76993571D01*
X161756666Y-77017380D01*
X161804285Y-77041190D01*
X161875714Y-77041190D01*
X161280476Y-77041190D02*
X161280476Y-76541190D01*
X161280476Y-77017380D02*
X161328095Y-77041190D01*
X161423333Y-77041190D01*
X161470952Y-77017380D01*
X161494761Y-76993571D01*
X161518571Y-76945952D01*
X161518571Y-76803095D01*
X161494761Y-76755476D01*
X161470952Y-76731666D01*
X161423333Y-76707857D01*
X161328095Y-76707857D01*
X161280476Y-76731666D01*
X160851904Y-77017380D02*
X160899523Y-77041190D01*
X160994761Y-77041190D01*
X161042380Y-77017380D01*
X161066190Y-76969761D01*
X161066190Y-76779285D01*
X161042380Y-76731666D01*
X160994761Y-76707857D01*
X160899523Y-76707857D01*
X160851904Y-76731666D01*
X160828095Y-76779285D01*
X160828095Y-76826904D01*
X161066190Y-76874523D01*
X139607142Y-73743571D02*
X139630952Y-73767380D01*
X139702380Y-73791190D01*
X139750000Y-73791190D01*
X139821428Y-73767380D01*
X139869047Y-73719761D01*
X139892857Y-73672142D01*
X139916666Y-73576904D01*
X139916666Y-73505476D01*
X139892857Y-73410238D01*
X139869047Y-73362619D01*
X139821428Y-73315000D01*
X139750000Y-73291190D01*
X139702380Y-73291190D01*
X139630952Y-73315000D01*
X139607142Y-73338809D01*
X139178571Y-73791190D02*
X139178571Y-73529285D01*
X139202380Y-73481666D01*
X139250000Y-73457857D01*
X139345238Y-73457857D01*
X139392857Y-73481666D01*
X139178571Y-73767380D02*
X139226190Y-73791190D01*
X139345238Y-73791190D01*
X139392857Y-73767380D01*
X139416666Y-73719761D01*
X139416666Y-73672142D01*
X139392857Y-73624523D01*
X139345238Y-73600714D01*
X139226190Y-73600714D01*
X139178571Y-73576904D01*
X139011904Y-73457857D02*
X138821428Y-73457857D01*
X138940476Y-73291190D02*
X138940476Y-73719761D01*
X138916666Y-73767380D01*
X138869047Y-73791190D01*
X138821428Y-73791190D01*
X138654761Y-73791190D02*
X138654761Y-73291190D01*
X138440476Y-73791190D02*
X138440476Y-73529285D01*
X138464285Y-73481666D01*
X138511904Y-73457857D01*
X138583333Y-73457857D01*
X138630952Y-73481666D01*
X138654761Y-73505476D01*
X138130952Y-73791190D02*
X138178571Y-73767380D01*
X138202380Y-73743571D01*
X138226190Y-73695952D01*
X138226190Y-73553095D01*
X138202380Y-73505476D01*
X138178571Y-73481666D01*
X138130952Y-73457857D01*
X138059523Y-73457857D01*
X138011904Y-73481666D01*
X137988095Y-73505476D01*
X137964285Y-73553095D01*
X137964285Y-73695952D01*
X137988095Y-73743571D01*
X138011904Y-73767380D01*
X138059523Y-73791190D01*
X138130952Y-73791190D01*
X137535714Y-73791190D02*
X137535714Y-73291190D01*
X137535714Y-73767380D02*
X137583333Y-73791190D01*
X137678571Y-73791190D01*
X137726190Y-73767380D01*
X137750000Y-73743571D01*
X137773809Y-73695952D01*
X137773809Y-73553095D01*
X137750000Y-73505476D01*
X137726190Y-73481666D01*
X137678571Y-73457857D01*
X137583333Y-73457857D01*
X137535714Y-73481666D01*
X137107142Y-73767380D02*
X137154761Y-73791190D01*
X137250000Y-73791190D01*
X137297619Y-73767380D01*
X137321428Y-73719761D01*
X137321428Y-73529285D01*
X137297619Y-73481666D01*
X137250000Y-73457857D01*
X137154761Y-73457857D01*
X137107142Y-73481666D01*
X137083333Y-73529285D01*
X137083333Y-73576904D01*
X137321428Y-73624523D01*
X133150952Y-68996190D02*
X132865238Y-68996190D01*
X133008095Y-69496190D02*
X133008095Y-68996190D01*
X132698571Y-69496190D02*
X132698571Y-68996190D01*
X132508095Y-68996190D01*
X132460476Y-69020000D01*
X132436666Y-69043809D01*
X132412857Y-69091428D01*
X132412857Y-69162857D01*
X132436666Y-69210476D01*
X132460476Y-69234285D01*
X132508095Y-69258095D01*
X132698571Y-69258095D01*
X131960476Y-68996190D02*
X132198571Y-68996190D01*
X132222380Y-69234285D01*
X132198571Y-69210476D01*
X132150952Y-69186666D01*
X132031904Y-69186666D01*
X131984285Y-69210476D01*
X131960476Y-69234285D01*
X131936666Y-69281904D01*
X131936666Y-69400952D01*
X131960476Y-69448571D01*
X131984285Y-69472380D01*
X132031904Y-69496190D01*
X132150952Y-69496190D01*
X132198571Y-69472380D01*
X132222380Y-69448571D01*
X142029428Y-76427690D02*
X142196095Y-76189595D01*
X142315142Y-76427690D02*
X142315142Y-75927690D01*
X142124666Y-75927690D01*
X142077047Y-75951500D01*
X142053238Y-75975309D01*
X142029428Y-76022928D01*
X142029428Y-76094357D01*
X142053238Y-76141976D01*
X142077047Y-76165785D01*
X142124666Y-76189595D01*
X142315142Y-76189595D01*
X141838952Y-75975309D02*
X141815142Y-75951500D01*
X141767523Y-75927690D01*
X141648476Y-75927690D01*
X141600857Y-75951500D01*
X141577047Y-75975309D01*
X141553238Y-76022928D01*
X141553238Y-76070547D01*
X141577047Y-76141976D01*
X141862761Y-76427690D01*
X141553238Y-76427690D01*
X141077047Y-76427690D02*
X141362761Y-76427690D01*
X141219904Y-76427690D02*
X141219904Y-75927690D01*
X141267523Y-75999119D01*
X141315142Y-76046738D01*
X141362761Y-76070547D01*
X150630952Y-66926190D02*
X150345238Y-66926190D01*
X150488095Y-67426190D02*
X150488095Y-66926190D01*
X150178571Y-67426190D02*
X150178571Y-66926190D01*
X149988095Y-66926190D01*
X149940476Y-66950000D01*
X149916666Y-66973809D01*
X149892857Y-67021428D01*
X149892857Y-67092857D01*
X149916666Y-67140476D01*
X149940476Y-67164285D01*
X149988095Y-67188095D01*
X150178571Y-67188095D01*
X149416666Y-67426190D02*
X149702380Y-67426190D01*
X149559523Y-67426190D02*
X149559523Y-66926190D01*
X149607142Y-66997619D01*
X149654761Y-67045238D01*
X149702380Y-67069047D01*
X143321428Y-71891190D02*
X143488095Y-71653095D01*
X143607142Y-71891190D02*
X143607142Y-71391190D01*
X143416666Y-71391190D01*
X143369047Y-71415000D01*
X143345238Y-71438809D01*
X143321428Y-71486428D01*
X143321428Y-71557857D01*
X143345238Y-71605476D01*
X143369047Y-71629285D01*
X143416666Y-71653095D01*
X143607142Y-71653095D01*
X142845238Y-71891190D02*
X143130952Y-71891190D01*
X142988095Y-71891190D02*
X142988095Y-71391190D01*
X143035714Y-71462619D01*
X143083333Y-71510238D01*
X143130952Y-71534047D01*
X142654761Y-71438809D02*
X142630952Y-71415000D01*
X142583333Y-71391190D01*
X142464285Y-71391190D01*
X142416666Y-71415000D01*
X142392857Y-71438809D01*
X142369047Y-71486428D01*
X142369047Y-71534047D01*
X142392857Y-71605476D01*
X142678571Y-71891190D01*
X142369047Y-71891190D01*
X154567619Y-73043809D02*
X154615238Y-73020000D01*
X154662857Y-72972380D01*
X154734285Y-72900952D01*
X154781904Y-72877142D01*
X154829523Y-72877142D01*
X154805714Y-72996190D02*
X154853333Y-72972380D01*
X154900952Y-72924761D01*
X154924761Y-72829523D01*
X154924761Y-72662857D01*
X154900952Y-72567619D01*
X154853333Y-72520000D01*
X154805714Y-72496190D01*
X154710476Y-72496190D01*
X154662857Y-72520000D01*
X154615238Y-72567619D01*
X154591428Y-72662857D01*
X154591428Y-72829523D01*
X154615238Y-72924761D01*
X154662857Y-72972380D01*
X154710476Y-72996190D01*
X154805714Y-72996190D01*
X154424761Y-72496190D02*
X154115238Y-72496190D01*
X154281904Y-72686666D01*
X154210476Y-72686666D01*
X154162857Y-72710476D01*
X154139047Y-72734285D01*
X154115238Y-72781904D01*
X154115238Y-72900952D01*
X154139047Y-72948571D01*
X154162857Y-72972380D01*
X154210476Y-72996190D01*
X154353333Y-72996190D01*
X154400952Y-72972380D01*
X154424761Y-72948571D01*
X139830952Y-58191190D02*
X139545238Y-58191190D01*
X139688095Y-58691190D02*
X139688095Y-58191190D01*
X139378571Y-58691190D02*
X139378571Y-58191190D01*
X139188095Y-58191190D01*
X139140476Y-58215000D01*
X139116666Y-58238809D01*
X139092857Y-58286428D01*
X139092857Y-58357857D01*
X139116666Y-58405476D01*
X139140476Y-58429285D01*
X139188095Y-58453095D01*
X139378571Y-58453095D01*
X138664285Y-58191190D02*
X138759523Y-58191190D01*
X138807142Y-58215000D01*
X138830952Y-58238809D01*
X138878571Y-58310238D01*
X138902380Y-58405476D01*
X138902380Y-58595952D01*
X138878571Y-58643571D01*
X138854761Y-58667380D01*
X138807142Y-58691190D01*
X138711904Y-58691190D01*
X138664285Y-58667380D01*
X138640476Y-58643571D01*
X138616666Y-58595952D01*
X138616666Y-58476904D01*
X138640476Y-58429285D01*
X138664285Y-58405476D01*
X138711904Y-58381666D01*
X138807142Y-58381666D01*
X138854761Y-58405476D01*
X138878571Y-58429285D01*
X138902380Y-58476904D01*
X142921428Y-59791190D02*
X143088095Y-59553095D01*
X143207142Y-59791190D02*
X143207142Y-59291190D01*
X143016666Y-59291190D01*
X142969047Y-59315000D01*
X142945238Y-59338809D01*
X142921428Y-59386428D01*
X142921428Y-59457857D01*
X142945238Y-59505476D01*
X142969047Y-59529285D01*
X143016666Y-59553095D01*
X143207142Y-59553095D01*
X142730952Y-59338809D02*
X142707142Y-59315000D01*
X142659523Y-59291190D01*
X142540476Y-59291190D01*
X142492857Y-59315000D01*
X142469047Y-59338809D01*
X142445238Y-59386428D01*
X142445238Y-59434047D01*
X142469047Y-59505476D01*
X142754761Y-59791190D01*
X142445238Y-59791190D01*
X142016666Y-59457857D02*
X142016666Y-59791190D01*
X142135714Y-59267380D02*
X142254761Y-59624523D01*
X141945238Y-59624523D01*
X149821428Y-77698571D02*
X149845238Y-77722380D01*
X149916666Y-77746190D01*
X149964285Y-77746190D01*
X150035714Y-77722380D01*
X150083333Y-77674761D01*
X150107142Y-77627142D01*
X150130952Y-77531904D01*
X150130952Y-77460476D01*
X150107142Y-77365238D01*
X150083333Y-77317619D01*
X150035714Y-77270000D01*
X149964285Y-77246190D01*
X149916666Y-77246190D01*
X149845238Y-77270000D01*
X149821428Y-77293809D01*
X149630952Y-77293809D02*
X149607142Y-77270000D01*
X149559523Y-77246190D01*
X149440476Y-77246190D01*
X149392857Y-77270000D01*
X149369047Y-77293809D01*
X149345238Y-77341428D01*
X149345238Y-77389047D01*
X149369047Y-77460476D01*
X149654761Y-77746190D01*
X149345238Y-77746190D01*
X149178571Y-77246190D02*
X148869047Y-77246190D01*
X149035714Y-77436666D01*
X148964285Y-77436666D01*
X148916666Y-77460476D01*
X148892857Y-77484285D01*
X148869047Y-77531904D01*
X148869047Y-77650952D01*
X148892857Y-77698571D01*
X148916666Y-77722380D01*
X148964285Y-77746190D01*
X149107142Y-77746190D01*
X149154761Y-77722380D01*
X149178571Y-77698571D01*
X129603333Y-58198571D02*
X129627142Y-58222380D01*
X129698571Y-58246190D01*
X129746190Y-58246190D01*
X129817619Y-58222380D01*
X129865238Y-58174761D01*
X129889047Y-58127142D01*
X129912857Y-58031904D01*
X129912857Y-57960476D01*
X129889047Y-57865238D01*
X129865238Y-57817619D01*
X129817619Y-57770000D01*
X129746190Y-57746190D01*
X129698571Y-57746190D01*
X129627142Y-57770000D01*
X129603333Y-57793809D01*
X129412857Y-57793809D02*
X129389047Y-57770000D01*
X129341428Y-57746190D01*
X129222380Y-57746190D01*
X129174761Y-57770000D01*
X129150952Y-57793809D01*
X129127142Y-57841428D01*
X129127142Y-57889047D01*
X129150952Y-57960476D01*
X129436666Y-58246190D01*
X129127142Y-58246190D01*
X133930952Y-71991190D02*
X133645238Y-71991190D01*
X133788095Y-72491190D02*
X133788095Y-71991190D01*
X133478571Y-72491190D02*
X133478571Y-71991190D01*
X133288095Y-71991190D01*
X133240476Y-72015000D01*
X133216666Y-72038809D01*
X133192857Y-72086428D01*
X133192857Y-72157857D01*
X133216666Y-72205476D01*
X133240476Y-72229285D01*
X133288095Y-72253095D01*
X133478571Y-72253095D01*
X133026190Y-71991190D02*
X132716666Y-71991190D01*
X132883333Y-72181666D01*
X132811904Y-72181666D01*
X132764285Y-72205476D01*
X132740476Y-72229285D01*
X132716666Y-72276904D01*
X132716666Y-72395952D01*
X132740476Y-72443571D01*
X132764285Y-72467380D01*
X132811904Y-72491190D01*
X132954761Y-72491190D01*
X133002380Y-72467380D01*
X133026190Y-72443571D01*
X158521428Y-70243571D02*
X158545238Y-70267380D01*
X158616666Y-70291190D01*
X158664285Y-70291190D01*
X158735714Y-70267380D01*
X158783333Y-70219761D01*
X158807142Y-70172142D01*
X158830952Y-70076904D01*
X158830952Y-70005476D01*
X158807142Y-69910238D01*
X158783333Y-69862619D01*
X158735714Y-69815000D01*
X158664285Y-69791190D01*
X158616666Y-69791190D01*
X158545238Y-69815000D01*
X158521428Y-69838809D01*
X158330952Y-69838809D02*
X158307142Y-69815000D01*
X158259523Y-69791190D01*
X158140476Y-69791190D01*
X158092857Y-69815000D01*
X158069047Y-69838809D01*
X158045238Y-69886428D01*
X158045238Y-69934047D01*
X158069047Y-70005476D01*
X158354761Y-70291190D01*
X158045238Y-70291190D01*
X157616666Y-69957857D02*
X157616666Y-70291190D01*
X157735714Y-69767380D02*
X157854761Y-70124523D01*
X157545238Y-70124523D01*
X140496190Y-69698571D02*
X140258095Y-69531904D01*
X140496190Y-69412857D02*
X139996190Y-69412857D01*
X139996190Y-69603333D01*
X140020000Y-69650952D01*
X140043809Y-69674761D01*
X140091428Y-69698571D01*
X140162857Y-69698571D01*
X140210476Y-69674761D01*
X140234285Y-69650952D01*
X140258095Y-69603333D01*
X140258095Y-69412857D01*
X140043809Y-69889047D02*
X140020000Y-69912857D01*
X139996190Y-69960476D01*
X139996190Y-70079523D01*
X140020000Y-70127142D01*
X140043809Y-70150952D01*
X140091428Y-70174761D01*
X140139047Y-70174761D01*
X140210476Y-70150952D01*
X140496190Y-69865238D01*
X140496190Y-70174761D01*
X139996190Y-70627142D02*
X139996190Y-70389047D01*
X140234285Y-70365238D01*
X140210476Y-70389047D01*
X140186666Y-70436666D01*
X140186666Y-70555714D01*
X140210476Y-70603333D01*
X140234285Y-70627142D01*
X140281904Y-70650952D01*
X140400952Y-70650952D01*
X140448571Y-70627142D01*
X140472380Y-70603333D01*
X140496190Y-70555714D01*
X140496190Y-70436666D01*
X140472380Y-70389047D01*
X140448571Y-70365238D01*
X144838428Y-77664690D02*
X145005095Y-77426595D01*
X145124142Y-77664690D02*
X145124142Y-77164690D01*
X144933666Y-77164690D01*
X144886047Y-77188500D01*
X144862238Y-77212309D01*
X144838428Y-77259928D01*
X144838428Y-77331357D01*
X144862238Y-77378976D01*
X144886047Y-77402785D01*
X144933666Y-77426595D01*
X145124142Y-77426595D01*
X144647952Y-77212309D02*
X144624142Y-77188500D01*
X144576523Y-77164690D01*
X144457476Y-77164690D01*
X144409857Y-77188500D01*
X144386047Y-77212309D01*
X144362238Y-77259928D01*
X144362238Y-77307547D01*
X144386047Y-77378976D01*
X144671761Y-77664690D01*
X144362238Y-77664690D01*
X144171761Y-77212309D02*
X144147952Y-77188500D01*
X144100333Y-77164690D01*
X143981285Y-77164690D01*
X143933666Y-77188500D01*
X143909857Y-77212309D01*
X143886047Y-77259928D01*
X143886047Y-77307547D01*
X143909857Y-77378976D01*
X144195571Y-77664690D01*
X143886047Y-77664690D01*
X134889047Y-70246190D02*
X134889047Y-69746190D01*
X134770000Y-69746190D01*
X134698571Y-69770000D01*
X134650952Y-69817619D01*
X134627142Y-69865238D01*
X134603333Y-69960476D01*
X134603333Y-70031904D01*
X134627142Y-70127142D01*
X134650952Y-70174761D01*
X134698571Y-70222380D01*
X134770000Y-70246190D01*
X134889047Y-70246190D01*
X134127142Y-70246190D02*
X134412857Y-70246190D01*
X134270000Y-70246190D02*
X134270000Y-69746190D01*
X134317619Y-69817619D01*
X134365238Y-69865238D01*
X134412857Y-69889047D01*
X127603333Y-58246190D02*
X127770000Y-58008095D01*
X127889047Y-58246190D02*
X127889047Y-57746190D01*
X127698571Y-57746190D01*
X127650952Y-57770000D01*
X127627142Y-57793809D01*
X127603333Y-57841428D01*
X127603333Y-57912857D01*
X127627142Y-57960476D01*
X127650952Y-57984285D01*
X127698571Y-58008095D01*
X127889047Y-58008095D01*
X127150952Y-57746190D02*
X127389047Y-57746190D01*
X127412857Y-57984285D01*
X127389047Y-57960476D01*
X127341428Y-57936666D01*
X127222380Y-57936666D01*
X127174761Y-57960476D01*
X127150952Y-57984285D01*
X127127142Y-58031904D01*
X127127142Y-58150952D01*
X127150952Y-58198571D01*
X127174761Y-58222380D01*
X127222380Y-58246190D01*
X127341428Y-58246190D01*
X127389047Y-58222380D01*
X127412857Y-58198571D01*
X146925428Y-77662071D02*
X146949238Y-77685880D01*
X147020666Y-77709690D01*
X147068285Y-77709690D01*
X147139714Y-77685880D01*
X147187333Y-77638261D01*
X147211142Y-77590642D01*
X147234952Y-77495404D01*
X147234952Y-77423976D01*
X147211142Y-77328738D01*
X147187333Y-77281119D01*
X147139714Y-77233500D01*
X147068285Y-77209690D01*
X147020666Y-77209690D01*
X146949238Y-77233500D01*
X146925428Y-77257309D01*
X146734952Y-77257309D02*
X146711142Y-77233500D01*
X146663523Y-77209690D01*
X146544476Y-77209690D01*
X146496857Y-77233500D01*
X146473047Y-77257309D01*
X146449238Y-77304928D01*
X146449238Y-77352547D01*
X146473047Y-77423976D01*
X146758761Y-77709690D01*
X146449238Y-77709690D01*
X146258761Y-77257309D02*
X146234952Y-77233500D01*
X146187333Y-77209690D01*
X146068285Y-77209690D01*
X146020666Y-77233500D01*
X145996857Y-77257309D01*
X145973047Y-77304928D01*
X145973047Y-77352547D01*
X145996857Y-77423976D01*
X146282571Y-77709690D01*
X145973047Y-77709690D01*
X155347619Y-75873809D02*
X155395238Y-75850000D01*
X155442857Y-75802380D01*
X155514285Y-75730952D01*
X155561904Y-75707142D01*
X155609523Y-75707142D01*
X155585714Y-75826190D02*
X155633333Y-75802380D01*
X155680952Y-75754761D01*
X155704761Y-75659523D01*
X155704761Y-75492857D01*
X155680952Y-75397619D01*
X155633333Y-75350000D01*
X155585714Y-75326190D01*
X155490476Y-75326190D01*
X155442857Y-75350000D01*
X155395238Y-75397619D01*
X155371428Y-75492857D01*
X155371428Y-75659523D01*
X155395238Y-75754761D01*
X155442857Y-75802380D01*
X155490476Y-75826190D01*
X155585714Y-75826190D01*
X154942857Y-75492857D02*
X154942857Y-75826190D01*
X155061904Y-75302380D02*
X155180952Y-75659523D01*
X154871428Y-75659523D01*
X146921428Y-66191190D02*
X147088095Y-65953095D01*
X147207142Y-66191190D02*
X147207142Y-65691190D01*
X147016666Y-65691190D01*
X146969047Y-65715000D01*
X146945238Y-65738809D01*
X146921428Y-65786428D01*
X146921428Y-65857857D01*
X146945238Y-65905476D01*
X146969047Y-65929285D01*
X147016666Y-65953095D01*
X147207142Y-65953095D01*
X146730952Y-65738809D02*
X146707142Y-65715000D01*
X146659523Y-65691190D01*
X146540476Y-65691190D01*
X146492857Y-65715000D01*
X146469047Y-65738809D01*
X146445238Y-65786428D01*
X146445238Y-65834047D01*
X146469047Y-65905476D01*
X146754761Y-66191190D01*
X146445238Y-66191190D01*
X146135714Y-65691190D02*
X146088095Y-65691190D01*
X146040476Y-65715000D01*
X146016666Y-65738809D01*
X145992857Y-65786428D01*
X145969047Y-65881666D01*
X145969047Y-66000714D01*
X145992857Y-66095952D01*
X146016666Y-66143571D01*
X146040476Y-66167380D01*
X146088095Y-66191190D01*
X146135714Y-66191190D01*
X146183333Y-66167380D01*
X146207142Y-66143571D01*
X146230952Y-66095952D01*
X146254761Y-66000714D01*
X146254761Y-65881666D01*
X146230952Y-65786428D01*
X146207142Y-65738809D01*
X146183333Y-65715000D01*
X146135714Y-65691190D01*
X149567619Y-74543809D02*
X149615238Y-74520000D01*
X149662857Y-74472380D01*
X149734285Y-74400952D01*
X149781904Y-74377142D01*
X149829523Y-74377142D01*
X149805714Y-74496190D02*
X149853333Y-74472380D01*
X149900952Y-74424761D01*
X149924761Y-74329523D01*
X149924761Y-74162857D01*
X149900952Y-74067619D01*
X149853333Y-74020000D01*
X149805714Y-73996190D01*
X149710476Y-73996190D01*
X149662857Y-74020000D01*
X149615238Y-74067619D01*
X149591428Y-74162857D01*
X149591428Y-74329523D01*
X149615238Y-74424761D01*
X149662857Y-74472380D01*
X149710476Y-74496190D01*
X149805714Y-74496190D01*
X149400952Y-74043809D02*
X149377142Y-74020000D01*
X149329523Y-73996190D01*
X149210476Y-73996190D01*
X149162857Y-74020000D01*
X149139047Y-74043809D01*
X149115238Y-74091428D01*
X149115238Y-74139047D01*
X149139047Y-74210476D01*
X149424761Y-74496190D01*
X149115238Y-74496190D01*
X130389047Y-62726190D02*
X130103333Y-62726190D01*
X130246190Y-63226190D02*
X130246190Y-62726190D01*
X129936666Y-63226190D02*
X129936666Y-62726190D01*
X129746190Y-62726190D01*
X129698571Y-62750000D01*
X129674761Y-62773809D01*
X129650952Y-62821428D01*
X129650952Y-62892857D01*
X129674761Y-62940476D01*
X129698571Y-62964285D01*
X129746190Y-62988095D01*
X129936666Y-62988095D01*
X129174761Y-63226190D02*
X129460476Y-63226190D01*
X129317619Y-63226190D02*
X129317619Y-62726190D01*
X129365238Y-62797619D01*
X129412857Y-62845238D01*
X129460476Y-62869047D01*
X128865238Y-62726190D02*
X128817619Y-62726190D01*
X128770000Y-62750000D01*
X128746190Y-62773809D01*
X128722380Y-62821428D01*
X128698571Y-62916666D01*
X128698571Y-63035714D01*
X128722380Y-63130952D01*
X128746190Y-63178571D01*
X128770000Y-63202380D01*
X128817619Y-63226190D01*
X128865238Y-63226190D01*
X128912857Y-63202380D01*
X128936666Y-63178571D01*
X128960476Y-63130952D01*
X128984285Y-63035714D01*
X128984285Y-62916666D01*
X128960476Y-62821428D01*
X128936666Y-62773809D01*
X128912857Y-62750000D01*
X128865238Y-62726190D01*
X148521428Y-59791190D02*
X148688095Y-59553095D01*
X148807142Y-59791190D02*
X148807142Y-59291190D01*
X148616666Y-59291190D01*
X148569047Y-59315000D01*
X148545238Y-59338809D01*
X148521428Y-59386428D01*
X148521428Y-59457857D01*
X148545238Y-59505476D01*
X148569047Y-59529285D01*
X148616666Y-59553095D01*
X148807142Y-59553095D01*
X148330952Y-59338809D02*
X148307142Y-59315000D01*
X148259523Y-59291190D01*
X148140476Y-59291190D01*
X148092857Y-59315000D01*
X148069047Y-59338809D01*
X148045238Y-59386428D01*
X148045238Y-59434047D01*
X148069047Y-59505476D01*
X148354761Y-59791190D01*
X148045238Y-59791190D01*
X147878571Y-59291190D02*
X147569047Y-59291190D01*
X147735714Y-59481666D01*
X147664285Y-59481666D01*
X147616666Y-59505476D01*
X147592857Y-59529285D01*
X147569047Y-59576904D01*
X147569047Y-59695952D01*
X147592857Y-59743571D01*
X147616666Y-59767380D01*
X147664285Y-59791190D01*
X147807142Y-59791190D01*
X147854761Y-59767380D01*
X147878571Y-59743571D01*
X140103333Y-68448571D02*
X140127142Y-68472380D01*
X140198571Y-68496190D01*
X140246190Y-68496190D01*
X140317619Y-68472380D01*
X140365238Y-68424761D01*
X140389047Y-68377142D01*
X140412857Y-68281904D01*
X140412857Y-68210476D01*
X140389047Y-68115238D01*
X140365238Y-68067619D01*
X140317619Y-68020000D01*
X140246190Y-67996190D01*
X140198571Y-67996190D01*
X140127142Y-68020000D01*
X140103333Y-68043809D01*
X139627142Y-68496190D02*
X139912857Y-68496190D01*
X139770000Y-68496190D02*
X139770000Y-67996190D01*
X139817619Y-68067619D01*
X139865238Y-68115238D01*
X139912857Y-68139047D01*
X149621428Y-68391190D02*
X149788095Y-68153095D01*
X149907142Y-68391190D02*
X149907142Y-67891190D01*
X149716666Y-67891190D01*
X149669047Y-67915000D01*
X149645238Y-67938809D01*
X149621428Y-67986428D01*
X149621428Y-68057857D01*
X149645238Y-68105476D01*
X149669047Y-68129285D01*
X149716666Y-68153095D01*
X149907142Y-68153095D01*
X149145238Y-68391190D02*
X149430952Y-68391190D01*
X149288095Y-68391190D02*
X149288095Y-67891190D01*
X149335714Y-67962619D01*
X149383333Y-68010238D01*
X149430952Y-68034047D01*
X148716666Y-68057857D02*
X148716666Y-68391190D01*
X148835714Y-67867380D02*
X148954761Y-68224523D01*
X148645238Y-68224523D01*
X145130952Y-65873190D02*
X144845238Y-65873190D01*
X144988095Y-66373190D02*
X144988095Y-65873190D01*
X144678571Y-66373190D02*
X144678571Y-65873190D01*
X144488095Y-65873190D01*
X144440476Y-65897000D01*
X144416666Y-65920809D01*
X144392857Y-65968428D01*
X144392857Y-66039857D01*
X144416666Y-66087476D01*
X144440476Y-66111285D01*
X144488095Y-66135095D01*
X144678571Y-66135095D01*
X144202380Y-65920809D02*
X144178571Y-65897000D01*
X144130952Y-65873190D01*
X144011904Y-65873190D01*
X143964285Y-65897000D01*
X143940476Y-65920809D01*
X143916666Y-65968428D01*
X143916666Y-66016047D01*
X143940476Y-66087476D01*
X144226190Y-66373190D01*
X143916666Y-66373190D01*
X146650952Y-72746190D02*
X146365238Y-72746190D01*
X146508095Y-73246190D02*
X146508095Y-72746190D01*
X146198571Y-73246190D02*
X146198571Y-72746190D01*
X146008095Y-72746190D01*
X145960476Y-72770000D01*
X145936666Y-72793809D01*
X145912857Y-72841428D01*
X145912857Y-72912857D01*
X145936666Y-72960476D01*
X145960476Y-72984285D01*
X146008095Y-73008095D01*
X146198571Y-73008095D01*
X145627142Y-72960476D02*
X145674761Y-72936666D01*
X145698571Y-72912857D01*
X145722380Y-72865238D01*
X145722380Y-72841428D01*
X145698571Y-72793809D01*
X145674761Y-72770000D01*
X145627142Y-72746190D01*
X145531904Y-72746190D01*
X145484285Y-72770000D01*
X145460476Y-72793809D01*
X145436666Y-72841428D01*
X145436666Y-72865238D01*
X145460476Y-72912857D01*
X145484285Y-72936666D01*
X145531904Y-72960476D01*
X145627142Y-72960476D01*
X145674761Y-72984285D01*
X145698571Y-73008095D01*
X145722380Y-73055714D01*
X145722380Y-73150952D01*
X145698571Y-73198571D01*
X145674761Y-73222380D01*
X145627142Y-73246190D01*
X145531904Y-73246190D01*
X145484285Y-73222380D01*
X145460476Y-73198571D01*
X145436666Y-73150952D01*
X145436666Y-73055714D01*
X145460476Y-73008095D01*
X145484285Y-72984285D01*
X145531904Y-72960476D01*
X149934952Y-70573190D02*
X149649238Y-70573190D01*
X149792095Y-71073190D02*
X149792095Y-70573190D01*
X149482571Y-71073190D02*
X149482571Y-70573190D01*
X149292095Y-70573190D01*
X149244476Y-70597000D01*
X149220666Y-70620809D01*
X149196857Y-70668428D01*
X149196857Y-70739857D01*
X149220666Y-70787476D01*
X149244476Y-70811285D01*
X149292095Y-70835095D01*
X149482571Y-70835095D01*
X148958761Y-71073190D02*
X148863523Y-71073190D01*
X148815904Y-71049380D01*
X148792095Y-71025571D01*
X148744476Y-70954142D01*
X148720666Y-70858904D01*
X148720666Y-70668428D01*
X148744476Y-70620809D01*
X148768285Y-70597000D01*
X148815904Y-70573190D01*
X148911142Y-70573190D01*
X148958761Y-70597000D01*
X148982571Y-70620809D01*
X149006380Y-70668428D01*
X149006380Y-70787476D01*
X148982571Y-70835095D01*
X148958761Y-70858904D01*
X148911142Y-70882714D01*
X148815904Y-70882714D01*
X148768285Y-70858904D01*
X148744476Y-70835095D01*
X148720666Y-70787476D01*
X135400952Y-58246190D02*
X135400952Y-58650952D01*
X135377142Y-58698571D01*
X135353333Y-58722380D01*
X135305714Y-58746190D01*
X135210476Y-58746190D01*
X135162857Y-58722380D01*
X135139047Y-58698571D01*
X135115238Y-58650952D01*
X135115238Y-58246190D01*
X134900952Y-58293809D02*
X134877142Y-58270000D01*
X134829523Y-58246190D01*
X134710476Y-58246190D01*
X134662857Y-58270000D01*
X134639047Y-58293809D01*
X134615238Y-58341428D01*
X134615238Y-58389047D01*
X134639047Y-58460476D01*
X134924761Y-58746190D01*
X134615238Y-58746190D01*
X127226190Y-67678571D02*
X126988095Y-67511904D01*
X127226190Y-67392857D02*
X126726190Y-67392857D01*
X126726190Y-67583333D01*
X126750000Y-67630952D01*
X126773809Y-67654761D01*
X126821428Y-67678571D01*
X126892857Y-67678571D01*
X126940476Y-67654761D01*
X126964285Y-67630952D01*
X126988095Y-67583333D01*
X126988095Y-67392857D01*
X126773809Y-67869047D02*
X126750000Y-67892857D01*
X126726190Y-67940476D01*
X126726190Y-68059523D01*
X126750000Y-68107142D01*
X126773809Y-68130952D01*
X126821428Y-68154761D01*
X126869047Y-68154761D01*
X126940476Y-68130952D01*
X127226190Y-67845238D01*
X127226190Y-68154761D01*
X126726190Y-68583333D02*
X126726190Y-68488095D01*
X126750000Y-68440476D01*
X126773809Y-68416666D01*
X126845238Y-68369047D01*
X126940476Y-68345238D01*
X127130952Y-68345238D01*
X127178571Y-68369047D01*
X127202380Y-68392857D01*
X127226190Y-68440476D01*
X127226190Y-68535714D01*
X127202380Y-68583333D01*
X127178571Y-68607142D01*
X127130952Y-68630952D01*
X127011904Y-68630952D01*
X126964285Y-68607142D01*
X126940476Y-68583333D01*
X126916666Y-68535714D01*
X126916666Y-68440476D01*
X126940476Y-68392857D01*
X126964285Y-68369047D01*
X127011904Y-68345238D01*
X136121428Y-71343571D02*
X136145238Y-71367380D01*
X136216666Y-71391190D01*
X136264285Y-71391190D01*
X136335714Y-71367380D01*
X136383333Y-71319761D01*
X136407142Y-71272142D01*
X136430952Y-71176904D01*
X136430952Y-71105476D01*
X136407142Y-71010238D01*
X136383333Y-70962619D01*
X136335714Y-70915000D01*
X136264285Y-70891190D01*
X136216666Y-70891190D01*
X136145238Y-70915000D01*
X136121428Y-70938809D01*
X135930952Y-70938809D02*
X135907142Y-70915000D01*
X135859523Y-70891190D01*
X135740476Y-70891190D01*
X135692857Y-70915000D01*
X135669047Y-70938809D01*
X135645238Y-70986428D01*
X135645238Y-71034047D01*
X135669047Y-71105476D01*
X135954761Y-71391190D01*
X135645238Y-71391190D01*
X135478571Y-70891190D02*
X135145238Y-70891190D01*
X135359523Y-71391190D01*
X141851333Y-66191190D02*
X142018000Y-65953095D01*
X142137047Y-66191190D02*
X142137047Y-65691190D01*
X141946571Y-65691190D01*
X141898952Y-65715000D01*
X141875142Y-65738809D01*
X141851333Y-65786428D01*
X141851333Y-65857857D01*
X141875142Y-65905476D01*
X141898952Y-65929285D01*
X141946571Y-65953095D01*
X142137047Y-65953095D01*
X141684666Y-65691190D02*
X141375142Y-65691190D01*
X141541809Y-65881666D01*
X141470380Y-65881666D01*
X141422761Y-65905476D01*
X141398952Y-65929285D01*
X141375142Y-65976904D01*
X141375142Y-66095952D01*
X141398952Y-66143571D01*
X141422761Y-66167380D01*
X141470380Y-66191190D01*
X141613238Y-66191190D01*
X141660857Y-66167380D01*
X141684666Y-66143571D01*
X136353333Y-70246190D02*
X136520000Y-70008095D01*
X136639047Y-70246190D02*
X136639047Y-69746190D01*
X136448571Y-69746190D01*
X136400952Y-69770000D01*
X136377142Y-69793809D01*
X136353333Y-69841428D01*
X136353333Y-69912857D01*
X136377142Y-69960476D01*
X136400952Y-69984285D01*
X136448571Y-70008095D01*
X136639047Y-70008095D01*
X135924761Y-69912857D02*
X135924761Y-70246190D01*
X136043809Y-69722380D02*
X136162857Y-70079523D01*
X135853333Y-70079523D01*
X147280952Y-60691190D02*
X147280952Y-61095952D01*
X147257142Y-61143571D01*
X147233333Y-61167380D01*
X147185714Y-61191190D01*
X147090476Y-61191190D01*
X147042857Y-61167380D01*
X147019047Y-61143571D01*
X146995238Y-61095952D01*
X146995238Y-60691190D01*
X146804761Y-60691190D02*
X146495238Y-60691190D01*
X146661904Y-60881666D01*
X146590476Y-60881666D01*
X146542857Y-60905476D01*
X146519047Y-60929285D01*
X146495238Y-60976904D01*
X146495238Y-61095952D01*
X146519047Y-61143571D01*
X146542857Y-61167380D01*
X146590476Y-61191190D01*
X146733333Y-61191190D01*
X146780952Y-61167380D01*
X146804761Y-61143571D01*
X157321428Y-73496190D02*
X157488095Y-73258095D01*
X157607142Y-73496190D02*
X157607142Y-72996190D01*
X157416666Y-72996190D01*
X157369047Y-73020000D01*
X157345238Y-73043809D01*
X157321428Y-73091428D01*
X157321428Y-73162857D01*
X157345238Y-73210476D01*
X157369047Y-73234285D01*
X157416666Y-73258095D01*
X157607142Y-73258095D01*
X156845238Y-73496190D02*
X157130952Y-73496190D01*
X156988095Y-73496190D02*
X156988095Y-72996190D01*
X157035714Y-73067619D01*
X157083333Y-73115238D01*
X157130952Y-73139047D01*
X156392857Y-72996190D02*
X156630952Y-72996190D01*
X156654761Y-73234285D01*
X156630952Y-73210476D01*
X156583333Y-73186666D01*
X156464285Y-73186666D01*
X156416666Y-73210476D01*
X156392857Y-73234285D01*
X156369047Y-73281904D01*
X156369047Y-73400952D01*
X156392857Y-73448571D01*
X156416666Y-73472380D01*
X156464285Y-73496190D01*
X156583333Y-73496190D01*
X156630952Y-73472380D01*
X156654761Y-73448571D01*
X131130952Y-68976190D02*
X130845238Y-68976190D01*
X130988095Y-69476190D02*
X130988095Y-68976190D01*
X130678571Y-69476190D02*
X130678571Y-68976190D01*
X130488095Y-68976190D01*
X130440476Y-69000000D01*
X130416666Y-69023809D01*
X130392857Y-69071428D01*
X130392857Y-69142857D01*
X130416666Y-69190476D01*
X130440476Y-69214285D01*
X130488095Y-69238095D01*
X130678571Y-69238095D01*
X129964285Y-69142857D02*
X129964285Y-69476190D01*
X130083333Y-68952380D02*
X130202380Y-69309523D01*
X129892857Y-69309523D01*
X146150952Y-69746190D02*
X146150952Y-70150952D01*
X146127142Y-70198571D01*
X146103333Y-70222380D01*
X146055714Y-70246190D01*
X145960476Y-70246190D01*
X145912857Y-70222380D01*
X145889047Y-70198571D01*
X145865238Y-70150952D01*
X145865238Y-69746190D01*
X145365238Y-70246190D02*
X145650952Y-70246190D01*
X145508095Y-70246190D02*
X145508095Y-69746190D01*
X145555714Y-69817619D01*
X145603333Y-69865238D01*
X145650952Y-69889047D01*
X151841428Y-71496190D02*
X152008095Y-71258095D01*
X152127142Y-71496190D02*
X152127142Y-70996190D01*
X151936666Y-70996190D01*
X151889047Y-71020000D01*
X151865238Y-71043809D01*
X151841428Y-71091428D01*
X151841428Y-71162857D01*
X151865238Y-71210476D01*
X151889047Y-71234285D01*
X151936666Y-71258095D01*
X152127142Y-71258095D01*
X151365238Y-71496190D02*
X151650952Y-71496190D01*
X151508095Y-71496190D02*
X151508095Y-70996190D01*
X151555714Y-71067619D01*
X151603333Y-71115238D01*
X151650952Y-71139047D01*
X150936666Y-70996190D02*
X151031904Y-70996190D01*
X151079523Y-71020000D01*
X151103333Y-71043809D01*
X151150952Y-71115238D01*
X151174761Y-71210476D01*
X151174761Y-71400952D01*
X151150952Y-71448571D01*
X151127142Y-71472380D01*
X151079523Y-71496190D01*
X150984285Y-71496190D01*
X150936666Y-71472380D01*
X150912857Y-71448571D01*
X150889047Y-71400952D01*
X150889047Y-71281904D01*
X150912857Y-71234285D01*
X150936666Y-71210476D01*
X150984285Y-71186666D01*
X151079523Y-71186666D01*
X151127142Y-71210476D01*
X151150952Y-71234285D01*
X151174761Y-71281904D01*
X150521428Y-61328571D02*
X150545238Y-61352380D01*
X150616666Y-61376190D01*
X150664285Y-61376190D01*
X150735714Y-61352380D01*
X150783333Y-61304761D01*
X150807142Y-61257142D01*
X150830952Y-61161904D01*
X150830952Y-61090476D01*
X150807142Y-60995238D01*
X150783333Y-60947619D01*
X150735714Y-60900000D01*
X150664285Y-60876190D01*
X150616666Y-60876190D01*
X150545238Y-60900000D01*
X150521428Y-60923809D01*
X150330952Y-60923809D02*
X150307142Y-60900000D01*
X150259523Y-60876190D01*
X150140476Y-60876190D01*
X150092857Y-60900000D01*
X150069047Y-60923809D01*
X150045238Y-60971428D01*
X150045238Y-61019047D01*
X150069047Y-61090476D01*
X150354761Y-61376190D01*
X150045238Y-61376190D01*
X149592857Y-60876190D02*
X149830952Y-60876190D01*
X149854761Y-61114285D01*
X149830952Y-61090476D01*
X149783333Y-61066666D01*
X149664285Y-61066666D01*
X149616666Y-61090476D01*
X149592857Y-61114285D01*
X149569047Y-61161904D01*
X149569047Y-61280952D01*
X149592857Y-61328571D01*
X149616666Y-61352380D01*
X149664285Y-61376190D01*
X149783333Y-61376190D01*
X149830952Y-61352380D01*
X149854761Y-61328571D01*
X127916666Y-65464285D02*
X128083333Y-65464285D01*
X128083333Y-65726190D02*
X128083333Y-65226190D01*
X127845238Y-65226190D01*
X127488095Y-65464285D02*
X127416666Y-65488095D01*
X127392857Y-65511904D01*
X127369047Y-65559523D01*
X127369047Y-65630952D01*
X127392857Y-65678571D01*
X127416666Y-65702380D01*
X127464285Y-65726190D01*
X127654761Y-65726190D01*
X127654761Y-65226190D01*
X127488095Y-65226190D01*
X127440476Y-65250000D01*
X127416666Y-65273809D01*
X127392857Y-65321428D01*
X127392857Y-65369047D01*
X127416666Y-65416666D01*
X127440476Y-65440476D01*
X127488095Y-65464285D01*
X127654761Y-65464285D01*
X126892857Y-65726190D02*
X127178571Y-65726190D01*
X127035714Y-65726190D02*
X127035714Y-65226190D01*
X127083333Y-65297619D01*
X127130952Y-65345238D01*
X127178571Y-65369047D01*
X148421428Y-62491190D02*
X148588095Y-62253095D01*
X148707142Y-62491190D02*
X148707142Y-61991190D01*
X148516666Y-61991190D01*
X148469047Y-62015000D01*
X148445238Y-62038809D01*
X148421428Y-62086428D01*
X148421428Y-62157857D01*
X148445238Y-62205476D01*
X148469047Y-62229285D01*
X148516666Y-62253095D01*
X148707142Y-62253095D01*
X148230952Y-62038809D02*
X148207142Y-62015000D01*
X148159523Y-61991190D01*
X148040476Y-61991190D01*
X147992857Y-62015000D01*
X147969047Y-62038809D01*
X147945238Y-62086428D01*
X147945238Y-62134047D01*
X147969047Y-62205476D01*
X148254761Y-62491190D01*
X147945238Y-62491190D01*
X147778571Y-61991190D02*
X147445238Y-61991190D01*
X147659523Y-62491190D01*
X127105571Y-71576166D02*
X127129380Y-71552357D01*
X127153190Y-71480928D01*
X127153190Y-71433309D01*
X127129380Y-71361880D01*
X127081761Y-71314261D01*
X127034142Y-71290452D01*
X126938904Y-71266642D01*
X126867476Y-71266642D01*
X126772238Y-71290452D01*
X126724619Y-71314261D01*
X126677000Y-71361880D01*
X126653190Y-71433309D01*
X126653190Y-71480928D01*
X126677000Y-71552357D01*
X126700809Y-71576166D01*
X126819857Y-72004738D02*
X127153190Y-72004738D01*
X126629380Y-71885690D02*
X126986523Y-71766642D01*
X126986523Y-72076166D01*
X153321428Y-77746190D02*
X153488095Y-77508095D01*
X153607142Y-77746190D02*
X153607142Y-77246190D01*
X153416666Y-77246190D01*
X153369047Y-77270000D01*
X153345238Y-77293809D01*
X153321428Y-77341428D01*
X153321428Y-77412857D01*
X153345238Y-77460476D01*
X153369047Y-77484285D01*
X153416666Y-77508095D01*
X153607142Y-77508095D01*
X152845238Y-77746190D02*
X153130952Y-77746190D01*
X152988095Y-77746190D02*
X152988095Y-77246190D01*
X153035714Y-77317619D01*
X153083333Y-77365238D01*
X153130952Y-77389047D01*
X152607142Y-77746190D02*
X152511904Y-77746190D01*
X152464285Y-77722380D01*
X152440476Y-77698571D01*
X152392857Y-77627142D01*
X152369047Y-77531904D01*
X152369047Y-77341428D01*
X152392857Y-77293809D01*
X152416666Y-77270000D01*
X152464285Y-77246190D01*
X152559523Y-77246190D01*
X152607142Y-77270000D01*
X152630952Y-77293809D01*
X152654761Y-77341428D01*
X152654761Y-77460476D01*
X152630952Y-77508095D01*
X152607142Y-77531904D01*
X152559523Y-77555714D01*
X152464285Y-77555714D01*
X152416666Y-77531904D01*
X152392857Y-77508095D01*
X152369047Y-77460476D01*
X143519047Y-64115190D02*
X143519047Y-64519952D01*
X143495238Y-64567571D01*
X143471428Y-64591380D01*
X143423809Y-64615190D01*
X143328571Y-64615190D01*
X143280952Y-64591380D01*
X143257142Y-64567571D01*
X143233333Y-64519952D01*
X143233333Y-64115190D01*
X143042857Y-64115190D02*
X142733333Y-64115190D01*
X142900000Y-64305666D01*
X142828571Y-64305666D01*
X142780952Y-64329476D01*
X142757142Y-64353285D01*
X142733333Y-64400904D01*
X142733333Y-64519952D01*
X142757142Y-64567571D01*
X142780952Y-64591380D01*
X142828571Y-64615190D01*
X142971428Y-64615190D01*
X143019047Y-64591380D01*
X143042857Y-64567571D01*
X142566666Y-64115190D02*
X142257142Y-64115190D01*
X142423809Y-64305666D01*
X142352380Y-64305666D01*
X142304761Y-64329476D01*
X142280952Y-64353285D01*
X142257142Y-64400904D01*
X142257142Y-64519952D01*
X142280952Y-64567571D01*
X142304761Y-64591380D01*
X142352380Y-64615190D01*
X142495238Y-64615190D01*
X142542857Y-64591380D01*
X142566666Y-64567571D01*
G36*
X155442717Y-63297717D02*
G01*
X155747572Y-63297717D01*
X155747572Y-62992861D01*
X156052428Y-62992861D01*
X156052428Y-63602572D01*
X155137861Y-63602572D01*
X155137861Y-62992861D01*
X155442717Y-62992861D01*
X155442717Y-63297717D01*
G37*
G36*
X158172559Y-65417848D02*
G01*
X157867703Y-65417848D01*
X157867703Y-65112992D01*
X158172559Y-65112992D01*
X158172559Y-65417848D01*
G37*
G36*
X153322586Y-63907428D02*
G01*
X153932297Y-63907428D01*
X153932297Y-64212283D01*
X153017730Y-64212283D01*
X153017730Y-63602572D01*
X153322586Y-63602572D01*
X153322586Y-63907428D01*
G37*
G36*
X153627441Y-64821994D02*
G01*
X153322586Y-64821994D01*
X153322586Y-64517139D01*
X153627441Y-64517139D01*
X153627441Y-64821994D01*
G37*
G36*
X160902400Y-58752600D02*
G01*
X160902400Y-68757400D01*
X150897600Y-68757400D01*
X150897600Y-66027559D01*
X151507310Y-66027559D01*
X151507310Y-68147690D01*
X153627441Y-68147690D01*
X153627441Y-67842834D01*
X154542008Y-67842834D01*
X154542008Y-68147690D01*
X155137861Y-68147690D01*
X155137861Y-67842834D01*
X154542008Y-67842834D01*
X153627441Y-67842834D01*
X153627441Y-66027559D01*
X151507310Y-66027559D01*
X150897600Y-66027559D01*
X150897600Y-62992861D01*
X151507310Y-62992861D01*
X151507310Y-64212283D01*
X151812706Y-64212283D01*
X151808972Y-64513674D01*
X151805237Y-64815066D01*
X151656274Y-64818999D01*
X151507310Y-64822932D01*
X151507310Y-65722703D01*
X151812166Y-65722703D01*
X151812166Y-65427086D01*
X152408020Y-65427086D01*
X152408020Y-65722703D01*
X152712875Y-65722703D01*
X152712875Y-65417848D01*
X153017730Y-65417848D01*
X153017730Y-65722703D01*
X153627441Y-65722703D01*
X153627441Y-65417848D01*
X153017730Y-65417848D01*
X152712875Y-65417848D01*
X152712875Y-65112992D01*
X152569685Y-65112992D01*
X152526042Y-65113425D01*
X152472531Y-65115323D01*
X152434177Y-65118385D01*
X152417258Y-65122230D01*
X152416278Y-65124871D01*
X152413643Y-65149542D01*
X152411373Y-65196284D01*
X152409595Y-65260913D01*
X152408434Y-65339242D01*
X152408020Y-65427086D01*
X151812166Y-65427086D01*
X151812166Y-65417848D01*
X152117331Y-65417848D01*
X152116568Y-65116457D01*
X152116541Y-65105462D01*
X152116344Y-65004626D01*
X152116231Y-64903195D01*
X152116203Y-64808246D01*
X152116263Y-64726856D01*
X152116413Y-64666102D01*
X152117021Y-64517139D01*
X152711937Y-64517139D01*
X152715870Y-64666102D01*
X152719804Y-64815066D01*
X153021195Y-64818800D01*
X153322586Y-64822535D01*
X153322586Y-65112992D01*
X153627441Y-65112992D01*
X153627441Y-64822932D01*
X153776405Y-64818999D01*
X153925368Y-64815066D01*
X153929301Y-64666102D01*
X153933234Y-64517139D01*
X154237152Y-64517139D01*
X154237152Y-65112992D01*
X154542008Y-65112992D01*
X154542008Y-65417848D01*
X154238090Y-65417848D01*
X154234157Y-65268884D01*
X154230224Y-65119921D01*
X154081260Y-65115988D01*
X153932297Y-65112055D01*
X153932297Y-65722703D01*
X154237152Y-65722703D01*
X154237152Y-66027559D01*
X153932297Y-66027559D01*
X153932297Y-66637270D01*
X154542945Y-66637270D01*
X154535079Y-66935196D01*
X154386116Y-66939130D01*
X154237152Y-66943063D01*
X154237152Y-67537979D01*
X154833006Y-67537979D01*
X154833006Y-66942125D01*
X155441779Y-66942125D01*
X155445712Y-67091088D01*
X155449645Y-67240052D01*
X155598609Y-67243985D01*
X155747572Y-67247918D01*
X155747572Y-67537041D01*
X155598609Y-67540974D01*
X155449645Y-67544907D01*
X155445712Y-67693871D01*
X155441779Y-67842834D01*
X155747572Y-67842834D01*
X155747572Y-67537979D01*
X156052428Y-67537979D01*
X156052428Y-68147690D01*
X156357283Y-68147690D01*
X156357283Y-67842294D01*
X156658674Y-67846028D01*
X156960065Y-67849763D01*
X156963998Y-67998726D01*
X156967932Y-68147690D01*
X157562848Y-68147690D01*
X157562848Y-67842834D01*
X157257992Y-67842834D01*
X157257992Y-67537979D01*
X157867703Y-67537979D01*
X157867703Y-67246980D01*
X157562848Y-67246980D01*
X157562848Y-66943063D01*
X157413884Y-66939130D01*
X157264921Y-66935196D01*
X157257055Y-66637270D01*
X157562848Y-66637270D01*
X157562848Y-66332414D01*
X157867703Y-66332414D01*
X157867703Y-66027559D01*
X158172559Y-66027559D01*
X158172559Y-68147690D01*
X160292690Y-68147690D01*
X160292690Y-66027559D01*
X158172559Y-66027559D01*
X157867703Y-66027559D01*
X157562848Y-66027559D01*
X157562848Y-66332414D01*
X157257992Y-66332414D01*
X157257992Y-65722703D01*
X156662139Y-65722703D01*
X156662139Y-66027559D01*
X156357283Y-66027559D01*
X156357283Y-66332414D01*
X156052428Y-66332414D01*
X156052428Y-66637270D01*
X155747572Y-66637270D01*
X155747572Y-66942125D01*
X155441779Y-66942125D01*
X154833006Y-66942125D01*
X154833006Y-66637270D01*
X155137861Y-66637270D01*
X155137861Y-66332414D01*
X155442717Y-66332414D01*
X155442717Y-66027559D01*
X155747572Y-66027559D01*
X155747572Y-66332414D01*
X156052428Y-66332414D01*
X156052428Y-66027559D01*
X155747572Y-66027559D01*
X155747572Y-65722703D01*
X156052428Y-65722703D01*
X156052428Y-65417848D01*
X156967932Y-65417848D01*
X156963998Y-65268884D01*
X156960065Y-65119921D01*
X156357283Y-65113065D01*
X156357283Y-65417848D01*
X155747572Y-65417848D01*
X155747572Y-65112992D01*
X156052428Y-65112992D01*
X156052428Y-64822932D01*
X156201391Y-64818999D01*
X156350355Y-64815066D01*
X156354285Y-64666371D01*
X156358215Y-64517677D01*
X156401573Y-64517139D01*
X156966994Y-64517139D01*
X156966994Y-65112992D01*
X157562848Y-65112992D01*
X157562848Y-64822932D01*
X157413884Y-64818999D01*
X157264921Y-64815066D01*
X157260988Y-64666102D01*
X157257055Y-64517139D01*
X157561910Y-64517139D01*
X157565843Y-64666102D01*
X157569776Y-64815066D01*
X157718740Y-64818999D01*
X157867703Y-64822932D01*
X157867703Y-65112055D01*
X157718740Y-65115988D01*
X157569776Y-65119921D01*
X157565843Y-65268884D01*
X157561910Y-65417848D01*
X157867703Y-65417848D01*
X157867703Y-65722703D01*
X158172559Y-65722703D01*
X158172559Y-65417848D01*
X158477414Y-65417848D01*
X158477414Y-65722703D01*
X158782269Y-65722703D01*
X158782269Y-65417848D01*
X158477414Y-65417848D01*
X158477414Y-65112992D01*
X158172559Y-65112992D01*
X158172559Y-64821994D01*
X157867703Y-64821994D01*
X157867703Y-64517139D01*
X157561910Y-64517139D01*
X157257055Y-64517139D01*
X156966994Y-64517139D01*
X156401573Y-64517139D01*
X156659140Y-64513943D01*
X156960065Y-64510210D01*
X156963998Y-64361247D01*
X156967932Y-64212283D01*
X157257992Y-64212283D01*
X157257992Y-63297717D01*
X156967932Y-63297717D01*
X156963998Y-63148753D01*
X156960065Y-62999790D01*
X156697628Y-62992861D01*
X156662139Y-62991924D01*
X156662139Y-63297717D01*
X156357283Y-63297717D01*
X156357283Y-62992861D01*
X156052428Y-62992861D01*
X156052428Y-62092152D01*
X155747572Y-62092152D01*
X155747572Y-62688006D01*
X155442717Y-62688006D01*
X155442717Y-62397008D01*
X155137861Y-62397008D01*
X155137861Y-62991924D01*
X154988898Y-62995857D01*
X154839934Y-62999790D01*
X154836281Y-63453609D01*
X154832627Y-63907428D01*
X154542008Y-63907428D01*
X154542008Y-62992861D01*
X154833006Y-62992861D01*
X154833006Y-62397008D01*
X154542008Y-62397008D01*
X154542008Y-62688006D01*
X154237152Y-62688006D01*
X154237152Y-62093090D01*
X154386116Y-62089157D01*
X154535079Y-62085224D01*
X154539012Y-61936260D01*
X154542945Y-61787297D01*
X155136924Y-61787297D01*
X155140857Y-61936260D01*
X155144790Y-62085224D01*
X155293753Y-62089157D01*
X155442717Y-62093090D01*
X155442717Y-61787297D01*
X155137861Y-61787297D01*
X155137861Y-61482441D01*
X155747572Y-61482441D01*
X155747572Y-61787297D01*
X156052428Y-61787297D01*
X156052428Y-61482441D01*
X155747572Y-61482441D01*
X155137861Y-61482441D01*
X155137861Y-61177586D01*
X154833006Y-61177586D01*
X154833006Y-60872731D01*
X155747572Y-60872731D01*
X155747572Y-61177586D01*
X156357283Y-61177586D01*
X156357283Y-61787297D01*
X156052428Y-61787297D01*
X156052428Y-62092152D01*
X156662139Y-62092152D01*
X156662139Y-61482441D01*
X156966994Y-61482441D01*
X156966994Y-61177586D01*
X157257992Y-61177586D01*
X157257992Y-60872731D01*
X156967932Y-60872731D01*
X156963998Y-60723767D01*
X156960065Y-60574804D01*
X156658674Y-60571069D01*
X156357283Y-60567335D01*
X156357283Y-60872731D01*
X155747572Y-60872731D01*
X154833006Y-60872731D01*
X154833006Y-60567875D01*
X155747572Y-60567875D01*
X155747572Y-60263020D01*
X155442717Y-60263020D01*
X155442717Y-59972021D01*
X156357283Y-59972021D01*
X156357283Y-60263020D01*
X156662139Y-60263020D01*
X156662139Y-59972021D01*
X156357283Y-59972021D01*
X155442717Y-59972021D01*
X155137861Y-59972021D01*
X155137861Y-60262082D01*
X154988898Y-60266015D01*
X154839934Y-60269948D01*
X154836001Y-60418912D01*
X154832068Y-60567875D01*
X154542008Y-60567875D01*
X154542008Y-60263020D01*
X154833006Y-60263020D01*
X154833006Y-59667166D01*
X154237152Y-59667166D01*
X154237152Y-60263020D01*
X153932297Y-60263020D01*
X153932297Y-60567875D01*
X154237152Y-60567875D01*
X154237152Y-60872731D01*
X153932297Y-60872731D01*
X153932297Y-61177586D01*
X154237152Y-61177586D01*
X154237152Y-61482441D01*
X153932297Y-61482441D01*
X153932297Y-62092152D01*
X153627441Y-62092152D01*
X153627441Y-62397008D01*
X153322586Y-62397008D01*
X153322586Y-62688006D01*
X153017730Y-62688006D01*
X153017730Y-62992861D01*
X153322586Y-62992861D01*
X153322586Y-63297717D01*
X152712875Y-63297717D01*
X152712875Y-63907428D01*
X152118052Y-63907428D01*
X152114072Y-63606037D01*
X152113948Y-63596413D01*
X152112959Y-63494943D01*
X152112469Y-63392195D01*
X152112481Y-63297717D01*
X152407082Y-63297717D01*
X152712875Y-63297717D01*
X152712875Y-62991924D01*
X152563912Y-62995857D01*
X152414948Y-62999790D01*
X152411015Y-63148753D01*
X152407082Y-63297717D01*
X152112481Y-63297717D01*
X152112481Y-63295417D01*
X152112994Y-63211854D01*
X152114011Y-63148753D01*
X152117929Y-62992861D01*
X152408020Y-62992861D01*
X152408020Y-62397008D01*
X152117021Y-62397008D01*
X152117021Y-62688006D01*
X151812166Y-62688006D01*
X151812166Y-62992861D01*
X151507310Y-62992861D01*
X150897600Y-62992861D01*
X150897600Y-62397008D01*
X151507310Y-62397008D01*
X151507310Y-62688006D01*
X151812166Y-62688006D01*
X151812166Y-62397008D01*
X151507310Y-62397008D01*
X150897600Y-62397008D01*
X150897600Y-61787297D01*
X151507310Y-61787297D01*
X151507310Y-62093090D01*
X151542837Y-62092152D01*
X151656274Y-62089157D01*
X151805237Y-62085224D01*
X151809170Y-61936260D01*
X151813103Y-61787297D01*
X152117021Y-61787297D01*
X152117021Y-62092152D01*
X152407082Y-62092152D01*
X152411015Y-62241116D01*
X152414948Y-62390079D01*
X152563912Y-62394012D01*
X152712875Y-62397945D01*
X152712875Y-62688006D01*
X153017730Y-62688006D01*
X153017730Y-61787297D01*
X153322586Y-61787297D01*
X153322586Y-62092152D01*
X153627441Y-62092152D01*
X153627441Y-61787297D01*
X153322586Y-61787297D01*
X153017730Y-61787297D01*
X152117021Y-61787297D01*
X151813103Y-61787297D01*
X151507310Y-61787297D01*
X150897600Y-61787297D01*
X150897600Y-59362310D01*
X151507310Y-59362310D01*
X151507310Y-61482441D01*
X153627441Y-61482441D01*
X153627441Y-59668104D01*
X153932297Y-59668104D01*
X154081260Y-59664170D01*
X154230224Y-59660237D01*
X154234157Y-59511274D01*
X154238090Y-59362310D01*
X154832068Y-59362310D01*
X154836001Y-59511274D01*
X154839934Y-59660237D01*
X154988898Y-59664170D01*
X155137861Y-59668104D01*
X155137861Y-59667166D01*
X155746635Y-59667166D01*
X155750568Y-59816129D01*
X155754501Y-59965093D01*
X156350355Y-59965093D01*
X156354288Y-59816129D01*
X156358221Y-59667166D01*
X156662139Y-59667166D01*
X156662139Y-59972021D01*
X156811102Y-59971188D01*
X156885269Y-59970931D01*
X156979944Y-59971062D01*
X157066624Y-59971676D01*
X157141366Y-59972715D01*
X157200227Y-59974120D01*
X157239262Y-59975833D01*
X157254527Y-59977794D01*
X157254948Y-59979743D01*
X157256126Y-60002536D01*
X157257137Y-60047559D01*
X157257925Y-60110700D01*
X157258435Y-60187850D01*
X157258608Y-60274896D01*
X157258566Y-60567875D01*
X157562848Y-60567875D01*
X157562848Y-61482441D01*
X157257992Y-61482441D01*
X157257992Y-61787297D01*
X156966994Y-61787297D01*
X156966994Y-62092152D01*
X156662139Y-62092152D01*
X156662139Y-62397008D01*
X156357283Y-62397008D01*
X156357283Y-62688006D01*
X156662139Y-62688006D01*
X156966994Y-62688006D01*
X156966994Y-62992861D01*
X157257992Y-62992861D01*
X157257992Y-62688006D01*
X156966994Y-62688006D01*
X156662139Y-62688006D01*
X156662139Y-62397945D01*
X156960065Y-62390079D01*
X156963998Y-62241116D01*
X156967932Y-62092152D01*
X157561910Y-62092152D01*
X157565843Y-62241116D01*
X157569776Y-62390079D01*
X157718740Y-62394012D01*
X157867703Y-62397945D01*
X157867703Y-62687068D01*
X157718740Y-62691002D01*
X157569776Y-62694935D01*
X157566194Y-63453609D01*
X157562611Y-64212283D01*
X157867703Y-64212283D01*
X157867703Y-64517139D01*
X158477414Y-64517139D01*
X158782269Y-64517139D01*
X158782269Y-65112055D01*
X158931233Y-65115988D01*
X159080196Y-65119921D01*
X159084129Y-65268884D01*
X159088062Y-65417848D01*
X159391980Y-65417848D01*
X159391980Y-65274658D01*
X159987834Y-65274658D01*
X159987834Y-65417848D01*
X160292690Y-65417848D01*
X160292690Y-65112992D01*
X160149500Y-65112992D01*
X160105857Y-65113425D01*
X160052346Y-65115323D01*
X160013992Y-65118385D01*
X159997072Y-65122230D01*
X159994284Y-65131721D01*
X159990954Y-65164471D01*
X159988678Y-65214209D01*
X159987834Y-65274658D01*
X159391980Y-65274658D01*
X159391980Y-65112992D01*
X159987834Y-65112992D01*
X159987834Y-64517139D01*
X160292690Y-64517139D01*
X160292690Y-64212283D01*
X159682979Y-64212283D01*
X159682979Y-64517139D01*
X159392918Y-64517139D01*
X159388985Y-64666102D01*
X159385052Y-64815066D01*
X159236088Y-64818999D01*
X159087125Y-64822932D01*
X159087125Y-64518076D01*
X159236088Y-64514143D01*
X159385052Y-64510210D01*
X159388985Y-64361247D01*
X159392918Y-64212283D01*
X159087125Y-64212283D01*
X159087125Y-64517139D01*
X158782269Y-64517139D01*
X158477414Y-64517139D01*
X158477414Y-64212283D01*
X158172559Y-64212283D01*
X158172559Y-63907428D01*
X160292690Y-63907428D01*
X160292690Y-63602572D01*
X159987834Y-63602572D01*
X159987834Y-62992861D01*
X160292690Y-62992861D01*
X160292690Y-62092152D01*
X159682979Y-62092152D01*
X159682979Y-61787297D01*
X160292690Y-61787297D01*
X160292690Y-61482441D01*
X159987834Y-61482441D01*
X159987834Y-61177586D01*
X159682979Y-61177586D01*
X159682979Y-60872731D01*
X160292690Y-60872731D01*
X160292690Y-60567875D01*
X159987834Y-60567875D01*
X159987834Y-60263020D01*
X159682979Y-60263020D01*
X159682979Y-59972021D01*
X159087125Y-59972021D01*
X159087125Y-59668104D01*
X159236088Y-59664170D01*
X159385052Y-59660237D01*
X159388985Y-59511274D01*
X159392918Y-59362310D01*
X159683051Y-59362310D01*
X159686479Y-59663702D01*
X159689907Y-59965093D01*
X159838871Y-59969026D01*
X159987834Y-59972959D01*
X159987834Y-60263020D01*
X160292690Y-60263020D01*
X160292690Y-59972021D01*
X159987834Y-59972021D01*
X159987834Y-59362310D01*
X159683051Y-59362310D01*
X159392918Y-59362310D01*
X157562848Y-59362310D01*
X157562848Y-59667166D01*
X156966994Y-59667166D01*
X156966994Y-59362310D01*
X156357283Y-59362310D01*
X156357283Y-59667166D01*
X155746635Y-59667166D01*
X155137861Y-59667166D01*
X155137861Y-59362310D01*
X154832068Y-59362310D01*
X154238090Y-59362310D01*
X153932297Y-59362310D01*
X153932297Y-59668104D01*
X153627441Y-59668104D01*
X153627441Y-59362310D01*
X151507310Y-59362310D01*
X150897600Y-59362310D01*
X150897600Y-58752600D01*
X160902400Y-58752600D01*
G37*
G36*
X155442717Y-64212283D02*
G01*
X154833006Y-64212283D01*
X154833006Y-63907428D01*
X155442717Y-63907428D01*
X155442717Y-64212283D01*
G37*
G36*
X159682979Y-60872731D02*
G01*
X159087125Y-60872731D01*
X159087125Y-60567875D01*
X159682979Y-60567875D01*
X159682979Y-60872731D01*
G37*
G36*
X156357283Y-67537979D02*
G01*
X156052428Y-67537979D01*
X156052428Y-67246980D01*
X156357283Y-67246980D01*
X156357283Y-67537979D01*
G37*
G36*
X156966994Y-61177586D02*
G01*
X156662139Y-61177586D01*
X156662139Y-60872731D01*
X156966994Y-60872731D01*
X156966994Y-61177586D01*
G37*
G36*
X157257992Y-66332414D02*
G01*
X157257992Y-66637270D01*
X156966994Y-66637270D01*
X156966994Y-67246980D01*
X156662139Y-67246980D01*
X156662139Y-66637270D01*
X156966994Y-66637270D01*
X156966994Y-66332414D01*
X157257992Y-66332414D01*
G37*
G36*
X156966994Y-66332414D02*
G01*
X156662139Y-66332414D01*
X156662139Y-66637270D01*
X156357283Y-66637270D01*
X156357283Y-66332414D01*
X156662139Y-66332414D01*
X156662139Y-66027559D01*
X156966994Y-66027559D01*
X156966994Y-66332414D01*
G37*
G36*
X156052428Y-64821994D02*
G01*
X155747572Y-64821994D01*
X155747572Y-64517139D01*
X156052428Y-64517139D01*
X156052428Y-64821994D01*
G37*
G36*
X157257992Y-67537979D02*
G01*
X156966994Y-67537979D01*
X156966994Y-67246980D01*
X157257992Y-67246980D01*
X157257992Y-67537979D01*
G37*
G36*
X154237152Y-63907428D02*
G01*
X153932297Y-63907428D01*
X153932297Y-63602572D01*
X154237152Y-63602572D01*
X154237152Y-63907428D01*
G37*
G36*
X159973977Y-66346271D02*
G01*
X159973977Y-67828977D01*
X158491271Y-67828977D01*
X158491271Y-66637270D01*
X158782269Y-66637270D01*
X158782269Y-67537979D01*
X159682979Y-67537979D01*
X159682979Y-66637270D01*
X158782269Y-66637270D01*
X158491271Y-66637270D01*
X158491271Y-66346271D01*
X159973977Y-66346271D01*
G37*
G36*
X153017730Y-64517139D02*
G01*
X152712875Y-64517139D01*
X152712875Y-64212283D01*
X153017730Y-64212283D01*
X153017730Y-64517139D01*
G37*
G36*
X156966994Y-63907428D02*
G01*
X156662139Y-63907428D01*
X156662139Y-64212283D01*
X156052428Y-64212283D01*
X156052428Y-63602572D01*
X156966994Y-63602572D01*
X156966994Y-63907428D01*
G37*
G36*
X155747572Y-65722703D02*
G01*
X155442717Y-65722703D01*
X155442717Y-65417848D01*
X155747572Y-65417848D01*
X155747572Y-65722703D01*
G37*
G36*
X155442717Y-65417848D02*
G01*
X155137861Y-65417848D01*
X155137861Y-65722703D01*
X154833006Y-65722703D01*
X154833006Y-66027559D01*
X154542008Y-66027559D01*
X154542008Y-65722703D01*
X154832068Y-65722703D01*
X154836001Y-65573740D01*
X154839934Y-65424776D01*
X154988898Y-65420843D01*
X155137861Y-65416910D01*
X155137861Y-65113566D01*
X154844883Y-65113609D01*
X154814943Y-65113591D01*
X154730747Y-65113299D01*
X154657822Y-65112690D01*
X154600279Y-65111821D01*
X154562228Y-65110748D01*
X154547780Y-65109527D01*
X154546283Y-65100398D01*
X154544504Y-65066869D01*
X154543017Y-65012541D01*
X154541882Y-64941356D01*
X154541157Y-64857259D01*
X154540902Y-64764193D01*
X154541174Y-64666102D01*
X154542008Y-64517139D01*
X155442717Y-64517139D01*
X155442717Y-65417848D01*
G37*
G36*
X153932297Y-63297717D02*
G01*
X153627441Y-63297717D01*
X153627441Y-62992861D01*
X153322586Y-62992861D01*
X153322586Y-62688006D01*
X153627441Y-62688006D01*
X153627441Y-62397008D01*
X153932297Y-62397008D01*
X153932297Y-63297717D01*
G37*
G36*
X158782269Y-60263020D02*
G01*
X158172559Y-60263020D01*
X158172559Y-60567875D01*
X157867703Y-60567875D01*
X157867703Y-59972021D01*
X158172559Y-59972021D01*
X158172559Y-59667166D01*
X158782269Y-59667166D01*
X158782269Y-60263020D01*
G37*
G36*
X158477414Y-62688006D02*
G01*
X158172559Y-62688006D01*
X158172559Y-62092152D01*
X158477414Y-62092152D01*
X158477414Y-62688006D01*
G37*
G36*
X159682979Y-61482441D02*
G01*
X159391980Y-61482441D01*
X159391980Y-62092152D01*
X159682979Y-62092152D01*
X159683788Y-62241116D01*
X159683905Y-62269109D01*
X159683961Y-62359306D01*
X159683658Y-62454782D01*
X159683037Y-62539043D01*
X159681476Y-62688006D01*
X159987834Y-62688006D01*
X159987834Y-62991924D01*
X159838871Y-62995857D01*
X159689907Y-62999790D01*
X159687073Y-63152218D01*
X159686512Y-63184519D01*
X159685225Y-63275319D01*
X159684195Y-63370336D01*
X159683608Y-63453609D01*
X159682979Y-63602572D01*
X159392918Y-63602572D01*
X159388985Y-63453609D01*
X159385052Y-63304645D01*
X159236088Y-63300712D01*
X159087125Y-63296779D01*
X159087125Y-63602572D01*
X158477414Y-63602572D01*
X158477414Y-63297717D01*
X158782269Y-63297717D01*
X158782269Y-62688006D01*
X159087125Y-62688006D01*
X159087125Y-62992861D01*
X159392918Y-62992861D01*
X159385052Y-62694935D01*
X159236088Y-62691002D01*
X159087125Y-62687068D01*
X159087125Y-61177586D01*
X159682979Y-61177586D01*
X159682979Y-61482441D01*
G37*
G36*
X158172559Y-63907428D02*
G01*
X157867703Y-63907428D01*
X157867703Y-63602572D01*
X158172559Y-63602572D01*
X158172559Y-63907428D01*
G37*
G36*
X154542008Y-66332414D02*
G01*
X154237152Y-66332414D01*
X154237152Y-66027559D01*
X154542008Y-66027559D01*
X154542008Y-66332414D01*
G37*
G36*
X155747572Y-64517139D02*
G01*
X155442717Y-64517139D01*
X155442717Y-64212283D01*
X155747572Y-64212283D01*
X155747572Y-64517139D01*
G37*
G36*
X158782269Y-60872731D02*
G01*
X158782269Y-61787297D01*
X157867703Y-61787297D01*
X157867703Y-61177586D01*
X158172559Y-61177586D01*
X158172559Y-61482441D01*
X158477414Y-61482441D01*
X158477414Y-61177586D01*
X158172559Y-61177586D01*
X157867703Y-61177586D01*
X157867703Y-60872731D01*
X158782269Y-60872731D01*
G37*
G36*
X153308729Y-59681023D02*
G01*
X153308729Y-61163729D01*
X151826023Y-61163729D01*
X151826023Y-59972021D01*
X152117021Y-59972021D01*
X152117021Y-60872731D01*
X153017730Y-60872731D01*
X153017730Y-59972021D01*
X152117021Y-59972021D01*
X151826023Y-59972021D01*
X151826023Y-59681023D01*
X153308729Y-59681023D01*
G37*
G36*
X153627441Y-63602572D02*
G01*
X153322586Y-63602572D01*
X153322586Y-63297717D01*
X153627441Y-63297717D01*
X153627441Y-63602572D01*
G37*
G36*
X153308729Y-66346271D02*
G01*
X153308729Y-67828977D01*
X151826023Y-67828977D01*
X151826023Y-66637270D01*
X152117021Y-66637270D01*
X152117021Y-67537979D01*
X153017730Y-67537979D01*
X153017730Y-66637270D01*
X152117021Y-66637270D01*
X151826023Y-66637270D01*
X151826023Y-66346271D01*
X153308729Y-66346271D01*
G37*
G36*
X155137861Y-66332414D02*
G01*
X154833006Y-66332414D01*
X154833006Y-66027559D01*
X155137861Y-66027559D01*
X155137861Y-66332414D01*
G37*
G36*
X156052428Y-67246980D02*
G01*
X155747572Y-67246980D01*
X155747572Y-66942125D01*
X156052428Y-66942125D01*
X156052428Y-67246980D01*
G37*
G36*
X158477414Y-63297717D02*
G01*
X157867703Y-63297717D01*
X157867703Y-62992861D01*
X158477414Y-62992861D01*
X158477414Y-63297717D01*
G37*
G36*
X154542008Y-64212283D02*
G01*
X154237152Y-64212283D01*
X154237152Y-63907428D01*
X154542008Y-63907428D01*
X154542008Y-64212283D01*
G37*
G36*
X154542008Y-61787297D02*
G01*
X154237152Y-61787297D01*
X154237152Y-61482441D01*
X154542008Y-61482441D01*
X154542008Y-61787297D01*
G37*
D14*
X133220000Y-67320000D02*
X131820000Y-67320000D01*
X133220000Y-68720000D02*
X133220000Y-67320000D01*
X131820000Y-67320000D02*
X131820000Y-68720000D01*
X131820000Y-68720000D02*
X133220000Y-68720000D01*
X141480936Y-74068000D02*
X141935064Y-74068000D01*
X141480936Y-75538000D02*
X141935064Y-75538000D01*
X149400000Y-66700000D02*
X150800000Y-66700000D01*
X149400000Y-65300000D02*
X149400000Y-66700000D01*
X150800000Y-65300000D02*
X149400000Y-65300000D01*
X150800000Y-66700000D02*
X150800000Y-65300000D01*
X141480936Y-73506000D02*
X141935064Y-73506000D01*
X141480936Y-72036000D02*
X141935064Y-72036000D01*
X153270000Y-71210000D02*
X154945000Y-71210000D01*
X153270000Y-71210000D02*
X152620000Y-71210000D01*
X153270000Y-74330000D02*
X153920000Y-74330000D01*
X153270000Y-74330000D02*
X152620000Y-74330000D01*
X141600000Y-57565000D02*
X140200000Y-57565000D01*
X141600000Y-58965000D02*
X141600000Y-57565000D01*
X140200000Y-58965000D02*
X141600000Y-58965000D01*
X140200000Y-57565000D02*
X140200000Y-58965000D01*
X144027064Y-59000000D02*
X143572936Y-59000000D01*
X144027064Y-57530000D02*
X143572936Y-57530000D01*
X149238748Y-75535000D02*
X149761252Y-75535000D01*
X149238748Y-77005000D02*
X149761252Y-77005000D01*
X130255000Y-59758748D02*
X130255000Y-60281252D01*
X128785000Y-59758748D02*
X128785000Y-60281252D01*
X132570000Y-70320000D02*
X132570000Y-71720000D01*
X132570000Y-71720000D02*
X133970000Y-71720000D01*
X133970000Y-71720000D02*
X133970000Y-70320000D01*
X133970000Y-70320000D02*
X132570000Y-70320000D01*
X155558748Y-70755000D02*
X156081252Y-70755000D01*
X155558748Y-69285000D02*
X156081252Y-69285000D01*
X142255000Y-70247064D02*
X142255000Y-69792936D01*
X140785000Y-70247064D02*
X140785000Y-69792936D01*
X145237000Y-75292936D02*
X145237000Y-75747064D01*
X143767000Y-75292936D02*
X143767000Y-75747064D01*
X133670000Y-66720000D02*
X133670000Y-69270000D01*
X135370000Y-66720000D02*
X135370000Y-69270000D01*
X133670000Y-66720000D02*
X135370000Y-66720000D01*
X126785000Y-59792936D02*
X126785000Y-60247064D01*
X128255000Y-59792936D02*
X128255000Y-60247064D01*
X147269000Y-75303748D02*
X147269000Y-75826252D01*
X145799000Y-75303748D02*
X145799000Y-75826252D01*
X157200000Y-73960000D02*
X156550000Y-73960000D01*
X157200000Y-77080000D02*
X155525000Y-77080000D01*
X157200000Y-73960000D02*
X157850000Y-73960000D01*
X157200000Y-77080000D02*
X157850000Y-77080000D01*
X147072936Y-67759000D02*
X147527064Y-67759000D01*
X147072936Y-66289000D02*
X147527064Y-66289000D01*
X147960000Y-73020000D02*
X147960000Y-73670000D01*
X147960000Y-73020000D02*
X147960000Y-72370000D01*
X151080000Y-73020000D02*
X151080000Y-72370000D01*
X151080000Y-73020000D02*
X151080000Y-74695000D01*
G36*
X164406751Y-67347222D02*
G01*
X164432323Y-67439449D01*
X164470491Y-67577508D01*
X164506810Y-67709297D01*
X164535998Y-67815665D01*
X164545693Y-67850859D01*
X164571236Y-67941112D01*
X164592463Y-68012767D01*
X164605550Y-68052778D01*
X164611458Y-68079723D01*
X164597360Y-68090262D01*
X164557380Y-68079073D01*
X164487281Y-68044896D01*
X164382825Y-67986468D01*
X164338528Y-67961538D01*
X164263297Y-67922388D01*
X164208572Y-67898201D01*
X164183907Y-67893446D01*
X164181407Y-67912971D01*
X164184276Y-67968977D01*
X164192225Y-68050825D01*
X164203851Y-68148247D01*
X164217753Y-68250977D01*
X164232528Y-68348749D01*
X164246774Y-68431296D01*
X164259089Y-68488354D01*
X164268071Y-68509654D01*
X164280200Y-68505520D01*
X164313476Y-68480738D01*
X164315792Y-68478513D01*
X164328248Y-68467568D01*
X164334931Y-68468356D01*
X164335245Y-68487617D01*
X164328597Y-68532091D01*
X164314391Y-68608517D01*
X164292033Y-68723634D01*
X164279580Y-68782377D01*
X164265604Y-68835978D01*
X164256377Y-68856649D01*
X164253051Y-68854189D01*
X164229197Y-68824502D01*
X164188937Y-68768263D01*
X164138774Y-68694441D01*
X164099049Y-68631926D01*
X164061322Y-68562408D01*
X164047513Y-68520335D01*
X164058545Y-68509158D01*
X164095343Y-68532323D01*
X164116555Y-68545348D01*
X164130601Y-68538976D01*
X164130531Y-68537918D01*
X164123658Y-68505050D01*
X164106839Y-68435517D01*
X164081895Y-68336559D01*
X164050647Y-68215414D01*
X164014918Y-68079322D01*
X164010574Y-68062884D01*
X163975678Y-67928680D01*
X163945956Y-67810648D01*
X163923130Y-67715910D01*
X163908923Y-67651591D01*
X163905056Y-67624814D01*
X163920547Y-67626426D01*
X163968814Y-67646647D01*
X164041618Y-67682989D01*
X164130621Y-67731507D01*
X164206547Y-67773123D01*
X164282675Y-67811723D01*
X164335662Y-67834844D01*
X164357122Y-67838526D01*
X164352802Y-67813552D01*
X164333207Y-67758041D01*
X164302569Y-67685512D01*
X164270454Y-67613620D01*
X164221595Y-67502584D01*
X164176832Y-67399272D01*
X164142320Y-67318809D01*
X164103980Y-67229589D01*
X164074927Y-67162159D01*
X164037448Y-67075410D01*
X164331262Y-67075410D01*
X164406751Y-67347222D01*
G37*
G36*
X165934237Y-69087101D02*
G01*
X165926778Y-69131622D01*
X165898618Y-69192077D01*
X165893052Y-69198927D01*
X165870993Y-69216649D01*
X165835947Y-69229274D01*
X165779595Y-69238305D01*
X165693622Y-69245249D01*
X165569708Y-69251612D01*
X165510246Y-69253572D01*
X165399183Y-69255812D01*
X165251252Y-69257827D01*
X165071637Y-69259579D01*
X164865528Y-69261035D01*
X164638109Y-69262159D01*
X164394568Y-69262914D01*
X164140092Y-69263265D01*
X163879867Y-69263178D01*
X162484051Y-69261476D01*
X162439840Y-69206864D01*
X162410136Y-69155043D01*
X162395629Y-69094271D01*
X162395695Y-69092958D01*
X162408650Y-69055204D01*
X162430652Y-69008031D01*
X162696357Y-69008031D01*
X162697895Y-69008515D01*
X162731720Y-69010329D01*
X162806919Y-69012035D01*
X162919605Y-69013604D01*
X163065891Y-69015008D01*
X163241891Y-69016219D01*
X163443719Y-69017210D01*
X163667487Y-69017952D01*
X163909310Y-69018418D01*
X164165301Y-69018579D01*
X164232691Y-69018566D01*
X164485387Y-69018274D01*
X164722911Y-69017626D01*
X164941374Y-69016655D01*
X165136890Y-69015394D01*
X165305574Y-69013877D01*
X165443537Y-69012137D01*
X165546895Y-69010208D01*
X165611759Y-69008123D01*
X165634244Y-69005916D01*
X165631204Y-68998693D01*
X165608424Y-68955172D01*
X165564207Y-68874197D01*
X165499558Y-68757559D01*
X165415481Y-68607045D01*
X165312982Y-68424445D01*
X165193066Y-68211547D01*
X165056739Y-67970141D01*
X164905004Y-67702015D01*
X164738868Y-67408958D01*
X164559335Y-67092760D01*
X164508949Y-67004330D01*
X164423254Y-66855128D01*
X164346118Y-66722329D01*
X164280369Y-66610717D01*
X164228836Y-66525073D01*
X164194347Y-66470180D01*
X164179728Y-66450820D01*
X164179606Y-66450819D01*
X164175935Y-66450357D01*
X164172177Y-66451075D01*
X164166566Y-66455969D01*
X164157338Y-66468035D01*
X164142726Y-66490267D01*
X164120967Y-66525662D01*
X164090294Y-66577216D01*
X164048943Y-66647924D01*
X163995149Y-66740781D01*
X163927145Y-66858785D01*
X163843168Y-67004929D01*
X163741452Y-67182211D01*
X163620231Y-67393625D01*
X163477741Y-67642168D01*
X163412300Y-67756290D01*
X163293265Y-67963772D01*
X163180467Y-68160255D01*
X163076300Y-68341577D01*
X162983158Y-68503572D01*
X162903437Y-68642077D01*
X162839531Y-68752929D01*
X162793834Y-68831963D01*
X162768741Y-68875016D01*
X162735459Y-68932515D01*
X162707215Y-68984122D01*
X162696357Y-69008031D01*
X162430652Y-69008031D01*
X162442093Y-68983502D01*
X162493170Y-68883314D01*
X162559026Y-68760103D01*
X162636806Y-68619331D01*
X162723658Y-68466460D01*
X162733951Y-68448579D01*
X162835088Y-68272797D01*
X162951870Y-68069699D01*
X163077687Y-67850788D01*
X163205929Y-67627567D01*
X163329986Y-67411539D01*
X163443248Y-67214208D01*
X163520253Y-67079992D01*
X163636914Y-66876740D01*
X163733857Y-66708218D01*
X163813209Y-66571018D01*
X163877100Y-66461733D01*
X163927657Y-66376954D01*
X163967009Y-66313273D01*
X163997285Y-66267283D01*
X164020612Y-66235576D01*
X164039120Y-66214742D01*
X164054935Y-66201376D01*
X164070188Y-66192067D01*
X164087006Y-66183410D01*
X164096474Y-66178762D01*
X164187927Y-66158764D01*
X164273945Y-66183165D01*
X164348040Y-66250304D01*
X164349902Y-66252820D01*
X164383783Y-66303759D01*
X164433185Y-66383863D01*
X164491767Y-66482645D01*
X164553187Y-66589618D01*
X164557848Y-66597873D01*
X164618577Y-66705359D01*
X164674849Y-66804815D01*
X164720572Y-66885485D01*
X164749658Y-66936612D01*
X164765438Y-66964316D01*
X164803966Y-67032140D01*
X164858826Y-67128828D01*
X164926300Y-67247823D01*
X165002669Y-67382567D01*
X165084214Y-67526503D01*
X165100206Y-67554735D01*
X165204599Y-67739035D01*
X165320800Y-67944177D01*
X165440156Y-68154887D01*
X165554016Y-68355889D01*
X165653727Y-68531910D01*
X165700969Y-68616078D01*
X165777535Y-68756190D01*
X165841992Y-68878981D01*
X165891492Y-68978820D01*
X165903546Y-69005916D01*
X165923190Y-69050071D01*
X165934237Y-69087101D01*
G37*
X130220000Y-63570000D02*
X128820000Y-63570000D01*
X128820000Y-64970000D02*
X130220000Y-64970000D01*
X130220000Y-64970000D02*
X130220000Y-63570000D01*
X128820000Y-63570000D02*
X128820000Y-64970000D01*
X147427064Y-57530000D02*
X146972936Y-57530000D01*
X147427064Y-59000000D02*
X146972936Y-59000000D01*
X139505000Y-68008748D02*
X139505000Y-68531252D01*
X138035000Y-68008748D02*
X138035000Y-68531252D01*
X148084936Y-69950000D02*
X148539064Y-69950000D01*
X148084936Y-68480000D02*
X148539064Y-68480000D01*
X143800000Y-66565000D02*
X143800000Y-67965000D01*
X143800000Y-67965000D02*
X145200000Y-67965000D01*
X145200000Y-66565000D02*
X143800000Y-66565000D01*
X145200000Y-67965000D02*
X145200000Y-66565000D01*
X143820000Y-73470000D02*
X145220000Y-73470000D01*
X145220000Y-72070000D02*
X143820000Y-72070000D01*
X143820000Y-72070000D02*
X143820000Y-73470000D01*
X145220000Y-73470000D02*
X145220000Y-72070000D01*
X147104000Y-70547000D02*
X147104000Y-71947000D01*
X148504000Y-71947000D02*
X148504000Y-70547000D01*
X148504000Y-70547000D02*
X147104000Y-70547000D01*
X147104000Y-71947000D02*
X148504000Y-71947000D01*
X139705000Y-62720000D02*
X139705000Y-66170000D01*
X139705000Y-62720000D02*
X139705000Y-60770000D01*
X130835000Y-62720000D02*
X130835000Y-60770000D01*
X130835000Y-62720000D02*
X130835000Y-64670000D01*
X129005000Y-67792936D02*
X129005000Y-68247064D01*
X127535000Y-67792936D02*
X127535000Y-68247064D01*
X138531252Y-70285000D02*
X138008748Y-70285000D01*
X138531252Y-71755000D02*
X138008748Y-71755000D01*
X141480936Y-67918000D02*
X141935064Y-67918000D01*
X141480936Y-66448000D02*
X141935064Y-66448000D01*
X135785000Y-67992936D02*
X135785000Y-68447064D01*
X137255000Y-67992936D02*
X137255000Y-68447064D01*
X145200000Y-59405000D02*
X144400000Y-59405000D01*
X145200000Y-59405000D02*
X146000000Y-59405000D01*
X145200000Y-62525000D02*
X146000000Y-62525000D01*
X145200000Y-62525000D02*
X143400000Y-62525000D01*
X156792936Y-71285000D02*
X157247064Y-71285000D01*
X156792936Y-72755000D02*
X157247064Y-72755000D01*
X131220000Y-68720000D02*
X131220000Y-67320000D01*
X129820000Y-68720000D02*
X131220000Y-68720000D01*
X131220000Y-67320000D02*
X129820000Y-67320000D01*
X129820000Y-67320000D02*
X129820000Y-68720000D01*
X144520000Y-71580000D02*
X143870000Y-71580000D01*
X144520000Y-71580000D02*
X145170000Y-71580000D01*
X144520000Y-68460000D02*
X143870000Y-68460000D01*
X144520000Y-68460000D02*
X146195000Y-68460000D01*
X152247064Y-70755000D02*
X151792936Y-70755000D01*
X152247064Y-69285000D02*
X151792936Y-69285000D01*
X149365000Y-63561252D02*
X149365000Y-63038748D01*
X150835000Y-63561252D02*
X150835000Y-63038748D01*
X128255000Y-63747064D02*
X128255000Y-63292936D01*
X126785000Y-63747064D02*
X126785000Y-63292936D01*
X148835000Y-64137936D02*
X148835000Y-64592064D01*
X147365000Y-64137936D02*
X147365000Y-64592064D01*
X129058748Y-70141000D02*
X130481252Y-70141000D01*
X129058748Y-72861000D02*
X130481252Y-72861000D01*
X153227064Y-77005000D02*
X152772936Y-77005000D01*
X153227064Y-75535000D02*
X152772936Y-75535000D01*
X143840000Y-65089000D02*
X143840000Y-63689000D01*
X146160000Y-63689000D02*
X146160000Y-65589000D01*
M02*
