G04 #@! TF.GenerationSoftware,KiCad,Pcbnew,(5.99.0-10559-g8513ca974c)*
G04 #@! TF.CreationDate,2021-05-16T19:19:17+12:00*
G04 #@! TF.ProjectId,SafePulse,53616665-5075-46c7-9365-2e6b69636164,V1.2.2*
G04 #@! TF.SameCoordinates,Original*
G04 #@! TF.FileFunction,Copper,L2,Inr*
G04 #@! TF.FilePolarity,Positive*
%FSLAX46Y46*%
G04 Gerber Fmt 4.6, Leading zero omitted, Abs format (unit mm)*
G04 Created by KiCad (PCBNEW (5.99.0-10559-g8513ca974c)) date 2021-05-16 19:19:17*
%MOMM*%
%LPD*%
G01*
G04 APERTURE LIST*
G04 #@! TA.AperFunction,ComponentPad*
%ADD10C,1.700000*%
G04 #@! TD*
G04 #@! TA.AperFunction,ComponentPad*
%ADD11O,1.700000X1.700000*%
G04 #@! TD*
G04 #@! TA.AperFunction,ComponentPad*
%ADD12C,2.500000*%
G04 #@! TD*
G04 #@! TA.AperFunction,ComponentPad*
%ADD13C,2.800000*%
G04 #@! TD*
G04 #@! TA.AperFunction,ComponentPad*
%ADD14R,1.700000X1.700000*%
G04 #@! TD*
G04 #@! TA.AperFunction,ViaPad*
%ADD15C,0.800000*%
G04 #@! TD*
G04 APERTURE END LIST*
D10*
X164060000Y-60325000D03*
D11*
X164060000Y-62865000D03*
D12*
X164060000Y-71755000D03*
D13*
X164060000Y-75565000D03*
X138660000Y-75565000D03*
D14*
X128500000Y-75565000D03*
D11*
X131040000Y-75565000D03*
X133580000Y-75565000D03*
D15*
X149170000Y-76743500D03*
X145770000Y-72020000D03*
X145200000Y-61113817D03*
X154500000Y-68000000D03*
X146153000Y-75819000D03*
X150400000Y-70231000D03*
X150600000Y-77072500D03*
X132770000Y-72770000D03*
X141700000Y-61065000D03*
X148861441Y-61049870D03*
X138020000Y-62770000D03*
X156270000Y-75520000D03*
X150600000Y-72465000D03*
X135770000Y-70520000D03*
X130270000Y-62270000D03*
X139020000Y-57770000D03*
X133520000Y-67020000D03*
X139634500Y-72517000D03*
X135764700Y-71941100D03*
X126920900Y-69342400D03*
X148020000Y-72770000D03*
X130664198Y-66968888D03*
X152919800Y-74131600D03*
X127770000Y-67520000D03*
X140700000Y-58665000D03*
X152000000Y-67065000D03*
G04 #@! TA.AperFunction,Conductor*
G36*
X139842121Y-57195002D02*
G01*
X139888614Y-57248658D01*
X139900000Y-57301000D01*
X139900000Y-58315000D01*
X140084481Y-58315000D01*
X140152602Y-58335002D01*
X140199095Y-58388658D01*
X140209199Y-58458932D01*
X140205480Y-58476146D01*
X140173212Y-58587211D01*
X140171699Y-58731740D01*
X140209108Y-58871352D01*
X140282683Y-58995761D01*
X140387004Y-59095802D01*
X140514385Y-59164103D01*
X140522769Y-59165977D01*
X140623615Y-59188518D01*
X140655442Y-59195632D01*
X140664016Y-59195183D01*
X140664019Y-59195183D01*
X140791198Y-59188518D01*
X140791200Y-59188518D01*
X140799781Y-59188068D01*
X140936768Y-59141967D01*
X141056312Y-59060725D01*
X141149605Y-58950328D01*
X141209773Y-58818909D01*
X141232383Y-58676152D01*
X141232500Y-58665000D01*
X141212884Y-58521800D01*
X141199573Y-58491040D01*
X141190876Y-58420580D01*
X141221653Y-58356601D01*
X141282134Y-58319419D01*
X141315210Y-58315000D01*
X158214000Y-58315000D01*
X158282121Y-58335002D01*
X158328614Y-58388658D01*
X158340000Y-58441000D01*
X158340000Y-77829000D01*
X158319998Y-77897121D01*
X158266342Y-77943614D01*
X158214000Y-77955000D01*
X127774470Y-77955000D01*
X127753014Y-77952691D01*
X127752395Y-77951116D01*
X127750340Y-77950221D01*
X127673630Y-77948833D01*
X127659798Y-77948583D01*
X127652191Y-77948216D01*
X127600085Y-77944115D01*
X127590261Y-77942952D01*
X127421805Y-77916272D01*
X127412101Y-77914342D01*
X127370386Y-77904327D01*
X127360864Y-77901641D01*
X127198665Y-77848939D01*
X127189384Y-77845515D01*
X127149761Y-77829103D01*
X127140775Y-77824961D01*
X126988805Y-77747528D01*
X126980182Y-77742699D01*
X126943589Y-77720274D01*
X126935377Y-77714787D01*
X126797398Y-77614539D01*
X126789649Y-77608430D01*
X126757008Y-77580552D01*
X126749745Y-77573837D01*
X126629163Y-77453255D01*
X126622448Y-77445992D01*
X126621784Y-77445215D01*
X126594570Y-77413351D01*
X126588461Y-77405602D01*
X126488209Y-77267618D01*
X126482726Y-77259411D01*
X126460301Y-77222818D01*
X126455472Y-77214195D01*
X126378039Y-77062225D01*
X126373902Y-77053252D01*
X126357482Y-77013610D01*
X126354062Y-77004338D01*
X126301359Y-76842135D01*
X126298674Y-76832614D01*
X126288659Y-76790900D01*
X126286728Y-76781195D01*
X126260048Y-76612739D01*
X126258885Y-76602915D01*
X126254784Y-76550809D01*
X126254417Y-76543202D01*
X126253864Y-76512660D01*
X126252779Y-76452660D01*
X126251884Y-76450605D01*
X126250309Y-76449986D01*
X126248000Y-76428530D01*
X126248000Y-74715000D01*
X127517500Y-74715000D01*
X127517500Y-76415000D01*
X127518707Y-76421068D01*
X127524279Y-76449078D01*
X127527586Y-76465706D01*
X127556308Y-76508692D01*
X127566624Y-76515585D01*
X127572653Y-76519613D01*
X127599294Y-76537414D01*
X127611463Y-76539835D01*
X127611464Y-76539835D01*
X127628392Y-76543202D01*
X127650000Y-76547500D01*
X129350000Y-76547500D01*
X129371608Y-76543202D01*
X129388536Y-76539835D01*
X129388537Y-76539835D01*
X129400706Y-76537414D01*
X129427347Y-76519613D01*
X129433376Y-76515585D01*
X129443692Y-76508692D01*
X129472414Y-76465706D01*
X129475722Y-76449078D01*
X129481293Y-76421068D01*
X129482500Y-76415000D01*
X129482500Y-75660875D01*
X130062189Y-75660875D01*
X130101439Y-75855533D01*
X130179029Y-76038323D01*
X130291789Y-76201778D01*
X130435113Y-76339221D01*
X130603146Y-76445037D01*
X130609120Y-76447282D01*
X130609121Y-76447283D01*
X130722274Y-76489814D01*
X130789025Y-76514904D01*
X130795323Y-76515902D01*
X130795325Y-76515902D01*
X130818756Y-76519613D01*
X130985155Y-76545968D01*
X131183527Y-76536960D01*
X131208974Y-76530521D01*
X131369847Y-76489814D01*
X131369849Y-76489813D01*
X131376035Y-76488248D01*
X131401326Y-76476022D01*
X131549068Y-76404601D01*
X131549070Y-76404600D01*
X131554816Y-76401822D01*
X131559885Y-76397946D01*
X131559889Y-76397944D01*
X131679835Y-76306238D01*
X131712568Y-76281212D01*
X131823584Y-76153502D01*
X131838657Y-76136163D01*
X131838658Y-76136162D01*
X131842845Y-76131345D01*
X131940326Y-75958343D01*
X131997607Y-75779934D01*
X132037475Y-75721189D01*
X132102775Y-75693324D01*
X132172774Y-75705186D01*
X132225247Y-75753010D01*
X132241972Y-75798415D01*
X132256639Y-75889472D01*
X132259212Y-75899793D01*
X132330230Y-76107810D01*
X132334497Y-76117533D01*
X132439556Y-76310625D01*
X132445402Y-76319491D01*
X132581486Y-76492113D01*
X132588750Y-76499875D01*
X132751967Y-76647094D01*
X132760444Y-76653528D01*
X132946122Y-76771136D01*
X132955567Y-76776053D01*
X133158406Y-76860694D01*
X133168545Y-76863950D01*
X133308345Y-76896096D01*
X133322422Y-76895257D01*
X133326000Y-76885999D01*
X133326000Y-75832548D01*
X133834000Y-75832548D01*
X133834000Y-76884941D01*
X133838151Y-76899079D01*
X133848798Y-76900774D01*
X133852192Y-76900096D01*
X134063333Y-76838954D01*
X134073259Y-76835143D01*
X134271065Y-76739307D01*
X134280212Y-76733876D01*
X134459041Y-76606083D01*
X134467149Y-76599182D01*
X134621893Y-76443082D01*
X134628706Y-76434933D01*
X134754940Y-76254988D01*
X134760295Y-76245787D01*
X134854399Y-76047156D01*
X134858123Y-76037197D01*
X134915968Y-75830718D01*
X134914430Y-75822351D01*
X134902137Y-75819000D01*
X133852115Y-75819000D01*
X133836876Y-75823475D01*
X133835671Y-75824865D01*
X133834000Y-75832548D01*
X133326000Y-75832548D01*
X133326000Y-75671902D01*
X137131233Y-75671902D01*
X137131990Y-75676905D01*
X137131990Y-75676910D01*
X137158058Y-75849274D01*
X137167990Y-75914948D01*
X137169536Y-75919764D01*
X137169537Y-75919767D01*
X137219119Y-76074195D01*
X137243133Y-76148990D01*
X137354728Y-76368008D01*
X137499905Y-76566367D01*
X137674928Y-76738963D01*
X137679053Y-76741895D01*
X137679056Y-76741897D01*
X137734354Y-76781195D01*
X137875294Y-76881356D01*
X137879830Y-76883588D01*
X138091308Y-76987648D01*
X138091313Y-76987650D01*
X138095849Y-76989882D01*
X138100693Y-76991363D01*
X138326070Y-77060268D01*
X138326072Y-77060268D01*
X138330918Y-77061750D01*
X138335939Y-77062438D01*
X138335940Y-77062438D01*
X138530616Y-77089105D01*
X138574454Y-77095110D01*
X138646742Y-77093344D01*
X138815129Y-77089229D01*
X138815133Y-77089229D01*
X138820190Y-77089105D01*
X139061805Y-77043888D01*
X139293083Y-76960623D01*
X139508073Y-76841452D01*
X139519759Y-76832256D01*
X139547736Y-76810240D01*
X148641699Y-76810240D01*
X148679108Y-76949852D01*
X148683479Y-76957243D01*
X148734721Y-77043888D01*
X148752683Y-77074261D01*
X148857004Y-77174302D01*
X148984385Y-77242603D01*
X148992769Y-77244477D01*
X149102818Y-77269075D01*
X149125442Y-77274132D01*
X149134016Y-77273683D01*
X149134019Y-77273683D01*
X149261198Y-77267018D01*
X149261200Y-77267018D01*
X149269781Y-77266568D01*
X149406768Y-77220467D01*
X149526312Y-77139225D01*
X149619605Y-77028828D01*
X149626573Y-77013610D01*
X149650832Y-76960623D01*
X149679773Y-76897409D01*
X149702383Y-76754652D01*
X149702500Y-76743500D01*
X149682884Y-76600300D01*
X149670261Y-76571129D01*
X149628892Y-76475533D01*
X149628892Y-76475532D01*
X149625481Y-76467651D01*
X149534521Y-76355324D01*
X149511862Y-76339221D01*
X149423706Y-76276572D01*
X149423704Y-76276571D01*
X149416705Y-76271597D01*
X149408628Y-76268689D01*
X149408626Y-76268688D01*
X149288796Y-76225546D01*
X149288795Y-76225546D01*
X149280713Y-76222636D01*
X149136564Y-76212051D01*
X148994879Y-76240620D01*
X148866095Y-76306238D01*
X148859775Y-76312050D01*
X148859773Y-76312051D01*
X148803818Y-76363505D01*
X148759702Y-76404072D01*
X148755179Y-76411367D01*
X148755178Y-76411368D01*
X148690364Y-76515902D01*
X148683537Y-76526913D01*
X148643212Y-76665711D01*
X148643122Y-76674297D01*
X148643122Y-76674298D01*
X148642931Y-76692565D01*
X148641699Y-76810240D01*
X139547736Y-76810240D01*
X139697275Y-76692565D01*
X139697280Y-76692560D01*
X139701244Y-76689441D01*
X139838813Y-76539835D01*
X139864202Y-76512225D01*
X139864204Y-76512222D01*
X139867626Y-76508501D01*
X139880981Y-76488248D01*
X139906727Y-76449201D01*
X140002940Y-76303288D01*
X140011118Y-76285091D01*
X140101629Y-76083696D01*
X140101631Y-76083691D01*
X140103703Y-76079080D01*
X140112257Y-76047156D01*
X140166015Y-75846528D01*
X140166015Y-75846527D01*
X140167323Y-75841646D01*
X140192164Y-75597094D01*
X140192500Y-75565000D01*
X140182043Y-75435029D01*
X140173192Y-75325024D01*
X140173191Y-75325020D01*
X140172786Y-75319982D01*
X140170170Y-75309329D01*
X140115359Y-75086182D01*
X140114152Y-75081268D01*
X140079415Y-74999431D01*
X140020083Y-74859654D01*
X140020083Y-74859653D01*
X140018107Y-74854999D01*
X139887121Y-74646996D01*
X139724564Y-74462612D01*
X139534619Y-74306589D01*
X139348628Y-74198340D01*
X152391499Y-74198340D01*
X152428908Y-74337952D01*
X152502483Y-74462361D01*
X152606804Y-74562402D01*
X152734185Y-74630703D01*
X152742569Y-74632577D01*
X152843415Y-74655118D01*
X152875242Y-74662232D01*
X152883816Y-74661783D01*
X152883819Y-74661783D01*
X153010998Y-74655118D01*
X153011000Y-74655118D01*
X153019581Y-74654668D01*
X153156568Y-74608567D01*
X153276112Y-74527325D01*
X153369405Y-74416928D01*
X153375243Y-74404178D01*
X153420851Y-74304559D01*
X153429573Y-74285509D01*
X153452183Y-74142752D01*
X153452300Y-74131600D01*
X153432684Y-73988400D01*
X153375281Y-73855751D01*
X153284321Y-73743424D01*
X153166505Y-73659697D01*
X153158428Y-73656789D01*
X153158426Y-73656788D01*
X153038596Y-73613646D01*
X153038595Y-73613646D01*
X153030513Y-73610736D01*
X152886364Y-73600151D01*
X152744679Y-73628720D01*
X152615895Y-73694338D01*
X152609575Y-73700150D01*
X152609573Y-73700151D01*
X152515820Y-73786362D01*
X152509502Y-73792172D01*
X152504979Y-73799467D01*
X152504978Y-73799468D01*
X152470081Y-73855751D01*
X152433337Y-73915013D01*
X152393012Y-74053811D01*
X152391499Y-74198340D01*
X139348628Y-74198340D01*
X139322171Y-74182942D01*
X139317448Y-74181129D01*
X139317446Y-74181128D01*
X139097408Y-74096663D01*
X139097410Y-74096663D01*
X139092688Y-74094851D01*
X139087742Y-74093818D01*
X139087736Y-74093816D01*
X138896240Y-74053811D01*
X138852073Y-74044584D01*
X138847025Y-74044355D01*
X138847019Y-74044354D01*
X138729295Y-74039009D01*
X138606517Y-74033434D01*
X138601496Y-74034015D01*
X138601493Y-74034015D01*
X138367363Y-74061104D01*
X138367358Y-74061105D01*
X138362336Y-74061686D01*
X138357472Y-74063062D01*
X138357469Y-74063063D01*
X138245133Y-74094851D01*
X138125813Y-74128615D01*
X138121234Y-74130750D01*
X138121232Y-74130751D01*
X138105397Y-74138135D01*
X137903034Y-74232499D01*
X137898853Y-74235340D01*
X137898852Y-74235341D01*
X137703917Y-74367819D01*
X137703913Y-74367822D01*
X137699730Y-74370665D01*
X137521131Y-74539557D01*
X137518053Y-74543583D01*
X137518052Y-74543584D01*
X137374910Y-74730806D01*
X137371832Y-74734832D01*
X137255674Y-74951465D01*
X137254028Y-74956246D01*
X137254026Y-74956250D01*
X137179897Y-75171537D01*
X137175646Y-75183883D01*
X137133807Y-75426106D01*
X137131233Y-75671902D01*
X133326000Y-75671902D01*
X133326000Y-74248717D01*
X133325328Y-74246430D01*
X133834000Y-74246430D01*
X133834000Y-75292885D01*
X133838475Y-75308124D01*
X133839865Y-75309329D01*
X133847548Y-75311000D01*
X134899079Y-75311000D01*
X134912610Y-75307027D01*
X134913876Y-75298218D01*
X134866954Y-75117433D01*
X134863419Y-75107395D01*
X134773147Y-74906998D01*
X134767967Y-74897692D01*
X134645218Y-74715366D01*
X134638557Y-74707080D01*
X134486830Y-74548030D01*
X134478873Y-74540990D01*
X134302523Y-74409782D01*
X134293486Y-74404178D01*
X134097550Y-74304559D01*
X134087699Y-74300559D01*
X133877778Y-74235378D01*
X133867396Y-74233095D01*
X133851959Y-74231049D01*
X133837792Y-74233246D01*
X133834000Y-74246430D01*
X133325328Y-74246430D01*
X133322027Y-74235186D01*
X133311420Y-74233661D01*
X133193554Y-74258391D01*
X133183358Y-74261451D01*
X132978932Y-74342182D01*
X132969396Y-74346916D01*
X132781486Y-74460942D01*
X132772896Y-74467206D01*
X132606884Y-74611264D01*
X132599464Y-74618895D01*
X132460100Y-74788860D01*
X132454075Y-74797627D01*
X132345342Y-74988644D01*
X132340877Y-74998308D01*
X132265882Y-75204916D01*
X132263111Y-75215184D01*
X132241381Y-75335351D01*
X132209576Y-75398826D01*
X132148504Y-75435029D01*
X132077553Y-75432466D01*
X132019251Y-75391952D01*
X131997158Y-75350609D01*
X131944960Y-75184046D01*
X131944959Y-75184044D01*
X131943050Y-75177952D01*
X131886877Y-75076612D01*
X131849872Y-75009854D01*
X131846779Y-75004274D01*
X131717551Y-74853501D01*
X131570319Y-74739296D01*
X131565690Y-74735705D01*
X131565687Y-74735703D01*
X131560646Y-74731793D01*
X131554920Y-74728975D01*
X131554916Y-74728973D01*
X131388204Y-74646940D01*
X131388200Y-74646938D01*
X131382472Y-74644120D01*
X131190309Y-74594066D01*
X131102609Y-74589470D01*
X130998387Y-74584007D01*
X130998382Y-74584007D01*
X130992005Y-74583673D01*
X130859338Y-74603737D01*
X130801976Y-74612412D01*
X130801975Y-74612412D01*
X130795662Y-74613367D01*
X130789676Y-74615570D01*
X130789670Y-74615571D01*
X130714573Y-74643202D01*
X130609300Y-74681935D01*
X130603884Y-74685293D01*
X130603880Y-74685295D01*
X130445955Y-74783212D01*
X130445951Y-74783215D01*
X130440532Y-74786575D01*
X130296252Y-74923014D01*
X130292590Y-74928244D01*
X130292589Y-74928245D01*
X130239353Y-75004274D01*
X130182354Y-75085678D01*
X130103490Y-75267922D01*
X130102185Y-75274169D01*
X130070444Y-75426106D01*
X130062882Y-75462301D01*
X130062860Y-75468689D01*
X130062412Y-75597094D01*
X130062189Y-75660875D01*
X129482500Y-75660875D01*
X129482500Y-74715000D01*
X129480925Y-74707080D01*
X129474835Y-74676464D01*
X129474835Y-74676463D01*
X129472414Y-74664294D01*
X129443692Y-74621308D01*
X129431808Y-74613367D01*
X129411022Y-74599479D01*
X129411023Y-74599479D01*
X129400706Y-74592586D01*
X129388537Y-74590165D01*
X129388536Y-74590165D01*
X129356068Y-74583707D01*
X129350000Y-74582500D01*
X127650000Y-74582500D01*
X127643932Y-74583707D01*
X127611464Y-74590165D01*
X127611463Y-74590165D01*
X127599294Y-74592586D01*
X127588977Y-74599479D01*
X127588978Y-74599479D01*
X127568193Y-74613367D01*
X127556308Y-74621308D01*
X127527586Y-74664294D01*
X127525165Y-74676463D01*
X127525165Y-74676464D01*
X127519075Y-74707080D01*
X127517500Y-74715000D01*
X126248000Y-74715000D01*
X126248000Y-72583740D01*
X139106199Y-72583740D01*
X139143608Y-72723352D01*
X139217183Y-72847761D01*
X139321504Y-72947802D01*
X139448885Y-73016103D01*
X139457269Y-73017977D01*
X139558115Y-73040518D01*
X139589942Y-73047632D01*
X139598516Y-73047183D01*
X139598519Y-73047183D01*
X139725698Y-73040518D01*
X139725700Y-73040518D01*
X139734281Y-73040068D01*
X139871268Y-72993967D01*
X139990812Y-72912725D01*
X140055025Y-72836740D01*
X147491699Y-72836740D01*
X147529108Y-72976352D01*
X147602683Y-73100761D01*
X147707004Y-73200802D01*
X147834385Y-73269103D01*
X147842769Y-73270977D01*
X147943615Y-73293518D01*
X147975442Y-73300632D01*
X147984016Y-73300183D01*
X147984019Y-73300183D01*
X148111198Y-73293518D01*
X148111200Y-73293518D01*
X148119781Y-73293068D01*
X148256768Y-73246967D01*
X148376312Y-73165725D01*
X148469605Y-73055328D01*
X148477847Y-73037327D01*
X148518834Y-72947802D01*
X148529773Y-72923909D01*
X148552383Y-72781152D01*
X148552500Y-72770000D01*
X148532884Y-72626800D01*
X148499729Y-72550183D01*
X148478892Y-72502033D01*
X148478892Y-72502032D01*
X148475481Y-72494151D01*
X148384521Y-72381824D01*
X148373230Y-72373800D01*
X148273706Y-72303072D01*
X148273704Y-72303071D01*
X148266705Y-72298097D01*
X148258628Y-72295189D01*
X148258626Y-72295188D01*
X148138796Y-72252046D01*
X148138795Y-72252046D01*
X148130713Y-72249136D01*
X147986564Y-72238551D01*
X147844879Y-72267120D01*
X147716095Y-72332738D01*
X147709775Y-72338550D01*
X147709773Y-72338551D01*
X147620321Y-72420807D01*
X147609702Y-72430572D01*
X147605179Y-72437867D01*
X147605178Y-72437868D01*
X147539951Y-72543068D01*
X147533537Y-72553413D01*
X147493212Y-72692211D01*
X147491699Y-72836740D01*
X140055025Y-72836740D01*
X140084105Y-72802328D01*
X140144273Y-72670909D01*
X140166883Y-72528152D01*
X140167000Y-72517000D01*
X140147384Y-72373800D01*
X140139989Y-72356710D01*
X140093392Y-72249033D01*
X140093392Y-72249032D01*
X140089981Y-72241151D01*
X139999021Y-72128824D01*
X139992018Y-72123847D01*
X139939803Y-72086740D01*
X145241699Y-72086740D01*
X145279108Y-72226352D01*
X145352683Y-72350761D01*
X145457004Y-72450802D01*
X145464580Y-72454864D01*
X145464581Y-72454865D01*
X145492545Y-72469859D01*
X145584385Y-72519103D01*
X145592769Y-72520977D01*
X145705225Y-72546113D01*
X145725442Y-72550632D01*
X145734016Y-72550183D01*
X145734019Y-72550183D01*
X145861198Y-72543518D01*
X145861200Y-72543518D01*
X145869781Y-72543068D01*
X146006768Y-72496967D01*
X146104465Y-72430572D01*
X146119208Y-72420553D01*
X146119209Y-72420552D01*
X146126312Y-72415725D01*
X146161742Y-72373800D01*
X146214062Y-72311887D01*
X146219605Y-72305328D01*
X146224248Y-72295188D01*
X146259560Y-72218058D01*
X146279773Y-72173909D01*
X146302383Y-72031152D01*
X146302500Y-72020000D01*
X146282884Y-71876800D01*
X146225481Y-71744151D01*
X146134521Y-71631824D01*
X146127518Y-71626847D01*
X146023706Y-71553072D01*
X146023704Y-71553071D01*
X146016705Y-71548097D01*
X146008628Y-71545189D01*
X146008626Y-71545188D01*
X145888796Y-71502046D01*
X145888795Y-71502046D01*
X145880713Y-71499136D01*
X145736564Y-71488551D01*
X145594879Y-71517120D01*
X145466095Y-71582738D01*
X145459775Y-71588550D01*
X145459773Y-71588551D01*
X145383620Y-71658578D01*
X145359702Y-71680572D01*
X145355179Y-71687867D01*
X145355178Y-71687868D01*
X145320281Y-71744151D01*
X145283537Y-71803413D01*
X145243212Y-71942211D01*
X145243122Y-71950797D01*
X145243122Y-71950798D01*
X145242654Y-71995507D01*
X145241699Y-72086740D01*
X139939803Y-72086740D01*
X139888206Y-72050072D01*
X139888204Y-72050071D01*
X139881205Y-72045097D01*
X139873128Y-72042189D01*
X139873126Y-72042188D01*
X139753296Y-71999046D01*
X139753295Y-71999046D01*
X139745213Y-71996136D01*
X139601064Y-71985551D01*
X139459379Y-72014120D01*
X139330595Y-72079738D01*
X139324275Y-72085550D01*
X139324273Y-72085551D01*
X139230520Y-72171762D01*
X139224202Y-72177572D01*
X139219679Y-72184867D01*
X139219678Y-72184868D01*
X139152563Y-72293113D01*
X139148037Y-72300413D01*
X139107712Y-72439211D01*
X139107622Y-72447797D01*
X139107622Y-72447798D01*
X139107207Y-72487478D01*
X139106199Y-72583740D01*
X126248000Y-72583740D01*
X126248000Y-72007840D01*
X135236399Y-72007840D01*
X135273808Y-72147452D01*
X135278179Y-72154843D01*
X135333944Y-72249136D01*
X135347383Y-72271861D01*
X135451704Y-72371902D01*
X135579085Y-72440203D01*
X135587469Y-72442077D01*
X135688315Y-72464618D01*
X135720142Y-72471732D01*
X135728716Y-72471283D01*
X135728719Y-72471283D01*
X135855898Y-72464618D01*
X135855900Y-72464618D01*
X135864481Y-72464168D01*
X136001468Y-72418067D01*
X136121012Y-72336825D01*
X136214305Y-72226428D01*
X136274473Y-72095009D01*
X136297083Y-71952252D01*
X136297200Y-71941100D01*
X136277584Y-71797900D01*
X136257736Y-71752033D01*
X136223592Y-71673133D01*
X136223592Y-71673132D01*
X136220181Y-71665251D01*
X136129221Y-71552924D01*
X136122218Y-71547947D01*
X136018406Y-71474172D01*
X136018404Y-71474171D01*
X136011405Y-71469197D01*
X136003328Y-71466289D01*
X136003326Y-71466288D01*
X135883496Y-71423146D01*
X135883495Y-71423146D01*
X135875413Y-71420236D01*
X135731264Y-71409651D01*
X135589579Y-71438220D01*
X135460795Y-71503838D01*
X135454475Y-71509650D01*
X135454473Y-71509651D01*
X135374992Y-71582738D01*
X135354402Y-71601672D01*
X135349879Y-71608967D01*
X135349878Y-71608968D01*
X135300958Y-71687868D01*
X135278237Y-71724513D01*
X135237912Y-71863311D01*
X135236399Y-72007840D01*
X126248000Y-72007840D01*
X126248000Y-69701573D01*
X126268002Y-69633452D01*
X126321658Y-69586959D01*
X126391932Y-69576855D01*
X126456512Y-69606349D01*
X126482453Y-69637434D01*
X126499205Y-69665760D01*
X126499209Y-69665765D01*
X126503583Y-69673161D01*
X126607904Y-69773202D01*
X126735285Y-69841503D01*
X126743669Y-69843377D01*
X126844515Y-69865918D01*
X126876342Y-69873032D01*
X126884916Y-69872583D01*
X126884919Y-69872583D01*
X127012098Y-69865918D01*
X127012100Y-69865918D01*
X127020681Y-69865468D01*
X127157668Y-69819367D01*
X127277212Y-69738125D01*
X127370505Y-69627728D01*
X127389171Y-69586959D01*
X127427098Y-69504117D01*
X127430673Y-69496309D01*
X127453283Y-69353552D01*
X127453400Y-69342400D01*
X127433784Y-69199200D01*
X127389961Y-69097931D01*
X127379792Y-69074433D01*
X127379792Y-69074432D01*
X127376381Y-69066551D01*
X127285421Y-68954224D01*
X127167605Y-68870497D01*
X127159528Y-68867589D01*
X127159526Y-68867588D01*
X127039696Y-68824446D01*
X127039695Y-68824446D01*
X127031613Y-68821536D01*
X126887464Y-68810951D01*
X126745779Y-68839520D01*
X126616995Y-68905138D01*
X126610675Y-68910950D01*
X126610673Y-68910951D01*
X126531039Y-68984179D01*
X126510602Y-69002972D01*
X126506079Y-69010267D01*
X126506078Y-69010268D01*
X126481086Y-69050576D01*
X126428190Y-69097931D01*
X126358089Y-69109170D01*
X126293039Y-69080726D01*
X126253694Y-69021629D01*
X126248000Y-68984179D01*
X126248000Y-67586740D01*
X127241699Y-67586740D01*
X127279108Y-67726352D01*
X127352683Y-67850761D01*
X127457004Y-67950802D01*
X127584385Y-68019103D01*
X127592769Y-68020977D01*
X127693615Y-68043518D01*
X127725442Y-68050632D01*
X127734016Y-68050183D01*
X127734019Y-68050183D01*
X127861198Y-68043518D01*
X127861200Y-68043518D01*
X127869781Y-68043068D01*
X128006768Y-67996967D01*
X128126312Y-67915725D01*
X128219605Y-67805328D01*
X128279773Y-67673909D01*
X128302383Y-67531152D01*
X128302500Y-67520000D01*
X128282884Y-67376800D01*
X128271429Y-67350328D01*
X128228892Y-67252033D01*
X128228892Y-67252032D01*
X128225481Y-67244151D01*
X128134521Y-67131824D01*
X128121819Y-67122797D01*
X128023706Y-67053072D01*
X128023704Y-67053071D01*
X128016705Y-67048097D01*
X128008628Y-67045189D01*
X128008626Y-67045188D01*
X127982072Y-67035628D01*
X130135897Y-67035628D01*
X130173306Y-67175240D01*
X130246881Y-67299649D01*
X130351202Y-67399690D01*
X130358778Y-67403752D01*
X130358779Y-67403753D01*
X130381107Y-67415725D01*
X130478583Y-67467991D01*
X130486967Y-67469865D01*
X130587813Y-67492406D01*
X130619640Y-67499520D01*
X130628214Y-67499071D01*
X130628217Y-67499071D01*
X130755396Y-67492406D01*
X130755398Y-67492406D01*
X130763979Y-67491956D01*
X130900966Y-67445855D01*
X130985560Y-67388365D01*
X131013406Y-67369441D01*
X131013407Y-67369440D01*
X131020510Y-67364613D01*
X131113803Y-67254216D01*
X131173971Y-67122797D01*
X131179682Y-67086740D01*
X132991699Y-67086740D01*
X133029108Y-67226352D01*
X133102683Y-67350761D01*
X133207004Y-67450802D01*
X133214580Y-67454864D01*
X133214581Y-67454865D01*
X133239061Y-67467991D01*
X133334385Y-67519103D01*
X133342769Y-67520977D01*
X133443615Y-67543518D01*
X133475442Y-67550632D01*
X133484016Y-67550183D01*
X133484019Y-67550183D01*
X133611198Y-67543518D01*
X133611200Y-67543518D01*
X133619781Y-67543068D01*
X133756768Y-67496967D01*
X133807107Y-67462757D01*
X133869208Y-67420553D01*
X133869209Y-67420552D01*
X133876312Y-67415725D01*
X133969605Y-67305328D01*
X133981777Y-67278743D01*
X134026198Y-67181717D01*
X134029773Y-67173909D01*
X134036452Y-67131740D01*
X151471699Y-67131740D01*
X151509108Y-67271352D01*
X151582683Y-67395761D01*
X151687004Y-67495802D01*
X151814385Y-67564103D01*
X151822769Y-67565977D01*
X151923615Y-67588518D01*
X151955442Y-67595632D01*
X151964016Y-67595183D01*
X151964019Y-67595183D01*
X152091198Y-67588518D01*
X152091200Y-67588518D01*
X152099781Y-67588068D01*
X152236768Y-67541967D01*
X152342863Y-67469865D01*
X152349208Y-67465553D01*
X152349209Y-67465552D01*
X152356312Y-67460725D01*
X152449605Y-67350328D01*
X152509773Y-67218909D01*
X152532383Y-67076152D01*
X152532500Y-67065000D01*
X152512884Y-66921800D01*
X152499599Y-66891099D01*
X152458892Y-66797033D01*
X152458892Y-66797032D01*
X152455481Y-66789151D01*
X152364521Y-66676824D01*
X152303630Y-66633551D01*
X152253706Y-66598072D01*
X152253704Y-66598071D01*
X152246705Y-66593097D01*
X152238628Y-66590189D01*
X152238626Y-66590188D01*
X152118796Y-66547046D01*
X152118795Y-66547046D01*
X152110713Y-66544136D01*
X151966564Y-66533551D01*
X151824879Y-66562120D01*
X151696095Y-66627738D01*
X151689775Y-66633550D01*
X151689773Y-66633551D01*
X151596020Y-66719762D01*
X151589702Y-66725572D01*
X151585179Y-66732867D01*
X151585178Y-66732868D01*
X151545394Y-66797033D01*
X151513537Y-66848413D01*
X151473212Y-66987211D01*
X151471699Y-67131740D01*
X134036452Y-67131740D01*
X134052383Y-67031152D01*
X134052500Y-67020000D01*
X134032884Y-66876800D01*
X134007354Y-66817803D01*
X133978892Y-66752033D01*
X133978892Y-66752032D01*
X133975481Y-66744151D01*
X133884521Y-66631824D01*
X133830027Y-66593097D01*
X133773706Y-66553072D01*
X133773704Y-66553071D01*
X133766705Y-66548097D01*
X133758628Y-66545189D01*
X133758626Y-66545188D01*
X133638796Y-66502046D01*
X133638795Y-66502046D01*
X133630713Y-66499136D01*
X133486564Y-66488551D01*
X133344879Y-66517120D01*
X133216095Y-66582738D01*
X133209775Y-66588550D01*
X133209773Y-66588551D01*
X133119190Y-66671847D01*
X133109702Y-66680572D01*
X133105179Y-66687867D01*
X133105178Y-66687868D01*
X133070281Y-66744151D01*
X133033537Y-66803413D01*
X132993212Y-66942211D01*
X132991699Y-67086740D01*
X131179682Y-67086740D01*
X131196581Y-66980040D01*
X131196698Y-66968888D01*
X131177082Y-66825688D01*
X131141798Y-66744151D01*
X131123090Y-66700921D01*
X131123090Y-66700920D01*
X131119679Y-66693039D01*
X131028719Y-66580712D01*
X131008044Y-66566019D01*
X130917904Y-66501960D01*
X130917902Y-66501959D01*
X130910903Y-66496985D01*
X130902826Y-66494077D01*
X130902824Y-66494076D01*
X130782994Y-66450934D01*
X130782993Y-66450934D01*
X130774911Y-66448024D01*
X130630762Y-66437439D01*
X130489077Y-66466008D01*
X130360293Y-66531626D01*
X130353973Y-66537438D01*
X130353971Y-66537439D01*
X130293444Y-66593097D01*
X130253900Y-66629460D01*
X130249377Y-66636755D01*
X130249376Y-66636756D01*
X130182788Y-66744151D01*
X130177735Y-66752301D01*
X130137410Y-66891099D01*
X130135897Y-67035628D01*
X127982072Y-67035628D01*
X127888796Y-67002046D01*
X127888795Y-67002046D01*
X127880713Y-66999136D01*
X127736564Y-66988551D01*
X127594879Y-67017120D01*
X127466095Y-67082738D01*
X127459775Y-67088550D01*
X127459773Y-67088551D01*
X127403782Y-67140038D01*
X127359702Y-67180572D01*
X127355179Y-67187867D01*
X127355178Y-67187868D01*
X127288063Y-67296113D01*
X127283537Y-67303413D01*
X127243212Y-67442211D01*
X127243122Y-67450797D01*
X127243122Y-67450798D01*
X127242651Y-67495802D01*
X127241699Y-67586740D01*
X126248000Y-67586740D01*
X126248000Y-58701470D01*
X126250309Y-58680014D01*
X126251884Y-58679395D01*
X126252779Y-58677340D01*
X126254254Y-58595798D01*
X126254417Y-58586798D01*
X126254784Y-58579191D01*
X126258885Y-58527085D01*
X126260048Y-58517261D01*
X126286728Y-58348805D01*
X126288659Y-58339100D01*
X126298674Y-58297386D01*
X126301359Y-58287865D01*
X126354062Y-58125662D01*
X126357486Y-58116380D01*
X126373902Y-58076748D01*
X126378039Y-58067775D01*
X126455472Y-57915805D01*
X126460306Y-57907173D01*
X126482726Y-57870589D01*
X126488213Y-57862377D01*
X126489268Y-57860925D01*
X126588461Y-57724398D01*
X126594570Y-57716649D01*
X126622448Y-57684008D01*
X126629163Y-57676745D01*
X126749745Y-57556163D01*
X126757008Y-57549448D01*
X126757785Y-57548784D01*
X126789649Y-57521570D01*
X126797398Y-57515461D01*
X126935382Y-57415209D01*
X126943589Y-57409726D01*
X126980182Y-57387301D01*
X126988805Y-57382472D01*
X127140775Y-57305039D01*
X127149761Y-57300897D01*
X127189384Y-57284485D01*
X127198665Y-57281061D01*
X127360864Y-57228359D01*
X127370386Y-57225673D01*
X127412101Y-57215658D01*
X127421805Y-57213728D01*
X127590261Y-57187048D01*
X127600085Y-57185885D01*
X127652191Y-57181784D01*
X127659798Y-57181417D01*
X127673630Y-57181167D01*
X127750340Y-57179779D01*
X127752395Y-57178884D01*
X127753014Y-57177309D01*
X127774470Y-57175000D01*
X139774000Y-57175000D01*
X139842121Y-57195002D01*
G37*
G04 #@! TD.AperFunction*
M02*
