<?xml version="1.0" standalone="no"?>
 <!DOCTYPE svg PUBLIC "-//W3C//DTD SVG 1.1//EN" 
 "http://www.w3.org/Graphics/SVG/1.1/DTD/svg11.dtd"> 
<svg
  xmlns:svg="http://www.w3.org/2000/svg"
  xmlns="http://www.w3.org/2000/svg"
  xmlns:xlink="http://www.w3.org/1999/xlink"
  version="1.1"
  width="29.700220cm" height="21.000720cm" viewBox="0 0 297002200 210007200">
<title>SVG Picture created as OpenHVPS-5-In1_Cu.svg date 2021/04/25 21:02:59 </title>
  <desc>Picture generated by PCBNEW </desc>
<g style="fill:#000000; fill-opacity:1.000000;stroke:#000000; stroke-opacity:1.000000;
stroke-linecap:round; stroke-linejoin:round;"
 transform="translate(0 0) scale(1 1)">
</g>
<g style="fill:#000000; fill-opacity:0.0; 
stroke:#000000; stroke-width:0.000000; stroke-opacity:1; 
stroke-linecap:round; stroke-linejoin:round;">
<g >
</g>
<g >
</g>
<g >
</g>
<g style="fill:#000000; fill-opacity:0.0; 
stroke:#000000; stroke-width:0.000000; stroke-opacity:1; 
stroke-linecap:round; stroke-linejoin:round;">
</g>
<g style="fill:#000000; fill-opacity:0.0; 
stroke:#000000; stroke-width:1.000000; stroke-opacity:1; 
stroke-linecap:round; stroke-linejoin:round;">
</g>
<g style="fill:#000000; fill-opacity:1.0; 
stroke:#000000; stroke-width:1.000000; stroke-opacity:1; 
stroke-linecap:round; stroke-linejoin:round;">
<path style="fill:#000000; fill-opacity:1.0; 
stroke:#000000; stroke-width:1.000000; stroke-opacity:1; 
stroke-linecap:round; stroke-linejoin:round;fill-rule:evenodd;"
d="M 163210001.000000,61174999.000000
163210001.000000,59475001.000000
164909999.000000,59475001.000000
164909999.000000,61174999.000000
Z" /> 
<circle cx="164060000.000000" cy="62865000.000000" r="850000.000000" /> 
</g>
<g >
</g>
<g >
</g>
<g style="fill:#000000; fill-opacity:1.0; 
stroke:#000000; stroke-width:1.000000; stroke-opacity:1; 
stroke-linecap:round; stroke-linejoin:round;">
<circle cx="164060000.000000" cy="71755000.000000" r="1250000.000000" /> 
</g>
<g style="fill:#000000; fill-opacity:1.0; 
stroke:#000000; stroke-width:21200.000000; stroke-opacity:1; 
stroke-linecap:round; stroke-linejoin:round;">
</g>
<g >
</g>
<g style="fill:#000000; fill-opacity:1.0; 
stroke:#000000; stroke-width:21200.000000; stroke-opacity:1; 
stroke-linecap:round; stroke-linejoin:round;">
</g>
<g style="fill:#000000; fill-opacity:1.0; 
stroke:#000000; stroke-width:1.000000; stroke-opacity:1; 
stroke-linecap:round; stroke-linejoin:round;">
<circle cx="164060000.000000" cy="75565000.000000" r="1400000.000000" /> 
</g>
<g style="fill:#000000; fill-opacity:1.0; 
stroke:#000000; stroke-width:21200.000000; stroke-opacity:1; 
stroke-linecap:round; stroke-linejoin:round;">
</g>
<g >
</g>
<g >
</g>
<g >
</g>
<g >
</g>
<g >
</g>
<g >
</g>
<g >
</g>
<g >
</g>
<g >
</g>
<g >
</g>
<g >
</g>
<g >
</g>
<g >
</g>
<g >
</g>
<g style="fill:#000000; fill-opacity:1.0; 
stroke:#000000; stroke-width:21200.000000; stroke-opacity:1; 
stroke-linecap:round; stroke-linejoin:round;">
</g>
<g style="fill:#000000; fill-opacity:1.0; 
stroke:#000000; stroke-width:1.000000; stroke-opacity:1; 
stroke-linecap:round; stroke-linejoin:round;">
<circle cx="138660000.000000" cy="75565000.000000" r="1400000.000000" /> 
</g>
<g style="fill:#000000; fill-opacity:1.0; 
stroke:#000000; stroke-width:21200.000000; stroke-opacity:1; 
stroke-linecap:round; stroke-linejoin:round;">
</g>
<g >
</g>
<g >
</g>
<g >
</g>
<g >
</g>
<g style="fill:#000000; fill-opacity:1.0; 
stroke:#000000; stroke-width:21200.000000; stroke-opacity:1; 
stroke-linecap:round; stroke-linejoin:round;">
</g>
<g style="fill:#000000; fill-opacity:1.0; 
stroke:#000000; stroke-width:1.000000; stroke-opacity:1; 
stroke-linecap:round; stroke-linejoin:round;">
<path style="fill:#000000; fill-opacity:1.0; 
stroke:#000000; stroke-width:1.000000; stroke-opacity:1; 
stroke-linecap:round; stroke-linejoin:round;fill-rule:evenodd;"
d="M 129349999.000000,76414999.000000
127650001.000000,76414999.000000
127650001.000000,74715001.000000
129349999.000000,74715001.000000
Z" /> 
<circle cx="131040000.000000" cy="75565000.000000" r="850000.000000" /> 
<circle cx="133580000.000000" cy="75565000.000000" r="850000.000000" /> 
</g>
<g >
</g>
<g >
</g>
<g >
</g>
<g >
</g>
<g >
</g>
<g >
</g>
<g >
</g>
<g >
</g>
<g >
</g>
<g >
</g>
<g >
</g>
<g >
</g>
<g >
</g>
<g >
</g>
<g >
</g>
<g >
</g>
<g >
</g>
<g >
</g>
<g >
</g>
<g >
</g>
<g >
</g>
<g >
</g>
<g >
</g>
<g >
</g>
<g >
</g>
<g >
</g>
<g >
</g>
<g >
</g>
<g >
</g>
<g >
</g>
<g >
</g>
<g >
</g>
<g >
</g>
<g >
</g>
<g >
</g>
<g >
</g>
<g >
</g>
<g >
</g>
<g >
</g>
<g >
</g>
<g >
</g>
<g >
</g>
<g >
</g>
<g >
</g>
<g >
</g>
<g >
</g>
<g >
</g>
<g >
</g>
<g >
</g>
<g >
</g>
<g >
</g>
<g >
</g>
<g >
</g>
<g >
</g>
<g >
</g>
<g >
</g>
<g >
</g>
<g >
</g>
<g >
</g>
<g >
</g>
<g >
</g>
<g >
</g>
<g >
</g>
<g >
</g>
<g >
</g>
<g >
</g>
<g >
</g>
<g style="fill:#000000; fill-opacity:1.0; 
stroke:#000000; stroke-width:1.000000; stroke-opacity:1; 
stroke-linecap:round; stroke-linejoin:round;">
<circle cx="145200000.000000" cy="61113817.000000" r="400000.000000" /> 
</g>
<g style="fill:#000000; fill-opacity:1.0; 
stroke:#000000; stroke-width:21200.000000; stroke-opacity:1; 
stroke-linecap:round; stroke-linejoin:round;">
</g>
<g style="fill:#000000; fill-opacity:1.0; 
stroke:#000000; stroke-width:1.000000; stroke-opacity:1; 
stroke-linecap:round; stroke-linejoin:round;">
<circle cx="154500000.000000" cy="68000000.000000" r="400000.000000" /> 
</g>
<g style="fill:#000000; fill-opacity:1.0; 
stroke:#000000; stroke-width:21200.000000; stroke-opacity:1; 
stroke-linecap:round; stroke-linejoin:round;">
</g>
<g style="fill:#000000; fill-opacity:1.0; 
stroke:#000000; stroke-width:1.000000; stroke-opacity:1; 
stroke-linecap:round; stroke-linejoin:round;">
<circle cx="146153000.000000" cy="75819000.000000" r="400000.000000" /> 
</g>
<g style="fill:#000000; fill-opacity:1.0; 
stroke:#000000; stroke-width:21200.000000; stroke-opacity:1; 
stroke-linecap:round; stroke-linejoin:round;">
</g>
<g style="fill:#000000; fill-opacity:1.0; 
stroke:#000000; stroke-width:1.000000; stroke-opacity:1; 
stroke-linecap:round; stroke-linejoin:round;">
<circle cx="150400000.000000" cy="70231000.000000" r="400000.000000" /> 
</g>
<g style="fill:#000000; fill-opacity:1.0; 
stroke:#000000; stroke-width:21200.000000; stroke-opacity:1; 
stroke-linecap:round; stroke-linejoin:round;">
</g>
<g style="fill:#000000; fill-opacity:1.0; 
stroke:#000000; stroke-width:1.000000; stroke-opacity:1; 
stroke-linecap:round; stroke-linejoin:round;">
<circle cx="150600000.000000" cy="77072500.000000" r="400000.000000" /> 
</g>
<g style="fill:#000000; fill-opacity:1.0; 
stroke:#000000; stroke-width:21200.000000; stroke-opacity:1; 
stroke-linecap:round; stroke-linejoin:round;">
</g>
<g style="fill:#000000; fill-opacity:1.0; 
stroke:#000000; stroke-width:1.000000; stroke-opacity:1; 
stroke-linecap:round; stroke-linejoin:round;">
<circle cx="132770000.000000" cy="72770000.000000" r="400000.000000" /> 
</g>
<g style="fill:#000000; fill-opacity:1.0; 
stroke:#000000; stroke-width:21200.000000; stroke-opacity:1; 
stroke-linecap:round; stroke-linejoin:round;">
</g>
<g style="fill:#000000; fill-opacity:1.0; 
stroke:#000000; stroke-width:1.000000; stroke-opacity:1; 
stroke-linecap:round; stroke-linejoin:round;">
<circle cx="141700000.000000" cy="61065000.000000" r="400000.000000" /> 
</g>
<g style="fill:#000000; fill-opacity:1.0; 
stroke:#000000; stroke-width:21200.000000; stroke-opacity:1; 
stroke-linecap:round; stroke-linejoin:round;">
</g>
<g style="fill:#000000; fill-opacity:1.0; 
stroke:#000000; stroke-width:1.000000; stroke-opacity:1; 
stroke-linecap:round; stroke-linejoin:round;">
<circle cx="148861441.000000" cy="61049870.000000" r="400000.000000" /> 
</g>
<g style="fill:#000000; fill-opacity:1.0; 
stroke:#000000; stroke-width:21200.000000; stroke-opacity:1; 
stroke-linecap:round; stroke-linejoin:round;">
</g>
<g style="fill:#000000; fill-opacity:1.0; 
stroke:#000000; stroke-width:1.000000; stroke-opacity:1; 
stroke-linecap:round; stroke-linejoin:round;">
<circle cx="138020000.000000" cy="62770000.000000" r="400000.000000" /> 
</g>
<g style="fill:#000000; fill-opacity:1.0; 
stroke:#000000; stroke-width:21200.000000; stroke-opacity:1; 
stroke-linecap:round; stroke-linejoin:round;">
</g>
<g style="fill:#000000; fill-opacity:1.0; 
stroke:#000000; stroke-width:1.000000; stroke-opacity:1; 
stroke-linecap:round; stroke-linejoin:round;">
<circle cx="156567000.000000" cy="75520000.000000" r="400000.000000" /> 
</g>
<g style="fill:#000000; fill-opacity:1.0; 
stroke:#000000; stroke-width:21200.000000; stroke-opacity:1; 
stroke-linecap:round; stroke-linejoin:round;">
</g>
<g style="fill:#000000; fill-opacity:1.0; 
stroke:#000000; stroke-width:1.000000; stroke-opacity:1; 
stroke-linecap:round; stroke-linejoin:round;">
<circle cx="150600000.000000" cy="72465000.000000" r="400000.000000" /> 
</g>
<g style="fill:#000000; fill-opacity:1.0; 
stroke:#000000; stroke-width:21200.000000; stroke-opacity:1; 
stroke-linecap:round; stroke-linejoin:round;">
</g>
<g style="fill:#000000; fill-opacity:1.0; 
stroke:#000000; stroke-width:1.000000; stroke-opacity:1; 
stroke-linecap:round; stroke-linejoin:round;">
<circle cx="135770000.000000" cy="70520000.000000" r="400000.000000" /> 
</g>
<g style="fill:#000000; fill-opacity:1.0; 
stroke:#000000; stroke-width:21200.000000; stroke-opacity:1; 
stroke-linecap:round; stroke-linejoin:round;">
</g>
<g style="fill:#000000; fill-opacity:1.0; 
stroke:#000000; stroke-width:1.000000; stroke-opacity:1; 
stroke-linecap:round; stroke-linejoin:round;">
<circle cx="130270000.000000" cy="62270000.000000" r="400000.000000" /> 
</g>
<g style="fill:#000000; fill-opacity:1.0; 
stroke:#000000; stroke-width:21200.000000; stroke-opacity:1; 
stroke-linecap:round; stroke-linejoin:round;">
</g>
<g style="fill:#000000; fill-opacity:1.0; 
stroke:#000000; stroke-width:1.000000; stroke-opacity:1; 
stroke-linecap:round; stroke-linejoin:round;">
<circle cx="139020000.000000" cy="57770000.000000" r="400000.000000" /> 
</g>
<g style="fill:#000000; fill-opacity:1.0; 
stroke:#000000; stroke-width:21200.000000; stroke-opacity:1; 
stroke-linecap:round; stroke-linejoin:round;">
</g>
<g style="fill:#000000; fill-opacity:1.0; 
stroke:#000000; stroke-width:1.000000; stroke-opacity:1; 
stroke-linecap:round; stroke-linejoin:round;">
<circle cx="133520000.000000" cy="67020000.000000" r="400000.000000" /> 
</g>
<g style="fill:#000000; fill-opacity:1.0; 
stroke:#000000; stroke-width:21200.000000; stroke-opacity:1; 
stroke-linecap:round; stroke-linejoin:round;">
</g>
<g style="fill:#000000; fill-opacity:1.0; 
stroke:#000000; stroke-width:1.000000; stroke-opacity:1; 
stroke-linecap:round; stroke-linejoin:round;">
<circle cx="139634500.000000" cy="72517000.000000" r="400000.000000" /> 
</g>
<g style="fill:#000000; fill-opacity:1.0; 
stroke:#000000; stroke-width:21200.000000; stroke-opacity:1; 
stroke-linecap:round; stroke-linejoin:round;">
</g>
<g style="fill:#000000; fill-opacity:1.0; 
stroke:#000000; stroke-width:1.000000; stroke-opacity:1; 
stroke-linecap:round; stroke-linejoin:round;">
<circle cx="135764700.000000" cy="71941100.000000" r="400000.000000" /> 
</g>
<g style="fill:#000000; fill-opacity:1.0; 
stroke:#000000; stroke-width:21200.000000; stroke-opacity:1; 
stroke-linecap:round; stroke-linejoin:round;">
</g>
<g style="fill:#000000; fill-opacity:1.0; 
stroke:#000000; stroke-width:1.000000; stroke-opacity:1; 
stroke-linecap:round; stroke-linejoin:round;">
<circle cx="126920900.000000" cy="69342400.000000" r="400000.000000" /> 
</g>
<g style="fill:#000000; fill-opacity:1.0; 
stroke:#000000; stroke-width:21200.000000; stroke-opacity:1; 
stroke-linecap:round; stroke-linejoin:round;">
</g>
<g style="fill:#000000; fill-opacity:1.0; 
stroke:#000000; stroke-width:1.000000; stroke-opacity:1; 
stroke-linecap:round; stroke-linejoin:round;">
<circle cx="148020000.000000" cy="72770000.000000" r="400000.000000" /> 
</g>
<g style="fill:#000000; fill-opacity:1.0; 
stroke:#000000; stroke-width:21200.000000; stroke-opacity:1; 
stroke-linecap:round; stroke-linejoin:round;">
</g>
<g style="fill:#000000; fill-opacity:1.0; 
stroke:#000000; stroke-width:1.000000; stroke-opacity:1; 
stroke-linecap:round; stroke-linejoin:round;">
<circle cx="130664198.000000" cy="66968888.000000" r="400000.000000" /> 
</g>
<g style="fill:#000000; fill-opacity:1.0; 
stroke:#000000; stroke-width:21200.000000; stroke-opacity:1; 
stroke-linecap:round; stroke-linejoin:round;">
</g>
<g style="fill:#000000; fill-opacity:1.0; 
stroke:#000000; stroke-width:1.000000; stroke-opacity:1; 
stroke-linecap:round; stroke-linejoin:round;">
<circle cx="149000000.000000" cy="76665000.000000" r="400000.000000" /> 
</g>
<g style="fill:#000000; fill-opacity:1.0; 
stroke:#000000; stroke-width:21200.000000; stroke-opacity:1; 
stroke-linecap:round; stroke-linejoin:round;">
</g>
<g style="fill:#000000; fill-opacity:1.0; 
stroke:#000000; stroke-width:1.000000; stroke-opacity:1; 
stroke-linecap:round; stroke-linejoin:round;">
<circle cx="145770000.000000" cy="72020000.000000" r="400000.000000" /> 
</g>
<g style="fill:#000000; fill-opacity:1.0; 
stroke:#000000; stroke-width:21200.000000; stroke-opacity:1; 
stroke-linecap:round; stroke-linejoin:round;">
</g>
<g style="fill:#000000; fill-opacity:1.0; 
stroke:#000000; stroke-width:1.000000; stroke-opacity:1; 
stroke-linecap:round; stroke-linejoin:round;">
<circle cx="152919800.000000" cy="74131600.000000" r="400000.000000" /> 
</g>
<g style="fill:#000000; fill-opacity:1.0; 
stroke:#000000; stroke-width:21200.000000; stroke-opacity:1; 
stroke-linecap:round; stroke-linejoin:round;">
</g>
<g style="fill:#000000; fill-opacity:1.0; 
stroke:#000000; stroke-width:1.000000; stroke-opacity:1; 
stroke-linecap:round; stroke-linejoin:round;">
<circle cx="127770000.000000" cy="67520000.000000" r="400000.000000" /> 
</g>
<g style="fill:#000000; fill-opacity:1.0; 
stroke:#000000; stroke-width:21200.000000; stroke-opacity:1; 
stroke-linecap:round; stroke-linejoin:round;">
</g>
<g style="fill:#000000; fill-opacity:1.0; 
stroke:#000000; stroke-width:1.000000; stroke-opacity:1; 
stroke-linecap:round; stroke-linejoin:round;">
<circle cx="140700000.000000" cy="58665000.000000" r="400000.000000" /> 
</g>
<g style="fill:#000000; fill-opacity:1.0; 
stroke:#000000; stroke-width:21200.000000; stroke-opacity:1; 
stroke-linecap:round; stroke-linejoin:round;">
</g>
<g style="fill:#000000; fill-opacity:1.0; 
stroke:#000000; stroke-width:1.000000; stroke-opacity:1; 
stroke-linecap:round; stroke-linejoin:round;">
<circle cx="152000000.000000" cy="67065000.000000" r="400000.000000" /> 
</g>
<g style="fill:#000000; fill-opacity:1.0; 
stroke:#000000; stroke-width:21200.000000; stroke-opacity:1; 
stroke-linecap:round; stroke-linejoin:round;">
</g>
<g >
</g>
<g >
</g>
<g style="fill:#000000; fill-opacity:1.0; 
stroke:#000000; stroke-width:21200.000000; stroke-opacity:1; 
stroke-linecap:round; stroke-linejoin:round;">
<g >
</g>
<g style="fill:#000000; fill-opacity:1.0; 
stroke:#000000; stroke-width:1.000000; stroke-opacity:1; 
stroke-linecap:round; stroke-linejoin:round;">
<path style="fill:#000000; fill-opacity:1.0; 
stroke:#000000; stroke-width:1.000000; stroke-opacity:1; 
stroke-linecap:round; stroke-linejoin:round;fill-rule:evenodd;"
d="M 159496098.000000,57181247.000000
159542602.000000,57234892.000000
159554000.000000,57287259.000000
159554000.000000,77835259.000000
159533998.000000,77903380.000000
159480342.000000,77949873.000000
159428028.000000,77961259.000000
154246376.000000,77962361.000000
127774455.000000,77967992.000000
127753013.000000,77965687.000000
127752395.000000,77964116.000000
127750340.000000,77963221.000000
127737930.000000,77962997.000000
127737928.000000,77962996.000000
127659797.000000,77961583.000000
127652190.000000,77961216.000000
127600085.000000,77957115.000000
127590261.000000,77955952.000000
127421805.000000,77929272.000000
127412101.000000,77927342.000000
127370386.000000,77917327.000000
127360864.000000,77914641.000000
127198665.000000,77861939.000000
127189384.000000,77858515.000000
127149761.000000,77842103.000000
127140775.000000,77837961.000000
126988805.000000,77760528.000000
126980182.000000,77755699.000000
126943589.000000,77733274.000000
126935377.000000,77727787.000000
126797398.000000,77627539.000000
126789649.000000,77621430.000000
126757008.000000,77593552.000000
126749745.000000,77586837.000000
126629163.000000,77466255.000000
126622448.000000,77458992.000000
126621784.000000,77458215.000000
126594570.000000,77426351.000000
126588461.000000,77418602.000000
126488209.000000,77280618.000000
126482726.000000,77272411.000000
126460301.000000,77235818.000000
126455472.000000,77227195.000000
126388108.000000,77094986.000000
126378037.000000,77075221.000000
126373902.000000,77066252.000000
126357482.000000,77026610.000000
126354062.000000,77017338.000000
126301359.000000,76855135.000000
126298674.000000,76845614.000000
126288659.000000,76803900.000000
126286728.000000,76794195.000000
126260048.000000,76625739.000000
126258885.000000,76615915.000000
126254784.000000,76563809.000000
126254417.000000,76556202.000000
126254069.000000,76536960.000000
126252779.000000,76465660.000000
126251884.000000,76463605.000000
126250309.000000,76462986.000000
126248000.000000,76441530.000000
126248000.000000,74715000.000000
127517500.000000,74715000.000000
127517500.000000,76415000.000000
127518707.000000,76421068.000000
127522798.000000,76441633.000000
127527586.000000,76465706.000000
127556308.000000,76508692.000000
127566624.000000,76515585.000000
127575926.000000,76521800.000000
127599294.000000,76537414.000000
127611463.000000,76539835.000000
127611464.000000,76539835.000000
127637276.000000,76544969.000000
127650000.000000,76547500.000000
129350000.000000,76547500.000000
129362724.000000,76544969.000000
129388536.000000,76539835.000000
129388537.000000,76539835.000000
129400706.000000,76537414.000000
129424074.000000,76521800.000000
129433376.000000,76515585.000000
129443692.000000,76508692.000000
129472414.000000,76465706.000000
129477203.000000,76441633.000000
129481293.000000,76421068.000000
129482500.000000,76415000.000000
129482500.000000,75660875.000000
130062189.000000,75660875.000000
130101439.000000,75855533.000000
130179029.000000,76038323.000000
130291789.000000,76201778.000000
130435113.000000,76339221.000000
130603146.000000,76445037.000000
130609120.000000,76447282.000000
130609121.000000,76447283.000000
130722274.000000,76489814.000000
130789025.000000,76514904.000000
130795323.000000,76515902.000000
130795325.000000,76515902.000000
130875742.000000,76528639.000000
130985155.000000,76545968.000000
131183527.000000,76536960.000000
131243439.000000,76521800.000000
131369847.000000,76489814.000000
131369849.000000,76489813.000000
131376035.000000,76488248.000000
131381782.000000,76485470.000000
131549068.000000,76404601.000000
131549070.000000,76404600.000000
131554816.000000,76401822.000000
131559885.000000,76397946.000000
131559889.000000,76397944.000000
131678174.000000,76307508.000000
131712568.000000,76281212.000000
131791694.000000,76190188.000000
131838657.000000,76136163.000000
131838658.000000,76136162.000000
131842845.000000,76131345.000000
131940326.000000,75958343.000000
131997607.000000,75779934.000000
132037475.000000,75721189.000000
132102775.000000,75693324.000000
132172774.000000,75705186.000000
132225247.000000,75753010.000000
132241972.000000,75798415.000000
132256639.000000,75889472.000000
132259212.000000,75899793.000000
132330230.000000,76107810.000000
132334497.000000,76117533.000000
132439556.000000,76310625.000000
132445402.000000,76319491.000000
132581486.000000,76492113.000000
132588750.000000,76499875.000000
132751967.000000,76647094.000000
132760444.000000,76653528.000000
132946122.000000,76771136.000000
132955567.000000,76776053.000000
133158406.000000,76860694.000000
133168545.000000,76863950.000000
133308345.000000,76896096.000000
133322422.000000,76895257.000000
133326000.000000,76885999.000000
133326000.000000,75832548.000000
133834000.000000,75832548.000000
133834000.000000,76884941.000000
133838151.000000,76899079.000000
133848798.000000,76900774.000000
133852192.000000,76900096.000000
134063333.000000,76838954.000000
134073259.000000,76835143.000000
134271065.000000,76739307.000000
134280212.000000,76733876.000000
134459041.000000,76606083.000000
134467149.000000,76599182.000000
134621893.000000,76443082.000000
134628706.000000,76434933.000000
134754940.000000,76254988.000000
134760295.000000,76245787.000000
134854399.000000,76047156.000000
134858123.000000,76037197.000000
134915968.000000,75830718.000000
134914430.000000,75822351.000000
134902137.000000,75819000.000000
133852115.000000,75819000.000000
133836876.000000,75823475.000000
133835671.000000,75824865.000000
133834000.000000,75832548.000000
133326000.000000,75832548.000000
133326000.000000,75671902.000000
137131233.000000,75671902.000000
137131990.000000,75676905.000000
137131990.000000,75676910.000000
137158058.000000,75849274.000000
137167990.000000,75914948.000000
137169536.000000,75919764.000000
137169537.000000,75919767.000000
137241584.000000,76144166.000000
137243133.000000,76148990.000000
137354728.000000,76368008.000000
137499905.000000,76566367.000000
137503515.000000,76569927.000000
137517917.000000,76584129.000000
137674928.000000,76738963.000000
137679053.000000,76741895.000000
137679056.000000,76741897.000000
137750204.000000,76792459.000000
137875294.000000,76881356.000000
137879830.000000,76883588.000000
138091308.000000,76987648.000000
138091313.000000,76987650.000000
138095849.000000,76989882.000000
138100693.000000,76991363.000000
138326070.000000,77060268.000000
138326072.000000,77060268.000000
138330918.000000,77061750.000000
138335939.000000,77062438.000000
138335940.000000,77062438.000000
138530616.000000,77089105.000000
138574454.000000,77095110.000000
138646742.000000,77093344.000000
138815129.000000,77089229.000000
138815133.000000,77089229.000000
138820190.000000,77089105.000000
139061805.000000,77043888.000000
139293083.000000,76960623.000000
139508073.000000,76841452.000000
139526798.000000,76826717.000000
139647492.000000,76731740.000000
148471699.000000,76731740.000000
148509108.000000,76871352.000000
148513479.000000,76878743.000000
148561903.000000,76960623.000000
148582683.000000,76995761.000000
148687004.000000,77095802.000000
148814385.000000,77164103.000000
148822769.000000,77165977.000000
148923615.000000,77188518.000000
148955442.000000,77195632.000000
148964016.000000,77195183.000000
148964019.000000,77195183.000000
149091198.000000,77188518.000000
149091200.000000,77188518.000000
149099781.000000,77188068.000000
149236768.000000,77141967.000000
149305716.000000,77095110.000000
149349208.000000,77065553.000000
149349209.000000,77065552.000000
149356312.000000,77060725.000000
149370541.000000,77043888.000000
149440905.000000,76960623.000000
149449605.000000,76950328.000000
149472293.000000,76900774.000000
149490642.000000,76860694.000000
149509773.000000,76818909.000000
149528945.000000,76697861.000000
149531661.000000,76680711.000000
149531661.000000,76680710.000000
149532383.000000,76676152.000000
149532500.000000,76665000.000000
149512884.000000,76521800.000000
149508741.000000,76512225.000000
149458892.000000,76397033.000000
149458892.000000,76397032.000000
149455481.000000,76389151.000000
149364521.000000,76276824.000000
149333795.000000,76254988.000000
149253706.000000,76198072.000000
149253704.000000,76198071.000000
149246705.000000,76193097.000000
149238628.000000,76190189.000000
149238626.000000,76190188.000000
149118796.000000,76147046.000000
149118795.000000,76147046.000000
149110713.000000,76144136.000000
148966564.000000,76133551.000000
148824879.000000,76162120.000000
148696095.000000,76227738.000000
148689775.000000,76233550.000000
148689773.000000,76233551.000000
148596315.000000,76319491.000000
148589702.000000,76325572.000000
148585179.000000,76332867.000000
148585178.000000,76332868.000000
148521895.000000,76434933.000000
148513537.000000,76448413.000000
148473212.000000,76587211.000000
148473122.000000,76595797.000000
148473122.000000,76595798.000000
148472809.000000,76625739.000000
148471699.000000,76731740.000000
139647492.000000,76731740.000000
139697275.000000,76692565.000000
139697280.000000,76692560.000000
139701244.000000,76689441.000000
139838813.000000,76539835.000000
139864202.000000,76512225.000000
139864204.000000,76512222.000000
139867626.000000,76508501.000000
139880981.000000,76488248.000000
139911718.000000,76441633.000000
140002940.000000,76303288.000000
140011833.000000,76283500.000000
140101629.000000,76083696.000000
140101631.000000,76083691.000000
140103703.000000,76079080.000000
140112257.000000,76047156.000000
140166015.000000,75846528.000000
140166015.000000,75846527.000000
140167323.000000,75841646.000000
140192164.000000,75597094.000000
140192500.000000,75565000.000000
140182043.000000,75435029.000000
140173192.000000,75325024.000000
140173191.000000,75325020.000000
140172786.000000,75319982.000000
140170170.000000,75309329.000000
140115359.000000,75086182.000000
140114152.000000,75081268.000000
140079415.000000,74999431.000000
140020083.000000,74859654.000000
140020083.000000,74859653.000000
140018107.000000,74854999.000000
139887121.000000,74646996.000000
139724564.000000,74462612.000000
139534619.000000,74306589.000000
139348628.000000,74198340.000000
152391499.000000,74198340.000000
152428908.000000,74337952.000000
152502483.000000,74462361.000000
152606804.000000,74562402.000000
152734185.000000,74630703.000000
152742569.000000,74632577.000000
152843415.000000,74655118.000000
152875242.000000,74662232.000000
152883816.000000,74661783.000000
152883819.000000,74661783.000000
153010998.000000,74655118.000000
153011000.000000,74655118.000000
153019581.000000,74654668.000000
153156568.000000,74608567.000000
153276112.000000,74527325.000000
153369405.000000,74416928.000000
153375243.000000,74404178.000000
153420851.000000,74304559.000000
153429573.000000,74285509.000000
153452183.000000,74142752.000000
153452300.000000,74131600.000000
153432684.000000,73988400.000000
153375281.000000,73855751.000000
153284321.000000,73743424.000000
153166505.000000,73659697.000000
153158428.000000,73656789.000000
153158426.000000,73656788.000000
153038596.000000,73613646.000000
153038595.000000,73613646.000000
153030513.000000,73610736.000000
152886364.000000,73600151.000000
152744679.000000,73628720.000000
152615895.000000,73694338.000000
152609575.000000,73700150.000000
152609573.000000,73700151.000000
152515820.000000,73786362.000000
152509502.000000,73792172.000000
152504979.000000,73799467.000000
152504978.000000,73799468.000000
152470081.000000,73855751.000000
152433337.000000,73915013.000000
152393012.000000,74053811.000000
152391499.000000,74198340.000000
139348628.000000,74198340.000000
139322171.000000,74182942.000000
139317448.000000,74181129.000000
139317446.000000,74181128.000000
139097408.000000,74096663.000000
139097410.000000,74096663.000000
139092688.000000,74094851.000000
139087742.000000,74093818.000000
139087736.000000,74093816.000000
138896240.000000,74053811.000000
138852073.000000,74044584.000000
138847025.000000,74044355.000000
138847019.000000,74044354.000000
138729295.000000,74039009.000000
138606517.000000,74033434.000000
138601496.000000,74034015.000000
138601493.000000,74034015.000000
138367363.000000,74061104.000000
138367358.000000,74061105.000000
138362336.000000,74061686.000000
138357472.000000,74063062.000000
138357469.000000,74063063.000000
138245133.000000,74094851.000000
138125813.000000,74128615.000000
138121234.000000,74130750.000000
138121232.000000,74130751.000000
138105397.000000,74138135.000000
137903034.000000,74232499.000000
137898853.000000,74235340.000000
137898852.000000,74235341.000000
137703917.000000,74367819.000000
137703913.000000,74367822.000000
137699730.000000,74370665.000000
137521131.000000,74539557.000000
137518053.000000,74543583.000000
137518052.000000,74543584.000000
137374910.000000,74730806.000000
137371832.000000,74734832.000000
137255674.000000,74951465.000000
137254028.000000,74956246.000000
137254026.000000,74956250.000000
137179897.000000,75171537.000000
137175646.000000,75183883.000000
137133807.000000,75426106.000000
137131233.000000,75671902.000000
133326000.000000,75671902.000000
133326000.000000,74248717.000000
133325328.000000,74246430.000000
133834000.000000,74246430.000000
133834000.000000,75292885.000000
133838475.000000,75308124.000000
133839865.000000,75309329.000000
133847548.000000,75311000.000000
134899079.000000,75311000.000000
134912610.000000,75307027.000000
134913876.000000,75298218.000000
134866954.000000,75117433.000000
134863419.000000,75107395.000000
134773147.000000,74906998.000000
134767967.000000,74897692.000000
134645218.000000,74715366.000000
134638557.000000,74707080.000000
134486830.000000,74548030.000000
134478873.000000,74540990.000000
134302523.000000,74409782.000000
134293486.000000,74404178.000000
134097550.000000,74304559.000000
134087699.000000,74300559.000000
133877778.000000,74235378.000000
133867396.000000,74233095.000000
133851959.000000,74231049.000000
133837792.000000,74233246.000000
133834000.000000,74246430.000000
133325328.000000,74246430.000000
133322027.000000,74235186.000000
133311420.000000,74233661.000000
133193554.000000,74258391.000000
133183358.000000,74261451.000000
132978932.000000,74342182.000000
132969396.000000,74346916.000000
132781486.000000,74460942.000000
132772896.000000,74467206.000000
132606884.000000,74611264.000000
132599464.000000,74618895.000000
132460100.000000,74788860.000000
132454075.000000,74797627.000000
132345342.000000,74988644.000000
132340877.000000,74998308.000000
132265882.000000,75204916.000000
132263111.000000,75215184.000000
132241381.000000,75335351.000000
132209576.000000,75398826.000000
132148504.000000,75435029.000000
132077553.000000,75432466.000000
132019251.000000,75391952.000000
131997158.000000,75350609.000000
131944960.000000,75184046.000000
131944959.000000,75184044.000000
131943050.000000,75177952.000000
131886877.000000,75076612.000000
131849872.000000,75009854.000000
131846779.000000,75004274.000000
131717551.000000,74853501.000000
131570319.000000,74739296.000000
131565690.000000,74735705.000000
131565687.000000,74735703.000000
131560646.000000,74731793.000000
131554920.000000,74728975.000000
131554916.000000,74728973.000000
131388204.000000,74646940.000000
131388200.000000,74646938.000000
131382472.000000,74644120.000000
131190309.000000,74594066.000000
131102609.000000,74589470.000000
130998387.000000,74584007.000000
130998382.000000,74584007.000000
130992005.000000,74583673.000000
130859338.000000,74603737.000000
130801976.000000,74612412.000000
130801975.000000,74612412.000000
130795662.000000,74613367.000000
130789676.000000,74615570.000000
130789670.000000,74615571.000000
130714573.000000,74643202.000000
130609300.000000,74681935.000000
130603884.000000,74685293.000000
130603880.000000,74685295.000000
130445955.000000,74783212.000000
130445951.000000,74783215.000000
130440532.000000,74786575.000000
130296252.000000,74923014.000000
130292590.000000,74928244.000000
130292589.000000,74928245.000000
130239353.000000,75004274.000000
130182354.000000,75085678.000000
130103490.000000,75267922.000000
130102185.000000,75274169.000000
130070444.000000,75426106.000000
130062882.000000,75462301.000000
130062860.000000,75468689.000000
130062412.000000,75597094.000000
130062189.000000,75660875.000000
129482500.000000,75660875.000000
129482500.000000,74715000.000000
129480925.000000,74707080.000000
129474835.000000,74676464.000000
129474835.000000,74676463.000000
129472414.000000,74664294.000000
129443692.000000,74621308.000000
129431808.000000,74613367.000000
129411022.000000,74599479.000000
129411023.000000,74599479.000000
129400706.000000,74592586.000000
129388537.000000,74590165.000000
129388536.000000,74590165.000000
129356068.000000,74583707.000000
129350000.000000,74582500.000000
127650000.000000,74582500.000000
127643932.000000,74583707.000000
127611464.000000,74590165.000000
127611463.000000,74590165.000000
127599294.000000,74592586.000000
127588977.000000,74599479.000000
127588978.000000,74599479.000000
127568193.000000,74613367.000000
127556308.000000,74621308.000000
127527586.000000,74664294.000000
127525165.000000,74676463.000000
127525165.000000,74676464.000000
127519075.000000,74707080.000000
127517500.000000,74715000.000000
126248000.000000,74715000.000000
126248000.000000,72583740.000000
139106199.000000,72583740.000000
139143608.000000,72723352.000000
139217183.000000,72847761.000000
139321504.000000,72947802.000000
139448885.000000,73016103.000000
139457269.000000,73017977.000000
139558115.000000,73040518.000000
139589942.000000,73047632.000000
139598516.000000,73047183.000000
139598519.000000,73047183.000000
139725698.000000,73040518.000000
139725700.000000,73040518.000000
139734281.000000,73040068.000000
139871268.000000,72993967.000000
139990812.000000,72912725.000000
140055025.000000,72836740.000000
147491699.000000,72836740.000000
147529108.000000,72976352.000000
147602683.000000,73100761.000000
147707004.000000,73200802.000000
147834385.000000,73269103.000000
147842769.000000,73270977.000000
147943615.000000,73293518.000000
147975442.000000,73300632.000000
147984016.000000,73300183.000000
147984019.000000,73300183.000000
148111198.000000,73293518.000000
148111200.000000,73293518.000000
148119781.000000,73293068.000000
148256768.000000,73246967.000000
148376312.000000,73165725.000000
148469605.000000,73055328.000000
148477847.000000,73037327.000000
148518834.000000,72947802.000000
148529773.000000,72923909.000000
148552383.000000,72781152.000000
148552500.000000,72770000.000000
148532884.000000,72626800.000000
148499729.000000,72550183.000000
148478892.000000,72502033.000000
148478892.000000,72502032.000000
148475481.000000,72494151.000000
148384521.000000,72381824.000000
148373230.000000,72373800.000000
148273706.000000,72303072.000000
148273704.000000,72303071.000000
148266705.000000,72298097.000000
148258628.000000,72295189.000000
148258626.000000,72295188.000000
148138796.000000,72252046.000000
148138795.000000,72252046.000000
148130713.000000,72249136.000000
147986564.000000,72238551.000000
147844879.000000,72267120.000000
147716095.000000,72332738.000000
147709775.000000,72338550.000000
147709773.000000,72338551.000000
147620321.000000,72420807.000000
147609702.000000,72430572.000000
147605179.000000,72437867.000000
147605178.000000,72437868.000000
147539951.000000,72543068.000000
147533537.000000,72553413.000000
147493212.000000,72692211.000000
147491699.000000,72836740.000000
140055025.000000,72836740.000000
140084105.000000,72802328.000000
140144273.000000,72670909.000000
140166883.000000,72528152.000000
140167000.000000,72517000.000000
140147384.000000,72373800.000000
140139989.000000,72356710.000000
140093392.000000,72249033.000000
140093392.000000,72249032.000000
140089981.000000,72241151.000000
139999021.000000,72128824.000000
139992018.000000,72123847.000000
139939803.000000,72086740.000000
145241699.000000,72086740.000000
145279108.000000,72226352.000000
145352683.000000,72350761.000000
145457004.000000,72450802.000000
145464580.000000,72454864.000000
145464581.000000,72454865.000000
145492545.000000,72469859.000000
145584385.000000,72519103.000000
145592769.000000,72520977.000000
145705225.000000,72546113.000000
145725442.000000,72550632.000000
145734016.000000,72550183.000000
145734019.000000,72550183.000000
145861198.000000,72543518.000000
145861200.000000,72543518.000000
145869781.000000,72543068.000000
146006768.000000,72496967.000000
146104465.000000,72430572.000000
146119208.000000,72420553.000000
146119209.000000,72420552.000000
146126312.000000,72415725.000000
146161742.000000,72373800.000000
146214062.000000,72311887.000000
146219605.000000,72305328.000000
146224248.000000,72295188.000000
146259560.000000,72218058.000000
146279773.000000,72173909.000000
146302383.000000,72031152.000000
146302500.000000,72020000.000000
146282884.000000,71876800.000000
146225481.000000,71744151.000000
146134521.000000,71631824.000000
146127518.000000,71626847.000000
146023706.000000,71553072.000000
146023704.000000,71553071.000000
146016705.000000,71548097.000000
146008628.000000,71545189.000000
146008626.000000,71545188.000000
145888796.000000,71502046.000000
145888795.000000,71502046.000000
145880713.000000,71499136.000000
145736564.000000,71488551.000000
145594879.000000,71517120.000000
145466095.000000,71582738.000000
145459775.000000,71588550.000000
145459773.000000,71588551.000000
145383620.000000,71658578.000000
145359702.000000,71680572.000000
145355179.000000,71687867.000000
145355178.000000,71687868.000000
145320281.000000,71744151.000000
145283537.000000,71803413.000000
145243212.000000,71942211.000000
145243122.000000,71950797.000000
145243122.000000,71950798.000000
145242654.000000,71995507.000000
145241699.000000,72086740.000000
139939803.000000,72086740.000000
139888206.000000,72050072.000000
139888204.000000,72050071.000000
139881205.000000,72045097.000000
139873128.000000,72042189.000000
139873126.000000,72042188.000000
139753296.000000,71999046.000000
139753295.000000,71999046.000000
139745213.000000,71996136.000000
139601064.000000,71985551.000000
139459379.000000,72014120.000000
139330595.000000,72079738.000000
139324275.000000,72085550.000000
139324273.000000,72085551.000000
139230520.000000,72171762.000000
139224202.000000,72177572.000000
139219679.000000,72184867.000000
139219678.000000,72184868.000000
139152563.000000,72293113.000000
139148037.000000,72300413.000000
139107712.000000,72439211.000000
139107622.000000,72447797.000000
139107622.000000,72447798.000000
139107207.000000,72487478.000000
139106199.000000,72583740.000000
126248000.000000,72583740.000000
126248000.000000,72007840.000000
135236399.000000,72007840.000000
135273808.000000,72147452.000000
135278179.000000,72154843.000000
135333944.000000,72249136.000000
135347383.000000,72271861.000000
135451704.000000,72371902.000000
135579085.000000,72440203.000000
135587469.000000,72442077.000000
135688315.000000,72464618.000000
135720142.000000,72471732.000000
135728716.000000,72471283.000000
135728719.000000,72471283.000000
135855898.000000,72464618.000000
135855900.000000,72464618.000000
135864481.000000,72464168.000000
136001468.000000,72418067.000000
136121012.000000,72336825.000000
136214305.000000,72226428.000000
136274473.000000,72095009.000000
136297083.000000,71952252.000000
136297200.000000,71941100.000000
136277584.000000,71797900.000000
136257736.000000,71752033.000000
136223592.000000,71673133.000000
136223592.000000,71673132.000000
136220181.000000,71665251.000000
136129221.000000,71552924.000000
136122218.000000,71547947.000000
136018406.000000,71474172.000000
136018404.000000,71474171.000000
136011405.000000,71469197.000000
136003328.000000,71466289.000000
136003326.000000,71466288.000000
135883496.000000,71423146.000000
135883495.000000,71423146.000000
135875413.000000,71420236.000000
135731264.000000,71409651.000000
135589579.000000,71438220.000000
135460795.000000,71503838.000000
135454475.000000,71509650.000000
135454473.000000,71509651.000000
135374992.000000,71582738.000000
135354402.000000,71601672.000000
135349879.000000,71608967.000000
135349878.000000,71608968.000000
135300958.000000,71687868.000000
135278237.000000,71724513.000000
135237912.000000,71863311.000000
135236399.000000,72007840.000000
126248000.000000,72007840.000000
126248000.000000,69701573.000000
126268002.000000,69633452.000000
126321658.000000,69586959.000000
126391932.000000,69576855.000000
126456512.000000,69606349.000000
126482453.000000,69637434.000000
126499205.000000,69665760.000000
126499209.000000,69665765.000000
126503583.000000,69673161.000000
126607904.000000,69773202.000000
126735285.000000,69841503.000000
126743669.000000,69843377.000000
126844515.000000,69865918.000000
126876342.000000,69873032.000000
126884916.000000,69872583.000000
126884919.000000,69872583.000000
127012098.000000,69865918.000000
127012100.000000,69865918.000000
127020681.000000,69865468.000000
127157668.000000,69819367.000000
127277212.000000,69738125.000000
127370505.000000,69627728.000000
127389171.000000,69586959.000000
127427098.000000,69504117.000000
127430673.000000,69496309.000000
127453283.000000,69353552.000000
127453400.000000,69342400.000000
127433784.000000,69199200.000000
127389961.000000,69097931.000000
127379792.000000,69074433.000000
127379792.000000,69074432.000000
127376381.000000,69066551.000000
127285421.000000,68954224.000000
127167605.000000,68870497.000000
127159528.000000,68867589.000000
127159526.000000,68867588.000000
127039696.000000,68824446.000000
127039695.000000,68824446.000000
127031613.000000,68821536.000000
126887464.000000,68810951.000000
126745779.000000,68839520.000000
126616995.000000,68905138.000000
126610675.000000,68910950.000000
126610673.000000,68910951.000000
126531039.000000,68984179.000000
126510602.000000,69002972.000000
126506079.000000,69010267.000000
126506078.000000,69010268.000000
126481086.000000,69050576.000000
126428190.000000,69097931.000000
126358089.000000,69109170.000000
126293039.000000,69080726.000000
126253694.000000,69021629.000000
126248000.000000,68984179.000000
126248000.000000,67586740.000000
127241699.000000,67586740.000000
127279108.000000,67726352.000000
127352683.000000,67850761.000000
127457004.000000,67950802.000000
127584385.000000,68019103.000000
127592769.000000,68020977.000000
127693615.000000,68043518.000000
127725442.000000,68050632.000000
127734016.000000,68050183.000000
127734019.000000,68050183.000000
127861198.000000,68043518.000000
127861200.000000,68043518.000000
127869781.000000,68043068.000000
128006768.000000,67996967.000000
128126312.000000,67915725.000000
128219605.000000,67805328.000000
128279773.000000,67673909.000000
128302383.000000,67531152.000000
128302500.000000,67520000.000000
128282884.000000,67376800.000000
128271429.000000,67350328.000000
128228892.000000,67252033.000000
128228892.000000,67252032.000000
128225481.000000,67244151.000000
128134521.000000,67131824.000000
128121819.000000,67122797.000000
128023706.000000,67053072.000000
128023704.000000,67053071.000000
128016705.000000,67048097.000000
128008628.000000,67045189.000000
128008626.000000,67045188.000000
127982072.000000,67035628.000000
130135897.000000,67035628.000000
130173306.000000,67175240.000000
130246881.000000,67299649.000000
130351202.000000,67399690.000000
130358778.000000,67403752.000000
130358779.000000,67403753.000000
130381107.000000,67415725.000000
130478583.000000,67467991.000000
130486967.000000,67469865.000000
130587813.000000,67492406.000000
130619640.000000,67499520.000000
130628214.000000,67499071.000000
130628217.000000,67499071.000000
130755396.000000,67492406.000000
130755398.000000,67492406.000000
130763979.000000,67491956.000000
130900966.000000,67445855.000000
130985560.000000,67388365.000000
131013406.000000,67369441.000000
131013407.000000,67369440.000000
131020510.000000,67364613.000000
131113803.000000,67254216.000000
131173971.000000,67122797.000000
131179682.000000,67086740.000000
132991699.000000,67086740.000000
133029108.000000,67226352.000000
133102683.000000,67350761.000000
133207004.000000,67450802.000000
133214580.000000,67454864.000000
133214581.000000,67454865.000000
133239061.000000,67467991.000000
133334385.000000,67519103.000000
133342769.000000,67520977.000000
133443615.000000,67543518.000000
133475442.000000,67550632.000000
133484016.000000,67550183.000000
133484019.000000,67550183.000000
133611198.000000,67543518.000000
133611200.000000,67543518.000000
133619781.000000,67543068.000000
133756768.000000,67496967.000000
133807107.000000,67462757.000000
133869208.000000,67420553.000000
133869209.000000,67420552.000000
133876312.000000,67415725.000000
133969605.000000,67305328.000000
133981777.000000,67278743.000000
134026198.000000,67181717.000000
134029773.000000,67173909.000000
134036452.000000,67131740.000000
151471699.000000,67131740.000000
151509108.000000,67271352.000000
151582683.000000,67395761.000000
151687004.000000,67495802.000000
151814385.000000,67564103.000000
151822769.000000,67565977.000000
151923615.000000,67588518.000000
151955442.000000,67595632.000000
151964016.000000,67595183.000000
151964019.000000,67595183.000000
152091198.000000,67588518.000000
152091200.000000,67588518.000000
152099781.000000,67588068.000000
152236768.000000,67541967.000000
152342863.000000,67469865.000000
152349208.000000,67465553.000000
152349209.000000,67465552.000000
152356312.000000,67460725.000000
152449605.000000,67350328.000000
152509773.000000,67218909.000000
152532383.000000,67076152.000000
152532500.000000,67065000.000000
152512884.000000,66921800.000000
152499599.000000,66891099.000000
152458892.000000,66797033.000000
152458892.000000,66797032.000000
152455481.000000,66789151.000000
152364521.000000,66676824.000000
152303630.000000,66633551.000000
152253706.000000,66598072.000000
152253704.000000,66598071.000000
152246705.000000,66593097.000000
152238628.000000,66590189.000000
152238626.000000,66590188.000000
152118796.000000,66547046.000000
152118795.000000,66547046.000000
152110713.000000,66544136.000000
151966564.000000,66533551.000000
151824879.000000,66562120.000000
151696095.000000,66627738.000000
151689775.000000,66633550.000000
151689773.000000,66633551.000000
151596020.000000,66719762.000000
151589702.000000,66725572.000000
151585179.000000,66732867.000000
151585178.000000,66732868.000000
151545394.000000,66797033.000000
151513537.000000,66848413.000000
151473212.000000,66987211.000000
151471699.000000,67131740.000000
134036452.000000,67131740.000000
134052383.000000,67031152.000000
134052500.000000,67020000.000000
134032884.000000,66876800.000000
134007354.000000,66817803.000000
133978892.000000,66752033.000000
133978892.000000,66752032.000000
133975481.000000,66744151.000000
133884521.000000,66631824.000000
133830027.000000,66593097.000000
133773706.000000,66553072.000000
133773704.000000,66553071.000000
133766705.000000,66548097.000000
133758628.000000,66545189.000000
133758626.000000,66545188.000000
133638796.000000,66502046.000000
133638795.000000,66502046.000000
133630713.000000,66499136.000000
133486564.000000,66488551.000000
133344879.000000,66517120.000000
133216095.000000,66582738.000000
133209775.000000,66588550.000000
133209773.000000,66588551.000000
133119190.000000,66671847.000000
133109702.000000,66680572.000000
133105179.000000,66687867.000000
133105178.000000,66687868.000000
133070281.000000,66744151.000000
133033537.000000,66803413.000000
132993212.000000,66942211.000000
132991699.000000,67086740.000000
131179682.000000,67086740.000000
131196581.000000,66980040.000000
131196698.000000,66968888.000000
131177082.000000,66825688.000000
131141798.000000,66744151.000000
131123090.000000,66700921.000000
131123090.000000,66700920.000000
131119679.000000,66693039.000000
131028719.000000,66580712.000000
131008044.000000,66566019.000000
130917904.000000,66501960.000000
130917902.000000,66501959.000000
130910903.000000,66496985.000000
130902826.000000,66494077.000000
130902824.000000,66494076.000000
130782994.000000,66450934.000000
130782993.000000,66450934.000000
130774911.000000,66448024.000000
130630762.000000,66437439.000000
130489077.000000,66466008.000000
130360293.000000,66531626.000000
130353973.000000,66537438.000000
130353971.000000,66537439.000000
130293444.000000,66593097.000000
130253900.000000,66629460.000000
130249377.000000,66636755.000000
130249376.000000,66636756.000000
130182788.000000,66744151.000000
130177735.000000,66752301.000000
130137410.000000,66891099.000000
130135897.000000,67035628.000000
127982072.000000,67035628.000000
127888796.000000,67002046.000000
127888795.000000,67002046.000000
127880713.000000,66999136.000000
127736564.000000,66988551.000000
127594879.000000,67017120.000000
127466095.000000,67082738.000000
127459775.000000,67088550.000000
127459773.000000,67088551.000000
127403782.000000,67140038.000000
127359702.000000,67180572.000000
127355179.000000,67187867.000000
127355178.000000,67187868.000000
127288063.000000,67296113.000000
127283537.000000,67303413.000000
127243212.000000,67442211.000000
127243122.000000,67450797.000000
127243122.000000,67450798.000000
127242651.000000,67495802.000000
127241699.000000,67586740.000000
126248000.000000,67586740.000000
126248000.000000,58731740.000000
140171699.000000,58731740.000000
140209108.000000,58871352.000000
140282683.000000,58995761.000000
140387004.000000,59095802.000000
140514385.000000,59164103.000000
140522769.000000,59165977.000000
140623615.000000,59188518.000000
140655442.000000,59195632.000000
140664016.000000,59195183.000000
140664019.000000,59195183.000000
140791198.000000,59188518.000000
140791200.000000,59188518.000000
140799781.000000,59188068.000000
140936768.000000,59141967.000000
141056312.000000,59060725.000000
141149605.000000,58950328.000000
141209773.000000,58818909.000000
141232383.000000,58676152.000000
141232500.000000,58665000.000000
141212884.000000,58521800.000000
141155481.000000,58389151.000000
141064521.000000,58276824.000000
140946705.000000,58193097.000000
140938628.000000,58190189.000000
140938626.000000,58190188.000000
140818796.000000,58147046.000000
140818795.000000,58147046.000000
140810713.000000,58144136.000000
140666564.000000,58133551.000000
140524879.000000,58162120.000000
140396095.000000,58227738.000000
140389775.000000,58233550.000000
140389773.000000,58233551.000000
140298777.000000,58317227.000000
140289702.000000,58325572.000000
140285179.000000,58332867.000000
140285178.000000,58332868.000000
140250281.000000,58389151.000000
140213537.000000,58448413.000000
140173212.000000,58587211.000000
140171699.000000,58731740.000000
126248000.000000,58731740.000000
126248000.000000,58694470.000000
126250309.000000,58673014.000000
126251884.000000,58672395.000000
126252779.000000,58670340.000000
126254417.000000,58579798.000000
126254784.000000,58572191.000000
126258885.000000,58520085.000000
126260048.000000,58510261.000000
126286728.000000,58341805.000000
126288659.000000,58332100.000000
126298674.000000,58290386.000000
126301359.000000,58280865.000000
126354062.000000,58118662.000000
126357486.000000,58109380.000000
126373902.000000,58069748.000000
126378039.000000,58060775.000000
126455472.000000,57908805.000000
126460306.000000,57900173.000000
126482726.000000,57863589.000000
126488213.000000,57855377.000000
126489268.000000,57853925.000000
126588461.000000,57717398.000000
126594570.000000,57709649.000000
126622448.000000,57677008.000000
126629163.000000,57669745.000000
126749745.000000,57549163.000000
126757008.000000,57542448.000000
126757785.000000,57541784.000000
126789649.000000,57514570.000000
126797398.000000,57508461.000000
126935382.000000,57408209.000000
126943589.000000,57402726.000000
126980182.000000,57380301.000000
126988805.000000,57375472.000000
127140775.000000,57298039.000000
127149761.000000,57293897.000000
127189384.000000,57277485.000000
127198665.000000,57274061.000000
127360864.000000,57221359.000000
127370386.000000,57218673.000000
127412101.000000,57208658.000000
127421805.000000,57206728.000000
127590260.000000,57180048.000000
127600084.000000,57178885.000000
127652191.000000,57174784.000000
127659798.000000,57174417.000000
127672758.000000,57174182.000000
127750340.000000,57172779.000000
127752395.000000,57171884.000000
127753016.000000,57170304.000000
127774477.000000,57167993.000000
147484309.000000,57163800.000000
155471728.000000,57162101.000000
159427974.000000,57161259.000000
Z" /> 
</g>
</g>
</g> 
</svg>
