G04 #@! TF.GenerationSoftware,KiCad,Pcbnew,5.99.0-unknown-50e22de3ba~95~ubuntu20.04.1*
G04 #@! TF.CreationDate,2021-01-21T15:56:49+09:00*
G04 #@! TF.ProjectId,OpenRover-4,4f70656e-526f-4766-9572-2d342e6b6963,rev?*
G04 #@! TF.SameCoordinates,Original*
G04 #@! TF.FileFunction,Legend,Top*
G04 #@! TF.FilePolarity,Positive*
%FSLAX46Y46*%
G04 Gerber Fmt 4.6, Leading zero omitted, Abs format (unit mm)*
G04 Created by KiCad (PCBNEW 5.99.0-unknown-50e22de3ba~95~ubuntu20.04.1) date 2021-01-21 15:56:49*
%MOMM*%
%LPD*%
G01*
G04 APERTURE LIST*
%ADD10C,0.104000*%
%ADD11C,0.150000*%
%ADD12C,0.100000*%
%ADD13C,0.075000*%
%ADD14C,0.120000*%
G04 APERTURE END LIST*
D10*
X161461980Y-71123755D02*
X161462391Y-71127677D01*
X160912229Y-72375508D02*
X160912310Y-72372645D01*
X162401305Y-72377040D02*
X162401857Y-72360256D01*
X160296107Y-72696537D02*
X160306655Y-72697394D01*
X161092423Y-71830072D02*
X160879561Y-71830072D01*
X161125741Y-71100785D02*
X161126903Y-71098824D01*
X162615413Y-72438324D02*
X162610701Y-72466717D01*
X161040608Y-70389963D02*
X161053354Y-70383420D01*
X161176872Y-70343931D02*
X161191417Y-70341790D01*
X159886274Y-72438324D02*
X159883448Y-72409773D01*
X160912450Y-72381197D02*
X160912277Y-72378360D01*
X160927250Y-72417067D02*
X160925478Y-72414863D01*
X161573742Y-71551509D02*
X161575938Y-71555368D01*
X161572096Y-71621606D02*
X161028830Y-72412363D01*
X161636029Y-70560342D02*
X161636029Y-70560342D01*
X161293181Y-70468509D02*
X161282722Y-70467315D01*
X160958091Y-72437469D02*
X160956313Y-72436896D01*
X162436916Y-72557770D02*
X162448181Y-72539636D01*
X159942799Y-72158746D02*
X160865645Y-70560342D01*
X162618240Y-72409773D02*
X162615413Y-72438324D01*
X162358194Y-72786559D02*
X162345020Y-72792261D01*
X161126903Y-71098824D02*
X161128129Y-71096914D01*
X161327433Y-70569458D02*
X161319269Y-70567134D01*
X160013227Y-72421877D02*
X160016583Y-72442112D01*
X160239629Y-72817335D02*
X160211282Y-72810761D01*
X162295790Y-72674117D02*
X162314417Y-72665692D01*
X162491141Y-72381122D02*
X162490470Y-72360722D01*
X161124646Y-71102794D02*
X161125741Y-71100785D01*
X160979944Y-72439943D02*
X160976111Y-72440057D01*
X161135159Y-71088155D02*
X161136733Y-71086570D01*
X160816149Y-71758010D02*
X160816780Y-71754052D01*
X160879561Y-71830072D02*
X160879561Y-71830072D01*
X162558874Y-72158746D02*
X162573009Y-72185162D01*
X162312236Y-72557044D02*
X162324598Y-72545441D01*
X160254862Y-72689778D02*
X160265019Y-72691960D01*
X161402703Y-71068573D02*
X161406711Y-71068953D01*
X160815767Y-71761990D02*
X160816149Y-71758010D01*
X160298053Y-72824954D02*
X160268576Y-72822079D01*
X162236663Y-72691966D02*
X162256865Y-72687282D01*
X161448319Y-70383410D02*
X161473585Y-70396907D01*
X160360998Y-72620996D02*
X160360998Y-72620996D01*
X160994946Y-72437239D02*
X160991266Y-72438247D01*
X161167758Y-71069902D02*
X161169973Y-71069462D01*
X160169260Y-72656051D02*
X160178181Y-72661008D01*
X160947529Y-70456758D02*
X160958219Y-70447050D01*
X160135186Y-72490610D02*
X160139714Y-72498163D01*
X161277078Y-70559510D02*
X161268401Y-70558804D01*
X160064766Y-72557748D02*
X160070782Y-72566451D01*
X161435297Y-70524411D02*
X161426897Y-70518592D01*
X160053501Y-72222665D02*
X160043433Y-72241482D01*
X161123618Y-71104852D02*
X161123618Y-71104852D01*
X161388623Y-70597147D02*
X161381422Y-70592828D01*
X160300840Y-72614160D02*
X160309196Y-72615956D01*
X160130519Y-72780458D02*
X160105254Y-72766962D01*
X161572037Y-71621362D02*
X161572096Y-71621606D01*
X161462440Y-70666550D02*
X161457286Y-70659591D01*
X159958609Y-72628990D02*
X159942799Y-72603540D01*
X160848703Y-71822147D02*
X160845275Y-71820117D01*
X160816718Y-71777876D02*
X160816110Y-71773934D01*
X160119715Y-72261153D02*
X160113637Y-72277239D01*
X162225337Y-72607207D02*
X162241134Y-72601278D01*
X160832968Y-71809929D02*
X160830296Y-71806892D01*
X160929125Y-72419196D02*
X160927250Y-72417067D01*
X161476660Y-70688623D02*
X161472132Y-70681069D01*
X160177104Y-72545409D02*
X160183198Y-72551319D01*
X160954544Y-72436259D02*
X160952787Y-72435558D01*
X160225092Y-72681311D02*
X160234892Y-72684450D01*
X161543454Y-70447036D02*
X161564539Y-70466827D01*
X160815748Y-71769964D02*
X160815634Y-71765978D01*
X160913949Y-72361157D02*
X160914696Y-72358296D01*
X161488538Y-70572785D02*
X161481570Y-70565081D01*
X161165568Y-71070419D02*
X161167758Y-71069902D01*
X160931100Y-72421246D02*
X160929125Y-72419196D01*
X162558874Y-72603540D02*
X162551152Y-72616428D01*
D11*
X137414000Y-69000000D02*
X159529629Y-69000000D01*
D10*
X161005552Y-72432922D02*
X161002099Y-72434574D01*
X160987533Y-72439035D02*
X160983755Y-72439601D01*
X161374083Y-70588749D02*
X161366612Y-70584912D01*
X159882506Y-72381143D02*
X159883448Y-72352513D01*
X160327992Y-72698083D02*
X160327992Y-72698083D01*
X160889893Y-70522676D02*
X160898682Y-70510801D01*
X161581888Y-71571782D02*
X161582648Y-71576032D01*
X161268401Y-70558804D02*
X161259657Y-70558379D01*
X162271272Y-72586433D02*
X162285532Y-72577563D01*
X160917072Y-72400287D02*
X160916059Y-72397670D01*
X161310258Y-70341788D02*
X161339206Y-70346533D01*
X162290395Y-72810742D02*
X162276300Y-72814256D01*
X161058163Y-70530473D02*
X161042319Y-70543495D01*
X160841976Y-71817875D02*
X160838819Y-71815425D01*
X162490470Y-72360722D02*
X162488456Y-72340379D01*
X162448181Y-72222665D02*
X161525328Y-70624246D01*
X160327992Y-72825922D02*
X160327992Y-72825922D01*
X162393016Y-72293579D02*
X162388044Y-72277257D01*
X161415945Y-70616752D02*
X161409347Y-70611507D01*
X160144456Y-72505522D02*
X160149406Y-72512682D01*
X162331644Y-72797535D02*
X162318076Y-72802377D01*
X162424636Y-72574938D02*
X162436916Y-72557770D01*
X160947590Y-72433054D02*
X160944960Y-72431667D01*
X160275283Y-72693817D02*
X160285648Y-72695343D01*
X160951041Y-72434791D02*
X160949308Y-72433957D01*
X160053501Y-72539621D02*
X160053501Y-72539621D01*
X161451935Y-70652836D02*
X161446390Y-70646288D01*
X160143527Y-72639450D02*
X160151927Y-72645269D01*
X162534623Y-72641199D02*
X162525835Y-72653071D01*
X162485100Y-72442103D02*
X162488456Y-72421869D01*
X161130766Y-71093248D02*
X161132174Y-71091495D01*
X162175519Y-72618744D02*
X162192490Y-72615963D01*
X160021282Y-72300083D02*
X160016583Y-72320145D01*
X161456860Y-71158746D02*
X161456860Y-71158746D01*
X162497472Y-72686577D02*
X162487381Y-72697025D01*
X162420748Y-72751807D02*
X162408709Y-72759574D01*
X162195028Y-72697394D02*
X162216035Y-72695346D01*
X162488456Y-72340379D02*
X162485100Y-72320149D01*
X160865645Y-70560342D02*
X160865645Y-70560342D01*
X160817572Y-71781779D02*
X160816718Y-71777876D01*
X161066319Y-70377295D02*
X161079493Y-70371592D01*
X162347142Y-72519663D02*
X162357243Y-72505535D01*
X160156658Y-72792283D02*
X160130519Y-72780458D01*
X161564539Y-70466827D02*
X161584408Y-70488092D01*
X162476986Y-72707105D02*
X162466295Y-72716812D01*
X162345020Y-72792261D02*
X162331644Y-72797535D01*
X160135186Y-72490610D02*
X160135186Y-72490610D01*
X160920787Y-72407841D02*
X160919438Y-72405377D01*
X162140686Y-72620996D02*
X162158238Y-72620429D01*
X161429240Y-71076232D02*
X161432646Y-71078228D01*
X161363403Y-70485996D02*
X161353735Y-70482545D01*
X160215423Y-72677860D02*
X160225092Y-72681311D01*
X161395236Y-70361470D02*
X161422180Y-70371584D01*
X161199038Y-70563278D02*
X161182417Y-70567136D01*
X160183198Y-72551319D02*
X160189465Y-72557011D01*
X161481570Y-70565081D02*
X161474379Y-70557635D01*
X161418363Y-71071555D02*
X161422088Y-71072891D01*
X161302651Y-70563276D02*
X161294208Y-70561749D01*
X161026441Y-72415623D02*
X161023882Y-72418691D01*
X161572037Y-71621362D02*
X161572037Y-71621362D01*
X161508045Y-70597415D02*
X161501782Y-70588956D01*
X162448181Y-72539636D02*
X162458250Y-72520802D01*
X161501782Y-70588956D02*
X161495277Y-70580745D01*
X162397234Y-72606262D02*
X162411393Y-72591111D01*
X160914696Y-72358296D02*
X160915581Y-72355447D01*
X161135068Y-70584917D02*
X161120256Y-70592834D01*
X159883448Y-72409773D02*
X159882506Y-72381143D01*
X162432535Y-72743643D02*
X162420748Y-72751807D01*
X161343935Y-70479405D02*
X161334010Y-70476581D01*
X162448181Y-72539636D02*
X162448181Y-72539636D01*
X161578357Y-71609796D02*
X161576534Y-71613763D01*
X160976111Y-72440057D02*
X160976111Y-72440057D01*
X160099823Y-72360233D02*
X160100376Y-72377019D01*
X161372935Y-70489756D02*
X161363403Y-70485996D01*
X161381422Y-70592828D02*
X161374083Y-70588749D01*
X162247643Y-72819921D02*
X162233098Y-72822062D01*
X160104446Y-72606230D02*
X160111853Y-72613413D01*
X161583119Y-71580310D02*
X161583300Y-71584601D01*
X160875468Y-71829942D02*
X160871422Y-71829554D01*
X162474360Y-72482012D02*
X162480401Y-72462169D01*
X161552408Y-71530363D02*
X161556004Y-71532702D01*
X162188702Y-72825664D02*
X162173678Y-72825906D01*
X161359012Y-70581320D02*
X161351289Y-70577975D01*
X161250838Y-70465768D02*
X161250838Y-70465768D01*
X162374784Y-72245355D02*
X162366497Y-72229868D01*
X161395680Y-70601701D02*
X161388623Y-70597147D01*
X161250838Y-70465768D02*
X161250838Y-70465768D01*
X160260557Y-72601258D02*
X160268398Y-72604351D01*
X161398650Y-71068445D02*
X161402703Y-71068573D01*
X162209109Y-72612109D02*
X162225337Y-72607207D01*
X161120256Y-70592834D02*
X161105996Y-70601707D01*
X159928668Y-72185162D02*
X159942799Y-72158746D01*
X160915581Y-72355447D02*
X160915581Y-72355447D01*
X161519368Y-71521173D02*
X161519368Y-71521173D01*
X160983755Y-72439601D02*
X160979944Y-72439943D01*
X161409347Y-70611507D02*
X161402590Y-70606489D01*
X161575938Y-71555368D02*
X161577863Y-71559354D01*
X160830296Y-71806892D02*
X160827806Y-71803672D01*
X160343446Y-72620428D02*
X160352191Y-72620854D01*
X161147939Y-70482529D02*
X161128738Y-70489735D01*
X161167664Y-70476570D02*
X161147939Y-70482529D01*
X161574427Y-71617623D02*
X161572037Y-71621362D01*
X159886274Y-72323962D02*
X159890984Y-72295570D01*
X161250849Y-70558237D02*
X161233294Y-70558805D01*
X161451531Y-70536886D02*
X161443510Y-70530510D01*
X161528158Y-71521777D02*
X161532453Y-71522522D01*
X161106438Y-70361476D02*
X161120191Y-70357072D01*
X161444898Y-71088244D02*
X161447567Y-71091230D01*
X161497908Y-70412037D02*
X161521221Y-70428760D01*
X160845275Y-71820117D02*
X160841976Y-71817875D01*
X161434742Y-70633823D02*
X161428648Y-70627913D01*
X160935343Y-72425094D02*
X160933173Y-72423213D01*
X161151039Y-71076082D02*
X161153016Y-71075062D01*
X160913171Y-72386807D02*
X160912749Y-72384014D01*
X160987613Y-70606094D02*
X160976347Y-70624231D01*
X160306655Y-72697394D02*
X160317285Y-72697910D01*
X160284413Y-72609775D02*
X160292578Y-72612099D01*
X160914378Y-72392309D02*
X160913715Y-72389574D01*
X162382209Y-72620362D02*
X162397234Y-72606262D01*
X161580838Y-71567576D02*
X161581888Y-71571782D01*
X160011213Y-72401530D02*
X160013227Y-72421877D01*
X161155028Y-71074110D02*
X161157075Y-71073228D01*
X161128738Y-70489735D02*
X161110112Y-70498161D01*
X160965273Y-72439161D02*
X160963470Y-72438825D01*
X161259657Y-70558379D02*
X161250849Y-70558237D01*
X160100376Y-72343447D02*
X160099823Y-72360233D01*
X161181338Y-71068445D02*
X161181338Y-71068445D01*
X161163402Y-71071011D02*
X161165568Y-71070419D01*
X161562700Y-71538093D02*
X161565774Y-71541129D01*
X160183602Y-72802398D02*
X160156658Y-72792283D01*
X160292578Y-72612099D02*
X160300840Y-72614160D01*
X161027294Y-70557597D02*
X161013135Y-70572749D01*
X160933173Y-72423213D02*
X160931100Y-72421246D01*
X159890984Y-72466717D02*
X159886274Y-72438324D01*
X162543066Y-72628983D02*
X162534623Y-72641199D01*
X160961671Y-72438432D02*
X160959878Y-72437981D01*
X161174466Y-71068814D02*
X161176740Y-71068610D01*
X160867433Y-71828916D02*
X160863510Y-71828031D01*
X159916421Y-72212131D02*
X159928668Y-72185162D01*
X160898682Y-70510801D02*
X160907809Y-70499276D01*
X161456860Y-71158746D02*
X161292559Y-71521173D01*
X162488456Y-72421869D02*
X162490470Y-72401523D01*
X161525328Y-70624246D02*
X161519824Y-70615064D01*
X161452360Y-71097742D02*
X161454451Y-71101224D01*
X161440658Y-70639949D02*
X161434742Y-70633823D01*
X160154559Y-72519642D02*
X160159911Y-72526397D01*
X162595624Y-72522711D02*
X162585259Y-72550155D01*
X160127293Y-72626977D02*
X160135314Y-72633352D01*
X160998560Y-72436014D02*
X160994946Y-72437239D01*
X162366497Y-72229883D02*
X161891972Y-71407968D01*
X160976347Y-70624231D02*
X160053501Y-72222665D01*
X161891972Y-71407968D02*
X161891972Y-71407968D01*
X160352191Y-72620854D02*
X160360998Y-72620996D01*
X160827806Y-71803672D02*
X160825510Y-71800272D01*
X159906058Y-72522711D02*
X159897579Y-72494872D01*
X161169973Y-71069462D02*
X161172209Y-71069099D01*
X160927043Y-70477290D02*
X160937134Y-70466840D01*
X160237763Y-72590484D02*
X160245234Y-72594321D01*
X161459295Y-71112207D02*
X161460431Y-71116008D01*
X162480401Y-72300089D02*
X162474360Y-72280254D01*
X160991978Y-70420215D02*
X161003765Y-70412050D01*
X160209256Y-72572744D02*
X160216165Y-72577532D01*
X161536664Y-71523551D02*
X161540777Y-71524857D01*
X162551152Y-72616428D02*
X162543066Y-72628983D01*
X161172209Y-71069099D02*
X161174466Y-71068814D01*
X161216010Y-70560493D02*
X161199038Y-70563278D01*
X160139714Y-72498163D02*
X160144456Y-72505522D01*
X159883448Y-72352513D02*
X159886274Y-72323962D01*
X160816110Y-71773934D02*
X160815748Y-71769964D01*
X160196503Y-72670036D02*
X160205891Y-72674100D01*
X161055287Y-70646293D02*
X161044393Y-70659596D01*
X162318076Y-72802377D02*
X162304323Y-72806780D01*
X160999892Y-70588924D02*
X160987613Y-70606094D01*
X162336247Y-72532973D02*
X162347142Y-72519663D01*
X160912277Y-72378360D02*
X160912229Y-72375508D01*
X162276590Y-72681323D02*
X162295790Y-72674117D01*
X160937609Y-72426883D02*
X160935343Y-72425094D01*
X161015292Y-72426717D02*
X161012159Y-72428991D01*
X161428648Y-70627913D02*
X161422380Y-70622222D01*
X160309196Y-72615956D02*
X160317639Y-72617484D01*
X160937134Y-70466840D02*
X160947529Y-70456758D01*
D11*
X159494371Y-77589568D02*
X165471000Y-77580787D01*
D10*
X161559440Y-71535281D02*
X161562700Y-71538093D01*
X160189465Y-72557011D02*
X160195901Y-72562481D01*
X162173678Y-72825906D02*
X162173678Y-72825922D01*
X160912310Y-72372645D02*
X160912521Y-72369774D01*
X161525328Y-70624246D02*
X161525328Y-70624246D01*
X162408709Y-72759574D02*
X162396425Y-72766937D01*
X161292559Y-71521173D02*
X161292559Y-71521173D01*
X161583193Y-71588892D02*
X161582799Y-71593165D01*
X160939968Y-72428578D02*
X160937609Y-72426883D01*
X160252834Y-72597913D02*
X160260557Y-72601258D01*
X161636029Y-70560342D02*
X162558874Y-72158746D01*
X161166189Y-70572044D02*
X161150392Y-70577979D01*
X159890984Y-72295570D02*
X159897579Y-72267414D01*
X162585259Y-72550155D02*
X162573009Y-72577124D01*
X161426897Y-70518592D02*
X161418318Y-70513057D01*
X160917265Y-70488103D02*
X160927043Y-70477290D01*
X160013227Y-72340377D02*
X160011213Y-72360723D01*
X161044393Y-70659596D02*
X161034292Y-70673713D01*
X160108664Y-72426911D02*
X160113637Y-72443232D01*
X161250838Y-70465768D02*
X161229501Y-70466458D01*
X161145343Y-71079542D02*
X161147201Y-71078323D01*
X161366612Y-70584912D02*
X161359012Y-70581320D01*
D11*
X137414000Y-69000000D02*
X137414000Y-57658000D01*
D10*
X162381975Y-72459326D02*
X162388051Y-72443241D01*
X160119715Y-72459319D02*
X160126898Y-72475128D01*
X162558874Y-72158746D02*
X162558874Y-72158746D01*
X161406711Y-71068953D02*
X161410664Y-71069581D01*
X161092108Y-70507778D02*
X161074775Y-70518558D01*
X161582799Y-71593165D02*
X161582117Y-71597407D01*
X161140034Y-71083576D02*
X161141758Y-71082169D01*
X161422380Y-70622222D02*
X161415945Y-70616752D01*
X160245234Y-72594321D02*
X160252834Y-72597913D01*
X159897579Y-72494872D02*
X159890984Y-72466717D01*
X161123618Y-71104852D02*
X161124646Y-71102794D01*
X162304323Y-72806780D02*
X162290395Y-72810742D01*
X162516707Y-72664595D02*
X162507250Y-72675765D01*
X160838819Y-71815425D02*
X160835812Y-71812775D01*
X159994426Y-72675783D02*
X159975841Y-72653085D01*
X161432646Y-71078228D02*
X161435925Y-71080432D01*
X162458250Y-72520802D02*
X162466976Y-72501575D01*
X161176740Y-71068610D02*
X161179032Y-71068486D01*
X162383906Y-72773892D02*
X162371159Y-72780435D01*
X161157075Y-71073228D02*
X161159154Y-71072417D01*
X162411393Y-72591111D02*
X162424636Y-72574938D01*
X160823436Y-71796750D02*
X160821604Y-71793127D01*
X160230424Y-72586404D02*
X160237763Y-72590484D01*
X160105254Y-72766962D02*
X160080930Y-72751833D01*
X160821810Y-71738672D02*
X160821810Y-71738672D01*
X162324598Y-72545441D02*
X162336247Y-72532973D01*
X162349753Y-72645297D02*
X162366365Y-72633383D01*
X160126898Y-72245347D02*
X160119715Y-72261153D01*
X159942799Y-72603540D02*
X159928668Y-72577124D01*
X161319269Y-70567134D02*
X161311006Y-70565073D01*
X161028830Y-72412363D02*
X161026441Y-72415623D01*
X161138358Y-71085044D02*
X161140034Y-71083576D01*
X160057617Y-72735111D02*
X160035383Y-72716836D01*
X161021164Y-72421565D02*
X161018297Y-72424241D01*
X160010542Y-72381126D02*
X160011213Y-72401530D01*
X162192490Y-72615963D02*
X162209109Y-72612109D01*
X162371159Y-72780435D02*
X162358194Y-72786559D01*
X161206094Y-70340115D02*
X161220896Y-70338913D01*
X162366511Y-72490610D02*
X162366511Y-72490610D01*
X160149406Y-72512682D02*
X160154559Y-72519642D01*
X162485100Y-72320149D02*
X162480401Y-72300089D01*
X162332420Y-72656076D02*
X162349753Y-72645297D01*
X160865645Y-70560342D02*
X160873366Y-70547451D01*
X161280779Y-70338913D02*
X161310258Y-70341788D01*
X160119471Y-72620330D02*
X160127293Y-72626977D01*
X162466976Y-72501575D02*
X162474360Y-72482012D01*
X160991266Y-72438247D02*
X160987533Y-72439035D01*
X160825510Y-71800272D02*
X160823436Y-71796750D01*
X160881452Y-70534894D02*
X160889893Y-70522676D01*
X160949308Y-72433957D02*
X160947590Y-72433054D01*
X159928668Y-72577124D02*
X159916421Y-72550155D01*
X161025025Y-70688623D02*
X160135186Y-72229868D01*
X161025025Y-70688623D02*
X161025025Y-70688623D01*
X160043433Y-72241482D02*
X160034707Y-72260695D01*
X161191417Y-70341790D02*
X161206094Y-70340115D01*
X162619182Y-72381143D02*
X162618240Y-72409773D01*
X160285648Y-72695343D02*
X160296107Y-72696537D01*
X160135186Y-72229868D02*
X160126898Y-72245347D01*
X160947590Y-72433054D02*
X160947590Y-72433054D01*
X162490470Y-72401523D02*
X162491141Y-72381122D01*
D11*
X166597000Y-75992000D02*
X165471000Y-77580787D01*
D10*
X160863510Y-71828031D02*
X160859666Y-71826907D01*
X161532453Y-71522522D02*
X161536664Y-71523551D01*
X160327992Y-72825922D02*
X160298053Y-72824954D01*
X161110112Y-70498161D02*
X161092108Y-70507778D01*
X160104796Y-72410404D02*
X160108664Y-72426911D01*
X161013135Y-70572749D02*
X160999892Y-70588924D01*
X162585259Y-72212131D02*
X162595624Y-72239575D01*
X160034707Y-72501577D02*
X160043433Y-72520796D01*
X161353735Y-70482545D02*
X161343935Y-70479405D01*
X160818793Y-71746247D02*
X160820176Y-71742424D01*
X162173678Y-72825906D02*
X162173678Y-72825906D01*
X162173691Y-72698083D02*
X162173691Y-72698083D01*
X162480401Y-72462169D02*
X162485100Y-72442103D01*
X160912864Y-72366900D02*
X160913339Y-72364026D01*
X161313809Y-70471893D02*
X161303545Y-70470036D01*
X160171188Y-72539284D02*
X160177104Y-72545409D01*
X160821810Y-71738672D02*
X161123618Y-71104852D01*
X161575938Y-71555368D02*
X161575938Y-71555368D01*
X161042319Y-70543495D02*
X161027294Y-70557597D01*
X160967079Y-72439441D02*
X160965273Y-72439161D01*
X161579896Y-71605738D02*
X161578357Y-71609796D01*
X160815634Y-71765978D02*
X160815767Y-71761990D01*
X161462484Y-71135564D02*
X161462164Y-71139506D01*
X162458250Y-72241486D02*
X162448181Y-72222665D01*
X161891972Y-71407968D02*
X161476660Y-70688623D01*
X160980452Y-70428773D02*
X160991978Y-70420215D01*
X162401857Y-72360256D02*
X162401304Y-72343471D01*
X161462560Y-71131618D02*
X161462484Y-71135564D01*
X160014296Y-72697047D02*
X159994426Y-72675783D01*
X161150392Y-70577979D02*
X161135068Y-70584917D01*
X161179032Y-71068486D02*
X161181338Y-71068445D01*
X161250849Y-70558237D02*
X161250849Y-70558237D01*
X162604105Y-72494872D02*
X162595624Y-72522711D01*
X160913339Y-72364026D02*
X160913949Y-72361157D01*
X160234892Y-72684450D02*
X160244817Y-72687273D01*
X160334769Y-72619723D02*
X160343446Y-72620428D01*
X161462391Y-71127677D02*
X161462560Y-71131618D01*
X160873366Y-70547451D02*
X160881452Y-70534894D01*
X161409565Y-70507808D02*
X161400644Y-70502850D01*
X161398650Y-71068445D02*
X161398650Y-71068445D01*
X159942799Y-72603540D02*
X159942799Y-72603540D01*
X162357243Y-72505535D02*
X162366511Y-72490610D01*
X160187264Y-72665671D02*
X160196503Y-72670036D01*
X162173678Y-72825922D02*
X160327992Y-72825922D01*
X161473585Y-70396907D02*
X161497908Y-70412037D01*
X162474360Y-72280254D02*
X162466976Y-72260701D01*
X161523792Y-71521325D02*
X161528158Y-71521777D01*
X160011213Y-72360723D02*
X160010542Y-72381126D01*
X161002099Y-72434574D02*
X160998560Y-72436014D01*
X161418318Y-70513057D02*
X161409565Y-70507808D01*
X160108664Y-72293557D02*
X160104796Y-72310063D01*
X160083548Y-72583121D02*
X160090287Y-72591080D01*
X162610701Y-72466717D02*
X162604105Y-72494872D01*
X160113637Y-72277239D02*
X160108664Y-72293557D01*
X160942419Y-72430174D02*
X160939968Y-72428578D01*
X161458417Y-71154998D02*
X161456860Y-71158746D01*
X161147201Y-71078323D02*
X161149101Y-71077169D01*
X161565774Y-71541129D02*
X161568647Y-71544382D01*
X162455317Y-72726141D02*
X162444061Y-72735086D01*
X161556004Y-71532702D02*
X161559440Y-71535281D01*
X161034292Y-70673713D02*
X161025025Y-70688623D01*
X161120191Y-70357072D02*
X161134119Y-70353111D01*
X160100376Y-72377019D02*
X160102033Y-72393758D01*
X160835812Y-71812775D02*
X160832968Y-71809929D01*
X161576534Y-71613763D02*
X161574427Y-71617623D01*
X160922244Y-72410246D02*
X160920787Y-72407841D01*
X160053501Y-72539621D02*
X160059004Y-72548803D01*
X160268576Y-72822079D02*
X160239629Y-72817335D01*
X161128129Y-71096914D02*
X161129417Y-71095055D01*
X159975841Y-72653085D02*
X159958609Y-72628990D01*
X161495277Y-70580745D02*
X161488538Y-70572785D01*
X162374795Y-72475131D02*
X162381975Y-72459326D01*
X161548662Y-71528270D02*
X161552408Y-71530363D01*
X160913715Y-72389574D02*
X160913171Y-72386807D01*
X162444061Y-72735086D02*
X162432535Y-72743643D01*
X161582117Y-71597407D02*
X161581149Y-71601603D01*
X161161263Y-71071678D02*
X161163402Y-71071011D01*
X160034707Y-72260695D02*
X160027323Y-72280247D01*
X161133639Y-71089797D02*
X161135159Y-71088155D01*
X162396887Y-72410420D02*
X162399649Y-72393777D01*
X161003765Y-70412050D02*
X161015804Y-70404283D01*
X161012159Y-72428991D02*
X161008909Y-72431060D01*
X162299200Y-72567759D02*
X162312236Y-72557044D01*
X161467390Y-70673711D02*
X161462440Y-70666550D01*
X160956313Y-72436896D02*
X160954544Y-72436259D01*
X161235813Y-70338188D02*
X161250838Y-70337946D01*
X162466295Y-72716812D02*
X162455317Y-72726141D01*
X160969196Y-70437720D02*
X160980452Y-70428773D01*
X161459353Y-70543534D02*
X161451531Y-70536886D01*
X160317639Y-72617484D02*
X160326165Y-72618741D01*
X162610701Y-72295570D02*
X162615413Y-72323962D01*
X160043433Y-72520796D02*
X160053501Y-72539621D01*
X159906058Y-72239575D02*
X159916421Y-72212131D01*
X162396425Y-72766937D02*
X162383906Y-72773892D01*
X160968887Y-72439667D02*
X160967079Y-72439441D01*
X160907809Y-70499276D02*
X160917265Y-70488103D01*
X162233098Y-72822062D02*
X162218420Y-72823737D01*
X160970696Y-72439840D02*
X160968887Y-72439667D01*
X161568647Y-71544382D02*
X161571308Y-71547844D01*
X160080930Y-72751833D02*
X160057617Y-72735111D01*
D11*
X166604000Y-58658000D02*
X166597000Y-75992000D01*
D10*
X160879561Y-71830072D02*
X160875468Y-71829942D01*
X161162468Y-70346535D02*
X161176872Y-70343931D01*
X161143528Y-71080824D02*
X161145343Y-71079542D01*
X161519824Y-70615064D02*
X161514061Y-70606119D01*
X160135314Y-72633352D02*
X160143527Y-72639450D01*
X162218420Y-72823737D02*
X162203619Y-72824939D01*
X160915160Y-72395009D02*
X160914378Y-72392309D01*
D11*
X165354000Y-57658000D02*
X137414000Y-57658000D01*
D10*
X160216165Y-72577532D02*
X160223223Y-72582086D01*
X160268398Y-72604351D02*
X160276351Y-72607191D01*
X161250838Y-70337946D02*
X161280779Y-70338913D01*
X162276300Y-72814256D02*
X162262046Y-72817317D01*
X162487381Y-72697025D02*
X162476986Y-72707105D01*
X161208494Y-70468506D02*
X161187865Y-70471886D01*
X161414552Y-71070450D02*
X161418363Y-71071555D01*
X161015804Y-70404283D02*
X161028088Y-70396919D01*
X161382323Y-70493821D02*
X161372935Y-70489756D01*
X161132174Y-71091495D02*
X161133639Y-71089797D01*
X161602991Y-70510793D02*
X161620221Y-70534889D01*
X161459725Y-71151189D02*
X161458417Y-71154998D01*
X160027323Y-72482018D02*
X160034707Y-72501577D01*
X161442061Y-71085446D02*
X161444898Y-71088244D01*
X161577863Y-71559354D02*
X161579496Y-71563428D01*
X161391561Y-70498187D02*
X161382323Y-70493821D01*
X161159154Y-71072417D02*
X161161263Y-71071678D01*
X161367555Y-70353106D02*
X161395236Y-70361470D01*
X161540777Y-71524857D02*
X161544781Y-71526432D01*
X160195901Y-72562481D02*
X160202499Y-72567726D01*
X162256459Y-72594346D02*
X162271272Y-72586433D01*
X161220896Y-70338913D02*
X161235813Y-70338188D01*
X161402590Y-70606489D02*
X161395680Y-70601701D01*
X161053354Y-70383420D02*
X161066319Y-70377295D01*
X162366497Y-72229868D02*
X162366497Y-72229883D01*
X161294208Y-70561749D02*
X161285682Y-70560492D01*
X162615413Y-72323962D02*
X162618240Y-72352513D01*
X162573009Y-72577124D02*
X162558874Y-72603540D01*
X161435925Y-71080432D02*
X161439067Y-71082840D01*
X160016583Y-72320145D02*
X160013227Y-72340377D01*
X161454451Y-71101224D02*
X161456304Y-71104803D01*
X160016583Y-72442112D02*
X160021282Y-72462178D01*
X160126898Y-72475128D02*
X160135186Y-72490610D01*
X160317285Y-72697910D02*
X160327992Y-72698083D01*
X160178181Y-72661008D02*
X160187264Y-72665671D01*
X161410664Y-71069581D02*
X161414552Y-71070450D01*
X161303545Y-70470036D02*
X161293181Y-70468509D01*
X161153016Y-71075062D02*
X161155028Y-71074110D01*
X162388044Y-72277257D02*
X162381967Y-72261167D01*
X161229501Y-70466458D02*
X161208494Y-70468506D01*
X160053501Y-72222665D02*
X160053501Y-72222665D01*
X161292559Y-71521173D02*
X161519368Y-71521173D01*
X162399646Y-72326733D02*
X162396884Y-72310086D01*
X160027323Y-72280247D02*
X160021282Y-72300083D01*
X160859666Y-71826907D02*
X160855909Y-71825547D01*
X160159911Y-72526397D02*
X160165455Y-72532945D01*
X161583300Y-71584601D02*
X161583193Y-71588892D01*
X161457919Y-71108468D02*
X161459295Y-71112207D01*
X161584408Y-70488092D02*
X161602991Y-70510793D01*
X162256865Y-72687282D02*
X162276590Y-72681323D01*
X161023882Y-72418691D02*
X161021164Y-72421565D01*
X161285682Y-70560492D02*
X161277078Y-70559510D01*
X161334010Y-70476581D02*
X161323966Y-70474076D01*
X160021282Y-72462178D02*
X160027323Y-72482018D01*
X160135186Y-72229868D02*
X160135186Y-72229868D01*
X160111853Y-72613413D02*
X160119471Y-72620330D01*
X161335495Y-70572041D02*
X161327433Y-70569458D01*
X160202499Y-72567726D02*
X160209256Y-72572744D01*
X161456304Y-71104803D02*
X161457919Y-71108468D01*
X161008909Y-72431060D02*
X161005552Y-72432922D01*
X160918199Y-72402858D02*
X160917072Y-72400287D01*
X161187865Y-70471886D02*
X161167664Y-70476570D01*
X161476660Y-70688623D02*
X161476660Y-70688623D01*
X161092869Y-70366318D02*
X161106438Y-70361476D01*
X162595624Y-72239575D02*
X162604105Y-72267414D01*
X160925478Y-72414863D02*
X160923808Y-72412588D01*
X160090287Y-72591080D02*
X160097255Y-72598784D01*
X162366511Y-72490610D02*
X162374795Y-72475131D01*
X160916059Y-72397670D02*
X160915160Y-72395009D01*
X161148215Y-70349597D02*
X161162468Y-70346535D01*
X160816780Y-71754052D02*
X160817661Y-71750126D01*
X161461598Y-71143431D02*
X161460785Y-71147330D01*
X161519368Y-71521173D02*
X161523792Y-71521325D01*
X161452360Y-71097742D02*
X161452360Y-71097742D01*
X160326165Y-72618741D02*
X160334769Y-72619723D01*
X162448181Y-72222665D02*
X162448181Y-72222665D01*
X161079296Y-70622229D02*
X161066935Y-70633830D01*
X160265019Y-72691960D02*
X160275283Y-72693817D01*
X161351289Y-70577975D02*
X161343449Y-70574881D01*
X160070782Y-72566451D02*
X160077044Y-72574910D01*
X160104796Y-72310063D02*
X160102033Y-72326708D01*
X161400644Y-70502850D02*
X161391561Y-70498187D01*
X161450058Y-71094398D02*
X161452360Y-71097742D01*
X161129417Y-71095055D02*
X161130766Y-71093248D01*
X160821604Y-71793127D02*
X160820016Y-71789417D01*
X160919438Y-72405377D02*
X160918199Y-72402858D01*
X161582648Y-71576032D02*
X161583119Y-71580310D01*
X160944960Y-72431667D02*
X160942419Y-72430174D01*
X161339206Y-70346533D02*
X161367555Y-70353106D01*
X160952787Y-72435558D02*
X160951041Y-72434791D01*
X161457286Y-70659591D02*
X161451935Y-70652836D01*
X161028088Y-70396919D02*
X161040608Y-70389963D01*
X161472132Y-70681069D02*
X161467390Y-70673711D01*
X160974309Y-72440034D02*
X160972503Y-72439962D01*
X162525835Y-72653071D02*
X162516707Y-72664595D01*
X161018297Y-72424241D02*
X161015292Y-72426717D01*
X162366497Y-72229868D02*
X162366497Y-72229868D01*
X159916421Y-72550155D02*
X159906058Y-72522711D01*
X160059004Y-72548803D02*
X160064766Y-72557748D01*
X161521221Y-70428760D02*
X161543454Y-70447036D01*
X161474379Y-70557635D02*
X161466971Y-70550452D01*
X161447567Y-71091230D02*
X161450058Y-71094398D01*
D11*
X159529629Y-69000000D02*
X159494371Y-77589568D01*
D10*
X160035383Y-72716836D02*
X160014296Y-72697047D01*
X162573009Y-72185162D02*
X162585259Y-72212131D01*
X162507250Y-72675765D02*
X162497472Y-72686577D01*
X160360998Y-72620996D02*
X162140686Y-72620996D01*
X161066935Y-70633830D02*
X161055287Y-70646293D01*
X161446390Y-70646288D02*
X161440658Y-70639949D01*
X160327992Y-72698083D02*
X162173691Y-72698083D01*
X160959878Y-72437981D02*
X160958091Y-72437469D01*
X161136733Y-71086570D02*
X161138358Y-71085044D01*
X161461326Y-71119862D02*
X161461980Y-71123755D01*
X160160506Y-72650804D02*
X160169260Y-72656051D01*
X160923808Y-72412588D02*
X160922244Y-72410246D01*
X160871422Y-71829554D02*
X160867433Y-71828916D01*
X160102033Y-72393758D02*
X160104796Y-72410404D01*
X162558874Y-72603540D02*
X162558874Y-72603540D01*
X160102033Y-72326708D02*
X160100376Y-72343447D01*
X161250838Y-70337946D02*
X161250838Y-70337946D01*
X161182417Y-70567136D02*
X161166189Y-70572044D01*
X162466976Y-72260701D02*
X162458250Y-72241486D01*
X162314417Y-72665692D02*
X162332420Y-72656076D01*
X161074775Y-70518558D02*
X161058163Y-70530473D01*
X161311006Y-70565073D02*
X161302651Y-70563276D01*
X161181338Y-71068445D02*
X161398650Y-71068445D01*
X162262046Y-72817317D02*
X162247643Y-72819921D01*
X160825510Y-71800272D02*
X160825510Y-71800272D01*
X162285532Y-72577563D02*
X162299200Y-72567759D01*
X161134119Y-70353111D02*
X161148215Y-70349597D01*
X160276351Y-72607191D02*
X160284413Y-72609775D01*
X160820016Y-71789417D02*
X160818672Y-71785630D01*
X160976347Y-70624231D02*
X160976347Y-70624231D01*
X160852252Y-71823959D02*
X160848703Y-71822147D01*
X162140686Y-72620996D02*
X162140686Y-72620996D01*
X161571308Y-71547844D02*
X161573742Y-71551509D01*
X161028830Y-72412363D02*
X161028830Y-72412363D01*
X161620221Y-70534889D02*
X161636029Y-70560342D01*
X162393021Y-72426924D02*
X162396887Y-72410420D01*
X160151927Y-72645269D02*
X160160506Y-72650804D01*
X160820176Y-71742424D02*
X160821810Y-71738672D01*
X160972503Y-72439962D02*
X160970696Y-72439840D01*
X162401304Y-72343471D02*
X162399646Y-72326733D01*
X161581149Y-71601603D02*
X161579896Y-71605738D01*
X161462164Y-71139506D02*
X161461598Y-71143431D01*
X161544781Y-71526432D02*
X161548662Y-71528270D01*
X161233294Y-70558805D02*
X161216010Y-70560493D01*
X161092423Y-71830072D02*
X161092423Y-71830072D01*
X161422180Y-70371584D02*
X161448319Y-70383410D01*
X159897579Y-72267414D02*
X159906058Y-72239575D01*
X161425717Y-71074452D02*
X161429240Y-71076232D01*
X161514061Y-70606119D02*
X161508045Y-70597415D01*
X160817661Y-71750126D02*
X160818793Y-71746247D01*
X162388051Y-72443241D02*
X162393021Y-72426924D01*
X160915581Y-72355447D02*
X161092423Y-71830072D01*
X162216035Y-72695346D02*
X162236663Y-72691966D01*
X160205891Y-72674100D02*
X160215423Y-72677860D01*
X161079493Y-70371592D02*
X161092869Y-70366318D01*
X160976111Y-72440057D02*
X160974309Y-72440034D01*
X161323966Y-70474076D02*
X161313809Y-70471893D01*
X160165455Y-72532945D02*
X160171188Y-72539284D01*
X161443510Y-70530510D02*
X161435297Y-70524411D01*
X162604105Y-72267414D02*
X162610701Y-72295570D01*
X162396884Y-72310086D02*
X162393016Y-72293579D01*
X161422088Y-71072891D02*
X161425717Y-71074452D01*
X162381967Y-72261167D02*
X162374784Y-72245355D01*
X161149101Y-71077169D02*
X161151039Y-71076082D01*
X160244817Y-72687273D02*
X160254862Y-72689778D01*
X160223223Y-72582086D02*
X160230424Y-72586404D01*
X160855909Y-71825547D02*
X160852252Y-71823959D01*
X161439067Y-71082840D02*
X161442061Y-71085446D01*
X160077044Y-72574910D02*
X160083548Y-72583121D01*
X159942799Y-72158746D02*
X159942799Y-72158746D01*
X161466971Y-70550452D02*
X161459353Y-70543534D01*
X161141758Y-71082169D02*
X161143528Y-71080824D01*
X161092330Y-70611514D02*
X161079296Y-70622229D01*
X160912749Y-72384014D02*
X160912450Y-72381197D01*
X160211282Y-72810761D02*
X160183602Y-72802398D01*
X161460785Y-71147330D02*
X161459725Y-71151189D01*
X162241134Y-72601278D02*
X162256459Y-72594346D01*
X161105996Y-70601707D02*
X161092330Y-70611514D01*
X160097255Y-72598784D02*
X160104446Y-72606230D01*
X161261544Y-70465941D02*
X161250838Y-70465768D01*
X162158238Y-72620429D02*
X162175519Y-72618744D01*
D11*
X165354000Y-57658000D02*
X166604000Y-58658000D01*
D10*
X162399649Y-72393777D02*
X162401305Y-72377040D01*
X161460431Y-71116008D02*
X161461326Y-71119862D01*
X161579496Y-71563428D02*
X161580838Y-71567576D01*
X160958219Y-70447050D02*
X160969196Y-70437720D01*
X160963470Y-72438825D02*
X160961671Y-72438432D01*
X161282722Y-70467315D02*
X161272174Y-70466458D01*
X161343449Y-70574881D02*
X161335495Y-70572041D01*
X160113637Y-72443232D02*
X160119715Y-72459319D01*
X162366365Y-72633383D02*
X162382209Y-72620362D01*
X160818672Y-71785630D02*
X160817572Y-71781779D01*
X161272174Y-70466458D02*
X161261544Y-70465941D01*
X160912521Y-72369774D02*
X160912864Y-72366900D01*
X162618240Y-72352513D02*
X162619182Y-72381143D01*
X162173691Y-72698083D02*
X162195028Y-72697394D01*
X162203619Y-72824939D02*
X162188702Y-72825664D01*
D12*
X128079047Y-73471428D02*
X128840952Y-73471428D01*
X128460000Y-73852380D02*
X128460000Y-73090476D01*
X130095238Y-73626190D02*
X130095238Y-73126190D01*
X130285714Y-73126190D01*
X130333333Y-73150000D01*
X130357142Y-73173809D01*
X130380952Y-73221428D01*
X130380952Y-73292857D01*
X130357142Y-73340476D01*
X130333333Y-73364285D01*
X130285714Y-73388095D01*
X130095238Y-73388095D01*
X130809523Y-73292857D02*
X130809523Y-73626190D01*
X130595238Y-73292857D02*
X130595238Y-73554761D01*
X130619047Y-73602380D01*
X130666666Y-73626190D01*
X130738095Y-73626190D01*
X130785714Y-73602380D01*
X130809523Y-73578571D01*
X131119047Y-73626190D02*
X131071428Y-73602380D01*
X131047619Y-73554761D01*
X131047619Y-73126190D01*
X131285714Y-73602380D02*
X131333333Y-73626190D01*
X131428571Y-73626190D01*
X131476190Y-73602380D01*
X131500000Y-73554761D01*
X131500000Y-73530952D01*
X131476190Y-73483333D01*
X131428571Y-73459523D01*
X131357142Y-73459523D01*
X131309523Y-73435714D01*
X131285714Y-73388095D01*
X131285714Y-73364285D01*
X131309523Y-73316666D01*
X131357142Y-73292857D01*
X131428571Y-73292857D01*
X131476190Y-73316666D01*
X131904761Y-73602380D02*
X131857142Y-73626190D01*
X131761904Y-73626190D01*
X131714285Y-73602380D01*
X131690476Y-73554761D01*
X131690476Y-73364285D01*
X131714285Y-73316666D01*
X131761904Y-73292857D01*
X131857142Y-73292857D01*
X131904761Y-73316666D01*
X131928571Y-73364285D01*
X131928571Y-73411904D01*
X131690476Y-73459523D01*
X133413047Y-73150000D02*
X133365428Y-73126190D01*
X133294000Y-73126190D01*
X133222571Y-73150000D01*
X133174952Y-73197619D01*
X133151142Y-73245238D01*
X133127333Y-73340476D01*
X133127333Y-73411904D01*
X133151142Y-73507142D01*
X133174952Y-73554761D01*
X133222571Y-73602380D01*
X133294000Y-73626190D01*
X133341619Y-73626190D01*
X133413047Y-73602380D01*
X133436857Y-73578571D01*
X133436857Y-73411904D01*
X133341619Y-73411904D01*
X133651142Y-73626190D02*
X133651142Y-73126190D01*
X133936857Y-73626190D01*
X133936857Y-73126190D01*
X134174952Y-73626190D02*
X134174952Y-73126190D01*
X134294000Y-73126190D01*
X134365428Y-73150000D01*
X134413047Y-73197619D01*
X134436857Y-73245238D01*
X134460666Y-73340476D01*
X134460666Y-73411904D01*
X134436857Y-73507142D01*
X134413047Y-73554761D01*
X134365428Y-73602380D01*
X134294000Y-73626190D01*
X134174952Y-73626190D01*
D13*
X127114285Y-71691666D02*
X127114285Y-71858333D01*
X127376190Y-71858333D02*
X126876190Y-71858333D01*
X126876190Y-71620238D01*
X127376190Y-71167857D02*
X127376190Y-71453571D01*
X127376190Y-71310714D02*
X126876190Y-71310714D01*
X126947619Y-71358333D01*
X126995238Y-71405952D01*
X127019047Y-71453571D01*
X144966571Y-60630571D02*
X144942761Y-60654380D01*
X144871333Y-60678190D01*
X144823714Y-60678190D01*
X144752285Y-60654380D01*
X144704666Y-60606761D01*
X144680857Y-60559142D01*
X144657047Y-60463904D01*
X144657047Y-60392476D01*
X144680857Y-60297238D01*
X144704666Y-60249619D01*
X144752285Y-60202000D01*
X144823714Y-60178190D01*
X144871333Y-60178190D01*
X144942761Y-60202000D01*
X144966571Y-60225809D01*
X145442761Y-60678190D02*
X145157047Y-60678190D01*
X145299904Y-60678190D02*
X145299904Y-60178190D01*
X145252285Y-60249619D01*
X145204666Y-60297238D01*
X145157047Y-60321047D01*
X145918952Y-60678190D02*
X145633238Y-60678190D01*
X145776095Y-60678190D02*
X145776095Y-60178190D01*
X145728476Y-60249619D01*
X145680857Y-60297238D01*
X145633238Y-60321047D01*
X157726190Y-63619047D02*
X157226190Y-63619047D01*
X157226190Y-63500000D01*
X157250000Y-63428571D01*
X157297619Y-63380952D01*
X157345238Y-63357142D01*
X157440476Y-63333333D01*
X157511904Y-63333333D01*
X157607142Y-63357142D01*
X157654761Y-63380952D01*
X157702380Y-63428571D01*
X157726190Y-63500000D01*
X157726190Y-63619047D01*
X157440476Y-63047619D02*
X157416666Y-63095238D01*
X157392857Y-63119047D01*
X157345238Y-63142857D01*
X157321428Y-63142857D01*
X157273809Y-63119047D01*
X157250000Y-63095238D01*
X157226190Y-63047619D01*
X157226190Y-62952380D01*
X157250000Y-62904761D01*
X157273809Y-62880952D01*
X157321428Y-62857142D01*
X157345238Y-62857142D01*
X157392857Y-62880952D01*
X157416666Y-62904761D01*
X157440476Y-62952380D01*
X157440476Y-63047619D01*
X157464285Y-63095238D01*
X157488095Y-63119047D01*
X157535714Y-63142857D01*
X157630952Y-63142857D01*
X157678571Y-63119047D01*
X157702380Y-63095238D01*
X157726190Y-63047619D01*
X157726190Y-62952380D01*
X157702380Y-62904761D01*
X157678571Y-62880952D01*
X157630952Y-62857142D01*
X157535714Y-62857142D01*
X157488095Y-62880952D01*
X157464285Y-62904761D01*
X157440476Y-62952380D01*
X160313095Y-77108333D02*
X160551190Y-77108333D01*
X160265476Y-77251190D02*
X160432142Y-76751190D01*
X160598809Y-77251190D01*
X160765476Y-76917857D02*
X160765476Y-77251190D01*
X160765476Y-76965476D02*
X160789285Y-76941666D01*
X160836904Y-76917857D01*
X160908333Y-76917857D01*
X160955952Y-76941666D01*
X160979761Y-76989285D01*
X160979761Y-77251190D01*
X161289285Y-77251190D02*
X161241666Y-77227380D01*
X161217857Y-77203571D01*
X161194047Y-77155952D01*
X161194047Y-77013095D01*
X161217857Y-76965476D01*
X161241666Y-76941666D01*
X161289285Y-76917857D01*
X161360714Y-76917857D01*
X161408333Y-76941666D01*
X161432142Y-76965476D01*
X161455952Y-77013095D01*
X161455952Y-77155952D01*
X161432142Y-77203571D01*
X161408333Y-77227380D01*
X161360714Y-77251190D01*
X161289285Y-77251190D01*
X161884523Y-77251190D02*
X161884523Y-76751190D01*
X161884523Y-77227380D02*
X161836904Y-77251190D01*
X161741666Y-77251190D01*
X161694047Y-77227380D01*
X161670238Y-77203571D01*
X161646428Y-77155952D01*
X161646428Y-77013095D01*
X161670238Y-76965476D01*
X161694047Y-76941666D01*
X161741666Y-76917857D01*
X161836904Y-76917857D01*
X161884523Y-76941666D01*
X162313095Y-77227380D02*
X162265476Y-77251190D01*
X162170238Y-77251190D01*
X162122619Y-77227380D01*
X162098809Y-77179761D01*
X162098809Y-76989285D01*
X162122619Y-76941666D01*
X162170238Y-76917857D01*
X162265476Y-76917857D01*
X162313095Y-76941666D01*
X162336904Y-76989285D01*
X162336904Y-77036904D01*
X162098809Y-77084523D01*
X143726190Y-63619047D02*
X143226190Y-63619047D01*
X143226190Y-63500000D01*
X143250000Y-63428571D01*
X143297619Y-63380952D01*
X143345238Y-63357142D01*
X143440476Y-63333333D01*
X143511904Y-63333333D01*
X143607142Y-63357142D01*
X143654761Y-63380952D01*
X143702380Y-63428571D01*
X143726190Y-63500000D01*
X143726190Y-63619047D01*
X143392857Y-62904761D02*
X143726190Y-62904761D01*
X143202380Y-63023809D02*
X143559523Y-63142857D01*
X143559523Y-62833333D01*
X151966571Y-60630571D02*
X151942761Y-60654380D01*
X151871333Y-60678190D01*
X151823714Y-60678190D01*
X151752285Y-60654380D01*
X151704666Y-60606761D01*
X151680857Y-60559142D01*
X151657047Y-60463904D01*
X151657047Y-60392476D01*
X151680857Y-60297238D01*
X151704666Y-60249619D01*
X151752285Y-60202000D01*
X151823714Y-60178190D01*
X151871333Y-60178190D01*
X151942761Y-60202000D01*
X151966571Y-60225809D01*
X152442761Y-60678190D02*
X152157047Y-60678190D01*
X152299904Y-60678190D02*
X152299904Y-60178190D01*
X152252285Y-60249619D01*
X152204666Y-60297238D01*
X152157047Y-60321047D01*
X152871333Y-60178190D02*
X152776095Y-60178190D01*
X152728476Y-60202000D01*
X152704666Y-60225809D01*
X152657047Y-60297238D01*
X152633238Y-60392476D01*
X152633238Y-60582952D01*
X152657047Y-60630571D01*
X152680857Y-60654380D01*
X152728476Y-60678190D01*
X152823714Y-60678190D01*
X152871333Y-60654380D01*
X152895142Y-60630571D01*
X152918952Y-60582952D01*
X152918952Y-60463904D01*
X152895142Y-60416285D01*
X152871333Y-60392476D01*
X152823714Y-60368666D01*
X152728476Y-60368666D01*
X152680857Y-60392476D01*
X152657047Y-60416285D01*
X152633238Y-60463904D01*
X140226190Y-63619047D02*
X139726190Y-63619047D01*
X139726190Y-63500000D01*
X139750000Y-63428571D01*
X139797619Y-63380952D01*
X139845238Y-63357142D01*
X139940476Y-63333333D01*
X140011904Y-63333333D01*
X140107142Y-63357142D01*
X140154761Y-63380952D01*
X140202380Y-63428571D01*
X140226190Y-63500000D01*
X140226190Y-63619047D01*
X139726190Y-63166666D02*
X139726190Y-62857142D01*
X139916666Y-63023809D01*
X139916666Y-62952380D01*
X139940476Y-62904761D01*
X139964285Y-62880952D01*
X140011904Y-62857142D01*
X140130952Y-62857142D01*
X140178571Y-62880952D01*
X140202380Y-62904761D01*
X140226190Y-62952380D01*
X140226190Y-63095238D01*
X140202380Y-63142857D01*
X140178571Y-63166666D01*
X137966666Y-71928571D02*
X137942857Y-71952380D01*
X137871428Y-71976190D01*
X137823809Y-71976190D01*
X137752380Y-71952380D01*
X137704761Y-71904761D01*
X137680952Y-71857142D01*
X137657142Y-71761904D01*
X137657142Y-71690476D01*
X137680952Y-71595238D01*
X137704761Y-71547619D01*
X137752380Y-71500000D01*
X137823809Y-71476190D01*
X137871428Y-71476190D01*
X137942857Y-71500000D01*
X137966666Y-71523809D01*
X138157142Y-71523809D02*
X138180952Y-71500000D01*
X138228571Y-71476190D01*
X138347619Y-71476190D01*
X138395238Y-71500000D01*
X138419047Y-71523809D01*
X138442857Y-71571428D01*
X138442857Y-71619047D01*
X138419047Y-71690476D01*
X138133333Y-71976190D01*
X138442857Y-71976190D01*
X153666666Y-68044190D02*
X153500000Y-67806095D01*
X153380952Y-68044190D02*
X153380952Y-67544190D01*
X153571428Y-67544190D01*
X153619047Y-67568000D01*
X153642857Y-67591809D01*
X153666666Y-67639428D01*
X153666666Y-67710857D01*
X153642857Y-67758476D01*
X153619047Y-67782285D01*
X153571428Y-67806095D01*
X153380952Y-67806095D01*
X153952380Y-67758476D02*
X153904761Y-67734666D01*
X153880952Y-67710857D01*
X153857142Y-67663238D01*
X153857142Y-67639428D01*
X153880952Y-67591809D01*
X153904761Y-67568000D01*
X153952380Y-67544190D01*
X154047619Y-67544190D01*
X154095238Y-67568000D01*
X154119047Y-67591809D01*
X154142857Y-67639428D01*
X154142857Y-67663238D01*
X154119047Y-67710857D01*
X154095238Y-67734666D01*
X154047619Y-67758476D01*
X153952380Y-67758476D01*
X153904761Y-67782285D01*
X153880952Y-67806095D01*
X153857142Y-67853714D01*
X153857142Y-67948952D01*
X153880952Y-67996571D01*
X153904761Y-68020380D01*
X153952380Y-68044190D01*
X154047619Y-68044190D01*
X154095238Y-68020380D01*
X154119047Y-67996571D01*
X154142857Y-67948952D01*
X154142857Y-67853714D01*
X154119047Y-67806095D01*
X154095238Y-67782285D01*
X154047619Y-67758476D01*
X148466571Y-60630571D02*
X148442761Y-60654380D01*
X148371333Y-60678190D01*
X148323714Y-60678190D01*
X148252285Y-60654380D01*
X148204666Y-60606761D01*
X148180857Y-60559142D01*
X148157047Y-60463904D01*
X148157047Y-60392476D01*
X148180857Y-60297238D01*
X148204666Y-60249619D01*
X148252285Y-60202000D01*
X148323714Y-60178190D01*
X148371333Y-60178190D01*
X148442761Y-60202000D01*
X148466571Y-60225809D01*
X148942761Y-60678190D02*
X148657047Y-60678190D01*
X148799904Y-60678190D02*
X148799904Y-60178190D01*
X148752285Y-60249619D01*
X148704666Y-60297238D01*
X148657047Y-60321047D01*
X149109428Y-60178190D02*
X149418952Y-60178190D01*
X149252285Y-60368666D01*
X149323714Y-60368666D01*
X149371333Y-60392476D01*
X149395142Y-60416285D01*
X149418952Y-60463904D01*
X149418952Y-60582952D01*
X149395142Y-60630571D01*
X149371333Y-60654380D01*
X149323714Y-60678190D01*
X149180857Y-60678190D01*
X149133238Y-60654380D01*
X149109428Y-60630571D01*
X158666666Y-68044190D02*
X158500000Y-67806095D01*
X158380952Y-68044190D02*
X158380952Y-67544190D01*
X158571428Y-67544190D01*
X158619047Y-67568000D01*
X158642857Y-67591809D01*
X158666666Y-67639428D01*
X158666666Y-67710857D01*
X158642857Y-67758476D01*
X158619047Y-67782285D01*
X158571428Y-67806095D01*
X158380952Y-67806095D01*
X158833333Y-67544190D02*
X159166666Y-67544190D01*
X158952380Y-68044190D01*
X150726190Y-63619047D02*
X150226190Y-63619047D01*
X150226190Y-63500000D01*
X150250000Y-63428571D01*
X150297619Y-63380952D01*
X150345238Y-63357142D01*
X150440476Y-63333333D01*
X150511904Y-63333333D01*
X150607142Y-63357142D01*
X150654761Y-63380952D01*
X150702380Y-63428571D01*
X150726190Y-63500000D01*
X150726190Y-63619047D01*
X150226190Y-62904761D02*
X150226190Y-63000000D01*
X150250000Y-63047619D01*
X150273809Y-63071428D01*
X150345238Y-63119047D01*
X150440476Y-63142857D01*
X150630952Y-63142857D01*
X150678571Y-63119047D01*
X150702380Y-63095238D01*
X150726190Y-63047619D01*
X150726190Y-62952380D01*
X150702380Y-62904761D01*
X150678571Y-62880952D01*
X150630952Y-62857142D01*
X150511904Y-62857142D01*
X150464285Y-62880952D01*
X150440476Y-62904761D01*
X150416666Y-62952380D01*
X150416666Y-63047619D01*
X150440476Y-63095238D01*
X150464285Y-63119047D01*
X150511904Y-63142857D01*
X152480952Y-69701190D02*
X152480952Y-69201190D01*
X152600000Y-69201190D01*
X152671428Y-69225000D01*
X152719047Y-69272619D01*
X152742857Y-69320238D01*
X152766666Y-69415476D01*
X152766666Y-69486904D01*
X152742857Y-69582142D01*
X152719047Y-69629761D01*
X152671428Y-69677380D01*
X152600000Y-69701190D01*
X152480952Y-69701190D01*
X153242857Y-69701190D02*
X152957142Y-69701190D01*
X153100000Y-69701190D02*
X153100000Y-69201190D01*
X153052380Y-69272619D01*
X153004761Y-69320238D01*
X152957142Y-69344047D01*
X134201190Y-71508333D02*
X133963095Y-71675000D01*
X134201190Y-71794047D02*
X133701190Y-71794047D01*
X133701190Y-71603571D01*
X133725000Y-71555952D01*
X133748809Y-71532142D01*
X133796428Y-71508333D01*
X133867857Y-71508333D01*
X133915476Y-71532142D01*
X133939285Y-71555952D01*
X133963095Y-71603571D01*
X133963095Y-71794047D01*
X133701190Y-71055952D02*
X133701190Y-71294047D01*
X133939285Y-71317857D01*
X133915476Y-71294047D01*
X133891666Y-71246428D01*
X133891666Y-71127380D01*
X133915476Y-71079761D01*
X133939285Y-71055952D01*
X133986904Y-71032142D01*
X134105952Y-71032142D01*
X134153571Y-71055952D01*
X134177380Y-71079761D01*
X134201190Y-71127380D01*
X134201190Y-71246428D01*
X134177380Y-71294047D01*
X134153571Y-71317857D01*
X137142857Y-77428571D02*
X137119047Y-77452380D01*
X137047619Y-77476190D01*
X137000000Y-77476190D01*
X136928571Y-77452380D01*
X136880952Y-77404761D01*
X136857142Y-77357142D01*
X136833333Y-77261904D01*
X136833333Y-77190476D01*
X136857142Y-77095238D01*
X136880952Y-77047619D01*
X136928571Y-77000000D01*
X137000000Y-76976190D01*
X137047619Y-76976190D01*
X137119047Y-77000000D01*
X137142857Y-77023809D01*
X137571428Y-77476190D02*
X137571428Y-77214285D01*
X137547619Y-77166666D01*
X137500000Y-77142857D01*
X137404761Y-77142857D01*
X137357142Y-77166666D01*
X137571428Y-77452380D02*
X137523809Y-77476190D01*
X137404761Y-77476190D01*
X137357142Y-77452380D01*
X137333333Y-77404761D01*
X137333333Y-77357142D01*
X137357142Y-77309523D01*
X137404761Y-77285714D01*
X137523809Y-77285714D01*
X137571428Y-77261904D01*
X137738095Y-77142857D02*
X137928571Y-77142857D01*
X137809523Y-76976190D02*
X137809523Y-77404761D01*
X137833333Y-77452380D01*
X137880952Y-77476190D01*
X137928571Y-77476190D01*
X138095238Y-77476190D02*
X138095238Y-76976190D01*
X138309523Y-77476190D02*
X138309523Y-77214285D01*
X138285714Y-77166666D01*
X138238095Y-77142857D01*
X138166666Y-77142857D01*
X138119047Y-77166666D01*
X138095238Y-77190476D01*
X138619047Y-77476190D02*
X138571428Y-77452380D01*
X138547619Y-77428571D01*
X138523809Y-77380952D01*
X138523809Y-77238095D01*
X138547619Y-77190476D01*
X138571428Y-77166666D01*
X138619047Y-77142857D01*
X138690476Y-77142857D01*
X138738095Y-77166666D01*
X138761904Y-77190476D01*
X138785714Y-77238095D01*
X138785714Y-77380952D01*
X138761904Y-77428571D01*
X138738095Y-77452380D01*
X138690476Y-77476190D01*
X138619047Y-77476190D01*
X139214285Y-77476190D02*
X139214285Y-76976190D01*
X139214285Y-77452380D02*
X139166666Y-77476190D01*
X139071428Y-77476190D01*
X139023809Y-77452380D01*
X139000000Y-77428571D01*
X138976190Y-77380952D01*
X138976190Y-77238095D01*
X139000000Y-77190476D01*
X139023809Y-77166666D01*
X139071428Y-77142857D01*
X139166666Y-77142857D01*
X139214285Y-77166666D01*
X139642857Y-77452380D02*
X139595238Y-77476190D01*
X139500000Y-77476190D01*
X139452380Y-77452380D01*
X139428571Y-77404761D01*
X139428571Y-77214285D01*
X139452380Y-77166666D01*
X139500000Y-77142857D01*
X139595238Y-77142857D01*
X139642857Y-77166666D01*
X139666666Y-77214285D01*
X139666666Y-77261904D01*
X139428571Y-77309523D01*
X154226190Y-63619047D02*
X153726190Y-63619047D01*
X153726190Y-63500000D01*
X153750000Y-63428571D01*
X153797619Y-63380952D01*
X153845238Y-63357142D01*
X153940476Y-63333333D01*
X154011904Y-63333333D01*
X154107142Y-63357142D01*
X154154761Y-63380952D01*
X154202380Y-63428571D01*
X154226190Y-63500000D01*
X154226190Y-63619047D01*
X153726190Y-63166666D02*
X153726190Y-62833333D01*
X154226190Y-63047619D01*
X130416666Y-58178571D02*
X130392857Y-58202380D01*
X130321428Y-58226190D01*
X130273809Y-58226190D01*
X130202380Y-58202380D01*
X130154761Y-58154761D01*
X130130952Y-58107142D01*
X130107142Y-58011904D01*
X130107142Y-57940476D01*
X130130952Y-57845238D01*
X130154761Y-57797619D01*
X130202380Y-57750000D01*
X130273809Y-57726190D01*
X130321428Y-57726190D01*
X130392857Y-57750000D01*
X130416666Y-57773809D01*
X130869047Y-57726190D02*
X130630952Y-57726190D01*
X130607142Y-57964285D01*
X130630952Y-57940476D01*
X130678571Y-57916666D01*
X130797619Y-57916666D01*
X130845238Y-57940476D01*
X130869047Y-57964285D01*
X130892857Y-58011904D01*
X130892857Y-58130952D01*
X130869047Y-58178571D01*
X130845238Y-58202380D01*
X130797619Y-58226190D01*
X130678571Y-58226190D01*
X130630952Y-58202380D01*
X130607142Y-58178571D01*
X153678571Y-66678571D02*
X153654761Y-66702380D01*
X153583333Y-66726190D01*
X153535714Y-66726190D01*
X153464285Y-66702380D01*
X153416666Y-66654761D01*
X153392857Y-66607142D01*
X153369047Y-66511904D01*
X153369047Y-66440476D01*
X153392857Y-66345238D01*
X153416666Y-66297619D01*
X153464285Y-66250000D01*
X153535714Y-66226190D01*
X153583333Y-66226190D01*
X153654761Y-66250000D01*
X153678571Y-66273809D01*
X154154761Y-66726190D02*
X153869047Y-66726190D01*
X154011904Y-66726190D02*
X154011904Y-66226190D01*
X153964285Y-66297619D01*
X153916666Y-66345238D01*
X153869047Y-66369047D01*
X154321428Y-66226190D02*
X154654761Y-66226190D01*
X154440476Y-66726190D01*
X130833333Y-77226190D02*
X130833333Y-77583333D01*
X130809523Y-77654761D01*
X130761904Y-77702380D01*
X130690476Y-77726190D01*
X130642857Y-77726190D01*
X131333333Y-77726190D02*
X131047619Y-77726190D01*
X131190476Y-77726190D02*
X131190476Y-77226190D01*
X131142857Y-77297619D01*
X131095238Y-77345238D01*
X131047619Y-77369047D01*
X166225190Y-66233333D02*
X165987095Y-66400000D01*
X166225190Y-66519047D02*
X165725190Y-66519047D01*
X165725190Y-66328571D01*
X165749000Y-66280952D01*
X165772809Y-66257142D01*
X165820428Y-66233333D01*
X165891857Y-66233333D01*
X165939476Y-66257142D01*
X165963285Y-66280952D01*
X165987095Y-66328571D01*
X165987095Y-66519047D01*
X166225190Y-65757142D02*
X166225190Y-66042857D01*
X166225190Y-65900000D02*
X165725190Y-65900000D01*
X165796619Y-65947619D01*
X165844238Y-65995238D01*
X165868047Y-66042857D01*
X138454666Y-60630571D02*
X138430857Y-60654380D01*
X138359428Y-60678190D01*
X138311809Y-60678190D01*
X138240380Y-60654380D01*
X138192761Y-60606761D01*
X138168952Y-60559142D01*
X138145142Y-60463904D01*
X138145142Y-60392476D01*
X138168952Y-60297238D01*
X138192761Y-60249619D01*
X138240380Y-60202000D01*
X138311809Y-60178190D01*
X138359428Y-60178190D01*
X138430857Y-60202000D01*
X138454666Y-60225809D01*
X138883238Y-60178190D02*
X138788000Y-60178190D01*
X138740380Y-60202000D01*
X138716571Y-60225809D01*
X138668952Y-60297238D01*
X138645142Y-60392476D01*
X138645142Y-60582952D01*
X138668952Y-60630571D01*
X138692761Y-60654380D01*
X138740380Y-60678190D01*
X138835619Y-60678190D01*
X138883238Y-60654380D01*
X138907047Y-60630571D01*
X138930857Y-60582952D01*
X138930857Y-60463904D01*
X138907047Y-60416285D01*
X138883238Y-60392476D01*
X138835619Y-60368666D01*
X138740380Y-60368666D01*
X138692761Y-60392476D01*
X138668952Y-60416285D01*
X138645142Y-60463904D01*
X157976190Y-70933428D02*
X157738095Y-71100095D01*
X157976190Y-71219142D02*
X157476190Y-71219142D01*
X157476190Y-71028666D01*
X157500000Y-70981047D01*
X157523809Y-70957238D01*
X157571428Y-70933428D01*
X157642857Y-70933428D01*
X157690476Y-70957238D01*
X157714285Y-70981047D01*
X157738095Y-71028666D01*
X157738095Y-71219142D01*
X157523809Y-70742952D02*
X157500000Y-70719142D01*
X157476190Y-70671523D01*
X157476190Y-70552476D01*
X157500000Y-70504857D01*
X157523809Y-70481047D01*
X157571428Y-70457238D01*
X157619047Y-70457238D01*
X157690476Y-70481047D01*
X157976190Y-70766761D01*
X157976190Y-70457238D01*
X157476190Y-70290571D02*
X157476190Y-69981047D01*
X157666666Y-70147714D01*
X157666666Y-70076285D01*
X157690476Y-70028666D01*
X157714285Y-70004857D01*
X157761904Y-69981047D01*
X157880952Y-69981047D01*
X157928571Y-70004857D01*
X157952380Y-70028666D01*
X157976190Y-70076285D01*
X157976190Y-70219142D01*
X157952380Y-70266761D01*
X157928571Y-70290571D01*
X139916666Y-66678571D02*
X139892857Y-66702380D01*
X139821428Y-66726190D01*
X139773809Y-66726190D01*
X139702380Y-66702380D01*
X139654761Y-66654761D01*
X139630952Y-66607142D01*
X139607142Y-66511904D01*
X139607142Y-66440476D01*
X139630952Y-66345238D01*
X139654761Y-66297619D01*
X139702380Y-66250000D01*
X139773809Y-66226190D01*
X139821428Y-66226190D01*
X139892857Y-66250000D01*
X139916666Y-66273809D01*
X140083333Y-66226190D02*
X140416666Y-66226190D01*
X140202380Y-66726190D01*
X150178571Y-66678571D02*
X150154761Y-66702380D01*
X150083333Y-66726190D01*
X150035714Y-66726190D01*
X149964285Y-66702380D01*
X149916666Y-66654761D01*
X149892857Y-66607142D01*
X149869047Y-66511904D01*
X149869047Y-66440476D01*
X149892857Y-66345238D01*
X149916666Y-66297619D01*
X149964285Y-66250000D01*
X150035714Y-66226190D01*
X150083333Y-66226190D01*
X150154761Y-66250000D01*
X150178571Y-66273809D01*
X150654761Y-66726190D02*
X150369047Y-66726190D01*
X150511904Y-66726190D02*
X150511904Y-66226190D01*
X150464285Y-66297619D01*
X150416666Y-66345238D01*
X150369047Y-66369047D01*
X151083333Y-66392857D02*
X151083333Y-66726190D01*
X150964285Y-66202380D02*
X150845238Y-66559523D01*
X151154761Y-66559523D01*
X146678571Y-66678571D02*
X146654761Y-66702380D01*
X146583333Y-66726190D01*
X146535714Y-66726190D01*
X146464285Y-66702380D01*
X146416666Y-66654761D01*
X146392857Y-66607142D01*
X146369047Y-66511904D01*
X146369047Y-66440476D01*
X146392857Y-66345238D01*
X146416666Y-66297619D01*
X146464285Y-66250000D01*
X146535714Y-66226190D01*
X146583333Y-66226190D01*
X146654761Y-66250000D01*
X146678571Y-66273809D01*
X147154761Y-66726190D02*
X146869047Y-66726190D01*
X147011904Y-66726190D02*
X147011904Y-66226190D01*
X146964285Y-66297619D01*
X146916666Y-66345238D01*
X146869047Y-66369047D01*
X147345238Y-66273809D02*
X147369047Y-66250000D01*
X147416666Y-66226190D01*
X147535714Y-66226190D01*
X147583333Y-66250000D01*
X147607142Y-66273809D01*
X147630952Y-66321428D01*
X147630952Y-66369047D01*
X147607142Y-66440476D01*
X147321428Y-66726190D01*
X147630952Y-66726190D01*
X134416666Y-62976190D02*
X134178571Y-62976190D01*
X134178571Y-62476190D01*
X134845238Y-62976190D02*
X134559523Y-62976190D01*
X134702380Y-62976190D02*
X134702380Y-62476190D01*
X134654761Y-62547619D01*
X134607142Y-62595238D01*
X134559523Y-62619047D01*
X143178571Y-68044190D02*
X143011904Y-67806095D01*
X142892857Y-68044190D02*
X142892857Y-67544190D01*
X143083333Y-67544190D01*
X143130952Y-67568000D01*
X143154761Y-67591809D01*
X143178571Y-67639428D01*
X143178571Y-67710857D01*
X143154761Y-67758476D01*
X143130952Y-67782285D01*
X143083333Y-67806095D01*
X142892857Y-67806095D01*
X143654761Y-68044190D02*
X143369047Y-68044190D01*
X143511904Y-68044190D02*
X143511904Y-67544190D01*
X143464285Y-67615619D01*
X143416666Y-67663238D01*
X143369047Y-67687047D01*
X143964285Y-67544190D02*
X144011904Y-67544190D01*
X144059523Y-67568000D01*
X144083333Y-67591809D01*
X144107142Y-67639428D01*
X144130952Y-67734666D01*
X144130952Y-67853714D01*
X144107142Y-67948952D01*
X144083333Y-67996571D01*
X144059523Y-68020380D01*
X144011904Y-68044190D01*
X143964285Y-68044190D01*
X143916666Y-68020380D01*
X143892857Y-67996571D01*
X143869047Y-67948952D01*
X143845238Y-67853714D01*
X143845238Y-67734666D01*
X143869047Y-67639428D01*
X143892857Y-67591809D01*
X143916666Y-67568000D01*
X143964285Y-67544190D01*
X157266571Y-66678571D02*
X157242761Y-66702380D01*
X157171333Y-66726190D01*
X157123714Y-66726190D01*
X157052285Y-66702380D01*
X157004666Y-66654761D01*
X156980857Y-66607142D01*
X156957047Y-66511904D01*
X156957047Y-66440476D01*
X156980857Y-66345238D01*
X157004666Y-66297619D01*
X157052285Y-66250000D01*
X157123714Y-66226190D01*
X157171333Y-66226190D01*
X157242761Y-66250000D01*
X157266571Y-66273809D01*
X157457047Y-66273809D02*
X157480857Y-66250000D01*
X157528476Y-66226190D01*
X157647523Y-66226190D01*
X157695142Y-66250000D01*
X157718952Y-66273809D01*
X157742761Y-66321428D01*
X157742761Y-66369047D01*
X157718952Y-66440476D01*
X157433238Y-66726190D01*
X157742761Y-66726190D01*
X158052285Y-66226190D02*
X158099904Y-66226190D01*
X158147523Y-66250000D01*
X158171333Y-66273809D01*
X158195142Y-66321428D01*
X158218952Y-66416666D01*
X158218952Y-66535714D01*
X158195142Y-66630952D01*
X158171333Y-66678571D01*
X158147523Y-66702380D01*
X158099904Y-66726190D01*
X158052285Y-66726190D01*
X158004666Y-66702380D01*
X157980857Y-66678571D01*
X157957047Y-66630952D01*
X157933238Y-66535714D01*
X157933238Y-66416666D01*
X157957047Y-66321428D01*
X157980857Y-66273809D01*
X158004666Y-66250000D01*
X158052285Y-66226190D01*
X140726190Y-73786952D02*
X141130952Y-73786952D01*
X141178571Y-73763142D01*
X141202380Y-73739333D01*
X141226190Y-73691714D01*
X141226190Y-73596476D01*
X141202380Y-73548857D01*
X141178571Y-73525047D01*
X141130952Y-73501238D01*
X140726190Y-73501238D01*
X140773809Y-73286952D02*
X140750000Y-73263142D01*
X140726190Y-73215523D01*
X140726190Y-73096476D01*
X140750000Y-73048857D01*
X140773809Y-73025047D01*
X140821428Y-73001238D01*
X140869047Y-73001238D01*
X140940476Y-73025047D01*
X141226190Y-73310761D01*
X141226190Y-73001238D01*
X127583333Y-57964285D02*
X127416666Y-57964285D01*
X127416666Y-58226190D02*
X127416666Y-57726190D01*
X127654761Y-57726190D01*
X128011904Y-57964285D02*
X128083333Y-57988095D01*
X128107142Y-58011904D01*
X128130952Y-58059523D01*
X128130952Y-58130952D01*
X128107142Y-58178571D01*
X128083333Y-58202380D01*
X128035714Y-58226190D01*
X127845238Y-58226190D01*
X127845238Y-57726190D01*
X128011904Y-57726190D01*
X128059523Y-57750000D01*
X128083333Y-57773809D01*
X128107142Y-57821428D01*
X128107142Y-57869047D01*
X128083333Y-57916666D01*
X128059523Y-57940476D01*
X128011904Y-57964285D01*
X127845238Y-57964285D01*
X128321428Y-57773809D02*
X128345238Y-57750000D01*
X128392857Y-57726190D01*
X128511904Y-57726190D01*
X128559523Y-57750000D01*
X128583333Y-57773809D01*
X128607142Y-57821428D01*
X128607142Y-57869047D01*
X128583333Y-57940476D01*
X128297619Y-58226190D01*
X128607142Y-58226190D01*
X148666666Y-68044190D02*
X148500000Y-67806095D01*
X148380952Y-68044190D02*
X148380952Y-67544190D01*
X148571428Y-67544190D01*
X148619047Y-67568000D01*
X148642857Y-67591809D01*
X148666666Y-67639428D01*
X148666666Y-67710857D01*
X148642857Y-67758476D01*
X148619047Y-67782285D01*
X148571428Y-67806095D01*
X148380952Y-67806095D01*
X148904761Y-68044190D02*
X149000000Y-68044190D01*
X149047619Y-68020380D01*
X149071428Y-67996571D01*
X149119047Y-67925142D01*
X149142857Y-67829904D01*
X149142857Y-67639428D01*
X149119047Y-67591809D01*
X149095238Y-67568000D01*
X149047619Y-67544190D01*
X148952380Y-67544190D01*
X148904761Y-67568000D01*
X148880952Y-67591809D01*
X148857142Y-67639428D01*
X148857142Y-67758476D01*
X148880952Y-67806095D01*
X148904761Y-67829904D01*
X148952380Y-67853714D01*
X149047619Y-67853714D01*
X149095238Y-67829904D01*
X149119047Y-67806095D01*
X149142857Y-67758476D01*
X153226666Y-77296190D02*
X153060000Y-77058095D01*
X152940952Y-77296190D02*
X152940952Y-76796190D01*
X153131428Y-76796190D01*
X153179047Y-76820000D01*
X153202857Y-76843809D01*
X153226666Y-76891428D01*
X153226666Y-76962857D01*
X153202857Y-77010476D01*
X153179047Y-77034285D01*
X153131428Y-77058095D01*
X152940952Y-77058095D01*
X153393333Y-76796190D02*
X153702857Y-76796190D01*
X153536190Y-76986666D01*
X153607619Y-76986666D01*
X153655238Y-77010476D01*
X153679047Y-77034285D01*
X153702857Y-77081904D01*
X153702857Y-77200952D01*
X153679047Y-77248571D01*
X153655238Y-77272380D01*
X153607619Y-77296190D01*
X153464761Y-77296190D01*
X153417142Y-77272380D01*
X153393333Y-77248571D01*
X153216666Y-75066190D02*
X153050000Y-74828095D01*
X152930952Y-75066190D02*
X152930952Y-74566190D01*
X153121428Y-74566190D01*
X153169047Y-74590000D01*
X153192857Y-74613809D01*
X153216666Y-74661428D01*
X153216666Y-74732857D01*
X153192857Y-74780476D01*
X153169047Y-74804285D01*
X153121428Y-74828095D01*
X152930952Y-74828095D01*
X153645238Y-74732857D02*
X153645238Y-75066190D01*
X153526190Y-74542380D02*
X153407142Y-74899523D01*
X153716666Y-74899523D01*
X155466571Y-60630571D02*
X155442761Y-60654380D01*
X155371333Y-60678190D01*
X155323714Y-60678190D01*
X155252285Y-60654380D01*
X155204666Y-60606761D01*
X155180857Y-60559142D01*
X155157047Y-60463904D01*
X155157047Y-60392476D01*
X155180857Y-60297238D01*
X155204666Y-60249619D01*
X155252285Y-60202000D01*
X155323714Y-60178190D01*
X155371333Y-60178190D01*
X155442761Y-60202000D01*
X155466571Y-60225809D01*
X155942761Y-60678190D02*
X155657047Y-60678190D01*
X155799904Y-60678190D02*
X155799904Y-60178190D01*
X155752285Y-60249619D01*
X155704666Y-60297238D01*
X155657047Y-60321047D01*
X156228476Y-60392476D02*
X156180857Y-60368666D01*
X156157047Y-60344857D01*
X156133238Y-60297238D01*
X156133238Y-60273428D01*
X156157047Y-60225809D01*
X156180857Y-60202000D01*
X156228476Y-60178190D01*
X156323714Y-60178190D01*
X156371333Y-60202000D01*
X156395142Y-60225809D01*
X156418952Y-60273428D01*
X156418952Y-60297238D01*
X156395142Y-60344857D01*
X156371333Y-60368666D01*
X156323714Y-60392476D01*
X156228476Y-60392476D01*
X156180857Y-60416285D01*
X156157047Y-60440095D01*
X156133238Y-60487714D01*
X156133238Y-60582952D01*
X156157047Y-60630571D01*
X156180857Y-60654380D01*
X156228476Y-60678190D01*
X156323714Y-60678190D01*
X156371333Y-60654380D01*
X156395142Y-60630571D01*
X156418952Y-60582952D01*
X156418952Y-60487714D01*
X156395142Y-60440095D01*
X156371333Y-60416285D01*
X156323714Y-60392476D01*
X143504666Y-66678571D02*
X143480857Y-66702380D01*
X143409428Y-66726190D01*
X143361809Y-66726190D01*
X143290380Y-66702380D01*
X143242761Y-66654761D01*
X143218952Y-66607142D01*
X143195142Y-66511904D01*
X143195142Y-66440476D01*
X143218952Y-66345238D01*
X143242761Y-66297619D01*
X143290380Y-66250000D01*
X143361809Y-66226190D01*
X143409428Y-66226190D01*
X143480857Y-66250000D01*
X143504666Y-66273809D01*
X143742761Y-66726190D02*
X143838000Y-66726190D01*
X143885619Y-66702380D01*
X143909428Y-66678571D01*
X143957047Y-66607142D01*
X143980857Y-66511904D01*
X143980857Y-66321428D01*
X143957047Y-66273809D01*
X143933238Y-66250000D01*
X143885619Y-66226190D01*
X143790380Y-66226190D01*
X143742761Y-66250000D01*
X143718952Y-66273809D01*
X143695142Y-66321428D01*
X143695142Y-66440476D01*
X143718952Y-66488095D01*
X143742761Y-66511904D01*
X143790380Y-66535714D01*
X143885619Y-66535714D01*
X143933238Y-66511904D01*
X143957047Y-66488095D01*
X143980857Y-66440476D01*
X134702380Y-69023809D02*
X134654761Y-69000000D01*
X134607142Y-68952380D01*
X134535714Y-68880952D01*
X134488095Y-68857142D01*
X134440476Y-68857142D01*
X134464285Y-68976190D02*
X134416666Y-68952380D01*
X134369047Y-68904761D01*
X134345238Y-68809523D01*
X134345238Y-68642857D01*
X134369047Y-68547619D01*
X134416666Y-68500000D01*
X134464285Y-68476190D01*
X134559523Y-68476190D01*
X134607142Y-68500000D01*
X134654761Y-68547619D01*
X134678571Y-68642857D01*
X134678571Y-68809523D01*
X134654761Y-68904761D01*
X134607142Y-68952380D01*
X134559523Y-68976190D01*
X134464285Y-68976190D01*
X135154761Y-68976190D02*
X134869047Y-68976190D01*
X135011904Y-68976190D02*
X135011904Y-68476190D01*
X134964285Y-68547619D01*
X134916666Y-68595238D01*
X134869047Y-68619047D01*
X161226190Y-63619047D02*
X160726190Y-63619047D01*
X160726190Y-63500000D01*
X160750000Y-63428571D01*
X160797619Y-63380952D01*
X160845238Y-63357142D01*
X160940476Y-63333333D01*
X161011904Y-63333333D01*
X161107142Y-63357142D01*
X161154761Y-63380952D01*
X161202380Y-63428571D01*
X161226190Y-63500000D01*
X161226190Y-63619047D01*
X161226190Y-63095238D02*
X161226190Y-63000000D01*
X161202380Y-62952380D01*
X161178571Y-62928571D01*
X161107142Y-62880952D01*
X161011904Y-62857142D01*
X160821428Y-62857142D01*
X160773809Y-62880952D01*
X160750000Y-62904761D01*
X160726190Y-62952380D01*
X160726190Y-63047619D01*
X160750000Y-63095238D01*
X160773809Y-63119047D01*
X160821428Y-63142857D01*
X160940476Y-63142857D01*
X160988095Y-63119047D01*
X161011904Y-63095238D01*
X161035714Y-63047619D01*
X161035714Y-62952380D01*
X161011904Y-62904761D01*
X160988095Y-62880952D01*
X160940476Y-62857142D01*
X159216571Y-60630571D02*
X159192761Y-60654380D01*
X159121333Y-60678190D01*
X159073714Y-60678190D01*
X159002285Y-60654380D01*
X158954666Y-60606761D01*
X158930857Y-60559142D01*
X158907047Y-60463904D01*
X158907047Y-60392476D01*
X158930857Y-60297238D01*
X158954666Y-60249619D01*
X159002285Y-60202000D01*
X159073714Y-60178190D01*
X159121333Y-60178190D01*
X159192761Y-60202000D01*
X159216571Y-60225809D01*
X159407047Y-60225809D02*
X159430857Y-60202000D01*
X159478476Y-60178190D01*
X159597523Y-60178190D01*
X159645142Y-60202000D01*
X159668952Y-60225809D01*
X159692761Y-60273428D01*
X159692761Y-60321047D01*
X159668952Y-60392476D01*
X159383238Y-60678190D01*
X159692761Y-60678190D01*
X160168952Y-60678190D02*
X159883238Y-60678190D01*
X160026095Y-60678190D02*
X160026095Y-60178190D01*
X159978476Y-60249619D01*
X159930857Y-60297238D01*
X159883238Y-60321047D01*
X141954666Y-60630571D02*
X141930857Y-60654380D01*
X141859428Y-60678190D01*
X141811809Y-60678190D01*
X141740380Y-60654380D01*
X141692761Y-60606761D01*
X141668952Y-60559142D01*
X141645142Y-60463904D01*
X141645142Y-60392476D01*
X141668952Y-60297238D01*
X141692761Y-60249619D01*
X141740380Y-60202000D01*
X141811809Y-60178190D01*
X141859428Y-60178190D01*
X141930857Y-60202000D01*
X141954666Y-60225809D01*
X142240380Y-60392476D02*
X142192761Y-60368666D01*
X142168952Y-60344857D01*
X142145142Y-60297238D01*
X142145142Y-60273428D01*
X142168952Y-60225809D01*
X142192761Y-60202000D01*
X142240380Y-60178190D01*
X142335619Y-60178190D01*
X142383238Y-60202000D01*
X142407047Y-60225809D01*
X142430857Y-60273428D01*
X142430857Y-60297238D01*
X142407047Y-60344857D01*
X142383238Y-60368666D01*
X142335619Y-60392476D01*
X142240380Y-60392476D01*
X142192761Y-60416285D01*
X142168952Y-60440095D01*
X142145142Y-60487714D01*
X142145142Y-60582952D01*
X142168952Y-60630571D01*
X142192761Y-60654380D01*
X142240380Y-60678190D01*
X142335619Y-60678190D01*
X142383238Y-60654380D01*
X142407047Y-60630571D01*
X142430857Y-60582952D01*
X142430857Y-60487714D01*
X142407047Y-60440095D01*
X142383238Y-60416285D01*
X142335619Y-60392476D01*
X131164285Y-71841666D02*
X131164285Y-72008333D01*
X131426190Y-72008333D02*
X130926190Y-72008333D01*
X130926190Y-71770238D01*
X131164285Y-71413095D02*
X131188095Y-71341666D01*
X131211904Y-71317857D01*
X131259523Y-71294047D01*
X131330952Y-71294047D01*
X131378571Y-71317857D01*
X131402380Y-71341666D01*
X131426190Y-71389285D01*
X131426190Y-71579761D01*
X130926190Y-71579761D01*
X130926190Y-71413095D01*
X130950000Y-71365476D01*
X130973809Y-71341666D01*
X131021428Y-71317857D01*
X131069047Y-71317857D01*
X131116666Y-71341666D01*
X131140476Y-71365476D01*
X131164285Y-71413095D01*
X131164285Y-71579761D01*
X131426190Y-70817857D02*
X131426190Y-71103571D01*
X131426190Y-70960714D02*
X130926190Y-70960714D01*
X130997619Y-71008333D01*
X131045238Y-71055952D01*
X131069047Y-71103571D01*
X147226190Y-63619047D02*
X146726190Y-63619047D01*
X146726190Y-63500000D01*
X146750000Y-63428571D01*
X146797619Y-63380952D01*
X146845238Y-63357142D01*
X146940476Y-63333333D01*
X147011904Y-63333333D01*
X147107142Y-63357142D01*
X147154761Y-63380952D01*
X147202380Y-63428571D01*
X147226190Y-63500000D01*
X147226190Y-63619047D01*
X146726190Y-62880952D02*
X146726190Y-63119047D01*
X146964285Y-63142857D01*
X146940476Y-63119047D01*
X146916666Y-63071428D01*
X146916666Y-62952380D01*
X146940476Y-62904761D01*
X146964285Y-62880952D01*
X147011904Y-62857142D01*
X147130952Y-62857142D01*
X147178571Y-62880952D01*
X147202380Y-62904761D01*
X147226190Y-62952380D01*
X147226190Y-63071428D01*
X147202380Y-63119047D01*
X147178571Y-63142857D01*
D14*
X129235000Y-71727064D02*
X129235000Y-71272936D01*
X127765000Y-71727064D02*
X127765000Y-71272936D01*
X145738748Y-59735000D02*
X146261252Y-59735000D01*
X145738748Y-58265000D02*
X146261252Y-58265000D01*
X166400000Y-70650000D02*
G75*
G03*
X166400000Y-70650000I-1800000J0D01*
G01*
X159060000Y-62000000D02*
X159060000Y-61350000D01*
X155940000Y-62000000D02*
X155940000Y-63675000D01*
X155940000Y-62000000D02*
X155940000Y-61350000D01*
X159060000Y-62000000D02*
X159060000Y-62650000D01*
X166200000Y-75075000D02*
G75*
G03*
X166200000Y-75075000I-2100000J0D01*
G01*
X141940000Y-62000000D02*
X141940000Y-63675000D01*
X141940000Y-62000000D02*
X141940000Y-61350000D01*
X145060000Y-62000000D02*
X145060000Y-61350000D01*
X145060000Y-62000000D02*
X145060000Y-62650000D01*
X152738748Y-58265000D02*
X153261252Y-58265000D01*
X152738748Y-59735000D02*
X153261252Y-59735000D01*
X138394000Y-61976000D02*
X138394000Y-61326000D01*
X141514000Y-61976000D02*
X141514000Y-62626000D01*
X141514000Y-61976000D02*
X141514000Y-61326000D01*
X138394000Y-61976000D02*
X138394000Y-63651000D01*
X137788748Y-69765000D02*
X138311252Y-69765000D01*
X137788748Y-71235000D02*
X138311252Y-71235000D01*
X151691064Y-68553000D02*
X151236936Y-68553000D01*
X151691064Y-67083000D02*
X151236936Y-67083000D01*
X149238748Y-59735000D02*
X149761252Y-59735000D01*
X149238748Y-58265000D02*
X149761252Y-58265000D01*
X156691064Y-68553000D02*
X156236936Y-68553000D01*
X156691064Y-67083000D02*
X156236936Y-67083000D01*
X152060000Y-62000000D02*
X152060000Y-62650000D01*
X148940000Y-62000000D02*
X148940000Y-61350000D01*
X148940000Y-62000000D02*
X148940000Y-63675000D01*
X152060000Y-62000000D02*
X152060000Y-61350000D01*
X151500000Y-71644000D02*
X154050000Y-71644000D01*
X151500000Y-69944000D02*
X151500000Y-71644000D01*
X151500000Y-69944000D02*
X154050000Y-69944000D01*
X135960000Y-71197936D02*
X135960000Y-71652064D01*
X134490000Y-71197936D02*
X134490000Y-71652064D01*
X140276000Y-74500000D02*
G75*
G03*
X140276000Y-74500000I-2100000J0D01*
G01*
X152440000Y-62000000D02*
X152440000Y-63675000D01*
X155560000Y-62000000D02*
X155560000Y-62650000D01*
X152440000Y-62000000D02*
X152440000Y-61350000D01*
X155560000Y-62000000D02*
X155560000Y-61350000D01*
X131235000Y-59738748D02*
X131235000Y-60261252D01*
X129765000Y-59738748D02*
X129765000Y-60261252D01*
X153738748Y-65735000D02*
X154261252Y-65735000D01*
X153738748Y-64265000D02*
X154261252Y-64265000D01*
X129770000Y-76580000D02*
X134910000Y-76580000D01*
X128500000Y-76580000D02*
X127170000Y-76580000D01*
X129770000Y-73920000D02*
X134910000Y-73920000D01*
X127170000Y-76580000D02*
X127170000Y-75250000D01*
X134910000Y-76580000D02*
X134910000Y-73920000D01*
X129770000Y-76580000D02*
X129770000Y-73920000D01*
X165385000Y-65422936D02*
X165385000Y-66877064D01*
X163565000Y-65422936D02*
X163565000Y-66877064D01*
X138738748Y-58265000D02*
X139261252Y-58265000D01*
X138738748Y-59735000D02*
X139261252Y-59735000D01*
X157235000Y-70384936D02*
X157235000Y-70839064D01*
X155765000Y-70384936D02*
X155765000Y-70839064D01*
X139738748Y-65735000D02*
X140261252Y-65735000D01*
X139738748Y-64265000D02*
X140261252Y-64265000D01*
X150238748Y-65735000D02*
X150761252Y-65735000D01*
X150238748Y-64265000D02*
X150761252Y-64265000D01*
X146738748Y-65735000D02*
X147261252Y-65735000D01*
X146738748Y-64265000D02*
X147261252Y-64265000D01*
X163290000Y-59166000D02*
X163290000Y-57836000D01*
X163290000Y-60496000D02*
X165950000Y-60496000D01*
X163290000Y-57836000D02*
X164620000Y-57836000D01*
X163290000Y-60436000D02*
X165950000Y-60436000D01*
X163290000Y-60436000D02*
X163290000Y-60496000D01*
X165950000Y-60436000D02*
X165950000Y-60496000D01*
X136600000Y-58000000D02*
X136600000Y-62000000D01*
X132400000Y-58000000D02*
X132400000Y-62000000D01*
X140736936Y-68553000D02*
X141191064Y-68553000D01*
X140736936Y-67083000D02*
X141191064Y-67083000D01*
X157326748Y-65735000D02*
X157849252Y-65735000D01*
X157326748Y-64265000D02*
X157849252Y-64265000D01*
X150485000Y-73406000D02*
X150485000Y-75356000D01*
X141615000Y-73406000D02*
X141615000Y-76856000D01*
X150485000Y-73406000D02*
X150485000Y-71456000D01*
X141615000Y-73406000D02*
X141615000Y-71456000D01*
X127265000Y-60227064D02*
X127265000Y-59772936D01*
X128735000Y-60227064D02*
X128735000Y-59772936D01*
X146691064Y-68553000D02*
X146236936Y-68553000D01*
X146691064Y-67083000D02*
X146236936Y-67083000D01*
X153022936Y-75211000D02*
X153477064Y-75211000D01*
X153022936Y-76681000D02*
X153477064Y-76681000D01*
X153022936Y-74395000D02*
X153477064Y-74395000D01*
X153022936Y-72925000D02*
X153477064Y-72925000D01*
X156326748Y-59735000D02*
X156849252Y-59735000D01*
X156326748Y-58265000D02*
X156849252Y-58265000D01*
X143326748Y-64265000D02*
X143849252Y-64265000D01*
X143326748Y-65735000D02*
X143849252Y-65735000D01*
X127726000Y-62630000D02*
X133736000Y-62630000D01*
X133736000Y-62630000D02*
X133736000Y-63890000D01*
X133736000Y-69450000D02*
X133736000Y-68190000D01*
X129976000Y-69450000D02*
X133736000Y-69450000D01*
X162560000Y-62000000D02*
X162560000Y-62650000D01*
X162560000Y-62000000D02*
X162560000Y-61350000D01*
X159440000Y-62000000D02*
X159440000Y-61350000D01*
X159440000Y-62000000D02*
X159440000Y-63675000D01*
X159738748Y-59735000D02*
X160261252Y-59735000D01*
X159738748Y-58265000D02*
X160261252Y-58265000D01*
X142238748Y-59735000D02*
X142761252Y-59735000D01*
X142238748Y-58265000D02*
X142761252Y-58265000D01*
X165950000Y-63230000D02*
X165950000Y-63290000D01*
X163290000Y-61960000D02*
X163290000Y-60630000D01*
X163290000Y-63230000D02*
X163290000Y-63290000D01*
X163290000Y-63290000D02*
X165950000Y-63290000D01*
X163290000Y-63230000D02*
X165950000Y-63230000D01*
X163290000Y-60630000D02*
X164620000Y-60630000D01*
X133385000Y-71222936D02*
X133385000Y-71677064D01*
X131915000Y-71222936D02*
X131915000Y-71677064D01*
X148560000Y-62000000D02*
X148560000Y-61350000D01*
X145440000Y-62000000D02*
X145440000Y-63675000D01*
X145440000Y-62000000D02*
X145440000Y-61350000D01*
X148560000Y-62000000D02*
X148560000Y-62650000D01*
M02*
