%TF.GenerationSoftware,KiCad,Pcbnew,5.99.0-unknown-50e22de3ba~95~ubuntu20.04.1*%
%TF.CreationDate,2021-01-19T20:46:22+09:00*%
%TF.ProjectId,OpenRover-4,4f70656e-526f-4766-9572-2d342e6b6963,rev?*%
%TF.SameCoordinates,Original*%
%TF.FileFunction,Paste,Bot*%
%TF.FilePolarity,Positive*%
%FSLAX46Y46*%
G04 Gerber Fmt 4.6, Leading zero omitted, Abs format (unit mm)*
G04 Created by KiCad (PCBNEW 5.99.0-unknown-50e22de3ba~95~ubuntu20.04.1) date 2021-01-19 20:46:22*
%MOMM*%
%LPD*%
G01*
G04 APERTURE LIST*
G04 Aperture macros list*
%AMRoundRect*
0 Rectangle with rounded corners*
0 $1 Rounding radius*
0 $2 $3 $4 $5 $6 $7 $8 $9 X,Y pos of 4 corners*
0 Add a 4 corners polygon primitive as box body*
4,1,4,$2,$3,$4,$5,$6,$7,$8,$9,$2,$3,0*
0 Add four circle primitives for the rounded corners*
1,1,$1+$1,$2,$3*
1,1,$1+$1,$4,$5*
1,1,$1+$1,$6,$7*
1,1,$1+$1,$8,$9*
0 Add four rect primitives between the rounded corners*
20,1,$1+$1,$2,$3,$4,$5,0*
20,1,$1+$1,$4,$5,$6,$7,0*
20,1,$1+$1,$6,$7,$8,$9,0*
20,1,$1+$1,$8,$9,$2,$3,0*%
G04 Aperture macros list end*
%ADD10RoundRect,0.250000X-0.262500X-0.450000X0.262500X-0.450000X0.262500X0.450000X-0.262500X0.450000X0*%
%ADD11RoundRect,0.250000X0.450000X-0.262500X0.450000X0.262500X-0.450000X0.262500X-0.450000X-0.262500X0*%
%ADD12R,0.650000X0.400000*%
%ADD13RoundRect,0.250000X-0.475000X0.250000X-0.475000X-0.250000X0.475000X-0.250000X0.475000X0.250000X0*%
%ADD14RoundRect,0.250000X-0.250000X-0.475000X0.250000X-0.475000X0.250000X0.475000X-0.250000X0.475000X0*%
%ADD15RoundRect,0.150000X-0.512500X-0.150000X0.512500X-0.150000X0.512500X0.150000X-0.512500X0.150000X0*%
%ADD16RoundRect,0.250000X0.475000X-0.250000X0.475000X0.250000X-0.475000X0.250000X-0.475000X-0.250000X0*%
%ADD17RoundRect,0.150000X-0.150000X0.587500X-0.150000X-0.587500X0.150000X-0.587500X0.150000X0.587500X0*%
%ADD18RoundRect,0.250000X0.262500X0.450000X-0.262500X0.450000X-0.262500X-0.450000X0.262500X-0.450000X0*%
%ADD19RoundRect,0.150000X-0.150000X0.825000X-0.150000X-0.825000X0.150000X-0.825000X0.150000X0.825000X0*%
%ADD20R,0.900000X0.800000*%
%ADD21RoundRect,0.250000X0.250000X0.475000X-0.250000X0.475000X-0.250000X-0.475000X0.250000X-0.475000X0*%
%ADD22RoundRect,0.150000X0.587500X0.150000X-0.587500X0.150000X-0.587500X-0.150000X0.587500X-0.150000X0*%
%ADD23RoundRect,0.250000X-0.325000X-1.100000X0.325000X-1.100000X0.325000X1.100000X-0.325000X1.100000X0*%
%ADD24RoundRect,0.250000X-0.450000X0.262500X-0.450000X-0.262500X0.450000X-0.262500X0.450000X0.262500X0*%
G04 APERTURE END LIST*
D10*
X141073500Y-74930000D03*
X142898500Y-74930000D03*
D11*
X135946000Y-72334000D03*
X135946000Y-70509000D03*
D12*
X145450000Y-66100000D03*
X145450000Y-66750000D03*
X145450000Y-67400000D03*
X143550000Y-67400000D03*
X143550000Y-66750000D03*
X143550000Y-66100000D03*
D10*
X139549500Y-65737500D03*
X141374500Y-65737500D03*
D13*
X133570000Y-70491500D03*
X133570000Y-72391500D03*
D14*
X146550000Y-62000000D03*
X148450000Y-62000000D03*
D11*
X131000000Y-60912500D03*
X131000000Y-59087500D03*
X144765000Y-75764000D03*
X144765000Y-73939000D03*
D15*
X156112500Y-75626000D03*
X156112500Y-74676000D03*
X156112500Y-73726000D03*
X158387500Y-73726000D03*
X158387500Y-75626000D03*
D16*
X147320000Y-75801500D03*
X147320000Y-73901500D03*
D11*
X148336000Y-72032500D03*
X148336000Y-70207500D03*
D17*
X143050000Y-61062500D03*
X144950000Y-61062500D03*
X144000000Y-62937500D03*
D18*
X141374500Y-63403000D03*
X139549500Y-63403000D03*
D14*
X149672000Y-74168000D03*
X151572000Y-74168000D03*
D18*
X148092500Y-64960000D03*
X146267500Y-64960000D03*
D11*
X137414000Y-60348500D03*
X137414000Y-58523500D03*
D10*
X139549500Y-58674000D03*
X141374500Y-58674000D03*
D19*
X128397000Y-63057000D03*
X129667000Y-63057000D03*
X130937000Y-63057000D03*
X132207000Y-63057000D03*
X133477000Y-63057000D03*
X134747000Y-63057000D03*
X136017000Y-63057000D03*
X137287000Y-63057000D03*
X137287000Y-68007000D03*
X136017000Y-68007000D03*
X134747000Y-68007000D03*
X133477000Y-68007000D03*
X132207000Y-68007000D03*
X130937000Y-68007000D03*
X129667000Y-68007000D03*
X128397000Y-68007000D03*
D20*
X133510000Y-58800000D03*
X135510000Y-59750000D03*
X133510000Y-60700000D03*
D10*
X146587500Y-60000000D03*
X148412500Y-60000000D03*
D21*
X141412000Y-61038500D03*
X139512000Y-61038500D03*
D22*
X145717500Y-70170000D03*
X145717500Y-72070000D03*
X143842500Y-71120000D03*
D18*
X141374500Y-68072000D03*
X139549500Y-68072000D03*
D23*
X128368000Y-71341500D03*
X131318000Y-71341500D03*
D24*
X141478000Y-70207500D03*
X141478000Y-72032500D03*
D13*
X128500000Y-59050000D03*
X128500000Y-60950000D03*
M02*
