%TF.GenerationSoftware,KiCad,Pcbnew,5.99.0-unknown-50e22de3ba~95~ubuntu20.04.1*%
%TF.CreationDate,2021-01-19T20:46:22+09:00*%
%TF.ProjectId,OpenRover-4,4f70656e-526f-4766-9572-2d342e6b6963,rev?*%
%TF.SameCoordinates,Original*%
%TF.FileFunction,Copper,L1,Top*%
%TF.FilePolarity,Positive*%
%FSLAX46Y46*%
G04 Gerber Fmt 4.6, Leading zero omitted, Abs format (unit mm)*
G04 Created by KiCad (PCBNEW 5.99.0-unknown-50e22de3ba~95~ubuntu20.04.1) date 2021-01-19 20:46:22*
%MOMM*%
%LPD*%
G01*
G04 APERTURE LIST*
G04 Aperture macros list*
%AMRoundRect*
0 Rectangle with rounded corners*
0 $1 Rounding radius*
0 $2 $3 $4 $5 $6 $7 $8 $9 X,Y pos of 4 corners*
0 Add a 4 corners polygon primitive as box body*
4,1,4,$2,$3,$4,$5,$6,$7,$8,$9,$2,$3,0*
0 Add four circle primitives for the rounded corners*
1,1,$1+$1,$2,$3*
1,1,$1+$1,$4,$5*
1,1,$1+$1,$6,$7*
1,1,$1+$1,$8,$9*
0 Add four rect primitives between the rounded corners*
20,1,$1+$1,$2,$3,$4,$5,0*
20,1,$1+$1,$4,$5,$6,$7,0*
20,1,$1+$1,$6,$7,$8,$9,0*
20,1,$1+$1,$8,$9,$2,$3,0*%
G04 Aperture macros list end*
%TA.AperFunction,SMDPad,CuDef*%
%ADD10RoundRect,0.250000X-0.250000X-0.475000X0.250000X-0.475000X0.250000X0.475000X-0.250000X0.475000X0*%
%TD*%
%TA.AperFunction,ComponentPad*%
%ADD11C,2.000000*%
%TD*%
%TA.AperFunction,SMDPad,CuDef*%
%ADD12RoundRect,0.150000X0.150000X-0.587500X0.150000X0.587500X-0.150000X0.587500X-0.150000X-0.587500X0*%
%TD*%
%TA.AperFunction,ComponentPad*%
%ADD13C,3.400000*%
%TD*%
%TA.AperFunction,SMDPad,CuDef*%
%ADD14RoundRect,0.250000X0.262500X0.450000X-0.262500X0.450000X-0.262500X-0.450000X0.262500X-0.450000X0*%
%TD*%
%TA.AperFunction,SMDPad,CuDef*%
%ADD15R,0.900000X0.800000*%
%TD*%
%TA.AperFunction,SMDPad,CuDef*%
%ADD16RoundRect,0.250000X-0.475000X0.250000X-0.475000X-0.250000X0.475000X-0.250000X0.475000X0.250000X0*%
%TD*%
%TA.AperFunction,SMDPad,CuDef*%
%ADD17RoundRect,0.250000X-0.625000X0.312500X-0.625000X-0.312500X0.625000X-0.312500X0.625000X0.312500X0*%
%TD*%
%TA.AperFunction,SMDPad,CuDef*%
%ADD18RoundRect,0.250100X-0.449900X0.262400X-0.449900X-0.262400X0.449900X-0.262400X0.449900X0.262400X0*%
%TD*%
%TA.AperFunction,SMDPad,CuDef*%
%ADD19RoundRect,0.250000X-0.450000X0.262500X-0.450000X-0.262500X0.450000X-0.262500X0.450000X0.262500X0*%
%TD*%
%TA.AperFunction,ComponentPad*%
%ADD20R,1.700000X1.700000*%
%TD*%
%TA.AperFunction,SMDPad,CuDef*%
%ADD21R,3.700000X1.200000*%
%TD*%
%TA.AperFunction,SMDPad,CuDef*%
%ADD22RoundRect,0.250000X-0.262500X-0.450000X0.262500X-0.450000X0.262500X0.450000X-0.262500X0.450000X0*%
%TD*%
%TA.AperFunction,SMDPad,CuDef*%
%ADD23RoundRect,0.150000X0.150000X-0.825000X0.150000X0.825000X-0.150000X0.825000X-0.150000X-0.825000X0*%
%TD*%
%TA.AperFunction,ComponentPad*%
%ADD24O,1.700000X1.700000*%
%TD*%
%TA.AperFunction,SMDPad,CuDef*%
%ADD25RoundRect,0.250000X0.450000X-0.262500X0.450000X0.262500X-0.450000X0.262500X-0.450000X-0.262500X0*%
%TD*%
%TA.AperFunction,SMDPad,CuDef*%
%ADD26R,2.000000X1.500000*%
%TD*%
%TA.AperFunction,SMDPad,CuDef*%
%ADD27R,2.000000X3.800000*%
%TD*%
%TA.AperFunction,ViaPad*%
%ADD28C,0.800000*%
%TD*%
%TA.AperFunction,Conductor*%
%ADD29C,0.250000*%
%TD*%
G04 APERTURE END LIST*
D10*
X145050000Y-59000000D03*
X146950000Y-59000000D03*
D11*
X164700000Y-70530000D03*
D12*
X156550000Y-62937500D03*
X158450000Y-62937500D03*
X157500000Y-61062500D03*
D13*
X164140000Y-74580000D03*
D12*
X142550000Y-62937500D03*
X144450000Y-62937500D03*
X143500000Y-61062500D03*
D10*
X152050000Y-59000000D03*
X153950000Y-59000000D03*
D12*
X139004000Y-62913500D03*
X140904000Y-62913500D03*
X139954000Y-61038500D03*
D10*
X137100000Y-70500000D03*
X139000000Y-70500000D03*
D14*
X152376500Y-67818000D03*
X150551500Y-67818000D03*
D10*
X148550000Y-59000000D03*
X150450000Y-59000000D03*
D14*
X157376500Y-67818000D03*
X155551500Y-67818000D03*
D12*
X149550000Y-62937500D03*
X151450000Y-62937500D03*
X150500000Y-61062500D03*
D15*
X154000000Y-69844000D03*
X152000000Y-70794000D03*
X154000000Y-71744000D03*
D14*
X134516500Y-71628000D03*
X132691500Y-71628000D03*
D11*
X138176000Y-74500000D03*
D12*
X153050000Y-62937500D03*
X154950000Y-62937500D03*
X154000000Y-61062500D03*
D16*
X130500000Y-59050000D03*
X130500000Y-60950000D03*
D10*
X153050000Y-65000000D03*
X154950000Y-65000000D03*
D17*
X164480000Y-64927500D03*
X164480000Y-67852500D03*
D10*
X138050000Y-59000000D03*
X139950000Y-59000000D03*
D18*
X156500000Y-69699500D03*
D19*
X156500000Y-71524500D03*
D10*
X139050000Y-65000000D03*
X140950000Y-65000000D03*
X149550000Y-65000000D03*
X151450000Y-65000000D03*
X146050000Y-65000000D03*
X147950000Y-65000000D03*
D20*
X164620000Y-59166000D03*
D21*
X134500000Y-58600000D03*
X134500000Y-61400000D03*
D22*
X140051500Y-67818000D03*
X141876500Y-67818000D03*
D10*
X156638000Y-65000000D03*
X158538000Y-65000000D03*
D23*
X142240000Y-75881000D03*
X143510000Y-75881000D03*
X144780000Y-75881000D03*
X146050000Y-75881000D03*
X147320000Y-75881000D03*
X148590000Y-75881000D03*
X149860000Y-75881000D03*
X149860000Y-70931000D03*
X148590000Y-70931000D03*
X147320000Y-70931000D03*
X146050000Y-70931000D03*
X144780000Y-70931000D03*
X143510000Y-70931000D03*
X142240000Y-70931000D03*
D20*
X128590000Y-75169500D03*
D24*
X131130000Y-75169500D03*
X133670000Y-75169500D03*
D25*
X128000000Y-60912500D03*
X128000000Y-59087500D03*
D14*
X147376500Y-67818000D03*
X145551500Y-67818000D03*
D22*
X152337500Y-75946000D03*
X154162500Y-75946000D03*
X152337500Y-73660000D03*
X154162500Y-73660000D03*
D10*
X155638000Y-59000000D03*
X157538000Y-59000000D03*
X142638000Y-65000000D03*
X144538000Y-65000000D03*
D26*
X128676000Y-63740000D03*
D27*
X134976000Y-66040000D03*
D26*
X128676000Y-66040000D03*
X128676000Y-68340000D03*
D12*
X160050000Y-62937500D03*
X161950000Y-62937500D03*
X161000000Y-61062500D03*
D10*
X159050000Y-59000000D03*
X160950000Y-59000000D03*
X141550000Y-59000000D03*
X143450000Y-59000000D03*
D20*
X164620000Y-61960000D03*
D22*
X129191500Y-71628000D03*
X131016500Y-71628000D03*
D12*
X146050000Y-62937500D03*
X147950000Y-62937500D03*
X147000000Y-61062500D03*
D28*
X150368000Y-72555800D03*
X132500000Y-66390200D03*
X127481000Y-62208000D03*
X138750000Y-68000000D03*
X157250000Y-74750000D03*
X130313000Y-66559400D03*
X140000000Y-70000000D03*
X153670000Y-67056000D03*
X149000000Y-67000000D03*
X137750000Y-62250000D03*
X151000000Y-75500000D03*
X144365000Y-72557800D03*
X132720000Y-73522100D03*
X137000000Y-65750000D03*
X158250000Y-77000000D03*
X154750000Y-75750000D03*
X157750000Y-70000000D03*
D29*
X164700000Y-70530000D02*
X164592000Y-70638000D01*
X164592000Y-70638000D02*
X164592000Y-74128000D01*
X164592000Y-74128000D02*
X164140000Y-74580000D01*
X164338000Y-67502500D02*
X164338000Y-70168000D01*
X164338000Y-70168000D02*
X164700000Y-70530000D01*
X151233000Y-72555800D02*
X152338000Y-73660000D01*
X142240000Y-74906000D02*
X143146000Y-74000000D01*
X142240000Y-75881000D02*
X142240000Y-74906000D01*
X149750000Y-74000000D02*
X150368000Y-73382000D01*
X150368000Y-72555800D02*
X151233000Y-72555800D01*
X152338000Y-74803000D02*
X152337500Y-74803500D01*
X152338000Y-73660000D02*
X152338000Y-74803000D01*
X152338000Y-73538900D02*
X152337500Y-73539400D01*
X152337500Y-73539400D02*
X152337500Y-73660000D01*
X152337500Y-74803500D02*
X152337500Y-75946000D01*
X152338000Y-74803000D02*
X152338000Y-75946000D01*
X150368000Y-73382000D02*
X150368000Y-72555800D01*
X152338000Y-73417900D02*
X152338000Y-73538900D01*
X143146000Y-74000000D02*
X149750000Y-74000000D01*
X152338000Y-73538900D02*
X152338000Y-73660000D01*
X139000000Y-70500000D02*
X139500000Y-70500000D01*
X139500000Y-70500000D02*
X140000000Y-70000000D01*
X137750000Y-62250000D02*
X138087500Y-61912500D01*
X130178980Y-69842980D02*
X130178980Y-72316182D01*
X151210000Y-75710000D02*
X151000000Y-75500000D01*
X140103000Y-70358000D02*
X140000000Y-70255000D01*
X128676000Y-68340000D02*
X130178980Y-69842980D01*
X130178980Y-72316182D02*
X131384898Y-73522100D01*
X138087500Y-61912500D02*
X138087500Y-59000000D01*
X131384898Y-73522100D02*
X132720000Y-73522100D01*
X138000000Y-62000000D02*
X138000000Y-61000000D01*
X138750000Y-67500000D02*
X138750000Y-68000000D01*
X151210000Y-76343900D02*
X151210000Y-75710000D01*
X137750000Y-62250000D02*
X138000000Y-62000000D01*
X127350989Y-67014989D02*
X128676000Y-68340000D01*
X127350989Y-62338011D02*
X127350989Y-67014989D01*
X140000000Y-70255000D02*
X140000000Y-70000000D01*
X137000000Y-65750000D02*
X138750000Y-67500000D01*
X157000000Y-72024500D02*
X156500000Y-71524500D01*
X127481000Y-62208000D02*
X127350989Y-62338011D01*
X134050000Y-59050000D02*
X134500000Y-58600000D01*
X128000000Y-59087500D02*
X130462000Y-59087500D01*
X130500000Y-59050000D02*
X134050000Y-59050000D01*
X130462000Y-59087500D02*
X130500000Y-59050000D01*
X139087500Y-64328500D02*
X139087500Y-65000000D01*
X134374600Y-63294700D02*
X134568000Y-63101300D01*
X139088000Y-63656000D02*
X138943400Y-63656000D01*
X139088000Y-65000000D02*
X139088000Y-64328000D01*
X139004000Y-63595400D02*
X139004000Y-62913500D01*
X137423000Y-63294700D02*
X134374600Y-63294700D01*
X139088000Y-64328000D02*
X139088000Y-63656000D01*
X134374600Y-63294700D02*
X130447000Y-63294700D01*
X137784000Y-63656000D02*
X137423000Y-63294700D01*
X134500000Y-61400000D02*
X134568000Y-61468000D01*
X134568000Y-63101300D02*
X134568000Y-61468000D01*
X130001000Y-63740000D02*
X128676000Y-63740000D01*
X139088000Y-64328000D02*
X139087500Y-64328500D01*
X138943400Y-63656000D02*
X139004000Y-63595400D01*
X130447000Y-63294700D02*
X130001000Y-63740000D01*
X138943400Y-63656000D02*
X137784000Y-63656000D01*
X146050000Y-62937500D02*
X145294000Y-62937500D01*
X144500500Y-65000000D02*
X145294000Y-65000000D01*
X145294000Y-62937500D02*
X144450000Y-62937500D01*
X144500000Y-65000000D02*
X144500500Y-65000000D01*
X145294000Y-65000000D02*
X146087500Y-65000000D01*
X146087500Y-65000000D02*
X146088000Y-65000000D01*
X145294000Y-65000000D02*
X145294000Y-62937500D01*
X140052000Y-67818000D02*
X140052000Y-66809500D01*
X140052000Y-64262300D02*
X139912000Y-64123300D01*
X141587500Y-59000000D02*
X141588000Y-59000000D01*
X139912500Y-59000000D02*
X141587500Y-59000000D01*
X140051500Y-66810000D02*
X140051500Y-67818000D01*
X140052000Y-66809500D02*
X140051500Y-66810000D01*
X139912000Y-64123300D02*
X139912000Y-60537600D01*
X139954000Y-60579600D02*
X139954000Y-61038500D01*
X139912000Y-60537600D02*
X139954000Y-60579600D01*
X141588000Y-59000000D02*
X141946000Y-59358500D01*
X139912000Y-59000000D02*
X139912500Y-59000000D01*
X140052000Y-66809500D02*
X140052000Y-64262300D01*
X139912000Y-60537600D02*
X139912000Y-59000000D01*
X141756000Y-65000000D02*
X141810000Y-64945500D01*
X141756000Y-65000000D02*
X140912500Y-65000000D01*
X142526000Y-62913500D02*
X142550000Y-62937500D01*
X141810000Y-62913500D02*
X142526000Y-62913500D01*
X142675500Y-65000000D02*
X141756000Y-65000000D01*
X140912500Y-65000000D02*
X140912000Y-65000000D01*
X140904000Y-62913500D02*
X141810000Y-62913500D01*
X142676000Y-65000000D02*
X142675500Y-65000000D01*
X141810000Y-64945500D02*
X141810000Y-62913500D01*
X142628000Y-62859000D02*
X142550000Y-62937500D01*
X143412000Y-59000000D02*
X143412500Y-59000000D01*
X143412000Y-60975000D02*
X143412000Y-59000000D01*
X143500000Y-61062500D02*
X143412000Y-60975000D01*
X143412500Y-59000000D02*
X145087500Y-59000000D01*
X145087500Y-59000000D02*
X145088000Y-59000000D01*
X153087500Y-65000000D02*
X153088000Y-65000000D01*
X153050000Y-62937500D02*
X151450000Y-62937500D01*
X151412000Y-65000000D02*
X151412500Y-65000000D01*
X153050000Y-65000000D02*
X153050000Y-62937500D01*
X151412500Y-65000000D02*
X153050000Y-65000000D01*
X153050000Y-65000000D02*
X153087500Y-65000000D01*
X147000000Y-59087500D02*
X146912300Y-59000200D01*
X146912300Y-59000200D02*
X146912000Y-59000000D01*
X148587500Y-59000000D02*
X147088000Y-59000000D01*
X148588000Y-59000000D02*
X148587500Y-59000000D01*
X147088000Y-59000000D02*
X147000000Y-59087500D01*
X146912500Y-59000000D02*
X146912300Y-59000200D01*
X147000000Y-61062500D02*
X147000000Y-59087500D01*
X147912000Y-65000000D02*
X147912500Y-65000000D01*
X148750000Y-65000000D02*
X149587500Y-65000000D01*
X148750000Y-65000000D02*
X148750000Y-62937500D01*
X149587500Y-65000000D02*
X149588000Y-65000000D01*
X148750000Y-62937500D02*
X149550000Y-62937500D01*
X147912500Y-65000000D02*
X148750000Y-65000000D01*
X147950000Y-62937500D02*
X148750000Y-62937500D01*
X153912500Y-59000000D02*
X155675500Y-59000000D01*
X155675500Y-59000000D02*
X155676000Y-59000000D01*
X154000000Y-61062500D02*
X153912000Y-60975000D01*
X153912000Y-60975000D02*
X153912000Y-59000000D01*
X153912000Y-59000000D02*
X153912500Y-59000000D01*
X154912500Y-65000000D02*
X154912000Y-65000000D01*
X154950000Y-62937500D02*
X156550000Y-62937500D01*
X154950000Y-65000000D02*
X154950000Y-62937500D01*
X156675500Y-65000000D02*
X154950000Y-65000000D01*
X154950000Y-65000000D02*
X154912500Y-65000000D01*
X156676000Y-65000000D02*
X156675500Y-65000000D01*
X157500000Y-59000000D02*
X157500000Y-61062500D01*
X159087500Y-59000000D02*
X157500500Y-59000000D01*
X157500500Y-59000000D02*
X157500000Y-59000000D01*
X159088000Y-59000000D02*
X159087500Y-59000000D01*
X160050000Y-62937500D02*
X158450000Y-62937500D01*
X158450000Y-64949500D02*
X158450000Y-62937500D01*
X158500000Y-65000000D02*
X158450000Y-64949500D01*
X158500500Y-65000000D02*
X158500000Y-65000000D01*
X152000000Y-59087500D02*
X152087700Y-59000200D01*
X152087500Y-59000000D02*
X152087700Y-59000200D01*
X152087700Y-59000200D02*
X152088000Y-59000000D01*
X150500000Y-59087500D02*
X152000000Y-59087500D01*
X150412300Y-59000200D02*
X150412000Y-59000000D01*
X150500000Y-59087500D02*
X150412300Y-59000200D01*
X150412500Y-59000000D02*
X150412300Y-59000200D01*
X150500000Y-61062500D02*
X150500000Y-59087500D01*
X129192000Y-73392700D02*
X129192000Y-71628000D01*
X128000000Y-60912500D02*
X127300000Y-60912500D01*
X128590000Y-75169500D02*
X128590000Y-73994200D01*
X126755989Y-61456511D02*
X126755989Y-69192489D01*
X126755989Y-69192489D02*
X129191500Y-71628000D01*
X128590000Y-73994200D02*
X129192000Y-73392700D01*
X127300000Y-60912500D02*
X126755989Y-61456511D01*
X128000000Y-60912500D02*
X127391250Y-60912500D01*
X129191500Y-71628000D02*
X129192000Y-71628000D01*
X142240000Y-70931000D02*
X141545609Y-71625391D01*
X141164980Y-72006020D02*
X142240000Y-70931000D01*
X141164980Y-77089404D02*
X141164980Y-72006020D01*
X135644500Y-70500000D02*
X134516500Y-71628000D01*
X141545609Y-71625391D02*
X138225391Y-71625391D01*
X158250000Y-77000000D02*
X157583980Y-77666020D01*
X137100000Y-70500000D02*
X135644500Y-70500000D01*
X134516000Y-71628000D02*
X134516500Y-71628000D01*
X141741596Y-77666020D02*
X141164980Y-77089404D01*
X138225391Y-71625391D02*
X137100000Y-70500000D01*
X157583980Y-77666020D02*
X141741596Y-77666020D01*
X161484280Y-61062500D02*
X161000000Y-61062500D01*
X162575020Y-62814520D02*
X162575020Y-62153240D01*
X164338000Y-64577500D02*
X162575020Y-62814520D01*
X160950000Y-59000000D02*
X160950000Y-61012500D01*
X160950000Y-61012500D02*
X161000000Y-61062500D01*
X160912000Y-59000000D02*
X160912300Y-59000200D01*
X162575020Y-62153240D02*
X161484280Y-61062500D01*
X160912300Y-59000200D02*
X161000000Y-59087500D01*
X160912500Y-59000000D02*
X160912300Y-59000200D01*
X150841553Y-69624000D02*
X152011553Y-70794000D01*
X144414000Y-69624000D02*
X143510000Y-70527800D01*
X148590000Y-69624000D02*
X150841553Y-69624000D01*
X144780000Y-75881000D02*
X143510000Y-75881000D01*
X144780000Y-75881000D02*
X144780000Y-76856000D01*
X147320000Y-76257800D02*
X147320000Y-75881000D01*
X143510000Y-75881000D02*
X143510000Y-76856000D01*
X146397000Y-77181000D02*
X147320000Y-76257800D01*
X141615000Y-73385000D02*
X143510000Y-71490000D01*
X146050000Y-69624000D02*
X144414000Y-69624000D01*
X143150000Y-77216000D02*
X141928000Y-77216000D01*
X144780000Y-76856000D02*
X145105000Y-77181000D01*
X143510000Y-76856000D02*
X143150000Y-77216000D01*
X148590000Y-69624000D02*
X148590000Y-70931000D01*
X143510000Y-70527800D02*
X143510000Y-70931000D01*
X141615000Y-76902800D02*
X141615000Y-73385000D01*
X146050000Y-69624000D02*
X146050000Y-70931000D01*
X143510000Y-71490000D02*
X143510000Y-70931000D01*
X141928000Y-77216000D02*
X141615000Y-76902800D01*
X146050000Y-69624000D02*
X148590000Y-69624000D01*
X145105000Y-77181000D02*
X146397000Y-77181000D01*
X128676000Y-65500000D02*
X130500000Y-65500000D01*
X149860000Y-71370600D02*
X149860000Y-70931000D01*
X147320000Y-72270700D02*
X147320000Y-70931000D01*
X128676000Y-66040000D02*
X128676000Y-65500000D01*
X138110000Y-69174000D02*
X134976000Y-66040000D01*
X148495000Y-74581000D02*
X146973000Y-74581000D01*
X134976000Y-66040000D02*
X134976000Y-65504300D01*
X152424000Y-69342000D02*
X152414000Y-69342000D01*
X153325000Y-76484200D02*
X153325000Y-73121800D01*
X152851659Y-69769659D02*
X152424000Y-69342000D01*
X146050000Y-75504200D02*
X146050000Y-75881000D01*
X148960000Y-72270700D02*
X149860000Y-71370600D01*
X151723000Y-71519400D02*
X150223000Y-71519400D01*
X146973000Y-74581000D02*
X146050000Y-75504200D01*
X134976000Y-65000000D02*
X134976000Y-65504300D01*
X144780000Y-71369900D02*
X144780000Y-70931000D01*
X147320000Y-72270700D02*
X148960000Y-72270700D01*
X147320000Y-72270700D02*
X145681000Y-72270700D01*
X130500000Y-65500000D02*
X131000000Y-65000000D01*
X152246000Y-69174000D02*
X138110000Y-69174000D01*
X149860000Y-71370600D02*
X150009000Y-71519400D01*
X148590000Y-75881000D02*
X148590000Y-76856000D01*
X150009000Y-71519400D02*
X150223000Y-71519400D01*
X148590000Y-74676000D02*
X148495000Y-74581000D01*
X131000000Y-65000000D02*
X134976000Y-65000000D01*
X145681000Y-72270700D02*
X144780000Y-71369900D01*
X152414000Y-69342000D02*
X152246000Y-69174000D01*
X148590000Y-76856000D02*
X148915000Y-77181000D01*
X153325000Y-73121800D02*
X151723000Y-71519400D01*
X152851659Y-72648341D02*
X152851659Y-69769659D01*
X152628000Y-77181000D02*
X153325000Y-76484200D01*
X148915000Y-77181000D02*
X152628000Y-77181000D01*
X148590000Y-75881000D02*
X148590000Y-74676000D01*
X150223000Y-71519400D02*
X151723000Y-71519400D01*
X154000000Y-73497500D02*
X154000000Y-71744000D01*
X154162000Y-73660000D02*
X154162300Y-73659800D01*
X154162500Y-73660000D02*
X154162300Y-73659800D01*
X132691500Y-71628000D02*
X132692000Y-71628000D01*
X131016000Y-71628000D02*
X131016500Y-71628000D01*
X131016500Y-71628000D02*
X132691500Y-71628000D01*
X150551500Y-67818000D02*
X150552000Y-67818000D01*
X147376000Y-67818000D02*
X147376500Y-67818000D01*
X147376500Y-67818000D02*
X150551500Y-67818000D01*
X154358500Y-75750000D02*
X154162500Y-75946000D01*
X154162000Y-75946000D02*
X154162500Y-75946000D01*
X154750000Y-75750000D02*
X154358500Y-75750000D01*
X156500000Y-69699500D02*
X156699500Y-69699500D01*
X157376300Y-67818200D02*
X157540000Y-67981100D01*
X157449500Y-69699500D02*
X157750000Y-70000000D01*
X157376500Y-68823000D02*
X156500000Y-69699500D01*
X157376000Y-67818000D02*
X157376300Y-67818200D01*
X156500000Y-69699500D02*
X157449500Y-69699500D01*
X157376500Y-67818000D02*
X157376500Y-68823000D01*
X157376500Y-67818000D02*
X157376300Y-67818200D01*
X152376500Y-67818000D02*
X152376000Y-67818000D01*
X155552000Y-67818000D02*
X155551500Y-67818000D01*
X155551500Y-67818000D02*
X152376500Y-67818000D01*
X141876500Y-67818000D02*
X141876000Y-67818000D01*
X145551500Y-67818000D02*
X141876500Y-67818000D01*
X145552000Y-67818000D02*
X145551500Y-67818000D01*
%TA.AperFunction,Conductor*%
G36*
X126954512Y-70287370D02*
G01*
X126961095Y-70293499D01*
X128133595Y-71465999D01*
X128167621Y-71528311D01*
X128170500Y-71555094D01*
X128170500Y-72120886D01*
X128175359Y-72162563D01*
X128184362Y-72239779D01*
X128185978Y-72253643D01*
X128188474Y-72260521D01*
X128188475Y-72260523D01*
X128238975Y-72399649D01*
X128246313Y-72419864D01*
X128287735Y-72483043D01*
X128325422Y-72540525D01*
X128343269Y-72567747D01*
X128471645Y-72689358D01*
X128486138Y-72697776D01*
X128495787Y-72703381D01*
X128544645Y-72754892D01*
X128558500Y-72812334D01*
X128558500Y-73077919D01*
X128538498Y-73146040D01*
X128521559Y-73167051D01*
X128197708Y-73490634D01*
X128189476Y-73498120D01*
X128183005Y-73502227D01*
X128177582Y-73508002D01*
X128137242Y-73550960D01*
X128134450Y-73553840D01*
X128120864Y-73567415D01*
X128114237Y-73574036D01*
X128111811Y-73577161D01*
X128111810Y-73577162D01*
X128111500Y-73577562D01*
X128103822Y-73586549D01*
X128073443Y-73618899D01*
X128063758Y-73636515D01*
X128052876Y-73653074D01*
X128040552Y-73668949D01*
X128037403Y-73676218D01*
X128037401Y-73676221D01*
X128022916Y-73709657D01*
X128017718Y-73720262D01*
X128006481Y-73740703D01*
X127956135Y-73790760D01*
X127896067Y-73806000D01*
X127740000Y-73806000D01*
X127666921Y-73811227D01*
X127619599Y-73825122D01*
X127535330Y-73849865D01*
X127535328Y-73849866D01*
X127526684Y-73852404D01*
X127493122Y-73873973D01*
X127411309Y-73926551D01*
X127411306Y-73926553D01*
X127403729Y-73931423D01*
X127397828Y-73938233D01*
X127313918Y-74035069D01*
X127313916Y-74035072D01*
X127308016Y-74041881D01*
X127304272Y-74050079D01*
X127257322Y-74152886D01*
X127247300Y-74174830D01*
X127246018Y-74183745D01*
X127246018Y-74183746D01*
X127227139Y-74315052D01*
X127227138Y-74315059D01*
X127226500Y-74319500D01*
X127226500Y-76019500D01*
X127231727Y-76092579D01*
X127249502Y-76153115D01*
X127265878Y-76208886D01*
X127272904Y-76232816D01*
X127277775Y-76240395D01*
X127347051Y-76348191D01*
X127347053Y-76348194D01*
X127351923Y-76355771D01*
X127358733Y-76361672D01*
X127455569Y-76445582D01*
X127455572Y-76445584D01*
X127462381Y-76451484D01*
X127470579Y-76455228D01*
X127582998Y-76506568D01*
X127595330Y-76512200D01*
X127604245Y-76513482D01*
X127604246Y-76513482D01*
X127735552Y-76532361D01*
X127735559Y-76532362D01*
X127740000Y-76533000D01*
X129440000Y-76533000D01*
X129513079Y-76527773D01*
X129605636Y-76500596D01*
X129644670Y-76489135D01*
X129644672Y-76489134D01*
X129653316Y-76486596D01*
X129691472Y-76462074D01*
X129768691Y-76412449D01*
X129768694Y-76412447D01*
X129776271Y-76407577D01*
X129801086Y-76378939D01*
X129866082Y-76303931D01*
X129866084Y-76303928D01*
X129871984Y-76297119D01*
X129932700Y-76164170D01*
X129933320Y-76159860D01*
X129970432Y-76102110D01*
X130035012Y-76072617D01*
X130105286Y-76082720D01*
X130137335Y-76103770D01*
X130305629Y-76255569D01*
X130310142Y-76258428D01*
X130310144Y-76258429D01*
X130371228Y-76297119D01*
X130500406Y-76378939D01*
X130713184Y-76467728D01*
X130718387Y-76468925D01*
X130718392Y-76468926D01*
X130932678Y-76518201D01*
X130932683Y-76518202D01*
X130937881Y-76519397D01*
X130943209Y-76519700D01*
X130943212Y-76519700D01*
X131093877Y-76528255D01*
X131168071Y-76532468D01*
X131173378Y-76531868D01*
X131173380Y-76531868D01*
X131347354Y-76512200D01*
X131397173Y-76506568D01*
X131402288Y-76505087D01*
X131402292Y-76505086D01*
X131527679Y-76468776D01*
X131618635Y-76442437D01*
X131826125Y-76341909D01*
X131830463Y-76338809D01*
X131830468Y-76338806D01*
X132009370Y-76210959D01*
X132013711Y-76207857D01*
X132099265Y-76121554D01*
X132172277Y-76047903D01*
X132172278Y-76047902D01*
X132176030Y-76044117D01*
X132223315Y-75976712D01*
X132297953Y-75870316D01*
X132353449Y-75826036D01*
X132424075Y-75818789D01*
X132487407Y-75850875D01*
X132511781Y-75882458D01*
X132529550Y-75915117D01*
X132535402Y-75923991D01*
X132671486Y-76096613D01*
X132678750Y-76104375D01*
X132841967Y-76251594D01*
X132850444Y-76258028D01*
X133036122Y-76375636D01*
X133045567Y-76380553D01*
X133248406Y-76465194D01*
X133258545Y-76468450D01*
X133398345Y-76500596D01*
X133412422Y-76499757D01*
X133416000Y-76490499D01*
X133416000Y-75437048D01*
X133924000Y-75437048D01*
X133924000Y-76489441D01*
X133928151Y-76503579D01*
X133938798Y-76505274D01*
X133942192Y-76504596D01*
X134153333Y-76443454D01*
X134163259Y-76439643D01*
X134361065Y-76343807D01*
X134370212Y-76338376D01*
X134549041Y-76210583D01*
X134557149Y-76203682D01*
X134711893Y-76047582D01*
X134718706Y-76039433D01*
X134844940Y-75859488D01*
X134850295Y-75850287D01*
X134944399Y-75651656D01*
X134948123Y-75641697D01*
X135005968Y-75435218D01*
X135004430Y-75426851D01*
X134992137Y-75423500D01*
X133942115Y-75423500D01*
X133926876Y-75427975D01*
X133925671Y-75429365D01*
X133924000Y-75437048D01*
X133416000Y-75437048D01*
X133416000Y-73853217D01*
X133415328Y-73850930D01*
X133924000Y-73850930D01*
X133924000Y-74897385D01*
X133928475Y-74912624D01*
X133929865Y-74913829D01*
X133937548Y-74915500D01*
X134989079Y-74915500D01*
X135002610Y-74911527D01*
X135003876Y-74902718D01*
X134956954Y-74721933D01*
X134953419Y-74711895D01*
X134905526Y-74605576D01*
X136666187Y-74605576D01*
X136666944Y-74610579D01*
X136666944Y-74610584D01*
X136694484Y-74792687D01*
X136702488Y-74845609D01*
X136704034Y-74850425D01*
X136704035Y-74850428D01*
X136774898Y-75071137D01*
X136776700Y-75076750D01*
X136886911Y-75293053D01*
X136889901Y-75297138D01*
X136991187Y-75435527D01*
X137030288Y-75488952D01*
X137203141Y-75659408D01*
X137207266Y-75662340D01*
X137207269Y-75662342D01*
X137396898Y-75797105D01*
X137396902Y-75797108D01*
X137401023Y-75800036D01*
X137405561Y-75802269D01*
X137405566Y-75802272D01*
X137563602Y-75880035D01*
X137618843Y-75907217D01*
X137623678Y-75908695D01*
X137623680Y-75908696D01*
X137673709Y-75923991D01*
X137850998Y-75978193D01*
X137856017Y-75978880D01*
X137856019Y-75978881D01*
X138031240Y-76002883D01*
X138091514Y-76011140D01*
X138160858Y-76009445D01*
X138329143Y-76005333D01*
X138329147Y-76005333D01*
X138334204Y-76005209D01*
X138572823Y-75960552D01*
X138801234Y-75878320D01*
X138815674Y-75870316D01*
X138942461Y-75800036D01*
X139013558Y-75760626D01*
X139017536Y-75757496D01*
X139017540Y-75757493D01*
X139200358Y-75613629D01*
X139200359Y-75613628D01*
X139204334Y-75610500D01*
X139207756Y-75606779D01*
X139365231Y-75435527D01*
X139365234Y-75435523D01*
X139368654Y-75431804D01*
X139374130Y-75423500D01*
X139499504Y-75233359D01*
X139502290Y-75229134D01*
X139568746Y-75081263D01*
X139599730Y-75012322D01*
X139599732Y-75012316D01*
X139601804Y-75007706D01*
X139629935Y-74902718D01*
X139663327Y-74778098D01*
X139663327Y-74778097D01*
X139664635Y-74773216D01*
X139689168Y-74531696D01*
X139689500Y-74500000D01*
X139686720Y-74465446D01*
X139670437Y-74263061D01*
X139670436Y-74263056D01*
X139670031Y-74258020D01*
X139661970Y-74225199D01*
X139613331Y-74027179D01*
X139612124Y-74022265D01*
X139608736Y-74014282D01*
X139519245Y-73803456D01*
X139519245Y-73803455D01*
X139517269Y-73798801D01*
X139387907Y-73593378D01*
X139227365Y-73411279D01*
X139039775Y-73257191D01*
X138829962Y-73135076D01*
X138825235Y-73133262D01*
X138825232Y-73133260D01*
X138608048Y-73049891D01*
X138608044Y-73049890D01*
X138603324Y-73048078D01*
X138598374Y-73047044D01*
X138598371Y-73047043D01*
X138370643Y-72999468D01*
X138370639Y-72999468D01*
X138365692Y-72998434D01*
X138123180Y-72987422D01*
X138118160Y-72988003D01*
X138118156Y-72988003D01*
X137887056Y-73014742D01*
X137882026Y-73015324D01*
X137877155Y-73016702D01*
X137877152Y-73016703D01*
X137789067Y-73041629D01*
X137648436Y-73081424D01*
X137620862Y-73094282D01*
X137433001Y-73181882D01*
X137432997Y-73181884D01*
X137428419Y-73184019D01*
X137227635Y-73320472D01*
X137051250Y-73487271D01*
X137048172Y-73491297D01*
X137048171Y-73491298D01*
X136906875Y-73676105D01*
X136906872Y-73676109D01*
X136903802Y-73680125D01*
X136901412Y-73684583D01*
X136901411Y-73684584D01*
X136833764Y-73810745D01*
X136789085Y-73894072D01*
X136787439Y-73898853D01*
X136787437Y-73898857D01*
X136738190Y-74041881D01*
X136710049Y-74123608D01*
X136668729Y-74362828D01*
X136666187Y-74605576D01*
X134905526Y-74605576D01*
X134863147Y-74511498D01*
X134857967Y-74502192D01*
X134735218Y-74319866D01*
X134728557Y-74311580D01*
X134576830Y-74152530D01*
X134568873Y-74145490D01*
X134392523Y-74014282D01*
X134383486Y-74008678D01*
X134187550Y-73909059D01*
X134177699Y-73905059D01*
X133967778Y-73839878D01*
X133957396Y-73837595D01*
X133941959Y-73835549D01*
X133927792Y-73837746D01*
X133924000Y-73850930D01*
X133415328Y-73850930D01*
X133412027Y-73839686D01*
X133401420Y-73838161D01*
X133283554Y-73862891D01*
X133273358Y-73865951D01*
X133068932Y-73946682D01*
X133059396Y-73951416D01*
X132871486Y-74065442D01*
X132862896Y-74071706D01*
X132696884Y-74215764D01*
X132689464Y-74223395D01*
X132550100Y-74393360D01*
X132544079Y-74402122D01*
X132510427Y-74461239D01*
X132459344Y-74510545D01*
X132389714Y-74524406D01*
X132323643Y-74498422D01*
X132296405Y-74469273D01*
X132221383Y-74357839D01*
X132192627Y-74315126D01*
X132157565Y-74278371D01*
X132097507Y-74215415D01*
X132033482Y-74148299D01*
X131848504Y-74010671D01*
X131843753Y-74008255D01*
X131843749Y-74008253D01*
X131647740Y-73908597D01*
X131647739Y-73908597D01*
X131642982Y-73906178D01*
X131532887Y-73871993D01*
X131427895Y-73839391D01*
X131427889Y-73839390D01*
X131422792Y-73837807D01*
X131305640Y-73822280D01*
X131199515Y-73808214D01*
X131199510Y-73808214D01*
X131194230Y-73807514D01*
X131188900Y-73807714D01*
X131188899Y-73807714D01*
X131095320Y-73811227D01*
X130963831Y-73816163D01*
X130881368Y-73833466D01*
X130743411Y-73862412D01*
X130743408Y-73862413D01*
X130738184Y-73863509D01*
X130523740Y-73948197D01*
X130326631Y-74067806D01*
X130322601Y-74071303D01*
X130196406Y-74180809D01*
X130152492Y-74218915D01*
X130147339Y-74225200D01*
X130146364Y-74225865D01*
X130145390Y-74226866D01*
X130145186Y-74226668D01*
X130088681Y-74265195D01*
X130017710Y-74267128D01*
X129956961Y-74230385D01*
X129929008Y-74180809D01*
X129909634Y-74114829D01*
X129907096Y-74106184D01*
X129845713Y-74010671D01*
X129832949Y-73990809D01*
X129832947Y-73990806D01*
X129828077Y-73983229D01*
X129790844Y-73950966D01*
X129743938Y-73910321D01*
X129705555Y-73850594D01*
X129705555Y-73779598D01*
X129716034Y-73754401D01*
X129718235Y-73750397D01*
X129729124Y-73733826D01*
X129741448Y-73717951D01*
X129744598Y-73710681D01*
X129744600Y-73710677D01*
X129759085Y-73677242D01*
X129764287Y-73666629D01*
X129781844Y-73634694D01*
X129781846Y-73634690D01*
X129785662Y-73627748D01*
X129787632Y-73620074D01*
X129787635Y-73620067D01*
X129790660Y-73608285D01*
X129797085Y-73589531D01*
X129801920Y-73578370D01*
X129805074Y-73571091D01*
X129808039Y-73552423D01*
X129812034Y-73527261D01*
X129814432Y-73515696D01*
X129825465Y-73472725D01*
X129825500Y-73472169D01*
X129825500Y-73452411D01*
X129827059Y-73432649D01*
X129827221Y-73431631D01*
X129830176Y-73413021D01*
X129828067Y-73390605D01*
X129826054Y-73369221D01*
X129825500Y-73357415D01*
X129825500Y-72809314D01*
X129845502Y-72741193D01*
X129882415Y-72703942D01*
X129922448Y-72677695D01*
X129943747Y-72663731D01*
X130002662Y-72601539D01*
X130011206Y-72592520D01*
X130072576Y-72556822D01*
X130143502Y-72559970D01*
X130189332Y-72587700D01*
X130296645Y-72689358D01*
X130449555Y-72778175D01*
X130618796Y-72829433D01*
X130625236Y-72830008D01*
X130625237Y-72830008D01*
X130695185Y-72836251D01*
X130695191Y-72836251D01*
X130697978Y-72836500D01*
X131321886Y-72836500D01*
X131417106Y-72825398D01*
X131447371Y-72821870D01*
X131447372Y-72821870D01*
X131454643Y-72821022D01*
X131461521Y-72818526D01*
X131461523Y-72818525D01*
X131613985Y-72763184D01*
X131620864Y-72760687D01*
X131729659Y-72689358D01*
X131762622Y-72667747D01*
X131762624Y-72667746D01*
X131768747Y-72663731D01*
X131773782Y-72658416D01*
X131775485Y-72656992D01*
X131840576Y-72628643D01*
X131910661Y-72639984D01*
X131942958Y-72662183D01*
X131953393Y-72672068D01*
X131971645Y-72689358D01*
X132124555Y-72778175D01*
X132293796Y-72829433D01*
X132300236Y-72830008D01*
X132300237Y-72830008D01*
X132370185Y-72836251D01*
X132370191Y-72836251D01*
X132372978Y-72836500D01*
X132996886Y-72836500D01*
X133092106Y-72825398D01*
X133122371Y-72821870D01*
X133122372Y-72821870D01*
X133129643Y-72821022D01*
X133136521Y-72818526D01*
X133136523Y-72818525D01*
X133288985Y-72763184D01*
X133295864Y-72760687D01*
X133443747Y-72663731D01*
X133502662Y-72601539D01*
X133511206Y-72592520D01*
X133572576Y-72556822D01*
X133643502Y-72559970D01*
X133689332Y-72587700D01*
X133796645Y-72689358D01*
X133949555Y-72778175D01*
X134118796Y-72829433D01*
X134125236Y-72830008D01*
X134125237Y-72830008D01*
X134195185Y-72836251D01*
X134195191Y-72836251D01*
X134197978Y-72836500D01*
X134821886Y-72836500D01*
X134917106Y-72825398D01*
X134947371Y-72821870D01*
X134947372Y-72821870D01*
X134954643Y-72821022D01*
X134961521Y-72818526D01*
X134961523Y-72818525D01*
X135113985Y-72763184D01*
X135120864Y-72760687D01*
X135268747Y-72663731D01*
X135390358Y-72535355D01*
X135479175Y-72382445D01*
X135530433Y-72213204D01*
X135531008Y-72206763D01*
X135537251Y-72136815D01*
X135537251Y-72136809D01*
X135537500Y-72134022D01*
X135537500Y-71555094D01*
X135557502Y-71486973D01*
X135574405Y-71465999D01*
X135869999Y-71170405D01*
X135932311Y-71136379D01*
X135959094Y-71133500D01*
X136012447Y-71133500D01*
X136080568Y-71153502D01*
X136127061Y-71207158D01*
X136130886Y-71216509D01*
X136167313Y-71316864D01*
X136264269Y-71464747D01*
X136392645Y-71586358D01*
X136545555Y-71675175D01*
X136714796Y-71726433D01*
X136721236Y-71727008D01*
X136721237Y-71727008D01*
X136791185Y-71733251D01*
X136791191Y-71733251D01*
X136793978Y-71733500D01*
X137385406Y-71733500D01*
X137453527Y-71753502D01*
X137474501Y-71770405D01*
X137722000Y-72017904D01*
X137729360Y-72025992D01*
X137733418Y-72032386D01*
X137739195Y-72037811D01*
X137782269Y-72078260D01*
X137785111Y-72081015D01*
X137805425Y-72101329D01*
X137808836Y-72103974D01*
X137817856Y-72111678D01*
X137850090Y-72141948D01*
X137857034Y-72145765D01*
X137857036Y-72145767D01*
X137867844Y-72151709D01*
X137884368Y-72162563D01*
X137900368Y-72174974D01*
X137907639Y-72178121D01*
X137907640Y-72178121D01*
X137940942Y-72192532D01*
X137951598Y-72197753D01*
X137990343Y-72219053D01*
X137998026Y-72221025D01*
X137998027Y-72221026D01*
X138009959Y-72224090D01*
X138028663Y-72230494D01*
X138039976Y-72235390D01*
X138039983Y-72235392D01*
X138047255Y-72238539D01*
X138055079Y-72239778D01*
X138055082Y-72239779D01*
X138090926Y-72245456D01*
X138102547Y-72247863D01*
X138139609Y-72257378D01*
X138145366Y-72258856D01*
X138145922Y-72258891D01*
X138165843Y-72258891D01*
X138185553Y-72260442D01*
X138197505Y-72262335D01*
X138197506Y-72262335D01*
X138205335Y-72263575D01*
X138213227Y-72262829D01*
X138248973Y-72259450D01*
X138260831Y-72258891D01*
X140405480Y-72258891D01*
X140473601Y-72278893D01*
X140520094Y-72332549D01*
X140531480Y-72384891D01*
X140531480Y-77011020D01*
X140530966Y-77021924D01*
X140529314Y-77029315D01*
X140529563Y-77037241D01*
X140529563Y-77037242D01*
X140531418Y-77096270D01*
X140531480Y-77100227D01*
X140531480Y-77128982D01*
X140531976Y-77132907D01*
X140531976Y-77132908D01*
X140532019Y-77133247D01*
X140532952Y-77145091D01*
X140534341Y-77189287D01*
X140536553Y-77196899D01*
X140539992Y-77208737D01*
X140544002Y-77228100D01*
X140545020Y-77236156D01*
X140546540Y-77248192D01*
X140549456Y-77255557D01*
X140549457Y-77255561D01*
X140562817Y-77289305D01*
X140566659Y-77300526D01*
X140568289Y-77306135D01*
X140568092Y-77377132D01*
X140529542Y-77436751D01*
X140464879Y-77466064D01*
X140447332Y-77467297D01*
X127820524Y-77469982D01*
X127798876Y-77468112D01*
X127785461Y-77465774D01*
X127780594Y-77465686D01*
X127683864Y-77463937D01*
X127676255Y-77463569D01*
X127658659Y-77462184D01*
X127648836Y-77461022D01*
X127559817Y-77446923D01*
X127519028Y-77440463D01*
X127509320Y-77438531D01*
X127505660Y-77437652D01*
X127496148Y-77434969D01*
X127371155Y-77394356D01*
X127361886Y-77390937D01*
X127358817Y-77389666D01*
X127358426Y-77389504D01*
X127349436Y-77385360D01*
X127232321Y-77325686D01*
X127223681Y-77320847D01*
X127220493Y-77318893D01*
X127212277Y-77313403D01*
X127167166Y-77280628D01*
X127105936Y-77236142D01*
X127098181Y-77230028D01*
X127095309Y-77227575D01*
X127088055Y-77220869D01*
X126995127Y-77127940D01*
X126988412Y-77120676D01*
X126985971Y-77117818D01*
X126979846Y-77110048D01*
X126902599Y-77003726D01*
X126897105Y-76995504D01*
X126895150Y-76992314D01*
X126890313Y-76983678D01*
X126830641Y-76866566D01*
X126826494Y-76857569D01*
X126825060Y-76854106D01*
X126821641Y-76844837D01*
X126781030Y-76719852D01*
X126778350Y-76710353D01*
X126777466Y-76706669D01*
X126775539Y-76696985D01*
X126754977Y-76567156D01*
X126753814Y-76557332D01*
X126753375Y-76551747D01*
X126752431Y-76539758D01*
X126752064Y-76532152D01*
X126750366Y-76438299D01*
X126750285Y-76433816D01*
X126747616Y-76417312D01*
X126746000Y-76397197D01*
X126746000Y-70382594D01*
X126766002Y-70314473D01*
X126819658Y-70267980D01*
X126889932Y-70257876D01*
X126954512Y-70287370D01*
G37*
%TD.AperFunction*%
%TA.AperFunction,Conductor*%
G36*
X155018863Y-68978566D02*
G01*
X155153796Y-69019433D01*
X155160238Y-69020008D01*
X155172962Y-69021144D01*
X155223760Y-69025677D01*
X155289832Y-69051655D01*
X155331372Y-69109231D01*
X155335189Y-69180125D01*
X155333149Y-69187701D01*
X155298568Y-69301878D01*
X155297993Y-69308316D01*
X155297993Y-69308318D01*
X155291805Y-69377660D01*
X155291500Y-69381075D01*
X155291500Y-70004785D01*
X155291924Y-70008419D01*
X155291924Y-70008424D01*
X155299933Y-70077115D01*
X155306981Y-70137566D01*
X155309479Y-70144448D01*
X155343983Y-70239504D01*
X155367324Y-70303809D01*
X155464293Y-70451711D01*
X155469604Y-70456743D01*
X155469609Y-70456748D01*
X155535870Y-70519518D01*
X155571568Y-70580887D01*
X155568420Y-70651814D01*
X155540690Y-70697643D01*
X155444078Y-70799629D01*
X155435365Y-70811276D01*
X155353957Y-70951429D01*
X155348163Y-70964754D01*
X155300932Y-71120700D01*
X155298484Y-71133323D01*
X155292249Y-71203184D01*
X155292000Y-71208779D01*
X155292000Y-71252385D01*
X155296475Y-71267624D01*
X155297865Y-71268829D01*
X155305548Y-71270500D01*
X157689885Y-71270500D01*
X157705124Y-71266025D01*
X157726369Y-71241507D01*
X157735442Y-71224890D01*
X157797753Y-71190863D01*
X157868569Y-71195925D01*
X157923071Y-71235446D01*
X158876111Y-72431109D01*
X158881293Y-72438093D01*
X159387176Y-73171352D01*
X159409464Y-73242762D01*
X159413664Y-76975780D01*
X159408281Y-76994189D01*
X159411661Y-77000901D01*
X159413717Y-77023426D01*
X159414070Y-77337147D01*
X159394145Y-77405290D01*
X159340541Y-77451844D01*
X159288099Y-77463288D01*
X159238811Y-77463299D01*
X159228162Y-77463301D01*
X159160037Y-77443313D01*
X159113534Y-77389666D01*
X159103416Y-77319394D01*
X159108304Y-77298365D01*
X159108932Y-77296434D01*
X159143538Y-77189927D01*
X159162407Y-77010398D01*
X159165222Y-77003556D01*
X159162354Y-76989093D01*
X159144228Y-76816637D01*
X159144228Y-76816636D01*
X159143538Y-76810073D01*
X159084524Y-76628446D01*
X159077437Y-76616170D01*
X159028936Y-76532165D01*
X158989037Y-76463058D01*
X158967273Y-76438886D01*
X158865673Y-76326048D01*
X158865672Y-76326047D01*
X158861251Y-76321137D01*
X158855909Y-76317256D01*
X158855907Y-76317254D01*
X158712092Y-76212767D01*
X158712091Y-76212766D01*
X158706750Y-76208886D01*
X158700722Y-76206202D01*
X158700720Y-76206201D01*
X158538318Y-76133895D01*
X158538317Y-76133895D01*
X158532287Y-76131210D01*
X158438887Y-76111357D01*
X158351944Y-76092876D01*
X158351939Y-76092876D01*
X158345487Y-76091504D01*
X158154513Y-76091504D01*
X158148061Y-76092876D01*
X158148056Y-76092876D01*
X158061113Y-76111357D01*
X157967713Y-76131210D01*
X157961683Y-76133895D01*
X157961682Y-76133895D01*
X157799280Y-76206201D01*
X157799278Y-76206202D01*
X157793250Y-76208886D01*
X157787909Y-76212766D01*
X157787908Y-76212767D01*
X157644093Y-76317254D01*
X157644091Y-76317256D01*
X157638749Y-76321137D01*
X157634328Y-76326047D01*
X157634327Y-76326048D01*
X157532728Y-76438886D01*
X157510963Y-76463058D01*
X157471064Y-76532165D01*
X157422564Y-76616170D01*
X157415476Y-76628446D01*
X157356462Y-76810073D01*
X157355772Y-76816637D01*
X157355772Y-76816638D01*
X157344941Y-76919690D01*
X157317928Y-76985347D01*
X157259707Y-77025977D01*
X157219631Y-77032520D01*
X155151190Y-77032520D01*
X155083069Y-77012518D01*
X155036576Y-76958862D01*
X155026472Y-76888588D01*
X155042236Y-76843235D01*
X155121498Y-76706776D01*
X155121499Y-76706774D01*
X155125175Y-76700445D01*
X155152221Y-76611145D01*
X155191111Y-76551747D01*
X155205197Y-76541805D01*
X155206750Y-76541114D01*
X155310590Y-76465670D01*
X155355907Y-76432746D01*
X155355909Y-76432744D01*
X155361251Y-76428863D01*
X155404351Y-76380996D01*
X155484618Y-76291850D01*
X155484619Y-76291849D01*
X155489037Y-76286942D01*
X155566302Y-76153115D01*
X155581220Y-76127277D01*
X155581221Y-76127276D01*
X155584524Y-76121554D01*
X155643538Y-75939927D01*
X155646821Y-75908696D01*
X155662810Y-75756565D01*
X155663500Y-75750000D01*
X155654287Y-75662342D01*
X155644228Y-75566637D01*
X155644228Y-75566636D01*
X155643538Y-75560073D01*
X155620430Y-75488952D01*
X155601861Y-75431804D01*
X155584524Y-75378446D01*
X155578053Y-75367237D01*
X155500758Y-75233359D01*
X155489037Y-75213058D01*
X155370369Y-75081263D01*
X155365673Y-75076048D01*
X155365672Y-75076047D01*
X155361251Y-75071137D01*
X155206750Y-74958886D01*
X155200722Y-74956202D01*
X155200720Y-74956201D01*
X155038318Y-74883895D01*
X155038317Y-74883895D01*
X155032287Y-74881210D01*
X155025832Y-74879838D01*
X155025823Y-74879835D01*
X155008039Y-74876055D01*
X154945566Y-74842327D01*
X154911245Y-74780177D01*
X154915973Y-74709338D01*
X154942764Y-74666157D01*
X155031320Y-74572674D01*
X155031323Y-74572670D01*
X155036358Y-74567355D01*
X155125175Y-74414445D01*
X155176433Y-74245204D01*
X155178070Y-74226866D01*
X155183251Y-74168815D01*
X155183251Y-74168809D01*
X155183500Y-74166022D01*
X155183500Y-73167114D01*
X155168022Y-73034357D01*
X155161114Y-73015324D01*
X155110184Y-72875015D01*
X155107687Y-72868136D01*
X155029780Y-72749307D01*
X155014743Y-72726372D01*
X155014742Y-72726371D01*
X155010731Y-72720253D01*
X154885413Y-72601539D01*
X154849715Y-72540170D01*
X154852862Y-72469243D01*
X154871770Y-72436371D01*
X154871210Y-72436011D01*
X154876082Y-72428430D01*
X154881984Y-72421619D01*
X154885927Y-72412985D01*
X154938958Y-72296864D01*
X154938958Y-72296863D01*
X154942700Y-72288670D01*
X154946747Y-72260523D01*
X154962861Y-72148448D01*
X154962862Y-72148441D01*
X154963500Y-72144000D01*
X154963500Y-71792048D01*
X155292000Y-71792048D01*
X155292000Y-71826223D01*
X155292424Y-71833524D01*
X155306617Y-71955255D01*
X155309963Y-71969410D01*
X155365263Y-72121761D01*
X155371773Y-72134760D01*
X155460641Y-72270306D01*
X155469965Y-72281458D01*
X155587629Y-72392922D01*
X155599276Y-72401635D01*
X155739429Y-72483043D01*
X155752754Y-72488837D01*
X155908700Y-72536068D01*
X155921323Y-72538516D01*
X155991184Y-72544751D01*
X155996779Y-72545000D01*
X156227885Y-72545000D01*
X156243124Y-72540525D01*
X156244329Y-72539135D01*
X156246000Y-72531452D01*
X156246000Y-71796615D01*
X156244659Y-71792048D01*
X156754000Y-71792048D01*
X156754000Y-72526885D01*
X156758475Y-72542124D01*
X156759865Y-72543329D01*
X156767548Y-72545000D01*
X156989223Y-72545000D01*
X156996524Y-72544576D01*
X157118255Y-72530383D01*
X157132410Y-72527037D01*
X157284761Y-72471737D01*
X157297760Y-72465227D01*
X157433306Y-72376359D01*
X157444458Y-72367035D01*
X157555922Y-72249371D01*
X157564635Y-72237724D01*
X157646043Y-72097571D01*
X157651837Y-72084246D01*
X157699068Y-71928300D01*
X157701516Y-71915677D01*
X157707751Y-71845816D01*
X157708000Y-71840221D01*
X157708000Y-71796615D01*
X157703525Y-71781376D01*
X157702135Y-71780171D01*
X157694452Y-71778500D01*
X156772115Y-71778500D01*
X156756876Y-71782975D01*
X156755671Y-71784365D01*
X156754000Y-71792048D01*
X156244659Y-71792048D01*
X156241525Y-71781376D01*
X156240135Y-71780171D01*
X156232452Y-71778500D01*
X155310115Y-71778500D01*
X155294876Y-71782975D01*
X155293671Y-71784365D01*
X155292000Y-71792048D01*
X154963500Y-71792048D01*
X154963500Y-71344000D01*
X154958273Y-71270921D01*
X154923796Y-71153502D01*
X154919635Y-71139330D01*
X154919634Y-71139328D01*
X154917096Y-71130684D01*
X154892574Y-71092528D01*
X154842949Y-71015309D01*
X154842947Y-71015306D01*
X154838077Y-71007729D01*
X154773104Y-70951429D01*
X154734431Y-70917918D01*
X154734428Y-70917916D01*
X154727619Y-70912016D01*
X154719419Y-70908271D01*
X154717166Y-70907242D01*
X154715293Y-70905619D01*
X154711840Y-70903400D01*
X154712159Y-70902904D01*
X154663510Y-70860750D01*
X154643507Y-70792630D01*
X154663508Y-70724509D01*
X154701386Y-70686630D01*
X154778691Y-70636949D01*
X154778694Y-70636947D01*
X154786271Y-70632077D01*
X154800188Y-70616016D01*
X154876082Y-70528431D01*
X154876084Y-70528428D01*
X154881984Y-70521619D01*
X154916705Y-70445591D01*
X154938958Y-70396864D01*
X154938958Y-70396863D01*
X154942700Y-70388670D01*
X154955890Y-70296930D01*
X154962861Y-70248448D01*
X154962862Y-70248441D01*
X154963500Y-70244000D01*
X154963500Y-69444000D01*
X154958273Y-69370921D01*
X154927737Y-69266925D01*
X154919635Y-69239330D01*
X154919634Y-69239328D01*
X154917096Y-69230684D01*
X154876348Y-69167279D01*
X154856345Y-69099160D01*
X154876346Y-69031039D01*
X154930001Y-68984545D01*
X155000275Y-68974440D01*
X155018863Y-68978566D01*
G37*
%TD.AperFunction*%
%TA.AperFunction,Conductor*%
G36*
X151166429Y-73398295D02*
G01*
X151207108Y-73425508D01*
X151279563Y-73497911D01*
X151313611Y-73560211D01*
X151316500Y-73587038D01*
X151316500Y-74152886D01*
X151331978Y-74285643D01*
X151334474Y-74292521D01*
X151334475Y-74292523D01*
X151376187Y-74407437D01*
X151392313Y-74451864D01*
X151489269Y-74599747D01*
X151604957Y-74709338D01*
X151606632Y-74710925D01*
X151642330Y-74772294D01*
X151639183Y-74843221D01*
X151598189Y-74901187D01*
X151592696Y-74905150D01*
X151591371Y-74906258D01*
X151585253Y-74910269D01*
X151463642Y-75038645D01*
X151374825Y-75191555D01*
X151323567Y-75360796D01*
X151322992Y-75367236D01*
X151322992Y-75367237D01*
X151316762Y-75437048D01*
X151316500Y-75439978D01*
X151316500Y-76421500D01*
X151296498Y-76489621D01*
X151242842Y-76536114D01*
X151190500Y-76547500D01*
X150794000Y-76547500D01*
X150725879Y-76527498D01*
X150679386Y-76473842D01*
X150668000Y-76421500D01*
X150668000Y-76153115D01*
X150663525Y-76137876D01*
X150662135Y-76136671D01*
X150654452Y-76135000D01*
X149732000Y-76135000D01*
X149663879Y-76114998D01*
X149617386Y-76061342D01*
X149606000Y-76009000D01*
X149606000Y-75753000D01*
X149626002Y-75684879D01*
X149679658Y-75638386D01*
X149732000Y-75627000D01*
X150649885Y-75627000D01*
X150665124Y-75622525D01*
X150666329Y-75621135D01*
X150668000Y-75613452D01*
X150668000Y-75020379D01*
X150667503Y-75012489D01*
X150653165Y-74898984D01*
X150649254Y-74883751D01*
X150593909Y-74743966D01*
X150586332Y-74730184D01*
X150497966Y-74608559D01*
X150487198Y-74597092D01*
X150371357Y-74501260D01*
X150365449Y-74497511D01*
X150318652Y-74444121D01*
X150308149Y-74373905D01*
X150337274Y-74309158D01*
X150343871Y-74302033D01*
X150760513Y-73885391D01*
X150768601Y-73878031D01*
X150774995Y-73873973D01*
X150785852Y-73862412D01*
X150820869Y-73825122D01*
X150823624Y-73822280D01*
X150843938Y-73801966D01*
X150846583Y-73798555D01*
X150854289Y-73789533D01*
X150879133Y-73763077D01*
X150884557Y-73757301D01*
X150888376Y-73750355D01*
X150894318Y-73739547D01*
X150905172Y-73723023D01*
X150912725Y-73713286D01*
X150912725Y-73713285D01*
X150917583Y-73707023D01*
X150935142Y-73666447D01*
X150940363Y-73655790D01*
X150950963Y-73636509D01*
X150961662Y-73617048D01*
X150966640Y-73597660D01*
X150966699Y-73597432D01*
X150973103Y-73578728D01*
X150977999Y-73567415D01*
X150978001Y-73567408D01*
X150981148Y-73560136D01*
X150982602Y-73550960D01*
X150988065Y-73516465D01*
X150990472Y-73504842D01*
X150996003Y-73483300D01*
X151032318Y-73422294D01*
X151095850Y-73390605D01*
X151166429Y-73398295D01*
G37*
%TD.AperFunction*%
%TA.AperFunction,Conductor*%
G36*
X144207223Y-72263130D02*
G01*
X144225579Y-72275759D01*
X144241186Y-72288670D01*
X144274479Y-72316212D01*
X144424967Y-72387026D01*
X144432750Y-72388511D01*
X144432754Y-72388512D01*
X144563148Y-72413386D01*
X144563151Y-72413386D01*
X144568989Y-72414500D01*
X144876646Y-72414500D01*
X144944767Y-72434502D01*
X144965727Y-72451391D01*
X145177675Y-72663291D01*
X145184982Y-72671321D01*
X145189027Y-72677695D01*
X145194806Y-72683122D01*
X145194807Y-72683123D01*
X145237886Y-72723577D01*
X145240718Y-72726321D01*
X145255658Y-72741257D01*
X145261087Y-72746685D01*
X145264214Y-72749110D01*
X145264468Y-72749307D01*
X145273498Y-72757019D01*
X145305699Y-72787257D01*
X145312642Y-72791074D01*
X145323494Y-72797040D01*
X145339995Y-72807878D01*
X145356038Y-72820319D01*
X145396590Y-72837862D01*
X145407239Y-72843079D01*
X145445952Y-72864362D01*
X145465615Y-72869411D01*
X145484298Y-72875807D01*
X145491414Y-72878885D01*
X145502932Y-72883868D01*
X145510764Y-72885108D01*
X145510766Y-72885108D01*
X145546563Y-72890773D01*
X145558202Y-72893183D01*
X145595218Y-72902687D01*
X145595220Y-72902687D01*
X145600975Y-72904165D01*
X145601531Y-72904200D01*
X145621491Y-72904200D01*
X145641187Y-72905749D01*
X145653186Y-72907648D01*
X145661015Y-72908887D01*
X145704612Y-72904761D01*
X145716483Y-72904200D01*
X147248393Y-72904200D01*
X147272001Y-72906432D01*
X147279908Y-72907940D01*
X147335395Y-72904449D01*
X147343306Y-72904200D01*
X148881600Y-72904200D01*
X148892548Y-72904716D01*
X148899947Y-72906370D01*
X148907862Y-72906121D01*
X148907864Y-72906121D01*
X148966895Y-72904262D01*
X148970860Y-72904200D01*
X148999578Y-72904200D01*
X149003681Y-72903682D01*
X149003878Y-72903657D01*
X149015707Y-72902725D01*
X149059918Y-72901333D01*
X149067526Y-72899122D01*
X149067527Y-72899122D01*
X149079345Y-72895688D01*
X149098713Y-72891677D01*
X149110920Y-72890135D01*
X149110929Y-72890133D01*
X149118788Y-72889140D01*
X149126155Y-72886223D01*
X149126160Y-72886222D01*
X149159914Y-72872858D01*
X149171136Y-72869015D01*
X149188073Y-72864093D01*
X149213611Y-72856672D01*
X149231024Y-72846373D01*
X149248779Y-72837674D01*
X149267600Y-72830222D01*
X149276901Y-72823465D01*
X149303382Y-72804225D01*
X149313298Y-72797711D01*
X149327275Y-72789444D01*
X149396090Y-72771981D01*
X149463423Y-72794494D01*
X149507895Y-72849836D01*
X149511252Y-72858955D01*
X149533476Y-72927354D01*
X149536779Y-72933076D01*
X149536780Y-72933077D01*
X149628963Y-73092742D01*
X149626296Y-73094282D01*
X149645758Y-73148472D01*
X149629822Y-73217657D01*
X149609074Y-73245022D01*
X149524501Y-73329595D01*
X149462189Y-73363621D01*
X149435406Y-73366500D01*
X143224383Y-73366500D01*
X143213479Y-73365986D01*
X143206088Y-73364334D01*
X143198163Y-73364583D01*
X143198162Y-73364583D01*
X143139147Y-73366438D01*
X143135189Y-73366500D01*
X143106422Y-73366500D01*
X143102498Y-73366996D01*
X143102496Y-73366996D01*
X143102148Y-73367040D01*
X143090302Y-73367973D01*
X143046117Y-73369362D01*
X143026661Y-73375014D01*
X143007321Y-73379019D01*
X142987212Y-73381560D01*
X142979840Y-73384479D01*
X142979835Y-73384480D01*
X142946101Y-73397836D01*
X142934872Y-73401681D01*
X142892421Y-73414014D01*
X142874988Y-73424324D01*
X142857241Y-73433018D01*
X142838400Y-73440478D01*
X142831985Y-73445139D01*
X142802629Y-73466467D01*
X142792712Y-73472982D01*
X142754658Y-73495487D01*
X142754241Y-73495855D01*
X142751938Y-73498158D01*
X142685079Y-73522032D01*
X142615924Y-73505968D01*
X142566431Y-73455067D01*
X142552315Y-73385488D01*
X142578056Y-73319322D01*
X142588760Y-73307144D01*
X143444499Y-72451405D01*
X143506811Y-72417379D01*
X143533594Y-72414500D01*
X143699579Y-72414500D01*
X143758693Y-72407032D01*
X143817141Y-72399649D01*
X143817144Y-72399648D01*
X143825006Y-72398655D01*
X143832372Y-72395738D01*
X143832374Y-72395738D01*
X143972275Y-72340347D01*
X143972277Y-72340346D01*
X143979644Y-72337429D01*
X144004201Y-72319588D01*
X144071203Y-72270908D01*
X144138071Y-72247049D01*
X144207223Y-72263130D01*
G37*
%TD.AperFunction*%
%TA.AperFunction,Conductor*%
G36*
X141392617Y-69827502D02*
G01*
X141439110Y-69881158D01*
X141448264Y-69957110D01*
X141433491Y-70034554D01*
X141431500Y-70044989D01*
X141431500Y-70791406D01*
X141411498Y-70859527D01*
X141394595Y-70880501D01*
X141320110Y-70954986D01*
X141257798Y-70989012D01*
X141231015Y-70991891D01*
X140134000Y-70991891D01*
X140065879Y-70971889D01*
X140019386Y-70918233D01*
X140008000Y-70865891D01*
X140008000Y-70772115D01*
X140003525Y-70756876D01*
X140002135Y-70755671D01*
X139994452Y-70754000D01*
X138872000Y-70754000D01*
X138803879Y-70733998D01*
X138757386Y-70680342D01*
X138746000Y-70628000D01*
X138746000Y-70372000D01*
X138766002Y-70303879D01*
X138819658Y-70257386D01*
X138872000Y-70246000D01*
X139989885Y-70246000D01*
X140005124Y-70241525D01*
X140006329Y-70240135D01*
X140008000Y-70232452D01*
X140008000Y-69985777D01*
X140007576Y-69978476D01*
X140004033Y-69948092D01*
X140016011Y-69878114D01*
X140063921Y-69825720D01*
X140129185Y-69807500D01*
X141324496Y-69807500D01*
X141392617Y-69827502D01*
G37*
%TD.AperFunction*%
%TA.AperFunction,Conductor*%
G36*
X133404621Y-65653502D02*
G01*
X133451114Y-65707158D01*
X133462500Y-65759500D01*
X133462500Y-67940000D01*
X133467727Y-68013079D01*
X133508904Y-68153316D01*
X133513775Y-68160895D01*
X133583051Y-68268691D01*
X133583053Y-68268694D01*
X133587923Y-68276271D01*
X133594733Y-68282172D01*
X133691569Y-68366082D01*
X133691572Y-68366084D01*
X133698381Y-68371984D01*
X133831330Y-68432700D01*
X133840245Y-68433982D01*
X133840246Y-68433982D01*
X133971552Y-68452861D01*
X133971559Y-68452862D01*
X133976000Y-68453500D01*
X135976000Y-68453500D01*
X136049079Y-68448273D01*
X136127165Y-68425345D01*
X136180670Y-68409635D01*
X136180672Y-68409634D01*
X136189316Y-68407096D01*
X136260884Y-68361102D01*
X136329004Y-68341099D01*
X136397125Y-68361100D01*
X136418100Y-68378004D01*
X137091501Y-69051405D01*
X137125527Y-69113717D01*
X137120462Y-69184532D01*
X137077915Y-69241368D01*
X137011395Y-69266179D01*
X137002406Y-69266500D01*
X136807114Y-69266500D01*
X136711894Y-69277602D01*
X136681629Y-69281130D01*
X136681628Y-69281130D01*
X136674357Y-69281978D01*
X136667479Y-69284474D01*
X136667477Y-69284475D01*
X136619533Y-69301878D01*
X136508136Y-69342313D01*
X136360253Y-69439269D01*
X136238642Y-69567645D01*
X136203326Y-69628446D01*
X136170496Y-69684968D01*
X136149825Y-69720555D01*
X136147703Y-69727560D01*
X136147703Y-69727561D01*
X136132723Y-69777022D01*
X136093834Y-69836421D01*
X136029005Y-69865365D01*
X136012132Y-69866500D01*
X135722884Y-69866500D01*
X135711980Y-69865986D01*
X135704589Y-69864334D01*
X135696663Y-69864583D01*
X135696662Y-69864583D01*
X135637634Y-69866438D01*
X135633677Y-69866500D01*
X135604922Y-69866500D01*
X135600655Y-69867039D01*
X135588813Y-69867972D01*
X135544617Y-69869361D01*
X135537000Y-69871574D01*
X135525161Y-69875013D01*
X135505802Y-69879022D01*
X135493579Y-69880566D01*
X135493578Y-69880566D01*
X135485712Y-69881560D01*
X135478336Y-69884480D01*
X135478337Y-69884480D01*
X135444611Y-69897832D01*
X135433382Y-69901677D01*
X135398535Y-69911801D01*
X135398534Y-69911802D01*
X135390922Y-69914013D01*
X135384099Y-69918048D01*
X135373483Y-69924326D01*
X135355731Y-69933022D01*
X135336900Y-69940478D01*
X135314481Y-69956766D01*
X135301129Y-69966467D01*
X135291211Y-69972982D01*
X135253159Y-69995486D01*
X135252741Y-69995855D01*
X135238658Y-70009938D01*
X135223633Y-70022772D01*
X135207417Y-70034554D01*
X135179471Y-70068335D01*
X135171481Y-70077115D01*
X134866001Y-70382595D01*
X134803689Y-70416621D01*
X134776906Y-70419500D01*
X134211114Y-70419500D01*
X134115894Y-70430602D01*
X134085629Y-70434130D01*
X134085628Y-70434130D01*
X134078357Y-70434978D01*
X134071479Y-70437474D01*
X134071477Y-70437475D01*
X134018381Y-70456748D01*
X133912136Y-70495313D01*
X133849427Y-70536427D01*
X133778513Y-70582920D01*
X133764253Y-70592269D01*
X133759221Y-70597581D01*
X133696794Y-70663480D01*
X133635424Y-70699178D01*
X133564498Y-70696030D01*
X133518668Y-70668300D01*
X133428539Y-70582920D01*
X133411355Y-70566642D01*
X133258445Y-70477825D01*
X133089204Y-70426567D01*
X133082764Y-70425992D01*
X133082763Y-70425992D01*
X133012815Y-70419749D01*
X133012809Y-70419749D01*
X133010022Y-70419500D01*
X132386114Y-70419500D01*
X132290894Y-70430602D01*
X132260629Y-70434130D01*
X132260628Y-70434130D01*
X132253357Y-70434978D01*
X132246479Y-70437474D01*
X132246477Y-70437475D01*
X132193381Y-70456748D01*
X132087136Y-70495313D01*
X132024427Y-70536427D01*
X131953513Y-70582920D01*
X131939253Y-70592269D01*
X131934218Y-70597584D01*
X131932515Y-70599008D01*
X131867424Y-70627357D01*
X131797339Y-70616016D01*
X131765042Y-70593817D01*
X131741669Y-70571676D01*
X131736355Y-70566642D01*
X131583445Y-70477825D01*
X131414204Y-70426567D01*
X131407764Y-70425992D01*
X131407763Y-70425992D01*
X131337815Y-70419749D01*
X131337809Y-70419749D01*
X131335022Y-70419500D01*
X130711114Y-70419500D01*
X130615894Y-70430602D01*
X130585629Y-70434130D01*
X130585628Y-70434130D01*
X130578357Y-70434978D01*
X130571479Y-70437474D01*
X130571477Y-70437475D01*
X130518381Y-70456748D01*
X130412136Y-70495313D01*
X130349427Y-70536427D01*
X130278513Y-70582920D01*
X130264253Y-70592269D01*
X130259221Y-70597581D01*
X130196794Y-70663480D01*
X130135424Y-70699178D01*
X130064498Y-70696030D01*
X130018668Y-70668300D01*
X129928539Y-70582920D01*
X129911355Y-70566642D01*
X129758445Y-70477825D01*
X129589204Y-70426567D01*
X129582764Y-70425992D01*
X129582763Y-70425992D01*
X129512815Y-70419749D01*
X129512809Y-70419749D01*
X129510022Y-70419500D01*
X128931094Y-70419500D01*
X128862973Y-70399498D01*
X128841999Y-70382595D01*
X128277499Y-69818095D01*
X128243473Y-69755783D01*
X128248538Y-69684968D01*
X128291085Y-69628132D01*
X128357605Y-69603321D01*
X128366594Y-69603000D01*
X128403885Y-69603000D01*
X128419124Y-69598525D01*
X128420329Y-69597135D01*
X128422000Y-69589452D01*
X128422000Y-68607548D01*
X128930000Y-68607548D01*
X128930000Y-69584885D01*
X128934475Y-69600124D01*
X128935865Y-69601329D01*
X128943548Y-69603000D01*
X129673743Y-69603000D01*
X129678250Y-69602839D01*
X129742269Y-69598260D01*
X129755491Y-69595874D01*
X129880458Y-69559181D01*
X129896692Y-69551767D01*
X130004360Y-69482574D01*
X130017847Y-69470888D01*
X130101662Y-69374160D01*
X130111307Y-69359152D01*
X130164477Y-69242725D01*
X130169502Y-69225612D01*
X130188361Y-69094446D01*
X130189000Y-69085505D01*
X130189000Y-68612115D01*
X130184525Y-68596876D01*
X130183135Y-68595671D01*
X130175452Y-68594000D01*
X128948115Y-68594000D01*
X128932876Y-68598475D01*
X128931671Y-68599865D01*
X128930000Y-68607548D01*
X128422000Y-68607548D01*
X128422000Y-68212000D01*
X128442002Y-68143879D01*
X128495658Y-68097386D01*
X128548000Y-68086000D01*
X130170885Y-68086000D01*
X130186124Y-68081525D01*
X130187329Y-68080135D01*
X130189000Y-68072452D01*
X130189000Y-67592257D01*
X130188839Y-67587750D01*
X130184260Y-67523731D01*
X130181874Y-67510509D01*
X130145181Y-67385542D01*
X130137767Y-67369308D01*
X130064758Y-67255703D01*
X130044756Y-67187583D01*
X130064758Y-67119462D01*
X130075532Y-67105070D01*
X130102082Y-67074430D01*
X130107984Y-67067619D01*
X130168700Y-66934670D01*
X130175932Y-66884372D01*
X130188861Y-66794448D01*
X130188862Y-66794441D01*
X130189500Y-66790000D01*
X130189500Y-66259500D01*
X130209502Y-66191379D01*
X130263158Y-66144886D01*
X130315500Y-66133500D01*
X130421616Y-66133500D01*
X130432520Y-66134014D01*
X130439911Y-66135666D01*
X130447837Y-66135417D01*
X130447838Y-66135417D01*
X130506866Y-66133562D01*
X130510823Y-66133500D01*
X130539578Y-66133500D01*
X130543845Y-66132961D01*
X130555687Y-66132028D01*
X130587335Y-66131033D01*
X130591960Y-66130888D01*
X130599883Y-66130639D01*
X130619334Y-66124988D01*
X130638695Y-66120978D01*
X130641420Y-66120634D01*
X130650930Y-66119433D01*
X130650933Y-66119432D01*
X130658788Y-66118440D01*
X130666153Y-66115524D01*
X130666157Y-66115523D01*
X130699901Y-66102163D01*
X130711130Y-66098318D01*
X130715670Y-66096999D01*
X130753578Y-66085986D01*
X130762804Y-66080530D01*
X130771011Y-66075677D01*
X130788762Y-66066981D01*
X130800226Y-66062442D01*
X130800229Y-66062440D01*
X130807600Y-66059522D01*
X130843368Y-66033535D01*
X130853291Y-66027016D01*
X130865151Y-66020002D01*
X130891341Y-66004514D01*
X130891759Y-66004145D01*
X130905842Y-65990062D01*
X130920867Y-65977228D01*
X130937083Y-65965446D01*
X130965030Y-65931664D01*
X130973019Y-65922885D01*
X131225499Y-65670405D01*
X131287811Y-65636379D01*
X131314594Y-65633500D01*
X133336500Y-65633500D01*
X133404621Y-65653502D01*
G37*
%TD.AperFunction*%
%TA.AperFunction,Conductor*%
G36*
X137176342Y-63948202D02*
G01*
X137197353Y-63965142D01*
X137280428Y-64048286D01*
X137287917Y-64056519D01*
X137292027Y-64062995D01*
X137297802Y-64068418D01*
X137340776Y-64108774D01*
X137343646Y-64111557D01*
X137363836Y-64131763D01*
X137367368Y-64134505D01*
X137376349Y-64142178D01*
X137408699Y-64172557D01*
X137426315Y-64182242D01*
X137442874Y-64193124D01*
X137458749Y-64205448D01*
X137466019Y-64208598D01*
X137466023Y-64208600D01*
X137499458Y-64223085D01*
X137510071Y-64228287D01*
X137542006Y-64245844D01*
X137542010Y-64245846D01*
X137548952Y-64249662D01*
X137556626Y-64251632D01*
X137556633Y-64251635D01*
X137568415Y-64254660D01*
X137587169Y-64261085D01*
X137605609Y-64269074D01*
X137613441Y-64270318D01*
X137613442Y-64270318D01*
X137634480Y-64273659D01*
X137649441Y-64276034D01*
X137661004Y-64278432D01*
X137703975Y-64289465D01*
X137704531Y-64289500D01*
X137724289Y-64289500D01*
X137744051Y-64291059D01*
X137763679Y-64294176D01*
X137771564Y-64293434D01*
X137771567Y-64293434D01*
X137807479Y-64290054D01*
X137819285Y-64289500D01*
X137919772Y-64289500D01*
X137987893Y-64309502D01*
X138034386Y-64363158D01*
X138045273Y-64426700D01*
X138043628Y-64445140D01*
X138041500Y-64468978D01*
X138041500Y-65517886D01*
X138056978Y-65650643D01*
X138117313Y-65816864D01*
X138214269Y-65964747D01*
X138342645Y-66086358D01*
X138495555Y-66175175D01*
X138664796Y-66226433D01*
X138671236Y-66227008D01*
X138671237Y-66227008D01*
X138741185Y-66233251D01*
X138741191Y-66233251D01*
X138743978Y-66233500D01*
X139292500Y-66233500D01*
X139360621Y-66253502D01*
X139407114Y-66307158D01*
X139418500Y-66359500D01*
X139418500Y-66636031D01*
X139398498Y-66704152D01*
X139361586Y-66741402D01*
X139299253Y-66782269D01*
X139177642Y-66910645D01*
X139088825Y-67063555D01*
X139037567Y-67232796D01*
X139036992Y-67239236D01*
X139036992Y-67239237D01*
X139031257Y-67303500D01*
X139030500Y-67311978D01*
X139030500Y-68310886D01*
X139036355Y-68361102D01*
X139040879Y-68399909D01*
X139028900Y-68469888D01*
X138980990Y-68522281D01*
X138915727Y-68540500D01*
X138424594Y-68540500D01*
X138356473Y-68520498D01*
X138335499Y-68503595D01*
X136526405Y-66694501D01*
X136492379Y-66632189D01*
X136489500Y-66605406D01*
X136489500Y-64140000D01*
X136484273Y-64066921D01*
X136486332Y-64066774D01*
X136492874Y-64005972D01*
X136537427Y-63950695D01*
X136609279Y-63928200D01*
X137108221Y-63928200D01*
X137176342Y-63948202D01*
G37*
%TD.AperFunction*%
%TA.AperFunction,Conductor*%
G36*
X143757399Y-66020002D02*
G01*
X143775929Y-66034526D01*
X143830645Y-66086358D01*
X143983555Y-66175175D01*
X144152796Y-66226433D01*
X144159236Y-66227008D01*
X144159237Y-66227008D01*
X144229185Y-66233251D01*
X144229191Y-66233251D01*
X144231978Y-66233500D01*
X144830886Y-66233500D01*
X144926106Y-66222398D01*
X144956371Y-66218870D01*
X144956372Y-66218870D01*
X144963643Y-66218022D01*
X144970521Y-66215526D01*
X144970523Y-66215525D01*
X145122985Y-66160184D01*
X145129864Y-66157687D01*
X145222430Y-66096998D01*
X145290363Y-66076376D01*
X145354798Y-66093417D01*
X145495555Y-66175175D01*
X145664796Y-66226433D01*
X145671236Y-66227008D01*
X145671237Y-66227008D01*
X145741185Y-66233251D01*
X145741191Y-66233251D01*
X145743978Y-66233500D01*
X146342886Y-66233500D01*
X146438106Y-66222398D01*
X146468371Y-66218870D01*
X146468372Y-66218870D01*
X146475643Y-66218022D01*
X146482521Y-66215526D01*
X146482523Y-66215525D01*
X146634985Y-66160184D01*
X146641864Y-66157687D01*
X146758342Y-66081321D01*
X146783628Y-66064743D01*
X146783629Y-66064742D01*
X146789747Y-66060731D01*
X146794778Y-66055420D01*
X146794783Y-66055416D01*
X146810004Y-66039348D01*
X146871373Y-66003649D01*
X146901477Y-66000000D01*
X147101278Y-66000000D01*
X147169399Y-66020002D01*
X147187929Y-66034526D01*
X147242645Y-66086358D01*
X147395555Y-66175175D01*
X147564796Y-66226433D01*
X147571236Y-66227008D01*
X147571237Y-66227008D01*
X147641185Y-66233251D01*
X147641191Y-66233251D01*
X147643978Y-66233500D01*
X148242886Y-66233500D01*
X148338106Y-66222398D01*
X148368371Y-66218870D01*
X148368372Y-66218870D01*
X148375643Y-66218022D01*
X148382521Y-66215526D01*
X148382523Y-66215525D01*
X148534985Y-66160184D01*
X148541864Y-66157687D01*
X148680753Y-66066628D01*
X148748687Y-66046005D01*
X148816988Y-66065385D01*
X148836492Y-66080530D01*
X148837327Y-66081321D01*
X148837331Y-66081324D01*
X148842645Y-66086358D01*
X148995555Y-66175175D01*
X149164796Y-66226433D01*
X149171236Y-66227008D01*
X149171237Y-66227008D01*
X149241185Y-66233251D01*
X149241191Y-66233251D01*
X149243978Y-66233500D01*
X149842886Y-66233500D01*
X149938106Y-66222398D01*
X149968371Y-66218870D01*
X149968372Y-66218870D01*
X149975643Y-66218022D01*
X149982521Y-66215526D01*
X149982523Y-66215525D01*
X150134985Y-66160184D01*
X150141864Y-66157687D01*
X150258342Y-66081321D01*
X150283628Y-66064743D01*
X150283629Y-66064742D01*
X150289747Y-66060731D01*
X150294778Y-66055420D01*
X150294783Y-66055416D01*
X150310004Y-66039348D01*
X150371373Y-66003649D01*
X150401477Y-66000000D01*
X150601278Y-66000000D01*
X150669399Y-66020002D01*
X150687929Y-66034526D01*
X150742645Y-66086358D01*
X150895555Y-66175175D01*
X151064796Y-66226433D01*
X151071236Y-66227008D01*
X151071237Y-66227008D01*
X151141185Y-66233251D01*
X151141191Y-66233251D01*
X151143978Y-66233500D01*
X151742886Y-66233500D01*
X151838106Y-66222398D01*
X151868371Y-66218870D01*
X151868372Y-66218870D01*
X151875643Y-66218022D01*
X151882521Y-66215526D01*
X151882523Y-66215525D01*
X152034985Y-66160184D01*
X152041864Y-66157687D01*
X152180753Y-66066628D01*
X152248687Y-66046005D01*
X152316988Y-66065385D01*
X152336492Y-66080530D01*
X152337327Y-66081321D01*
X152337331Y-66081324D01*
X152342645Y-66086358D01*
X152495555Y-66175175D01*
X152664796Y-66226433D01*
X152671236Y-66227008D01*
X152671237Y-66227008D01*
X152741185Y-66233251D01*
X152741191Y-66233251D01*
X152743978Y-66233500D01*
X153342886Y-66233500D01*
X153438106Y-66222398D01*
X153468371Y-66218870D01*
X153468372Y-66218870D01*
X153475643Y-66218022D01*
X153482521Y-66215526D01*
X153482523Y-66215525D01*
X153634985Y-66160184D01*
X153641864Y-66157687D01*
X153699399Y-66119966D01*
X153767333Y-66099343D01*
X153835634Y-66118723D01*
X153867013Y-66146802D01*
X154531112Y-66979966D01*
X154557929Y-67045700D01*
X154544951Y-67115501D01*
X154496296Y-67167204D01*
X154432581Y-67184500D01*
X153467478Y-67184500D01*
X153399357Y-67164498D01*
X153352864Y-67110842D01*
X153349039Y-67101490D01*
X153324185Y-67033017D01*
X153324184Y-67033015D01*
X153321687Y-67026136D01*
X153224731Y-66878253D01*
X153096355Y-66756642D01*
X152943445Y-66667825D01*
X152774204Y-66616567D01*
X152767764Y-66615992D01*
X152767763Y-66615992D01*
X152697815Y-66609749D01*
X152697809Y-66609749D01*
X152695022Y-66609500D01*
X152071114Y-66609500D01*
X151975894Y-66620602D01*
X151945629Y-66624130D01*
X151945628Y-66624130D01*
X151938357Y-66624978D01*
X151931479Y-66627474D01*
X151931477Y-66627475D01*
X151907906Y-66636031D01*
X151772136Y-66685313D01*
X151624253Y-66782269D01*
X151619221Y-66787581D01*
X151556794Y-66853480D01*
X151495424Y-66889178D01*
X151424498Y-66886030D01*
X151378668Y-66858300D01*
X151276669Y-66761676D01*
X151271355Y-66756642D01*
X151118445Y-66667825D01*
X150949204Y-66616567D01*
X150942764Y-66615992D01*
X150942763Y-66615992D01*
X150872815Y-66609749D01*
X150872809Y-66609749D01*
X150870022Y-66609500D01*
X150246114Y-66609500D01*
X150150894Y-66620602D01*
X150120629Y-66624130D01*
X150120628Y-66624130D01*
X150113357Y-66624978D01*
X150106479Y-66627474D01*
X150106477Y-66627475D01*
X150082906Y-66636031D01*
X149947136Y-66685313D01*
X149799253Y-66782269D01*
X149677642Y-66910645D01*
X149588825Y-67063555D01*
X149586703Y-67070562D01*
X149586701Y-67070566D01*
X149579294Y-67095023D01*
X149540405Y-67154421D01*
X149475576Y-67183365D01*
X149458704Y-67184500D01*
X148467478Y-67184500D01*
X148399357Y-67164498D01*
X148352864Y-67110842D01*
X148349039Y-67101490D01*
X148324185Y-67033017D01*
X148324184Y-67033015D01*
X148321687Y-67026136D01*
X148224731Y-66878253D01*
X148096355Y-66756642D01*
X147943445Y-66667825D01*
X147774204Y-66616567D01*
X147767764Y-66615992D01*
X147767763Y-66615992D01*
X147697815Y-66609749D01*
X147697809Y-66609749D01*
X147695022Y-66609500D01*
X147071114Y-66609500D01*
X146975894Y-66620602D01*
X146945629Y-66624130D01*
X146945628Y-66624130D01*
X146938357Y-66624978D01*
X146931479Y-66627474D01*
X146931477Y-66627475D01*
X146907906Y-66636031D01*
X146772136Y-66685313D01*
X146624253Y-66782269D01*
X146619221Y-66787581D01*
X146556794Y-66853480D01*
X146495424Y-66889178D01*
X146424498Y-66886030D01*
X146378668Y-66858300D01*
X146276669Y-66761676D01*
X146271355Y-66756642D01*
X146118445Y-66667825D01*
X145949204Y-66616567D01*
X145942764Y-66615992D01*
X145942763Y-66615992D01*
X145872815Y-66609749D01*
X145872809Y-66609749D01*
X145870022Y-66609500D01*
X145246114Y-66609500D01*
X145150894Y-66620602D01*
X145120629Y-66624130D01*
X145120628Y-66624130D01*
X145113357Y-66624978D01*
X145106479Y-66627474D01*
X145106477Y-66627475D01*
X145082906Y-66636031D01*
X144947136Y-66685313D01*
X144799253Y-66782269D01*
X144677642Y-66910645D01*
X144588825Y-67063555D01*
X144586703Y-67070562D01*
X144586701Y-67070566D01*
X144579294Y-67095023D01*
X144540405Y-67154421D01*
X144475576Y-67183365D01*
X144458704Y-67184500D01*
X142967478Y-67184500D01*
X142899357Y-67164498D01*
X142852864Y-67110842D01*
X142849039Y-67101490D01*
X142824185Y-67033017D01*
X142824184Y-67033015D01*
X142821687Y-67026136D01*
X142724731Y-66878253D01*
X142596355Y-66756642D01*
X142443445Y-66667825D01*
X142274204Y-66616567D01*
X142267764Y-66615992D01*
X142267763Y-66615992D01*
X142197815Y-66609749D01*
X142197809Y-66609749D01*
X142195022Y-66609500D01*
X141571114Y-66609500D01*
X141475894Y-66620602D01*
X141445629Y-66624130D01*
X141445628Y-66624130D01*
X141438357Y-66624978D01*
X141431479Y-66627474D01*
X141431477Y-66627475D01*
X141407906Y-66636031D01*
X141272136Y-66685313D01*
X141124253Y-66782269D01*
X141119221Y-66787581D01*
X141056794Y-66853480D01*
X140995424Y-66889178D01*
X140924498Y-66886030D01*
X140878668Y-66858300D01*
X140776669Y-66761676D01*
X140771355Y-66756642D01*
X140765025Y-66752965D01*
X140765021Y-66752962D01*
X140748214Y-66743200D01*
X140699356Y-66691689D01*
X140685500Y-66634247D01*
X140685500Y-66359500D01*
X140705502Y-66291379D01*
X140759158Y-66244886D01*
X140811500Y-66233500D01*
X141242886Y-66233500D01*
X141338106Y-66222398D01*
X141368371Y-66218870D01*
X141368372Y-66218870D01*
X141375643Y-66218022D01*
X141382521Y-66215526D01*
X141382523Y-66215525D01*
X141534985Y-66160184D01*
X141541864Y-66157687D01*
X141658342Y-66081321D01*
X141683628Y-66064743D01*
X141683629Y-66064742D01*
X141689747Y-66060731D01*
X141694778Y-66055420D01*
X141694783Y-66055416D01*
X141704234Y-66045439D01*
X141765603Y-66009740D01*
X141836529Y-66012887D01*
X141882359Y-66040617D01*
X141908505Y-66065385D01*
X141930645Y-66086358D01*
X142083555Y-66175175D01*
X142252796Y-66226433D01*
X142259236Y-66227008D01*
X142259237Y-66227008D01*
X142329185Y-66233251D01*
X142329191Y-66233251D01*
X142331978Y-66233500D01*
X142930886Y-66233500D01*
X143026106Y-66222398D01*
X143056371Y-66218870D01*
X143056372Y-66218870D01*
X143063643Y-66218022D01*
X143070521Y-66215526D01*
X143070523Y-66215525D01*
X143222985Y-66160184D01*
X143229864Y-66157687D01*
X143346342Y-66081321D01*
X143371628Y-66064743D01*
X143371629Y-66064742D01*
X143377747Y-66060731D01*
X143382778Y-66055420D01*
X143382783Y-66055416D01*
X143398004Y-66039348D01*
X143459373Y-66003649D01*
X143489477Y-66000000D01*
X143689278Y-66000000D01*
X143757399Y-66020002D01*
G37*
%TD.AperFunction*%
%TA.AperFunction,Conductor*%
G36*
X138246121Y-58766002D02*
G01*
X138292614Y-58819658D01*
X138304000Y-58872000D01*
X138304000Y-60214885D01*
X138308475Y-60230124D01*
X138309865Y-60231329D01*
X138317548Y-60233000D01*
X138339223Y-60233000D01*
X138346524Y-60232576D01*
X138468255Y-60218383D01*
X138482410Y-60215037D01*
X138634761Y-60159737D01*
X138647760Y-60153227D01*
X138783306Y-60064359D01*
X138794458Y-60055035D01*
X138908919Y-59934207D01*
X138970288Y-59898509D01*
X139041215Y-59901656D01*
X139099181Y-59942650D01*
X139105763Y-59951774D01*
X139110046Y-59958306D01*
X139114269Y-59964747D01*
X139119581Y-59969779D01*
X139180250Y-60027251D01*
X139215948Y-60088620D01*
X139212801Y-60159547D01*
X139207605Y-60172372D01*
X139201764Y-60184786D01*
X139172974Y-60245967D01*
X139171489Y-60253750D01*
X139171488Y-60253754D01*
X139147052Y-60381853D01*
X139145500Y-60389989D01*
X139145500Y-61541500D01*
X139125498Y-61609621D01*
X139071842Y-61656114D01*
X139019500Y-61667500D01*
X138814421Y-61667500D01*
X138755307Y-61674968D01*
X138696859Y-61682351D01*
X138696856Y-61682352D01*
X138688994Y-61683345D01*
X138681628Y-61686262D01*
X138681626Y-61686262D01*
X138541725Y-61741653D01*
X138541723Y-61741654D01*
X138534356Y-61744571D01*
X138527945Y-61749229D01*
X138527943Y-61749230D01*
X138472710Y-61789359D01*
X138399803Y-61842329D01*
X138293788Y-61970479D01*
X138290413Y-61977652D01*
X138290412Y-61977653D01*
X138279038Y-62001825D01*
X138222974Y-62120967D01*
X138221489Y-62128750D01*
X138221488Y-62128754D01*
X138205357Y-62213316D01*
X138195500Y-62264989D01*
X138195500Y-62867195D01*
X138175498Y-62935316D01*
X138121842Y-62981809D01*
X138051568Y-62991913D01*
X137986988Y-62962419D01*
X137980368Y-62956254D01*
X137926562Y-62902404D01*
X137919079Y-62894176D01*
X137914973Y-62887705D01*
X137866251Y-62841952D01*
X137863376Y-62839165D01*
X137845957Y-62821731D01*
X137845954Y-62821729D01*
X137843164Y-62818936D01*
X137839616Y-62816181D01*
X137830647Y-62808516D01*
X137804083Y-62783572D01*
X137804080Y-62783570D01*
X137798301Y-62778143D01*
X137791357Y-62774325D01*
X137791355Y-62774324D01*
X137780690Y-62768461D01*
X137764126Y-62757576D01*
X137754511Y-62750111D01*
X137754507Y-62750109D01*
X137748251Y-62745252D01*
X137740982Y-62742103D01*
X137740979Y-62742101D01*
X137707543Y-62727616D01*
X137696930Y-62722414D01*
X137664997Y-62704858D01*
X137664995Y-62704857D01*
X137658048Y-62701038D01*
X137638581Y-62696040D01*
X137619840Y-62689619D01*
X137601390Y-62681626D01*
X137593561Y-62680383D01*
X137593555Y-62680381D01*
X137557558Y-62674664D01*
X137545992Y-62672267D01*
X137503025Y-62661235D01*
X137502469Y-62661200D01*
X137482711Y-62661200D01*
X137462949Y-62659641D01*
X137462448Y-62659561D01*
X137443321Y-62656524D01*
X137435436Y-62657266D01*
X137435433Y-62657266D01*
X137399521Y-62660646D01*
X137387715Y-62661200D01*
X136690401Y-62661200D01*
X136622280Y-62641198D01*
X136575787Y-62587542D01*
X136565683Y-62517268D01*
X136595177Y-62452688D01*
X136622280Y-62429202D01*
X136678691Y-62392949D01*
X136678694Y-62392947D01*
X136686271Y-62388077D01*
X136726048Y-62342172D01*
X136776082Y-62284431D01*
X136776084Y-62284428D01*
X136781984Y-62277619D01*
X136787752Y-62264989D01*
X136838958Y-62152864D01*
X136838958Y-62152863D01*
X136842700Y-62144670D01*
X136853962Y-62066340D01*
X136862861Y-62004448D01*
X136862862Y-62004441D01*
X136863500Y-62000000D01*
X136863500Y-60800000D01*
X136858273Y-60726921D01*
X136817096Y-60586684D01*
X136775771Y-60522381D01*
X136742949Y-60471309D01*
X136742947Y-60471306D01*
X136738077Y-60463729D01*
X136705408Y-60435421D01*
X136634431Y-60373918D01*
X136634428Y-60373916D01*
X136627619Y-60368016D01*
X136593075Y-60352240D01*
X136502864Y-60311042D01*
X136502863Y-60311042D01*
X136494670Y-60307300D01*
X136485755Y-60306018D01*
X136485754Y-60306018D01*
X136354448Y-60287139D01*
X136354441Y-60287138D01*
X136350000Y-60286500D01*
X132650000Y-60286500D01*
X132576921Y-60291727D01*
X132523884Y-60307300D01*
X132445330Y-60330365D01*
X132445328Y-60330366D01*
X132436684Y-60332904D01*
X132429105Y-60337775D01*
X132321309Y-60407051D01*
X132321306Y-60407053D01*
X132313729Y-60411923D01*
X132307828Y-60418733D01*
X132223918Y-60515569D01*
X132223916Y-60515572D01*
X132218016Y-60522381D01*
X132157300Y-60655330D01*
X132156018Y-60664245D01*
X132156018Y-60664246D01*
X132137139Y-60795552D01*
X132137138Y-60795559D01*
X132136500Y-60800000D01*
X132136500Y-62000000D01*
X132141727Y-62073079D01*
X132182904Y-62213316D01*
X132187775Y-62220895D01*
X132257051Y-62328691D01*
X132257053Y-62328694D01*
X132261923Y-62336271D01*
X132372381Y-62431984D01*
X132373132Y-62432327D01*
X132416917Y-62482857D01*
X132427022Y-62553131D01*
X132397529Y-62617712D01*
X132337803Y-62656096D01*
X132302304Y-62661200D01*
X130525340Y-62661200D01*
X130514795Y-62660698D01*
X130507587Y-62659081D01*
X130442638Y-62661071D01*
X130440359Y-62661141D01*
X130436500Y-62661200D01*
X130407422Y-62661200D01*
X130403450Y-62661702D01*
X130391505Y-62662638D01*
X130373483Y-62663190D01*
X130355532Y-62663740D01*
X130355529Y-62663740D01*
X130347612Y-62663983D01*
X130340003Y-62666187D01*
X130339997Y-62666188D01*
X130327867Y-62669702D01*
X130308601Y-62673684D01*
X130288212Y-62676260D01*
X130280842Y-62679178D01*
X130280834Y-62679180D01*
X130247383Y-62692424D01*
X130236059Y-62696296D01*
X130204179Y-62705531D01*
X130133183Y-62705273D01*
X130073897Y-62667020D01*
X130068949Y-62661309D01*
X130064077Y-62653729D01*
X130049616Y-62641198D01*
X129960431Y-62563918D01*
X129960428Y-62563916D01*
X129953619Y-62558016D01*
X129945421Y-62554272D01*
X129828864Y-62501042D01*
X129828863Y-62501042D01*
X129820670Y-62497300D01*
X129811755Y-62496018D01*
X129811754Y-62496018D01*
X129680448Y-62477139D01*
X129680441Y-62477138D01*
X129676000Y-62476500D01*
X127676000Y-62476500D01*
X127602921Y-62481727D01*
X127550987Y-62496976D01*
X127479990Y-62496976D01*
X127420264Y-62458592D01*
X127390771Y-62394011D01*
X127389489Y-62376080D01*
X127389489Y-62059500D01*
X127409491Y-61991379D01*
X127463147Y-61944886D01*
X127515489Y-61933500D01*
X128492886Y-61933500D01*
X128588106Y-61922398D01*
X128618371Y-61918870D01*
X128618372Y-61918870D01*
X128625643Y-61918022D01*
X128632521Y-61915526D01*
X128632523Y-61915525D01*
X128784985Y-61860184D01*
X128791864Y-61857687D01*
X128896082Y-61789359D01*
X128933628Y-61764743D01*
X128933629Y-61764742D01*
X128939747Y-61760731D01*
X129061358Y-61632355D01*
X129120215Y-61531025D01*
X129171724Y-61482167D01*
X129241473Y-61468913D01*
X129307315Y-61495472D01*
X129341830Y-61537891D01*
X129346772Y-61547759D01*
X129435641Y-61683306D01*
X129444965Y-61694458D01*
X129562629Y-61805922D01*
X129574276Y-61814635D01*
X129714429Y-61896043D01*
X129727754Y-61901837D01*
X129883700Y-61949068D01*
X129896323Y-61951516D01*
X129966184Y-61957751D01*
X129971779Y-61958000D01*
X130227885Y-61958000D01*
X130243124Y-61953525D01*
X130244329Y-61952135D01*
X130246000Y-61944452D01*
X130246000Y-61217548D01*
X130754000Y-61217548D01*
X130754000Y-61939885D01*
X130758475Y-61955124D01*
X130759865Y-61956329D01*
X130767548Y-61958000D01*
X131014223Y-61958000D01*
X131021524Y-61957576D01*
X131143255Y-61943383D01*
X131157410Y-61940037D01*
X131309761Y-61884737D01*
X131322760Y-61878227D01*
X131458306Y-61789359D01*
X131469458Y-61780035D01*
X131580922Y-61662371D01*
X131589635Y-61650724D01*
X131671043Y-61510571D01*
X131676837Y-61497246D01*
X131724068Y-61341300D01*
X131726516Y-61328677D01*
X131732751Y-61258816D01*
X131733000Y-61253221D01*
X131733000Y-61222115D01*
X131728525Y-61206876D01*
X131727135Y-61205671D01*
X131719452Y-61204000D01*
X130772115Y-61204000D01*
X130756876Y-61208475D01*
X130755671Y-61209865D01*
X130754000Y-61217548D01*
X130246000Y-61217548D01*
X130246000Y-60822000D01*
X130266002Y-60753879D01*
X130319658Y-60707386D01*
X130372000Y-60696000D01*
X131714885Y-60696000D01*
X131730124Y-60691525D01*
X131731329Y-60690135D01*
X131733000Y-60682452D01*
X131733000Y-60660777D01*
X131732576Y-60653476D01*
X131718383Y-60531745D01*
X131715037Y-60517590D01*
X131659737Y-60365239D01*
X131653227Y-60352240D01*
X131564359Y-60216694D01*
X131555035Y-60205542D01*
X131434207Y-60091081D01*
X131398509Y-60029712D01*
X131401656Y-59958785D01*
X131442650Y-59900819D01*
X131451774Y-59894237D01*
X131458625Y-59889745D01*
X131458626Y-59889744D01*
X131464747Y-59885731D01*
X131586358Y-59757355D01*
X131590034Y-59751027D01*
X131590038Y-59751021D01*
X131592831Y-59746212D01*
X131644343Y-59697355D01*
X131701783Y-59683500D01*
X132460435Y-59683500D01*
X132495936Y-59688605D01*
X132497133Y-59688956D01*
X132505330Y-59692700D01*
X132514247Y-59693982D01*
X132645552Y-59712861D01*
X132645559Y-59712862D01*
X132650000Y-59713500D01*
X136350000Y-59713500D01*
X136423079Y-59708273D01*
X136507449Y-59683500D01*
X136554670Y-59669635D01*
X136554672Y-59669634D01*
X136563316Y-59667096D01*
X136601472Y-59642574D01*
X136678691Y-59592949D01*
X136678694Y-59592947D01*
X136686271Y-59588077D01*
X136743940Y-59521524D01*
X136776082Y-59484431D01*
X136776084Y-59484428D01*
X136781984Y-59477619D01*
X136785728Y-59469422D01*
X136785730Y-59469418D01*
X136801387Y-59435134D01*
X136847880Y-59381479D01*
X136916001Y-59361477D01*
X136984121Y-59381479D01*
X137030614Y-59435135D01*
X137042000Y-59487477D01*
X137042000Y-59514223D01*
X137042424Y-59521524D01*
X137056617Y-59643255D01*
X137059963Y-59657410D01*
X137115263Y-59809761D01*
X137121773Y-59822760D01*
X137210641Y-59958306D01*
X137219965Y-59969458D01*
X137337629Y-60080922D01*
X137349276Y-60089635D01*
X137489429Y-60171043D01*
X137502754Y-60176837D01*
X137658700Y-60224068D01*
X137671323Y-60226516D01*
X137741184Y-60232751D01*
X137746779Y-60233000D01*
X137777885Y-60233000D01*
X137793124Y-60228525D01*
X137794329Y-60227135D01*
X137796000Y-60219452D01*
X137796000Y-58872000D01*
X137816002Y-58803879D01*
X137869658Y-58757386D01*
X137922000Y-58746000D01*
X138178000Y-58746000D01*
X138246121Y-58766002D01*
G37*
%TD.AperFunction*%
M02*
