G04 #@! TF.GenerationSoftware,KiCad,Pcbnew,5.99.0-unknown-50e22de3ba~95~ubuntu20.04.1*
G04 #@! TF.CreationDate,2021-01-20T12:46:09+09:00*
G04 #@! TF.ProjectId,OpenRover-4,4f70656e-526f-4766-9572-2d342e6b6963,rev?*
G04 #@! TF.SameCoordinates,Original*
G04 #@! TF.FileFunction,Legend,Top*
G04 #@! TF.FilePolarity,Positive*
%FSLAX46Y46*%
G04 Gerber Fmt 4.6, Leading zero omitted, Abs format (unit mm)*
G04 Created by KiCad (PCBNEW 5.99.0-unknown-50e22de3ba~95~ubuntu20.04.1) date 2021-01-20 12:46:09*
%MOMM*%
%LPD*%
G01*
G04 APERTURE LIST*
%ADD10C,0.104000*%
%ADD11C,0.150000*%
%ADD12C,0.100000*%
%ADD13C,0.075000*%
%ADD14C,0.120000*%
G04 APERTURE END LIST*
D10*
X161436980Y-75498755D02*
X161437391Y-75502677D01*
X160887229Y-76750508D02*
X160887310Y-76747645D01*
X162376305Y-76752040D02*
X162376857Y-76735256D01*
X160271107Y-77071537D02*
X160281655Y-77072394D01*
X161067423Y-76205072D02*
X160854561Y-76205072D01*
X161100741Y-75475785D02*
X161101903Y-75473824D01*
X162590413Y-76813324D02*
X162585701Y-76841717D01*
X161015608Y-74764963D02*
X161028354Y-74758420D01*
X161151872Y-74718931D02*
X161166417Y-74716790D01*
X159861274Y-76813324D02*
X159858448Y-76784773D01*
X160887450Y-76756197D02*
X160887277Y-76753360D01*
X160902250Y-76792067D02*
X160900478Y-76789863D01*
X161548742Y-75926509D02*
X161550938Y-75930368D01*
X161547096Y-75996606D02*
X161003830Y-76787363D01*
X161611029Y-74935342D02*
X161611029Y-74935342D01*
X161268181Y-74843509D02*
X161257722Y-74842315D01*
X160933091Y-76812469D02*
X160931313Y-76811896D01*
X162411916Y-76932770D02*
X162423181Y-76914636D01*
X159917799Y-76533746D02*
X160840645Y-74935342D01*
X162593240Y-76784773D02*
X162590413Y-76813324D01*
X162333194Y-77161559D02*
X162320020Y-77167261D01*
X161101903Y-75473824D02*
X161103129Y-75471914D01*
X161302433Y-74944458D02*
X161294269Y-74942134D01*
X159988227Y-76796877D02*
X159991583Y-76817112D01*
X160214629Y-77192335D02*
X160186282Y-77185761D01*
X162270790Y-77049117D02*
X162289417Y-77040692D01*
X162466141Y-76756122D02*
X162465470Y-76735722D01*
X161099646Y-75477794D02*
X161100741Y-75475785D01*
X160954944Y-76814943D02*
X160951111Y-76815057D01*
X161110159Y-75463155D02*
X161111733Y-75461570D01*
X160791149Y-76133010D02*
X160791780Y-76129052D01*
X160854561Y-76205072D02*
X160854561Y-76205072D01*
X162533874Y-76533746D02*
X162548009Y-76560162D01*
X162287236Y-76932044D02*
X162299598Y-76920441D01*
X160229862Y-77064778D02*
X160240019Y-77066960D01*
X161377703Y-75443573D02*
X161381711Y-75443953D01*
X160790767Y-76136990D02*
X160791149Y-76133010D01*
X160273053Y-77199954D02*
X160243576Y-77197079D01*
X162211663Y-77066966D02*
X162231865Y-77062282D01*
X161423319Y-74758410D02*
X161448585Y-74771907D01*
X160335998Y-76995996D02*
X160335998Y-76995996D01*
X160969946Y-76812239D02*
X160966266Y-76813247D01*
X161142758Y-75444902D02*
X161144973Y-75444462D01*
X160144260Y-77031051D02*
X160153181Y-77036008D01*
X160922529Y-74831758D02*
X160933219Y-74822050D01*
X160110186Y-76865610D02*
X160114714Y-76873163D01*
X161252078Y-74934510D02*
X161243401Y-74933804D01*
X160039766Y-76932748D02*
X160045782Y-76941451D01*
X161410297Y-74899411D02*
X161401897Y-74893592D01*
X160028501Y-76597665D02*
X160018433Y-76616482D01*
X161098618Y-75479852D02*
X161098618Y-75479852D01*
X161363623Y-74972147D02*
X161356422Y-74967828D01*
X160275840Y-76989160D02*
X160284196Y-76990956D01*
X160105519Y-77155458D02*
X160080254Y-77141962D01*
X161547037Y-75996362D02*
X161547096Y-75996606D01*
X161437440Y-75041550D02*
X161432286Y-75034591D01*
X159933609Y-77003990D02*
X159917799Y-76978540D01*
X160823703Y-76197147D02*
X160820275Y-76195117D01*
X160791718Y-76152876D02*
X160791110Y-76148934D01*
X160094715Y-76636153D02*
X160088637Y-76652239D01*
X162200337Y-76982207D02*
X162216134Y-76976278D01*
X160807968Y-76184929D02*
X160805296Y-76181892D01*
X160904125Y-76794196D02*
X160902250Y-76792067D01*
X161451660Y-75063623D02*
X161447132Y-75056069D01*
X160152104Y-76920409D02*
X160158198Y-76926319D01*
X160929544Y-76811259D02*
X160927787Y-76810558D01*
X160200092Y-77056311D02*
X160209892Y-77059450D01*
X161518454Y-74822036D02*
X161539539Y-74841827D01*
X160790748Y-76144964D02*
X160790634Y-76140978D01*
X160888949Y-76736157D02*
X160889696Y-76733296D01*
X161463538Y-74947785D02*
X161456570Y-74940081D01*
X161140568Y-75445419D02*
X161142758Y-75444902D01*
X160906100Y-76796246D02*
X160904125Y-76794196D01*
X162533874Y-76978540D02*
X162526152Y-76991428D01*
D11*
X137414000Y-69000000D02*
X159529629Y-69000000D01*
D10*
X160980552Y-76807922D02*
X160977099Y-76809574D01*
X160962533Y-76814035D02*
X160958755Y-76814601D01*
X161349083Y-74963749D02*
X161341612Y-74959912D01*
X159857506Y-76756143D02*
X159858448Y-76727513D01*
X160302992Y-77073083D02*
X160302992Y-77073083D01*
X160864893Y-74897676D02*
X160873682Y-74885801D01*
X161556888Y-75946782D02*
X161557648Y-75951032D01*
X161243401Y-74933804D02*
X161234657Y-74933379D01*
X162246272Y-76961433D02*
X162260532Y-76952563D01*
X160892072Y-76775287D02*
X160891059Y-76772670D01*
X161285258Y-74716788D02*
X161314206Y-74721533D01*
X162265395Y-77185742D02*
X162251300Y-77189256D01*
X161033163Y-74905473D02*
X161017319Y-74918495D01*
X160816976Y-76192875D02*
X160813819Y-76190425D01*
X162465470Y-76735722D02*
X162463456Y-76715379D01*
X162423181Y-76597665D02*
X161500328Y-74999246D01*
X160302992Y-77200922D02*
X160302992Y-77200922D01*
X162368016Y-76668579D02*
X162363044Y-76652257D01*
X161390945Y-74991752D02*
X161384347Y-74986507D01*
X160119456Y-76880522D02*
X160124406Y-76887682D01*
X162306644Y-77172535D02*
X162293076Y-77177377D01*
X162399636Y-76949938D02*
X162411916Y-76932770D01*
X160922590Y-76808054D02*
X160919960Y-76806667D01*
X160250283Y-77068817D02*
X160260648Y-77070343D01*
X160926041Y-76809791D02*
X160924308Y-76808957D01*
X160028501Y-76914621D02*
X160028501Y-76914621D01*
X161426935Y-75027836D02*
X161421390Y-75021288D01*
X160118527Y-77014450D02*
X160126927Y-77020269D01*
X162509623Y-77016199D02*
X162500835Y-77028071D01*
X162460100Y-76817103D02*
X162463456Y-76796869D01*
X161105766Y-75468248D02*
X161107174Y-75466495D01*
X162150519Y-76993744D02*
X162167490Y-76990963D01*
X159996282Y-76675083D02*
X159991583Y-76695145D01*
X161431860Y-75533746D02*
X161431860Y-75533746D01*
X162472472Y-77061577D02*
X162462381Y-77072025D01*
X162395748Y-77126807D02*
X162383709Y-77134574D01*
X162170028Y-77072394D02*
X162191035Y-77070346D01*
X162463456Y-76715379D02*
X162460100Y-76695149D01*
X160840645Y-74935342D02*
X160840645Y-74935342D01*
X160792572Y-76156779D02*
X160791718Y-76152876D01*
X161041319Y-74752295D02*
X161054493Y-74746592D01*
X162322142Y-76894663D02*
X162332243Y-76880535D01*
X160131658Y-77167283D02*
X160105519Y-77155458D01*
X161539539Y-74841827D02*
X161559408Y-74863092D01*
X162451986Y-77082105D02*
X162441295Y-77091812D01*
X162320020Y-77167261D02*
X162306644Y-77172535D01*
X160110186Y-76865610D02*
X160110186Y-76865610D01*
X160895787Y-76782841D02*
X160894438Y-76780377D01*
X162115686Y-76995996D02*
X162133238Y-76995429D01*
X161404240Y-75451232D02*
X161407646Y-75453228D01*
X161338403Y-74860996D02*
X161328735Y-74857545D01*
X160190423Y-77052860D02*
X160200092Y-77056311D01*
X161370236Y-74736470D02*
X161397180Y-74746584D01*
X161174038Y-74938278D02*
X161157417Y-74942136D01*
X160158198Y-76926319D02*
X160164465Y-76932011D01*
X161456570Y-74940081D02*
X161449379Y-74932635D01*
X161393363Y-75446555D02*
X161397088Y-75447891D01*
X161277651Y-74938276D02*
X161269208Y-74936749D01*
X161001441Y-76790623D02*
X160998882Y-76793691D01*
X161547037Y-75996362D02*
X161547037Y-75996362D01*
X161483045Y-74972415D02*
X161476782Y-74963956D01*
X162423181Y-76914636D02*
X162433250Y-76895802D01*
X161476782Y-74963956D02*
X161470277Y-74955745D01*
X162372234Y-76981262D02*
X162386393Y-76966111D01*
X160889696Y-76733296D02*
X160890581Y-76730447D01*
X161110068Y-74959917D02*
X161095256Y-74967834D01*
X159858448Y-76784773D02*
X159857506Y-76756143D01*
X162407535Y-77118643D02*
X162395748Y-77126807D01*
X161318935Y-74854405D02*
X161309010Y-74851581D01*
X162423181Y-76914636D02*
X162423181Y-76914636D01*
X161553357Y-75984796D02*
X161551534Y-75988763D01*
X160951111Y-76815057D02*
X160951111Y-76815057D01*
X160074823Y-76735233D02*
X160075376Y-76752019D01*
X161347935Y-74864756D02*
X161338403Y-74860996D01*
X161356422Y-74967828D02*
X161349083Y-74963749D01*
X162222643Y-77194921D02*
X162208098Y-77197062D01*
X160079446Y-76981230D02*
X160086853Y-76988413D01*
X161558119Y-75955310D02*
X161558300Y-75959601D01*
X160850468Y-76204942D02*
X160846422Y-76204554D01*
X162449360Y-76857012D02*
X162455401Y-76837169D01*
X161527408Y-75905363D02*
X161531004Y-75907702D01*
X162163702Y-77200664D02*
X162148678Y-77200906D01*
X161334012Y-74956320D02*
X161326289Y-74952975D01*
X161225838Y-74840768D02*
X161225838Y-74840768D01*
X162349784Y-76620355D02*
X162341497Y-76604868D01*
X161370680Y-74976701D02*
X161363623Y-74972147D01*
X161225838Y-74840768D02*
X161225838Y-74840768D01*
X160235557Y-76976258D02*
X160243398Y-76979351D01*
X161373650Y-75443445D02*
X161377703Y-75443573D01*
X162184109Y-76987109D02*
X162200337Y-76982207D01*
X161095256Y-74967834D02*
X161080996Y-74976707D01*
X159903668Y-76560162D02*
X159917799Y-76533746D01*
X160890581Y-76730447D02*
X160890581Y-76730447D01*
X161494368Y-75896173D02*
X161494368Y-75896173D01*
X160958755Y-76814601D02*
X160954944Y-76814943D01*
X161384347Y-74986507D02*
X161377590Y-74981489D01*
X161550938Y-75930368D02*
X161552863Y-75934354D01*
X160805296Y-76181892D02*
X160802806Y-76178672D01*
X160318446Y-76995428D02*
X160327191Y-76995854D01*
X161122939Y-74857529D02*
X161103738Y-74864735D01*
X161142664Y-74851570D02*
X161122939Y-74857529D01*
X161549427Y-75992623D02*
X161547037Y-75996362D01*
X159861274Y-76698962D02*
X159865984Y-76670570D01*
X161225849Y-74933237D02*
X161208294Y-74933805D01*
X161426531Y-74911886D02*
X161418510Y-74905510D01*
X161503158Y-75896777D02*
X161507453Y-75897522D01*
X161081438Y-74736476D02*
X161095191Y-74732072D01*
X161419898Y-75463244D02*
X161422567Y-75466230D01*
X161472908Y-74787037D02*
X161496221Y-74803760D01*
X160820275Y-76195117D02*
X160816976Y-76192875D01*
X161409742Y-75008823D02*
X161403648Y-75002913D01*
X160910343Y-76800094D02*
X160908173Y-76798213D01*
X161126039Y-75451082D02*
X161128016Y-75450062D01*
X160888171Y-76761807D02*
X160887749Y-76759014D01*
X160962613Y-74981094D02*
X160951347Y-74999231D01*
X160281655Y-77072394D02*
X160292285Y-77072910D01*
X160259413Y-76984775D02*
X160267578Y-76987099D01*
X160889378Y-76767309D02*
X160888715Y-76764574D01*
X162357209Y-76995362D02*
X162372234Y-76981262D01*
X161555838Y-75942576D02*
X161556888Y-75946782D01*
X159986213Y-76776530D02*
X159988227Y-76796877D01*
X161130028Y-75449110D02*
X161132075Y-75448228D01*
X161103738Y-74864735D02*
X161085112Y-74873161D01*
X160940273Y-76814161D02*
X160938470Y-76813825D01*
X161234657Y-74933379D02*
X161225849Y-74933237D01*
X160075376Y-76718447D02*
X160074823Y-76735233D01*
X161156338Y-75443445D02*
X161156338Y-75443445D01*
X161138402Y-75446011D02*
X161140568Y-75445419D01*
X161537700Y-75913093D02*
X161540774Y-75916129D01*
X160158602Y-77177398D02*
X160131658Y-77167283D01*
X160267578Y-76987099D02*
X160275840Y-76989160D01*
X161002294Y-74932597D02*
X160988135Y-74947749D01*
X160908173Y-76798213D02*
X160906100Y-76796246D01*
X159865984Y-76841717D02*
X159861274Y-76813324D01*
X162518066Y-77003983D02*
X162509623Y-77016199D01*
X160936671Y-76813432D02*
X160934878Y-76812981D01*
X161149466Y-75443814D02*
X161151740Y-75443610D01*
X160842433Y-76203916D02*
X160838510Y-76203031D01*
X159891421Y-76587131D02*
X159903668Y-76560162D01*
X160873682Y-74885801D02*
X160882809Y-74874276D01*
X161431860Y-75533746D02*
X161267559Y-75896173D01*
X162463456Y-76796869D02*
X162465470Y-76776523D01*
X161500328Y-74999246D02*
X161494824Y-74990064D01*
X161427360Y-75472742D02*
X161429451Y-75476224D01*
X161415658Y-75014949D02*
X161409742Y-75008823D01*
X160129559Y-76894642D02*
X160134911Y-76901397D01*
X162570624Y-76897711D02*
X162560259Y-76925155D01*
X160102293Y-77001977D02*
X160110314Y-77008352D01*
X160973560Y-76811014D02*
X160969946Y-76812239D01*
X162341497Y-76604883D02*
X161866972Y-75782968D01*
X160951347Y-74999231D02*
X160028501Y-76597665D01*
X161866972Y-75782968D02*
X161866972Y-75782968D01*
X160327191Y-76995854D02*
X160335998Y-76995996D01*
X160802806Y-76178672D02*
X160800510Y-76175272D01*
X159881058Y-76897711D02*
X159872579Y-76869872D01*
X161144973Y-75444462D02*
X161147209Y-75444099D01*
X160902043Y-74852290D02*
X160912134Y-74841840D01*
X160212763Y-76965484D02*
X160220234Y-76969321D01*
X161434295Y-75487207D02*
X161435431Y-75491008D01*
X162455401Y-76675089D02*
X162449360Y-76655254D01*
X160966978Y-74795215D02*
X160978765Y-74787050D01*
X160184256Y-76947744D02*
X160191165Y-76952532D01*
X161511664Y-75898551D02*
X161515777Y-75899857D01*
X162526152Y-76991428D02*
X162518066Y-77003983D01*
X161147209Y-75444099D02*
X161149466Y-75443814D01*
X161191010Y-74935493D02*
X161174038Y-74938278D01*
X160114714Y-76873163D02*
X160119456Y-76880522D01*
X159858448Y-76727513D02*
X159861274Y-76698962D01*
X160791110Y-76148934D02*
X160790748Y-76144964D01*
X160171503Y-77045036D02*
X160180891Y-77049100D01*
X161030287Y-75021293D02*
X161019393Y-75034596D01*
X162293076Y-77177377D02*
X162279323Y-77181780D01*
X160974892Y-74963924D02*
X160962613Y-74981094D01*
X162311247Y-76907973D02*
X162322142Y-76894663D01*
X160887277Y-76753360D02*
X160887229Y-76750508D01*
X162251590Y-77056323D02*
X162270790Y-77049117D01*
X160912609Y-76801883D02*
X160910343Y-76800094D01*
X160990292Y-76801717D02*
X160987159Y-76803991D01*
X161403648Y-75002913D02*
X161397380Y-74997222D01*
X160284196Y-76990956D02*
X160292639Y-76992484D01*
X160912134Y-74841840D02*
X160922529Y-74831758D01*
D11*
X159494371Y-77589568D02*
X165471000Y-77580787D01*
D10*
X161534440Y-75910281D02*
X161537700Y-75913093D01*
X160164465Y-76932011D02*
X160170901Y-76937481D01*
X162148678Y-77200906D02*
X162148678Y-77200922D01*
X160887310Y-76747645D02*
X160887521Y-76744774D01*
X161500328Y-74999246D02*
X161500328Y-74999246D01*
X162383709Y-77134574D02*
X162371425Y-77141937D01*
X161267559Y-75896173D02*
X161267559Y-75896173D01*
X161558193Y-75963892D02*
X161557799Y-75968165D01*
X160914968Y-76803578D02*
X160912609Y-76801883D01*
X160227834Y-76972913D02*
X160235557Y-76976258D01*
X161611029Y-74935342D02*
X162533874Y-76533746D01*
X161141189Y-74947044D02*
X161125392Y-74952979D01*
X159865984Y-76670570D02*
X159872579Y-76642414D01*
X162560259Y-76925155D02*
X162548009Y-76952124D01*
X161401897Y-74893592D02*
X161393318Y-74888057D01*
X160892265Y-74863103D02*
X160902043Y-74852290D01*
X159988227Y-76715377D02*
X159986213Y-76735723D01*
X161019393Y-75034596D02*
X161009292Y-75048713D01*
X160083664Y-76801911D02*
X160088637Y-76818232D01*
X161225838Y-74840768D02*
X161204501Y-74841458D01*
X161120343Y-75454542D02*
X161122201Y-75453323D01*
X161341612Y-74959912D02*
X161334012Y-74956320D01*
D11*
X137414000Y-69000000D02*
X137414000Y-57658000D01*
D10*
X162356975Y-76834326D02*
X162363051Y-76818241D01*
X160094715Y-76834319D02*
X160101898Y-76850128D01*
X162533874Y-76533746D02*
X162533874Y-76533746D01*
X161381711Y-75443953D02*
X161385664Y-75444581D01*
X161067108Y-74882778D02*
X161049775Y-74893558D01*
X161557799Y-75968165D02*
X161557117Y-75972407D01*
X161115034Y-75458576D02*
X161116758Y-75457169D01*
X161397380Y-74997222D02*
X161390945Y-74991752D01*
X160220234Y-76969321D02*
X160227834Y-76972913D01*
X159872579Y-76869872D02*
X159865984Y-76841717D01*
X161098618Y-75479852D02*
X161099646Y-75477794D01*
X162279323Y-77181780D02*
X162265395Y-77185742D01*
X162491707Y-77039595D02*
X162482250Y-77050765D01*
X160813819Y-76190425D02*
X160810812Y-76187775D01*
X159969426Y-77050783D02*
X159950841Y-77028085D01*
X161407646Y-75453228D02*
X161410925Y-75455432D01*
X162433250Y-76895802D02*
X162441976Y-76876575D01*
X161151740Y-75443610D02*
X161154032Y-75443486D01*
X162358906Y-77148892D02*
X162346159Y-77155435D01*
X161132075Y-75448228D02*
X161134154Y-75447417D01*
X162386393Y-76966111D02*
X162399636Y-76949938D01*
X160798436Y-76171750D02*
X160796604Y-76168127D01*
X160205424Y-76961404D02*
X160212763Y-76965484D01*
X160080254Y-77141962D02*
X160055930Y-77126833D01*
X160796810Y-76113672D02*
X160796810Y-76113672D01*
X162299598Y-76920441D02*
X162311247Y-76907973D01*
X162324753Y-77020297D02*
X162341365Y-77008383D01*
X160101898Y-76620347D02*
X160094715Y-76636153D01*
X159917799Y-76978540D02*
X159903668Y-76952124D01*
X161294269Y-74942134D02*
X161286006Y-74940073D01*
X161003830Y-76787363D02*
X161001441Y-76790623D01*
X161113358Y-75460044D02*
X161115034Y-75458576D01*
X160032617Y-77110111D02*
X160010383Y-77091836D01*
X160996164Y-76796565D02*
X160993297Y-76799241D01*
X159985542Y-76756126D02*
X159986213Y-76776530D01*
X162167490Y-76990963D02*
X162184109Y-76987109D01*
X162346159Y-77155435D02*
X162333194Y-77161559D01*
X161181094Y-74715115D02*
X161195896Y-74713913D01*
X162341511Y-76865610D02*
X162341511Y-76865610D01*
X160124406Y-76887682D02*
X160129559Y-76894642D01*
X162460100Y-76695149D02*
X162455401Y-76675089D01*
X162307420Y-77031076D02*
X162324753Y-77020297D01*
X160840645Y-74935342D02*
X160848366Y-74922451D01*
X161255779Y-74713913D02*
X161285258Y-74716788D01*
X160094471Y-76995330D02*
X160102293Y-77001977D01*
X162441976Y-76876575D02*
X162449360Y-76857012D01*
X160966266Y-76813247D02*
X160962533Y-76814035D01*
X160800510Y-76175272D02*
X160798436Y-76171750D01*
X160856452Y-74909894D02*
X160864893Y-74897676D01*
X160924308Y-76808957D02*
X160922590Y-76808054D01*
X159903668Y-76952124D02*
X159891421Y-76925155D01*
X161000025Y-75063623D02*
X160110186Y-76604868D01*
X161000025Y-75063623D02*
X161000025Y-75063623D01*
X160018433Y-76616482D02*
X160009707Y-76635695D01*
X161166417Y-74716790D02*
X161181094Y-74715115D01*
X162594182Y-76756143D02*
X162593240Y-76784773D01*
X160260648Y-77070343D02*
X160271107Y-77071537D01*
X160110186Y-76604868D02*
X160101898Y-76620347D01*
X160922590Y-76808054D02*
X160922590Y-76808054D01*
X162465470Y-76776523D02*
X162466141Y-76756122D01*
D11*
X166597000Y-75992000D02*
X165471000Y-77580787D01*
D10*
X160838510Y-76203031D02*
X160834666Y-76201907D01*
X161507453Y-75897522D02*
X161511664Y-75898551D01*
X160302992Y-77200922D02*
X160273053Y-77199954D01*
X161085112Y-74873161D02*
X161067108Y-74882778D01*
X160079796Y-76785404D02*
X160083664Y-76801911D01*
X160988135Y-74947749D02*
X160974892Y-74963924D01*
X162560259Y-76587131D02*
X162570624Y-76614575D01*
X160009707Y-76876577D02*
X160018433Y-76895796D01*
X161328735Y-74857545D02*
X161318935Y-74854405D01*
X160793793Y-76121247D02*
X160795176Y-76117424D01*
X162148678Y-77200906D02*
X162148678Y-77200906D01*
X162148691Y-77073083D02*
X162148691Y-77073083D01*
X162455401Y-76837169D02*
X162460100Y-76817103D01*
X160887864Y-76741900D02*
X160888339Y-76739026D01*
X161288809Y-74846893D02*
X161278545Y-74845036D01*
X160146188Y-76914284D02*
X160152104Y-76920409D01*
X160796810Y-76113672D02*
X161098618Y-75479852D01*
X161550938Y-75930368D02*
X161550938Y-75930368D01*
X161017319Y-74918495D02*
X161002294Y-74932597D01*
X160942079Y-76814441D02*
X160940273Y-76814161D01*
X161554896Y-75980738D02*
X161553357Y-75984796D01*
X160790634Y-76140978D02*
X160790767Y-76136990D01*
X161437484Y-75510564D02*
X161437164Y-75514506D01*
X162433250Y-76616486D02*
X162423181Y-76597665D01*
X161866972Y-75782968D02*
X161451660Y-75063623D01*
X160955452Y-74803773D02*
X160966978Y-74795215D01*
X162376857Y-76735256D02*
X162376304Y-76718471D01*
X161437560Y-75506618D02*
X161437484Y-75510564D01*
X159989296Y-77072047D02*
X159969426Y-77050783D01*
X161125392Y-74952979D02*
X161110068Y-74959917D01*
X161154032Y-75443486D02*
X161156338Y-75443445D01*
X161225849Y-74933237D02*
X161225849Y-74933237D01*
X162579105Y-76869872D02*
X162570624Y-76897711D01*
X160888339Y-76739026D02*
X160888949Y-76736157D01*
X160209892Y-77059450D02*
X160219817Y-77062273D01*
X160309769Y-76994723D02*
X160318446Y-76995428D01*
X161437391Y-75502677D02*
X161437560Y-75506618D01*
X160848366Y-74922451D02*
X160856452Y-74909894D01*
X161384565Y-74882808D02*
X161375644Y-74877850D01*
X161373650Y-75443445D02*
X161373650Y-75443445D01*
X159917799Y-76978540D02*
X159917799Y-76978540D01*
X162332243Y-76880535D02*
X162341511Y-76865610D01*
X160162264Y-77040671D02*
X160171503Y-77045036D01*
X162148678Y-77200922D02*
X160302992Y-77200922D01*
X161448585Y-74771907D02*
X161472908Y-74787037D01*
X162449360Y-76655254D02*
X162441976Y-76635701D01*
X161498792Y-75896325D02*
X161503158Y-75896777D01*
X159986213Y-76735723D02*
X159985542Y-76756126D01*
X160977099Y-76809574D02*
X160973560Y-76811014D01*
X161393318Y-74888057D02*
X161384565Y-74882808D01*
X160083664Y-76668557D02*
X160079796Y-76685063D01*
X160058548Y-76958121D02*
X160065287Y-76966080D01*
X162585701Y-76841717D02*
X162579105Y-76869872D01*
X160088637Y-76652239D02*
X160083664Y-76668557D01*
X160917419Y-76805174D02*
X160914968Y-76803578D01*
X161433417Y-75529998D02*
X161431860Y-75533746D01*
X161122201Y-75453323D02*
X161124101Y-75452169D01*
X161540774Y-75916129D02*
X161543647Y-75919382D01*
X162430317Y-77101141D02*
X162419061Y-77110086D01*
X161531004Y-75907702D02*
X161534440Y-75910281D01*
X161009292Y-75048713D02*
X161000025Y-75063623D01*
X161095191Y-74732072D02*
X161109119Y-74728111D01*
X160075376Y-76752019D02*
X160077033Y-76768758D01*
X160810812Y-76187775D02*
X160807968Y-76184929D01*
X161551534Y-75988763D02*
X161549427Y-75992623D01*
X160897244Y-76785246D02*
X160895787Y-76782841D01*
X160028501Y-76914621D02*
X160034004Y-76923803D01*
X160243576Y-77197079D02*
X160214629Y-77192335D01*
X161103129Y-75471914D02*
X161104417Y-75470055D01*
X159950841Y-77028085D02*
X159933609Y-77003990D01*
X161470277Y-74955745D02*
X161463538Y-74947785D01*
X162349795Y-76850131D02*
X162356975Y-76834326D01*
X161523662Y-75903270D02*
X161527408Y-75905363D01*
X160888715Y-76764574D02*
X160888171Y-76761807D01*
X162419061Y-77110086D02*
X162407535Y-77118643D01*
X161557117Y-75972407D02*
X161556149Y-75976603D01*
X161136263Y-75446678D02*
X161138402Y-75446011D01*
X160009707Y-76635695D02*
X160002323Y-76655247D01*
X161108639Y-75464797D02*
X161110159Y-75463155D01*
X162371887Y-76785420D02*
X162374649Y-76768777D01*
X160978765Y-74787050D02*
X160990804Y-74779283D01*
X160987159Y-76803991D02*
X160983909Y-76806060D01*
X162274200Y-76942759D02*
X162287236Y-76932044D01*
X161442390Y-75048711D02*
X161437440Y-75041550D01*
X160931313Y-76811896D02*
X160929544Y-76811259D01*
X161210813Y-74713188D02*
X161225838Y-74712946D01*
X162441295Y-77091812D02*
X162430317Y-77101141D01*
X160944196Y-74812720D02*
X160955452Y-74803773D01*
X161434353Y-74918534D02*
X161426531Y-74911886D01*
X160292639Y-76992484D02*
X160301165Y-76993741D01*
X162585701Y-76670570D02*
X162590413Y-76698962D01*
X160018433Y-76895796D02*
X160028501Y-76914621D01*
X159881058Y-76614575D02*
X159891421Y-76587131D01*
X162371425Y-77141937D02*
X162358906Y-77148892D01*
X160943887Y-76814667D02*
X160942079Y-76814441D01*
X160882809Y-74874276D02*
X160892265Y-74863103D01*
X162208098Y-77197062D02*
X162193420Y-77198737D01*
X160945696Y-76814840D02*
X160943887Y-76814667D01*
X161543647Y-75919382D02*
X161546308Y-75922844D01*
X160055930Y-77126833D02*
X160032617Y-77110111D01*
D11*
X166604000Y-58658000D02*
X166597000Y-75992000D01*
D10*
X160854561Y-76205072D02*
X160850468Y-76204942D01*
X161137468Y-74721535D02*
X161151872Y-74718931D01*
X161118528Y-75455824D02*
X161120343Y-75454542D01*
X161494824Y-74990064D02*
X161489061Y-74981119D01*
X160110314Y-77008352D02*
X160118527Y-77014450D01*
X162193420Y-77198737D02*
X162178619Y-77199939D01*
X160890160Y-76770009D02*
X160889378Y-76767309D01*
D11*
X165354000Y-57658000D02*
X137414000Y-57658000D01*
D10*
X160191165Y-76952532D02*
X160198223Y-76957086D01*
X160243398Y-76979351D02*
X160251351Y-76982191D01*
X161225838Y-74712946D02*
X161255779Y-74713913D01*
X162251300Y-77189256D02*
X162237046Y-77192317D01*
X162462381Y-77072025D02*
X162451986Y-77082105D01*
X161183494Y-74843506D02*
X161162865Y-74846886D01*
X161389552Y-75445450D02*
X161393363Y-75446555D01*
X160990804Y-74779283D02*
X161003088Y-74771919D01*
X161357323Y-74868821D02*
X161347935Y-74864756D01*
X161107174Y-75466495D02*
X161108639Y-75464797D01*
X161577991Y-74885793D02*
X161595221Y-74909889D01*
X161434725Y-75526189D02*
X161433417Y-75529998D01*
X160002323Y-76857018D02*
X160009707Y-76876577D01*
X161417061Y-75460446D02*
X161419898Y-75463244D01*
X161552863Y-75934354D02*
X161554496Y-75938428D01*
X161366561Y-74873187D02*
X161357323Y-74868821D01*
X161134154Y-75447417D02*
X161136263Y-75446678D01*
X161342555Y-74728106D02*
X161370236Y-74736470D01*
X161515777Y-75899857D02*
X161519781Y-75901432D01*
X160170901Y-76937481D02*
X160177499Y-76942726D01*
X162231459Y-76969346D02*
X162246272Y-76961433D01*
X161195896Y-74713913D02*
X161210813Y-74713188D01*
X161377590Y-74981489D02*
X161370680Y-74976701D01*
X161028354Y-74758420D02*
X161041319Y-74752295D01*
X162341497Y-76604868D02*
X162341497Y-76604883D01*
X161269208Y-74936749D02*
X161260682Y-74935492D01*
X162590413Y-76698962D02*
X162593240Y-76727513D01*
X162548009Y-76952124D02*
X162533874Y-76978540D01*
X161410925Y-75455432D02*
X161414067Y-75457840D01*
X159991583Y-76695145D02*
X159988227Y-76715377D01*
X161429451Y-75476224D02*
X161431304Y-75479803D01*
X159991583Y-76817112D02*
X159996282Y-76837178D01*
X160101898Y-76850128D02*
X160110186Y-76865610D01*
X160292285Y-77072910D02*
X160302992Y-77073083D01*
X160153181Y-77036008D02*
X160162264Y-77040671D01*
X161385664Y-75444581D02*
X161389552Y-75445450D01*
X161278545Y-74845036D02*
X161268181Y-74843509D01*
X161128016Y-75450062D02*
X161130028Y-75449110D01*
X162363044Y-76652257D02*
X162356967Y-76636167D01*
X161204501Y-74841458D02*
X161183494Y-74843506D01*
X160028501Y-76597665D02*
X160028501Y-76597665D01*
X161267559Y-75896173D02*
X161494368Y-75896173D01*
X162374646Y-76701733D02*
X162371884Y-76685086D01*
X160002323Y-76655247D02*
X159996282Y-76675083D01*
X160834666Y-76201907D02*
X160830909Y-76200547D01*
X160134911Y-76901397D02*
X160140455Y-76907945D01*
X161558300Y-75959601D02*
X161558193Y-75963892D01*
X161432919Y-75483468D02*
X161434295Y-75487207D01*
X161559408Y-74863092D02*
X161577991Y-74885793D01*
X162231865Y-77062282D02*
X162251590Y-77056323D01*
X160998882Y-76793691D02*
X160996164Y-76796565D01*
X161260682Y-74935492D02*
X161252078Y-74934510D01*
X161309010Y-74851581D02*
X161298966Y-74849076D01*
X159996282Y-76837178D02*
X160002323Y-76857018D01*
X160110186Y-76604868D02*
X160110186Y-76604868D01*
X160086853Y-76988413D02*
X160094471Y-76995330D01*
X161310495Y-74947041D02*
X161302433Y-74944458D01*
X160177499Y-76942726D02*
X160184256Y-76947744D01*
X161431304Y-75479803D02*
X161432919Y-75483468D01*
X160983909Y-76806060D02*
X160980552Y-76807922D01*
X160893199Y-76777858D02*
X160892072Y-76775287D01*
X161162865Y-74846886D02*
X161142664Y-74851570D01*
X161451660Y-75063623D02*
X161451660Y-75063623D01*
X161067869Y-74741318D02*
X161081438Y-74736476D01*
X162570624Y-76614575D02*
X162579105Y-76642414D01*
X160900478Y-76789863D02*
X160898808Y-76787588D01*
X160065287Y-76966080D02*
X160072255Y-76973784D01*
X162341511Y-76865610D02*
X162349795Y-76850131D01*
X160891059Y-76772670D02*
X160890160Y-76770009D01*
X161123215Y-74724597D02*
X161137468Y-74721535D01*
X160791780Y-76129052D02*
X160792661Y-76125126D01*
X161436598Y-75518431D02*
X161435785Y-75522330D01*
X161494368Y-75896173D02*
X161498792Y-75896325D01*
X161427360Y-75472742D02*
X161427360Y-75472742D01*
X160301165Y-76993741D02*
X160309769Y-76994723D01*
X162423181Y-76597665D02*
X162423181Y-76597665D01*
X161054296Y-74997229D02*
X161041935Y-75008830D01*
X160240019Y-77066960D02*
X160250283Y-77068817D01*
X161326289Y-74952975D02*
X161318449Y-74949881D01*
X160045782Y-76941451D02*
X160052044Y-76949910D01*
X160079796Y-76685063D02*
X160077033Y-76701708D01*
X161375644Y-74877850D02*
X161366561Y-74873187D01*
X161425058Y-75469398D02*
X161427360Y-75472742D01*
X161104417Y-75470055D02*
X161105766Y-75468248D01*
X160796604Y-76168127D02*
X160795016Y-76164417D01*
X160894438Y-76780377D02*
X160893199Y-76777858D01*
X161557648Y-75951032D02*
X161558119Y-75955310D01*
X160919960Y-76806667D02*
X160917419Y-76805174D01*
X161314206Y-74721533D02*
X161342555Y-74728106D01*
X160927787Y-76810558D02*
X160926041Y-76809791D01*
X161432286Y-75034591D02*
X161426935Y-75027836D01*
X161003088Y-74771919D02*
X161015608Y-74764963D01*
X161447132Y-75056069D02*
X161442390Y-75048711D01*
X160949309Y-76815034D02*
X160947503Y-76814962D01*
X162500835Y-77028071D02*
X162491707Y-77039595D01*
X160993297Y-76799241D02*
X160990292Y-76801717D01*
X162341497Y-76604868D02*
X162341497Y-76604868D01*
X159891421Y-76925155D02*
X159881058Y-76897711D01*
X160034004Y-76923803D02*
X160039766Y-76932748D01*
X161496221Y-74803760D02*
X161518454Y-74822036D01*
X161449379Y-74932635D02*
X161441971Y-74925452D01*
X161422567Y-75466230D02*
X161425058Y-75469398D01*
D11*
X159529629Y-69000000D02*
X159494371Y-77589568D01*
D10*
X160010383Y-77091836D02*
X159989296Y-77072047D01*
X162548009Y-76560162D02*
X162560259Y-76587131D01*
X162482250Y-77050765D02*
X162472472Y-77061577D01*
X160335998Y-76995996D02*
X162115686Y-76995996D01*
X161041935Y-75008830D02*
X161030287Y-75021293D01*
X161421390Y-75021288D02*
X161415658Y-75014949D01*
X160302992Y-77073083D02*
X162148691Y-77073083D01*
X160934878Y-76812981D02*
X160933091Y-76812469D01*
X161111733Y-75461570D02*
X161113358Y-75460044D01*
X161436326Y-75494862D02*
X161436980Y-75498755D01*
X160135506Y-77025804D02*
X160144260Y-77031051D01*
X160898808Y-76787588D02*
X160897244Y-76785246D01*
X160846422Y-76204554D02*
X160842433Y-76203916D01*
X160077033Y-76768758D02*
X160079796Y-76785404D01*
X162533874Y-76978540D02*
X162533874Y-76978540D01*
X160077033Y-76701708D02*
X160075376Y-76718447D01*
X161225838Y-74712946D02*
X161225838Y-74712946D01*
X161157417Y-74942136D02*
X161141189Y-74947044D01*
X162441976Y-76635701D02*
X162433250Y-76616486D01*
X162289417Y-77040692D02*
X162307420Y-77031076D01*
X161049775Y-74893558D02*
X161033163Y-74905473D01*
X161286006Y-74940073D02*
X161277651Y-74938276D01*
X161156338Y-75443445D02*
X161373650Y-75443445D01*
X162237046Y-77192317D02*
X162222643Y-77194921D01*
X160800510Y-76175272D02*
X160800510Y-76175272D01*
X162260532Y-76952563D02*
X162274200Y-76942759D01*
X161109119Y-74728111D02*
X161123215Y-74724597D01*
X160251351Y-76982191D02*
X160259413Y-76984775D01*
X160795016Y-76164417D02*
X160793672Y-76160630D01*
X160951347Y-74999231D02*
X160951347Y-74999231D01*
X160827252Y-76198959D02*
X160823703Y-76197147D01*
X162115686Y-76995996D02*
X162115686Y-76995996D01*
X161546308Y-75922844D02*
X161548742Y-75926509D01*
X161003830Y-76787363D02*
X161003830Y-76787363D01*
X161595221Y-74909889D02*
X161611029Y-74935342D01*
X162368021Y-76801924D02*
X162371887Y-76785420D01*
X160126927Y-77020269D02*
X160135506Y-77025804D01*
X160795176Y-76117424D02*
X160796810Y-76113672D01*
X160947503Y-76814962D02*
X160945696Y-76814840D01*
X162376304Y-76718471D02*
X162374646Y-76701733D01*
X161556149Y-75976603D02*
X161554896Y-75980738D01*
X161437164Y-75514506D02*
X161436598Y-75518431D01*
X161519781Y-75901432D02*
X161523662Y-75903270D01*
X161208294Y-74933805D02*
X161191010Y-74935493D01*
X161067423Y-76205072D02*
X161067423Y-76205072D01*
X161397180Y-74746584D02*
X161423319Y-74758410D01*
X159872579Y-76642414D02*
X159881058Y-76614575D01*
X161400717Y-75449452D02*
X161404240Y-75451232D01*
X161489061Y-74981119D02*
X161483045Y-74972415D01*
X160792661Y-76125126D02*
X160793793Y-76121247D01*
X162363051Y-76818241D02*
X162368021Y-76801924D01*
X160890581Y-76730447D02*
X161067423Y-76205072D01*
X162191035Y-77070346D02*
X162211663Y-77066966D01*
X160180891Y-77049100D02*
X160190423Y-77052860D01*
X161054493Y-74746592D02*
X161067869Y-74741318D01*
X160951111Y-76815057D02*
X160949309Y-76815034D01*
X161298966Y-74849076D02*
X161288809Y-74846893D01*
X160140455Y-76907945D02*
X160146188Y-76914284D01*
X161418510Y-74905510D02*
X161410297Y-74899411D01*
X162579105Y-76642414D02*
X162585701Y-76670570D01*
X162371884Y-76685086D02*
X162368016Y-76668579D01*
X161397088Y-75447891D02*
X161400717Y-75449452D01*
X162356967Y-76636167D02*
X162349784Y-76620355D01*
X161124101Y-75452169D02*
X161126039Y-75451082D01*
X160219817Y-77062273D02*
X160229862Y-77064778D01*
X160198223Y-76957086D02*
X160205424Y-76961404D01*
X160830909Y-76200547D02*
X160827252Y-76198959D01*
X161414067Y-75457840D02*
X161417061Y-75460446D01*
X160052044Y-76949910D02*
X160058548Y-76958121D01*
X159917799Y-76533746D02*
X159917799Y-76533746D01*
X161441971Y-74925452D02*
X161434353Y-74918534D01*
X161116758Y-75457169D02*
X161118528Y-75455824D01*
X161067330Y-74986514D02*
X161054296Y-74997229D01*
X160887749Y-76759014D02*
X160887450Y-76756197D01*
X160186282Y-77185761D02*
X160158602Y-77177398D01*
X161435785Y-75522330D02*
X161434725Y-75526189D01*
X162216134Y-76976278D02*
X162231459Y-76969346D01*
X161080996Y-74976707D02*
X161067330Y-74986514D01*
X160072255Y-76973784D02*
X160079446Y-76981230D01*
X161236544Y-74840941D02*
X161225838Y-74840768D01*
X162133238Y-76995429D02*
X162150519Y-76993744D01*
D11*
X165354000Y-57658000D02*
X166604000Y-58658000D01*
D10*
X162374649Y-76768777D02*
X162376305Y-76752040D01*
X161435431Y-75491008D02*
X161436326Y-75494862D01*
X161554496Y-75938428D02*
X161555838Y-75942576D01*
X160933219Y-74822050D02*
X160944196Y-74812720D01*
X160938470Y-76813825D02*
X160936671Y-76813432D01*
X161257722Y-74842315D02*
X161247174Y-74841458D01*
X161318449Y-74949881D02*
X161310495Y-74947041D01*
X160088637Y-76818232D02*
X160094715Y-76834319D01*
X162341365Y-77008383D02*
X162357209Y-76995362D01*
X160793672Y-76160630D02*
X160792572Y-76156779D01*
X161247174Y-74841458D02*
X161236544Y-74840941D01*
X160887521Y-76744774D02*
X160887864Y-76741900D01*
X162593240Y-76727513D02*
X162594182Y-76756143D01*
X162148691Y-77073083D02*
X162170028Y-77072394D01*
X162178619Y-77199939D02*
X162163702Y-77200664D01*
D12*
X128143047Y-73477428D02*
X128904952Y-73477428D01*
X128524000Y-73858380D02*
X128524000Y-73096476D01*
X130159238Y-73632190D02*
X130159238Y-73132190D01*
X130349714Y-73132190D01*
X130397333Y-73156000D01*
X130421142Y-73179809D01*
X130444952Y-73227428D01*
X130444952Y-73298857D01*
X130421142Y-73346476D01*
X130397333Y-73370285D01*
X130349714Y-73394095D01*
X130159238Y-73394095D01*
X130873523Y-73298857D02*
X130873523Y-73632190D01*
X130659238Y-73298857D02*
X130659238Y-73560761D01*
X130683047Y-73608380D01*
X130730666Y-73632190D01*
X130802095Y-73632190D01*
X130849714Y-73608380D01*
X130873523Y-73584571D01*
X131183047Y-73632190D02*
X131135428Y-73608380D01*
X131111619Y-73560761D01*
X131111619Y-73132190D01*
X131349714Y-73608380D02*
X131397333Y-73632190D01*
X131492571Y-73632190D01*
X131540190Y-73608380D01*
X131564000Y-73560761D01*
X131564000Y-73536952D01*
X131540190Y-73489333D01*
X131492571Y-73465523D01*
X131421142Y-73465523D01*
X131373523Y-73441714D01*
X131349714Y-73394095D01*
X131349714Y-73370285D01*
X131373523Y-73322666D01*
X131421142Y-73298857D01*
X131492571Y-73298857D01*
X131540190Y-73322666D01*
X131968761Y-73608380D02*
X131921142Y-73632190D01*
X131825904Y-73632190D01*
X131778285Y-73608380D01*
X131754476Y-73560761D01*
X131754476Y-73370285D01*
X131778285Y-73322666D01*
X131825904Y-73298857D01*
X131921142Y-73298857D01*
X131968761Y-73322666D01*
X131992571Y-73370285D01*
X131992571Y-73417904D01*
X131754476Y-73465523D01*
X133477047Y-73156000D02*
X133429428Y-73132190D01*
X133358000Y-73132190D01*
X133286571Y-73156000D01*
X133238952Y-73203619D01*
X133215142Y-73251238D01*
X133191333Y-73346476D01*
X133191333Y-73417904D01*
X133215142Y-73513142D01*
X133238952Y-73560761D01*
X133286571Y-73608380D01*
X133358000Y-73632190D01*
X133405619Y-73632190D01*
X133477047Y-73608380D01*
X133500857Y-73584571D01*
X133500857Y-73417904D01*
X133405619Y-73417904D01*
X133715142Y-73632190D02*
X133715142Y-73132190D01*
X134000857Y-73632190D01*
X134000857Y-73132190D01*
X134238952Y-73632190D02*
X134238952Y-73132190D01*
X134358000Y-73132190D01*
X134429428Y-73156000D01*
X134477047Y-73203619D01*
X134500857Y-73251238D01*
X134524666Y-73346476D01*
X134524666Y-73417904D01*
X134500857Y-73513142D01*
X134477047Y-73560761D01*
X134429428Y-73608380D01*
X134358000Y-73632190D01*
X134238952Y-73632190D01*
D13*
X144966571Y-60630571D02*
X144942761Y-60654380D01*
X144871333Y-60678190D01*
X144823714Y-60678190D01*
X144752285Y-60654380D01*
X144704666Y-60606761D01*
X144680857Y-60559142D01*
X144657047Y-60463904D01*
X144657047Y-60392476D01*
X144680857Y-60297238D01*
X144704666Y-60249619D01*
X144752285Y-60202000D01*
X144823714Y-60178190D01*
X144871333Y-60178190D01*
X144942761Y-60202000D01*
X144966571Y-60225809D01*
X145442761Y-60678190D02*
X145157047Y-60678190D01*
X145299904Y-60678190D02*
X145299904Y-60178190D01*
X145252285Y-60249619D01*
X145204666Y-60297238D01*
X145157047Y-60321047D01*
X145918952Y-60678190D02*
X145633238Y-60678190D01*
X145776095Y-60678190D02*
X145776095Y-60178190D01*
X145728476Y-60249619D01*
X145680857Y-60297238D01*
X145633238Y-60321047D01*
X157726190Y-63619047D02*
X157226190Y-63619047D01*
X157226190Y-63500000D01*
X157250000Y-63428571D01*
X157297619Y-63380952D01*
X157345238Y-63357142D01*
X157440476Y-63333333D01*
X157511904Y-63333333D01*
X157607142Y-63357142D01*
X157654761Y-63380952D01*
X157702380Y-63428571D01*
X157726190Y-63500000D01*
X157726190Y-63619047D01*
X157440476Y-63047619D02*
X157416666Y-63095238D01*
X157392857Y-63119047D01*
X157345238Y-63142857D01*
X157321428Y-63142857D01*
X157273809Y-63119047D01*
X157250000Y-63095238D01*
X157226190Y-63047619D01*
X157226190Y-62952380D01*
X157250000Y-62904761D01*
X157273809Y-62880952D01*
X157321428Y-62857142D01*
X157345238Y-62857142D01*
X157392857Y-62880952D01*
X157416666Y-62904761D01*
X157440476Y-62952380D01*
X157440476Y-63047619D01*
X157464285Y-63095238D01*
X157488095Y-63119047D01*
X157535714Y-63142857D01*
X157630952Y-63142857D01*
X157678571Y-63119047D01*
X157702380Y-63095238D01*
X157726190Y-63047619D01*
X157726190Y-62952380D01*
X157702380Y-62904761D01*
X157678571Y-62880952D01*
X157630952Y-62857142D01*
X157535714Y-62857142D01*
X157488095Y-62880952D01*
X157464285Y-62904761D01*
X157440476Y-62952380D01*
X163382095Y-77203333D02*
X163620190Y-77203333D01*
X163334476Y-77346190D02*
X163501142Y-76846190D01*
X163667809Y-77346190D01*
X163834476Y-77012857D02*
X163834476Y-77346190D01*
X163834476Y-77060476D02*
X163858285Y-77036666D01*
X163905904Y-77012857D01*
X163977333Y-77012857D01*
X164024952Y-77036666D01*
X164048761Y-77084285D01*
X164048761Y-77346190D01*
X164358285Y-77346190D02*
X164310666Y-77322380D01*
X164286857Y-77298571D01*
X164263047Y-77250952D01*
X164263047Y-77108095D01*
X164286857Y-77060476D01*
X164310666Y-77036666D01*
X164358285Y-77012857D01*
X164429714Y-77012857D01*
X164477333Y-77036666D01*
X164501142Y-77060476D01*
X164524952Y-77108095D01*
X164524952Y-77250952D01*
X164501142Y-77298571D01*
X164477333Y-77322380D01*
X164429714Y-77346190D01*
X164358285Y-77346190D01*
X164953523Y-77346190D02*
X164953523Y-76846190D01*
X164953523Y-77322380D02*
X164905904Y-77346190D01*
X164810666Y-77346190D01*
X164763047Y-77322380D01*
X164739238Y-77298571D01*
X164715428Y-77250952D01*
X164715428Y-77108095D01*
X164739238Y-77060476D01*
X164763047Y-77036666D01*
X164810666Y-77012857D01*
X164905904Y-77012857D01*
X164953523Y-77036666D01*
X165382095Y-77322380D02*
X165334476Y-77346190D01*
X165239238Y-77346190D01*
X165191619Y-77322380D01*
X165167809Y-77274761D01*
X165167809Y-77084285D01*
X165191619Y-77036666D01*
X165239238Y-77012857D01*
X165334476Y-77012857D01*
X165382095Y-77036666D01*
X165405904Y-77084285D01*
X165405904Y-77131904D01*
X165167809Y-77179523D01*
X143726190Y-63619047D02*
X143226190Y-63619047D01*
X143226190Y-63500000D01*
X143250000Y-63428571D01*
X143297619Y-63380952D01*
X143345238Y-63357142D01*
X143440476Y-63333333D01*
X143511904Y-63333333D01*
X143607142Y-63357142D01*
X143654761Y-63380952D01*
X143702380Y-63428571D01*
X143726190Y-63500000D01*
X143726190Y-63619047D01*
X143392857Y-62904761D02*
X143726190Y-62904761D01*
X143202380Y-63023809D02*
X143559523Y-63142857D01*
X143559523Y-62833333D01*
X151966571Y-60630571D02*
X151942761Y-60654380D01*
X151871333Y-60678190D01*
X151823714Y-60678190D01*
X151752285Y-60654380D01*
X151704666Y-60606761D01*
X151680857Y-60559142D01*
X151657047Y-60463904D01*
X151657047Y-60392476D01*
X151680857Y-60297238D01*
X151704666Y-60249619D01*
X151752285Y-60202000D01*
X151823714Y-60178190D01*
X151871333Y-60178190D01*
X151942761Y-60202000D01*
X151966571Y-60225809D01*
X152442761Y-60678190D02*
X152157047Y-60678190D01*
X152299904Y-60678190D02*
X152299904Y-60178190D01*
X152252285Y-60249619D01*
X152204666Y-60297238D01*
X152157047Y-60321047D01*
X152871333Y-60178190D02*
X152776095Y-60178190D01*
X152728476Y-60202000D01*
X152704666Y-60225809D01*
X152657047Y-60297238D01*
X152633238Y-60392476D01*
X152633238Y-60582952D01*
X152657047Y-60630571D01*
X152680857Y-60654380D01*
X152728476Y-60678190D01*
X152823714Y-60678190D01*
X152871333Y-60654380D01*
X152895142Y-60630571D01*
X152918952Y-60582952D01*
X152918952Y-60463904D01*
X152895142Y-60416285D01*
X152871333Y-60392476D01*
X152823714Y-60368666D01*
X152728476Y-60368666D01*
X152680857Y-60392476D01*
X152657047Y-60416285D01*
X152633238Y-60463904D01*
X140226190Y-63619047D02*
X139726190Y-63619047D01*
X139726190Y-63500000D01*
X139750000Y-63428571D01*
X139797619Y-63380952D01*
X139845238Y-63357142D01*
X139940476Y-63333333D01*
X140011904Y-63333333D01*
X140107142Y-63357142D01*
X140154761Y-63380952D01*
X140202380Y-63428571D01*
X140226190Y-63500000D01*
X140226190Y-63619047D01*
X139726190Y-63166666D02*
X139726190Y-62857142D01*
X139916666Y-63023809D01*
X139916666Y-62952380D01*
X139940476Y-62904761D01*
X139964285Y-62880952D01*
X140011904Y-62857142D01*
X140130952Y-62857142D01*
X140178571Y-62880952D01*
X140202380Y-62904761D01*
X140226190Y-62952380D01*
X140226190Y-63095238D01*
X140202380Y-63142857D01*
X140178571Y-63166666D01*
X137966666Y-71928571D02*
X137942857Y-71952380D01*
X137871428Y-71976190D01*
X137823809Y-71976190D01*
X137752380Y-71952380D01*
X137704761Y-71904761D01*
X137680952Y-71857142D01*
X137657142Y-71761904D01*
X137657142Y-71690476D01*
X137680952Y-71595238D01*
X137704761Y-71547619D01*
X137752380Y-71500000D01*
X137823809Y-71476190D01*
X137871428Y-71476190D01*
X137942857Y-71500000D01*
X137966666Y-71523809D01*
X138157142Y-71523809D02*
X138180952Y-71500000D01*
X138228571Y-71476190D01*
X138347619Y-71476190D01*
X138395238Y-71500000D01*
X138419047Y-71523809D01*
X138442857Y-71571428D01*
X138442857Y-71619047D01*
X138419047Y-71690476D01*
X138133333Y-71976190D01*
X138442857Y-71976190D01*
X153666666Y-68044190D02*
X153500000Y-67806095D01*
X153380952Y-68044190D02*
X153380952Y-67544190D01*
X153571428Y-67544190D01*
X153619047Y-67568000D01*
X153642857Y-67591809D01*
X153666666Y-67639428D01*
X153666666Y-67710857D01*
X153642857Y-67758476D01*
X153619047Y-67782285D01*
X153571428Y-67806095D01*
X153380952Y-67806095D01*
X153952380Y-67758476D02*
X153904761Y-67734666D01*
X153880952Y-67710857D01*
X153857142Y-67663238D01*
X153857142Y-67639428D01*
X153880952Y-67591809D01*
X153904761Y-67568000D01*
X153952380Y-67544190D01*
X154047619Y-67544190D01*
X154095238Y-67568000D01*
X154119047Y-67591809D01*
X154142857Y-67639428D01*
X154142857Y-67663238D01*
X154119047Y-67710857D01*
X154095238Y-67734666D01*
X154047619Y-67758476D01*
X153952380Y-67758476D01*
X153904761Y-67782285D01*
X153880952Y-67806095D01*
X153857142Y-67853714D01*
X153857142Y-67948952D01*
X153880952Y-67996571D01*
X153904761Y-68020380D01*
X153952380Y-68044190D01*
X154047619Y-68044190D01*
X154095238Y-68020380D01*
X154119047Y-67996571D01*
X154142857Y-67948952D01*
X154142857Y-67853714D01*
X154119047Y-67806095D01*
X154095238Y-67782285D01*
X154047619Y-67758476D01*
X148466571Y-60630571D02*
X148442761Y-60654380D01*
X148371333Y-60678190D01*
X148323714Y-60678190D01*
X148252285Y-60654380D01*
X148204666Y-60606761D01*
X148180857Y-60559142D01*
X148157047Y-60463904D01*
X148157047Y-60392476D01*
X148180857Y-60297238D01*
X148204666Y-60249619D01*
X148252285Y-60202000D01*
X148323714Y-60178190D01*
X148371333Y-60178190D01*
X148442761Y-60202000D01*
X148466571Y-60225809D01*
X148942761Y-60678190D02*
X148657047Y-60678190D01*
X148799904Y-60678190D02*
X148799904Y-60178190D01*
X148752285Y-60249619D01*
X148704666Y-60297238D01*
X148657047Y-60321047D01*
X149109428Y-60178190D02*
X149418952Y-60178190D01*
X149252285Y-60368666D01*
X149323714Y-60368666D01*
X149371333Y-60392476D01*
X149395142Y-60416285D01*
X149418952Y-60463904D01*
X149418952Y-60582952D01*
X149395142Y-60630571D01*
X149371333Y-60654380D01*
X149323714Y-60678190D01*
X149180857Y-60678190D01*
X149133238Y-60654380D01*
X149109428Y-60630571D01*
X158666666Y-68044190D02*
X158500000Y-67806095D01*
X158380952Y-68044190D02*
X158380952Y-67544190D01*
X158571428Y-67544190D01*
X158619047Y-67568000D01*
X158642857Y-67591809D01*
X158666666Y-67639428D01*
X158666666Y-67710857D01*
X158642857Y-67758476D01*
X158619047Y-67782285D01*
X158571428Y-67806095D01*
X158380952Y-67806095D01*
X158833333Y-67544190D02*
X159166666Y-67544190D01*
X158952380Y-68044190D01*
X150726190Y-63619047D02*
X150226190Y-63619047D01*
X150226190Y-63500000D01*
X150250000Y-63428571D01*
X150297619Y-63380952D01*
X150345238Y-63357142D01*
X150440476Y-63333333D01*
X150511904Y-63333333D01*
X150607142Y-63357142D01*
X150654761Y-63380952D01*
X150702380Y-63428571D01*
X150726190Y-63500000D01*
X150726190Y-63619047D01*
X150226190Y-62904761D02*
X150226190Y-63000000D01*
X150250000Y-63047619D01*
X150273809Y-63071428D01*
X150345238Y-63119047D01*
X150440476Y-63142857D01*
X150630952Y-63142857D01*
X150678571Y-63119047D01*
X150702380Y-63095238D01*
X150726190Y-63047619D01*
X150726190Y-62952380D01*
X150702380Y-62904761D01*
X150678571Y-62880952D01*
X150630952Y-62857142D01*
X150511904Y-62857142D01*
X150464285Y-62880952D01*
X150440476Y-62904761D01*
X150416666Y-62952380D01*
X150416666Y-63047619D01*
X150440476Y-63095238D01*
X150464285Y-63119047D01*
X150511904Y-63142857D01*
X151130952Y-69905190D02*
X151130952Y-69405190D01*
X151250000Y-69405190D01*
X151321428Y-69429000D01*
X151369047Y-69476619D01*
X151392857Y-69524238D01*
X151416666Y-69619476D01*
X151416666Y-69690904D01*
X151392857Y-69786142D01*
X151369047Y-69833761D01*
X151321428Y-69881380D01*
X151250000Y-69905190D01*
X151130952Y-69905190D01*
X151892857Y-69905190D02*
X151607142Y-69905190D01*
X151750000Y-69905190D02*
X151750000Y-69405190D01*
X151702380Y-69476619D01*
X151654761Y-69524238D01*
X151607142Y-69548047D01*
X133747730Y-70476190D02*
X133581064Y-70238095D01*
X133462016Y-70476190D02*
X133462016Y-69976190D01*
X133652492Y-69976190D01*
X133700111Y-70000000D01*
X133723921Y-70023809D01*
X133747730Y-70071428D01*
X133747730Y-70142857D01*
X133723921Y-70190476D01*
X133700111Y-70214285D01*
X133652492Y-70238095D01*
X133462016Y-70238095D01*
X134200111Y-69976190D02*
X133962016Y-69976190D01*
X133938206Y-70214285D01*
X133962016Y-70190476D01*
X134009635Y-70166666D01*
X134128683Y-70166666D01*
X134176302Y-70190476D01*
X134200111Y-70214285D01*
X134223921Y-70261904D01*
X134223921Y-70380952D01*
X134200111Y-70428571D01*
X134176302Y-70452380D01*
X134128683Y-70476190D01*
X134009635Y-70476190D01*
X133962016Y-70452380D01*
X133938206Y-70428571D01*
X137068857Y-76886571D02*
X137045047Y-76910380D01*
X136973619Y-76934190D01*
X136926000Y-76934190D01*
X136854571Y-76910380D01*
X136806952Y-76862761D01*
X136783142Y-76815142D01*
X136759333Y-76719904D01*
X136759333Y-76648476D01*
X136783142Y-76553238D01*
X136806952Y-76505619D01*
X136854571Y-76458000D01*
X136926000Y-76434190D01*
X136973619Y-76434190D01*
X137045047Y-76458000D01*
X137068857Y-76481809D01*
X137497428Y-76934190D02*
X137497428Y-76672285D01*
X137473619Y-76624666D01*
X137426000Y-76600857D01*
X137330761Y-76600857D01*
X137283142Y-76624666D01*
X137497428Y-76910380D02*
X137449809Y-76934190D01*
X137330761Y-76934190D01*
X137283142Y-76910380D01*
X137259333Y-76862761D01*
X137259333Y-76815142D01*
X137283142Y-76767523D01*
X137330761Y-76743714D01*
X137449809Y-76743714D01*
X137497428Y-76719904D01*
X137664095Y-76600857D02*
X137854571Y-76600857D01*
X137735523Y-76434190D02*
X137735523Y-76862761D01*
X137759333Y-76910380D01*
X137806952Y-76934190D01*
X137854571Y-76934190D01*
X138021238Y-76934190D02*
X138021238Y-76434190D01*
X138235523Y-76934190D02*
X138235523Y-76672285D01*
X138211714Y-76624666D01*
X138164095Y-76600857D01*
X138092666Y-76600857D01*
X138045047Y-76624666D01*
X138021238Y-76648476D01*
X138545047Y-76934190D02*
X138497428Y-76910380D01*
X138473619Y-76886571D01*
X138449809Y-76838952D01*
X138449809Y-76696095D01*
X138473619Y-76648476D01*
X138497428Y-76624666D01*
X138545047Y-76600857D01*
X138616476Y-76600857D01*
X138664095Y-76624666D01*
X138687904Y-76648476D01*
X138711714Y-76696095D01*
X138711714Y-76838952D01*
X138687904Y-76886571D01*
X138664095Y-76910380D01*
X138616476Y-76934190D01*
X138545047Y-76934190D01*
X139140285Y-76934190D02*
X139140285Y-76434190D01*
X139140285Y-76910380D02*
X139092666Y-76934190D01*
X138997428Y-76934190D01*
X138949809Y-76910380D01*
X138926000Y-76886571D01*
X138902190Y-76838952D01*
X138902190Y-76696095D01*
X138926000Y-76648476D01*
X138949809Y-76624666D01*
X138997428Y-76600857D01*
X139092666Y-76600857D01*
X139140285Y-76624666D01*
X139568857Y-76910380D02*
X139521238Y-76934190D01*
X139426000Y-76934190D01*
X139378380Y-76910380D01*
X139354571Y-76862761D01*
X139354571Y-76672285D01*
X139378380Y-76624666D01*
X139426000Y-76600857D01*
X139521238Y-76600857D01*
X139568857Y-76624666D01*
X139592666Y-76672285D01*
X139592666Y-76719904D01*
X139354571Y-76767523D01*
X154226190Y-63619047D02*
X153726190Y-63619047D01*
X153726190Y-63500000D01*
X153750000Y-63428571D01*
X153797619Y-63380952D01*
X153845238Y-63357142D01*
X153940476Y-63333333D01*
X154011904Y-63333333D01*
X154107142Y-63357142D01*
X154154761Y-63380952D01*
X154202380Y-63428571D01*
X154226190Y-63500000D01*
X154226190Y-63619047D01*
X153726190Y-63166666D02*
X153726190Y-62833333D01*
X154226190Y-63047619D01*
X130416666Y-58178571D02*
X130392857Y-58202380D01*
X130321428Y-58226190D01*
X130273809Y-58226190D01*
X130202380Y-58202380D01*
X130154761Y-58154761D01*
X130130952Y-58107142D01*
X130107142Y-58011904D01*
X130107142Y-57940476D01*
X130130952Y-57845238D01*
X130154761Y-57797619D01*
X130202380Y-57750000D01*
X130273809Y-57726190D01*
X130321428Y-57726190D01*
X130392857Y-57750000D01*
X130416666Y-57773809D01*
X130869047Y-57726190D02*
X130630952Y-57726190D01*
X130607142Y-57964285D01*
X130630952Y-57940476D01*
X130678571Y-57916666D01*
X130797619Y-57916666D01*
X130845238Y-57940476D01*
X130869047Y-57964285D01*
X130892857Y-58011904D01*
X130892857Y-58130952D01*
X130869047Y-58178571D01*
X130845238Y-58202380D01*
X130797619Y-58226190D01*
X130678571Y-58226190D01*
X130630952Y-58202380D01*
X130607142Y-58178571D01*
X153678571Y-66678571D02*
X153654761Y-66702380D01*
X153583333Y-66726190D01*
X153535714Y-66726190D01*
X153464285Y-66702380D01*
X153416666Y-66654761D01*
X153392857Y-66607142D01*
X153369047Y-66511904D01*
X153369047Y-66440476D01*
X153392857Y-66345238D01*
X153416666Y-66297619D01*
X153464285Y-66250000D01*
X153535714Y-66226190D01*
X153583333Y-66226190D01*
X153654761Y-66250000D01*
X153678571Y-66273809D01*
X154154761Y-66726190D02*
X153869047Y-66726190D01*
X154011904Y-66726190D02*
X154011904Y-66226190D01*
X153964285Y-66297619D01*
X153916666Y-66345238D01*
X153869047Y-66369047D01*
X154321428Y-66226190D02*
X154654761Y-66226190D01*
X154440476Y-66726190D01*
X166230190Y-66473333D02*
X165992095Y-66640000D01*
X166230190Y-66759047D02*
X165730190Y-66759047D01*
X165730190Y-66568571D01*
X165754000Y-66520952D01*
X165777809Y-66497142D01*
X165825428Y-66473333D01*
X165896857Y-66473333D01*
X165944476Y-66497142D01*
X165968285Y-66520952D01*
X165992095Y-66568571D01*
X165992095Y-66759047D01*
X166230190Y-65997142D02*
X166230190Y-66282857D01*
X166230190Y-66140000D02*
X165730190Y-66140000D01*
X165801619Y-66187619D01*
X165849238Y-66235238D01*
X165873047Y-66282857D01*
X138454666Y-60630571D02*
X138430857Y-60654380D01*
X138359428Y-60678190D01*
X138311809Y-60678190D01*
X138240380Y-60654380D01*
X138192761Y-60606761D01*
X138168952Y-60559142D01*
X138145142Y-60463904D01*
X138145142Y-60392476D01*
X138168952Y-60297238D01*
X138192761Y-60249619D01*
X138240380Y-60202000D01*
X138311809Y-60178190D01*
X138359428Y-60178190D01*
X138430857Y-60202000D01*
X138454666Y-60225809D01*
X138883238Y-60178190D02*
X138788000Y-60178190D01*
X138740380Y-60202000D01*
X138716571Y-60225809D01*
X138668952Y-60297238D01*
X138645142Y-60392476D01*
X138645142Y-60582952D01*
X138668952Y-60630571D01*
X138692761Y-60654380D01*
X138740380Y-60678190D01*
X138835619Y-60678190D01*
X138883238Y-60654380D01*
X138907047Y-60630571D01*
X138930857Y-60582952D01*
X138930857Y-60463904D01*
X138907047Y-60416285D01*
X138883238Y-60392476D01*
X138835619Y-60368666D01*
X138740380Y-60368666D01*
X138692761Y-60392476D01*
X138668952Y-60416285D01*
X138645142Y-60463904D01*
X157976190Y-70933428D02*
X157738095Y-71100095D01*
X157976190Y-71219142D02*
X157476190Y-71219142D01*
X157476190Y-71028666D01*
X157500000Y-70981047D01*
X157523809Y-70957238D01*
X157571428Y-70933428D01*
X157642857Y-70933428D01*
X157690476Y-70957238D01*
X157714285Y-70981047D01*
X157738095Y-71028666D01*
X157738095Y-71219142D01*
X157523809Y-70742952D02*
X157500000Y-70719142D01*
X157476190Y-70671523D01*
X157476190Y-70552476D01*
X157500000Y-70504857D01*
X157523809Y-70481047D01*
X157571428Y-70457238D01*
X157619047Y-70457238D01*
X157690476Y-70481047D01*
X157976190Y-70766761D01*
X157976190Y-70457238D01*
X157476190Y-70290571D02*
X157476190Y-69981047D01*
X157666666Y-70147714D01*
X157666666Y-70076285D01*
X157690476Y-70028666D01*
X157714285Y-70004857D01*
X157761904Y-69981047D01*
X157880952Y-69981047D01*
X157928571Y-70004857D01*
X157952380Y-70028666D01*
X157976190Y-70076285D01*
X157976190Y-70219142D01*
X157952380Y-70266761D01*
X157928571Y-70290571D01*
X139916666Y-66678571D02*
X139892857Y-66702380D01*
X139821428Y-66726190D01*
X139773809Y-66726190D01*
X139702380Y-66702380D01*
X139654761Y-66654761D01*
X139630952Y-66607142D01*
X139607142Y-66511904D01*
X139607142Y-66440476D01*
X139630952Y-66345238D01*
X139654761Y-66297619D01*
X139702380Y-66250000D01*
X139773809Y-66226190D01*
X139821428Y-66226190D01*
X139892857Y-66250000D01*
X139916666Y-66273809D01*
X140083333Y-66226190D02*
X140416666Y-66226190D01*
X140202380Y-66726190D01*
X150178571Y-66678571D02*
X150154761Y-66702380D01*
X150083333Y-66726190D01*
X150035714Y-66726190D01*
X149964285Y-66702380D01*
X149916666Y-66654761D01*
X149892857Y-66607142D01*
X149869047Y-66511904D01*
X149869047Y-66440476D01*
X149892857Y-66345238D01*
X149916666Y-66297619D01*
X149964285Y-66250000D01*
X150035714Y-66226190D01*
X150083333Y-66226190D01*
X150154761Y-66250000D01*
X150178571Y-66273809D01*
X150654761Y-66726190D02*
X150369047Y-66726190D01*
X150511904Y-66726190D02*
X150511904Y-66226190D01*
X150464285Y-66297619D01*
X150416666Y-66345238D01*
X150369047Y-66369047D01*
X151083333Y-66392857D02*
X151083333Y-66726190D01*
X150964285Y-66202380D02*
X150845238Y-66559523D01*
X151154761Y-66559523D01*
X146678571Y-66678571D02*
X146654761Y-66702380D01*
X146583333Y-66726190D01*
X146535714Y-66726190D01*
X146464285Y-66702380D01*
X146416666Y-66654761D01*
X146392857Y-66607142D01*
X146369047Y-66511904D01*
X146369047Y-66440476D01*
X146392857Y-66345238D01*
X146416666Y-66297619D01*
X146464285Y-66250000D01*
X146535714Y-66226190D01*
X146583333Y-66226190D01*
X146654761Y-66250000D01*
X146678571Y-66273809D01*
X147154761Y-66726190D02*
X146869047Y-66726190D01*
X147011904Y-66726190D02*
X147011904Y-66226190D01*
X146964285Y-66297619D01*
X146916666Y-66345238D01*
X146869047Y-66369047D01*
X147345238Y-66273809D02*
X147369047Y-66250000D01*
X147416666Y-66226190D01*
X147535714Y-66226190D01*
X147583333Y-66250000D01*
X147607142Y-66273809D01*
X147630952Y-66321428D01*
X147630952Y-66369047D01*
X147607142Y-66440476D01*
X147321428Y-66726190D01*
X147630952Y-66726190D01*
X134416666Y-62976190D02*
X134178571Y-62976190D01*
X134178571Y-62476190D01*
X134845238Y-62976190D02*
X134559523Y-62976190D01*
X134702380Y-62976190D02*
X134702380Y-62476190D01*
X134654761Y-62547619D01*
X134607142Y-62595238D01*
X134559523Y-62619047D01*
X143178571Y-68044190D02*
X143011904Y-67806095D01*
X142892857Y-68044190D02*
X142892857Y-67544190D01*
X143083333Y-67544190D01*
X143130952Y-67568000D01*
X143154761Y-67591809D01*
X143178571Y-67639428D01*
X143178571Y-67710857D01*
X143154761Y-67758476D01*
X143130952Y-67782285D01*
X143083333Y-67806095D01*
X142892857Y-67806095D01*
X143654761Y-68044190D02*
X143369047Y-68044190D01*
X143511904Y-68044190D02*
X143511904Y-67544190D01*
X143464285Y-67615619D01*
X143416666Y-67663238D01*
X143369047Y-67687047D01*
X143964285Y-67544190D02*
X144011904Y-67544190D01*
X144059523Y-67568000D01*
X144083333Y-67591809D01*
X144107142Y-67639428D01*
X144130952Y-67734666D01*
X144130952Y-67853714D01*
X144107142Y-67948952D01*
X144083333Y-67996571D01*
X144059523Y-68020380D01*
X144011904Y-68044190D01*
X143964285Y-68044190D01*
X143916666Y-68020380D01*
X143892857Y-67996571D01*
X143869047Y-67948952D01*
X143845238Y-67853714D01*
X143845238Y-67734666D01*
X143869047Y-67639428D01*
X143892857Y-67591809D01*
X143916666Y-67568000D01*
X143964285Y-67544190D01*
X157266571Y-66678571D02*
X157242761Y-66702380D01*
X157171333Y-66726190D01*
X157123714Y-66726190D01*
X157052285Y-66702380D01*
X157004666Y-66654761D01*
X156980857Y-66607142D01*
X156957047Y-66511904D01*
X156957047Y-66440476D01*
X156980857Y-66345238D01*
X157004666Y-66297619D01*
X157052285Y-66250000D01*
X157123714Y-66226190D01*
X157171333Y-66226190D01*
X157242761Y-66250000D01*
X157266571Y-66273809D01*
X157457047Y-66273809D02*
X157480857Y-66250000D01*
X157528476Y-66226190D01*
X157647523Y-66226190D01*
X157695142Y-66250000D01*
X157718952Y-66273809D01*
X157742761Y-66321428D01*
X157742761Y-66369047D01*
X157718952Y-66440476D01*
X157433238Y-66726190D01*
X157742761Y-66726190D01*
X158052285Y-66226190D02*
X158099904Y-66226190D01*
X158147523Y-66250000D01*
X158171333Y-66273809D01*
X158195142Y-66321428D01*
X158218952Y-66416666D01*
X158218952Y-66535714D01*
X158195142Y-66630952D01*
X158171333Y-66678571D01*
X158147523Y-66702380D01*
X158099904Y-66726190D01*
X158052285Y-66726190D01*
X158004666Y-66702380D01*
X157980857Y-66678571D01*
X157957047Y-66630952D01*
X157933238Y-66535714D01*
X157933238Y-66416666D01*
X157957047Y-66321428D01*
X157980857Y-66273809D01*
X158004666Y-66250000D01*
X158052285Y-66226190D01*
X140726190Y-73786952D02*
X141130952Y-73786952D01*
X141178571Y-73763142D01*
X141202380Y-73739333D01*
X141226190Y-73691714D01*
X141226190Y-73596476D01*
X141202380Y-73548857D01*
X141178571Y-73525047D01*
X141130952Y-73501238D01*
X140726190Y-73501238D01*
X140773809Y-73286952D02*
X140750000Y-73263142D01*
X140726190Y-73215523D01*
X140726190Y-73096476D01*
X140750000Y-73048857D01*
X140773809Y-73025047D01*
X140821428Y-73001238D01*
X140869047Y-73001238D01*
X140940476Y-73025047D01*
X141226190Y-73310761D01*
X141226190Y-73001238D01*
X127583333Y-57964285D02*
X127416666Y-57964285D01*
X127416666Y-58226190D02*
X127416666Y-57726190D01*
X127654761Y-57726190D01*
X128011904Y-57964285D02*
X128083333Y-57988095D01*
X128107142Y-58011904D01*
X128130952Y-58059523D01*
X128130952Y-58130952D01*
X128107142Y-58178571D01*
X128083333Y-58202380D01*
X128035714Y-58226190D01*
X127845238Y-58226190D01*
X127845238Y-57726190D01*
X128011904Y-57726190D01*
X128059523Y-57750000D01*
X128083333Y-57773809D01*
X128107142Y-57821428D01*
X128107142Y-57869047D01*
X128083333Y-57916666D01*
X128059523Y-57940476D01*
X128011904Y-57964285D01*
X127845238Y-57964285D01*
X128321428Y-57773809D02*
X128345238Y-57750000D01*
X128392857Y-57726190D01*
X128511904Y-57726190D01*
X128559523Y-57750000D01*
X128583333Y-57773809D01*
X128607142Y-57821428D01*
X128607142Y-57869047D01*
X128583333Y-57940476D01*
X128297619Y-58226190D01*
X128607142Y-58226190D01*
X148666666Y-68044190D02*
X148500000Y-67806095D01*
X148380952Y-68044190D02*
X148380952Y-67544190D01*
X148571428Y-67544190D01*
X148619047Y-67568000D01*
X148642857Y-67591809D01*
X148666666Y-67639428D01*
X148666666Y-67710857D01*
X148642857Y-67758476D01*
X148619047Y-67782285D01*
X148571428Y-67806095D01*
X148380952Y-67806095D01*
X148904761Y-68044190D02*
X149000000Y-68044190D01*
X149047619Y-68020380D01*
X149071428Y-67996571D01*
X149119047Y-67925142D01*
X149142857Y-67829904D01*
X149142857Y-67639428D01*
X149119047Y-67591809D01*
X149095238Y-67568000D01*
X149047619Y-67544190D01*
X148952380Y-67544190D01*
X148904761Y-67568000D01*
X148880952Y-67591809D01*
X148857142Y-67639428D01*
X148857142Y-67758476D01*
X148880952Y-67806095D01*
X148904761Y-67829904D01*
X148952380Y-67853714D01*
X149047619Y-67853714D01*
X149095238Y-67829904D01*
X149119047Y-67806095D01*
X149142857Y-67758476D01*
X153226666Y-77296190D02*
X153060000Y-77058095D01*
X152940952Y-77296190D02*
X152940952Y-76796190D01*
X153131428Y-76796190D01*
X153179047Y-76820000D01*
X153202857Y-76843809D01*
X153226666Y-76891428D01*
X153226666Y-76962857D01*
X153202857Y-77010476D01*
X153179047Y-77034285D01*
X153131428Y-77058095D01*
X152940952Y-77058095D01*
X153393333Y-76796190D02*
X153702857Y-76796190D01*
X153536190Y-76986666D01*
X153607619Y-76986666D01*
X153655238Y-77010476D01*
X153679047Y-77034285D01*
X153702857Y-77081904D01*
X153702857Y-77200952D01*
X153679047Y-77248571D01*
X153655238Y-77272380D01*
X153607619Y-77296190D01*
X153464761Y-77296190D01*
X153417142Y-77272380D01*
X153393333Y-77248571D01*
X153216666Y-75066190D02*
X153050000Y-74828095D01*
X152930952Y-75066190D02*
X152930952Y-74566190D01*
X153121428Y-74566190D01*
X153169047Y-74590000D01*
X153192857Y-74613809D01*
X153216666Y-74661428D01*
X153216666Y-74732857D01*
X153192857Y-74780476D01*
X153169047Y-74804285D01*
X153121428Y-74828095D01*
X152930952Y-74828095D01*
X153645238Y-74732857D02*
X153645238Y-75066190D01*
X153526190Y-74542380D02*
X153407142Y-74899523D01*
X153716666Y-74899523D01*
X155466571Y-60630571D02*
X155442761Y-60654380D01*
X155371333Y-60678190D01*
X155323714Y-60678190D01*
X155252285Y-60654380D01*
X155204666Y-60606761D01*
X155180857Y-60559142D01*
X155157047Y-60463904D01*
X155157047Y-60392476D01*
X155180857Y-60297238D01*
X155204666Y-60249619D01*
X155252285Y-60202000D01*
X155323714Y-60178190D01*
X155371333Y-60178190D01*
X155442761Y-60202000D01*
X155466571Y-60225809D01*
X155942761Y-60678190D02*
X155657047Y-60678190D01*
X155799904Y-60678190D02*
X155799904Y-60178190D01*
X155752285Y-60249619D01*
X155704666Y-60297238D01*
X155657047Y-60321047D01*
X156228476Y-60392476D02*
X156180857Y-60368666D01*
X156157047Y-60344857D01*
X156133238Y-60297238D01*
X156133238Y-60273428D01*
X156157047Y-60225809D01*
X156180857Y-60202000D01*
X156228476Y-60178190D01*
X156323714Y-60178190D01*
X156371333Y-60202000D01*
X156395142Y-60225809D01*
X156418952Y-60273428D01*
X156418952Y-60297238D01*
X156395142Y-60344857D01*
X156371333Y-60368666D01*
X156323714Y-60392476D01*
X156228476Y-60392476D01*
X156180857Y-60416285D01*
X156157047Y-60440095D01*
X156133238Y-60487714D01*
X156133238Y-60582952D01*
X156157047Y-60630571D01*
X156180857Y-60654380D01*
X156228476Y-60678190D01*
X156323714Y-60678190D01*
X156371333Y-60654380D01*
X156395142Y-60630571D01*
X156418952Y-60582952D01*
X156418952Y-60487714D01*
X156395142Y-60440095D01*
X156371333Y-60416285D01*
X156323714Y-60392476D01*
X143504666Y-66678571D02*
X143480857Y-66702380D01*
X143409428Y-66726190D01*
X143361809Y-66726190D01*
X143290380Y-66702380D01*
X143242761Y-66654761D01*
X143218952Y-66607142D01*
X143195142Y-66511904D01*
X143195142Y-66440476D01*
X143218952Y-66345238D01*
X143242761Y-66297619D01*
X143290380Y-66250000D01*
X143361809Y-66226190D01*
X143409428Y-66226190D01*
X143480857Y-66250000D01*
X143504666Y-66273809D01*
X143742761Y-66726190D02*
X143838000Y-66726190D01*
X143885619Y-66702380D01*
X143909428Y-66678571D01*
X143957047Y-66607142D01*
X143980857Y-66511904D01*
X143980857Y-66321428D01*
X143957047Y-66273809D01*
X143933238Y-66250000D01*
X143885619Y-66226190D01*
X143790380Y-66226190D01*
X143742761Y-66250000D01*
X143718952Y-66273809D01*
X143695142Y-66321428D01*
X143695142Y-66440476D01*
X143718952Y-66488095D01*
X143742761Y-66511904D01*
X143790380Y-66535714D01*
X143885619Y-66535714D01*
X143933238Y-66511904D01*
X143957047Y-66488095D01*
X143980857Y-66440476D01*
X134702380Y-69023809D02*
X134654761Y-69000000D01*
X134607142Y-68952380D01*
X134535714Y-68880952D01*
X134488095Y-68857142D01*
X134440476Y-68857142D01*
X134464285Y-68976190D02*
X134416666Y-68952380D01*
X134369047Y-68904761D01*
X134345238Y-68809523D01*
X134345238Y-68642857D01*
X134369047Y-68547619D01*
X134416666Y-68500000D01*
X134464285Y-68476190D01*
X134559523Y-68476190D01*
X134607142Y-68500000D01*
X134654761Y-68547619D01*
X134678571Y-68642857D01*
X134678571Y-68809523D01*
X134654761Y-68904761D01*
X134607142Y-68952380D01*
X134559523Y-68976190D01*
X134464285Y-68976190D01*
X135154761Y-68976190D02*
X134869047Y-68976190D01*
X135011904Y-68976190D02*
X135011904Y-68476190D01*
X134964285Y-68547619D01*
X134916666Y-68595238D01*
X134869047Y-68619047D01*
X161226190Y-63619047D02*
X160726190Y-63619047D01*
X160726190Y-63500000D01*
X160750000Y-63428571D01*
X160797619Y-63380952D01*
X160845238Y-63357142D01*
X160940476Y-63333333D01*
X161011904Y-63333333D01*
X161107142Y-63357142D01*
X161154761Y-63380952D01*
X161202380Y-63428571D01*
X161226190Y-63500000D01*
X161226190Y-63619047D01*
X161226190Y-63095238D02*
X161226190Y-63000000D01*
X161202380Y-62952380D01*
X161178571Y-62928571D01*
X161107142Y-62880952D01*
X161011904Y-62857142D01*
X160821428Y-62857142D01*
X160773809Y-62880952D01*
X160750000Y-62904761D01*
X160726190Y-62952380D01*
X160726190Y-63047619D01*
X160750000Y-63095238D01*
X160773809Y-63119047D01*
X160821428Y-63142857D01*
X160940476Y-63142857D01*
X160988095Y-63119047D01*
X161011904Y-63095238D01*
X161035714Y-63047619D01*
X161035714Y-62952380D01*
X161011904Y-62904761D01*
X160988095Y-62880952D01*
X160940476Y-62857142D01*
X159216571Y-60630571D02*
X159192761Y-60654380D01*
X159121333Y-60678190D01*
X159073714Y-60678190D01*
X159002285Y-60654380D01*
X158954666Y-60606761D01*
X158930857Y-60559142D01*
X158907047Y-60463904D01*
X158907047Y-60392476D01*
X158930857Y-60297238D01*
X158954666Y-60249619D01*
X159002285Y-60202000D01*
X159073714Y-60178190D01*
X159121333Y-60178190D01*
X159192761Y-60202000D01*
X159216571Y-60225809D01*
X159407047Y-60225809D02*
X159430857Y-60202000D01*
X159478476Y-60178190D01*
X159597523Y-60178190D01*
X159645142Y-60202000D01*
X159668952Y-60225809D01*
X159692761Y-60273428D01*
X159692761Y-60321047D01*
X159668952Y-60392476D01*
X159383238Y-60678190D01*
X159692761Y-60678190D01*
X160168952Y-60678190D02*
X159883238Y-60678190D01*
X160026095Y-60678190D02*
X160026095Y-60178190D01*
X159978476Y-60249619D01*
X159930857Y-60297238D01*
X159883238Y-60321047D01*
X141954666Y-60630571D02*
X141930857Y-60654380D01*
X141859428Y-60678190D01*
X141811809Y-60678190D01*
X141740380Y-60654380D01*
X141692761Y-60606761D01*
X141668952Y-60559142D01*
X141645142Y-60463904D01*
X141645142Y-60392476D01*
X141668952Y-60297238D01*
X141692761Y-60249619D01*
X141740380Y-60202000D01*
X141811809Y-60178190D01*
X141859428Y-60178190D01*
X141930857Y-60202000D01*
X141954666Y-60225809D01*
X142240380Y-60392476D02*
X142192761Y-60368666D01*
X142168952Y-60344857D01*
X142145142Y-60297238D01*
X142145142Y-60273428D01*
X142168952Y-60225809D01*
X142192761Y-60202000D01*
X142240380Y-60178190D01*
X142335619Y-60178190D01*
X142383238Y-60202000D01*
X142407047Y-60225809D01*
X142430857Y-60273428D01*
X142430857Y-60297238D01*
X142407047Y-60344857D01*
X142383238Y-60368666D01*
X142335619Y-60392476D01*
X142240380Y-60392476D01*
X142192761Y-60416285D01*
X142168952Y-60440095D01*
X142145142Y-60487714D01*
X142145142Y-60582952D01*
X142168952Y-60630571D01*
X142192761Y-60654380D01*
X142240380Y-60678190D01*
X142335619Y-60678190D01*
X142383238Y-60654380D01*
X142407047Y-60630571D01*
X142430857Y-60582952D01*
X142430857Y-60487714D01*
X142407047Y-60440095D01*
X142383238Y-60416285D01*
X142335619Y-60392476D01*
X129833333Y-70214285D02*
X129666666Y-70214285D01*
X129666666Y-70476190D02*
X129666666Y-69976190D01*
X129904761Y-69976190D01*
X130261904Y-70214285D02*
X130333333Y-70238095D01*
X130357142Y-70261904D01*
X130380952Y-70309523D01*
X130380952Y-70380952D01*
X130357142Y-70428571D01*
X130333333Y-70452380D01*
X130285714Y-70476190D01*
X130095238Y-70476190D01*
X130095238Y-69976190D01*
X130261904Y-69976190D01*
X130309523Y-70000000D01*
X130333333Y-70023809D01*
X130357142Y-70071428D01*
X130357142Y-70119047D01*
X130333333Y-70166666D01*
X130309523Y-70190476D01*
X130261904Y-70214285D01*
X130095238Y-70214285D01*
X130857142Y-70476190D02*
X130571428Y-70476190D01*
X130714285Y-70476190D02*
X130714285Y-69976190D01*
X130666666Y-70047619D01*
X130619047Y-70095238D01*
X130571428Y-70119047D01*
X147226190Y-63619047D02*
X146726190Y-63619047D01*
X146726190Y-63500000D01*
X146750000Y-63428571D01*
X146797619Y-63380952D01*
X146845238Y-63357142D01*
X146940476Y-63333333D01*
X147011904Y-63333333D01*
X147107142Y-63357142D01*
X147154761Y-63380952D01*
X147202380Y-63428571D01*
X147226190Y-63500000D01*
X147226190Y-63619047D01*
X146726190Y-62880952D02*
X146726190Y-63119047D01*
X146964285Y-63142857D01*
X146940476Y-63119047D01*
X146916666Y-63071428D01*
X146916666Y-62952380D01*
X146940476Y-62904761D01*
X146964285Y-62880952D01*
X147011904Y-62857142D01*
X147130952Y-62857142D01*
X147178571Y-62880952D01*
X147202380Y-62904761D01*
X147226190Y-62952380D01*
X147226190Y-63071428D01*
X147202380Y-63119047D01*
X147178571Y-63142857D01*
D14*
X145738748Y-59735000D02*
X146261252Y-59735000D01*
X145738748Y-58265000D02*
X146261252Y-58265000D01*
X166200000Y-70530000D02*
G75*
G03*
X166200000Y-70530000I-1500000J0D01*
G01*
X159060000Y-62000000D02*
X159060000Y-61350000D01*
X155940000Y-62000000D02*
X155940000Y-63675000D01*
X155940000Y-62000000D02*
X155940000Y-61350000D01*
X159060000Y-62000000D02*
X159060000Y-62650000D01*
X166040000Y-74580000D02*
G75*
G03*
X166040000Y-74580000I-1900000J0D01*
G01*
X141940000Y-62000000D02*
X141940000Y-63675000D01*
X141940000Y-62000000D02*
X141940000Y-61350000D01*
X145060000Y-62000000D02*
X145060000Y-61350000D01*
X145060000Y-62000000D02*
X145060000Y-62650000D01*
X152738748Y-58265000D02*
X153261252Y-58265000D01*
X152738748Y-59735000D02*
X153261252Y-59735000D01*
X138394000Y-61976000D02*
X138394000Y-61326000D01*
X141514000Y-61976000D02*
X141514000Y-62626000D01*
X141514000Y-61976000D02*
X141514000Y-61326000D01*
X138394000Y-61976000D02*
X138394000Y-63651000D01*
X137788748Y-69765000D02*
X138311252Y-69765000D01*
X137788748Y-71235000D02*
X138311252Y-71235000D01*
X151691064Y-68553000D02*
X151236936Y-68553000D01*
X151691064Y-67083000D02*
X151236936Y-67083000D01*
X149238748Y-59735000D02*
X149761252Y-59735000D01*
X149238748Y-58265000D02*
X149761252Y-58265000D01*
X156691064Y-68553000D02*
X156236936Y-68553000D01*
X156691064Y-67083000D02*
X156236936Y-67083000D01*
X152060000Y-62000000D02*
X152060000Y-62650000D01*
X148940000Y-62000000D02*
X148940000Y-61350000D01*
X148940000Y-62000000D02*
X148940000Y-63675000D01*
X152060000Y-62000000D02*
X152060000Y-61350000D01*
X152240000Y-72374000D02*
X152240000Y-71444000D01*
X152240000Y-69214000D02*
X152240000Y-70144000D01*
X152240000Y-72374000D02*
X154400000Y-72374000D01*
X152240000Y-69214000D02*
X153700000Y-69214000D01*
X133831064Y-72363000D02*
X133376936Y-72363000D01*
X133831064Y-70893000D02*
X133376936Y-70893000D01*
X139676000Y-74500000D02*
G75*
G03*
X139676000Y-74500000I-1500000J0D01*
G01*
X152440000Y-62000000D02*
X152440000Y-63675000D01*
X155560000Y-62000000D02*
X155560000Y-62650000D01*
X152440000Y-62000000D02*
X152440000Y-61350000D01*
X155560000Y-62000000D02*
X155560000Y-61350000D01*
X131235000Y-59738748D02*
X131235000Y-60261252D01*
X129765000Y-59738748D02*
X129765000Y-60261252D01*
X153738748Y-65735000D02*
X154261252Y-65735000D01*
X153738748Y-64265000D02*
X154261252Y-64265000D01*
X165390000Y-65662936D02*
X165390000Y-67117064D01*
X163570000Y-65662936D02*
X163570000Y-67117064D01*
X138738748Y-58265000D02*
X139261252Y-58265000D01*
X138738748Y-59735000D02*
X139261252Y-59735000D01*
X157235000Y-70384936D02*
X157235000Y-70839064D01*
X155765000Y-70384936D02*
X155765000Y-70839064D01*
X139738748Y-65735000D02*
X140261252Y-65735000D01*
X139738748Y-64265000D02*
X140261252Y-64265000D01*
X150238748Y-65735000D02*
X150761252Y-65735000D01*
X150238748Y-64265000D02*
X150761252Y-64265000D01*
X146738748Y-65735000D02*
X147261252Y-65735000D01*
X146738748Y-64265000D02*
X147261252Y-64265000D01*
X163290000Y-59166000D02*
X163290000Y-57836000D01*
X163290000Y-60496000D02*
X165950000Y-60496000D01*
X163290000Y-57836000D02*
X164620000Y-57836000D01*
X163290000Y-60436000D02*
X165950000Y-60436000D01*
X163290000Y-60436000D02*
X163290000Y-60496000D01*
X165950000Y-60436000D02*
X165950000Y-60496000D01*
X136600000Y-58000000D02*
X136600000Y-62000000D01*
X132400000Y-58000000D02*
X132400000Y-62000000D01*
X140736936Y-68553000D02*
X141191064Y-68553000D01*
X140736936Y-67083000D02*
X141191064Y-67083000D01*
X157326748Y-65735000D02*
X157849252Y-65735000D01*
X157326748Y-64265000D02*
X157849252Y-64265000D01*
X150485000Y-73406000D02*
X150485000Y-75356000D01*
X141615000Y-73406000D02*
X141615000Y-76856000D01*
X150485000Y-73406000D02*
X150485000Y-71456000D01*
X141615000Y-73406000D02*
X141615000Y-71456000D01*
X129860000Y-76499500D02*
X129860000Y-73839500D01*
X128590000Y-76499500D02*
X127260000Y-76499500D01*
X129860000Y-76499500D02*
X135000000Y-76499500D01*
X129860000Y-73839500D02*
X135000000Y-73839500D01*
X127260000Y-76499500D02*
X127260000Y-75169500D01*
X135000000Y-76499500D02*
X135000000Y-73839500D01*
X127265000Y-60227064D02*
X127265000Y-59772936D01*
X128735000Y-60227064D02*
X128735000Y-59772936D01*
X146691064Y-68553000D02*
X146236936Y-68553000D01*
X146691064Y-67083000D02*
X146236936Y-67083000D01*
X153022936Y-75211000D02*
X153477064Y-75211000D01*
X153022936Y-76681000D02*
X153477064Y-76681000D01*
X153022936Y-74395000D02*
X153477064Y-74395000D01*
X153022936Y-72925000D02*
X153477064Y-72925000D01*
X156326748Y-59735000D02*
X156849252Y-59735000D01*
X156326748Y-58265000D02*
X156849252Y-58265000D01*
X143326748Y-64265000D02*
X143849252Y-64265000D01*
X143326748Y-65735000D02*
X143849252Y-65735000D01*
X127726000Y-62630000D02*
X133736000Y-62630000D01*
X133736000Y-62630000D02*
X133736000Y-63890000D01*
X133736000Y-69450000D02*
X133736000Y-68190000D01*
X129976000Y-69450000D02*
X133736000Y-69450000D01*
X162560000Y-62000000D02*
X162560000Y-62650000D01*
X162560000Y-62000000D02*
X162560000Y-61350000D01*
X159440000Y-62000000D02*
X159440000Y-61350000D01*
X159440000Y-62000000D02*
X159440000Y-63675000D01*
X159738748Y-59735000D02*
X160261252Y-59735000D01*
X159738748Y-58265000D02*
X160261252Y-58265000D01*
X142238748Y-59735000D02*
X142761252Y-59735000D01*
X142238748Y-58265000D02*
X142761252Y-58265000D01*
X165950000Y-63230000D02*
X165950000Y-63290000D01*
X163290000Y-61960000D02*
X163290000Y-60630000D01*
X163290000Y-63230000D02*
X163290000Y-63290000D01*
X163290000Y-63290000D02*
X165950000Y-63290000D01*
X163290000Y-63230000D02*
X165950000Y-63230000D01*
X163290000Y-60630000D02*
X164620000Y-60630000D01*
X129876936Y-70893000D02*
X130331064Y-70893000D01*
X129876936Y-72363000D02*
X130331064Y-72363000D01*
X148560000Y-62000000D02*
X148560000Y-61350000D01*
X145440000Y-62000000D02*
X145440000Y-63675000D01*
X145440000Y-62000000D02*
X145440000Y-61350000D01*
X148560000Y-62000000D02*
X148560000Y-62650000D01*
M02*
