M48
; DRILL file {KiCad 5.99.0-unknown-50e22de3ba~95~ubuntu20.04.1} date Wed Jan 20 19:32:30 2021
; FORMAT={2:4/ absolute / inch / suppress leading zeros}
; #@! TF.CreationDate,2021-01-20T19:32:30+09:00
; #@! TF.GenerationSoftware,Kicad,Pcbnew,5.99.0-unknown-50e22de3ba~95~ubuntu20.04.1
; #@! TF.FileFunction,Plated,1,2,PTH
FMAT,2
INCH,TZ
T1C0.0157
T2C0.0394
T3C0.0551
T4C0.0787
%
G90
G05
T1
X50098Y-27756
X50189Y-24491
X51304Y-26204
X51378Y-27461
X52165Y-26138
X52252Y-28946
X53937Y-25886
X54232Y-24508
X54626Y-26772
X55118Y-27559
X56837Y-28566
X58661Y-26378
X59200Y-28565
X59449Y-29724
X60500Y-26400
X60925Y-29823
X61909Y-29429
X62106Y-27559
X62303Y-30315
T2
X50591Y-29626
X51591Y-29626
X52591Y-29626
X54400Y-29331
X64811Y-23294
X64811Y-24394
T3
X64803Y-27815
T4
X64606Y-29557
T0
M30
