%FSLAX45Y45*%
G04 Gerber Fmt 4.5, Leading zero omitted, Abs format (unit mm)*
G04 Created by KiCad (PCBNEW 5.99.0-unknown-50e22de3ba~95~ubuntu20.04.1) date 2021-01-20 19:32:31*
%MOMM*%
%LPD*%
G01*
G04 APERTURE LIST*
%TA.AperFunction,Profile*%
%ADD10C,0.100000*%
%TD*%
%ADD11C,0.200000*%
%ADD12C,0.040000*%
%ADD13C,0.100000*%
%ADD14C,0.140000*%
G04 APERTURE END LIST*
D10*
X16534700Y-7797000D02*
G75*
G03*
X16684700Y-7647000I0J150000D01*
G01*
X16534700Y-7797000D02*
X12773800Y-7797800D01*
X16684700Y-5865000D02*
X16684700Y-7647000D01*
X16684700Y-5865000D02*
G75*
G03*
X16534700Y-5715000I-150000J0D01*
G01*
X12623800Y-7647800D02*
G75*
G03*
X12773800Y-7797800I150000J0D01*
G01*
X12773800Y-5715800D02*
X16534700Y-5715000D01*
X12623800Y-7647800D02*
X12623800Y-5865800D01*
X12773800Y-5715800D02*
G75*
G03*
X12623800Y-5865800I0J-150000D01*
G01*
D11*
D12*
X12705000Y-7030000D02*
X12745000Y-7070000D01*
X12745000Y-7030000D02*
X12705000Y-7070000D01*
X12728100Y-6200800D02*
X12768100Y-6240800D01*
X12768100Y-6200800D02*
X12728100Y-6240800D01*
X13011300Y-6635940D02*
X13051300Y-6675940D01*
X13051300Y-6635940D02*
X13011300Y-6675940D01*
X13030000Y-6955000D02*
X13070000Y-6995000D01*
X13070000Y-6955000D02*
X13030000Y-6995000D01*
X13230000Y-6619020D02*
X13270000Y-6659020D01*
X13270000Y-6619020D02*
X13230000Y-6659020D01*
X13252000Y-7332210D02*
X13292000Y-7372210D01*
X13292000Y-7332210D02*
X13252000Y-7372210D01*
X13680000Y-6555000D02*
X13720000Y-6595000D01*
X13720000Y-6555000D02*
X13680000Y-6595000D01*
X13755000Y-6205000D02*
X13795000Y-6245000D01*
X13795000Y-6205000D02*
X13755000Y-6245000D01*
X13855000Y-6780000D02*
X13895000Y-6820000D01*
X13895000Y-6780000D02*
X13855000Y-6820000D01*
X13980000Y-6980000D02*
X14020000Y-7020000D01*
X14020000Y-6980000D02*
X13980000Y-7020000D01*
X14416500Y-7235780D02*
X14456500Y-7275780D01*
X14456500Y-7235780D02*
X14416500Y-7275780D01*
X14880000Y-6680000D02*
X14920000Y-6720000D01*
X14920000Y-6680000D02*
X14880000Y-6720000D01*
X15016800Y-7235580D02*
X15056800Y-7275580D01*
X15056800Y-7235580D02*
X15016800Y-7275580D01*
X15080000Y-7530000D02*
X15120000Y-7570000D01*
X15120000Y-7530000D02*
X15080000Y-7570000D01*
X15347000Y-6685600D02*
X15387000Y-6725600D01*
X15387000Y-6685600D02*
X15347000Y-6725600D01*
X15455000Y-7555000D02*
X15495000Y-7595000D01*
X15495000Y-7555000D02*
X15455000Y-7595000D01*
X15705000Y-7455000D02*
X15745000Y-7495000D01*
X15745000Y-7455000D02*
X15705000Y-7495000D01*
X15755000Y-6980000D02*
X15795000Y-7020000D01*
X15795000Y-6980000D02*
X15755000Y-7020000D01*
X15805000Y-7680000D02*
X15845000Y-7720000D01*
X15845000Y-7680000D02*
X15805000Y-7720000D01*
D13*
X12900000Y-7525000D02*
G75*
G03*
X12900000Y-7525000I-50000J0D01*
G01*
X13154000Y-7525000D02*
G75*
G03*
X13154000Y-7525000I-50000J0D01*
G01*
X13408000Y-7525000D02*
G75*
G03*
X13408000Y-7525000I-50000J0D01*
G01*
X13867600Y-7450000D02*
G75*
G03*
X13867600Y-7450000I-50000J0D01*
G01*
X16512000Y-5916600D02*
G75*
G03*
X16512000Y-5916600I-50000J0D01*
G01*
X16512000Y-6196000D02*
G75*
G03*
X16512000Y-6196000I-50000J0D01*
G01*
D14*
X16460000Y-6995000D02*
X16460000Y-7135000D01*
X16390000Y-7065000D02*
X16530000Y-7065000D01*
D11*
X16480711Y-7578211D02*
X16480711Y-7436789D01*
X16339289Y-7436789D01*
X16339289Y-7578211D01*
X16480711Y-7578211D01*
X12876419Y-8113276D02*
X12876419Y-7913276D01*
X12924038Y-7913276D01*
X12952609Y-7922800D01*
X12971657Y-7941848D01*
X12981181Y-7960895D01*
X12990705Y-7998990D01*
X12990705Y-8027562D01*
X12981181Y-8065657D01*
X12971657Y-8084705D01*
X12952609Y-8103752D01*
X12924038Y-8113276D01*
X12876419Y-8113276D01*
X13076419Y-8113276D02*
X13076419Y-7979943D01*
X13076419Y-8018038D02*
X13085943Y-7998990D01*
X13095467Y-7989467D01*
X13114514Y-7979943D01*
X13133562Y-7979943D01*
X13200228Y-8113276D02*
X13200228Y-7979943D01*
X13200228Y-7913276D02*
X13190705Y-7922800D01*
X13200228Y-7932324D01*
X13209752Y-7922800D01*
X13200228Y-7913276D01*
X13200228Y-7932324D01*
X13324038Y-8113276D02*
X13304990Y-8103752D01*
X13295467Y-8084705D01*
X13295467Y-7913276D01*
X13428800Y-8113276D02*
X13409752Y-8103752D01*
X13400228Y-8084705D01*
X13400228Y-7913276D01*
X13657371Y-8113276D02*
X13657371Y-7913276D01*
X13724038Y-8056133D01*
X13790705Y-7913276D01*
X13790705Y-8113276D01*
X13971657Y-8113276D02*
X13971657Y-8008514D01*
X13962133Y-7989467D01*
X13943086Y-7979943D01*
X13904990Y-7979943D01*
X13885943Y-7989467D01*
X13971657Y-8103752D02*
X13952609Y-8113276D01*
X13904990Y-8113276D01*
X13885943Y-8103752D01*
X13876419Y-8084705D01*
X13876419Y-8065657D01*
X13885943Y-8046609D01*
X13904990Y-8037086D01*
X13952609Y-8037086D01*
X13971657Y-8027562D01*
X14066895Y-7979943D02*
X14066895Y-8179943D01*
X14066895Y-7989467D02*
X14085943Y-7979943D01*
X14124038Y-7979943D01*
X14143086Y-7989467D01*
X14152609Y-7998990D01*
X14162133Y-8018038D01*
X14162133Y-8075181D01*
X14152609Y-8094228D01*
X14143086Y-8103752D01*
X14124038Y-8113276D01*
X14085943Y-8113276D01*
X14066895Y-8103752D01*
X14247848Y-8094228D02*
X14257371Y-8103752D01*
X14247848Y-8113276D01*
X14238324Y-8103752D01*
X14247848Y-8094228D01*
X14247848Y-8113276D01*
X14247848Y-7989467D02*
X14257371Y-7998990D01*
X14247848Y-8008514D01*
X14238324Y-7998990D01*
X14247848Y-7989467D01*
X14247848Y-8008514D01*
D12*
X12578800Y-8422800D02*
X12618800Y-8462800D01*
X12618800Y-8422800D02*
X12578800Y-8462800D01*
D11*
X12914514Y-8333276D02*
X12933562Y-8333276D01*
X12952609Y-8342800D01*
X12962133Y-8352324D01*
X12971657Y-8371371D01*
X12981181Y-8409467D01*
X12981181Y-8457086D01*
X12971657Y-8495181D01*
X12962133Y-8514229D01*
X12952609Y-8523752D01*
X12933562Y-8533276D01*
X12914514Y-8533276D01*
X12895467Y-8523752D01*
X12885943Y-8514229D01*
X12876419Y-8495181D01*
X12866895Y-8457086D01*
X12866895Y-8409467D01*
X12876419Y-8371371D01*
X12885943Y-8352324D01*
X12895467Y-8342800D01*
X12914514Y-8333276D01*
X13066895Y-8514229D02*
X13076419Y-8523752D01*
X13066895Y-8533276D01*
X13057371Y-8523752D01*
X13066895Y-8514229D01*
X13066895Y-8533276D01*
X13247848Y-8399943D02*
X13247848Y-8533276D01*
X13200228Y-8323752D02*
X13152609Y-8466610D01*
X13276419Y-8466610D01*
X13390705Y-8333276D02*
X13409752Y-8333276D01*
X13428800Y-8342800D01*
X13438324Y-8352324D01*
X13447848Y-8371371D01*
X13457371Y-8409467D01*
X13457371Y-8457086D01*
X13447848Y-8495181D01*
X13438324Y-8514229D01*
X13428800Y-8523752D01*
X13409752Y-8533276D01*
X13390705Y-8533276D01*
X13371657Y-8523752D01*
X13362133Y-8514229D01*
X13352609Y-8495181D01*
X13343086Y-8457086D01*
X13343086Y-8409467D01*
X13352609Y-8371371D01*
X13362133Y-8352324D01*
X13371657Y-8342800D01*
X13390705Y-8333276D01*
X13581181Y-8333276D02*
X13600228Y-8333276D01*
X13619276Y-8342800D01*
X13628800Y-8352324D01*
X13638324Y-8371371D01*
X13647848Y-8409467D01*
X13647848Y-8457086D01*
X13638324Y-8495181D01*
X13628800Y-8514229D01*
X13619276Y-8523752D01*
X13600228Y-8533276D01*
X13581181Y-8533276D01*
X13562133Y-8523752D01*
X13552609Y-8514229D01*
X13543086Y-8495181D01*
X13533562Y-8457086D01*
X13533562Y-8409467D01*
X13543086Y-8371371D01*
X13552609Y-8352324D01*
X13562133Y-8342800D01*
X13581181Y-8333276D01*
X13733562Y-8533276D02*
X13733562Y-8399943D01*
X13733562Y-8418990D02*
X13743086Y-8409467D01*
X13762133Y-8399943D01*
X13790705Y-8399943D01*
X13809752Y-8409467D01*
X13819276Y-8428514D01*
X13819276Y-8533276D01*
X13819276Y-8428514D02*
X13828800Y-8409467D01*
X13847848Y-8399943D01*
X13876419Y-8399943D01*
X13895467Y-8409467D01*
X13904990Y-8428514D01*
X13904990Y-8533276D01*
X14000228Y-8533276D02*
X14000228Y-8399943D01*
X14000228Y-8418990D02*
X14009752Y-8409467D01*
X14028800Y-8399943D01*
X14057371Y-8399943D01*
X14076419Y-8409467D01*
X14085943Y-8428514D01*
X14085943Y-8533276D01*
X14085943Y-8428514D02*
X14095467Y-8409467D01*
X14114514Y-8399943D01*
X14143086Y-8399943D01*
X14162133Y-8409467D01*
X14171657Y-8428514D01*
X14171657Y-8533276D01*
X14562133Y-8323752D02*
X14390705Y-8580895D01*
X14819276Y-8333276D02*
X14838324Y-8333276D01*
X14857371Y-8342800D01*
X14866895Y-8352324D01*
X14876419Y-8371371D01*
X14885943Y-8409467D01*
X14885943Y-8457086D01*
X14876419Y-8495181D01*
X14866895Y-8514229D01*
X14857371Y-8523752D01*
X14838324Y-8533276D01*
X14819276Y-8533276D01*
X14800228Y-8523752D01*
X14790705Y-8514229D01*
X14781181Y-8495181D01*
X14771657Y-8457086D01*
X14771657Y-8409467D01*
X14781181Y-8371371D01*
X14790705Y-8352324D01*
X14800228Y-8342800D01*
X14819276Y-8333276D01*
X14971657Y-8514229D02*
X14981181Y-8523752D01*
X14971657Y-8533276D01*
X14962133Y-8523752D01*
X14971657Y-8514229D01*
X14971657Y-8533276D01*
X15104990Y-8333276D02*
X15124038Y-8333276D01*
X15143086Y-8342800D01*
X15152609Y-8352324D01*
X15162133Y-8371371D01*
X15171657Y-8409467D01*
X15171657Y-8457086D01*
X15162133Y-8495181D01*
X15152609Y-8514229D01*
X15143086Y-8523752D01*
X15124038Y-8533276D01*
X15104990Y-8533276D01*
X15085943Y-8523752D01*
X15076419Y-8514229D01*
X15066895Y-8495181D01*
X15057371Y-8457086D01*
X15057371Y-8409467D01*
X15066895Y-8371371D01*
X15076419Y-8352324D01*
X15085943Y-8342800D01*
X15104990Y-8333276D01*
X15362133Y-8533276D02*
X15247848Y-8533276D01*
X15304990Y-8533276D02*
X15304990Y-8333276D01*
X15285943Y-8361848D01*
X15266895Y-8380895D01*
X15247848Y-8390419D01*
X15543086Y-8333276D02*
X15447848Y-8333276D01*
X15438324Y-8428514D01*
X15447848Y-8418990D01*
X15466895Y-8409467D01*
X15514514Y-8409467D01*
X15533562Y-8418990D01*
X15543086Y-8428514D01*
X15552609Y-8447562D01*
X15552609Y-8495181D01*
X15543086Y-8514229D01*
X15533562Y-8523752D01*
X15514514Y-8533276D01*
X15466895Y-8533276D01*
X15447848Y-8523752D01*
X15438324Y-8514229D01*
X15619276Y-8333276D02*
X15752609Y-8333276D01*
X15666895Y-8533276D01*
X15819276Y-8333276D02*
X15819276Y-8371371D01*
X15895467Y-8333276D02*
X15895467Y-8371371D01*
X16190705Y-8609467D02*
X16181181Y-8599943D01*
X16162133Y-8571371D01*
X16152609Y-8552324D01*
X16143086Y-8523752D01*
X16133562Y-8476133D01*
X16133562Y-8438038D01*
X16143086Y-8390419D01*
X16152609Y-8361848D01*
X16162133Y-8342800D01*
X16181181Y-8314228D01*
X16190705Y-8304705D01*
X16371657Y-8533276D02*
X16257371Y-8533276D01*
X16314514Y-8533276D02*
X16314514Y-8333276D01*
X16295467Y-8361848D01*
X16276419Y-8380895D01*
X16257371Y-8390419D01*
X16466895Y-8533276D02*
X16504990Y-8533276D01*
X16524038Y-8523752D01*
X16533562Y-8514229D01*
X16552609Y-8485657D01*
X16562133Y-8447562D01*
X16562133Y-8371371D01*
X16552609Y-8352324D01*
X16543086Y-8342800D01*
X16524038Y-8333276D01*
X16485943Y-8333276D01*
X16466895Y-8342800D01*
X16457371Y-8352324D01*
X16447848Y-8371371D01*
X16447848Y-8418990D01*
X16457371Y-8438038D01*
X16466895Y-8447562D01*
X16485943Y-8457086D01*
X16524038Y-8457086D01*
X16543086Y-8447562D01*
X16552609Y-8438038D01*
X16562133Y-8418990D01*
X16800229Y-8533276D02*
X16800229Y-8333276D01*
X16885943Y-8533276D02*
X16885943Y-8428514D01*
X16876419Y-8409467D01*
X16857371Y-8399943D01*
X16828800Y-8399943D01*
X16809752Y-8409467D01*
X16800229Y-8418990D01*
X17009752Y-8533276D02*
X16990705Y-8523752D01*
X16981181Y-8514229D01*
X16971657Y-8495181D01*
X16971657Y-8438038D01*
X16981181Y-8418990D01*
X16990705Y-8409467D01*
X17009752Y-8399943D01*
X17038324Y-8399943D01*
X17057371Y-8409467D01*
X17066895Y-8418990D01*
X17076419Y-8438038D01*
X17076419Y-8495181D01*
X17066895Y-8514229D01*
X17057371Y-8523752D01*
X17038324Y-8533276D01*
X17009752Y-8533276D01*
X17190705Y-8533276D02*
X17171657Y-8523752D01*
X17162133Y-8504705D01*
X17162133Y-8333276D01*
X17343086Y-8523752D02*
X17324038Y-8533276D01*
X17285943Y-8533276D01*
X17266895Y-8523752D01*
X17257371Y-8504705D01*
X17257371Y-8428514D01*
X17266895Y-8409467D01*
X17285943Y-8399943D01*
X17324038Y-8399943D01*
X17343086Y-8409467D01*
X17352610Y-8428514D01*
X17352610Y-8447562D01*
X17257371Y-8466610D01*
X17428800Y-8523752D02*
X17447848Y-8533276D01*
X17485943Y-8533276D01*
X17504990Y-8523752D01*
X17514514Y-8504705D01*
X17514514Y-8495181D01*
X17504990Y-8476133D01*
X17485943Y-8466610D01*
X17457371Y-8466610D01*
X17438324Y-8457086D01*
X17428800Y-8438038D01*
X17428800Y-8428514D01*
X17438324Y-8409467D01*
X17457371Y-8399943D01*
X17485943Y-8399943D01*
X17504990Y-8409467D01*
X17581181Y-8609467D02*
X17590705Y-8599943D01*
X17609752Y-8571371D01*
X17619276Y-8552324D01*
X17628800Y-8523752D01*
X17638324Y-8476133D01*
X17638324Y-8438038D01*
X17628800Y-8390419D01*
X17619276Y-8361848D01*
X17609752Y-8342800D01*
X17590705Y-8314228D01*
X17581181Y-8304705D01*
D13*
X12618800Y-8706800D02*
G75*
G03*
X12618800Y-8706800I-50000J0D01*
G01*
D11*
X12981181Y-8797276D02*
X12866895Y-8797276D01*
X12924038Y-8797276D02*
X12924038Y-8597276D01*
X12904990Y-8625848D01*
X12885943Y-8644895D01*
X12866895Y-8654419D01*
X13066895Y-8778229D02*
X13076419Y-8787752D01*
X13066895Y-8797276D01*
X13057371Y-8787752D01*
X13066895Y-8778229D01*
X13066895Y-8797276D01*
X13200228Y-8597276D02*
X13219276Y-8597276D01*
X13238324Y-8606800D01*
X13247848Y-8616324D01*
X13257371Y-8635371D01*
X13266895Y-8673467D01*
X13266895Y-8721086D01*
X13257371Y-8759181D01*
X13247848Y-8778229D01*
X13238324Y-8787752D01*
X13219276Y-8797276D01*
X13200228Y-8797276D01*
X13181181Y-8787752D01*
X13171657Y-8778229D01*
X13162133Y-8759181D01*
X13152609Y-8721086D01*
X13152609Y-8673467D01*
X13162133Y-8635371D01*
X13171657Y-8616324D01*
X13181181Y-8606800D01*
X13200228Y-8597276D01*
X13390705Y-8597276D02*
X13409752Y-8597276D01*
X13428800Y-8606800D01*
X13438324Y-8616324D01*
X13447848Y-8635371D01*
X13457371Y-8673467D01*
X13457371Y-8721086D01*
X13447848Y-8759181D01*
X13438324Y-8778229D01*
X13428800Y-8787752D01*
X13409752Y-8797276D01*
X13390705Y-8797276D01*
X13371657Y-8787752D01*
X13362133Y-8778229D01*
X13352609Y-8759181D01*
X13343086Y-8721086D01*
X13343086Y-8673467D01*
X13352609Y-8635371D01*
X13362133Y-8616324D01*
X13371657Y-8606800D01*
X13390705Y-8597276D01*
X13581181Y-8597276D02*
X13600228Y-8597276D01*
X13619276Y-8606800D01*
X13628800Y-8616324D01*
X13638324Y-8635371D01*
X13647848Y-8673467D01*
X13647848Y-8721086D01*
X13638324Y-8759181D01*
X13628800Y-8778229D01*
X13619276Y-8787752D01*
X13600228Y-8797276D01*
X13581181Y-8797276D01*
X13562133Y-8787752D01*
X13552609Y-8778229D01*
X13543086Y-8759181D01*
X13533562Y-8721086D01*
X13533562Y-8673467D01*
X13543086Y-8635371D01*
X13552609Y-8616324D01*
X13562133Y-8606800D01*
X13581181Y-8597276D01*
X13733562Y-8797276D02*
X13733562Y-8663943D01*
X13733562Y-8682990D02*
X13743086Y-8673467D01*
X13762133Y-8663943D01*
X13790705Y-8663943D01*
X13809752Y-8673467D01*
X13819276Y-8692514D01*
X13819276Y-8797276D01*
X13819276Y-8692514D02*
X13828800Y-8673467D01*
X13847848Y-8663943D01*
X13876419Y-8663943D01*
X13895467Y-8673467D01*
X13904990Y-8692514D01*
X13904990Y-8797276D01*
X14000228Y-8797276D02*
X14000228Y-8663943D01*
X14000228Y-8682990D02*
X14009752Y-8673467D01*
X14028800Y-8663943D01*
X14057371Y-8663943D01*
X14076419Y-8673467D01*
X14085943Y-8692514D01*
X14085943Y-8797276D01*
X14085943Y-8692514D02*
X14095467Y-8673467D01*
X14114514Y-8663943D01*
X14143086Y-8663943D01*
X14162133Y-8673467D01*
X14171657Y-8692514D01*
X14171657Y-8797276D01*
X14562133Y-8587752D02*
X14390705Y-8844895D01*
X14819276Y-8597276D02*
X14838324Y-8597276D01*
X14857371Y-8606800D01*
X14866895Y-8616324D01*
X14876419Y-8635371D01*
X14885943Y-8673467D01*
X14885943Y-8721086D01*
X14876419Y-8759181D01*
X14866895Y-8778229D01*
X14857371Y-8787752D01*
X14838324Y-8797276D01*
X14819276Y-8797276D01*
X14800228Y-8787752D01*
X14790705Y-8778229D01*
X14781181Y-8759181D01*
X14771657Y-8721086D01*
X14771657Y-8673467D01*
X14781181Y-8635371D01*
X14790705Y-8616324D01*
X14800228Y-8606800D01*
X14819276Y-8597276D01*
X14971657Y-8778229D02*
X14981181Y-8787752D01*
X14971657Y-8797276D01*
X14962133Y-8787752D01*
X14971657Y-8778229D01*
X14971657Y-8797276D01*
X15104990Y-8597276D02*
X15124038Y-8597276D01*
X15143086Y-8606800D01*
X15152609Y-8616324D01*
X15162133Y-8635371D01*
X15171657Y-8673467D01*
X15171657Y-8721086D01*
X15162133Y-8759181D01*
X15152609Y-8778229D01*
X15143086Y-8787752D01*
X15124038Y-8797276D01*
X15104990Y-8797276D01*
X15085943Y-8787752D01*
X15076419Y-8778229D01*
X15066895Y-8759181D01*
X15057371Y-8721086D01*
X15057371Y-8673467D01*
X15066895Y-8635371D01*
X15076419Y-8616324D01*
X15085943Y-8606800D01*
X15104990Y-8597276D01*
X15238324Y-8597276D02*
X15362133Y-8597276D01*
X15295467Y-8673467D01*
X15324038Y-8673467D01*
X15343086Y-8682990D01*
X15352609Y-8692514D01*
X15362133Y-8711562D01*
X15362133Y-8759181D01*
X15352609Y-8778229D01*
X15343086Y-8787752D01*
X15324038Y-8797276D01*
X15266895Y-8797276D01*
X15247848Y-8787752D01*
X15238324Y-8778229D01*
X15457371Y-8797276D02*
X15495467Y-8797276D01*
X15514514Y-8787752D01*
X15524038Y-8778229D01*
X15543086Y-8749657D01*
X15552609Y-8711562D01*
X15552609Y-8635371D01*
X15543086Y-8616324D01*
X15533562Y-8606800D01*
X15514514Y-8597276D01*
X15476419Y-8597276D01*
X15457371Y-8606800D01*
X15447848Y-8616324D01*
X15438324Y-8635371D01*
X15438324Y-8682990D01*
X15447848Y-8702038D01*
X15457371Y-8711562D01*
X15476419Y-8721086D01*
X15514514Y-8721086D01*
X15533562Y-8711562D01*
X15543086Y-8702038D01*
X15552609Y-8682990D01*
X15724038Y-8663943D02*
X15724038Y-8797276D01*
X15676419Y-8587752D02*
X15628800Y-8730610D01*
X15752609Y-8730610D01*
X15819276Y-8597276D02*
X15819276Y-8635371D01*
X15895467Y-8597276D02*
X15895467Y-8635371D01*
X16190705Y-8873467D02*
X16181181Y-8863943D01*
X16162133Y-8835371D01*
X16152609Y-8816324D01*
X16143086Y-8787752D01*
X16133562Y-8740133D01*
X16133562Y-8702038D01*
X16143086Y-8654419D01*
X16152609Y-8625848D01*
X16162133Y-8606800D01*
X16181181Y-8578229D01*
X16190705Y-8568705D01*
X16352609Y-8597276D02*
X16314514Y-8597276D01*
X16295467Y-8606800D01*
X16285943Y-8616324D01*
X16266895Y-8644895D01*
X16257371Y-8682990D01*
X16257371Y-8759181D01*
X16266895Y-8778229D01*
X16276419Y-8787752D01*
X16295467Y-8797276D01*
X16333562Y-8797276D01*
X16352609Y-8787752D01*
X16362133Y-8778229D01*
X16371657Y-8759181D01*
X16371657Y-8711562D01*
X16362133Y-8692514D01*
X16352609Y-8682990D01*
X16333562Y-8673467D01*
X16295467Y-8673467D01*
X16276419Y-8682990D01*
X16266895Y-8692514D01*
X16257371Y-8711562D01*
X16609752Y-8797276D02*
X16609752Y-8597276D01*
X16695467Y-8797276D02*
X16695467Y-8692514D01*
X16685943Y-8673467D01*
X16666895Y-8663943D01*
X16638324Y-8663943D01*
X16619276Y-8673467D01*
X16609752Y-8682990D01*
X16819276Y-8797276D02*
X16800229Y-8787752D01*
X16790705Y-8778229D01*
X16781181Y-8759181D01*
X16781181Y-8702038D01*
X16790705Y-8682990D01*
X16800229Y-8673467D01*
X16819276Y-8663943D01*
X16847848Y-8663943D01*
X16866895Y-8673467D01*
X16876419Y-8682990D01*
X16885943Y-8702038D01*
X16885943Y-8759181D01*
X16876419Y-8778229D01*
X16866895Y-8787752D01*
X16847848Y-8797276D01*
X16819276Y-8797276D01*
X17000229Y-8797276D02*
X16981181Y-8787752D01*
X16971657Y-8768705D01*
X16971657Y-8597276D01*
X17152610Y-8787752D02*
X17133562Y-8797276D01*
X17095467Y-8797276D01*
X17076419Y-8787752D01*
X17066895Y-8768705D01*
X17066895Y-8692514D01*
X17076419Y-8673467D01*
X17095467Y-8663943D01*
X17133562Y-8663943D01*
X17152610Y-8673467D01*
X17162133Y-8692514D01*
X17162133Y-8711562D01*
X17066895Y-8730610D01*
X17238324Y-8787752D02*
X17257371Y-8797276D01*
X17295467Y-8797276D01*
X17314514Y-8787752D01*
X17324038Y-8768705D01*
X17324038Y-8759181D01*
X17314514Y-8740133D01*
X17295467Y-8730610D01*
X17266895Y-8730610D01*
X17247848Y-8721086D01*
X17238324Y-8702038D01*
X17238324Y-8692514D01*
X17247848Y-8673467D01*
X17266895Y-8663943D01*
X17295467Y-8663943D01*
X17314514Y-8673467D01*
X17390705Y-8873467D02*
X17400229Y-8863943D01*
X17419276Y-8835371D01*
X17428800Y-8816324D01*
X17438324Y-8787752D01*
X17447848Y-8740133D01*
X17447848Y-8702038D01*
X17438324Y-8654419D01*
X17428800Y-8625848D01*
X17419276Y-8606800D01*
X17400229Y-8578229D01*
X17390705Y-8568705D01*
D14*
X12548800Y-8900800D02*
X12548800Y-9040800D01*
X12478800Y-8970800D02*
X12618800Y-8970800D01*
D11*
X12981181Y-9061276D02*
X12866895Y-9061276D01*
X12924038Y-9061276D02*
X12924038Y-8861276D01*
X12904990Y-8889848D01*
X12885943Y-8908895D01*
X12866895Y-8918419D01*
X13066895Y-9042229D02*
X13076419Y-9051752D01*
X13066895Y-9061276D01*
X13057371Y-9051752D01*
X13066895Y-9042229D01*
X13066895Y-9061276D01*
X13247848Y-8927943D02*
X13247848Y-9061276D01*
X13200228Y-8851752D02*
X13152609Y-8994610D01*
X13276419Y-8994610D01*
X13390705Y-8861276D02*
X13409752Y-8861276D01*
X13428800Y-8870800D01*
X13438324Y-8880324D01*
X13447848Y-8899371D01*
X13457371Y-8937467D01*
X13457371Y-8985086D01*
X13447848Y-9023181D01*
X13438324Y-9042229D01*
X13428800Y-9051752D01*
X13409752Y-9061276D01*
X13390705Y-9061276D01*
X13371657Y-9051752D01*
X13362133Y-9042229D01*
X13352609Y-9023181D01*
X13343086Y-8985086D01*
X13343086Y-8937467D01*
X13352609Y-8899371D01*
X13362133Y-8880324D01*
X13371657Y-8870800D01*
X13390705Y-8861276D01*
X13581181Y-8861276D02*
X13600228Y-8861276D01*
X13619276Y-8870800D01*
X13628800Y-8880324D01*
X13638324Y-8899371D01*
X13647848Y-8937467D01*
X13647848Y-8985086D01*
X13638324Y-9023181D01*
X13628800Y-9042229D01*
X13619276Y-9051752D01*
X13600228Y-9061276D01*
X13581181Y-9061276D01*
X13562133Y-9051752D01*
X13552609Y-9042229D01*
X13543086Y-9023181D01*
X13533562Y-8985086D01*
X13533562Y-8937467D01*
X13543086Y-8899371D01*
X13552609Y-8880324D01*
X13562133Y-8870800D01*
X13581181Y-8861276D01*
X13733562Y-9061276D02*
X13733562Y-8927943D01*
X13733562Y-8946990D02*
X13743086Y-8937467D01*
X13762133Y-8927943D01*
X13790705Y-8927943D01*
X13809752Y-8937467D01*
X13819276Y-8956514D01*
X13819276Y-9061276D01*
X13819276Y-8956514D02*
X13828800Y-8937467D01*
X13847848Y-8927943D01*
X13876419Y-8927943D01*
X13895467Y-8937467D01*
X13904990Y-8956514D01*
X13904990Y-9061276D01*
X14000228Y-9061276D02*
X14000228Y-8927943D01*
X14000228Y-8946990D02*
X14009752Y-8937467D01*
X14028800Y-8927943D01*
X14057371Y-8927943D01*
X14076419Y-8937467D01*
X14085943Y-8956514D01*
X14085943Y-9061276D01*
X14085943Y-8956514D02*
X14095467Y-8937467D01*
X14114514Y-8927943D01*
X14143086Y-8927943D01*
X14162133Y-8937467D01*
X14171657Y-8956514D01*
X14171657Y-9061276D01*
X14562133Y-8851752D02*
X14390705Y-9108895D01*
X14819276Y-8861276D02*
X14838324Y-8861276D01*
X14857371Y-8870800D01*
X14866895Y-8880324D01*
X14876419Y-8899371D01*
X14885943Y-8937467D01*
X14885943Y-8985086D01*
X14876419Y-9023181D01*
X14866895Y-9042229D01*
X14857371Y-9051752D01*
X14838324Y-9061276D01*
X14819276Y-9061276D01*
X14800228Y-9051752D01*
X14790705Y-9042229D01*
X14781181Y-9023181D01*
X14771657Y-8985086D01*
X14771657Y-8937467D01*
X14781181Y-8899371D01*
X14790705Y-8880324D01*
X14800228Y-8870800D01*
X14819276Y-8861276D01*
X14971657Y-9042229D02*
X14981181Y-9051752D01*
X14971657Y-9061276D01*
X14962133Y-9051752D01*
X14971657Y-9042229D01*
X14971657Y-9061276D01*
X15104990Y-8861276D02*
X15124038Y-8861276D01*
X15143086Y-8870800D01*
X15152609Y-8880324D01*
X15162133Y-8899371D01*
X15171657Y-8937467D01*
X15171657Y-8985086D01*
X15162133Y-9023181D01*
X15152609Y-9042229D01*
X15143086Y-9051752D01*
X15124038Y-9061276D01*
X15104990Y-9061276D01*
X15085943Y-9051752D01*
X15076419Y-9042229D01*
X15066895Y-9023181D01*
X15057371Y-8985086D01*
X15057371Y-8937467D01*
X15066895Y-8899371D01*
X15076419Y-8880324D01*
X15085943Y-8870800D01*
X15104990Y-8861276D01*
X15352609Y-8861276D02*
X15257371Y-8861276D01*
X15247848Y-8956514D01*
X15257371Y-8946990D01*
X15276419Y-8937467D01*
X15324038Y-8937467D01*
X15343086Y-8946990D01*
X15352609Y-8956514D01*
X15362133Y-8975562D01*
X15362133Y-9023181D01*
X15352609Y-9042229D01*
X15343086Y-9051752D01*
X15324038Y-9061276D01*
X15276419Y-9061276D01*
X15257371Y-9051752D01*
X15247848Y-9042229D01*
X15543086Y-8861276D02*
X15447848Y-8861276D01*
X15438324Y-8956514D01*
X15447848Y-8946990D01*
X15466895Y-8937467D01*
X15514514Y-8937467D01*
X15533562Y-8946990D01*
X15543086Y-8956514D01*
X15552609Y-8975562D01*
X15552609Y-9023181D01*
X15543086Y-9042229D01*
X15533562Y-9051752D01*
X15514514Y-9061276D01*
X15466895Y-9061276D01*
X15447848Y-9051752D01*
X15438324Y-9042229D01*
X15743086Y-9061276D02*
X15628800Y-9061276D01*
X15685943Y-9061276D02*
X15685943Y-8861276D01*
X15666895Y-8889848D01*
X15647848Y-8908895D01*
X15628800Y-8918419D01*
X15819276Y-8861276D02*
X15819276Y-8899371D01*
X15895467Y-8861276D02*
X15895467Y-8899371D01*
X16190705Y-9137467D02*
X16181181Y-9127943D01*
X16162133Y-9099371D01*
X16152609Y-9080324D01*
X16143086Y-9051752D01*
X16133562Y-9004133D01*
X16133562Y-8966038D01*
X16143086Y-8918419D01*
X16152609Y-8889848D01*
X16162133Y-8870800D01*
X16181181Y-8842229D01*
X16190705Y-8832705D01*
X16371657Y-9061276D02*
X16257371Y-9061276D01*
X16314514Y-9061276D02*
X16314514Y-8861276D01*
X16295467Y-8889848D01*
X16276419Y-8908895D01*
X16257371Y-8918419D01*
X16609752Y-9061276D02*
X16609752Y-8861276D01*
X16695467Y-9061276D02*
X16695467Y-8956514D01*
X16685943Y-8937467D01*
X16666895Y-8927943D01*
X16638324Y-8927943D01*
X16619276Y-8937467D01*
X16609752Y-8946990D01*
X16819276Y-9061276D02*
X16800229Y-9051752D01*
X16790705Y-9042229D01*
X16781181Y-9023181D01*
X16781181Y-8966038D01*
X16790705Y-8946990D01*
X16800229Y-8937467D01*
X16819276Y-8927943D01*
X16847848Y-8927943D01*
X16866895Y-8937467D01*
X16876419Y-8946990D01*
X16885943Y-8966038D01*
X16885943Y-9023181D01*
X16876419Y-9042229D01*
X16866895Y-9051752D01*
X16847848Y-9061276D01*
X16819276Y-9061276D01*
X17000229Y-9061276D02*
X16981181Y-9051752D01*
X16971657Y-9032705D01*
X16971657Y-8861276D01*
X17152610Y-9051752D02*
X17133562Y-9061276D01*
X17095467Y-9061276D01*
X17076419Y-9051752D01*
X17066895Y-9032705D01*
X17066895Y-8956514D01*
X17076419Y-8937467D01*
X17095467Y-8927943D01*
X17133562Y-8927943D01*
X17152610Y-8937467D01*
X17162133Y-8956514D01*
X17162133Y-8975562D01*
X17066895Y-8994610D01*
X17228800Y-9137467D02*
X17238324Y-9127943D01*
X17257371Y-9099371D01*
X17266895Y-9080324D01*
X17276419Y-9051752D01*
X17285943Y-9004133D01*
X17285943Y-8966038D01*
X17276419Y-8918419D01*
X17266895Y-8889848D01*
X17257371Y-8870800D01*
X17238324Y-8842229D01*
X17228800Y-8832705D01*
X12589511Y-9305511D02*
X12589511Y-9164089D01*
X12448089Y-9164089D01*
X12448089Y-9305511D01*
X12589511Y-9305511D01*
X12866895Y-9144324D02*
X12876419Y-9134800D01*
X12895467Y-9125276D01*
X12943086Y-9125276D01*
X12962133Y-9134800D01*
X12971657Y-9144324D01*
X12981181Y-9163371D01*
X12981181Y-9182419D01*
X12971657Y-9210990D01*
X12857371Y-9325276D01*
X12981181Y-9325276D01*
X13066895Y-9306229D02*
X13076419Y-9315752D01*
X13066895Y-9325276D01*
X13057371Y-9315752D01*
X13066895Y-9306229D01*
X13066895Y-9325276D01*
X13200228Y-9125276D02*
X13219276Y-9125276D01*
X13238324Y-9134800D01*
X13247848Y-9144324D01*
X13257371Y-9163371D01*
X13266895Y-9201467D01*
X13266895Y-9249086D01*
X13257371Y-9287181D01*
X13247848Y-9306229D01*
X13238324Y-9315752D01*
X13219276Y-9325276D01*
X13200228Y-9325276D01*
X13181181Y-9315752D01*
X13171657Y-9306229D01*
X13162133Y-9287181D01*
X13152609Y-9249086D01*
X13152609Y-9201467D01*
X13162133Y-9163371D01*
X13171657Y-9144324D01*
X13181181Y-9134800D01*
X13200228Y-9125276D01*
X13390705Y-9125276D02*
X13409752Y-9125276D01*
X13428800Y-9134800D01*
X13438324Y-9144324D01*
X13447848Y-9163371D01*
X13457371Y-9201467D01*
X13457371Y-9249086D01*
X13447848Y-9287181D01*
X13438324Y-9306229D01*
X13428800Y-9315752D01*
X13409752Y-9325276D01*
X13390705Y-9325276D01*
X13371657Y-9315752D01*
X13362133Y-9306229D01*
X13352609Y-9287181D01*
X13343086Y-9249086D01*
X13343086Y-9201467D01*
X13352609Y-9163371D01*
X13362133Y-9144324D01*
X13371657Y-9134800D01*
X13390705Y-9125276D01*
X13581181Y-9125276D02*
X13600228Y-9125276D01*
X13619276Y-9134800D01*
X13628800Y-9144324D01*
X13638324Y-9163371D01*
X13647848Y-9201467D01*
X13647848Y-9249086D01*
X13638324Y-9287181D01*
X13628800Y-9306229D01*
X13619276Y-9315752D01*
X13600228Y-9325276D01*
X13581181Y-9325276D01*
X13562133Y-9315752D01*
X13552609Y-9306229D01*
X13543086Y-9287181D01*
X13533562Y-9249086D01*
X13533562Y-9201467D01*
X13543086Y-9163371D01*
X13552609Y-9144324D01*
X13562133Y-9134800D01*
X13581181Y-9125276D01*
X13733562Y-9325276D02*
X13733562Y-9191943D01*
X13733562Y-9210990D02*
X13743086Y-9201467D01*
X13762133Y-9191943D01*
X13790705Y-9191943D01*
X13809752Y-9201467D01*
X13819276Y-9220514D01*
X13819276Y-9325276D01*
X13819276Y-9220514D02*
X13828800Y-9201467D01*
X13847848Y-9191943D01*
X13876419Y-9191943D01*
X13895467Y-9201467D01*
X13904990Y-9220514D01*
X13904990Y-9325276D01*
X14000228Y-9325276D02*
X14000228Y-9191943D01*
X14000228Y-9210990D02*
X14009752Y-9201467D01*
X14028800Y-9191943D01*
X14057371Y-9191943D01*
X14076419Y-9201467D01*
X14085943Y-9220514D01*
X14085943Y-9325276D01*
X14085943Y-9220514D02*
X14095467Y-9201467D01*
X14114514Y-9191943D01*
X14143086Y-9191943D01*
X14162133Y-9201467D01*
X14171657Y-9220514D01*
X14171657Y-9325276D01*
X14562133Y-9115752D02*
X14390705Y-9372895D01*
X14819276Y-9125276D02*
X14838324Y-9125276D01*
X14857371Y-9134800D01*
X14866895Y-9144324D01*
X14876419Y-9163371D01*
X14885943Y-9201467D01*
X14885943Y-9249086D01*
X14876419Y-9287181D01*
X14866895Y-9306229D01*
X14857371Y-9315752D01*
X14838324Y-9325276D01*
X14819276Y-9325276D01*
X14800228Y-9315752D01*
X14790705Y-9306229D01*
X14781181Y-9287181D01*
X14771657Y-9249086D01*
X14771657Y-9201467D01*
X14781181Y-9163371D01*
X14790705Y-9144324D01*
X14800228Y-9134800D01*
X14819276Y-9125276D01*
X14971657Y-9306229D02*
X14981181Y-9315752D01*
X14971657Y-9325276D01*
X14962133Y-9315752D01*
X14971657Y-9306229D01*
X14971657Y-9325276D01*
X15104990Y-9125276D02*
X15124038Y-9125276D01*
X15143086Y-9134800D01*
X15152609Y-9144324D01*
X15162133Y-9163371D01*
X15171657Y-9201467D01*
X15171657Y-9249086D01*
X15162133Y-9287181D01*
X15152609Y-9306229D01*
X15143086Y-9315752D01*
X15124038Y-9325276D01*
X15104990Y-9325276D01*
X15085943Y-9315752D01*
X15076419Y-9306229D01*
X15066895Y-9287181D01*
X15057371Y-9249086D01*
X15057371Y-9201467D01*
X15066895Y-9163371D01*
X15076419Y-9144324D01*
X15085943Y-9134800D01*
X15104990Y-9125276D01*
X15238324Y-9125276D02*
X15371657Y-9125276D01*
X15285943Y-9325276D01*
X15476419Y-9210990D02*
X15457371Y-9201467D01*
X15447848Y-9191943D01*
X15438324Y-9172895D01*
X15438324Y-9163371D01*
X15447848Y-9144324D01*
X15457371Y-9134800D01*
X15476419Y-9125276D01*
X15514514Y-9125276D01*
X15533562Y-9134800D01*
X15543086Y-9144324D01*
X15552609Y-9163371D01*
X15552609Y-9172895D01*
X15543086Y-9191943D01*
X15533562Y-9201467D01*
X15514514Y-9210990D01*
X15476419Y-9210990D01*
X15457371Y-9220514D01*
X15447848Y-9230038D01*
X15438324Y-9249086D01*
X15438324Y-9287181D01*
X15447848Y-9306229D01*
X15457371Y-9315752D01*
X15476419Y-9325276D01*
X15514514Y-9325276D01*
X15533562Y-9315752D01*
X15543086Y-9306229D01*
X15552609Y-9287181D01*
X15552609Y-9249086D01*
X15543086Y-9230038D01*
X15533562Y-9220514D01*
X15514514Y-9210990D01*
X15619276Y-9125276D02*
X15752609Y-9125276D01*
X15666895Y-9325276D01*
X15819276Y-9125276D02*
X15819276Y-9163371D01*
X15895467Y-9125276D02*
X15895467Y-9163371D01*
X16190705Y-9401467D02*
X16181181Y-9391943D01*
X16162133Y-9363371D01*
X16152609Y-9344324D01*
X16143086Y-9315752D01*
X16133562Y-9268133D01*
X16133562Y-9230038D01*
X16143086Y-9182419D01*
X16152609Y-9153848D01*
X16162133Y-9134800D01*
X16181181Y-9106229D01*
X16190705Y-9096705D01*
X16371657Y-9325276D02*
X16257371Y-9325276D01*
X16314514Y-9325276D02*
X16314514Y-9125276D01*
X16295467Y-9153848D01*
X16276419Y-9172895D01*
X16257371Y-9182419D01*
X16609752Y-9325276D02*
X16609752Y-9125276D01*
X16695467Y-9325276D02*
X16695467Y-9220514D01*
X16685943Y-9201467D01*
X16666895Y-9191943D01*
X16638324Y-9191943D01*
X16619276Y-9201467D01*
X16609752Y-9210990D01*
X16819276Y-9325276D02*
X16800229Y-9315752D01*
X16790705Y-9306229D01*
X16781181Y-9287181D01*
X16781181Y-9230038D01*
X16790705Y-9210990D01*
X16800229Y-9201467D01*
X16819276Y-9191943D01*
X16847848Y-9191943D01*
X16866895Y-9201467D01*
X16876419Y-9210990D01*
X16885943Y-9230038D01*
X16885943Y-9287181D01*
X16876419Y-9306229D01*
X16866895Y-9315752D01*
X16847848Y-9325276D01*
X16819276Y-9325276D01*
X17000229Y-9325276D02*
X16981181Y-9315752D01*
X16971657Y-9296705D01*
X16971657Y-9125276D01*
X17152610Y-9315752D02*
X17133562Y-9325276D01*
X17095467Y-9325276D01*
X17076419Y-9315752D01*
X17066895Y-9296705D01*
X17066895Y-9220514D01*
X17076419Y-9201467D01*
X17095467Y-9191943D01*
X17133562Y-9191943D01*
X17152610Y-9201467D01*
X17162133Y-9220514D01*
X17162133Y-9239562D01*
X17066895Y-9258610D01*
X17228800Y-9401467D02*
X17238324Y-9391943D01*
X17257371Y-9363371D01*
X17266895Y-9344324D01*
X17276419Y-9315752D01*
X17285943Y-9268133D01*
X17285943Y-9230038D01*
X17276419Y-9182419D01*
X17266895Y-9153848D01*
X17257371Y-9134800D01*
X17238324Y-9106229D01*
X17228800Y-9096705D01*
M02*
