%TF.GenerationSoftware,KiCad,Pcbnew,5.99.0-unknown-50e22de3ba~95~ubuntu20.04.1*%
%TF.CreationDate,2021-01-19T20:46:22+09:00*%
%TF.ProjectId,OpenRover-4,4f70656e-526f-4766-9572-2d342e6b6963,rev?*%
%TF.SameCoordinates,Original*%
%TF.FileFunction,Paste,Top*%
%TF.FilePolarity,Positive*%
%FSLAX46Y46*%
G04 Gerber Fmt 4.6, Leading zero omitted, Abs format (unit mm)*
G04 Created by KiCad (PCBNEW 5.99.0-unknown-50e22de3ba~95~ubuntu20.04.1) date 2021-01-19 20:46:22*
%MOMM*%
%LPD*%
G01*
G04 APERTURE LIST*
G04 Aperture macros list*
%AMRoundRect*
0 Rectangle with rounded corners*
0 $1 Rounding radius*
0 $2 $3 $4 $5 $6 $7 $8 $9 X,Y pos of 4 corners*
0 Add a 4 corners polygon primitive as box body*
4,1,4,$2,$3,$4,$5,$6,$7,$8,$9,$2,$3,0*
0 Add four circle primitives for the rounded corners*
1,1,$1+$1,$2,$3*
1,1,$1+$1,$4,$5*
1,1,$1+$1,$6,$7*
1,1,$1+$1,$8,$9*
0 Add four rect primitives between the rounded corners*
20,1,$1+$1,$2,$3,$4,$5,0*
20,1,$1+$1,$4,$5,$6,$7,0*
20,1,$1+$1,$6,$7,$8,$9,0*
20,1,$1+$1,$8,$9,$2,$3,0*%
G04 Aperture macros list end*
%ADD10RoundRect,0.250000X-0.250000X-0.475000X0.250000X-0.475000X0.250000X0.475000X-0.250000X0.475000X0*%
%ADD11RoundRect,0.150000X0.150000X-0.587500X0.150000X0.587500X-0.150000X0.587500X-0.150000X-0.587500X0*%
%ADD12RoundRect,0.250000X0.262500X0.450000X-0.262500X0.450000X-0.262500X-0.450000X0.262500X-0.450000X0*%
%ADD13R,0.900000X0.800000*%
%ADD14RoundRect,0.250000X-0.475000X0.250000X-0.475000X-0.250000X0.475000X-0.250000X0.475000X0.250000X0*%
%ADD15RoundRect,0.250000X-0.625000X0.312500X-0.625000X-0.312500X0.625000X-0.312500X0.625000X0.312500X0*%
%ADD16RoundRect,0.250100X-0.449900X0.262400X-0.449900X-0.262400X0.449900X-0.262400X0.449900X0.262400X0*%
%ADD17RoundRect,0.250000X-0.450000X0.262500X-0.450000X-0.262500X0.450000X-0.262500X0.450000X0.262500X0*%
%ADD18R,3.700000X1.200000*%
%ADD19RoundRect,0.250000X-0.262500X-0.450000X0.262500X-0.450000X0.262500X0.450000X-0.262500X0.450000X0*%
%ADD20RoundRect,0.150000X0.150000X-0.825000X0.150000X0.825000X-0.150000X0.825000X-0.150000X-0.825000X0*%
%ADD21RoundRect,0.250000X0.450000X-0.262500X0.450000X0.262500X-0.450000X0.262500X-0.450000X-0.262500X0*%
%ADD22R,2.000000X1.500000*%
%ADD23R,2.000000X3.800000*%
G04 APERTURE END LIST*
D10*
X145050000Y-59000000D03*
X146950000Y-59000000D03*
D11*
X156550000Y-62937500D03*
X158450000Y-62937500D03*
X157500000Y-61062500D03*
X142550000Y-62937500D03*
X144450000Y-62937500D03*
X143500000Y-61062500D03*
D10*
X152050000Y-59000000D03*
X153950000Y-59000000D03*
D11*
X139004000Y-62913500D03*
X140904000Y-62913500D03*
X139954000Y-61038500D03*
D10*
X137100000Y-70500000D03*
X139000000Y-70500000D03*
D12*
X152376500Y-67818000D03*
X150551500Y-67818000D03*
D10*
X148550000Y-59000000D03*
X150450000Y-59000000D03*
D12*
X157376500Y-67818000D03*
X155551500Y-67818000D03*
D11*
X149550000Y-62937500D03*
X151450000Y-62937500D03*
X150500000Y-61062500D03*
D13*
X154000000Y-69844000D03*
X152000000Y-70794000D03*
X154000000Y-71744000D03*
D12*
X134516500Y-71628000D03*
X132691500Y-71628000D03*
D11*
X153050000Y-62937500D03*
X154950000Y-62937500D03*
X154000000Y-61062500D03*
D14*
X130500000Y-59050000D03*
X130500000Y-60950000D03*
D10*
X153050000Y-65000000D03*
X154950000Y-65000000D03*
D15*
X164480000Y-64927500D03*
X164480000Y-67852500D03*
D10*
X138050000Y-59000000D03*
X139950000Y-59000000D03*
D16*
X156500000Y-69699500D03*
D17*
X156500000Y-71524500D03*
D10*
X139050000Y-65000000D03*
X140950000Y-65000000D03*
X149550000Y-65000000D03*
X151450000Y-65000000D03*
X146050000Y-65000000D03*
X147950000Y-65000000D03*
D18*
X134500000Y-58600000D03*
X134500000Y-61400000D03*
D19*
X140051500Y-67818000D03*
X141876500Y-67818000D03*
D10*
X156638000Y-65000000D03*
X158538000Y-65000000D03*
D20*
X142240000Y-75881000D03*
X143510000Y-75881000D03*
X144780000Y-75881000D03*
X146050000Y-75881000D03*
X147320000Y-75881000D03*
X148590000Y-75881000D03*
X149860000Y-75881000D03*
X149860000Y-70931000D03*
X148590000Y-70931000D03*
X147320000Y-70931000D03*
X146050000Y-70931000D03*
X144780000Y-70931000D03*
X143510000Y-70931000D03*
X142240000Y-70931000D03*
D21*
X128000000Y-60912500D03*
X128000000Y-59087500D03*
D12*
X147376500Y-67818000D03*
X145551500Y-67818000D03*
D19*
X152337500Y-75946000D03*
X154162500Y-75946000D03*
X152337500Y-73660000D03*
X154162500Y-73660000D03*
D10*
X155638000Y-59000000D03*
X157538000Y-59000000D03*
X142638000Y-65000000D03*
X144538000Y-65000000D03*
D22*
X128676000Y-63740000D03*
D23*
X134976000Y-66040000D03*
D22*
X128676000Y-66040000D03*
X128676000Y-68340000D03*
D11*
X160050000Y-62937500D03*
X161950000Y-62937500D03*
X161000000Y-61062500D03*
D10*
X159050000Y-59000000D03*
X160950000Y-59000000D03*
X141550000Y-59000000D03*
X143450000Y-59000000D03*
D19*
X129191500Y-71628000D03*
X131016500Y-71628000D03*
D11*
X146050000Y-62937500D03*
X147950000Y-62937500D03*
X147000000Y-61062500D03*
M02*
