<?xml version="1.0" standalone="no"?>
 <!DOCTYPE svg PUBLIC "-//W3C//DTD SVG 1.1//EN" 
 "http://www.w3.org/Graphics/SVG/1.1/DTD/svg11.dtd"> 
<svg
  xmlns:svg="http://www.w3.org/2000/svg"
  xmlns="http://www.w3.org/2000/svg"
  xmlns:xlink="http://www.w3.org/1999/xlink"
  version="1.1"
  width="29.700220cm" height="21.000720cm" viewBox="0 0 297002200 210007200">
<title>SVG Picture created as OpenHVPS-5-F_Paste.svg date 2021/02/04 20:18:53 </title>
  <desc>Picture generated by PCBNEW </desc>
<g style="fill:#000000; fill-opacity:1.000000;stroke:#000000; stroke-opacity:1.000000;
stroke-linecap:round; stroke-linejoin:round;"
 transform="translate(0 0) scale(1 1)">
</g>
<g style="fill:#000000; fill-opacity:0.0; 
stroke:#000000; stroke-width:0.000000; stroke-opacity:1; 
stroke-linecap:round; stroke-linejoin:round;">
<g >
</g>
<g style="fill:#000000; fill-opacity:0.0; 
stroke:#000000; stroke-width:1.000000; stroke-opacity:1; 
stroke-linecap:round; stroke-linejoin:round;">
</g>
<g style="fill:#000000; fill-opacity:1.0; 
stroke:#000000; stroke-width:1.000000; stroke-opacity:1; 
stroke-linecap:round; stroke-linejoin:round;">
<path style="fill:#000000; fill-opacity:1.0; 
stroke:#000000; stroke-width:1.000000; stroke-opacity:1; 
stroke-linecap:round; stroke-linejoin:round;fill-rule:evenodd;"
d="M 128950000.000000,72925000.000000
129045671.000000,72905970.000000
129126777.000000,72851777.000000
129180970.000000,72770671.000000
129200000.000000,72675000.000000
129200000.000000,72150000.000000
129180970.000000,72054329.000000
129126777.000000,71973223.000000
129045671.000000,71919030.000000
128950000.000000,71900000.000000
128050000.000000,71900000.000000
127954329.000000,71919030.000000
127873223.000000,71973223.000000
127819030.000000,72054329.000000
127800000.000000,72150000.000000
127800000.000000,72675000.000000
127819030.000000,72770671.000000
127873223.000000,72851777.000000
127954329.000000,72905970.000000
128050000.000000,72925000.000000
Z" /> 
<path style="fill:#000000; fill-opacity:1.0; 
stroke:#000000; stroke-width:1.000000; stroke-opacity:1; 
stroke-linecap:round; stroke-linejoin:round;fill-rule:evenodd;"
d="M 128950000.000000,71100000.000000
129045671.000000,71080970.000000
129126777.000000,71026777.000000
129180970.000000,70945671.000000
129200000.000000,70850000.000000
129200000.000000,70325000.000000
129180970.000000,70229329.000000
129126777.000000,70148223.000000
129045671.000000,70094030.000000
128950000.000000,70075000.000000
128050000.000000,70075000.000000
127954329.000000,70094030.000000
127873223.000000,70148223.000000
127819030.000000,70229329.000000
127800000.000000,70325000.000000
127800000.000000,70850000.000000
127819030.000000,70945671.000000
127873223.000000,71026777.000000
127954329.000000,71080970.000000
128050000.000000,71100000.000000
Z" /> 
</g>
<g >
</g>
<g style="fill:#000000; fill-opacity:1.0; 
stroke:#000000; stroke-width:1.000000; stroke-opacity:1; 
stroke-linecap:round; stroke-linejoin:round;">
<path style="fill:#000000; fill-opacity:1.0; 
stroke:#000000; stroke-width:1.000000; stroke-opacity:1; 
stroke-linecap:round; stroke-linejoin:round;fill-rule:evenodd;"
d="M 144550000.000000,59475000.000000
144569030.000000,59570671.000000
144623223.000000,59651777.000000
144704329.000000,59705970.000000
144800000.000000,59725000.000000
145300000.000000,59725000.000000
145395671.000000,59705970.000000
145476777.000000,59651777.000000
145530970.000000,59570671.000000
145550000.000000,59475000.000000
145550000.000000,58525000.000000
145530970.000000,58429329.000000
145476777.000000,58348223.000000
145395671.000000,58294030.000000
145300000.000000,58275000.000000
144800000.000000,58275000.000000
144704329.000000,58294030.000000
144623223.000000,58348223.000000
144569030.000000,58429329.000000
144550000.000000,58525000.000000
Z" /> 
<path style="fill:#000000; fill-opacity:1.0; 
stroke:#000000; stroke-width:1.000000; stroke-opacity:1; 
stroke-linecap:round; stroke-linejoin:round;fill-rule:evenodd;"
d="M 146450000.000000,59475000.000000
146469030.000000,59570671.000000
146523223.000000,59651777.000000
146604329.000000,59705970.000000
146700000.000000,59725000.000000
147200000.000000,59725000.000000
147295671.000000,59705970.000000
147376777.000000,59651777.000000
147430970.000000,59570671.000000
147450000.000000,59475000.000000
147450000.000000,58525000.000000
147430970.000000,58429329.000000
147376777.000000,58348223.000000
147295671.000000,58294030.000000
147200000.000000,58275000.000000
146700000.000000,58275000.000000
146604329.000000,58294030.000000
146523223.000000,58348223.000000
146469030.000000,58429329.000000
146450000.000000,58525000.000000
Z" /> 
</g>
<g >
</g>
<g >
</g>
<g style="fill:#000000; fill-opacity:1.0; 
stroke:#000000; stroke-width:1.000000; stroke-opacity:1; 
stroke-linecap:round; stroke-linejoin:round;">
<path style="fill:#000000; fill-opacity:1.0; 
stroke:#000000; stroke-width:1.000000; stroke-opacity:1; 
stroke-linecap:round; stroke-linejoin:round;fill-rule:evenodd;"
d="M 156700000.000000,63675000.000000
156757403.000000,63663582.000000
156806066.000000,63631066.000000
156838582.000000,63582403.000000
156850000.000000,63525000.000000
156850000.000000,62350000.000000
156838582.000000,62292597.000000
156806066.000000,62243934.000000
156757403.000000,62211418.000000
156700000.000000,62200000.000000
156400000.000000,62200000.000000
156342597.000000,62211418.000000
156293934.000000,62243934.000000
156261418.000000,62292597.000000
156250000.000000,62350000.000000
156250000.000000,63525000.000000
156261418.000000,63582403.000000
156293934.000000,63631066.000000
156342597.000000,63663582.000000
156400000.000000,63675000.000000
Z" /> 
<path style="fill:#000000; fill-opacity:1.0; 
stroke:#000000; stroke-width:1.000000; stroke-opacity:1; 
stroke-linecap:round; stroke-linejoin:round;fill-rule:evenodd;"
d="M 158600000.000000,63675000.000000
158657403.000000,63663582.000000
158706066.000000,63631066.000000
158738582.000000,63582403.000000
158750000.000000,63525000.000000
158750000.000000,62350000.000000
158738582.000000,62292597.000000
158706066.000000,62243934.000000
158657403.000000,62211418.000000
158600000.000000,62200000.000000
158300000.000000,62200000.000000
158242597.000000,62211418.000000
158193934.000000,62243934.000000
158161418.000000,62292597.000000
158150000.000000,62350000.000000
158150000.000000,63525000.000000
158161418.000000,63582403.000000
158193934.000000,63631066.000000
158242597.000000,63663582.000000
158300000.000000,63675000.000000
Z" /> 
<path style="fill:#000000; fill-opacity:1.0; 
stroke:#000000; stroke-width:1.000000; stroke-opacity:1; 
stroke-linecap:round; stroke-linejoin:round;fill-rule:evenodd;"
d="M 157650000.000000,61800000.000000
157707403.000000,61788582.000000
157756066.000000,61756066.000000
157788582.000000,61707403.000000
157800000.000000,61650000.000000
157800000.000000,60475000.000000
157788582.000000,60417597.000000
157756066.000000,60368934.000000
157707403.000000,60336418.000000
157650000.000000,60325000.000000
157350000.000000,60325000.000000
157292597.000000,60336418.000000
157243934.000000,60368934.000000
157211418.000000,60417597.000000
157200000.000000,60475000.000000
157200000.000000,61650000.000000
157211418.000000,61707403.000000
157243934.000000,61756066.000000
157292597.000000,61788582.000000
157350000.000000,61800000.000000
Z" /> 
</g>
<g >
</g>
<g >
</g>
<g >
</g>
<g style="fill:#000000; fill-opacity:1.0; 
stroke:#000000; stroke-width:1.000000; stroke-opacity:1; 
stroke-linecap:round; stroke-linejoin:round;">
<path style="fill:#000000; fill-opacity:1.0; 
stroke:#000000; stroke-width:1.000000; stroke-opacity:1; 
stroke-linecap:round; stroke-linejoin:round;fill-rule:evenodd;"
d="M 142700000.000000,63675000.000000
142757403.000000,63663582.000000
142806066.000000,63631066.000000
142838582.000000,63582403.000000
142850000.000000,63525000.000000
142850000.000000,62350000.000000
142838582.000000,62292597.000000
142806066.000000,62243934.000000
142757403.000000,62211418.000000
142700000.000000,62200000.000000
142400000.000000,62200000.000000
142342597.000000,62211418.000000
142293934.000000,62243934.000000
142261418.000000,62292597.000000
142250000.000000,62350000.000000
142250000.000000,63525000.000000
142261418.000000,63582403.000000
142293934.000000,63631066.000000
142342597.000000,63663582.000000
142400000.000000,63675000.000000
Z" /> 
<path style="fill:#000000; fill-opacity:1.0; 
stroke:#000000; stroke-width:1.000000; stroke-opacity:1; 
stroke-linecap:round; stroke-linejoin:round;fill-rule:evenodd;"
d="M 144600000.000000,63675000.000000
144657403.000000,63663582.000000
144706066.000000,63631066.000000
144738582.000000,63582403.000000
144750000.000000,63525000.000000
144750000.000000,62350000.000000
144738582.000000,62292597.000000
144706066.000000,62243934.000000
144657403.000000,62211418.000000
144600000.000000,62200000.000000
144300000.000000,62200000.000000
144242597.000000,62211418.000000
144193934.000000,62243934.000000
144161418.000000,62292597.000000
144150000.000000,62350000.000000
144150000.000000,63525000.000000
144161418.000000,63582403.000000
144193934.000000,63631066.000000
144242597.000000,63663582.000000
144300000.000000,63675000.000000
Z" /> 
<path style="fill:#000000; fill-opacity:1.0; 
stroke:#000000; stroke-width:1.000000; stroke-opacity:1; 
stroke-linecap:round; stroke-linejoin:round;fill-rule:evenodd;"
d="M 143650000.000000,61800000.000000
143707403.000000,61788582.000000
143756066.000000,61756066.000000
143788582.000000,61707403.000000
143800000.000000,61650000.000000
143800000.000000,60475000.000000
143788582.000000,60417597.000000
143756066.000000,60368934.000000
143707403.000000,60336418.000000
143650000.000000,60325000.000000
143350000.000000,60325000.000000
143292597.000000,60336418.000000
143243934.000000,60368934.000000
143211418.000000,60417597.000000
143200000.000000,60475000.000000
143200000.000000,61650000.000000
143211418.000000,61707403.000000
143243934.000000,61756066.000000
143292597.000000,61788582.000000
143350000.000000,61800000.000000
Z" /> 
</g>
<g >
</g>
<g style="fill:#000000; fill-opacity:1.0; 
stroke:#000000; stroke-width:1.000000; stroke-opacity:1; 
stroke-linecap:round; stroke-linejoin:round;">
<path style="fill:#000000; fill-opacity:1.0; 
stroke:#000000; stroke-width:1.000000; stroke-opacity:1; 
stroke-linecap:round; stroke-linejoin:round;fill-rule:evenodd;"
d="M 151550000.000000,59475000.000000
151569030.000000,59570671.000000
151623223.000000,59651777.000000
151704329.000000,59705970.000000
151800000.000000,59725000.000000
152300000.000000,59725000.000000
152395671.000000,59705970.000000
152476777.000000,59651777.000000
152530970.000000,59570671.000000
152550000.000000,59475000.000000
152550000.000000,58525000.000000
152530970.000000,58429329.000000
152476777.000000,58348223.000000
152395671.000000,58294030.000000
152300000.000000,58275000.000000
151800000.000000,58275000.000000
151704329.000000,58294030.000000
151623223.000000,58348223.000000
151569030.000000,58429329.000000
151550000.000000,58525000.000000
Z" /> 
<path style="fill:#000000; fill-opacity:1.0; 
stroke:#000000; stroke-width:1.000000; stroke-opacity:1; 
stroke-linecap:round; stroke-linejoin:round;fill-rule:evenodd;"
d="M 153450000.000000,59475000.000000
153469030.000000,59570671.000000
153523223.000000,59651777.000000
153604329.000000,59705970.000000
153700000.000000,59725000.000000
154200000.000000,59725000.000000
154295671.000000,59705970.000000
154376777.000000,59651777.000000
154430970.000000,59570671.000000
154450000.000000,59475000.000000
154450000.000000,58525000.000000
154430970.000000,58429329.000000
154376777.000000,58348223.000000
154295671.000000,58294030.000000
154200000.000000,58275000.000000
153700000.000000,58275000.000000
153604329.000000,58294030.000000
153523223.000000,58348223.000000
153469030.000000,58429329.000000
153450000.000000,58525000.000000
Z" /> 
</g>
<g >
</g>
<g style="fill:#000000; fill-opacity:1.0; 
stroke:#000000; stroke-width:1.000000; stroke-opacity:1; 
stroke-linecap:round; stroke-linejoin:round;">
<path style="fill:#000000; fill-opacity:1.0; 
stroke:#000000; stroke-width:1.000000; stroke-opacity:1; 
stroke-linecap:round; stroke-linejoin:round;fill-rule:evenodd;"
d="M 139154000.000000,63651000.000000
139211403.000000,63639582.000000
139260066.000000,63607066.000000
139292582.000000,63558403.000000
139304000.000000,63501000.000000
139304000.000000,62326000.000000
139292582.000000,62268597.000000
139260066.000000,62219934.000000
139211403.000000,62187418.000000
139154000.000000,62176000.000000
138854000.000000,62176000.000000
138796597.000000,62187418.000000
138747934.000000,62219934.000000
138715418.000000,62268597.000000
138704000.000000,62326000.000000
138704000.000000,63501000.000000
138715418.000000,63558403.000000
138747934.000000,63607066.000000
138796597.000000,63639582.000000
138854000.000000,63651000.000000
Z" /> 
<path style="fill:#000000; fill-opacity:1.0; 
stroke:#000000; stroke-width:1.000000; stroke-opacity:1; 
stroke-linecap:round; stroke-linejoin:round;fill-rule:evenodd;"
d="M 141054000.000000,63651000.000000
141111403.000000,63639582.000000
141160066.000000,63607066.000000
141192582.000000,63558403.000000
141204000.000000,63501000.000000
141204000.000000,62326000.000000
141192582.000000,62268597.000000
141160066.000000,62219934.000000
141111403.000000,62187418.000000
141054000.000000,62176000.000000
140754000.000000,62176000.000000
140696597.000000,62187418.000000
140647934.000000,62219934.000000
140615418.000000,62268597.000000
140604000.000000,62326000.000000
140604000.000000,63501000.000000
140615418.000000,63558403.000000
140647934.000000,63607066.000000
140696597.000000,63639582.000000
140754000.000000,63651000.000000
Z" /> 
<path style="fill:#000000; fill-opacity:1.0; 
stroke:#000000; stroke-width:1.000000; stroke-opacity:1; 
stroke-linecap:round; stroke-linejoin:round;fill-rule:evenodd;"
d="M 140104000.000000,61776000.000000
140161403.000000,61764582.000000
140210066.000000,61732066.000000
140242582.000000,61683403.000000
140254000.000000,61626000.000000
140254000.000000,60451000.000000
140242582.000000,60393597.000000
140210066.000000,60344934.000000
140161403.000000,60312418.000000
140104000.000000,60301000.000000
139804000.000000,60301000.000000
139746597.000000,60312418.000000
139697934.000000,60344934.000000
139665418.000000,60393597.000000
139654000.000000,60451000.000000
139654000.000000,61626000.000000
139665418.000000,61683403.000000
139697934.000000,61732066.000000
139746597.000000,61764582.000000
139804000.000000,61776000.000000
Z" /> 
</g>
<g >
</g>
<g style="fill:#000000; fill-opacity:1.0; 
stroke:#000000; stroke-width:1.000000; stroke-opacity:1; 
stroke-linecap:round; stroke-linejoin:round;">
<path style="fill:#000000; fill-opacity:1.0; 
stroke:#000000; stroke-width:1.000000; stroke-opacity:1; 
stroke-linecap:round; stroke-linejoin:round;fill-rule:evenodd;"
d="M 136600000.000000,70975000.000000
136619030.000000,71070671.000000
136673223.000000,71151777.000000
136754329.000000,71205970.000000
136850000.000000,71225000.000000
137350000.000000,71225000.000000
137445671.000000,71205970.000000
137526777.000000,71151777.000000
137580970.000000,71070671.000000
137600000.000000,70975000.000000
137600000.000000,70025000.000000
137580970.000000,69929329.000000
137526777.000000,69848223.000000
137445671.000000,69794030.000000
137350000.000000,69775000.000000
136850000.000000,69775000.000000
136754329.000000,69794030.000000
136673223.000000,69848223.000000
136619030.000000,69929329.000000
136600000.000000,70025000.000000
Z" /> 
<path style="fill:#000000; fill-opacity:1.0; 
stroke:#000000; stroke-width:1.000000; stroke-opacity:1; 
stroke-linecap:round; stroke-linejoin:round;fill-rule:evenodd;"
d="M 138500000.000000,70975000.000000
138519030.000000,71070671.000000
138573223.000000,71151777.000000
138654329.000000,71205970.000000
138750000.000000,71225000.000000
139250000.000000,71225000.000000
139345671.000000,71205970.000000
139426777.000000,71151777.000000
139480970.000000,71070671.000000
139500000.000000,70975000.000000
139500000.000000,70025000.000000
139480970.000000,69929329.000000
139426777.000000,69848223.000000
139345671.000000,69794030.000000
139250000.000000,69775000.000000
138750000.000000,69775000.000000
138654329.000000,69794030.000000
138573223.000000,69848223.000000
138519030.000000,69929329.000000
138500000.000000,70025000.000000
Z" /> 
</g>
<g >
</g>
<g style="fill:#000000; fill-opacity:1.0; 
stroke:#000000; stroke-width:1.000000; stroke-opacity:1; 
stroke-linecap:round; stroke-linejoin:round;">
<path style="fill:#000000; fill-opacity:1.0; 
stroke:#000000; stroke-width:1.000000; stroke-opacity:1; 
stroke-linecap:round; stroke-linejoin:round;fill-rule:evenodd;"
d="M 152889000.000000,67368000.000000
152869970.000000,67272329.000000
152815777.000000,67191223.000000
152734671.000000,67137030.000000
152639000.000000,67118000.000000
152114000.000000,67118000.000000
152018329.000000,67137030.000000
151937223.000000,67191223.000000
151883030.000000,67272329.000000
151864000.000000,67368000.000000
151864000.000000,68268000.000000
151883030.000000,68363671.000000
151937223.000000,68444777.000000
152018329.000000,68498970.000000
152114000.000000,68518000.000000
152639000.000000,68518000.000000
152734671.000000,68498970.000000
152815777.000000,68444777.000000
152869970.000000,68363671.000000
152889000.000000,68268000.000000
Z" /> 
<path style="fill:#000000; fill-opacity:1.0; 
stroke:#000000; stroke-width:1.000000; stroke-opacity:1; 
stroke-linecap:round; stroke-linejoin:round;fill-rule:evenodd;"
d="M 151064000.000000,67368000.000000
151044970.000000,67272329.000000
150990777.000000,67191223.000000
150909671.000000,67137030.000000
150814000.000000,67118000.000000
150289000.000000,67118000.000000
150193329.000000,67137030.000000
150112223.000000,67191223.000000
150058030.000000,67272329.000000
150039000.000000,67368000.000000
150039000.000000,68268000.000000
150058030.000000,68363671.000000
150112223.000000,68444777.000000
150193329.000000,68498970.000000
150289000.000000,68518000.000000
150814000.000000,68518000.000000
150909671.000000,68498970.000000
150990777.000000,68444777.000000
151044970.000000,68363671.000000
151064000.000000,68268000.000000
Z" /> 
</g>
<g >
</g>
<g style="fill:#000000; fill-opacity:1.0; 
stroke:#000000; stroke-width:1.000000; stroke-opacity:1; 
stroke-linecap:round; stroke-linejoin:round;">
<path style="fill:#000000; fill-opacity:1.0; 
stroke:#000000; stroke-width:1.000000; stroke-opacity:1; 
stroke-linecap:round; stroke-linejoin:round;fill-rule:evenodd;"
d="M 148050000.000000,59475000.000000
148069030.000000,59570671.000000
148123223.000000,59651777.000000
148204329.000000,59705970.000000
148300000.000000,59725000.000000
148800000.000000,59725000.000000
148895671.000000,59705970.000000
148976777.000000,59651777.000000
149030970.000000,59570671.000000
149050000.000000,59475000.000000
149050000.000000,58525000.000000
149030970.000000,58429329.000000
148976777.000000,58348223.000000
148895671.000000,58294030.000000
148800000.000000,58275000.000000
148300000.000000,58275000.000000
148204329.000000,58294030.000000
148123223.000000,58348223.000000
148069030.000000,58429329.000000
148050000.000000,58525000.000000
Z" /> 
<path style="fill:#000000; fill-opacity:1.0; 
stroke:#000000; stroke-width:1.000000; stroke-opacity:1; 
stroke-linecap:round; stroke-linejoin:round;fill-rule:evenodd;"
d="M 149950000.000000,59475000.000000
149969030.000000,59570671.000000
150023223.000000,59651777.000000
150104329.000000,59705970.000000
150200000.000000,59725000.000000
150700000.000000,59725000.000000
150795671.000000,59705970.000000
150876777.000000,59651777.000000
150930970.000000,59570671.000000
150950000.000000,59475000.000000
150950000.000000,58525000.000000
150930970.000000,58429329.000000
150876777.000000,58348223.000000
150795671.000000,58294030.000000
150700000.000000,58275000.000000
150200000.000000,58275000.000000
150104329.000000,58294030.000000
150023223.000000,58348223.000000
149969030.000000,58429329.000000
149950000.000000,58525000.000000
Z" /> 
</g>
<g >
</g>
<g style="fill:#000000; fill-opacity:1.0; 
stroke:#000000; stroke-width:1.000000; stroke-opacity:1; 
stroke-linecap:round; stroke-linejoin:round;">
<path style="fill:#000000; fill-opacity:1.0; 
stroke:#000000; stroke-width:1.000000; stroke-opacity:1; 
stroke-linecap:round; stroke-linejoin:round;fill-rule:evenodd;"
d="M 157889000.000000,67368000.000000
157869970.000000,67272329.000000
157815777.000000,67191223.000000
157734671.000000,67137030.000000
157639000.000000,67118000.000000
157114000.000000,67118000.000000
157018329.000000,67137030.000000
156937223.000000,67191223.000000
156883030.000000,67272329.000000
156864000.000000,67368000.000000
156864000.000000,68268000.000000
156883030.000000,68363671.000000
156937223.000000,68444777.000000
157018329.000000,68498970.000000
157114000.000000,68518000.000000
157639000.000000,68518000.000000
157734671.000000,68498970.000000
157815777.000000,68444777.000000
157869970.000000,68363671.000000
157889000.000000,68268000.000000
Z" /> 
<path style="fill:#000000; fill-opacity:1.0; 
stroke:#000000; stroke-width:1.000000; stroke-opacity:1; 
stroke-linecap:round; stroke-linejoin:round;fill-rule:evenodd;"
d="M 156064000.000000,67368000.000000
156044970.000000,67272329.000000
155990777.000000,67191223.000000
155909671.000000,67137030.000000
155814000.000000,67118000.000000
155289000.000000,67118000.000000
155193329.000000,67137030.000000
155112223.000000,67191223.000000
155058030.000000,67272329.000000
155039000.000000,67368000.000000
155039000.000000,68268000.000000
155058030.000000,68363671.000000
155112223.000000,68444777.000000
155193329.000000,68498970.000000
155289000.000000,68518000.000000
155814000.000000,68518000.000000
155909671.000000,68498970.000000
155990777.000000,68444777.000000
156044970.000000,68363671.000000
156064000.000000,68268000.000000
Z" /> 
</g>
<g >
</g>
<g style="fill:#000000; fill-opacity:1.0; 
stroke:#000000; stroke-width:1.000000; stroke-opacity:1; 
stroke-linecap:round; stroke-linejoin:round;">
<path style="fill:#000000; fill-opacity:1.0; 
stroke:#000000; stroke-width:1.000000; stroke-opacity:1; 
stroke-linecap:round; stroke-linejoin:round;fill-rule:evenodd;"
d="M 149700000.000000,63675000.000000
149757403.000000,63663582.000000
149806066.000000,63631066.000000
149838582.000000,63582403.000000
149850000.000000,63525000.000000
149850000.000000,62350000.000000
149838582.000000,62292597.000000
149806066.000000,62243934.000000
149757403.000000,62211418.000000
149700000.000000,62200000.000000
149400000.000000,62200000.000000
149342597.000000,62211418.000000
149293934.000000,62243934.000000
149261418.000000,62292597.000000
149250000.000000,62350000.000000
149250000.000000,63525000.000000
149261418.000000,63582403.000000
149293934.000000,63631066.000000
149342597.000000,63663582.000000
149400000.000000,63675000.000000
Z" /> 
<path style="fill:#000000; fill-opacity:1.0; 
stroke:#000000; stroke-width:1.000000; stroke-opacity:1; 
stroke-linecap:round; stroke-linejoin:round;fill-rule:evenodd;"
d="M 151600000.000000,63675000.000000
151657403.000000,63663582.000000
151706066.000000,63631066.000000
151738582.000000,63582403.000000
151750000.000000,63525000.000000
151750000.000000,62350000.000000
151738582.000000,62292597.000000
151706066.000000,62243934.000000
151657403.000000,62211418.000000
151600000.000000,62200000.000000
151300000.000000,62200000.000000
151242597.000000,62211418.000000
151193934.000000,62243934.000000
151161418.000000,62292597.000000
151150000.000000,62350000.000000
151150000.000000,63525000.000000
151161418.000000,63582403.000000
151193934.000000,63631066.000000
151242597.000000,63663582.000000
151300000.000000,63675000.000000
Z" /> 
<path style="fill:#000000; fill-opacity:1.0; 
stroke:#000000; stroke-width:1.000000; stroke-opacity:1; 
stroke-linecap:round; stroke-linejoin:round;fill-rule:evenodd;"
d="M 150650000.000000,61800000.000000
150707403.000000,61788582.000000
150756066.000000,61756066.000000
150788582.000000,61707403.000000
150800000.000000,61650000.000000
150800000.000000,60475000.000000
150788582.000000,60417597.000000
150756066.000000,60368934.000000
150707403.000000,60336418.000000
150650000.000000,60325000.000000
150350000.000000,60325000.000000
150292597.000000,60336418.000000
150243934.000000,60368934.000000
150211418.000000,60417597.000000
150200000.000000,60475000.000000
150200000.000000,61650000.000000
150211418.000000,61707403.000000
150243934.000000,61756066.000000
150292597.000000,61788582.000000
150350000.000000,61800000.000000
Z" /> 
</g>
<g >
</g>
<g style="fill:#000000; fill-opacity:1.0; 
stroke:#000000; stroke-width:1.000000; stroke-opacity:1; 
stroke-linecap:round; stroke-linejoin:round;">
<path style="fill:#000000; fill-opacity:1.0; 
stroke:#000000; stroke-width:1.000000; stroke-opacity:1; 
stroke-linecap:round; stroke-linejoin:round;fill-rule:evenodd;"
d="M 150900001.000000,70974999.000000
150900001.000000,70525001.000000
151499999.000000,70525001.000000
151499999.000000,70974999.000000
Z" /> 
<path style="fill:#000000; fill-opacity:1.0; 
stroke:#000000; stroke-width:1.000000; stroke-opacity:1; 
stroke-linecap:round; stroke-linejoin:round;fill-rule:evenodd;"
d="M 153000001.000000,70974999.000000
153000001.000000,70525001.000000
153599999.000000,70525001.000000
153599999.000000,70974999.000000
Z" /> 
</g>
<g >
</g>
<g style="fill:#000000; fill-opacity:1.0; 
stroke:#000000; stroke-width:1.000000; stroke-opacity:1; 
stroke-linecap:round; stroke-linejoin:round;">
<path style="fill:#000000; fill-opacity:1.0; 
stroke:#000000; stroke-width:1.000000; stroke-opacity:1; 
stroke-linecap:round; stroke-linejoin:round;fill-rule:evenodd;"
d="M 134775000.000000,70000000.000000
134679329.000000,70019030.000000
134598223.000000,70073223.000000
134544030.000000,70154329.000000
134525000.000000,70250000.000000
134525000.000000,70775000.000000
134544030.000000,70870671.000000
134598223.000000,70951777.000000
134679329.000000,71005970.000000
134775000.000000,71025000.000000
135675000.000000,71025000.000000
135770671.000000,71005970.000000
135851777.000000,70951777.000000
135905970.000000,70870671.000000
135925000.000000,70775000.000000
135925000.000000,70250000.000000
135905970.000000,70154329.000000
135851777.000000,70073223.000000
135770671.000000,70019030.000000
135675000.000000,70000000.000000
Z" /> 
<path style="fill:#000000; fill-opacity:1.0; 
stroke:#000000; stroke-width:1.000000; stroke-opacity:1; 
stroke-linecap:round; stroke-linejoin:round;fill-rule:evenodd;"
d="M 134775000.000000,71825000.000000
134679329.000000,71844030.000000
134598223.000000,71898223.000000
134544030.000000,71979329.000000
134525000.000000,72075000.000000
134525000.000000,72600000.000000
134544030.000000,72695671.000000
134598223.000000,72776777.000000
134679329.000000,72830970.000000
134775000.000000,72850000.000000
135675000.000000,72850000.000000
135770671.000000,72830970.000000
135851777.000000,72776777.000000
135905970.000000,72695671.000000
135925000.000000,72600000.000000
135925000.000000,72075000.000000
135905970.000000,71979329.000000
135851777.000000,71898223.000000
135770671.000000,71844030.000000
135675000.000000,71825000.000000
Z" /> 
</g>
<g >
</g>
<g >
</g>
<g style="fill:#000000; fill-opacity:1.0; 
stroke:#000000; stroke-width:1.000000; stroke-opacity:1; 
stroke-linecap:round; stroke-linejoin:round;">
<path style="fill:#000000; fill-opacity:1.0; 
stroke:#000000; stroke-width:1.000000; stroke-opacity:1; 
stroke-linecap:round; stroke-linejoin:round;fill-rule:evenodd;"
d="M 153200000.000000,63675000.000000
153257403.000000,63663582.000000
153306066.000000,63631066.000000
153338582.000000,63582403.000000
153350000.000000,63525000.000000
153350000.000000,62350000.000000
153338582.000000,62292597.000000
153306066.000000,62243934.000000
153257403.000000,62211418.000000
153200000.000000,62200000.000000
152900000.000000,62200000.000000
152842597.000000,62211418.000000
152793934.000000,62243934.000000
152761418.000000,62292597.000000
152750000.000000,62350000.000000
152750000.000000,63525000.000000
152761418.000000,63582403.000000
152793934.000000,63631066.000000
152842597.000000,63663582.000000
152900000.000000,63675000.000000
Z" /> 
<path style="fill:#000000; fill-opacity:1.0; 
stroke:#000000; stroke-width:1.000000; stroke-opacity:1; 
stroke-linecap:round; stroke-linejoin:round;fill-rule:evenodd;"
d="M 155100000.000000,63675000.000000
155157403.000000,63663582.000000
155206066.000000,63631066.000000
155238582.000000,63582403.000000
155250000.000000,63525000.000000
155250000.000000,62350000.000000
155238582.000000,62292597.000000
155206066.000000,62243934.000000
155157403.000000,62211418.000000
155100000.000000,62200000.000000
154800000.000000,62200000.000000
154742597.000000,62211418.000000
154693934.000000,62243934.000000
154661418.000000,62292597.000000
154650000.000000,62350000.000000
154650000.000000,63525000.000000
154661418.000000,63582403.000000
154693934.000000,63631066.000000
154742597.000000,63663582.000000
154800000.000000,63675000.000000
Z" /> 
<path style="fill:#000000; fill-opacity:1.0; 
stroke:#000000; stroke-width:1.000000; stroke-opacity:1; 
stroke-linecap:round; stroke-linejoin:round;fill-rule:evenodd;"
d="M 154150000.000000,61800000.000000
154207403.000000,61788582.000000
154256066.000000,61756066.000000
154288582.000000,61707403.000000
154300000.000000,61650000.000000
154300000.000000,60475000.000000
154288582.000000,60417597.000000
154256066.000000,60368934.000000
154207403.000000,60336418.000000
154150000.000000,60325000.000000
153850000.000000,60325000.000000
153792597.000000,60336418.000000
153743934.000000,60368934.000000
153711418.000000,60417597.000000
153700000.000000,60475000.000000
153700000.000000,61650000.000000
153711418.000000,61707403.000000
153743934.000000,61756066.000000
153792597.000000,61788582.000000
153850000.000000,61800000.000000
Z" /> 
</g>
<g >
</g>
<g style="fill:#000000; fill-opacity:1.0; 
stroke:#000000; stroke-width:1.000000; stroke-opacity:1; 
stroke-linecap:round; stroke-linejoin:round;">
<path style="fill:#000000; fill-opacity:1.0; 
stroke:#000000; stroke-width:1.000000; stroke-opacity:1; 
stroke-linecap:round; stroke-linejoin:round;fill-rule:evenodd;"
d="M 130025000.000000,58550000.000000
129929329.000000,58569030.000000
129848223.000000,58623223.000000
129794030.000000,58704329.000000
129775000.000000,58800000.000000
129775000.000000,59300000.000000
129794030.000000,59395671.000000
129848223.000000,59476777.000000
129929329.000000,59530970.000000
130025000.000000,59550000.000000
130975000.000000,59550000.000000
131070671.000000,59530970.000000
131151777.000000,59476777.000000
131205970.000000,59395671.000000
131225000.000000,59300000.000000
131225000.000000,58800000.000000
131205970.000000,58704329.000000
131151777.000000,58623223.000000
131070671.000000,58569030.000000
130975000.000000,58550000.000000
Z" /> 
<path style="fill:#000000; fill-opacity:1.0; 
stroke:#000000; stroke-width:1.000000; stroke-opacity:1; 
stroke-linecap:round; stroke-linejoin:round;fill-rule:evenodd;"
d="M 130025000.000000,60450000.000000
129929329.000000,60469030.000000
129848223.000000,60523223.000000
129794030.000000,60604329.000000
129775000.000000,60700000.000000
129775000.000000,61200000.000000
129794030.000000,61295671.000000
129848223.000000,61376777.000000
129929329.000000,61430970.000000
130025000.000000,61450000.000000
130975000.000000,61450000.000000
131070671.000000,61430970.000000
131151777.000000,61376777.000000
131205970.000000,61295671.000000
131225000.000000,61200000.000000
131225000.000000,60700000.000000
131205970.000000,60604329.000000
131151777.000000,60523223.000000
131070671.000000,60469030.000000
130975000.000000,60450000.000000
Z" /> 
</g>
<g >
</g>
<g style="fill:#000000; fill-opacity:1.0; 
stroke:#000000; stroke-width:1.000000; stroke-opacity:1; 
stroke-linecap:round; stroke-linejoin:round;">
<path style="fill:#000000; fill-opacity:1.0; 
stroke:#000000; stroke-width:1.000000; stroke-opacity:1; 
stroke-linecap:round; stroke-linejoin:round;fill-rule:evenodd;"
d="M 152550000.000000,65475000.000000
152569030.000000,65570671.000000
152623223.000000,65651777.000000
152704329.000000,65705970.000000
152800000.000000,65725000.000000
153300000.000000,65725000.000000
153395671.000000,65705970.000000
153476777.000000,65651777.000000
153530970.000000,65570671.000000
153550000.000000,65475000.000000
153550000.000000,64525000.000000
153530970.000000,64429329.000000
153476777.000000,64348223.000000
153395671.000000,64294030.000000
153300000.000000,64275000.000000
152800000.000000,64275000.000000
152704329.000000,64294030.000000
152623223.000000,64348223.000000
152569030.000000,64429329.000000
152550000.000000,64525000.000000
Z" /> 
<path style="fill:#000000; fill-opacity:1.0; 
stroke:#000000; stroke-width:1.000000; stroke-opacity:1; 
stroke-linecap:round; stroke-linejoin:round;fill-rule:evenodd;"
d="M 154450000.000000,65475000.000000
154469030.000000,65570671.000000
154523223.000000,65651777.000000
154604329.000000,65705970.000000
154700000.000000,65725000.000000
155200000.000000,65725000.000000
155295671.000000,65705970.000000
155376777.000000,65651777.000000
155430970.000000,65570671.000000
155450000.000000,65475000.000000
155450000.000000,64525000.000000
155430970.000000,64429329.000000
155376777.000000,64348223.000000
155295671.000000,64294030.000000
155200000.000000,64275000.000000
154700000.000000,64275000.000000
154604329.000000,64294030.000000
154523223.000000,64348223.000000
154469030.000000,64429329.000000
154450000.000000,64525000.000000
Z" /> 
</g>
<g >
</g>
<g >
</g>
<g style="fill:#000000; fill-opacity:1.0; 
stroke:#000000; stroke-width:1.000000; stroke-opacity:1; 
stroke-linecap:round; stroke-linejoin:round;">
<path style="fill:#000000; fill-opacity:1.0; 
stroke:#000000; stroke-width:1.000000; stroke-opacity:1; 
stroke-linecap:round; stroke-linejoin:round;fill-rule:evenodd;"
d="M 164625000.000000,64295000.000000
164529329.000000,64314030.000000
164448223.000000,64368223.000000
164394030.000000,64449329.000000
164375000.000000,64545000.000000
164375000.000000,65170000.000000
164394030.000000,65265671.000000
164448223.000000,65346777.000000
164529329.000000,65400970.000000
164625000.000000,65420000.000000
165875000.000000,65420000.000000
165970671.000000,65400970.000000
166051777.000000,65346777.000000
166105970.000000,65265671.000000
166125000.000000,65170000.000000
166125000.000000,64545000.000000
166105970.000000,64449329.000000
166051777.000000,64368223.000000
165970671.000000,64314030.000000
165875000.000000,64295000.000000
Z" /> 
<path style="fill:#000000; fill-opacity:1.0; 
stroke:#000000; stroke-width:1.000000; stroke-opacity:1; 
stroke-linecap:round; stroke-linejoin:round;fill-rule:evenodd;"
d="M 164625000.000000,67220000.000000
164529329.000000,67239030.000000
164448223.000000,67293223.000000
164394030.000000,67374329.000000
164375000.000000,67470000.000000
164375000.000000,68095000.000000
164394030.000000,68190671.000000
164448223.000000,68271777.000000
164529329.000000,68325970.000000
164625000.000000,68345000.000000
165875000.000000,68345000.000000
165970671.000000,68325970.000000
166051777.000000,68271777.000000
166105970.000000,68190671.000000
166125000.000000,68095000.000000
166125000.000000,67470000.000000
166105970.000000,67374329.000000
166051777.000000,67293223.000000
165970671.000000,67239030.000000
165875000.000000,67220000.000000
Z" /> 
</g>
<g >
</g>
<g style="fill:#000000; fill-opacity:1.0; 
stroke:#000000; stroke-width:1.000000; stroke-opacity:1; 
stroke-linecap:round; stroke-linejoin:round;">
<path style="fill:#000000; fill-opacity:1.0; 
stroke:#000000; stroke-width:1.000000; stroke-opacity:1; 
stroke-linecap:round; stroke-linejoin:round;fill-rule:evenodd;"
d="M 137550000.000000,59475000.000000
137569030.000000,59570671.000000
137623223.000000,59651777.000000
137704329.000000,59705970.000000
137800000.000000,59725000.000000
138300000.000000,59725000.000000
138395671.000000,59705970.000000
138476777.000000,59651777.000000
138530970.000000,59570671.000000
138550000.000000,59475000.000000
138550000.000000,58525000.000000
138530970.000000,58429329.000000
138476777.000000,58348223.000000
138395671.000000,58294030.000000
138300000.000000,58275000.000000
137800000.000000,58275000.000000
137704329.000000,58294030.000000
137623223.000000,58348223.000000
137569030.000000,58429329.000000
137550000.000000,58525000.000000
Z" /> 
<path style="fill:#000000; fill-opacity:1.0; 
stroke:#000000; stroke-width:1.000000; stroke-opacity:1; 
stroke-linecap:round; stroke-linejoin:round;fill-rule:evenodd;"
d="M 139450000.000000,59475000.000000
139469030.000000,59570671.000000
139523223.000000,59651777.000000
139604329.000000,59705970.000000
139700000.000000,59725000.000000
140200000.000000,59725000.000000
140295671.000000,59705970.000000
140376777.000000,59651777.000000
140430970.000000,59570671.000000
140450000.000000,59475000.000000
140450000.000000,58525000.000000
140430970.000000,58429329.000000
140376777.000000,58348223.000000
140295671.000000,58294030.000000
140200000.000000,58275000.000000
139700000.000000,58275000.000000
139604329.000000,58294030.000000
139523223.000000,58348223.000000
139469030.000000,58429329.000000
139450000.000000,58525000.000000
Z" /> 
</g>
<g >
</g>
<g style="fill:#000000; fill-opacity:1.0; 
stroke:#000000; stroke-width:1.000000; stroke-opacity:1; 
stroke-linecap:round; stroke-linejoin:round;">
<path style="fill:#000000; fill-opacity:1.0; 
stroke:#000000; stroke-width:1.000000; stroke-opacity:1; 
stroke-linecap:round; stroke-linejoin:round;fill-rule:evenodd;"
d="M 156050100.000000,69187000.000000
155954391.000000,69206038.000000
155873253.000000,69260253.000000
155819038.000000,69341391.000000
155800000.000000,69437100.000000
155800000.000000,69961900.000000
155819038.000000,70057609.000000
155873253.000000,70138747.000000
155954391.000000,70192962.000000
156050100.000000,70212000.000000
156949900.000000,70212000.000000
157045609.000000,70192962.000000
157126747.000000,70138747.000000
157180962.000000,70057609.000000
157200000.000000,69961900.000000
157200000.000000,69437100.000000
157180962.000000,69341391.000000
157126747.000000,69260253.000000
157045609.000000,69206038.000000
156949900.000000,69187000.000000
Z" /> 
<path style="fill:#000000; fill-opacity:1.0; 
stroke:#000000; stroke-width:1.000000; stroke-opacity:1; 
stroke-linecap:round; stroke-linejoin:round;fill-rule:evenodd;"
d="M 156050000.000000,71012000.000000
155954329.000000,71031030.000000
155873223.000000,71085223.000000
155819030.000000,71166329.000000
155800000.000000,71262000.000000
155800000.000000,71787000.000000
155819030.000000,71882671.000000
155873223.000000,71963777.000000
155954329.000000,72017970.000000
156050000.000000,72037000.000000
156950000.000000,72037000.000000
157045671.000000,72017970.000000
157126777.000000,71963777.000000
157180970.000000,71882671.000000
157200000.000000,71787000.000000
157200000.000000,71262000.000000
157180970.000000,71166329.000000
157126777.000000,71085223.000000
157045671.000000,71031030.000000
156950000.000000,71012000.000000
Z" /> 
</g>
<g >
</g>
<g style="fill:#000000; fill-opacity:1.0; 
stroke:#000000; stroke-width:1.000000; stroke-opacity:1; 
stroke-linecap:round; stroke-linejoin:round;">
<path style="fill:#000000; fill-opacity:1.0; 
stroke:#000000; stroke-width:1.000000; stroke-opacity:1; 
stroke-linecap:round; stroke-linejoin:round;fill-rule:evenodd;"
d="M 138550000.000000,65475000.000000
138569030.000000,65570671.000000
138623223.000000,65651777.000000
138704329.000000,65705970.000000
138800000.000000,65725000.000000
139300000.000000,65725000.000000
139395671.000000,65705970.000000
139476777.000000,65651777.000000
139530970.000000,65570671.000000
139550000.000000,65475000.000000
139550000.000000,64525000.000000
139530970.000000,64429329.000000
139476777.000000,64348223.000000
139395671.000000,64294030.000000
139300000.000000,64275000.000000
138800000.000000,64275000.000000
138704329.000000,64294030.000000
138623223.000000,64348223.000000
138569030.000000,64429329.000000
138550000.000000,64525000.000000
Z" /> 
<path style="fill:#000000; fill-opacity:1.0; 
stroke:#000000; stroke-width:1.000000; stroke-opacity:1; 
stroke-linecap:round; stroke-linejoin:round;fill-rule:evenodd;"
d="M 140450000.000000,65475000.000000
140469030.000000,65570671.000000
140523223.000000,65651777.000000
140604329.000000,65705970.000000
140700000.000000,65725000.000000
141200000.000000,65725000.000000
141295671.000000,65705970.000000
141376777.000000,65651777.000000
141430970.000000,65570671.000000
141450000.000000,65475000.000000
141450000.000000,64525000.000000
141430970.000000,64429329.000000
141376777.000000,64348223.000000
141295671.000000,64294030.000000
141200000.000000,64275000.000000
140700000.000000,64275000.000000
140604329.000000,64294030.000000
140523223.000000,64348223.000000
140469030.000000,64429329.000000
140450000.000000,64525000.000000
Z" /> 
</g>
<g >
</g>
<g style="fill:#000000; fill-opacity:1.0; 
stroke:#000000; stroke-width:1.000000; stroke-opacity:1; 
stroke-linecap:round; stroke-linejoin:round;">
<path style="fill:#000000; fill-opacity:1.0; 
stroke:#000000; stroke-width:1.000000; stroke-opacity:1; 
stroke-linecap:round; stroke-linejoin:round;fill-rule:evenodd;"
d="M 149050000.000000,65475000.000000
149069030.000000,65570671.000000
149123223.000000,65651777.000000
149204329.000000,65705970.000000
149300000.000000,65725000.000000
149800000.000000,65725000.000000
149895671.000000,65705970.000000
149976777.000000,65651777.000000
150030970.000000,65570671.000000
150050000.000000,65475000.000000
150050000.000000,64525000.000000
150030970.000000,64429329.000000
149976777.000000,64348223.000000
149895671.000000,64294030.000000
149800000.000000,64275000.000000
149300000.000000,64275000.000000
149204329.000000,64294030.000000
149123223.000000,64348223.000000
149069030.000000,64429329.000000
149050000.000000,64525000.000000
Z" /> 
<path style="fill:#000000; fill-opacity:1.0; 
stroke:#000000; stroke-width:1.000000; stroke-opacity:1; 
stroke-linecap:round; stroke-linejoin:round;fill-rule:evenodd;"
d="M 150950000.000000,65475000.000000
150969030.000000,65570671.000000
151023223.000000,65651777.000000
151104329.000000,65705970.000000
151200000.000000,65725000.000000
151700000.000000,65725000.000000
151795671.000000,65705970.000000
151876777.000000,65651777.000000
151930970.000000,65570671.000000
151950000.000000,65475000.000000
151950000.000000,64525000.000000
151930970.000000,64429329.000000
151876777.000000,64348223.000000
151795671.000000,64294030.000000
151700000.000000,64275000.000000
151200000.000000,64275000.000000
151104329.000000,64294030.000000
151023223.000000,64348223.000000
150969030.000000,64429329.000000
150950000.000000,64525000.000000
Z" /> 
</g>
<g >
</g>
<g style="fill:#000000; fill-opacity:1.0; 
stroke:#000000; stroke-width:1.000000; stroke-opacity:1; 
stroke-linecap:round; stroke-linejoin:round;">
<path style="fill:#000000; fill-opacity:1.0; 
stroke:#000000; stroke-width:1.000000; stroke-opacity:1; 
stroke-linecap:round; stroke-linejoin:round;fill-rule:evenodd;"
d="M 145550000.000000,65475000.000000
145569030.000000,65570671.000000
145623223.000000,65651777.000000
145704329.000000,65705970.000000
145800000.000000,65725000.000000
146300000.000000,65725000.000000
146395671.000000,65705970.000000
146476777.000000,65651777.000000
146530970.000000,65570671.000000
146550000.000000,65475000.000000
146550000.000000,64525000.000000
146530970.000000,64429329.000000
146476777.000000,64348223.000000
146395671.000000,64294030.000000
146300000.000000,64275000.000000
145800000.000000,64275000.000000
145704329.000000,64294030.000000
145623223.000000,64348223.000000
145569030.000000,64429329.000000
145550000.000000,64525000.000000
Z" /> 
<path style="fill:#000000; fill-opacity:1.0; 
stroke:#000000; stroke-width:1.000000; stroke-opacity:1; 
stroke-linecap:round; stroke-linejoin:round;fill-rule:evenodd;"
d="M 147450000.000000,65475000.000000
147469030.000000,65570671.000000
147523223.000000,65651777.000000
147604329.000000,65705970.000000
147700000.000000,65725000.000000
148200000.000000,65725000.000000
148295671.000000,65705970.000000
148376777.000000,65651777.000000
148430970.000000,65570671.000000
148450000.000000,65475000.000000
148450000.000000,64525000.000000
148430970.000000,64429329.000000
148376777.000000,64348223.000000
148295671.000000,64294030.000000
148200000.000000,64275000.000000
147700000.000000,64275000.000000
147604329.000000,64294030.000000
147523223.000000,64348223.000000
147469030.000000,64429329.000000
147450000.000000,64525000.000000
Z" /> 
</g>
<g >
</g>
<g >
</g>
<g >
</g>
<g style="fill:#000000; fill-opacity:1.0; 
stroke:#000000; stroke-width:1.000000; stroke-opacity:1; 
stroke-linecap:round; stroke-linejoin:round;">
<path style="fill:#000000; fill-opacity:1.0; 
stroke:#000000; stroke-width:1.000000; stroke-opacity:1; 
stroke-linecap:round; stroke-linejoin:round;fill-rule:evenodd;"
d="M 132650001.000000,58000001.000000
136349999.000000,58000001.000000
136349999.000000,59199999.000000
132650001.000000,59199999.000000
Z" /> 
<path style="fill:#000000; fill-opacity:1.0; 
stroke:#000000; stroke-width:1.000000; stroke-opacity:1; 
stroke-linecap:round; stroke-linejoin:round;fill-rule:evenodd;"
d="M 132650001.000000,60800001.000000
136349999.000000,60800001.000000
136349999.000000,61999999.000000
132650001.000000,61999999.000000
Z" /> 
</g>
<g >
</g>
<g style="fill:#000000; fill-opacity:1.0; 
stroke:#000000; stroke-width:1.000000; stroke-opacity:1; 
stroke-linecap:round; stroke-linejoin:round;">
<path style="fill:#000000; fill-opacity:1.0; 
stroke:#000000; stroke-width:1.000000; stroke-opacity:1; 
stroke-linecap:round; stroke-linejoin:round;fill-rule:evenodd;"
d="M 139539000.000000,68268000.000000
139558030.000000,68363671.000000
139612223.000000,68444777.000000
139693329.000000,68498970.000000
139789000.000000,68518000.000000
140314000.000000,68518000.000000
140409671.000000,68498970.000000
140490777.000000,68444777.000000
140544970.000000,68363671.000000
140564000.000000,68268000.000000
140564000.000000,67368000.000000
140544970.000000,67272329.000000
140490777.000000,67191223.000000
140409671.000000,67137030.000000
140314000.000000,67118000.000000
139789000.000000,67118000.000000
139693329.000000,67137030.000000
139612223.000000,67191223.000000
139558030.000000,67272329.000000
139539000.000000,67368000.000000
Z" /> 
<path style="fill:#000000; fill-opacity:1.0; 
stroke:#000000; stroke-width:1.000000; stroke-opacity:1; 
stroke-linecap:round; stroke-linejoin:round;fill-rule:evenodd;"
d="M 141364000.000000,68268000.000000
141383030.000000,68363671.000000
141437223.000000,68444777.000000
141518329.000000,68498970.000000
141614000.000000,68518000.000000
142139000.000000,68518000.000000
142234671.000000,68498970.000000
142315777.000000,68444777.000000
142369970.000000,68363671.000000
142389000.000000,68268000.000000
142389000.000000,67368000.000000
142369970.000000,67272329.000000
142315777.000000,67191223.000000
142234671.000000,67137030.000000
142139000.000000,67118000.000000
141614000.000000,67118000.000000
141518329.000000,67137030.000000
141437223.000000,67191223.000000
141383030.000000,67272329.000000
141364000.000000,67368000.000000
Z" /> 
</g>
<g >
</g>
<g style="fill:#000000; fill-opacity:1.0; 
stroke:#000000; stroke-width:1.000000; stroke-opacity:1; 
stroke-linecap:round; stroke-linejoin:round;">
<path style="fill:#000000; fill-opacity:1.0; 
stroke:#000000; stroke-width:1.000000; stroke-opacity:1; 
stroke-linecap:round; stroke-linejoin:round;fill-rule:evenodd;"
d="M 156138000.000000,65475000.000000
156157030.000000,65570671.000000
156211223.000000,65651777.000000
156292329.000000,65705970.000000
156388000.000000,65725000.000000
156888000.000000,65725000.000000
156983671.000000,65705970.000000
157064777.000000,65651777.000000
157118970.000000,65570671.000000
157138000.000000,65475000.000000
157138000.000000,64525000.000000
157118970.000000,64429329.000000
157064777.000000,64348223.000000
156983671.000000,64294030.000000
156888000.000000,64275000.000000
156388000.000000,64275000.000000
156292329.000000,64294030.000000
156211223.000000,64348223.000000
156157030.000000,64429329.000000
156138000.000000,64525000.000000
Z" /> 
<path style="fill:#000000; fill-opacity:1.0; 
stroke:#000000; stroke-width:1.000000; stroke-opacity:1; 
stroke-linecap:round; stroke-linejoin:round;fill-rule:evenodd;"
d="M 158038000.000000,65475000.000000
158057030.000000,65570671.000000
158111223.000000,65651777.000000
158192329.000000,65705970.000000
158288000.000000,65725000.000000
158788000.000000,65725000.000000
158883671.000000,65705970.000000
158964777.000000,65651777.000000
159018970.000000,65570671.000000
159038000.000000,65475000.000000
159038000.000000,64525000.000000
159018970.000000,64429329.000000
158964777.000000,64348223.000000
158883671.000000,64294030.000000
158788000.000000,64275000.000000
158288000.000000,64275000.000000
158192329.000000,64294030.000000
158111223.000000,64348223.000000
158057030.000000,64429329.000000
158038000.000000,64525000.000000
Z" /> 
</g>
<g >
</g>
<g style="fill:#000000; fill-opacity:1.0; 
stroke:#000000; stroke-width:1.000000; stroke-opacity:1; 
stroke-linecap:round; stroke-linejoin:round;">
<path style="fill:#000000; fill-opacity:1.0; 
stroke:#000000; stroke-width:1.000000; stroke-opacity:1; 
stroke-linecap:round; stroke-linejoin:round;fill-rule:evenodd;"
d="M 142390000.000000,76856000.000000
142447403.000000,76844582.000000
142496066.000000,76812066.000000
142528582.000000,76763403.000000
142540000.000000,76706000.000000
142540000.000000,75056000.000000
142528582.000000,74998597.000000
142496066.000000,74949934.000000
142447403.000000,74917418.000000
142390000.000000,74906000.000000
142090000.000000,74906000.000000
142032597.000000,74917418.000000
141983934.000000,74949934.000000
141951418.000000,74998597.000000
141940000.000000,75056000.000000
141940000.000000,76706000.000000
141951418.000000,76763403.000000
141983934.000000,76812066.000000
142032597.000000,76844582.000000
142090000.000000,76856000.000000
Z" /> 
<path style="fill:#000000; fill-opacity:1.0; 
stroke:#000000; stroke-width:1.000000; stroke-opacity:1; 
stroke-linecap:round; stroke-linejoin:round;fill-rule:evenodd;"
d="M 143660000.000000,76856000.000000
143717403.000000,76844582.000000
143766066.000000,76812066.000000
143798582.000000,76763403.000000
143810000.000000,76706000.000000
143810000.000000,75056000.000000
143798582.000000,74998597.000000
143766066.000000,74949934.000000
143717403.000000,74917418.000000
143660000.000000,74906000.000000
143360000.000000,74906000.000000
143302597.000000,74917418.000000
143253934.000000,74949934.000000
143221418.000000,74998597.000000
143210000.000000,75056000.000000
143210000.000000,76706000.000000
143221418.000000,76763403.000000
143253934.000000,76812066.000000
143302597.000000,76844582.000000
143360000.000000,76856000.000000
Z" /> 
<path style="fill:#000000; fill-opacity:1.0; 
stroke:#000000; stroke-width:1.000000; stroke-opacity:1; 
stroke-linecap:round; stroke-linejoin:round;fill-rule:evenodd;"
d="M 144930000.000000,76856000.000000
144987403.000000,76844582.000000
145036066.000000,76812066.000000
145068582.000000,76763403.000000
145080000.000000,76706000.000000
145080000.000000,75056000.000000
145068582.000000,74998597.000000
145036066.000000,74949934.000000
144987403.000000,74917418.000000
144930000.000000,74906000.000000
144630000.000000,74906000.000000
144572597.000000,74917418.000000
144523934.000000,74949934.000000
144491418.000000,74998597.000000
144480000.000000,75056000.000000
144480000.000000,76706000.000000
144491418.000000,76763403.000000
144523934.000000,76812066.000000
144572597.000000,76844582.000000
144630000.000000,76856000.000000
Z" /> 
<path style="fill:#000000; fill-opacity:1.0; 
stroke:#000000; stroke-width:1.000000; stroke-opacity:1; 
stroke-linecap:round; stroke-linejoin:round;fill-rule:evenodd;"
d="M 146200000.000000,76856000.000000
146257403.000000,76844582.000000
146306066.000000,76812066.000000
146338582.000000,76763403.000000
146350000.000000,76706000.000000
146350000.000000,75056000.000000
146338582.000000,74998597.000000
146306066.000000,74949934.000000
146257403.000000,74917418.000000
146200000.000000,74906000.000000
145900000.000000,74906000.000000
145842597.000000,74917418.000000
145793934.000000,74949934.000000
145761418.000000,74998597.000000
145750000.000000,75056000.000000
145750000.000000,76706000.000000
145761418.000000,76763403.000000
145793934.000000,76812066.000000
145842597.000000,76844582.000000
145900000.000000,76856000.000000
Z" /> 
<path style="fill:#000000; fill-opacity:1.0; 
stroke:#000000; stroke-width:1.000000; stroke-opacity:1; 
stroke-linecap:round; stroke-linejoin:round;fill-rule:evenodd;"
d="M 147470000.000000,76856000.000000
147527403.000000,76844582.000000
147576066.000000,76812066.000000
147608582.000000,76763403.000000
147620000.000000,76706000.000000
147620000.000000,75056000.000000
147608582.000000,74998597.000000
147576066.000000,74949934.000000
147527403.000000,74917418.000000
147470000.000000,74906000.000000
147170000.000000,74906000.000000
147112597.000000,74917418.000000
147063934.000000,74949934.000000
147031418.000000,74998597.000000
147020000.000000,75056000.000000
147020000.000000,76706000.000000
147031418.000000,76763403.000000
147063934.000000,76812066.000000
147112597.000000,76844582.000000
147170000.000000,76856000.000000
Z" /> 
<path style="fill:#000000; fill-opacity:1.0; 
stroke:#000000; stroke-width:1.000000; stroke-opacity:1; 
stroke-linecap:round; stroke-linejoin:round;fill-rule:evenodd;"
d="M 148740000.000000,76856000.000000
148797403.000000,76844582.000000
148846066.000000,76812066.000000
148878582.000000,76763403.000000
148890000.000000,76706000.000000
148890000.000000,75056000.000000
148878582.000000,74998597.000000
148846066.000000,74949934.000000
148797403.000000,74917418.000000
148740000.000000,74906000.000000
148440000.000000,74906000.000000
148382597.000000,74917418.000000
148333934.000000,74949934.000000
148301418.000000,74998597.000000
148290000.000000,75056000.000000
148290000.000000,76706000.000000
148301418.000000,76763403.000000
148333934.000000,76812066.000000
148382597.000000,76844582.000000
148440000.000000,76856000.000000
Z" /> 
<path style="fill:#000000; fill-opacity:1.0; 
stroke:#000000; stroke-width:1.000000; stroke-opacity:1; 
stroke-linecap:round; stroke-linejoin:round;fill-rule:evenodd;"
d="M 150010000.000000,76856000.000000
150067403.000000,76844582.000000
150116066.000000,76812066.000000
150148582.000000,76763403.000000
150160000.000000,76706000.000000
150160000.000000,75056000.000000
150148582.000000,74998597.000000
150116066.000000,74949934.000000
150067403.000000,74917418.000000
150010000.000000,74906000.000000
149710000.000000,74906000.000000
149652597.000000,74917418.000000
149603934.000000,74949934.000000
149571418.000000,74998597.000000
149560000.000000,75056000.000000
149560000.000000,76706000.000000
149571418.000000,76763403.000000
149603934.000000,76812066.000000
149652597.000000,76844582.000000
149710000.000000,76856000.000000
Z" /> 
<path style="fill:#000000; fill-opacity:1.0; 
stroke:#000000; stroke-width:1.000000; stroke-opacity:1; 
stroke-linecap:round; stroke-linejoin:round;fill-rule:evenodd;"
d="M 150010000.000000,71906000.000000
150067403.000000,71894582.000000
150116066.000000,71862066.000000
150148582.000000,71813403.000000
150160000.000000,71756000.000000
150160000.000000,70106000.000000
150148582.000000,70048597.000000
150116066.000000,69999934.000000
150067403.000000,69967418.000000
150010000.000000,69956000.000000
149710000.000000,69956000.000000
149652597.000000,69967418.000000
149603934.000000,69999934.000000
149571418.000000,70048597.000000
149560000.000000,70106000.000000
149560000.000000,71756000.000000
149571418.000000,71813403.000000
149603934.000000,71862066.000000
149652597.000000,71894582.000000
149710000.000000,71906000.000000
Z" /> 
<path style="fill:#000000; fill-opacity:1.0; 
stroke:#000000; stroke-width:1.000000; stroke-opacity:1; 
stroke-linecap:round; stroke-linejoin:round;fill-rule:evenodd;"
d="M 148740000.000000,71906000.000000
148797403.000000,71894582.000000
148846066.000000,71862066.000000
148878582.000000,71813403.000000
148890000.000000,71756000.000000
148890000.000000,70106000.000000
148878582.000000,70048597.000000
148846066.000000,69999934.000000
148797403.000000,69967418.000000
148740000.000000,69956000.000000
148440000.000000,69956000.000000
148382597.000000,69967418.000000
148333934.000000,69999934.000000
148301418.000000,70048597.000000
148290000.000000,70106000.000000
148290000.000000,71756000.000000
148301418.000000,71813403.000000
148333934.000000,71862066.000000
148382597.000000,71894582.000000
148440000.000000,71906000.000000
Z" /> 
<path style="fill:#000000; fill-opacity:1.0; 
stroke:#000000; stroke-width:1.000000; stroke-opacity:1; 
stroke-linecap:round; stroke-linejoin:round;fill-rule:evenodd;"
d="M 147470000.000000,71906000.000000
147527403.000000,71894582.000000
147576066.000000,71862066.000000
147608582.000000,71813403.000000
147620000.000000,71756000.000000
147620000.000000,70106000.000000
147608582.000000,70048597.000000
147576066.000000,69999934.000000
147527403.000000,69967418.000000
147470000.000000,69956000.000000
147170000.000000,69956000.000000
147112597.000000,69967418.000000
147063934.000000,69999934.000000
147031418.000000,70048597.000000
147020000.000000,70106000.000000
147020000.000000,71756000.000000
147031418.000000,71813403.000000
147063934.000000,71862066.000000
147112597.000000,71894582.000000
147170000.000000,71906000.000000
Z" /> 
<path style="fill:#000000; fill-opacity:1.0; 
stroke:#000000; stroke-width:1.000000; stroke-opacity:1; 
stroke-linecap:round; stroke-linejoin:round;fill-rule:evenodd;"
d="M 146200000.000000,71906000.000000
146257403.000000,71894582.000000
146306066.000000,71862066.000000
146338582.000000,71813403.000000
146350000.000000,71756000.000000
146350000.000000,70106000.000000
146338582.000000,70048597.000000
146306066.000000,69999934.000000
146257403.000000,69967418.000000
146200000.000000,69956000.000000
145900000.000000,69956000.000000
145842597.000000,69967418.000000
145793934.000000,69999934.000000
145761418.000000,70048597.000000
145750000.000000,70106000.000000
145750000.000000,71756000.000000
145761418.000000,71813403.000000
145793934.000000,71862066.000000
145842597.000000,71894582.000000
145900000.000000,71906000.000000
Z" /> 
<path style="fill:#000000; fill-opacity:1.0; 
stroke:#000000; stroke-width:1.000000; stroke-opacity:1; 
stroke-linecap:round; stroke-linejoin:round;fill-rule:evenodd;"
d="M 144930000.000000,71906000.000000
144987403.000000,71894582.000000
145036066.000000,71862066.000000
145068582.000000,71813403.000000
145080000.000000,71756000.000000
145080000.000000,70106000.000000
145068582.000000,70048597.000000
145036066.000000,69999934.000000
144987403.000000,69967418.000000
144930000.000000,69956000.000000
144630000.000000,69956000.000000
144572597.000000,69967418.000000
144523934.000000,69999934.000000
144491418.000000,70048597.000000
144480000.000000,70106000.000000
144480000.000000,71756000.000000
144491418.000000,71813403.000000
144523934.000000,71862066.000000
144572597.000000,71894582.000000
144630000.000000,71906000.000000
Z" /> 
<path style="fill:#000000; fill-opacity:1.0; 
stroke:#000000; stroke-width:1.000000; stroke-opacity:1; 
stroke-linecap:round; stroke-linejoin:round;fill-rule:evenodd;"
d="M 143660000.000000,71906000.000000
143717403.000000,71894582.000000
143766066.000000,71862066.000000
143798582.000000,71813403.000000
143810000.000000,71756000.000000
143810000.000000,70106000.000000
143798582.000000,70048597.000000
143766066.000000,69999934.000000
143717403.000000,69967418.000000
143660000.000000,69956000.000000
143360000.000000,69956000.000000
143302597.000000,69967418.000000
143253934.000000,69999934.000000
143221418.000000,70048597.000000
143210000.000000,70106000.000000
143210000.000000,71756000.000000
143221418.000000,71813403.000000
143253934.000000,71862066.000000
143302597.000000,71894582.000000
143360000.000000,71906000.000000
Z" /> 
<path style="fill:#000000; fill-opacity:1.0; 
stroke:#000000; stroke-width:1.000000; stroke-opacity:1; 
stroke-linecap:round; stroke-linejoin:round;fill-rule:evenodd;"
d="M 142390000.000000,71906000.000000
142447403.000000,71894582.000000
142496066.000000,71862066.000000
142528582.000000,71813403.000000
142540000.000000,71756000.000000
142540000.000000,70106000.000000
142528582.000000,70048597.000000
142496066.000000,69999934.000000
142447403.000000,69967418.000000
142390000.000000,69956000.000000
142090000.000000,69956000.000000
142032597.000000,69967418.000000
141983934.000000,69999934.000000
141951418.000000,70048597.000000
141940000.000000,70106000.000000
141940000.000000,71756000.000000
141951418.000000,71813403.000000
141983934.000000,71862066.000000
142032597.000000,71894582.000000
142090000.000000,71906000.000000
Z" /> 
</g>
<g >
</g>
<g style="fill:#000000; fill-opacity:1.0; 
stroke:#000000; stroke-width:1.000000; stroke-opacity:1; 
stroke-linecap:round; stroke-linejoin:round;">
<path style="fill:#000000; fill-opacity:1.0; 
stroke:#000000; stroke-width:1.000000; stroke-opacity:1; 
stroke-linecap:round; stroke-linejoin:round;fill-rule:evenodd;"
d="M 128450000.000000,61425000.000000
128545671.000000,61405970.000000
128626777.000000,61351777.000000
128680970.000000,61270671.000000
128700000.000000,61175000.000000
128700000.000000,60650000.000000
128680970.000000,60554329.000000
128626777.000000,60473223.000000
128545671.000000,60419030.000000
128450000.000000,60400000.000000
127550000.000000,60400000.000000
127454329.000000,60419030.000000
127373223.000000,60473223.000000
127319030.000000,60554329.000000
127300000.000000,60650000.000000
127300000.000000,61175000.000000
127319030.000000,61270671.000000
127373223.000000,61351777.000000
127454329.000000,61405970.000000
127550000.000000,61425000.000000
Z" /> 
<path style="fill:#000000; fill-opacity:1.0; 
stroke:#000000; stroke-width:1.000000; stroke-opacity:1; 
stroke-linecap:round; stroke-linejoin:round;fill-rule:evenodd;"
d="M 128450000.000000,59600000.000000
128545671.000000,59580970.000000
128626777.000000,59526777.000000
128680970.000000,59445671.000000
128700000.000000,59350000.000000
128700000.000000,58825000.000000
128680970.000000,58729329.000000
128626777.000000,58648223.000000
128545671.000000,58594030.000000
128450000.000000,58575000.000000
127550000.000000,58575000.000000
127454329.000000,58594030.000000
127373223.000000,58648223.000000
127319030.000000,58729329.000000
127300000.000000,58825000.000000
127300000.000000,59350000.000000
127319030.000000,59445671.000000
127373223.000000,59526777.000000
127454329.000000,59580970.000000
127550000.000000,59600000.000000
Z" /> 
</g>
<g >
</g>
<g style="fill:#000000; fill-opacity:1.0; 
stroke:#000000; stroke-width:1.000000; stroke-opacity:1; 
stroke-linecap:round; stroke-linejoin:round;">
<path style="fill:#000000; fill-opacity:1.0; 
stroke:#000000; stroke-width:1.000000; stroke-opacity:1; 
stroke-linecap:round; stroke-linejoin:round;fill-rule:evenodd;"
d="M 147889000.000000,67368000.000000
147869970.000000,67272329.000000
147815777.000000,67191223.000000
147734671.000000,67137030.000000
147639000.000000,67118000.000000
147114000.000000,67118000.000000
147018329.000000,67137030.000000
146937223.000000,67191223.000000
146883030.000000,67272329.000000
146864000.000000,67368000.000000
146864000.000000,68268000.000000
146883030.000000,68363671.000000
146937223.000000,68444777.000000
147018329.000000,68498970.000000
147114000.000000,68518000.000000
147639000.000000,68518000.000000
147734671.000000,68498970.000000
147815777.000000,68444777.000000
147869970.000000,68363671.000000
147889000.000000,68268000.000000
Z" /> 
<path style="fill:#000000; fill-opacity:1.0; 
stroke:#000000; stroke-width:1.000000; stroke-opacity:1; 
stroke-linecap:round; stroke-linejoin:round;fill-rule:evenodd;"
d="M 146064000.000000,67368000.000000
146044970.000000,67272329.000000
145990777.000000,67191223.000000
145909671.000000,67137030.000000
145814000.000000,67118000.000000
145289000.000000,67118000.000000
145193329.000000,67137030.000000
145112223.000000,67191223.000000
145058030.000000,67272329.000000
145039000.000000,67368000.000000
145039000.000000,68268000.000000
145058030.000000,68363671.000000
145112223.000000,68444777.000000
145193329.000000,68498970.000000
145289000.000000,68518000.000000
145814000.000000,68518000.000000
145909671.000000,68498970.000000
145990777.000000,68444777.000000
146044970.000000,68363671.000000
146064000.000000,68268000.000000
Z" /> 
</g>
<g >
</g>
<g style="fill:#000000; fill-opacity:1.0; 
stroke:#000000; stroke-width:1.000000; stroke-opacity:1; 
stroke-linecap:round; stroke-linejoin:round;">
<path style="fill:#000000; fill-opacity:1.0; 
stroke:#000000; stroke-width:1.000000; stroke-opacity:1; 
stroke-linecap:round; stroke-linejoin:round;fill-rule:evenodd;"
d="M 151825000.000000,76396000.000000
151844030.000000,76491671.000000
151898223.000000,76572777.000000
151979329.000000,76626970.000000
152075000.000000,76646000.000000
152600000.000000,76646000.000000
152695671.000000,76626970.000000
152776777.000000,76572777.000000
152830970.000000,76491671.000000
152850000.000000,76396000.000000
152850000.000000,75496000.000000
152830970.000000,75400329.000000
152776777.000000,75319223.000000
152695671.000000,75265030.000000
152600000.000000,75246000.000000
152075000.000000,75246000.000000
151979329.000000,75265030.000000
151898223.000000,75319223.000000
151844030.000000,75400329.000000
151825000.000000,75496000.000000
Z" /> 
<path style="fill:#000000; fill-opacity:1.0; 
stroke:#000000; stroke-width:1.000000; stroke-opacity:1; 
stroke-linecap:round; stroke-linejoin:round;fill-rule:evenodd;"
d="M 153650000.000000,76396000.000000
153669030.000000,76491671.000000
153723223.000000,76572777.000000
153804329.000000,76626970.000000
153900000.000000,76646000.000000
154425000.000000,76646000.000000
154520671.000000,76626970.000000
154601777.000000,76572777.000000
154655970.000000,76491671.000000
154675000.000000,76396000.000000
154675000.000000,75496000.000000
154655970.000000,75400329.000000
154601777.000000,75319223.000000
154520671.000000,75265030.000000
154425000.000000,75246000.000000
153900000.000000,75246000.000000
153804329.000000,75265030.000000
153723223.000000,75319223.000000
153669030.000000,75400329.000000
153650000.000000,75496000.000000
Z" /> 
</g>
<g >
</g>
<g style="fill:#000000; fill-opacity:1.0; 
stroke:#000000; stroke-width:1.000000; stroke-opacity:1; 
stroke-linecap:round; stroke-linejoin:round;">
<path style="fill:#000000; fill-opacity:1.0; 
stroke:#000000; stroke-width:1.000000; stroke-opacity:1; 
stroke-linecap:round; stroke-linejoin:round;fill-rule:evenodd;"
d="M 151825000.000000,74110000.000000
151844030.000000,74205671.000000
151898223.000000,74286777.000000
151979329.000000,74340970.000000
152075000.000000,74360000.000000
152600000.000000,74360000.000000
152695671.000000,74340970.000000
152776777.000000,74286777.000000
152830970.000000,74205671.000000
152850000.000000,74110000.000000
152850000.000000,73210000.000000
152830970.000000,73114329.000000
152776777.000000,73033223.000000
152695671.000000,72979030.000000
152600000.000000,72960000.000000
152075000.000000,72960000.000000
151979329.000000,72979030.000000
151898223.000000,73033223.000000
151844030.000000,73114329.000000
151825000.000000,73210000.000000
Z" /> 
<path style="fill:#000000; fill-opacity:1.0; 
stroke:#000000; stroke-width:1.000000; stroke-opacity:1; 
stroke-linecap:round; stroke-linejoin:round;fill-rule:evenodd;"
d="M 153650000.000000,74110000.000000
153669030.000000,74205671.000000
153723223.000000,74286777.000000
153804329.000000,74340970.000000
153900000.000000,74360000.000000
154425000.000000,74360000.000000
154520671.000000,74340970.000000
154601777.000000,74286777.000000
154655970.000000,74205671.000000
154675000.000000,74110000.000000
154675000.000000,73210000.000000
154655970.000000,73114329.000000
154601777.000000,73033223.000000
154520671.000000,72979030.000000
154425000.000000,72960000.000000
153900000.000000,72960000.000000
153804329.000000,72979030.000000
153723223.000000,73033223.000000
153669030.000000,73114329.000000
153650000.000000,73210000.000000
Z" /> 
</g>
<g >
</g>
<g style="fill:#000000; fill-opacity:1.0; 
stroke:#000000; stroke-width:1.000000; stroke-opacity:1; 
stroke-linecap:round; stroke-linejoin:round;">
<path style="fill:#000000; fill-opacity:1.0; 
stroke:#000000; stroke-width:1.000000; stroke-opacity:1; 
stroke-linecap:round; stroke-linejoin:round;fill-rule:evenodd;"
d="M 155138000.000000,59475000.000000
155157030.000000,59570671.000000
155211223.000000,59651777.000000
155292329.000000,59705970.000000
155388000.000000,59725000.000000
155888000.000000,59725000.000000
155983671.000000,59705970.000000
156064777.000000,59651777.000000
156118970.000000,59570671.000000
156138000.000000,59475000.000000
156138000.000000,58525000.000000
156118970.000000,58429329.000000
156064777.000000,58348223.000000
155983671.000000,58294030.000000
155888000.000000,58275000.000000
155388000.000000,58275000.000000
155292329.000000,58294030.000000
155211223.000000,58348223.000000
155157030.000000,58429329.000000
155138000.000000,58525000.000000
Z" /> 
<path style="fill:#000000; fill-opacity:1.0; 
stroke:#000000; stroke-width:1.000000; stroke-opacity:1; 
stroke-linecap:round; stroke-linejoin:round;fill-rule:evenodd;"
d="M 157038000.000000,59475000.000000
157057030.000000,59570671.000000
157111223.000000,59651777.000000
157192329.000000,59705970.000000
157288000.000000,59725000.000000
157788000.000000,59725000.000000
157883671.000000,59705970.000000
157964777.000000,59651777.000000
158018970.000000,59570671.000000
158038000.000000,59475000.000000
158038000.000000,58525000.000000
158018970.000000,58429329.000000
157964777.000000,58348223.000000
157883671.000000,58294030.000000
157788000.000000,58275000.000000
157288000.000000,58275000.000000
157192329.000000,58294030.000000
157111223.000000,58348223.000000
157057030.000000,58429329.000000
157038000.000000,58525000.000000
Z" /> 
</g>
<g >
</g>
<g style="fill:#000000; fill-opacity:1.0; 
stroke:#000000; stroke-width:1.000000; stroke-opacity:1; 
stroke-linecap:round; stroke-linejoin:round;">
<path style="fill:#000000; fill-opacity:1.0; 
stroke:#000000; stroke-width:1.000000; stroke-opacity:1; 
stroke-linecap:round; stroke-linejoin:round;fill-rule:evenodd;"
d="M 142138000.000000,65475000.000000
142157030.000000,65570671.000000
142211223.000000,65651777.000000
142292329.000000,65705970.000000
142388000.000000,65725000.000000
142888000.000000,65725000.000000
142983671.000000,65705970.000000
143064777.000000,65651777.000000
143118970.000000,65570671.000000
143138000.000000,65475000.000000
143138000.000000,64525000.000000
143118970.000000,64429329.000000
143064777.000000,64348223.000000
142983671.000000,64294030.000000
142888000.000000,64275000.000000
142388000.000000,64275000.000000
142292329.000000,64294030.000000
142211223.000000,64348223.000000
142157030.000000,64429329.000000
142138000.000000,64525000.000000
Z" /> 
<path style="fill:#000000; fill-opacity:1.0; 
stroke:#000000; stroke-width:1.000000; stroke-opacity:1; 
stroke-linecap:round; stroke-linejoin:round;fill-rule:evenodd;"
d="M 144038000.000000,65475000.000000
144057030.000000,65570671.000000
144111223.000000,65651777.000000
144192329.000000,65705970.000000
144288000.000000,65725000.000000
144788000.000000,65725000.000000
144883671.000000,65705970.000000
144964777.000000,65651777.000000
145018970.000000,65570671.000000
145038000.000000,65475000.000000
145038000.000000,64525000.000000
145018970.000000,64429329.000000
144964777.000000,64348223.000000
144883671.000000,64294030.000000
144788000.000000,64275000.000000
144288000.000000,64275000.000000
144192329.000000,64294030.000000
144111223.000000,64348223.000000
144057030.000000,64429329.000000
144038000.000000,64525000.000000
Z" /> 
</g>
<g >
</g>
<g >
</g>
<g style="fill:#000000; fill-opacity:1.0; 
stroke:#000000; stroke-width:1.000000; stroke-opacity:1; 
stroke-linecap:round; stroke-linejoin:round;">
<path style="fill:#000000; fill-opacity:1.0; 
stroke:#000000; stroke-width:1.000000; stroke-opacity:1; 
stroke-linecap:round; stroke-linejoin:round;fill-rule:evenodd;"
d="M 127676001.000000,64489999.000000
127676001.000000,62990001.000000
129675999.000000,62990001.000000
129675999.000000,64489999.000000
Z" /> 
<path style="fill:#000000; fill-opacity:1.0; 
stroke:#000000; stroke-width:1.000000; stroke-opacity:1; 
stroke-linecap:round; stroke-linejoin:round;fill-rule:evenodd;"
d="M 133976001.000000,67939999.000000
133976001.000000,64140001.000000
135975999.000000,64140001.000000
135975999.000000,67939999.000000
Z" /> 
<path style="fill:#000000; fill-opacity:1.0; 
stroke:#000000; stroke-width:1.000000; stroke-opacity:1; 
stroke-linecap:round; stroke-linejoin:round;fill-rule:evenodd;"
d="M 127676001.000000,66789999.000000
127676001.000000,65290001.000000
129675999.000000,65290001.000000
129675999.000000,66789999.000000
Z" /> 
<path style="fill:#000000; fill-opacity:1.0; 
stroke:#000000; stroke-width:1.000000; stroke-opacity:1; 
stroke-linecap:round; stroke-linejoin:round;fill-rule:evenodd;"
d="M 127676001.000000,69089999.000000
127676001.000000,67590001.000000
129675999.000000,67590001.000000
129675999.000000,69089999.000000
Z" /> 
</g>
<g >
</g>
<g style="fill:#000000; fill-opacity:1.0; 
stroke:#000000; stroke-width:1.000000; stroke-opacity:1; 
stroke-linecap:round; stroke-linejoin:round;">
<path style="fill:#000000; fill-opacity:1.0; 
stroke:#000000; stroke-width:1.000000; stroke-opacity:1; 
stroke-linecap:round; stroke-linejoin:round;fill-rule:evenodd;"
d="M 160200000.000000,63675000.000000
160257403.000000,63663582.000000
160306066.000000,63631066.000000
160338582.000000,63582403.000000
160350000.000000,63525000.000000
160350000.000000,62350000.000000
160338582.000000,62292597.000000
160306066.000000,62243934.000000
160257403.000000,62211418.000000
160200000.000000,62200000.000000
159900000.000000,62200000.000000
159842597.000000,62211418.000000
159793934.000000,62243934.000000
159761418.000000,62292597.000000
159750000.000000,62350000.000000
159750000.000000,63525000.000000
159761418.000000,63582403.000000
159793934.000000,63631066.000000
159842597.000000,63663582.000000
159900000.000000,63675000.000000
Z" /> 
<path style="fill:#000000; fill-opacity:1.0; 
stroke:#000000; stroke-width:1.000000; stroke-opacity:1; 
stroke-linecap:round; stroke-linejoin:round;fill-rule:evenodd;"
d="M 162100000.000000,63675000.000000
162157403.000000,63663582.000000
162206066.000000,63631066.000000
162238582.000000,63582403.000000
162250000.000000,63525000.000000
162250000.000000,62350000.000000
162238582.000000,62292597.000000
162206066.000000,62243934.000000
162157403.000000,62211418.000000
162100000.000000,62200000.000000
161800000.000000,62200000.000000
161742597.000000,62211418.000000
161693934.000000,62243934.000000
161661418.000000,62292597.000000
161650000.000000,62350000.000000
161650000.000000,63525000.000000
161661418.000000,63582403.000000
161693934.000000,63631066.000000
161742597.000000,63663582.000000
161800000.000000,63675000.000000
Z" /> 
<path style="fill:#000000; fill-opacity:1.0; 
stroke:#000000; stroke-width:1.000000; stroke-opacity:1; 
stroke-linecap:round; stroke-linejoin:round;fill-rule:evenodd;"
d="M 161150000.000000,61800000.000000
161207403.000000,61788582.000000
161256066.000000,61756066.000000
161288582.000000,61707403.000000
161300000.000000,61650000.000000
161300000.000000,60475000.000000
161288582.000000,60417597.000000
161256066.000000,60368934.000000
161207403.000000,60336418.000000
161150000.000000,60325000.000000
160850000.000000,60325000.000000
160792597.000000,60336418.000000
160743934.000000,60368934.000000
160711418.000000,60417597.000000
160700000.000000,60475000.000000
160700000.000000,61650000.000000
160711418.000000,61707403.000000
160743934.000000,61756066.000000
160792597.000000,61788582.000000
160850000.000000,61800000.000000
Z" /> 
</g>
<g >
</g>
<g style="fill:#000000; fill-opacity:1.0; 
stroke:#000000; stroke-width:1.000000; stroke-opacity:1; 
stroke-linecap:round; stroke-linejoin:round;">
<path style="fill:#000000; fill-opacity:1.0; 
stroke:#000000; stroke-width:1.000000; stroke-opacity:1; 
stroke-linecap:round; stroke-linejoin:round;fill-rule:evenodd;"
d="M 158550000.000000,59475000.000000
158569030.000000,59570671.000000
158623223.000000,59651777.000000
158704329.000000,59705970.000000
158800000.000000,59725000.000000
159300000.000000,59725000.000000
159395671.000000,59705970.000000
159476777.000000,59651777.000000
159530970.000000,59570671.000000
159550000.000000,59475000.000000
159550000.000000,58525000.000000
159530970.000000,58429329.000000
159476777.000000,58348223.000000
159395671.000000,58294030.000000
159300000.000000,58275000.000000
158800000.000000,58275000.000000
158704329.000000,58294030.000000
158623223.000000,58348223.000000
158569030.000000,58429329.000000
158550000.000000,58525000.000000
Z" /> 
<path style="fill:#000000; fill-opacity:1.0; 
stroke:#000000; stroke-width:1.000000; stroke-opacity:1; 
stroke-linecap:round; stroke-linejoin:round;fill-rule:evenodd;"
d="M 160450000.000000,59475000.000000
160469030.000000,59570671.000000
160523223.000000,59651777.000000
160604329.000000,59705970.000000
160700000.000000,59725000.000000
161200000.000000,59725000.000000
161295671.000000,59705970.000000
161376777.000000,59651777.000000
161430970.000000,59570671.000000
161450000.000000,59475000.000000
161450000.000000,58525000.000000
161430970.000000,58429329.000000
161376777.000000,58348223.000000
161295671.000000,58294030.000000
161200000.000000,58275000.000000
160700000.000000,58275000.000000
160604329.000000,58294030.000000
160523223.000000,58348223.000000
160469030.000000,58429329.000000
160450000.000000,58525000.000000
Z" /> 
</g>
<g >
</g>
<g style="fill:#000000; fill-opacity:1.0; 
stroke:#000000; stroke-width:1.000000; stroke-opacity:1; 
stroke-linecap:round; stroke-linejoin:round;">
<path style="fill:#000000; fill-opacity:1.0; 
stroke:#000000; stroke-width:1.000000; stroke-opacity:1; 
stroke-linecap:round; stroke-linejoin:round;fill-rule:evenodd;"
d="M 141050000.000000,59475000.000000
141069030.000000,59570671.000000
141123223.000000,59651777.000000
141204329.000000,59705970.000000
141300000.000000,59725000.000000
141800000.000000,59725000.000000
141895671.000000,59705970.000000
141976777.000000,59651777.000000
142030970.000000,59570671.000000
142050000.000000,59475000.000000
142050000.000000,58525000.000000
142030970.000000,58429329.000000
141976777.000000,58348223.000000
141895671.000000,58294030.000000
141800000.000000,58275000.000000
141300000.000000,58275000.000000
141204329.000000,58294030.000000
141123223.000000,58348223.000000
141069030.000000,58429329.000000
141050000.000000,58525000.000000
Z" /> 
<path style="fill:#000000; fill-opacity:1.0; 
stroke:#000000; stroke-width:1.000000; stroke-opacity:1; 
stroke-linecap:round; stroke-linejoin:round;fill-rule:evenodd;"
d="M 142950000.000000,59475000.000000
142969030.000000,59570671.000000
143023223.000000,59651777.000000
143104329.000000,59705970.000000
143200000.000000,59725000.000000
143700000.000000,59725000.000000
143795671.000000,59705970.000000
143876777.000000,59651777.000000
143930970.000000,59570671.000000
143950000.000000,59475000.000000
143950000.000000,58525000.000000
143930970.000000,58429329.000000
143876777.000000,58348223.000000
143795671.000000,58294030.000000
143700000.000000,58275000.000000
143200000.000000,58275000.000000
143104329.000000,58294030.000000
143023223.000000,58348223.000000
142969030.000000,58429329.000000
142950000.000000,58525000.000000
Z" /> 
</g>
<g >
</g>
<g style="fill:#000000; fill-opacity:1.0; 
stroke:#000000; stroke-width:1.000000; stroke-opacity:1; 
stroke-linecap:round; stroke-linejoin:round;">
<path style="fill:#000000; fill-opacity:1.0; 
stroke:#000000; stroke-width:1.000000; stroke-opacity:1; 
stroke-linecap:round; stroke-linejoin:round;fill-rule:evenodd;"
d="M 132200000.000000,70025000.000000
132104329.000000,70044030.000000
132023223.000000,70098223.000000
131969030.000000,70179329.000000
131950000.000000,70275000.000000
131950000.000000,70800000.000000
131969030.000000,70895671.000000
132023223.000000,70976777.000000
132104329.000000,71030970.000000
132200000.000000,71050000.000000
133100000.000000,71050000.000000
133195671.000000,71030970.000000
133276777.000000,70976777.000000
133330970.000000,70895671.000000
133350000.000000,70800000.000000
133350000.000000,70275000.000000
133330970.000000,70179329.000000
133276777.000000,70098223.000000
133195671.000000,70044030.000000
133100000.000000,70025000.000000
Z" /> 
<path style="fill:#000000; fill-opacity:1.0; 
stroke:#000000; stroke-width:1.000000; stroke-opacity:1; 
stroke-linecap:round; stroke-linejoin:round;fill-rule:evenodd;"
d="M 132200000.000000,71850000.000000
132104329.000000,71869030.000000
132023223.000000,71923223.000000
131969030.000000,72004329.000000
131950000.000000,72100000.000000
131950000.000000,72625000.000000
131969030.000000,72720671.000000
132023223.000000,72801777.000000
132104329.000000,72855970.000000
132200000.000000,72875000.000000
133100000.000000,72875000.000000
133195671.000000,72855970.000000
133276777.000000,72801777.000000
133330970.000000,72720671.000000
133350000.000000,72625000.000000
133350000.000000,72100000.000000
133330970.000000,72004329.000000
133276777.000000,71923223.000000
133195671.000000,71869030.000000
133100000.000000,71850000.000000
Z" /> 
</g>
<g >
</g>
<g style="fill:#000000; fill-opacity:1.0; 
stroke:#000000; stroke-width:1.000000; stroke-opacity:1; 
stroke-linecap:round; stroke-linejoin:round;">
<path style="fill:#000000; fill-opacity:1.0; 
stroke:#000000; stroke-width:1.000000; stroke-opacity:1; 
stroke-linecap:round; stroke-linejoin:round;fill-rule:evenodd;"
d="M 146200000.000000,63675000.000000
146257403.000000,63663582.000000
146306066.000000,63631066.000000
146338582.000000,63582403.000000
146350000.000000,63525000.000000
146350000.000000,62350000.000000
146338582.000000,62292597.000000
146306066.000000,62243934.000000
146257403.000000,62211418.000000
146200000.000000,62200000.000000
145900000.000000,62200000.000000
145842597.000000,62211418.000000
145793934.000000,62243934.000000
145761418.000000,62292597.000000
145750000.000000,62350000.000000
145750000.000000,63525000.000000
145761418.000000,63582403.000000
145793934.000000,63631066.000000
145842597.000000,63663582.000000
145900000.000000,63675000.000000
Z" /> 
<path style="fill:#000000; fill-opacity:1.0; 
stroke:#000000; stroke-width:1.000000; stroke-opacity:1; 
stroke-linecap:round; stroke-linejoin:round;fill-rule:evenodd;"
d="M 148100000.000000,63675000.000000
148157403.000000,63663582.000000
148206066.000000,63631066.000000
148238582.000000,63582403.000000
148250000.000000,63525000.000000
148250000.000000,62350000.000000
148238582.000000,62292597.000000
148206066.000000,62243934.000000
148157403.000000,62211418.000000
148100000.000000,62200000.000000
147800000.000000,62200000.000000
147742597.000000,62211418.000000
147693934.000000,62243934.000000
147661418.000000,62292597.000000
147650000.000000,62350000.000000
147650000.000000,63525000.000000
147661418.000000,63582403.000000
147693934.000000,63631066.000000
147742597.000000,63663582.000000
147800000.000000,63675000.000000
Z" /> 
<path style="fill:#000000; fill-opacity:1.0; 
stroke:#000000; stroke-width:1.000000; stroke-opacity:1; 
stroke-linecap:round; stroke-linejoin:round;fill-rule:evenodd;"
d="M 147150000.000000,61800000.000000
147207403.000000,61788582.000000
147256066.000000,61756066.000000
147288582.000000,61707403.000000
147300000.000000,61650000.000000
147300000.000000,60475000.000000
147288582.000000,60417597.000000
147256066.000000,60368934.000000
147207403.000000,60336418.000000
147150000.000000,60325000.000000
146850000.000000,60325000.000000
146792597.000000,60336418.000000
146743934.000000,60368934.000000
146711418.000000,60417597.000000
146700000.000000,60475000.000000
146700000.000000,61650000.000000
146711418.000000,61707403.000000
146743934.000000,61756066.000000
146792597.000000,61788582.000000
146850000.000000,61800000.000000
Z" /> 
</g>
<g >
</g>
<g >
</g>
<g >
</g>
<g >
</g>
<g >
</g>
<g >
</g>
<g >
</g>
<g >
</g>
<g >
</g>
<g >
</g>
<g >
</g>
<g >
</g>
<g >
</g>
<g >
</g>
<g >
</g>
<g >
</g>
<g >
</g>
<g >
</g>
<g >
</g>
<g >
</g>
<g >
</g>
<g >
</g>
<g >
</g>
<g >
</g>
<g >
</g>
<g >
</g>
<g >
</g>
<g >
</g>
<g >
</g>
<g >
</g>
<g >
</g>
<g >
</g>
<g >
</g>
<g >
</g>
<g >
</g>
<g >
</g>
<g >
</g>
<g >
</g>
<g >
</g>
</g> 
</svg>
