G04 #@! TF.GenerationSoftware,KiCad,Pcbnew,(5.99.0-10559-g8513ca974c)*
G04 #@! TF.CreationDate,2021-05-16T19:19:17+12:00*
G04 #@! TF.ProjectId,SafePulse,53616665-5075-46c7-9365-2e6b69636164,V1.2.2*
G04 #@! TF.SameCoordinates,Original*
G04 #@! TF.FileFunction,Soldermask,Bot*
G04 #@! TF.FilePolarity,Negative*
%FSLAX46Y46*%
G04 Gerber Fmt 4.6, Leading zero omitted, Abs format (unit mm)*
G04 Created by KiCad (PCBNEW (5.99.0-10559-g8513ca974c)) date 2021-05-16 19:19:17*
%MOMM*%
%LPD*%
G01*
G04 APERTURE LIST*
G04 Aperture macros list*
%AMRoundRect*
0 Rectangle with rounded corners*
0 $1 Rounding radius*
0 $2 $3 $4 $5 $6 $7 $8 $9 X,Y pos of 4 corners*
0 Add a 4 corners polygon primitive as box body*
4,1,4,$2,$3,$4,$5,$6,$7,$8,$9,$2,$3,0*
0 Add four circle primitives for the rounded corners*
1,1,$1+$1,$2,$3*
1,1,$1+$1,$4,$5*
1,1,$1+$1,$6,$7*
1,1,$1+$1,$8,$9*
0 Add four rect primitives between the rounded corners*
20,1,$1+$1,$2,$3,$4,$5,0*
20,1,$1+$1,$4,$5,$6,$7,0*
20,1,$1+$1,$6,$7,$8,$9,0*
20,1,$1+$1,$8,$9,$2,$3,0*%
G04 Aperture macros list end*
%ADD10C,1.700000*%
%ADD11O,1.700000X1.700000*%
%ADD12C,2.500000*%
%ADD13C,2.800000*%
%ADD14R,1.700000X1.700000*%
%ADD15R,1.000000X1.000000*%
%ADD16RoundRect,0.250000X-0.262500X-0.450000X0.262500X-0.450000X0.262500X0.450000X-0.262500X0.450000X0*%
%ADD17RoundRect,0.150000X0.587500X0.150000X-0.587500X0.150000X-0.587500X-0.150000X0.587500X-0.150000X0*%
%ADD18RoundRect,0.250000X0.262500X0.450000X-0.262500X0.450000X-0.262500X-0.450000X0.262500X-0.450000X0*%
%ADD19RoundRect,0.250000X-0.250000X-0.475000X0.250000X-0.475000X0.250000X0.475000X-0.250000X0.475000X0*%
%ADD20RoundRect,0.250000X-0.475000X0.250000X-0.475000X-0.250000X0.475000X-0.250000X0.475000X0.250000X0*%
%ADD21RoundRect,0.250000X0.450000X-0.262500X0.450000X0.262500X-0.450000X0.262500X-0.450000X-0.262500X0*%
%ADD22RoundRect,0.250000X-0.450000X0.262500X-0.450000X-0.262500X0.450000X-0.262500X0.450000X0.262500X0*%
%ADD23R,0.450000X0.600000*%
%ADD24RoundRect,0.150000X-0.587500X-0.150000X0.587500X-0.150000X0.587500X0.150000X-0.587500X0.150000X0*%
%ADD25RoundRect,0.150000X0.150000X-0.587500X0.150000X0.587500X-0.150000X0.587500X-0.150000X-0.587500X0*%
%ADD26RoundRect,0.150000X0.150000X-0.825000X0.150000X0.825000X-0.150000X0.825000X-0.150000X-0.825000X0*%
%ADD27RoundRect,0.250000X0.250000X0.475000X-0.250000X0.475000X-0.250000X-0.475000X0.250000X-0.475000X0*%
%ADD28RoundRect,0.150000X-0.512500X-0.150000X0.512500X-0.150000X0.512500X0.150000X-0.512500X0.150000X0*%
%ADD29RoundRect,0.250000X0.475000X-0.250000X0.475000X0.250000X-0.475000X0.250000X-0.475000X-0.250000X0*%
%ADD30RoundRect,0.250000X-0.325000X-1.100000X0.325000X-1.100000X0.325000X1.100000X-0.325000X1.100000X0*%
%ADD31R,0.400000X0.650000*%
G04 APERTURE END LIST*
D10*
X164060000Y-60325000D03*
D11*
X164060000Y-62865000D03*
D12*
X164060000Y-71755000D03*
D13*
X164060000Y-75565000D03*
X138660000Y-75565000D03*
D14*
X128500000Y-75565000D03*
D11*
X131040000Y-75565000D03*
X133580000Y-75565000D03*
D15*
X132520000Y-68020000D03*
D16*
X140795500Y-74803000D03*
X142620500Y-74803000D03*
D15*
X150100000Y-66000000D03*
D16*
X140795500Y-72771000D03*
X142620500Y-72771000D03*
D17*
X154207500Y-71820000D03*
X154207500Y-73720000D03*
X152332500Y-72770000D03*
D15*
X140900000Y-58265000D03*
D18*
X144712500Y-58265000D03*
X142887500Y-58265000D03*
D19*
X148550000Y-76270000D03*
X150450000Y-76270000D03*
D20*
X129520000Y-59070000D03*
X129520000Y-60970000D03*
D15*
X133270000Y-71020000D03*
D19*
X154870000Y-70020000D03*
X156770000Y-70020000D03*
D21*
X141520000Y-70932500D03*
X141520000Y-69107500D03*
D22*
X144502000Y-74607500D03*
X144502000Y-76432500D03*
D23*
X134520000Y-67170000D03*
X134520000Y-69270000D03*
D22*
X127520000Y-59107500D03*
X127520000Y-60932500D03*
D20*
X146534000Y-74615000D03*
X146534000Y-76515000D03*
D24*
X156262500Y-76470000D03*
X156262500Y-74570000D03*
X158137500Y-75520000D03*
D16*
X146387500Y-67024000D03*
X148212500Y-67024000D03*
D25*
X150470000Y-73957500D03*
X148570000Y-73957500D03*
X149520000Y-72082500D03*
D15*
X129520000Y-64270000D03*
D18*
X148112500Y-58265000D03*
X146287500Y-58265000D03*
D20*
X138770000Y-67320000D03*
X138770000Y-69220000D03*
D16*
X147399500Y-69215000D03*
X149224500Y-69215000D03*
D15*
X144500000Y-67265000D03*
X144520000Y-72770000D03*
X147804000Y-71247000D03*
D26*
X139080000Y-65195000D03*
X137810000Y-65195000D03*
X136540000Y-65195000D03*
X135270000Y-65195000D03*
X134000000Y-65195000D03*
X132730000Y-65195000D03*
X131460000Y-65195000D03*
X131460000Y-60245000D03*
X132730000Y-60245000D03*
X134000000Y-60245000D03*
X135270000Y-60245000D03*
X136540000Y-60245000D03*
X137810000Y-60245000D03*
X139080000Y-60245000D03*
D22*
X128270000Y-67107500D03*
X128270000Y-68932500D03*
D27*
X139220000Y-71020000D03*
X137320000Y-71020000D03*
D16*
X140795500Y-67183000D03*
X142620500Y-67183000D03*
D22*
X136520000Y-67307500D03*
X136520000Y-69132500D03*
D28*
X144062500Y-61915000D03*
X144062500Y-60965000D03*
X144062500Y-60015000D03*
X146337500Y-60015000D03*
X146337500Y-61915000D03*
D16*
X156107500Y-72020000D03*
X157932500Y-72020000D03*
D15*
X130520000Y-68020000D03*
D17*
X145457500Y-69070000D03*
X145457500Y-70970000D03*
X143582500Y-70020000D03*
D18*
X152932500Y-70020000D03*
X151107500Y-70020000D03*
D29*
X150100000Y-64250000D03*
X150100000Y-62350000D03*
D21*
X127520000Y-64432500D03*
X127520000Y-62607500D03*
D22*
X148100000Y-63452500D03*
X148100000Y-65277500D03*
D30*
X128295000Y-71501000D03*
X131245000Y-71501000D03*
D18*
X153912500Y-76270000D03*
X152087500Y-76270000D03*
D31*
X145650000Y-65339000D03*
X145000000Y-65339000D03*
X144350000Y-65339000D03*
X144350000Y-63439000D03*
X145650000Y-63439000D03*
M02*
