%TF.GenerationSoftware,KiCad,Pcbnew,9.0.6-9.0.6~ubuntu24.04.1*%
%TF.CreationDate,2025-11-13T19:41:32+09:00*%
%TF.ProjectId,SafePulse,53616665-5075-46c7-9365-2e6b69636164,V1.2.2*%
%TF.SameCoordinates,Original*%
%TF.FileFunction,Legend,Top*%
%TF.FilePolarity,Positive*%
%FSLAX46Y46*%
G04 Gerber Fmt 4.6, Leading zero omitted, Abs format (unit mm)*
G04 Created by KiCad (PCBNEW 9.0.6-9.0.6~ubuntu24.04.1) date 2025-11-13 19:41:32*
%MOMM*%
%LPD*%
G01*
G04 APERTURE LIST*
G04 Aperture macros list*
%AMRoundRect*
0 Rectangle with rounded corners*
0 $1 Rounding radius*
0 $2 $3 $4 $5 $6 $7 $8 $9 X,Y pos of 4 corners*
0 Add a 4 corners polygon primitive as box body*
4,1,4,$2,$3,$4,$5,$6,$7,$8,$9,$2,$3,0*
0 Add four circle primitives for the rounded corners*
1,1,$1+$1,$2,$3*
1,1,$1+$1,$4,$5*
1,1,$1+$1,$6,$7*
1,1,$1+$1,$8,$9*
0 Add four rect primitives between the rounded corners*
20,1,$1+$1,$2,$3,$4,$5,0*
20,1,$1+$1,$4,$5,$6,$7,0*
20,1,$1+$1,$6,$7,$8,$9,0*
20,1,$1+$1,$8,$9,$2,$3,0*%
G04 Aperture macros list end*
%ADD10C,0.150000*%
%ADD11C,0.075000*%
%ADD12C,0.100000*%
%ADD13C,0.120000*%
%ADD14C,0.000000*%
%ADD15C,0.360000*%
%ADD16RoundRect,0.250000X-0.250000X-0.475000X0.250000X-0.475000X0.250000X0.475000X-0.250000X0.475000X0*%
%ADD17RoundRect,0.250000X0.450000X-0.262500X0.450000X0.262500X-0.450000X0.262500X-0.450000X-0.262500X0*%
%ADD18C,1.700000*%
%ADD19O,1.700000X1.700000*%
%ADD20C,2.500000*%
%ADD21C,2.800000*%
%ADD22RoundRect,0.150000X0.150000X-0.587500X0.150000X0.587500X-0.150000X0.587500X-0.150000X-0.587500X0*%
%ADD23RoundRect,0.250000X-0.450000X0.262500X-0.450000X-0.262500X0.450000X-0.262500X0.450000X0.262500X0*%
%ADD24RoundRect,0.250000X0.262500X0.450000X-0.262500X0.450000X-0.262500X-0.450000X0.262500X-0.450000X0*%
%ADD25RoundRect,0.250000X-0.475000X0.250000X-0.475000X-0.250000X0.475000X-0.250000X0.475000X0.250000X0*%
%ADD26R,1.700000X1.700000*%
%ADD27RoundRect,0.250000X-0.625000X0.312500X-0.625000X-0.312500X0.625000X-0.312500X0.625000X0.312500X0*%
%ADD28R,3.700000X1.200000*%
%ADD29RoundRect,0.250000X-0.262500X-0.450000X0.262500X-0.450000X0.262500X0.450000X-0.262500X0.450000X0*%
%ADD30RoundRect,0.150000X0.150000X-0.825000X0.150000X0.825000X-0.150000X0.825000X-0.150000X-0.825000X0*%
%ADD31R,2.000000X1.500000*%
%ADD32R,2.000000X3.800000*%
%ADD33R,0.450000X0.600000*%
%ADD34R,1.000000X1.000000*%
%ADD35RoundRect,0.250000X0.250000X0.475000X-0.250000X0.475000X-0.250000X-0.475000X0.250000X-0.475000X0*%
G04 APERTURE END LIST*
D10*
X137414000Y-69270000D02*
X159400000Y-69270000D01*
X158370000Y-75770000D02*
X156670000Y-75770000D01*
X159400000Y-69270000D02*
X159400000Y-77570000D01*
X159400000Y-77585000D02*
X165471000Y-77580787D01*
X137414000Y-69270000D02*
X137414000Y-57658000D01*
X166597000Y-76300000D02*
X165471000Y-77580787D01*
X166604000Y-58658000D02*
X166597000Y-76300000D01*
X165520000Y-57658000D02*
X137414000Y-57658000D01*
X165520000Y-57658000D02*
X166604000Y-58658000D01*
D11*
X127766669Y-77468600D02*
X127838097Y-77492409D01*
X127838097Y-77492409D02*
X127957145Y-77492409D01*
X127957145Y-77492409D02*
X128004764Y-77468600D01*
X128004764Y-77468600D02*
X128028573Y-77444790D01*
X128028573Y-77444790D02*
X128052383Y-77397171D01*
X128052383Y-77397171D02*
X128052383Y-77349552D01*
X128052383Y-77349552D02*
X128028573Y-77301933D01*
X128028573Y-77301933D02*
X128004764Y-77278123D01*
X128004764Y-77278123D02*
X127957145Y-77254314D01*
X127957145Y-77254314D02*
X127861907Y-77230504D01*
X127861907Y-77230504D02*
X127814288Y-77206695D01*
X127814288Y-77206695D02*
X127790478Y-77182885D01*
X127790478Y-77182885D02*
X127766669Y-77135266D01*
X127766669Y-77135266D02*
X127766669Y-77087647D01*
X127766669Y-77087647D02*
X127790478Y-77040028D01*
X127790478Y-77040028D02*
X127814288Y-77016219D01*
X127814288Y-77016219D02*
X127861907Y-76992409D01*
X127861907Y-76992409D02*
X127980954Y-76992409D01*
X127980954Y-76992409D02*
X128052383Y-77016219D01*
X128242859Y-77349552D02*
X128480954Y-77349552D01*
X128195240Y-77492409D02*
X128361906Y-76992409D01*
X128361906Y-76992409D02*
X128528573Y-77492409D01*
X128861906Y-77230504D02*
X128695239Y-77230504D01*
X128695239Y-77492409D02*
X128695239Y-76992409D01*
X128695239Y-76992409D02*
X128933334Y-76992409D01*
X129123810Y-77230504D02*
X129290477Y-77230504D01*
X129361905Y-77492409D02*
X129123810Y-77492409D01*
X129123810Y-77492409D02*
X129123810Y-76992409D01*
X129123810Y-76992409D02*
X129361905Y-76992409D01*
X129576191Y-77492409D02*
X129576191Y-76992409D01*
X129576191Y-76992409D02*
X129766667Y-76992409D01*
X129766667Y-76992409D02*
X129814286Y-77016219D01*
X129814286Y-77016219D02*
X129838096Y-77040028D01*
X129838096Y-77040028D02*
X129861905Y-77087647D01*
X129861905Y-77087647D02*
X129861905Y-77159076D01*
X129861905Y-77159076D02*
X129838096Y-77206695D01*
X129838096Y-77206695D02*
X129814286Y-77230504D01*
X129814286Y-77230504D02*
X129766667Y-77254314D01*
X129766667Y-77254314D02*
X129576191Y-77254314D01*
X130076191Y-76992409D02*
X130076191Y-77397171D01*
X130076191Y-77397171D02*
X130100001Y-77444790D01*
X130100001Y-77444790D02*
X130123810Y-77468600D01*
X130123810Y-77468600D02*
X130171429Y-77492409D01*
X130171429Y-77492409D02*
X130266667Y-77492409D01*
X130266667Y-77492409D02*
X130314286Y-77468600D01*
X130314286Y-77468600D02*
X130338096Y-77444790D01*
X130338096Y-77444790D02*
X130361905Y-77397171D01*
X130361905Y-77397171D02*
X130361905Y-76992409D01*
X130838096Y-77492409D02*
X130600001Y-77492409D01*
X130600001Y-77492409D02*
X130600001Y-76992409D01*
X130980954Y-77468600D02*
X131052382Y-77492409D01*
X131052382Y-77492409D02*
X131171430Y-77492409D01*
X131171430Y-77492409D02*
X131219049Y-77468600D01*
X131219049Y-77468600D02*
X131242858Y-77444790D01*
X131242858Y-77444790D02*
X131266668Y-77397171D01*
X131266668Y-77397171D02*
X131266668Y-77349552D01*
X131266668Y-77349552D02*
X131242858Y-77301933D01*
X131242858Y-77301933D02*
X131219049Y-77278123D01*
X131219049Y-77278123D02*
X131171430Y-77254314D01*
X131171430Y-77254314D02*
X131076192Y-77230504D01*
X131076192Y-77230504D02*
X131028573Y-77206695D01*
X131028573Y-77206695D02*
X131004763Y-77182885D01*
X131004763Y-77182885D02*
X130980954Y-77135266D01*
X130980954Y-77135266D02*
X130980954Y-77087647D01*
X130980954Y-77087647D02*
X131004763Y-77040028D01*
X131004763Y-77040028D02*
X131028573Y-77016219D01*
X131028573Y-77016219D02*
X131076192Y-76992409D01*
X131076192Y-76992409D02*
X131195239Y-76992409D01*
X131195239Y-76992409D02*
X131266668Y-77016219D01*
X131480953Y-77230504D02*
X131647620Y-77230504D01*
X131719048Y-77492409D02*
X131480953Y-77492409D01*
X131480953Y-77492409D02*
X131480953Y-76992409D01*
X131480953Y-76992409D02*
X131719048Y-76992409D01*
X132242858Y-76992409D02*
X132409524Y-77492409D01*
X132409524Y-77492409D02*
X132576191Y-76992409D01*
X133004762Y-77492409D02*
X132719048Y-77492409D01*
X132861905Y-77492409D02*
X132861905Y-76992409D01*
X132861905Y-76992409D02*
X132814286Y-77063838D01*
X132814286Y-77063838D02*
X132766667Y-77111457D01*
X132766667Y-77111457D02*
X132719048Y-77135266D01*
X133219047Y-77444790D02*
X133242857Y-77468600D01*
X133242857Y-77468600D02*
X133219047Y-77492409D01*
X133219047Y-77492409D02*
X133195238Y-77468600D01*
X133195238Y-77468600D02*
X133219047Y-77444790D01*
X133219047Y-77444790D02*
X133219047Y-77492409D01*
X133433333Y-77040028D02*
X133457142Y-77016219D01*
X133457142Y-77016219D02*
X133504761Y-76992409D01*
X133504761Y-76992409D02*
X133623809Y-76992409D01*
X133623809Y-76992409D02*
X133671428Y-77016219D01*
X133671428Y-77016219D02*
X133695237Y-77040028D01*
X133695237Y-77040028D02*
X133719047Y-77087647D01*
X133719047Y-77087647D02*
X133719047Y-77135266D01*
X133719047Y-77135266D02*
X133695237Y-77206695D01*
X133695237Y-77206695D02*
X133409523Y-77492409D01*
X133409523Y-77492409D02*
X133719047Y-77492409D01*
X133933332Y-77444790D02*
X133957142Y-77468600D01*
X133957142Y-77468600D02*
X133933332Y-77492409D01*
X133933332Y-77492409D02*
X133909523Y-77468600D01*
X133909523Y-77468600D02*
X133933332Y-77444790D01*
X133933332Y-77444790D02*
X133933332Y-77492409D01*
X134147618Y-77040028D02*
X134171427Y-77016219D01*
X134171427Y-77016219D02*
X134219046Y-76992409D01*
X134219046Y-76992409D02*
X134338094Y-76992409D01*
X134338094Y-76992409D02*
X134385713Y-77016219D01*
X134385713Y-77016219D02*
X134409522Y-77040028D01*
X134409522Y-77040028D02*
X134433332Y-77087647D01*
X134433332Y-77087647D02*
X134433332Y-77135266D01*
X134433332Y-77135266D02*
X134409522Y-77206695D01*
X134409522Y-77206695D02*
X134123808Y-77492409D01*
X134123808Y-77492409D02*
X134433332Y-77492409D01*
D12*
X128079048Y-73476466D02*
X128840953Y-73476466D01*
X128460000Y-73857419D02*
X128460000Y-73095514D01*
X130095238Y-73626109D02*
X130095238Y-73126109D01*
X130095238Y-73126109D02*
X130285714Y-73126109D01*
X130285714Y-73126109D02*
X130333333Y-73149919D01*
X130333333Y-73149919D02*
X130357143Y-73173728D01*
X130357143Y-73173728D02*
X130380952Y-73221347D01*
X130380952Y-73221347D02*
X130380952Y-73292776D01*
X130380952Y-73292776D02*
X130357143Y-73340395D01*
X130357143Y-73340395D02*
X130333333Y-73364204D01*
X130333333Y-73364204D02*
X130285714Y-73388014D01*
X130285714Y-73388014D02*
X130095238Y-73388014D01*
X130809524Y-73292776D02*
X130809524Y-73626109D01*
X130595238Y-73292776D02*
X130595238Y-73554680D01*
X130595238Y-73554680D02*
X130619048Y-73602300D01*
X130619048Y-73602300D02*
X130666667Y-73626109D01*
X130666667Y-73626109D02*
X130738095Y-73626109D01*
X130738095Y-73626109D02*
X130785714Y-73602300D01*
X130785714Y-73602300D02*
X130809524Y-73578490D01*
X131119048Y-73626109D02*
X131071429Y-73602300D01*
X131071429Y-73602300D02*
X131047619Y-73554680D01*
X131047619Y-73554680D02*
X131047619Y-73126109D01*
X131285715Y-73602300D02*
X131333334Y-73626109D01*
X131333334Y-73626109D02*
X131428572Y-73626109D01*
X131428572Y-73626109D02*
X131476191Y-73602300D01*
X131476191Y-73602300D02*
X131500000Y-73554680D01*
X131500000Y-73554680D02*
X131500000Y-73530871D01*
X131500000Y-73530871D02*
X131476191Y-73483252D01*
X131476191Y-73483252D02*
X131428572Y-73459442D01*
X131428572Y-73459442D02*
X131357143Y-73459442D01*
X131357143Y-73459442D02*
X131309524Y-73435633D01*
X131309524Y-73435633D02*
X131285715Y-73388014D01*
X131285715Y-73388014D02*
X131285715Y-73364204D01*
X131285715Y-73364204D02*
X131309524Y-73316585D01*
X131309524Y-73316585D02*
X131357143Y-73292776D01*
X131357143Y-73292776D02*
X131428572Y-73292776D01*
X131428572Y-73292776D02*
X131476191Y-73316585D01*
X131904762Y-73602300D02*
X131857143Y-73626109D01*
X131857143Y-73626109D02*
X131761905Y-73626109D01*
X131761905Y-73626109D02*
X131714286Y-73602300D01*
X131714286Y-73602300D02*
X131690477Y-73554680D01*
X131690477Y-73554680D02*
X131690477Y-73364204D01*
X131690477Y-73364204D02*
X131714286Y-73316585D01*
X131714286Y-73316585D02*
X131761905Y-73292776D01*
X131761905Y-73292776D02*
X131857143Y-73292776D01*
X131857143Y-73292776D02*
X131904762Y-73316585D01*
X131904762Y-73316585D02*
X131928572Y-73364204D01*
X131928572Y-73364204D02*
X131928572Y-73411823D01*
X131928572Y-73411823D02*
X131690477Y-73459442D01*
X133413047Y-73149919D02*
X133365428Y-73126109D01*
X133365428Y-73126109D02*
X133293999Y-73126109D01*
X133293999Y-73126109D02*
X133222571Y-73149919D01*
X133222571Y-73149919D02*
X133174952Y-73197538D01*
X133174952Y-73197538D02*
X133151142Y-73245157D01*
X133151142Y-73245157D02*
X133127333Y-73340395D01*
X133127333Y-73340395D02*
X133127333Y-73411823D01*
X133127333Y-73411823D02*
X133151142Y-73507061D01*
X133151142Y-73507061D02*
X133174952Y-73554680D01*
X133174952Y-73554680D02*
X133222571Y-73602300D01*
X133222571Y-73602300D02*
X133293999Y-73626109D01*
X133293999Y-73626109D02*
X133341618Y-73626109D01*
X133341618Y-73626109D02*
X133413047Y-73602300D01*
X133413047Y-73602300D02*
X133436856Y-73578490D01*
X133436856Y-73578490D02*
X133436856Y-73411823D01*
X133436856Y-73411823D02*
X133341618Y-73411823D01*
X133651142Y-73626109D02*
X133651142Y-73126109D01*
X133651142Y-73126109D02*
X133936856Y-73626109D01*
X133936856Y-73626109D02*
X133936856Y-73126109D01*
X134174952Y-73626109D02*
X134174952Y-73126109D01*
X134174952Y-73126109D02*
X134294000Y-73126109D01*
X134294000Y-73126109D02*
X134365428Y-73149919D01*
X134365428Y-73149919D02*
X134413047Y-73197538D01*
X134413047Y-73197538D02*
X134436857Y-73245157D01*
X134436857Y-73245157D02*
X134460666Y-73340395D01*
X134460666Y-73340395D02*
X134460666Y-73411823D01*
X134460666Y-73411823D02*
X134436857Y-73507061D01*
X134436857Y-73507061D02*
X134413047Y-73554680D01*
X134413047Y-73554680D02*
X134365428Y-73602300D01*
X134365428Y-73602300D02*
X134294000Y-73626109D01*
X134294000Y-73626109D02*
X134174952Y-73626109D01*
D11*
X146617237Y-66379790D02*
X146593428Y-66403600D01*
X146593428Y-66403600D02*
X146521999Y-66427409D01*
X146521999Y-66427409D02*
X146474380Y-66427409D01*
X146474380Y-66427409D02*
X146402952Y-66403600D01*
X146402952Y-66403600D02*
X146355333Y-66355980D01*
X146355333Y-66355980D02*
X146331523Y-66308361D01*
X146331523Y-66308361D02*
X146307714Y-66213123D01*
X146307714Y-66213123D02*
X146307714Y-66141695D01*
X146307714Y-66141695D02*
X146331523Y-66046457D01*
X146331523Y-66046457D02*
X146355333Y-65998838D01*
X146355333Y-65998838D02*
X146402952Y-65951219D01*
X146402952Y-65951219D02*
X146474380Y-65927409D01*
X146474380Y-65927409D02*
X146521999Y-65927409D01*
X146521999Y-65927409D02*
X146593428Y-65951219D01*
X146593428Y-65951219D02*
X146617237Y-65975028D01*
X147093428Y-66427409D02*
X146807714Y-66427409D01*
X146950571Y-66427409D02*
X146950571Y-65927409D01*
X146950571Y-65927409D02*
X146902952Y-65998838D01*
X146902952Y-65998838D02*
X146855333Y-66046457D01*
X146855333Y-66046457D02*
X146807714Y-66070266D01*
X147569618Y-66427409D02*
X147283904Y-66427409D01*
X147426761Y-66427409D02*
X147426761Y-65927409D01*
X147426761Y-65927409D02*
X147379142Y-65998838D01*
X147379142Y-65998838D02*
X147331523Y-66046457D01*
X147331523Y-66046457D02*
X147283904Y-66070266D01*
X126965504Y-71667665D02*
X126965504Y-71834332D01*
X127227409Y-71834332D02*
X126727409Y-71834332D01*
X126727409Y-71834332D02*
X126727409Y-71596237D01*
X127227409Y-71143856D02*
X127227409Y-71429570D01*
X127227409Y-71286713D02*
X126727409Y-71286713D01*
X126727409Y-71286713D02*
X126798838Y-71334332D01*
X126798838Y-71334332D02*
X126846457Y-71381951D01*
X126846457Y-71381951D02*
X126870266Y-71429570D01*
X143314999Y-66439790D02*
X143291190Y-66463600D01*
X143291190Y-66463600D02*
X143219761Y-66487409D01*
X143219761Y-66487409D02*
X143172142Y-66487409D01*
X143172142Y-66487409D02*
X143100714Y-66463600D01*
X143100714Y-66463600D02*
X143053095Y-66415980D01*
X143053095Y-66415980D02*
X143029285Y-66368361D01*
X143029285Y-66368361D02*
X143005476Y-66273123D01*
X143005476Y-66273123D02*
X143005476Y-66201695D01*
X143005476Y-66201695D02*
X143029285Y-66106457D01*
X143029285Y-66106457D02*
X143053095Y-66058838D01*
X143053095Y-66058838D02*
X143100714Y-66011219D01*
X143100714Y-66011219D02*
X143172142Y-65987409D01*
X143172142Y-65987409D02*
X143219761Y-65987409D01*
X143219761Y-65987409D02*
X143291190Y-66011219D01*
X143291190Y-66011219D02*
X143314999Y-66035028D01*
X143553095Y-66487409D02*
X143648333Y-66487409D01*
X143648333Y-66487409D02*
X143695952Y-66463600D01*
X143695952Y-66463600D02*
X143719761Y-66439790D01*
X143719761Y-66439790D02*
X143767380Y-66368361D01*
X143767380Y-66368361D02*
X143791190Y-66273123D01*
X143791190Y-66273123D02*
X143791190Y-66082647D01*
X143791190Y-66082647D02*
X143767380Y-66035028D01*
X143767380Y-66035028D02*
X143743571Y-66011219D01*
X143743571Y-66011219D02*
X143695952Y-65987409D01*
X143695952Y-65987409D02*
X143600714Y-65987409D01*
X143600714Y-65987409D02*
X143553095Y-66011219D01*
X143553095Y-66011219D02*
X143529285Y-66035028D01*
X143529285Y-66035028D02*
X143505476Y-66082647D01*
X143505476Y-66082647D02*
X143505476Y-66201695D01*
X143505476Y-66201695D02*
X143529285Y-66249314D01*
X143529285Y-66249314D02*
X143553095Y-66273123D01*
X143553095Y-66273123D02*
X143600714Y-66296933D01*
X143600714Y-66296933D02*
X143695952Y-66296933D01*
X143695952Y-66296933D02*
X143743571Y-66273123D01*
X143743571Y-66273123D02*
X143767380Y-66249314D01*
X143767380Y-66249314D02*
X143791190Y-66201695D01*
X160858096Y-73539552D02*
X161096191Y-73539552D01*
X160810477Y-73682409D02*
X160977143Y-73182409D01*
X160977143Y-73182409D02*
X161143810Y-73682409D01*
X161310476Y-73349076D02*
X161310476Y-73682409D01*
X161310476Y-73396695D02*
X161334286Y-73372885D01*
X161334286Y-73372885D02*
X161381905Y-73349076D01*
X161381905Y-73349076D02*
X161453333Y-73349076D01*
X161453333Y-73349076D02*
X161500952Y-73372885D01*
X161500952Y-73372885D02*
X161524762Y-73420504D01*
X161524762Y-73420504D02*
X161524762Y-73682409D01*
X161834286Y-73682409D02*
X161786667Y-73658600D01*
X161786667Y-73658600D02*
X161762857Y-73634790D01*
X161762857Y-73634790D02*
X161739048Y-73587171D01*
X161739048Y-73587171D02*
X161739048Y-73444314D01*
X161739048Y-73444314D02*
X161762857Y-73396695D01*
X161762857Y-73396695D02*
X161786667Y-73372885D01*
X161786667Y-73372885D02*
X161834286Y-73349076D01*
X161834286Y-73349076D02*
X161905714Y-73349076D01*
X161905714Y-73349076D02*
X161953333Y-73372885D01*
X161953333Y-73372885D02*
X161977143Y-73396695D01*
X161977143Y-73396695D02*
X162000952Y-73444314D01*
X162000952Y-73444314D02*
X162000952Y-73587171D01*
X162000952Y-73587171D02*
X161977143Y-73634790D01*
X161977143Y-73634790D02*
X161953333Y-73658600D01*
X161953333Y-73658600D02*
X161905714Y-73682409D01*
X161905714Y-73682409D02*
X161834286Y-73682409D01*
X162429524Y-73682409D02*
X162429524Y-73182409D01*
X162429524Y-73658600D02*
X162381905Y-73682409D01*
X162381905Y-73682409D02*
X162286667Y-73682409D01*
X162286667Y-73682409D02*
X162239048Y-73658600D01*
X162239048Y-73658600D02*
X162215238Y-73634790D01*
X162215238Y-73634790D02*
X162191429Y-73587171D01*
X162191429Y-73587171D02*
X162191429Y-73444314D01*
X162191429Y-73444314D02*
X162215238Y-73396695D01*
X162215238Y-73396695D02*
X162239048Y-73372885D01*
X162239048Y-73372885D02*
X162286667Y-73349076D01*
X162286667Y-73349076D02*
X162381905Y-73349076D01*
X162381905Y-73349076D02*
X162429524Y-73372885D01*
X162858095Y-73658600D02*
X162810476Y-73682409D01*
X162810476Y-73682409D02*
X162715238Y-73682409D01*
X162715238Y-73682409D02*
X162667619Y-73658600D01*
X162667619Y-73658600D02*
X162643810Y-73610980D01*
X162643810Y-73610980D02*
X162643810Y-73420504D01*
X162643810Y-73420504D02*
X162667619Y-73372885D01*
X162667619Y-73372885D02*
X162715238Y-73349076D01*
X162715238Y-73349076D02*
X162810476Y-73349076D01*
X162810476Y-73349076D02*
X162858095Y-73372885D01*
X162858095Y-73372885D02*
X162881905Y-73420504D01*
X162881905Y-73420504D02*
X162881905Y-73468123D01*
X162881905Y-73468123D02*
X162643810Y-73515742D01*
X160818096Y-77249552D02*
X161056191Y-77249552D01*
X160770477Y-77392409D02*
X160937143Y-76892409D01*
X160937143Y-76892409D02*
X161103810Y-77392409D01*
X161270476Y-77059076D02*
X161270476Y-77392409D01*
X161270476Y-77106695D02*
X161294286Y-77082885D01*
X161294286Y-77082885D02*
X161341905Y-77059076D01*
X161341905Y-77059076D02*
X161413333Y-77059076D01*
X161413333Y-77059076D02*
X161460952Y-77082885D01*
X161460952Y-77082885D02*
X161484762Y-77130504D01*
X161484762Y-77130504D02*
X161484762Y-77392409D01*
X161794286Y-77392409D02*
X161746667Y-77368600D01*
X161746667Y-77368600D02*
X161722857Y-77344790D01*
X161722857Y-77344790D02*
X161699048Y-77297171D01*
X161699048Y-77297171D02*
X161699048Y-77154314D01*
X161699048Y-77154314D02*
X161722857Y-77106695D01*
X161722857Y-77106695D02*
X161746667Y-77082885D01*
X161746667Y-77082885D02*
X161794286Y-77059076D01*
X161794286Y-77059076D02*
X161865714Y-77059076D01*
X161865714Y-77059076D02*
X161913333Y-77082885D01*
X161913333Y-77082885D02*
X161937143Y-77106695D01*
X161937143Y-77106695D02*
X161960952Y-77154314D01*
X161960952Y-77154314D02*
X161960952Y-77297171D01*
X161960952Y-77297171D02*
X161937143Y-77344790D01*
X161937143Y-77344790D02*
X161913333Y-77368600D01*
X161913333Y-77368600D02*
X161865714Y-77392409D01*
X161865714Y-77392409D02*
X161794286Y-77392409D01*
X162389524Y-77392409D02*
X162389524Y-76892409D01*
X162389524Y-77368600D02*
X162341905Y-77392409D01*
X162341905Y-77392409D02*
X162246667Y-77392409D01*
X162246667Y-77392409D02*
X162199048Y-77368600D01*
X162199048Y-77368600D02*
X162175238Y-77344790D01*
X162175238Y-77344790D02*
X162151429Y-77297171D01*
X162151429Y-77297171D02*
X162151429Y-77154314D01*
X162151429Y-77154314D02*
X162175238Y-77106695D01*
X162175238Y-77106695D02*
X162199048Y-77082885D01*
X162199048Y-77082885D02*
X162246667Y-77059076D01*
X162246667Y-77059076D02*
X162341905Y-77059076D01*
X162341905Y-77059076D02*
X162389524Y-77082885D01*
X162818095Y-77368600D02*
X162770476Y-77392409D01*
X162770476Y-77392409D02*
X162675238Y-77392409D01*
X162675238Y-77392409D02*
X162627619Y-77368600D01*
X162627619Y-77368600D02*
X162603810Y-77320980D01*
X162603810Y-77320980D02*
X162603810Y-77130504D01*
X162603810Y-77130504D02*
X162627619Y-77082885D01*
X162627619Y-77082885D02*
X162675238Y-77059076D01*
X162675238Y-77059076D02*
X162770476Y-77059076D01*
X162770476Y-77059076D02*
X162818095Y-77082885D01*
X162818095Y-77082885D02*
X162841905Y-77130504D01*
X162841905Y-77130504D02*
X162841905Y-77178123D01*
X162841905Y-77178123D02*
X162603810Y-77225742D01*
X157627409Y-63619047D02*
X157127409Y-63619047D01*
X157127409Y-63619047D02*
X157127409Y-63499999D01*
X157127409Y-63499999D02*
X157151219Y-63428571D01*
X157151219Y-63428571D02*
X157198838Y-63380952D01*
X157198838Y-63380952D02*
X157246457Y-63357142D01*
X157246457Y-63357142D02*
X157341695Y-63333333D01*
X157341695Y-63333333D02*
X157413123Y-63333333D01*
X157413123Y-63333333D02*
X157508361Y-63357142D01*
X157508361Y-63357142D02*
X157555980Y-63380952D01*
X157555980Y-63380952D02*
X157603600Y-63428571D01*
X157603600Y-63428571D02*
X157627409Y-63499999D01*
X157627409Y-63499999D02*
X157627409Y-63619047D01*
X157341695Y-63047618D02*
X157317885Y-63095237D01*
X157317885Y-63095237D02*
X157294076Y-63119047D01*
X157294076Y-63119047D02*
X157246457Y-63142856D01*
X157246457Y-63142856D02*
X157222647Y-63142856D01*
X157222647Y-63142856D02*
X157175028Y-63119047D01*
X157175028Y-63119047D02*
X157151219Y-63095237D01*
X157151219Y-63095237D02*
X157127409Y-63047618D01*
X157127409Y-63047618D02*
X157127409Y-62952380D01*
X157127409Y-62952380D02*
X157151219Y-62904761D01*
X157151219Y-62904761D02*
X157175028Y-62880952D01*
X157175028Y-62880952D02*
X157222647Y-62857142D01*
X157222647Y-62857142D02*
X157246457Y-62857142D01*
X157246457Y-62857142D02*
X157294076Y-62880952D01*
X157294076Y-62880952D02*
X157317885Y-62904761D01*
X157317885Y-62904761D02*
X157341695Y-62952380D01*
X157341695Y-62952380D02*
X157341695Y-63047618D01*
X157341695Y-63047618D02*
X157365504Y-63095237D01*
X157365504Y-63095237D02*
X157389314Y-63119047D01*
X157389314Y-63119047D02*
X157436933Y-63142856D01*
X157436933Y-63142856D02*
X157532171Y-63142856D01*
X157532171Y-63142856D02*
X157579790Y-63119047D01*
X157579790Y-63119047D02*
X157603600Y-63095237D01*
X157603600Y-63095237D02*
X157627409Y-63047618D01*
X157627409Y-63047618D02*
X157627409Y-62952380D01*
X157627409Y-62952380D02*
X157603600Y-62904761D01*
X157603600Y-62904761D02*
X157579790Y-62880952D01*
X157579790Y-62880952D02*
X157532171Y-62857142D01*
X157532171Y-62857142D02*
X157436933Y-62857142D01*
X157436933Y-62857142D02*
X157389314Y-62880952D01*
X157389314Y-62880952D02*
X157365504Y-62904761D01*
X157365504Y-62904761D02*
X157341695Y-62952380D01*
X143627409Y-63619047D02*
X143127409Y-63619047D01*
X143127409Y-63619047D02*
X143127409Y-63499999D01*
X143127409Y-63499999D02*
X143151219Y-63428571D01*
X143151219Y-63428571D02*
X143198838Y-63380952D01*
X143198838Y-63380952D02*
X143246457Y-63357142D01*
X143246457Y-63357142D02*
X143341695Y-63333333D01*
X143341695Y-63333333D02*
X143413123Y-63333333D01*
X143413123Y-63333333D02*
X143508361Y-63357142D01*
X143508361Y-63357142D02*
X143555980Y-63380952D01*
X143555980Y-63380952D02*
X143603600Y-63428571D01*
X143603600Y-63428571D02*
X143627409Y-63499999D01*
X143627409Y-63499999D02*
X143627409Y-63619047D01*
X143294076Y-62904761D02*
X143627409Y-62904761D01*
X143103600Y-63023809D02*
X143460742Y-63142856D01*
X143460742Y-63142856D02*
X143460742Y-62833333D01*
X149048571Y-60409790D02*
X149024762Y-60433600D01*
X149024762Y-60433600D02*
X148953333Y-60457409D01*
X148953333Y-60457409D02*
X148905714Y-60457409D01*
X148905714Y-60457409D02*
X148834286Y-60433600D01*
X148834286Y-60433600D02*
X148786667Y-60385980D01*
X148786667Y-60385980D02*
X148762857Y-60338361D01*
X148762857Y-60338361D02*
X148739048Y-60243123D01*
X148739048Y-60243123D02*
X148739048Y-60171695D01*
X148739048Y-60171695D02*
X148762857Y-60076457D01*
X148762857Y-60076457D02*
X148786667Y-60028838D01*
X148786667Y-60028838D02*
X148834286Y-59981219D01*
X148834286Y-59981219D02*
X148905714Y-59957409D01*
X148905714Y-59957409D02*
X148953333Y-59957409D01*
X148953333Y-59957409D02*
X149024762Y-59981219D01*
X149024762Y-59981219D02*
X149048571Y-60005028D01*
X149524762Y-60457409D02*
X149239048Y-60457409D01*
X149381905Y-60457409D02*
X149381905Y-59957409D01*
X149381905Y-59957409D02*
X149334286Y-60028838D01*
X149334286Y-60028838D02*
X149286667Y-60076457D01*
X149286667Y-60076457D02*
X149239048Y-60100266D01*
X149715238Y-60005028D02*
X149739047Y-59981219D01*
X149739047Y-59981219D02*
X149786666Y-59957409D01*
X149786666Y-59957409D02*
X149905714Y-59957409D01*
X149905714Y-59957409D02*
X149953333Y-59981219D01*
X149953333Y-59981219D02*
X149977142Y-60005028D01*
X149977142Y-60005028D02*
X150000952Y-60052647D01*
X150000952Y-60052647D02*
X150000952Y-60100266D01*
X150000952Y-60100266D02*
X149977142Y-60171695D01*
X149977142Y-60171695D02*
X149691428Y-60457409D01*
X149691428Y-60457409D02*
X150000952Y-60457409D01*
X150097570Y-66439790D02*
X150073761Y-66463600D01*
X150073761Y-66463600D02*
X150002332Y-66487409D01*
X150002332Y-66487409D02*
X149954713Y-66487409D01*
X149954713Y-66487409D02*
X149883285Y-66463600D01*
X149883285Y-66463600D02*
X149835666Y-66415980D01*
X149835666Y-66415980D02*
X149811856Y-66368361D01*
X149811856Y-66368361D02*
X149788047Y-66273123D01*
X149788047Y-66273123D02*
X149788047Y-66201695D01*
X149788047Y-66201695D02*
X149811856Y-66106457D01*
X149811856Y-66106457D02*
X149835666Y-66058838D01*
X149835666Y-66058838D02*
X149883285Y-66011219D01*
X149883285Y-66011219D02*
X149954713Y-65987409D01*
X149954713Y-65987409D02*
X150002332Y-65987409D01*
X150002332Y-65987409D02*
X150073761Y-66011219D01*
X150073761Y-66011219D02*
X150097570Y-66035028D01*
X150573761Y-66487409D02*
X150288047Y-66487409D01*
X150430904Y-66487409D02*
X150430904Y-65987409D01*
X150430904Y-65987409D02*
X150383285Y-66058838D01*
X150383285Y-66058838D02*
X150335666Y-66106457D01*
X150335666Y-66106457D02*
X150288047Y-66130266D01*
X150740427Y-65987409D02*
X151049951Y-65987409D01*
X151049951Y-65987409D02*
X150883284Y-66177885D01*
X150883284Y-66177885D02*
X150954713Y-66177885D01*
X150954713Y-66177885D02*
X151002332Y-66201695D01*
X151002332Y-66201695D02*
X151026141Y-66225504D01*
X151026141Y-66225504D02*
X151049951Y-66273123D01*
X151049951Y-66273123D02*
X151049951Y-66392171D01*
X151049951Y-66392171D02*
X151026141Y-66439790D01*
X151026141Y-66439790D02*
X151002332Y-66463600D01*
X151002332Y-66463600D02*
X150954713Y-66487409D01*
X150954713Y-66487409D02*
X150811856Y-66487409D01*
X150811856Y-66487409D02*
X150764237Y-66463600D01*
X150764237Y-66463600D02*
X150740427Y-66439790D01*
X159127409Y-71886428D02*
X158889314Y-72053094D01*
X159127409Y-72172142D02*
X158627409Y-72172142D01*
X158627409Y-72172142D02*
X158627409Y-71981666D01*
X158627409Y-71981666D02*
X158651219Y-71934047D01*
X158651219Y-71934047D02*
X158675028Y-71910237D01*
X158675028Y-71910237D02*
X158722647Y-71886428D01*
X158722647Y-71886428D02*
X158794076Y-71886428D01*
X158794076Y-71886428D02*
X158841695Y-71910237D01*
X158841695Y-71910237D02*
X158865504Y-71934047D01*
X158865504Y-71934047D02*
X158889314Y-71981666D01*
X158889314Y-71981666D02*
X158889314Y-72172142D01*
X159127409Y-71410237D02*
X159127409Y-71695951D01*
X159127409Y-71553094D02*
X158627409Y-71553094D01*
X158627409Y-71553094D02*
X158698838Y-71600713D01*
X158698838Y-71600713D02*
X158746457Y-71648332D01*
X158746457Y-71648332D02*
X158770266Y-71695951D01*
X158627409Y-71243571D02*
X158627409Y-70910238D01*
X158627409Y-70910238D02*
X159127409Y-71124523D01*
X145448571Y-60409790D02*
X145424762Y-60433600D01*
X145424762Y-60433600D02*
X145353333Y-60457409D01*
X145353333Y-60457409D02*
X145305714Y-60457409D01*
X145305714Y-60457409D02*
X145234286Y-60433600D01*
X145234286Y-60433600D02*
X145186667Y-60385980D01*
X145186667Y-60385980D02*
X145162857Y-60338361D01*
X145162857Y-60338361D02*
X145139048Y-60243123D01*
X145139048Y-60243123D02*
X145139048Y-60171695D01*
X145139048Y-60171695D02*
X145162857Y-60076457D01*
X145162857Y-60076457D02*
X145186667Y-60028838D01*
X145186667Y-60028838D02*
X145234286Y-59981219D01*
X145234286Y-59981219D02*
X145305714Y-59957409D01*
X145305714Y-59957409D02*
X145353333Y-59957409D01*
X145353333Y-59957409D02*
X145424762Y-59981219D01*
X145424762Y-59981219D02*
X145448571Y-60005028D01*
X145924762Y-60457409D02*
X145639048Y-60457409D01*
X145781905Y-60457409D02*
X145781905Y-59957409D01*
X145781905Y-59957409D02*
X145734286Y-60028838D01*
X145734286Y-60028838D02*
X145686667Y-60076457D01*
X145686667Y-60076457D02*
X145639048Y-60100266D01*
X146234285Y-59957409D02*
X146281904Y-59957409D01*
X146281904Y-59957409D02*
X146329523Y-59981219D01*
X146329523Y-59981219D02*
X146353333Y-60005028D01*
X146353333Y-60005028D02*
X146377142Y-60052647D01*
X146377142Y-60052647D02*
X146400952Y-60147885D01*
X146400952Y-60147885D02*
X146400952Y-60266933D01*
X146400952Y-60266933D02*
X146377142Y-60362171D01*
X146377142Y-60362171D02*
X146353333Y-60409790D01*
X146353333Y-60409790D02*
X146329523Y-60433600D01*
X146329523Y-60433600D02*
X146281904Y-60457409D01*
X146281904Y-60457409D02*
X146234285Y-60457409D01*
X146234285Y-60457409D02*
X146186666Y-60433600D01*
X146186666Y-60433600D02*
X146162857Y-60409790D01*
X146162857Y-60409790D02*
X146139047Y-60362171D01*
X146139047Y-60362171D02*
X146115238Y-60266933D01*
X146115238Y-60266933D02*
X146115238Y-60147885D01*
X146115238Y-60147885D02*
X146139047Y-60052647D01*
X146139047Y-60052647D02*
X146162857Y-60005028D01*
X146162857Y-60005028D02*
X146186666Y-59981219D01*
X146186666Y-59981219D02*
X146234285Y-59957409D01*
X140151409Y-63619047D02*
X139651409Y-63619047D01*
X139651409Y-63619047D02*
X139651409Y-63499999D01*
X139651409Y-63499999D02*
X139675219Y-63428571D01*
X139675219Y-63428571D02*
X139722838Y-63380952D01*
X139722838Y-63380952D02*
X139770457Y-63357142D01*
X139770457Y-63357142D02*
X139865695Y-63333333D01*
X139865695Y-63333333D02*
X139937123Y-63333333D01*
X139937123Y-63333333D02*
X140032361Y-63357142D01*
X140032361Y-63357142D02*
X140079980Y-63380952D01*
X140079980Y-63380952D02*
X140127600Y-63428571D01*
X140127600Y-63428571D02*
X140151409Y-63499999D01*
X140151409Y-63499999D02*
X140151409Y-63619047D01*
X139651409Y-63166666D02*
X139651409Y-62857142D01*
X139651409Y-62857142D02*
X139841885Y-63023809D01*
X139841885Y-63023809D02*
X139841885Y-62952380D01*
X139841885Y-62952380D02*
X139865695Y-62904761D01*
X139865695Y-62904761D02*
X139889504Y-62880952D01*
X139889504Y-62880952D02*
X139937123Y-62857142D01*
X139937123Y-62857142D02*
X140056171Y-62857142D01*
X140056171Y-62857142D02*
X140103790Y-62880952D01*
X140103790Y-62880952D02*
X140127600Y-62904761D01*
X140127600Y-62904761D02*
X140151409Y-62952380D01*
X140151409Y-62952380D02*
X140151409Y-63095237D01*
X140151409Y-63095237D02*
X140127600Y-63142856D01*
X140127600Y-63142856D02*
X140103790Y-63166666D01*
X146828664Y-68997409D02*
X146661998Y-68759314D01*
X146542950Y-68997409D02*
X146542950Y-68497409D01*
X146542950Y-68497409D02*
X146733426Y-68497409D01*
X146733426Y-68497409D02*
X146781045Y-68521219D01*
X146781045Y-68521219D02*
X146804855Y-68545028D01*
X146804855Y-68545028D02*
X146828664Y-68592647D01*
X146828664Y-68592647D02*
X146828664Y-68664076D01*
X146828664Y-68664076D02*
X146804855Y-68711695D01*
X146804855Y-68711695D02*
X146781045Y-68735504D01*
X146781045Y-68735504D02*
X146733426Y-68759314D01*
X146733426Y-68759314D02*
X146542950Y-68759314D01*
X147114379Y-68711695D02*
X147066760Y-68687885D01*
X147066760Y-68687885D02*
X147042950Y-68664076D01*
X147042950Y-68664076D02*
X147019141Y-68616457D01*
X147019141Y-68616457D02*
X147019141Y-68592647D01*
X147019141Y-68592647D02*
X147042950Y-68545028D01*
X147042950Y-68545028D02*
X147066760Y-68521219D01*
X147066760Y-68521219D02*
X147114379Y-68497409D01*
X147114379Y-68497409D02*
X147209617Y-68497409D01*
X147209617Y-68497409D02*
X147257236Y-68521219D01*
X147257236Y-68521219D02*
X147281045Y-68545028D01*
X147281045Y-68545028D02*
X147304855Y-68592647D01*
X147304855Y-68592647D02*
X147304855Y-68616457D01*
X147304855Y-68616457D02*
X147281045Y-68664076D01*
X147281045Y-68664076D02*
X147257236Y-68687885D01*
X147257236Y-68687885D02*
X147209617Y-68711695D01*
X147209617Y-68711695D02*
X147114379Y-68711695D01*
X147114379Y-68711695D02*
X147066760Y-68735504D01*
X147066760Y-68735504D02*
X147042950Y-68759314D01*
X147042950Y-68759314D02*
X147019141Y-68806933D01*
X147019141Y-68806933D02*
X147019141Y-68902171D01*
X147019141Y-68902171D02*
X147042950Y-68949790D01*
X147042950Y-68949790D02*
X147066760Y-68973600D01*
X147066760Y-68973600D02*
X147114379Y-68997409D01*
X147114379Y-68997409D02*
X147209617Y-68997409D01*
X147209617Y-68997409D02*
X147257236Y-68973600D01*
X147257236Y-68973600D02*
X147281045Y-68949790D01*
X147281045Y-68949790D02*
X147304855Y-68902171D01*
X147304855Y-68902171D02*
X147304855Y-68806933D01*
X147304855Y-68806933D02*
X147281045Y-68759314D01*
X147281045Y-68759314D02*
X147257236Y-68735504D01*
X147257236Y-68735504D02*
X147209617Y-68711695D01*
X127693334Y-57905504D02*
X127526667Y-57905504D01*
X127526667Y-58167409D02*
X127526667Y-57667409D01*
X127526667Y-57667409D02*
X127764762Y-57667409D01*
X128121905Y-57905504D02*
X128193333Y-57929314D01*
X128193333Y-57929314D02*
X128217143Y-57953123D01*
X128217143Y-57953123D02*
X128240952Y-58000742D01*
X128240952Y-58000742D02*
X128240952Y-58072171D01*
X128240952Y-58072171D02*
X128217143Y-58119790D01*
X128217143Y-58119790D02*
X128193333Y-58143600D01*
X128193333Y-58143600D02*
X128145714Y-58167409D01*
X128145714Y-58167409D02*
X127955238Y-58167409D01*
X127955238Y-58167409D02*
X127955238Y-57667409D01*
X127955238Y-57667409D02*
X128121905Y-57667409D01*
X128121905Y-57667409D02*
X128169524Y-57691219D01*
X128169524Y-57691219D02*
X128193333Y-57715028D01*
X128193333Y-57715028D02*
X128217143Y-57762647D01*
X128217143Y-57762647D02*
X128217143Y-57810266D01*
X128217143Y-57810266D02*
X128193333Y-57857885D01*
X128193333Y-57857885D02*
X128169524Y-57881695D01*
X128169524Y-57881695D02*
X128121905Y-57905504D01*
X128121905Y-57905504D02*
X127955238Y-57905504D01*
X128431429Y-57715028D02*
X128455238Y-57691219D01*
X128455238Y-57691219D02*
X128502857Y-57667409D01*
X128502857Y-57667409D02*
X128621905Y-57667409D01*
X128621905Y-57667409D02*
X128669524Y-57691219D01*
X128669524Y-57691219D02*
X128693333Y-57715028D01*
X128693333Y-57715028D02*
X128717143Y-57762647D01*
X128717143Y-57762647D02*
X128717143Y-57810266D01*
X128717143Y-57810266D02*
X128693333Y-57881695D01*
X128693333Y-57881695D02*
X128407619Y-58167409D01*
X128407619Y-58167409D02*
X128717143Y-58167409D01*
X150355665Y-68997409D02*
X150188999Y-68759314D01*
X150069951Y-68997409D02*
X150069951Y-68497409D01*
X150069951Y-68497409D02*
X150260427Y-68497409D01*
X150260427Y-68497409D02*
X150308046Y-68521219D01*
X150308046Y-68521219D02*
X150331856Y-68545028D01*
X150331856Y-68545028D02*
X150355665Y-68592647D01*
X150355665Y-68592647D02*
X150355665Y-68664076D01*
X150355665Y-68664076D02*
X150331856Y-68711695D01*
X150331856Y-68711695D02*
X150308046Y-68735504D01*
X150308046Y-68735504D02*
X150260427Y-68759314D01*
X150260427Y-68759314D02*
X150069951Y-68759314D01*
X150522332Y-68497409D02*
X150855665Y-68497409D01*
X150855665Y-68497409D02*
X150641380Y-68997409D01*
X143997409Y-72853333D02*
X143759314Y-73019999D01*
X143997409Y-73139047D02*
X143497409Y-73139047D01*
X143497409Y-73139047D02*
X143497409Y-72948571D01*
X143497409Y-72948571D02*
X143521219Y-72900952D01*
X143521219Y-72900952D02*
X143545028Y-72877142D01*
X143545028Y-72877142D02*
X143592647Y-72853333D01*
X143592647Y-72853333D02*
X143664076Y-72853333D01*
X143664076Y-72853333D02*
X143711695Y-72877142D01*
X143711695Y-72877142D02*
X143735504Y-72900952D01*
X143735504Y-72900952D02*
X143759314Y-72948571D01*
X143759314Y-72948571D02*
X143759314Y-73139047D01*
X143497409Y-72424761D02*
X143497409Y-72519999D01*
X143497409Y-72519999D02*
X143521219Y-72567618D01*
X143521219Y-72567618D02*
X143545028Y-72591428D01*
X143545028Y-72591428D02*
X143616457Y-72639047D01*
X143616457Y-72639047D02*
X143711695Y-72662856D01*
X143711695Y-72662856D02*
X143902171Y-72662856D01*
X143902171Y-72662856D02*
X143949790Y-72639047D01*
X143949790Y-72639047D02*
X143973600Y-72615237D01*
X143973600Y-72615237D02*
X143997409Y-72567618D01*
X143997409Y-72567618D02*
X143997409Y-72472380D01*
X143997409Y-72472380D02*
X143973600Y-72424761D01*
X143973600Y-72424761D02*
X143949790Y-72400952D01*
X143949790Y-72400952D02*
X143902171Y-72377142D01*
X143902171Y-72377142D02*
X143783123Y-72377142D01*
X143783123Y-72377142D02*
X143735504Y-72400952D01*
X143735504Y-72400952D02*
X143711695Y-72424761D01*
X143711695Y-72424761D02*
X143687885Y-72472380D01*
X143687885Y-72472380D02*
X143687885Y-72567618D01*
X143687885Y-72567618D02*
X143711695Y-72615237D01*
X143711695Y-72615237D02*
X143735504Y-72639047D01*
X143735504Y-72639047D02*
X143783123Y-72662856D01*
X153587903Y-66459790D02*
X153564094Y-66483600D01*
X153564094Y-66483600D02*
X153492665Y-66507409D01*
X153492665Y-66507409D02*
X153445046Y-66507409D01*
X153445046Y-66507409D02*
X153373618Y-66483600D01*
X153373618Y-66483600D02*
X153325999Y-66435980D01*
X153325999Y-66435980D02*
X153302189Y-66388361D01*
X153302189Y-66388361D02*
X153278380Y-66293123D01*
X153278380Y-66293123D02*
X153278380Y-66221695D01*
X153278380Y-66221695D02*
X153302189Y-66126457D01*
X153302189Y-66126457D02*
X153325999Y-66078838D01*
X153325999Y-66078838D02*
X153373618Y-66031219D01*
X153373618Y-66031219D02*
X153445046Y-66007409D01*
X153445046Y-66007409D02*
X153492665Y-66007409D01*
X153492665Y-66007409D02*
X153564094Y-66031219D01*
X153564094Y-66031219D02*
X153587903Y-66055028D01*
X154064094Y-66507409D02*
X153778380Y-66507409D01*
X153921237Y-66507409D02*
X153921237Y-66007409D01*
X153921237Y-66007409D02*
X153873618Y-66078838D01*
X153873618Y-66078838D02*
X153825999Y-66126457D01*
X153825999Y-66126457D02*
X153778380Y-66150266D01*
X154516474Y-66007409D02*
X154278379Y-66007409D01*
X154278379Y-66007409D02*
X154254570Y-66245504D01*
X154254570Y-66245504D02*
X154278379Y-66221695D01*
X154278379Y-66221695D02*
X154325998Y-66197885D01*
X154325998Y-66197885D02*
X154445046Y-66197885D01*
X154445046Y-66197885D02*
X154492665Y-66221695D01*
X154492665Y-66221695D02*
X154516474Y-66245504D01*
X154516474Y-66245504D02*
X154540284Y-66293123D01*
X154540284Y-66293123D02*
X154540284Y-66412171D01*
X154540284Y-66412171D02*
X154516474Y-66459790D01*
X154516474Y-66459790D02*
X154492665Y-66483600D01*
X154492665Y-66483600D02*
X154445046Y-66507409D01*
X154445046Y-66507409D02*
X154325998Y-66507409D01*
X154325998Y-66507409D02*
X154278379Y-66483600D01*
X154278379Y-66483600D02*
X154254570Y-66459790D01*
X150627409Y-63619047D02*
X150127409Y-63619047D01*
X150127409Y-63619047D02*
X150127409Y-63499999D01*
X150127409Y-63499999D02*
X150151219Y-63428571D01*
X150151219Y-63428571D02*
X150198838Y-63380952D01*
X150198838Y-63380952D02*
X150246457Y-63357142D01*
X150246457Y-63357142D02*
X150341695Y-63333333D01*
X150341695Y-63333333D02*
X150413123Y-63333333D01*
X150413123Y-63333333D02*
X150508361Y-63357142D01*
X150508361Y-63357142D02*
X150555980Y-63380952D01*
X150555980Y-63380952D02*
X150603600Y-63428571D01*
X150603600Y-63428571D02*
X150627409Y-63499999D01*
X150627409Y-63499999D02*
X150627409Y-63619047D01*
X150127409Y-62904761D02*
X150127409Y-62999999D01*
X150127409Y-62999999D02*
X150151219Y-63047618D01*
X150151219Y-63047618D02*
X150175028Y-63071428D01*
X150175028Y-63071428D02*
X150246457Y-63119047D01*
X150246457Y-63119047D02*
X150341695Y-63142856D01*
X150341695Y-63142856D02*
X150532171Y-63142856D01*
X150532171Y-63142856D02*
X150579790Y-63119047D01*
X150579790Y-63119047D02*
X150603600Y-63095237D01*
X150603600Y-63095237D02*
X150627409Y-63047618D01*
X150627409Y-63047618D02*
X150627409Y-62952380D01*
X150627409Y-62952380D02*
X150603600Y-62904761D01*
X150603600Y-62904761D02*
X150579790Y-62880952D01*
X150579790Y-62880952D02*
X150532171Y-62857142D01*
X150532171Y-62857142D02*
X150413123Y-62857142D01*
X150413123Y-62857142D02*
X150365504Y-62880952D01*
X150365504Y-62880952D02*
X150341695Y-62904761D01*
X150341695Y-62904761D02*
X150317885Y-62952380D01*
X150317885Y-62952380D02*
X150317885Y-63047618D01*
X150317885Y-63047618D02*
X150341695Y-63095237D01*
X150341695Y-63095237D02*
X150365504Y-63119047D01*
X150365504Y-63119047D02*
X150413123Y-63142856D01*
X137492857Y-73444790D02*
X137469048Y-73468600D01*
X137469048Y-73468600D02*
X137397619Y-73492409D01*
X137397619Y-73492409D02*
X137350000Y-73492409D01*
X137350000Y-73492409D02*
X137278572Y-73468600D01*
X137278572Y-73468600D02*
X137230953Y-73420980D01*
X137230953Y-73420980D02*
X137207143Y-73373361D01*
X137207143Y-73373361D02*
X137183334Y-73278123D01*
X137183334Y-73278123D02*
X137183334Y-73206695D01*
X137183334Y-73206695D02*
X137207143Y-73111457D01*
X137207143Y-73111457D02*
X137230953Y-73063838D01*
X137230953Y-73063838D02*
X137278572Y-73016219D01*
X137278572Y-73016219D02*
X137350000Y-72992409D01*
X137350000Y-72992409D02*
X137397619Y-72992409D01*
X137397619Y-72992409D02*
X137469048Y-73016219D01*
X137469048Y-73016219D02*
X137492857Y-73040028D01*
X137921429Y-73492409D02*
X137921429Y-73230504D01*
X137921429Y-73230504D02*
X137897619Y-73182885D01*
X137897619Y-73182885D02*
X137850000Y-73159076D01*
X137850000Y-73159076D02*
X137754762Y-73159076D01*
X137754762Y-73159076D02*
X137707143Y-73182885D01*
X137921429Y-73468600D02*
X137873810Y-73492409D01*
X137873810Y-73492409D02*
X137754762Y-73492409D01*
X137754762Y-73492409D02*
X137707143Y-73468600D01*
X137707143Y-73468600D02*
X137683334Y-73420980D01*
X137683334Y-73420980D02*
X137683334Y-73373361D01*
X137683334Y-73373361D02*
X137707143Y-73325742D01*
X137707143Y-73325742D02*
X137754762Y-73301933D01*
X137754762Y-73301933D02*
X137873810Y-73301933D01*
X137873810Y-73301933D02*
X137921429Y-73278123D01*
X138088096Y-73159076D02*
X138278572Y-73159076D01*
X138159524Y-72992409D02*
X138159524Y-73420980D01*
X138159524Y-73420980D02*
X138183334Y-73468600D01*
X138183334Y-73468600D02*
X138230953Y-73492409D01*
X138230953Y-73492409D02*
X138278572Y-73492409D01*
X138445238Y-73492409D02*
X138445238Y-72992409D01*
X138659524Y-73492409D02*
X138659524Y-73230504D01*
X138659524Y-73230504D02*
X138635714Y-73182885D01*
X138635714Y-73182885D02*
X138588095Y-73159076D01*
X138588095Y-73159076D02*
X138516667Y-73159076D01*
X138516667Y-73159076D02*
X138469048Y-73182885D01*
X138469048Y-73182885D02*
X138445238Y-73206695D01*
X138969048Y-73492409D02*
X138921429Y-73468600D01*
X138921429Y-73468600D02*
X138897619Y-73444790D01*
X138897619Y-73444790D02*
X138873810Y-73397171D01*
X138873810Y-73397171D02*
X138873810Y-73254314D01*
X138873810Y-73254314D02*
X138897619Y-73206695D01*
X138897619Y-73206695D02*
X138921429Y-73182885D01*
X138921429Y-73182885D02*
X138969048Y-73159076D01*
X138969048Y-73159076D02*
X139040476Y-73159076D01*
X139040476Y-73159076D02*
X139088095Y-73182885D01*
X139088095Y-73182885D02*
X139111905Y-73206695D01*
X139111905Y-73206695D02*
X139135714Y-73254314D01*
X139135714Y-73254314D02*
X139135714Y-73397171D01*
X139135714Y-73397171D02*
X139111905Y-73444790D01*
X139111905Y-73444790D02*
X139088095Y-73468600D01*
X139088095Y-73468600D02*
X139040476Y-73492409D01*
X139040476Y-73492409D02*
X138969048Y-73492409D01*
X139564286Y-73492409D02*
X139564286Y-72992409D01*
X139564286Y-73468600D02*
X139516667Y-73492409D01*
X139516667Y-73492409D02*
X139421429Y-73492409D01*
X139421429Y-73492409D02*
X139373810Y-73468600D01*
X139373810Y-73468600D02*
X139350000Y-73444790D01*
X139350000Y-73444790D02*
X139326191Y-73397171D01*
X139326191Y-73397171D02*
X139326191Y-73254314D01*
X139326191Y-73254314D02*
X139350000Y-73206695D01*
X139350000Y-73206695D02*
X139373810Y-73182885D01*
X139373810Y-73182885D02*
X139421429Y-73159076D01*
X139421429Y-73159076D02*
X139516667Y-73159076D01*
X139516667Y-73159076D02*
X139564286Y-73182885D01*
X139992857Y-73468600D02*
X139945238Y-73492409D01*
X139945238Y-73492409D02*
X139850000Y-73492409D01*
X139850000Y-73492409D02*
X139802381Y-73468600D01*
X139802381Y-73468600D02*
X139778572Y-73420980D01*
X139778572Y-73420980D02*
X139778572Y-73230504D01*
X139778572Y-73230504D02*
X139802381Y-73182885D01*
X139802381Y-73182885D02*
X139850000Y-73159076D01*
X139850000Y-73159076D02*
X139945238Y-73159076D01*
X139945238Y-73159076D02*
X139992857Y-73182885D01*
X139992857Y-73182885D02*
X140016667Y-73230504D01*
X140016667Y-73230504D02*
X140016667Y-73278123D01*
X140016667Y-73278123D02*
X139778572Y-73325742D01*
X154127409Y-63619047D02*
X153627409Y-63619047D01*
X153627409Y-63619047D02*
X153627409Y-63499999D01*
X153627409Y-63499999D02*
X153651219Y-63428571D01*
X153651219Y-63428571D02*
X153698838Y-63380952D01*
X153698838Y-63380952D02*
X153746457Y-63357142D01*
X153746457Y-63357142D02*
X153841695Y-63333333D01*
X153841695Y-63333333D02*
X153913123Y-63333333D01*
X153913123Y-63333333D02*
X154008361Y-63357142D01*
X154008361Y-63357142D02*
X154055980Y-63380952D01*
X154055980Y-63380952D02*
X154103600Y-63428571D01*
X154103600Y-63428571D02*
X154127409Y-63499999D01*
X154127409Y-63499999D02*
X154127409Y-63619047D01*
X153627409Y-63166666D02*
X153627409Y-62833333D01*
X153627409Y-62833333D02*
X154127409Y-63047618D01*
X138846666Y-60489790D02*
X138822857Y-60513600D01*
X138822857Y-60513600D02*
X138751428Y-60537409D01*
X138751428Y-60537409D02*
X138703809Y-60537409D01*
X138703809Y-60537409D02*
X138632381Y-60513600D01*
X138632381Y-60513600D02*
X138584762Y-60465980D01*
X138584762Y-60465980D02*
X138560952Y-60418361D01*
X138560952Y-60418361D02*
X138537143Y-60323123D01*
X138537143Y-60323123D02*
X138537143Y-60251695D01*
X138537143Y-60251695D02*
X138560952Y-60156457D01*
X138560952Y-60156457D02*
X138584762Y-60108838D01*
X138584762Y-60108838D02*
X138632381Y-60061219D01*
X138632381Y-60061219D02*
X138703809Y-60037409D01*
X138703809Y-60037409D02*
X138751428Y-60037409D01*
X138751428Y-60037409D02*
X138822857Y-60061219D01*
X138822857Y-60061219D02*
X138846666Y-60085028D01*
X139275238Y-60037409D02*
X139180000Y-60037409D01*
X139180000Y-60037409D02*
X139132381Y-60061219D01*
X139132381Y-60061219D02*
X139108571Y-60085028D01*
X139108571Y-60085028D02*
X139060952Y-60156457D01*
X139060952Y-60156457D02*
X139037143Y-60251695D01*
X139037143Y-60251695D02*
X139037143Y-60442171D01*
X139037143Y-60442171D02*
X139060952Y-60489790D01*
X139060952Y-60489790D02*
X139084762Y-60513600D01*
X139084762Y-60513600D02*
X139132381Y-60537409D01*
X139132381Y-60537409D02*
X139227619Y-60537409D01*
X139227619Y-60537409D02*
X139275238Y-60513600D01*
X139275238Y-60513600D02*
X139299047Y-60489790D01*
X139299047Y-60489790D02*
X139322857Y-60442171D01*
X139322857Y-60442171D02*
X139322857Y-60323123D01*
X139322857Y-60323123D02*
X139299047Y-60275504D01*
X139299047Y-60275504D02*
X139275238Y-60251695D01*
X139275238Y-60251695D02*
X139227619Y-60227885D01*
X139227619Y-60227885D02*
X139132381Y-60227885D01*
X139132381Y-60227885D02*
X139084762Y-60251695D01*
X139084762Y-60251695D02*
X139060952Y-60275504D01*
X139060952Y-60275504D02*
X139037143Y-60323123D01*
X130016666Y-58179790D02*
X129992857Y-58203600D01*
X129992857Y-58203600D02*
X129921428Y-58227409D01*
X129921428Y-58227409D02*
X129873809Y-58227409D01*
X129873809Y-58227409D02*
X129802381Y-58203600D01*
X129802381Y-58203600D02*
X129754762Y-58155980D01*
X129754762Y-58155980D02*
X129730952Y-58108361D01*
X129730952Y-58108361D02*
X129707143Y-58013123D01*
X129707143Y-58013123D02*
X129707143Y-57941695D01*
X129707143Y-57941695D02*
X129730952Y-57846457D01*
X129730952Y-57846457D02*
X129754762Y-57798838D01*
X129754762Y-57798838D02*
X129802381Y-57751219D01*
X129802381Y-57751219D02*
X129873809Y-57727409D01*
X129873809Y-57727409D02*
X129921428Y-57727409D01*
X129921428Y-57727409D02*
X129992857Y-57751219D01*
X129992857Y-57751219D02*
X130016666Y-57775028D01*
X130469047Y-57727409D02*
X130230952Y-57727409D01*
X130230952Y-57727409D02*
X130207143Y-57965504D01*
X130207143Y-57965504D02*
X130230952Y-57941695D01*
X130230952Y-57941695D02*
X130278571Y-57917885D01*
X130278571Y-57917885D02*
X130397619Y-57917885D01*
X130397619Y-57917885D02*
X130445238Y-57941695D01*
X130445238Y-57941695D02*
X130469047Y-57965504D01*
X130469047Y-57965504D02*
X130492857Y-58013123D01*
X130492857Y-58013123D02*
X130492857Y-58132171D01*
X130492857Y-58132171D02*
X130469047Y-58179790D01*
X130469047Y-58179790D02*
X130445238Y-58203600D01*
X130445238Y-58203600D02*
X130397619Y-58227409D01*
X130397619Y-58227409D02*
X130278571Y-58227409D01*
X130278571Y-58227409D02*
X130230952Y-58203600D01*
X130230952Y-58203600D02*
X130207143Y-58179790D01*
X162025409Y-67012333D02*
X161787314Y-67178999D01*
X162025409Y-67298047D02*
X161525409Y-67298047D01*
X161525409Y-67298047D02*
X161525409Y-67107571D01*
X161525409Y-67107571D02*
X161549219Y-67059952D01*
X161549219Y-67059952D02*
X161573028Y-67036142D01*
X161573028Y-67036142D02*
X161620647Y-67012333D01*
X161620647Y-67012333D02*
X161692076Y-67012333D01*
X161692076Y-67012333D02*
X161739695Y-67036142D01*
X161739695Y-67036142D02*
X161763504Y-67059952D01*
X161763504Y-67059952D02*
X161787314Y-67107571D01*
X161787314Y-67107571D02*
X161787314Y-67298047D01*
X162025409Y-66536142D02*
X162025409Y-66821856D01*
X162025409Y-66678999D02*
X161525409Y-66678999D01*
X161525409Y-66678999D02*
X161596838Y-66726618D01*
X161596838Y-66726618D02*
X161644457Y-66774237D01*
X161644457Y-66774237D02*
X161668266Y-66821856D01*
X157088236Y-66509790D02*
X157064427Y-66533600D01*
X157064427Y-66533600D02*
X156992998Y-66557409D01*
X156992998Y-66557409D02*
X156945379Y-66557409D01*
X156945379Y-66557409D02*
X156873951Y-66533600D01*
X156873951Y-66533600D02*
X156826332Y-66485980D01*
X156826332Y-66485980D02*
X156802522Y-66438361D01*
X156802522Y-66438361D02*
X156778713Y-66343123D01*
X156778713Y-66343123D02*
X156778713Y-66271695D01*
X156778713Y-66271695D02*
X156802522Y-66176457D01*
X156802522Y-66176457D02*
X156826332Y-66128838D01*
X156826332Y-66128838D02*
X156873951Y-66081219D01*
X156873951Y-66081219D02*
X156945379Y-66057409D01*
X156945379Y-66057409D02*
X156992998Y-66057409D01*
X156992998Y-66057409D02*
X157064427Y-66081219D01*
X157064427Y-66081219D02*
X157088236Y-66105028D01*
X157564427Y-66557409D02*
X157278713Y-66557409D01*
X157421570Y-66557409D02*
X157421570Y-66057409D01*
X157421570Y-66057409D02*
X157373951Y-66128838D01*
X157373951Y-66128838D02*
X157326332Y-66176457D01*
X157326332Y-66176457D02*
X157278713Y-66200266D01*
X157731093Y-66057409D02*
X158064426Y-66057409D01*
X158064426Y-66057409D02*
X157850141Y-66557409D01*
X141360571Y-73997409D02*
X141193905Y-73759314D01*
X141074857Y-73997409D02*
X141074857Y-73497409D01*
X141074857Y-73497409D02*
X141265333Y-73497409D01*
X141265333Y-73497409D02*
X141312952Y-73521219D01*
X141312952Y-73521219D02*
X141336762Y-73545028D01*
X141336762Y-73545028D02*
X141360571Y-73592647D01*
X141360571Y-73592647D02*
X141360571Y-73664076D01*
X141360571Y-73664076D02*
X141336762Y-73711695D01*
X141336762Y-73711695D02*
X141312952Y-73735504D01*
X141312952Y-73735504D02*
X141265333Y-73759314D01*
X141265333Y-73759314D02*
X141074857Y-73759314D01*
X141836762Y-73997409D02*
X141551048Y-73997409D01*
X141693905Y-73997409D02*
X141693905Y-73497409D01*
X141693905Y-73497409D02*
X141646286Y-73568838D01*
X141646286Y-73568838D02*
X141598667Y-73616457D01*
X141598667Y-73616457D02*
X141551048Y-73640266D01*
X142122476Y-73711695D02*
X142074857Y-73687885D01*
X142074857Y-73687885D02*
X142051047Y-73664076D01*
X142051047Y-73664076D02*
X142027238Y-73616457D01*
X142027238Y-73616457D02*
X142027238Y-73592647D01*
X142027238Y-73592647D02*
X142051047Y-73545028D01*
X142051047Y-73545028D02*
X142074857Y-73521219D01*
X142074857Y-73521219D02*
X142122476Y-73497409D01*
X142122476Y-73497409D02*
X142217714Y-73497409D01*
X142217714Y-73497409D02*
X142265333Y-73521219D01*
X142265333Y-73521219D02*
X142289142Y-73545028D01*
X142289142Y-73545028D02*
X142312952Y-73592647D01*
X142312952Y-73592647D02*
X142312952Y-73616457D01*
X142312952Y-73616457D02*
X142289142Y-73664076D01*
X142289142Y-73664076D02*
X142265333Y-73687885D01*
X142265333Y-73687885D02*
X142217714Y-73711695D01*
X142217714Y-73711695D02*
X142122476Y-73711695D01*
X142122476Y-73711695D02*
X142074857Y-73735504D01*
X142074857Y-73735504D02*
X142051047Y-73759314D01*
X142051047Y-73759314D02*
X142027238Y-73806933D01*
X142027238Y-73806933D02*
X142027238Y-73902171D01*
X142027238Y-73902171D02*
X142051047Y-73949790D01*
X142051047Y-73949790D02*
X142074857Y-73973600D01*
X142074857Y-73973600D02*
X142122476Y-73997409D01*
X142122476Y-73997409D02*
X142217714Y-73997409D01*
X142217714Y-73997409D02*
X142265333Y-73973600D01*
X142265333Y-73973600D02*
X142289142Y-73949790D01*
X142289142Y-73949790D02*
X142312952Y-73902171D01*
X142312952Y-73902171D02*
X142312952Y-73806933D01*
X142312952Y-73806933D02*
X142289142Y-73759314D01*
X142289142Y-73759314D02*
X142265333Y-73735504D01*
X142265333Y-73735504D02*
X142217714Y-73711695D01*
X139754666Y-66429790D02*
X139730857Y-66453600D01*
X139730857Y-66453600D02*
X139659428Y-66477409D01*
X139659428Y-66477409D02*
X139611809Y-66477409D01*
X139611809Y-66477409D02*
X139540381Y-66453600D01*
X139540381Y-66453600D02*
X139492762Y-66405980D01*
X139492762Y-66405980D02*
X139468952Y-66358361D01*
X139468952Y-66358361D02*
X139445143Y-66263123D01*
X139445143Y-66263123D02*
X139445143Y-66191695D01*
X139445143Y-66191695D02*
X139468952Y-66096457D01*
X139468952Y-66096457D02*
X139492762Y-66048838D01*
X139492762Y-66048838D02*
X139540381Y-66001219D01*
X139540381Y-66001219D02*
X139611809Y-65977409D01*
X139611809Y-65977409D02*
X139659428Y-65977409D01*
X139659428Y-65977409D02*
X139730857Y-66001219D01*
X139730857Y-66001219D02*
X139754666Y-66025028D01*
X139921333Y-65977409D02*
X140254666Y-65977409D01*
X140254666Y-65977409D02*
X140040381Y-66477409D01*
X152488571Y-60449790D02*
X152464762Y-60473600D01*
X152464762Y-60473600D02*
X152393333Y-60497409D01*
X152393333Y-60497409D02*
X152345714Y-60497409D01*
X152345714Y-60497409D02*
X152274286Y-60473600D01*
X152274286Y-60473600D02*
X152226667Y-60425980D01*
X152226667Y-60425980D02*
X152202857Y-60378361D01*
X152202857Y-60378361D02*
X152179048Y-60283123D01*
X152179048Y-60283123D02*
X152179048Y-60211695D01*
X152179048Y-60211695D02*
X152202857Y-60116457D01*
X152202857Y-60116457D02*
X152226667Y-60068838D01*
X152226667Y-60068838D02*
X152274286Y-60021219D01*
X152274286Y-60021219D02*
X152345714Y-59997409D01*
X152345714Y-59997409D02*
X152393333Y-59997409D01*
X152393333Y-59997409D02*
X152464762Y-60021219D01*
X152464762Y-60021219D02*
X152488571Y-60045028D01*
X152964762Y-60497409D02*
X152679048Y-60497409D01*
X152821905Y-60497409D02*
X152821905Y-59997409D01*
X152821905Y-59997409D02*
X152774286Y-60068838D01*
X152774286Y-60068838D02*
X152726667Y-60116457D01*
X152726667Y-60116457D02*
X152679048Y-60140266D01*
X153393333Y-60164076D02*
X153393333Y-60497409D01*
X153274285Y-59973600D02*
X153155238Y-60330742D01*
X153155238Y-60330742D02*
X153464761Y-60330742D01*
X134416666Y-63077409D02*
X134178571Y-63077409D01*
X134178571Y-63077409D02*
X134178571Y-62577409D01*
X134845238Y-63077409D02*
X134559524Y-63077409D01*
X134702381Y-63077409D02*
X134702381Y-62577409D01*
X134702381Y-62577409D02*
X134654762Y-62648838D01*
X134654762Y-62648838D02*
X134607143Y-62696457D01*
X134607143Y-62696457D02*
X134559524Y-62720266D01*
X141132571Y-77824409D02*
X140965905Y-77586314D01*
X140846857Y-77824409D02*
X140846857Y-77324409D01*
X140846857Y-77324409D02*
X141037333Y-77324409D01*
X141037333Y-77324409D02*
X141084952Y-77348219D01*
X141084952Y-77348219D02*
X141108762Y-77372028D01*
X141108762Y-77372028D02*
X141132571Y-77419647D01*
X141132571Y-77419647D02*
X141132571Y-77491076D01*
X141132571Y-77491076D02*
X141108762Y-77538695D01*
X141108762Y-77538695D02*
X141084952Y-77562504D01*
X141084952Y-77562504D02*
X141037333Y-77586314D01*
X141037333Y-77586314D02*
X140846857Y-77586314D01*
X141608762Y-77824409D02*
X141323048Y-77824409D01*
X141465905Y-77824409D02*
X141465905Y-77324409D01*
X141465905Y-77324409D02*
X141418286Y-77395838D01*
X141418286Y-77395838D02*
X141370667Y-77443457D01*
X141370667Y-77443457D02*
X141323048Y-77467266D01*
X142084952Y-77824409D02*
X141799238Y-77824409D01*
X141942095Y-77824409D02*
X141942095Y-77324409D01*
X141942095Y-77324409D02*
X141894476Y-77395838D01*
X141894476Y-77395838D02*
X141846857Y-77443457D01*
X141846857Y-77443457D02*
X141799238Y-77467266D01*
X139505571Y-68997409D02*
X139338905Y-68759314D01*
X139219857Y-68997409D02*
X139219857Y-68497409D01*
X139219857Y-68497409D02*
X139410333Y-68497409D01*
X139410333Y-68497409D02*
X139457952Y-68521219D01*
X139457952Y-68521219D02*
X139481762Y-68545028D01*
X139481762Y-68545028D02*
X139505571Y-68592647D01*
X139505571Y-68592647D02*
X139505571Y-68664076D01*
X139505571Y-68664076D02*
X139481762Y-68711695D01*
X139481762Y-68711695D02*
X139457952Y-68735504D01*
X139457952Y-68735504D02*
X139410333Y-68759314D01*
X139410333Y-68759314D02*
X139219857Y-68759314D01*
X139981762Y-68997409D02*
X139696048Y-68997409D01*
X139838905Y-68997409D02*
X139838905Y-68497409D01*
X139838905Y-68497409D02*
X139791286Y-68568838D01*
X139791286Y-68568838D02*
X139743667Y-68616457D01*
X139743667Y-68616457D02*
X139696048Y-68640266D01*
X140291285Y-68497409D02*
X140338904Y-68497409D01*
X140338904Y-68497409D02*
X140386523Y-68521219D01*
X140386523Y-68521219D02*
X140410333Y-68545028D01*
X140410333Y-68545028D02*
X140434142Y-68592647D01*
X140434142Y-68592647D02*
X140457952Y-68687885D01*
X140457952Y-68687885D02*
X140457952Y-68806933D01*
X140457952Y-68806933D02*
X140434142Y-68902171D01*
X140434142Y-68902171D02*
X140410333Y-68949790D01*
X140410333Y-68949790D02*
X140386523Y-68973600D01*
X140386523Y-68973600D02*
X140338904Y-68997409D01*
X140338904Y-68997409D02*
X140291285Y-68997409D01*
X140291285Y-68997409D02*
X140243666Y-68973600D01*
X140243666Y-68973600D02*
X140219857Y-68949790D01*
X140219857Y-68949790D02*
X140196047Y-68902171D01*
X140196047Y-68902171D02*
X140172238Y-68806933D01*
X140172238Y-68806933D02*
X140172238Y-68687885D01*
X140172238Y-68687885D02*
X140196047Y-68592647D01*
X140196047Y-68592647D02*
X140219857Y-68545028D01*
X140219857Y-68545028D02*
X140243666Y-68521219D01*
X140243666Y-68521219D02*
X140291285Y-68497409D01*
X159498571Y-60519790D02*
X159474762Y-60543600D01*
X159474762Y-60543600D02*
X159403333Y-60567409D01*
X159403333Y-60567409D02*
X159355714Y-60567409D01*
X159355714Y-60567409D02*
X159284286Y-60543600D01*
X159284286Y-60543600D02*
X159236667Y-60495980D01*
X159236667Y-60495980D02*
X159212857Y-60448361D01*
X159212857Y-60448361D02*
X159189048Y-60353123D01*
X159189048Y-60353123D02*
X159189048Y-60281695D01*
X159189048Y-60281695D02*
X159212857Y-60186457D01*
X159212857Y-60186457D02*
X159236667Y-60138838D01*
X159236667Y-60138838D02*
X159284286Y-60091219D01*
X159284286Y-60091219D02*
X159355714Y-60067409D01*
X159355714Y-60067409D02*
X159403333Y-60067409D01*
X159403333Y-60067409D02*
X159474762Y-60091219D01*
X159474762Y-60091219D02*
X159498571Y-60115028D01*
X159974762Y-60567409D02*
X159689048Y-60567409D01*
X159831905Y-60567409D02*
X159831905Y-60067409D01*
X159831905Y-60067409D02*
X159784286Y-60138838D01*
X159784286Y-60138838D02*
X159736667Y-60186457D01*
X159736667Y-60186457D02*
X159689048Y-60210266D01*
X160260476Y-60281695D02*
X160212857Y-60257885D01*
X160212857Y-60257885D02*
X160189047Y-60234076D01*
X160189047Y-60234076D02*
X160165238Y-60186457D01*
X160165238Y-60186457D02*
X160165238Y-60162647D01*
X160165238Y-60162647D02*
X160189047Y-60115028D01*
X160189047Y-60115028D02*
X160212857Y-60091219D01*
X160212857Y-60091219D02*
X160260476Y-60067409D01*
X160260476Y-60067409D02*
X160355714Y-60067409D01*
X160355714Y-60067409D02*
X160403333Y-60091219D01*
X160403333Y-60091219D02*
X160427142Y-60115028D01*
X160427142Y-60115028D02*
X160450952Y-60162647D01*
X160450952Y-60162647D02*
X160450952Y-60186457D01*
X160450952Y-60186457D02*
X160427142Y-60234076D01*
X160427142Y-60234076D02*
X160403333Y-60257885D01*
X160403333Y-60257885D02*
X160355714Y-60281695D01*
X160355714Y-60281695D02*
X160260476Y-60281695D01*
X160260476Y-60281695D02*
X160212857Y-60305504D01*
X160212857Y-60305504D02*
X160189047Y-60329314D01*
X160189047Y-60329314D02*
X160165238Y-60376933D01*
X160165238Y-60376933D02*
X160165238Y-60472171D01*
X160165238Y-60472171D02*
X160189047Y-60519790D01*
X160189047Y-60519790D02*
X160212857Y-60543600D01*
X160212857Y-60543600D02*
X160260476Y-60567409D01*
X160260476Y-60567409D02*
X160355714Y-60567409D01*
X160355714Y-60567409D02*
X160403333Y-60543600D01*
X160403333Y-60543600D02*
X160427142Y-60519790D01*
X160427142Y-60519790D02*
X160450952Y-60472171D01*
X160450952Y-60472171D02*
X160450952Y-60376933D01*
X160450952Y-60376933D02*
X160427142Y-60329314D01*
X160427142Y-60329314D02*
X160403333Y-60305504D01*
X160403333Y-60305504D02*
X160355714Y-60281695D01*
X143330665Y-68997409D02*
X143163999Y-68759314D01*
X143044951Y-68997409D02*
X143044951Y-68497409D01*
X143044951Y-68497409D02*
X143235427Y-68497409D01*
X143235427Y-68497409D02*
X143283046Y-68521219D01*
X143283046Y-68521219D02*
X143306856Y-68545028D01*
X143306856Y-68545028D02*
X143330665Y-68592647D01*
X143330665Y-68592647D02*
X143330665Y-68664076D01*
X143330665Y-68664076D02*
X143306856Y-68711695D01*
X143306856Y-68711695D02*
X143283046Y-68735504D01*
X143283046Y-68735504D02*
X143235427Y-68759314D01*
X143235427Y-68759314D02*
X143044951Y-68759314D01*
X143568761Y-68997409D02*
X143663999Y-68997409D01*
X143663999Y-68997409D02*
X143711618Y-68973600D01*
X143711618Y-68973600D02*
X143735427Y-68949790D01*
X143735427Y-68949790D02*
X143783046Y-68878361D01*
X143783046Y-68878361D02*
X143806856Y-68783123D01*
X143806856Y-68783123D02*
X143806856Y-68592647D01*
X143806856Y-68592647D02*
X143783046Y-68545028D01*
X143783046Y-68545028D02*
X143759237Y-68521219D01*
X143759237Y-68521219D02*
X143711618Y-68497409D01*
X143711618Y-68497409D02*
X143616380Y-68497409D01*
X143616380Y-68497409D02*
X143568761Y-68521219D01*
X143568761Y-68521219D02*
X143544951Y-68545028D01*
X143544951Y-68545028D02*
X143521142Y-68592647D01*
X143521142Y-68592647D02*
X143521142Y-68711695D01*
X143521142Y-68711695D02*
X143544951Y-68759314D01*
X143544951Y-68759314D02*
X143568761Y-68783123D01*
X143568761Y-68783123D02*
X143616380Y-68806933D01*
X143616380Y-68806933D02*
X143711618Y-68806933D01*
X143711618Y-68806933D02*
X143759237Y-68783123D01*
X143759237Y-68783123D02*
X143783046Y-68759314D01*
X143783046Y-68759314D02*
X143806856Y-68711695D01*
X143698571Y-70747409D02*
X143531905Y-70509314D01*
X143412857Y-70747409D02*
X143412857Y-70247409D01*
X143412857Y-70247409D02*
X143603333Y-70247409D01*
X143603333Y-70247409D02*
X143650952Y-70271219D01*
X143650952Y-70271219D02*
X143674762Y-70295028D01*
X143674762Y-70295028D02*
X143698571Y-70342647D01*
X143698571Y-70342647D02*
X143698571Y-70414076D01*
X143698571Y-70414076D02*
X143674762Y-70461695D01*
X143674762Y-70461695D02*
X143650952Y-70485504D01*
X143650952Y-70485504D02*
X143603333Y-70509314D01*
X143603333Y-70509314D02*
X143412857Y-70509314D01*
X144174762Y-70747409D02*
X143889048Y-70747409D01*
X144031905Y-70747409D02*
X144031905Y-70247409D01*
X144031905Y-70247409D02*
X143984286Y-70318838D01*
X143984286Y-70318838D02*
X143936667Y-70366457D01*
X143936667Y-70366457D02*
X143889048Y-70390266D01*
X144341428Y-70247409D02*
X144650952Y-70247409D01*
X144650952Y-70247409D02*
X144484285Y-70437885D01*
X144484285Y-70437885D02*
X144555714Y-70437885D01*
X144555714Y-70437885D02*
X144603333Y-70461695D01*
X144603333Y-70461695D02*
X144627142Y-70485504D01*
X144627142Y-70485504D02*
X144650952Y-70533123D01*
X144650952Y-70533123D02*
X144650952Y-70652171D01*
X144650952Y-70652171D02*
X144627142Y-70699790D01*
X144627142Y-70699790D02*
X144603333Y-70723600D01*
X144603333Y-70723600D02*
X144555714Y-70747409D01*
X144555714Y-70747409D02*
X144412857Y-70747409D01*
X144412857Y-70747409D02*
X144365238Y-70723600D01*
X144365238Y-70723600D02*
X144341428Y-70699790D01*
X156018571Y-60449790D02*
X155994762Y-60473600D01*
X155994762Y-60473600D02*
X155923333Y-60497409D01*
X155923333Y-60497409D02*
X155875714Y-60497409D01*
X155875714Y-60497409D02*
X155804286Y-60473600D01*
X155804286Y-60473600D02*
X155756667Y-60425980D01*
X155756667Y-60425980D02*
X155732857Y-60378361D01*
X155732857Y-60378361D02*
X155709048Y-60283123D01*
X155709048Y-60283123D02*
X155709048Y-60211695D01*
X155709048Y-60211695D02*
X155732857Y-60116457D01*
X155732857Y-60116457D02*
X155756667Y-60068838D01*
X155756667Y-60068838D02*
X155804286Y-60021219D01*
X155804286Y-60021219D02*
X155875714Y-59997409D01*
X155875714Y-59997409D02*
X155923333Y-59997409D01*
X155923333Y-59997409D02*
X155994762Y-60021219D01*
X155994762Y-60021219D02*
X156018571Y-60045028D01*
X156494762Y-60497409D02*
X156209048Y-60497409D01*
X156351905Y-60497409D02*
X156351905Y-59997409D01*
X156351905Y-59997409D02*
X156304286Y-60068838D01*
X156304286Y-60068838D02*
X156256667Y-60116457D01*
X156256667Y-60116457D02*
X156209048Y-60140266D01*
X156923333Y-59997409D02*
X156828095Y-59997409D01*
X156828095Y-59997409D02*
X156780476Y-60021219D01*
X156780476Y-60021219D02*
X156756666Y-60045028D01*
X156756666Y-60045028D02*
X156709047Y-60116457D01*
X156709047Y-60116457D02*
X156685238Y-60211695D01*
X156685238Y-60211695D02*
X156685238Y-60402171D01*
X156685238Y-60402171D02*
X156709047Y-60449790D01*
X156709047Y-60449790D02*
X156732857Y-60473600D01*
X156732857Y-60473600D02*
X156780476Y-60497409D01*
X156780476Y-60497409D02*
X156875714Y-60497409D01*
X156875714Y-60497409D02*
X156923333Y-60473600D01*
X156923333Y-60473600D02*
X156947142Y-60449790D01*
X156947142Y-60449790D02*
X156970952Y-60402171D01*
X156970952Y-60402171D02*
X156970952Y-60283123D01*
X156970952Y-60283123D02*
X156947142Y-60235504D01*
X156947142Y-60235504D02*
X156923333Y-60211695D01*
X156923333Y-60211695D02*
X156875714Y-60187885D01*
X156875714Y-60187885D02*
X156780476Y-60187885D01*
X156780476Y-60187885D02*
X156732857Y-60211695D01*
X156732857Y-60211695D02*
X156709047Y-60235504D01*
X156709047Y-60235504D02*
X156685238Y-60283123D01*
X144919047Y-74627409D02*
X144919047Y-75032171D01*
X144919047Y-75032171D02*
X144942857Y-75079790D01*
X144942857Y-75079790D02*
X144966666Y-75103600D01*
X144966666Y-75103600D02*
X145014285Y-75127409D01*
X145014285Y-75127409D02*
X145109523Y-75127409D01*
X145109523Y-75127409D02*
X145157142Y-75103600D01*
X145157142Y-75103600D02*
X145180952Y-75079790D01*
X145180952Y-75079790D02*
X145204761Y-75032171D01*
X145204761Y-75032171D02*
X145204761Y-74627409D01*
X145657143Y-74794076D02*
X145657143Y-75127409D01*
X145538095Y-74603600D02*
X145419048Y-74960742D01*
X145419048Y-74960742D02*
X145728571Y-74960742D01*
X134722380Y-69045028D02*
X134674761Y-69021219D01*
X134674761Y-69021219D02*
X134627142Y-68973600D01*
X134627142Y-68973600D02*
X134555714Y-68902171D01*
X134555714Y-68902171D02*
X134508095Y-68878361D01*
X134508095Y-68878361D02*
X134460476Y-68878361D01*
X134484285Y-68997409D02*
X134436666Y-68973600D01*
X134436666Y-68973600D02*
X134389047Y-68925980D01*
X134389047Y-68925980D02*
X134365238Y-68830742D01*
X134365238Y-68830742D02*
X134365238Y-68664076D01*
X134365238Y-68664076D02*
X134389047Y-68568838D01*
X134389047Y-68568838D02*
X134436666Y-68521219D01*
X134436666Y-68521219D02*
X134484285Y-68497409D01*
X134484285Y-68497409D02*
X134579523Y-68497409D01*
X134579523Y-68497409D02*
X134627142Y-68521219D01*
X134627142Y-68521219D02*
X134674761Y-68568838D01*
X134674761Y-68568838D02*
X134698571Y-68664076D01*
X134698571Y-68664076D02*
X134698571Y-68830742D01*
X134698571Y-68830742D02*
X134674761Y-68925980D01*
X134674761Y-68925980D02*
X134627142Y-68973600D01*
X134627142Y-68973600D02*
X134579523Y-68997409D01*
X134579523Y-68997409D02*
X134484285Y-68997409D01*
X135174762Y-68997409D02*
X134889048Y-68997409D01*
X135031905Y-68997409D02*
X135031905Y-68497409D01*
X135031905Y-68497409D02*
X134984286Y-68568838D01*
X134984286Y-68568838D02*
X134936667Y-68616457D01*
X134936667Y-68616457D02*
X134889048Y-68640266D01*
X161127409Y-63619047D02*
X160627409Y-63619047D01*
X160627409Y-63619047D02*
X160627409Y-63499999D01*
X160627409Y-63499999D02*
X160651219Y-63428571D01*
X160651219Y-63428571D02*
X160698838Y-63380952D01*
X160698838Y-63380952D02*
X160746457Y-63357142D01*
X160746457Y-63357142D02*
X160841695Y-63333333D01*
X160841695Y-63333333D02*
X160913123Y-63333333D01*
X160913123Y-63333333D02*
X161008361Y-63357142D01*
X161008361Y-63357142D02*
X161055980Y-63380952D01*
X161055980Y-63380952D02*
X161103600Y-63428571D01*
X161103600Y-63428571D02*
X161127409Y-63499999D01*
X161127409Y-63499999D02*
X161127409Y-63619047D01*
X161127409Y-63095237D02*
X161127409Y-62999999D01*
X161127409Y-62999999D02*
X161103600Y-62952380D01*
X161103600Y-62952380D02*
X161079790Y-62928571D01*
X161079790Y-62928571D02*
X161008361Y-62880952D01*
X161008361Y-62880952D02*
X160913123Y-62857142D01*
X160913123Y-62857142D02*
X160722647Y-62857142D01*
X160722647Y-62857142D02*
X160675028Y-62880952D01*
X160675028Y-62880952D02*
X160651219Y-62904761D01*
X160651219Y-62904761D02*
X160627409Y-62952380D01*
X160627409Y-62952380D02*
X160627409Y-63047618D01*
X160627409Y-63047618D02*
X160651219Y-63095237D01*
X160651219Y-63095237D02*
X160675028Y-63119047D01*
X160675028Y-63119047D02*
X160722647Y-63142856D01*
X160722647Y-63142856D02*
X160841695Y-63142856D01*
X160841695Y-63142856D02*
X160889314Y-63119047D01*
X160889314Y-63119047D02*
X160913123Y-63095237D01*
X160913123Y-63095237D02*
X160936933Y-63047618D01*
X160936933Y-63047618D02*
X160936933Y-62952380D01*
X160936933Y-62952380D02*
X160913123Y-62904761D01*
X160913123Y-62904761D02*
X160889314Y-62880952D01*
X160889314Y-62880952D02*
X160841695Y-62857142D01*
X159127409Y-75734047D02*
X158627409Y-75734047D01*
X158627409Y-75734047D02*
X158627409Y-75614999D01*
X158627409Y-75614999D02*
X158651219Y-75543571D01*
X158651219Y-75543571D02*
X158698838Y-75495952D01*
X158698838Y-75495952D02*
X158746457Y-75472142D01*
X158746457Y-75472142D02*
X158841695Y-75448333D01*
X158841695Y-75448333D02*
X158913123Y-75448333D01*
X158913123Y-75448333D02*
X159008361Y-75472142D01*
X159008361Y-75472142D02*
X159055980Y-75495952D01*
X159055980Y-75495952D02*
X159103600Y-75543571D01*
X159103600Y-75543571D02*
X159127409Y-75614999D01*
X159127409Y-75614999D02*
X159127409Y-75734047D01*
X158675028Y-75257856D02*
X158651219Y-75234047D01*
X158651219Y-75234047D02*
X158627409Y-75186428D01*
X158627409Y-75186428D02*
X158627409Y-75067380D01*
X158627409Y-75067380D02*
X158651219Y-75019761D01*
X158651219Y-75019761D02*
X158675028Y-74995952D01*
X158675028Y-74995952D02*
X158722647Y-74972142D01*
X158722647Y-74972142D02*
X158770266Y-74972142D01*
X158770266Y-74972142D02*
X158841695Y-74995952D01*
X158841695Y-74995952D02*
X159127409Y-75281666D01*
X159127409Y-75281666D02*
X159127409Y-74972142D01*
X164953048Y-67164409D02*
X165238762Y-67164409D01*
X165095905Y-67664409D02*
X165095905Y-67164409D01*
X165405428Y-67664409D02*
X165405428Y-67164409D01*
X165405428Y-67164409D02*
X165595904Y-67164409D01*
X165595904Y-67164409D02*
X165643523Y-67188219D01*
X165643523Y-67188219D02*
X165667333Y-67212028D01*
X165667333Y-67212028D02*
X165691142Y-67259647D01*
X165691142Y-67259647D02*
X165691142Y-67331076D01*
X165691142Y-67331076D02*
X165667333Y-67378695D01*
X165667333Y-67378695D02*
X165643523Y-67402504D01*
X165643523Y-67402504D02*
X165595904Y-67426314D01*
X165595904Y-67426314D02*
X165405428Y-67426314D01*
X165857809Y-67164409D02*
X166191142Y-67164409D01*
X166191142Y-67164409D02*
X165976857Y-67664409D01*
X137748571Y-71949790D02*
X137724762Y-71973600D01*
X137724762Y-71973600D02*
X137653333Y-71997409D01*
X137653333Y-71997409D02*
X137605714Y-71997409D01*
X137605714Y-71997409D02*
X137534286Y-71973600D01*
X137534286Y-71973600D02*
X137486667Y-71925980D01*
X137486667Y-71925980D02*
X137462857Y-71878361D01*
X137462857Y-71878361D02*
X137439048Y-71783123D01*
X137439048Y-71783123D02*
X137439048Y-71711695D01*
X137439048Y-71711695D02*
X137462857Y-71616457D01*
X137462857Y-71616457D02*
X137486667Y-71568838D01*
X137486667Y-71568838D02*
X137534286Y-71521219D01*
X137534286Y-71521219D02*
X137605714Y-71497409D01*
X137605714Y-71497409D02*
X137653333Y-71497409D01*
X137653333Y-71497409D02*
X137724762Y-71521219D01*
X137724762Y-71521219D02*
X137748571Y-71545028D01*
X138224762Y-71997409D02*
X137939048Y-71997409D01*
X138081905Y-71997409D02*
X138081905Y-71497409D01*
X138081905Y-71497409D02*
X138034286Y-71568838D01*
X138034286Y-71568838D02*
X137986667Y-71616457D01*
X137986667Y-71616457D02*
X137939048Y-71640266D01*
X138462857Y-71997409D02*
X138558095Y-71997409D01*
X138558095Y-71997409D02*
X138605714Y-71973600D01*
X138605714Y-71973600D02*
X138629523Y-71949790D01*
X138629523Y-71949790D02*
X138677142Y-71878361D01*
X138677142Y-71878361D02*
X138700952Y-71783123D01*
X138700952Y-71783123D02*
X138700952Y-71592647D01*
X138700952Y-71592647D02*
X138677142Y-71545028D01*
X138677142Y-71545028D02*
X138653333Y-71521219D01*
X138653333Y-71521219D02*
X138605714Y-71497409D01*
X138605714Y-71497409D02*
X138510476Y-71497409D01*
X138510476Y-71497409D02*
X138462857Y-71521219D01*
X138462857Y-71521219D02*
X138439047Y-71545028D01*
X138439047Y-71545028D02*
X138415238Y-71592647D01*
X138415238Y-71592647D02*
X138415238Y-71711695D01*
X138415238Y-71711695D02*
X138439047Y-71759314D01*
X138439047Y-71759314D02*
X138462857Y-71783123D01*
X138462857Y-71783123D02*
X138510476Y-71806933D01*
X138510476Y-71806933D02*
X138605714Y-71806933D01*
X138605714Y-71806933D02*
X138653333Y-71783123D01*
X138653333Y-71783123D02*
X138677142Y-71759314D01*
X138677142Y-71759314D02*
X138700952Y-71711695D01*
X142356666Y-60429790D02*
X142332857Y-60453600D01*
X142332857Y-60453600D02*
X142261428Y-60477409D01*
X142261428Y-60477409D02*
X142213809Y-60477409D01*
X142213809Y-60477409D02*
X142142381Y-60453600D01*
X142142381Y-60453600D02*
X142094762Y-60405980D01*
X142094762Y-60405980D02*
X142070952Y-60358361D01*
X142070952Y-60358361D02*
X142047143Y-60263123D01*
X142047143Y-60263123D02*
X142047143Y-60191695D01*
X142047143Y-60191695D02*
X142070952Y-60096457D01*
X142070952Y-60096457D02*
X142094762Y-60048838D01*
X142094762Y-60048838D02*
X142142381Y-60001219D01*
X142142381Y-60001219D02*
X142213809Y-59977409D01*
X142213809Y-59977409D02*
X142261428Y-59977409D01*
X142261428Y-59977409D02*
X142332857Y-60001219D01*
X142332857Y-60001219D02*
X142356666Y-60025028D01*
X142642381Y-60191695D02*
X142594762Y-60167885D01*
X142594762Y-60167885D02*
X142570952Y-60144076D01*
X142570952Y-60144076D02*
X142547143Y-60096457D01*
X142547143Y-60096457D02*
X142547143Y-60072647D01*
X142547143Y-60072647D02*
X142570952Y-60025028D01*
X142570952Y-60025028D02*
X142594762Y-60001219D01*
X142594762Y-60001219D02*
X142642381Y-59977409D01*
X142642381Y-59977409D02*
X142737619Y-59977409D01*
X142737619Y-59977409D02*
X142785238Y-60001219D01*
X142785238Y-60001219D02*
X142809047Y-60025028D01*
X142809047Y-60025028D02*
X142832857Y-60072647D01*
X142832857Y-60072647D02*
X142832857Y-60096457D01*
X142832857Y-60096457D02*
X142809047Y-60144076D01*
X142809047Y-60144076D02*
X142785238Y-60167885D01*
X142785238Y-60167885D02*
X142737619Y-60191695D01*
X142737619Y-60191695D02*
X142642381Y-60191695D01*
X142642381Y-60191695D02*
X142594762Y-60215504D01*
X142594762Y-60215504D02*
X142570952Y-60239314D01*
X142570952Y-60239314D02*
X142547143Y-60286933D01*
X142547143Y-60286933D02*
X142547143Y-60382171D01*
X142547143Y-60382171D02*
X142570952Y-60429790D01*
X142570952Y-60429790D02*
X142594762Y-60453600D01*
X142594762Y-60453600D02*
X142642381Y-60477409D01*
X142642381Y-60477409D02*
X142737619Y-60477409D01*
X142737619Y-60477409D02*
X142785238Y-60453600D01*
X142785238Y-60453600D02*
X142809047Y-60429790D01*
X142809047Y-60429790D02*
X142832857Y-60382171D01*
X142832857Y-60382171D02*
X142832857Y-60286933D01*
X142832857Y-60286933D02*
X142809047Y-60239314D01*
X142809047Y-60239314D02*
X142785238Y-60215504D01*
X142785238Y-60215504D02*
X142737619Y-60191695D01*
X147146075Y-63619047D02*
X146646075Y-63619047D01*
X146646075Y-63619047D02*
X146646075Y-63499999D01*
X146646075Y-63499999D02*
X146669885Y-63428571D01*
X146669885Y-63428571D02*
X146717504Y-63380952D01*
X146717504Y-63380952D02*
X146765123Y-63357142D01*
X146765123Y-63357142D02*
X146860361Y-63333333D01*
X146860361Y-63333333D02*
X146931789Y-63333333D01*
X146931789Y-63333333D02*
X147027027Y-63357142D01*
X147027027Y-63357142D02*
X147074646Y-63380952D01*
X147074646Y-63380952D02*
X147122266Y-63428571D01*
X147122266Y-63428571D02*
X147146075Y-63499999D01*
X147146075Y-63499999D02*
X147146075Y-63619047D01*
X146646075Y-62880952D02*
X146646075Y-63119047D01*
X146646075Y-63119047D02*
X146884170Y-63142856D01*
X146884170Y-63142856D02*
X146860361Y-63119047D01*
X146860361Y-63119047D02*
X146836551Y-63071428D01*
X146836551Y-63071428D02*
X146836551Y-62952380D01*
X146836551Y-62952380D02*
X146860361Y-62904761D01*
X146860361Y-62904761D02*
X146884170Y-62880952D01*
X146884170Y-62880952D02*
X146931789Y-62857142D01*
X146931789Y-62857142D02*
X147050837Y-62857142D01*
X147050837Y-62857142D02*
X147098456Y-62880952D01*
X147098456Y-62880952D02*
X147122266Y-62904761D01*
X147122266Y-62904761D02*
X147146075Y-62952380D01*
X147146075Y-62952380D02*
X147146075Y-63071428D01*
X147146075Y-63071428D02*
X147122266Y-63119047D01*
X147122266Y-63119047D02*
X147098456Y-63142856D01*
X144186666Y-77699790D02*
X144162857Y-77723600D01*
X144162857Y-77723600D02*
X144091428Y-77747409D01*
X144091428Y-77747409D02*
X144043809Y-77747409D01*
X144043809Y-77747409D02*
X143972381Y-77723600D01*
X143972381Y-77723600D02*
X143924762Y-77675980D01*
X143924762Y-77675980D02*
X143900952Y-77628361D01*
X143900952Y-77628361D02*
X143877143Y-77533123D01*
X143877143Y-77533123D02*
X143877143Y-77461695D01*
X143877143Y-77461695D02*
X143900952Y-77366457D01*
X143900952Y-77366457D02*
X143924762Y-77318838D01*
X143924762Y-77318838D02*
X143972381Y-77271219D01*
X143972381Y-77271219D02*
X144043809Y-77247409D01*
X144043809Y-77247409D02*
X144091428Y-77247409D01*
X144091428Y-77247409D02*
X144162857Y-77271219D01*
X144162857Y-77271219D02*
X144186666Y-77295028D01*
X144353333Y-77247409D02*
X144662857Y-77247409D01*
X144662857Y-77247409D02*
X144496190Y-77437885D01*
X144496190Y-77437885D02*
X144567619Y-77437885D01*
X144567619Y-77437885D02*
X144615238Y-77461695D01*
X144615238Y-77461695D02*
X144639047Y-77485504D01*
X144639047Y-77485504D02*
X144662857Y-77533123D01*
X144662857Y-77533123D02*
X144662857Y-77652171D01*
X144662857Y-77652171D02*
X144639047Y-77699790D01*
X144639047Y-77699790D02*
X144615238Y-77723600D01*
X144615238Y-77723600D02*
X144567619Y-77747409D01*
X144567619Y-77747409D02*
X144424762Y-77747409D01*
X144424762Y-77747409D02*
X144377143Y-77723600D01*
X144377143Y-77723600D02*
X144353333Y-77699790D01*
D13*
%TO.C,C11*%
X146657414Y-64315000D02*
X147179918Y-64315000D01*
X146657414Y-65785000D02*
X147179918Y-65785000D01*
%TO.C,F1*%
X127765000Y-71728064D02*
X127765000Y-71273936D01*
X129235000Y-71728064D02*
X129235000Y-71273936D01*
%TO.C,C9*%
X143137081Y-64315000D02*
X143659585Y-64315000D01*
X143137081Y-65785000D02*
X143659585Y-65785000D01*
%TO.C,H2*%
X165860000Y-71755000D02*
G75*
G02*
X162260000Y-71755000I-1800000J0D01*
G01*
X162260000Y-71755000D02*
G75*
G02*
X165860000Y-71755000I1800000J0D01*
G01*
%TO.C,H4*%
X165860000Y-75565000D02*
G75*
G02*
X162260000Y-75565000I-1800000J0D01*
G01*
X162260000Y-75565000D02*
G75*
G02*
X165860000Y-75565000I1800000J0D01*
G01*
%TO.C,D8*%
X155840000Y-62000000D02*
X155840000Y-61350000D01*
X155840000Y-62000000D02*
X155840000Y-63675000D01*
X158960000Y-62000000D02*
X158960000Y-61350000D01*
X158960000Y-62000000D02*
X158960000Y-62650000D01*
%TO.C,D4*%
X141840000Y-62000000D02*
X141840000Y-61350000D01*
X141840000Y-62000000D02*
X141840000Y-63675000D01*
X144960000Y-62000000D02*
X144960000Y-61350000D01*
X144960000Y-62000000D02*
X144960000Y-62650000D01*
%TO.C,C12*%
X149218748Y-58265000D02*
X149741252Y-58265000D01*
X149218748Y-59735000D02*
X149741252Y-59735000D01*
%TO.C,C13*%
X150177747Y-64315000D02*
X150700251Y-64315000D01*
X150177747Y-65785000D02*
X150700251Y-65785000D01*
%TO.C,R17*%
X156785000Y-71205436D02*
X156785000Y-71659564D01*
X158255000Y-71205436D02*
X158255000Y-71659564D01*
%TO.C,C10*%
X145708748Y-58275000D02*
X146231252Y-58275000D01*
X145708748Y-59745000D02*
X146231252Y-59745000D01*
%TO.C,D3*%
X138318000Y-61976000D02*
X138318000Y-61326000D01*
X138318000Y-61976000D02*
X138318000Y-63651000D01*
X141438000Y-61976000D02*
X141438000Y-61326000D01*
X141438000Y-61976000D02*
X141438000Y-62626000D01*
%TO.C,R8*%
X147139062Y-66785000D02*
X146684934Y-66785000D01*
X147139062Y-68255000D02*
X146684934Y-68255000D01*
%TO.C,FB2*%
X127285000Y-60227064D02*
X127285000Y-59772936D01*
X128755000Y-60227064D02*
X128755000Y-59772936D01*
%TO.C,R7*%
X150666063Y-66785000D02*
X150211935Y-66785000D01*
X150666063Y-68255000D02*
X150211935Y-68255000D01*
%TO.C,R6*%
X144285000Y-72542936D02*
X144285000Y-72997064D01*
X145755000Y-72542936D02*
X145755000Y-72997064D01*
%TO.C,C15*%
X153698080Y-64315000D02*
X154220584Y-64315000D01*
X153698080Y-65785000D02*
X154220584Y-65785000D01*
%TO.C,D6*%
X148840000Y-62000000D02*
X148840000Y-61350000D01*
X148840000Y-62000000D02*
X148840000Y-63675000D01*
X151960000Y-62000000D02*
X151960000Y-61350000D01*
X151960000Y-62000000D02*
X151960000Y-62650000D01*
%TO.C,H1*%
X140360000Y-75565000D02*
G75*
G02*
X136960000Y-75565000I-1700000J0D01*
G01*
X136960000Y-75565000D02*
G75*
G02*
X140360000Y-75565000I1700000J0D01*
G01*
%TO.C,D7*%
X152340000Y-62000000D02*
X152340000Y-61350000D01*
X152340000Y-62000000D02*
X152340000Y-63675000D01*
X155460000Y-62000000D02*
X155460000Y-61350000D01*
X155460000Y-62000000D02*
X155460000Y-62650000D01*
%TO.C,C6*%
X138718748Y-58255000D02*
X139241252Y-58255000D01*
X138718748Y-59725000D02*
X139241252Y-59725000D01*
%TO.C,C5*%
X129365000Y-59738748D02*
X129365000Y-60261252D01*
X130835000Y-59738748D02*
X130835000Y-60261252D01*
D14*
%TO.C,G3*%
G36*
X160121073Y-66391159D02*
G01*
X160092020Y-66458589D01*
X160053680Y-66547809D01*
X160019168Y-66628272D01*
X159974405Y-66731584D01*
X159925546Y-66842620D01*
X159893431Y-66914512D01*
X159862793Y-66987041D01*
X159843198Y-67042552D01*
X159838878Y-67067526D01*
X159860338Y-67063844D01*
X159913325Y-67040723D01*
X159989453Y-67002123D01*
X160065379Y-66960507D01*
X160154382Y-66911989D01*
X160227186Y-66875647D01*
X160275453Y-66855426D01*
X160290944Y-66853814D01*
X160287077Y-66880591D01*
X160272870Y-66944910D01*
X160250044Y-67039648D01*
X160220322Y-67157680D01*
X160185426Y-67291884D01*
X160181082Y-67308322D01*
X160145353Y-67444414D01*
X160114105Y-67565559D01*
X160089161Y-67664517D01*
X160072342Y-67734050D01*
X160065469Y-67766918D01*
X160065399Y-67767976D01*
X160079445Y-67774348D01*
X160100657Y-67761323D01*
X160137455Y-67738158D01*
X160148487Y-67749335D01*
X160134678Y-67791408D01*
X160096951Y-67860926D01*
X160057226Y-67923441D01*
X160007063Y-67997263D01*
X159966803Y-68053502D01*
X159942949Y-68083189D01*
X159939623Y-68085649D01*
X159930396Y-68064978D01*
X159916420Y-68011377D01*
X159903967Y-67952634D01*
X159881609Y-67837517D01*
X159867403Y-67761091D01*
X159860755Y-67716617D01*
X159861069Y-67697356D01*
X159867752Y-67696568D01*
X159880208Y-67707513D01*
X159882524Y-67709738D01*
X159915800Y-67734520D01*
X159927929Y-67738654D01*
X159936911Y-67717354D01*
X159949226Y-67660296D01*
X159963472Y-67577749D01*
X159978247Y-67479977D01*
X159992149Y-67377247D01*
X160003775Y-67279825D01*
X160011724Y-67197977D01*
X160014593Y-67141971D01*
X160012093Y-67122446D01*
X159987428Y-67127201D01*
X159932703Y-67151388D01*
X159857472Y-67190538D01*
X159813175Y-67215468D01*
X159708719Y-67273896D01*
X159638620Y-67308073D01*
X159598640Y-67319262D01*
X159584542Y-67308723D01*
X159590450Y-67281778D01*
X159603537Y-67241767D01*
X159624764Y-67170112D01*
X159650307Y-67079859D01*
X159660002Y-67044665D01*
X159689190Y-66938297D01*
X159725509Y-66806508D01*
X159763677Y-66668449D01*
X159789249Y-66576222D01*
X159864738Y-66304410D01*
X160158552Y-66304410D01*
X160121073Y-66391159D01*
G37*
G36*
X160099526Y-65407762D02*
G01*
X160108994Y-65412410D01*
X160125812Y-65421067D01*
X160141065Y-65430376D01*
X160156880Y-65443742D01*
X160175388Y-65464576D01*
X160198715Y-65496283D01*
X160228991Y-65542273D01*
X160268343Y-65605954D01*
X160318900Y-65690733D01*
X160382791Y-65800018D01*
X160462143Y-65937218D01*
X160559086Y-66105740D01*
X160675747Y-66308992D01*
X160752752Y-66443208D01*
X160866014Y-66640539D01*
X160990071Y-66856567D01*
X161118313Y-67079788D01*
X161244130Y-67298699D01*
X161360912Y-67501797D01*
X161462049Y-67677579D01*
X161472342Y-67695460D01*
X161559194Y-67848331D01*
X161636974Y-67989103D01*
X161702830Y-68112314D01*
X161753907Y-68212502D01*
X161787350Y-68284204D01*
X161800305Y-68321958D01*
X161800371Y-68323271D01*
X161785864Y-68384043D01*
X161756160Y-68435864D01*
X161711949Y-68490476D01*
X160316133Y-68492178D01*
X160055908Y-68492265D01*
X159801432Y-68491914D01*
X159557891Y-68491159D01*
X159330472Y-68490035D01*
X159124363Y-68488579D01*
X158944748Y-68486827D01*
X158796817Y-68484812D01*
X158685754Y-68482572D01*
X158626292Y-68480612D01*
X158502378Y-68474249D01*
X158416405Y-68467305D01*
X158360053Y-68458274D01*
X158325007Y-68445649D01*
X158302948Y-68427927D01*
X158297382Y-68421077D01*
X158269222Y-68360622D01*
X158261763Y-68316101D01*
X158272810Y-68279071D01*
X158292454Y-68234916D01*
X158561756Y-68234916D01*
X158584241Y-68237123D01*
X158649105Y-68239208D01*
X158752463Y-68241137D01*
X158890426Y-68242877D01*
X159059110Y-68244394D01*
X159254626Y-68245655D01*
X159473089Y-68246626D01*
X159710613Y-68247274D01*
X159963309Y-68247566D01*
X160030699Y-68247579D01*
X160286690Y-68247418D01*
X160528513Y-68246952D01*
X160752281Y-68246210D01*
X160954109Y-68245219D01*
X161130109Y-68244008D01*
X161276395Y-68242604D01*
X161389081Y-68241035D01*
X161464280Y-68239329D01*
X161498105Y-68237515D01*
X161499643Y-68237031D01*
X161488785Y-68213122D01*
X161460541Y-68161515D01*
X161427259Y-68104016D01*
X161402166Y-68060963D01*
X161356469Y-67981929D01*
X161292563Y-67871077D01*
X161212842Y-67732572D01*
X161119700Y-67570577D01*
X161015533Y-67389255D01*
X160902735Y-67192772D01*
X160783700Y-66985290D01*
X160718259Y-66871168D01*
X160575769Y-66622625D01*
X160454548Y-66411211D01*
X160352832Y-66233929D01*
X160268855Y-66087785D01*
X160200851Y-65969781D01*
X160147057Y-65876924D01*
X160105706Y-65806216D01*
X160075033Y-65754662D01*
X160053274Y-65719267D01*
X160038662Y-65697035D01*
X160029434Y-65684969D01*
X160023823Y-65680075D01*
X160020065Y-65679357D01*
X160016394Y-65679819D01*
X160016272Y-65679820D01*
X160001653Y-65699180D01*
X159967164Y-65754073D01*
X159915631Y-65839717D01*
X159849882Y-65951329D01*
X159772746Y-66084128D01*
X159687051Y-66233330D01*
X159636665Y-66321760D01*
X159457132Y-66637958D01*
X159290996Y-66931015D01*
X159139261Y-67199141D01*
X159002934Y-67440547D01*
X158883018Y-67653445D01*
X158780519Y-67836045D01*
X158696442Y-67986559D01*
X158631793Y-68103197D01*
X158587576Y-68184172D01*
X158564796Y-68227693D01*
X158561756Y-68234916D01*
X158292454Y-68234916D01*
X158304508Y-68207820D01*
X158354008Y-68107981D01*
X158418465Y-67985190D01*
X158495031Y-67845078D01*
X158542273Y-67760910D01*
X158641984Y-67584889D01*
X158755844Y-67383887D01*
X158875200Y-67173177D01*
X158991401Y-66968035D01*
X159095794Y-66783735D01*
X159111786Y-66755503D01*
X159193331Y-66611567D01*
X159269700Y-66476823D01*
X159337174Y-66357828D01*
X159392034Y-66261140D01*
X159430562Y-66193316D01*
X159446342Y-66165612D01*
X159475428Y-66114485D01*
X159521151Y-66033815D01*
X159577423Y-65934359D01*
X159638152Y-65826873D01*
X159642813Y-65818618D01*
X159704233Y-65711645D01*
X159762815Y-65612863D01*
X159812217Y-65532759D01*
X159846098Y-65481820D01*
X159847960Y-65479304D01*
X159922055Y-65412165D01*
X160008073Y-65387764D01*
X160099526Y-65407762D01*
G37*
D13*
%TO.C,R1*%
X162388000Y-66455936D02*
X162388000Y-67910064D01*
X164208000Y-66455936D02*
X164208000Y-67910064D01*
%TO.C,C17*%
X157218413Y-64315000D02*
X157740917Y-64315000D01*
X157218413Y-65785000D02*
X157740917Y-65785000D01*
%TO.C,R18*%
X141997064Y-71785000D02*
X141542936Y-71785000D01*
X141997064Y-73255000D02*
X141542936Y-73255000D01*
%TO.C,C7*%
X139616748Y-64315000D02*
X140139252Y-64315000D01*
X139616748Y-65785000D02*
X140139252Y-65785000D01*
%TO.C,C14*%
X152748748Y-58275000D02*
X153271252Y-58275000D01*
X152748748Y-59745000D02*
X153271252Y-59745000D01*
%TO.C,L1*%
X132400000Y-58100000D02*
X132400000Y-62100000D01*
X136600000Y-58100000D02*
X136600000Y-62100000D01*
%TO.C,R11*%
X140785000Y-75997064D02*
X140785000Y-75542936D01*
X142255000Y-75997064D02*
X142255000Y-75542936D01*
%TO.C,R10*%
X139630936Y-66785000D02*
X140085064Y-66785000D01*
X139630936Y-68255000D02*
X140085064Y-68255000D01*
%TO.C,C18*%
X159708748Y-58265000D02*
X160231252Y-58265000D01*
X159708748Y-59735000D02*
X160231252Y-59735000D01*
%TO.C,R9*%
X143612063Y-66785000D02*
X143157935Y-66785000D01*
X143612063Y-68255000D02*
X143157935Y-68255000D01*
%TO.C,R13*%
X141997064Y-69785000D02*
X141542936Y-69785000D01*
X141997064Y-71255000D02*
X141542936Y-71255000D01*
%TO.C,C16*%
X156228748Y-58265000D02*
X156751252Y-58265000D01*
X156228748Y-59735000D02*
X156751252Y-59735000D01*
%TO.C,U4*%
X146170000Y-75520000D02*
X146210000Y-71570000D01*
X156330000Y-73520000D02*
X156330000Y-71570000D01*
X156330000Y-73520000D02*
X156330000Y-75470000D01*
D15*
X146350000Y-74920000D02*
G75*
G02*
X145990000Y-74920000I-180000J0D01*
G01*
X145990000Y-74920000D02*
G75*
G02*
X146350000Y-74920000I180000J0D01*
G01*
D13*
%TO.C,Q1*%
X127726000Y-62630000D02*
X133736000Y-62630000D01*
X129976000Y-69450000D02*
X133736000Y-69450000D01*
X133736000Y-62630000D02*
X133736000Y-63890000D01*
X133736000Y-69450000D02*
X133736000Y-68190000D01*
%TO.C,D9*%
X159340000Y-62000000D02*
X159340000Y-61350000D01*
X159340000Y-62000000D02*
X159340000Y-63675000D01*
X162460000Y-62000000D02*
X162460000Y-61350000D01*
X162460000Y-62000000D02*
X162460000Y-62650000D01*
%TO.C,D2*%
X156670000Y-76770000D02*
X156670000Y-74220000D01*
X156670000Y-76770000D02*
X158370000Y-76770000D01*
X158370000Y-76770000D02*
X158370000Y-74220000D01*
%TO.C,TP7*%
X164884000Y-65213000D02*
X166284000Y-65213000D01*
X164884000Y-66613000D02*
X164884000Y-65213000D01*
X166284000Y-65213000D02*
X166284000Y-66613000D01*
X166284000Y-66613000D02*
X164884000Y-66613000D01*
%TO.C,C19*%
X138331252Y-69785000D02*
X137808748Y-69785000D01*
X138331252Y-71255000D02*
X137808748Y-71255000D01*
%TO.C,C8*%
X142218748Y-58255000D02*
X142741252Y-58255000D01*
X142218748Y-59725000D02*
X142741252Y-59725000D01*
%TO.C,D5*%
X145358666Y-62000000D02*
X145358666Y-61350000D01*
X145358666Y-62000000D02*
X145358666Y-63675000D01*
X148478666Y-62000000D02*
X148478666Y-61350000D01*
X148478666Y-62000000D02*
X148478666Y-62650000D01*
%TO.C,C3*%
X144008748Y-75535000D02*
X144531252Y-75535000D01*
X144008748Y-77005000D02*
X144531252Y-77005000D01*
%TD*%
%LPC*%
D16*
%TO.C,C11*%
X145968666Y-65050000D03*
X147868666Y-65050000D03*
%TD*%
D17*
%TO.C,F1*%
X128500000Y-72413500D03*
X128500000Y-70588500D03*
%TD*%
D18*
%TO.C,two_pinheader1*%
X164060000Y-60325000D03*
D19*
X164060000Y-62865000D03*
%TD*%
D16*
%TO.C,C9*%
X142448333Y-65050000D03*
X144348333Y-65050000D03*
%TD*%
D20*
%TO.C,H2*%
X164060000Y-71755000D03*
%TD*%
D21*
%TO.C,H4*%
X164060000Y-75565000D03*
%TD*%
D22*
%TO.C,D8*%
X156450000Y-62937500D03*
X158350000Y-62937500D03*
X157400000Y-61062500D03*
%TD*%
%TO.C,D4*%
X142450000Y-62937500D03*
X144350000Y-62937500D03*
X143400000Y-61062500D03*
%TD*%
D16*
%TO.C,C12*%
X148530000Y-59000000D03*
X150430000Y-59000000D03*
%TD*%
%TO.C,C13*%
X149488999Y-65050000D03*
X151388999Y-65050000D03*
%TD*%
D23*
%TO.C,R17*%
X157520000Y-70520000D03*
X157520000Y-72345000D03*
%TD*%
D16*
%TO.C,C10*%
X145020000Y-59010000D03*
X146920000Y-59010000D03*
%TD*%
D22*
%TO.C,D3*%
X138928000Y-62913500D03*
X140828000Y-62913500D03*
X139878000Y-61038500D03*
%TD*%
D24*
%TO.C,R8*%
X147824498Y-67520000D03*
X145999498Y-67520000D03*
%TD*%
D17*
%TO.C,FB2*%
X128020000Y-60912500D03*
X128020000Y-59087500D03*
%TD*%
D24*
%TO.C,R7*%
X151351499Y-67520000D03*
X149526499Y-67520000D03*
%TD*%
D23*
%TO.C,R6*%
X145020000Y-71857500D03*
X145020000Y-73682500D03*
%TD*%
D16*
%TO.C,C15*%
X153009332Y-65050000D03*
X154909332Y-65050000D03*
%TD*%
D22*
%TO.C,D6*%
X149450000Y-62937500D03*
X151350000Y-62937500D03*
X150400000Y-61062500D03*
%TD*%
D21*
%TO.C,H1*%
X138660000Y-75565000D03*
%TD*%
D22*
%TO.C,D7*%
X152950000Y-62937500D03*
X154850000Y-62937500D03*
X153900000Y-61062500D03*
%TD*%
D16*
%TO.C,C6*%
X138030000Y-58990000D03*
X139930000Y-58990000D03*
%TD*%
D25*
%TO.C,C5*%
X130100000Y-59050000D03*
X130100000Y-60950000D03*
%TD*%
D26*
%TO.C,J1*%
X128500000Y-75565000D03*
D19*
X131040000Y-75565000D03*
X133580000Y-75565000D03*
%TD*%
D27*
%TO.C,R1*%
X163298000Y-65720500D03*
X163298000Y-68645500D03*
%TD*%
D16*
%TO.C,C17*%
X156529665Y-65050000D03*
X158429665Y-65050000D03*
%TD*%
D24*
%TO.C,R18*%
X142682500Y-72520000D03*
X140857500Y-72520000D03*
%TD*%
D16*
%TO.C,C7*%
X138928000Y-65050000D03*
X140828000Y-65050000D03*
%TD*%
%TO.C,C14*%
X152060000Y-59010000D03*
X153960000Y-59010000D03*
%TD*%
D28*
%TO.C,L1*%
X134500000Y-58700000D03*
X134500000Y-61500000D03*
%TD*%
D17*
%TO.C,R11*%
X141520000Y-76682500D03*
X141520000Y-74857500D03*
%TD*%
D29*
%TO.C,R10*%
X138945500Y-67520000D03*
X140770500Y-67520000D03*
%TD*%
D16*
%TO.C,C18*%
X159020000Y-59000000D03*
X160920000Y-59000000D03*
%TD*%
D24*
%TO.C,R9*%
X144297499Y-67520000D03*
X142472499Y-67520000D03*
%TD*%
%TO.C,R13*%
X142682500Y-70520000D03*
X140857500Y-70520000D03*
%TD*%
D16*
%TO.C,C16*%
X155540000Y-59000000D03*
X157440000Y-59000000D03*
%TD*%
D30*
%TO.C,U4*%
X146825000Y-75995000D03*
X148095000Y-75995000D03*
X149365000Y-75995000D03*
X150635000Y-75995000D03*
X151905000Y-75995000D03*
X153175000Y-75995000D03*
X154445000Y-75995000D03*
X155715000Y-75995000D03*
X155715000Y-71045000D03*
X154445000Y-71045000D03*
X153175000Y-71045000D03*
X151905000Y-71045000D03*
X150635000Y-71045000D03*
X149365000Y-71045000D03*
X148095000Y-71045000D03*
X146825000Y-71045000D03*
%TD*%
D31*
%TO.C,Q1*%
X128676000Y-63740000D03*
X128676000Y-68340000D03*
D32*
X134976000Y-66040000D03*
D31*
X128676000Y-66040000D03*
%TD*%
D22*
%TO.C,D9*%
X159950000Y-62937500D03*
X161850000Y-62937500D03*
X160900000Y-61062500D03*
%TD*%
D33*
%TO.C,D2*%
X157520000Y-76320000D03*
X157520000Y-74220000D03*
%TD*%
D34*
%TO.C,TP7*%
X165584000Y-65913000D03*
%TD*%
D35*
%TO.C,C19*%
X139020000Y-70520000D03*
X137120000Y-70520000D03*
%TD*%
D16*
%TO.C,C8*%
X141530000Y-58990000D03*
X143430000Y-58990000D03*
%TD*%
D22*
%TO.C,D5*%
X145968666Y-62937500D03*
X147868666Y-62937500D03*
X146918666Y-61062500D03*
%TD*%
D16*
%TO.C,C3*%
X143320000Y-76270000D03*
X145220000Y-76270000D03*
%TD*%
%LPD*%
M02*
