%TF.GenerationSoftware,KiCad,Pcbnew,9.0.6-9.0.6~ubuntu24.04.1*%
%TF.CreationDate,2025-11-13T19:41:32+09:00*%
%TF.ProjectId,SafePulse,53616665-5075-46c7-9365-2e6b69636164,V1.2.2*%
%TF.SameCoordinates,Original*%
%TF.FileFunction,Copper,L2,Inr*%
%TF.FilePolarity,Positive*%
%FSLAX46Y46*%
G04 Gerber Fmt 4.6, Leading zero omitted, Abs format (unit mm)*
G04 Created by KiCad (PCBNEW 9.0.6-9.0.6~ubuntu24.04.1) date 2025-11-13 19:41:32*
%MOMM*%
%LPD*%
G01*
G04 APERTURE LIST*
%TA.AperFunction,ComponentPad*%
%ADD10C,1.700000*%
%TD*%
%TA.AperFunction,ComponentPad*%
%ADD11O,1.700000X1.700000*%
%TD*%
%TA.AperFunction,ComponentPad*%
%ADD12C,2.500000*%
%TD*%
%TA.AperFunction,ComponentPad*%
%ADD13C,2.800000*%
%TD*%
%TA.AperFunction,ComponentPad*%
%ADD14R,1.700000X1.700000*%
%TD*%
%TA.AperFunction,ViaPad*%
%ADD15C,0.800000*%
%TD*%
G04 APERTURE END LIST*
D10*
%TO.N,unconnected-(two_pinheader1-Pad1)*%
%TO.C,two_pinheader1*%
X164060000Y-60325000D03*
D11*
%TO.N,unconnected-(two_pinheader1-Pad2)*%
X164060000Y-62865000D03*
%TD*%
D12*
%TO.N,Net-(H2-Pad1)*%
%TO.C,H2*%
X164060000Y-71755000D03*
%TD*%
D13*
%TO.N,Net-(H2-Pad1)*%
%TO.C,H4*%
X164060000Y-75565000D03*
%TD*%
%TO.N,Net-(H1-Pad1)*%
%TO.C,H1*%
X138660000Y-75565000D03*
%TD*%
D14*
%TO.N,Net-(F1-Pad1)*%
%TO.C,J1*%
X128500000Y-75565000D03*
D11*
%TO.N,Net-(D2-Pad2)*%
X131040000Y-75565000D03*
%TO.N,GND*%
X133580000Y-75565000D03*
%TD*%
D15*
%TO.N,*%
X149170000Y-76743500D03*
X145770000Y-72020000D03*
%TO.N,GND*%
X145200000Y-61113817D03*
X154500000Y-68000000D03*
X146153000Y-75819000D03*
X150400000Y-70231000D03*
X150600000Y-77072500D03*
X132770000Y-72770000D03*
X141700000Y-61065000D03*
X148861441Y-61049870D03*
X138020000Y-62770000D03*
X156270000Y-75520000D03*
X150902800Y-71704200D03*
X135770000Y-70520000D03*
X130270000Y-62270000D03*
X139020000Y-57770000D03*
%TO.N,Net-(C7-Pad1)*%
X133520000Y-67020000D03*
%TO.N,+3V3*%
X139634500Y-72517000D03*
X135764700Y-71941100D03*
X126920900Y-69342400D03*
%TO.N,Net-(Q2-Pad3)*%
X148020000Y-72770000D03*
%TO.N,Net-(Q1-Pad1)*%
X130664198Y-66968888D03*
%TO.N,Net-(Q3-Pad2)*%
X152919800Y-74131600D03*
%TO.N,Net-(Q1-Pad3)*%
X127770000Y-67520000D03*
%TO.N,Net-(C6-Pad2)*%
X140700000Y-58665000D03*
%TO.N,Net-(R7-Pad1)*%
X152000000Y-67065000D03*
%TD*%
%TA.AperFunction,Conductor*%
%TO.N,GND*%
G36*
X139842098Y-57185926D02*
G01*
X139888602Y-57239571D01*
X139900000Y-57291938D01*
X139900000Y-58315000D01*
X140083468Y-58315000D01*
X140151589Y-58335002D01*
X140198082Y-58388658D01*
X140208186Y-58458932D01*
X140205177Y-58473598D01*
X140172500Y-58595553D01*
X140172500Y-58734447D01*
X140198814Y-58832655D01*
X140208447Y-58868604D01*
X140208450Y-58868611D01*
X140277892Y-58988889D01*
X140277900Y-58988899D01*
X140376100Y-59087099D01*
X140376105Y-59087103D01*
X140376107Y-59087105D01*
X140496393Y-59156552D01*
X140630553Y-59192500D01*
X140630555Y-59192500D01*
X140769445Y-59192500D01*
X140769447Y-59192500D01*
X140903607Y-59156552D01*
X141023893Y-59087105D01*
X141122105Y-58988893D01*
X141191552Y-58868607D01*
X141227500Y-58734447D01*
X141227500Y-58595553D01*
X141194825Y-58473608D01*
X141196515Y-58402635D01*
X141236309Y-58343839D01*
X141301573Y-58315891D01*
X141316532Y-58315000D01*
X158214000Y-58315000D01*
X158282121Y-58335002D01*
X158328614Y-58388658D01*
X158340000Y-58441000D01*
X158340000Y-77835016D01*
X158319998Y-77903137D01*
X158266342Y-77949630D01*
X158214027Y-77961016D01*
X127742515Y-77967499D01*
X127733499Y-77967178D01*
X127535013Y-77952982D01*
X127517219Y-77950423D01*
X127327165Y-77909079D01*
X127309916Y-77904015D01*
X127127678Y-77836044D01*
X127111324Y-77828575D01*
X126940624Y-77735365D01*
X126925501Y-77725646D01*
X126769796Y-77609087D01*
X126756210Y-77597314D01*
X126618685Y-77459789D01*
X126606912Y-77446203D01*
X126490353Y-77290498D01*
X126480634Y-77275375D01*
X126458616Y-77235052D01*
X126387421Y-77104670D01*
X126379955Y-77088321D01*
X126311984Y-76906083D01*
X126306920Y-76888834D01*
X126265576Y-76698780D01*
X126263018Y-76680996D01*
X126248821Y-76482487D01*
X126248500Y-76473499D01*
X126248500Y-74702442D01*
X127522500Y-74702442D01*
X127522500Y-76427558D01*
X127529898Y-76464748D01*
X127558078Y-76506922D01*
X127600252Y-76535102D01*
X127637442Y-76542500D01*
X127637447Y-76542500D01*
X129362553Y-76542500D01*
X129362558Y-76542500D01*
X129399748Y-76535102D01*
X129441922Y-76506922D01*
X129470102Y-76464748D01*
X129477500Y-76427558D01*
X129477500Y-75468719D01*
X130062500Y-75468719D01*
X130062500Y-75661280D01*
X130074724Y-75722731D01*
X130100064Y-75850126D01*
X130173750Y-76028020D01*
X130245228Y-76134995D01*
X130280725Y-76188119D01*
X130280730Y-76188125D01*
X130416874Y-76324269D01*
X130416880Y-76324274D01*
X130576980Y-76431250D01*
X130754874Y-76504936D01*
X130906532Y-76535102D01*
X130943719Y-76542499D01*
X130943722Y-76542499D01*
X130943725Y-76542500D01*
X130943726Y-76542500D01*
X131136274Y-76542500D01*
X131136275Y-76542500D01*
X131325126Y-76504936D01*
X131503020Y-76431250D01*
X131663120Y-76324274D01*
X131799274Y-76188120D01*
X131906250Y-76028020D01*
X131979936Y-75850126D01*
X131992762Y-75785639D01*
X132025669Y-75722731D01*
X132087363Y-75687598D01*
X132158258Y-75691398D01*
X132215845Y-75732923D01*
X132240790Y-75790509D01*
X132255440Y-75883004D01*
X132321490Y-76086286D01*
X132321493Y-76086292D01*
X132418536Y-76276750D01*
X132544177Y-76449679D01*
X132695320Y-76600822D01*
X132868249Y-76726463D01*
X133058707Y-76823506D01*
X133058713Y-76823509D01*
X133261998Y-76889560D01*
X133326000Y-76899696D01*
X133326000Y-75995702D01*
X133387007Y-76030925D01*
X133514174Y-76065000D01*
X133645826Y-76065000D01*
X133772993Y-76030925D01*
X133834000Y-75995702D01*
X133834000Y-76899696D01*
X133898001Y-76889560D01*
X134101286Y-76823509D01*
X134101292Y-76823506D01*
X134291750Y-76726463D01*
X134464679Y-76600822D01*
X134615822Y-76449679D01*
X134741463Y-76276750D01*
X134838506Y-76086292D01*
X134838509Y-76086286D01*
X134904559Y-75883004D01*
X134914698Y-75819000D01*
X134010703Y-75819000D01*
X134045925Y-75757993D01*
X134080000Y-75630826D01*
X134080000Y-75499174D01*
X134065426Y-75444783D01*
X137132500Y-75444783D01*
X137132500Y-75685217D01*
X137170112Y-75922690D01*
X137244411Y-76151356D01*
X137353565Y-76365584D01*
X137494888Y-76560099D01*
X137494890Y-76560101D01*
X137494892Y-76560104D01*
X137664895Y-76730107D01*
X137664898Y-76730109D01*
X137664901Y-76730112D01*
X137859416Y-76871435D01*
X138073644Y-76980589D01*
X138302310Y-77054888D01*
X138539783Y-77092500D01*
X138539786Y-77092500D01*
X138780214Y-77092500D01*
X138780217Y-77092500D01*
X139017690Y-77054888D01*
X139246356Y-76980589D01*
X139460584Y-76871435D01*
X139655099Y-76730112D01*
X139711158Y-76674053D01*
X148642500Y-76674053D01*
X148642500Y-76812947D01*
X148658171Y-76871432D01*
X148678447Y-76947104D01*
X148678450Y-76947111D01*
X148747892Y-77067389D01*
X148747900Y-77067399D01*
X148846100Y-77165599D01*
X148846105Y-77165603D01*
X148846107Y-77165605D01*
X148966393Y-77235052D01*
X149100553Y-77271000D01*
X149100555Y-77271000D01*
X149239445Y-77271000D01*
X149239447Y-77271000D01*
X149373607Y-77235052D01*
X149493893Y-77165605D01*
X149592105Y-77067393D01*
X149661552Y-76947107D01*
X149697500Y-76812947D01*
X149697500Y-76674053D01*
X149661552Y-76539893D01*
X149623848Y-76474588D01*
X149592107Y-76419610D01*
X149592099Y-76419600D01*
X149493899Y-76321400D01*
X149493889Y-76321392D01*
X149373611Y-76251950D01*
X149373608Y-76251949D01*
X149373607Y-76251948D01*
X149373605Y-76251947D01*
X149373604Y-76251947D01*
X149337655Y-76242314D01*
X149239447Y-76216000D01*
X149100553Y-76216000D01*
X149028659Y-76235263D01*
X148966395Y-76251947D01*
X148966388Y-76251950D01*
X148846110Y-76321392D01*
X148846100Y-76321400D01*
X148747900Y-76419600D01*
X148747892Y-76419610D01*
X148678450Y-76539888D01*
X148678447Y-76539895D01*
X148666085Y-76586033D01*
X148642500Y-76674053D01*
X139711158Y-76674053D01*
X139808512Y-76576700D01*
X139825107Y-76560104D01*
X139825112Y-76560099D01*
X139966435Y-76365584D01*
X140075589Y-76151356D01*
X140149888Y-75922690D01*
X140187500Y-75685217D01*
X140187500Y-75444783D01*
X140149888Y-75207310D01*
X140075589Y-74978644D01*
X139966435Y-74764416D01*
X139825112Y-74569901D01*
X139825109Y-74569898D01*
X139825107Y-74569895D01*
X139655104Y-74399892D01*
X139655101Y-74399890D01*
X139655099Y-74399888D01*
X139460584Y-74258565D01*
X139279230Y-74166161D01*
X139279229Y-74166160D01*
X139246357Y-74149411D01*
X139017693Y-74075113D01*
X139017690Y-74075112D01*
X138935870Y-74062153D01*
X152392300Y-74062153D01*
X152392300Y-74201047D01*
X152418614Y-74299255D01*
X152428247Y-74335204D01*
X152428250Y-74335211D01*
X152497692Y-74455489D01*
X152497700Y-74455499D01*
X152595900Y-74553699D01*
X152595905Y-74553703D01*
X152595907Y-74553705D01*
X152595908Y-74553706D01*
X152595910Y-74553707D01*
X152680453Y-74602518D01*
X152716193Y-74623152D01*
X152850353Y-74659100D01*
X152850355Y-74659100D01*
X152989245Y-74659100D01*
X152989247Y-74659100D01*
X153123407Y-74623152D01*
X153243693Y-74553705D01*
X153341905Y-74455493D01*
X153411352Y-74335207D01*
X153447300Y-74201047D01*
X153447300Y-74062153D01*
X153411352Y-73927993D01*
X153341905Y-73807707D01*
X153341903Y-73807705D01*
X153341899Y-73807700D01*
X153243699Y-73709500D01*
X153243689Y-73709492D01*
X153123411Y-73640050D01*
X153123408Y-73640049D01*
X153123407Y-73640048D01*
X153123405Y-73640047D01*
X153123404Y-73640047D01*
X153087455Y-73630414D01*
X152989247Y-73604100D01*
X152850353Y-73604100D01*
X152778459Y-73623363D01*
X152716195Y-73640047D01*
X152716188Y-73640050D01*
X152595910Y-73709492D01*
X152595900Y-73709500D01*
X152497700Y-73807700D01*
X152497692Y-73807710D01*
X152428250Y-73927988D01*
X152428248Y-73927993D01*
X152392300Y-74062153D01*
X138935870Y-74062153D01*
X138780217Y-74037500D01*
X138539783Y-74037500D01*
X138302310Y-74075112D01*
X138302307Y-74075112D01*
X138302306Y-74075113D01*
X138073645Y-74149410D01*
X137859412Y-74258567D01*
X137664898Y-74399890D01*
X137664895Y-74399892D01*
X137494892Y-74569895D01*
X137494890Y-74569898D01*
X137353567Y-74764412D01*
X137244410Y-74978645D01*
X137170113Y-75207306D01*
X137170112Y-75207310D01*
X137132500Y-75444783D01*
X134065426Y-75444783D01*
X134045925Y-75372007D01*
X134010703Y-75311000D01*
X134914697Y-75311000D01*
X134904559Y-75246995D01*
X134838509Y-75043713D01*
X134838506Y-75043707D01*
X134741463Y-74853249D01*
X134615822Y-74680320D01*
X134464679Y-74529177D01*
X134291750Y-74403536D01*
X134101292Y-74306493D01*
X134101286Y-74306490D01*
X133898004Y-74240440D01*
X133834000Y-74230302D01*
X133834000Y-75134297D01*
X133772993Y-75099075D01*
X133645826Y-75065000D01*
X133514174Y-75065000D01*
X133387007Y-75099075D01*
X133326000Y-75134297D01*
X133326000Y-74230302D01*
X133261995Y-74240440D01*
X133058713Y-74306490D01*
X133058707Y-74306493D01*
X132868249Y-74403536D01*
X132695320Y-74529177D01*
X132544177Y-74680320D01*
X132418536Y-74853249D01*
X132321493Y-75043707D01*
X132321490Y-75043713D01*
X132255440Y-75246995D01*
X132240790Y-75339490D01*
X132210377Y-75403643D01*
X132150108Y-75441169D01*
X132079119Y-75440155D01*
X132019947Y-75400921D01*
X131992763Y-75344361D01*
X131979936Y-75279874D01*
X131906250Y-75101980D01*
X131799274Y-74941880D01*
X131799269Y-74941874D01*
X131663125Y-74805730D01*
X131663119Y-74805725D01*
X131609995Y-74770228D01*
X131503020Y-74698750D01*
X131325126Y-74625064D01*
X131271168Y-74614331D01*
X131136280Y-74587500D01*
X131136275Y-74587500D01*
X130943725Y-74587500D01*
X130943719Y-74587500D01*
X130781852Y-74619697D01*
X130754874Y-74625064D01*
X130754871Y-74625064D01*
X130754868Y-74625066D01*
X130576980Y-74698750D01*
X130416880Y-74805725D01*
X130416874Y-74805730D01*
X130280730Y-74941874D01*
X130280725Y-74941880D01*
X130173750Y-75101980D01*
X130100066Y-75279868D01*
X130100064Y-75279875D01*
X130062500Y-75468719D01*
X129477500Y-75468719D01*
X129477500Y-74702442D01*
X129470102Y-74665252D01*
X129441922Y-74623078D01*
X129399748Y-74594898D01*
X129399745Y-74594897D01*
X129362558Y-74587500D01*
X127637442Y-74587500D01*
X127637441Y-74587500D01*
X127600254Y-74594897D01*
X127600252Y-74594897D01*
X127600252Y-74594898D01*
X127558078Y-74623078D01*
X127529897Y-74665254D01*
X127523234Y-74698750D01*
X127522500Y-74702442D01*
X126248500Y-74702442D01*
X126248500Y-71871653D01*
X135237200Y-71871653D01*
X135237200Y-72010547D01*
X135248151Y-72051415D01*
X135273147Y-72144704D01*
X135273150Y-72144711D01*
X135342592Y-72264989D01*
X135342600Y-72264999D01*
X135440800Y-72363199D01*
X135440805Y-72363203D01*
X135440807Y-72363205D01*
X135561093Y-72432652D01*
X135695253Y-72468600D01*
X135695255Y-72468600D01*
X135834145Y-72468600D01*
X135834147Y-72468600D01*
X135912696Y-72447553D01*
X139107000Y-72447553D01*
X139107000Y-72586447D01*
X139133314Y-72684655D01*
X139142947Y-72720604D01*
X139142950Y-72720611D01*
X139212392Y-72840889D01*
X139212400Y-72840899D01*
X139310600Y-72939099D01*
X139310605Y-72939103D01*
X139310607Y-72939105D01*
X139430893Y-73008552D01*
X139565053Y-73044500D01*
X139565055Y-73044500D01*
X139703945Y-73044500D01*
X139703947Y-73044500D01*
X139838107Y-73008552D01*
X139958393Y-72939105D01*
X140056605Y-72840893D01*
X140126052Y-72720607D01*
X140131425Y-72700553D01*
X147492500Y-72700553D01*
X147492500Y-72839447D01*
X147518814Y-72937655D01*
X147528447Y-72973604D01*
X147528450Y-72973611D01*
X147597892Y-73093889D01*
X147597900Y-73093899D01*
X147696100Y-73192099D01*
X147696105Y-73192103D01*
X147696107Y-73192105D01*
X147816393Y-73261552D01*
X147950553Y-73297500D01*
X147950555Y-73297500D01*
X148089445Y-73297500D01*
X148089447Y-73297500D01*
X148223607Y-73261552D01*
X148343893Y-73192105D01*
X148442105Y-73093893D01*
X148511552Y-72973607D01*
X148547500Y-72839447D01*
X148547500Y-72700553D01*
X148511552Y-72566393D01*
X148479888Y-72511549D01*
X148442107Y-72446110D01*
X148442099Y-72446100D01*
X148343899Y-72347900D01*
X148343889Y-72347892D01*
X148223611Y-72278450D01*
X148223608Y-72278449D01*
X148223607Y-72278448D01*
X148223605Y-72278447D01*
X148223604Y-72278447D01*
X148187655Y-72268814D01*
X148089447Y-72242500D01*
X147950553Y-72242500D01*
X147878659Y-72261763D01*
X147816395Y-72278447D01*
X147816388Y-72278450D01*
X147696110Y-72347892D01*
X147696100Y-72347900D01*
X147597900Y-72446100D01*
X147597892Y-72446110D01*
X147528450Y-72566388D01*
X147528447Y-72566395D01*
X147505657Y-72651448D01*
X147492500Y-72700553D01*
X140131425Y-72700553D01*
X140162000Y-72586447D01*
X140162000Y-72447553D01*
X140126052Y-72313393D01*
X140085122Y-72242500D01*
X140056607Y-72193110D01*
X140056599Y-72193100D01*
X139958399Y-72094900D01*
X139958395Y-72094897D01*
X139958393Y-72094895D01*
X139860692Y-72038487D01*
X139838111Y-72025450D01*
X139838108Y-72025449D01*
X139838107Y-72025448D01*
X139838105Y-72025447D01*
X139838104Y-72025447D01*
X139802155Y-72015814D01*
X139703947Y-71989500D01*
X139565053Y-71989500D01*
X139493159Y-72008763D01*
X139430895Y-72025447D01*
X139430888Y-72025450D01*
X139310610Y-72094892D01*
X139310600Y-72094900D01*
X139212400Y-72193100D01*
X139212392Y-72193110D01*
X139142950Y-72313388D01*
X139142947Y-72313395D01*
X139129601Y-72363205D01*
X139107000Y-72447553D01*
X135912696Y-72447553D01*
X135968307Y-72432652D01*
X136088593Y-72363205D01*
X136088599Y-72363199D01*
X136101599Y-72350200D01*
X136186799Y-72264999D01*
X136186805Y-72264993D01*
X136256252Y-72144707D01*
X136292200Y-72010547D01*
X136292200Y-71950553D01*
X145242500Y-71950553D01*
X145242500Y-72089447D01*
X145257306Y-72144704D01*
X145278447Y-72223604D01*
X145278450Y-72223611D01*
X145347892Y-72343889D01*
X145347900Y-72343899D01*
X145446100Y-72442099D01*
X145446105Y-72442103D01*
X145446107Y-72442105D01*
X145446108Y-72442106D01*
X145446110Y-72442107D01*
X145455543Y-72447553D01*
X145566393Y-72511552D01*
X145700553Y-72547500D01*
X145700555Y-72547500D01*
X145839445Y-72547500D01*
X145839447Y-72547500D01*
X145973607Y-72511552D01*
X146093893Y-72442105D01*
X146192105Y-72343893D01*
X146261552Y-72223607D01*
X146297500Y-72089447D01*
X146297500Y-71950553D01*
X146261552Y-71816393D01*
X146192105Y-71696107D01*
X146192103Y-71696105D01*
X146192099Y-71696100D01*
X146093899Y-71597900D01*
X146093889Y-71597892D01*
X145973611Y-71528450D01*
X145973608Y-71528449D01*
X145973607Y-71528448D01*
X145973605Y-71528447D01*
X145973604Y-71528447D01*
X145937655Y-71518814D01*
X145839447Y-71492500D01*
X145700553Y-71492500D01*
X145628659Y-71511763D01*
X145566395Y-71528447D01*
X145566388Y-71528450D01*
X145446110Y-71597892D01*
X145446100Y-71597900D01*
X145347900Y-71696100D01*
X145347892Y-71696110D01*
X145278450Y-71816388D01*
X145278448Y-71816393D01*
X145242500Y-71950553D01*
X136292200Y-71950553D01*
X136292200Y-71871653D01*
X136256252Y-71737493D01*
X136186805Y-71617207D01*
X136186803Y-71617205D01*
X136186799Y-71617200D01*
X136088599Y-71519000D01*
X136088589Y-71518992D01*
X135968311Y-71449550D01*
X135968308Y-71449549D01*
X135968307Y-71449548D01*
X135968305Y-71449547D01*
X135968304Y-71449547D01*
X135932355Y-71439914D01*
X135834147Y-71413600D01*
X135695253Y-71413600D01*
X135623359Y-71432863D01*
X135561095Y-71449547D01*
X135561088Y-71449550D01*
X135440810Y-71518992D01*
X135440800Y-71519000D01*
X135342600Y-71617200D01*
X135342592Y-71617210D01*
X135273150Y-71737488D01*
X135273148Y-71737493D01*
X135237200Y-71871653D01*
X126248500Y-71871653D01*
X126248500Y-69703007D01*
X126268502Y-69634886D01*
X126322158Y-69588393D01*
X126392432Y-69578289D01*
X126457012Y-69607783D01*
X126483617Y-69640005D01*
X126498795Y-69666293D01*
X126498797Y-69666295D01*
X126498800Y-69666299D01*
X126597000Y-69764499D01*
X126597005Y-69764503D01*
X126597007Y-69764505D01*
X126717293Y-69833952D01*
X126851453Y-69869900D01*
X126851455Y-69869900D01*
X126990345Y-69869900D01*
X126990347Y-69869900D01*
X127124507Y-69833952D01*
X127244793Y-69764505D01*
X127343005Y-69666293D01*
X127412452Y-69546007D01*
X127448400Y-69411847D01*
X127448400Y-69272953D01*
X127412452Y-69138793D01*
X127386467Y-69093785D01*
X127343007Y-69018510D01*
X127342999Y-69018500D01*
X127244799Y-68920300D01*
X127244789Y-68920292D01*
X127124511Y-68850850D01*
X127124508Y-68850849D01*
X127124507Y-68850848D01*
X127124505Y-68850847D01*
X127124504Y-68850847D01*
X127088555Y-68841214D01*
X126990347Y-68814900D01*
X126851453Y-68814900D01*
X126779559Y-68834163D01*
X126717295Y-68850847D01*
X126717288Y-68850850D01*
X126597010Y-68920292D01*
X126597000Y-68920300D01*
X126498800Y-69018500D01*
X126498792Y-69018510D01*
X126483619Y-69044792D01*
X126432236Y-69093785D01*
X126362523Y-69107221D01*
X126296612Y-69080834D01*
X126255430Y-69023002D01*
X126248500Y-68981792D01*
X126248500Y-67450553D01*
X127242500Y-67450553D01*
X127242500Y-67589447D01*
X127268814Y-67687655D01*
X127278447Y-67723604D01*
X127278450Y-67723611D01*
X127347892Y-67843889D01*
X127347900Y-67843899D01*
X127446100Y-67942099D01*
X127446105Y-67942103D01*
X127446107Y-67942105D01*
X127566393Y-68011552D01*
X127700553Y-68047500D01*
X127700555Y-68047500D01*
X127839445Y-68047500D01*
X127839447Y-68047500D01*
X127973607Y-68011552D01*
X128093893Y-67942105D01*
X128192105Y-67843893D01*
X128261552Y-67723607D01*
X128297500Y-67589447D01*
X128297500Y-67450553D01*
X128261552Y-67316393D01*
X128233961Y-67268604D01*
X128192107Y-67196110D01*
X128192099Y-67196100D01*
X128093899Y-67097900D01*
X128093889Y-67097892D01*
X127973611Y-67028450D01*
X127973608Y-67028449D01*
X127973607Y-67028448D01*
X127973605Y-67028447D01*
X127973604Y-67028447D01*
X127955765Y-67023667D01*
X127839447Y-66992500D01*
X127700553Y-66992500D01*
X127628659Y-67011763D01*
X127566395Y-67028447D01*
X127566388Y-67028450D01*
X127446110Y-67097892D01*
X127446100Y-67097900D01*
X127347900Y-67196100D01*
X127347892Y-67196110D01*
X127278450Y-67316388D01*
X127278447Y-67316395D01*
X127259023Y-67388889D01*
X127242500Y-67450553D01*
X126248500Y-67450553D01*
X126248500Y-66899441D01*
X130136698Y-66899441D01*
X130136698Y-67038335D01*
X130162451Y-67134445D01*
X130172645Y-67172492D01*
X130172648Y-67172499D01*
X130242090Y-67292777D01*
X130242098Y-67292787D01*
X130340298Y-67390987D01*
X130340303Y-67390991D01*
X130340305Y-67390993D01*
X130460591Y-67460440D01*
X130594751Y-67496388D01*
X130594753Y-67496388D01*
X130733643Y-67496388D01*
X130733645Y-67496388D01*
X130867805Y-67460440D01*
X130988091Y-67390993D01*
X131086303Y-67292781D01*
X131155750Y-67172495D01*
X131191698Y-67038335D01*
X131191698Y-66950553D01*
X132992500Y-66950553D01*
X132992500Y-67089447D01*
X132994763Y-67097892D01*
X133028447Y-67223604D01*
X133028450Y-67223611D01*
X133097892Y-67343889D01*
X133097900Y-67343899D01*
X133196100Y-67442099D01*
X133196105Y-67442103D01*
X133196107Y-67442105D01*
X133316393Y-67511552D01*
X133450553Y-67547500D01*
X133450555Y-67547500D01*
X133589445Y-67547500D01*
X133589447Y-67547500D01*
X133723607Y-67511552D01*
X133843893Y-67442105D01*
X133942105Y-67343893D01*
X134011552Y-67223607D01*
X134047500Y-67089447D01*
X134047500Y-66995553D01*
X151472500Y-66995553D01*
X151472500Y-67134447D01*
X151482694Y-67172492D01*
X151508447Y-67268604D01*
X151508450Y-67268611D01*
X151577892Y-67388889D01*
X151577900Y-67388899D01*
X151676100Y-67487099D01*
X151676105Y-67487103D01*
X151676107Y-67487105D01*
X151676108Y-67487106D01*
X151676110Y-67487107D01*
X151760653Y-67535918D01*
X151796393Y-67556552D01*
X151930553Y-67592500D01*
X151930555Y-67592500D01*
X152069445Y-67592500D01*
X152069447Y-67592500D01*
X152203607Y-67556552D01*
X152323893Y-67487105D01*
X152422105Y-67388893D01*
X152491552Y-67268607D01*
X152527500Y-67134447D01*
X152527500Y-66995553D01*
X152491552Y-66861393D01*
X152422105Y-66741107D01*
X152422103Y-66741105D01*
X152422099Y-66741100D01*
X152323899Y-66642900D01*
X152323889Y-66642892D01*
X152203611Y-66573450D01*
X152203608Y-66573449D01*
X152203607Y-66573448D01*
X152203605Y-66573447D01*
X152203604Y-66573447D01*
X152167655Y-66563814D01*
X152069447Y-66537500D01*
X151930553Y-66537500D01*
X151858659Y-66556763D01*
X151796395Y-66573447D01*
X151796388Y-66573450D01*
X151676110Y-66642892D01*
X151676100Y-66642900D01*
X151577900Y-66741100D01*
X151577892Y-66741110D01*
X151508450Y-66861388D01*
X151508448Y-66861393D01*
X151472500Y-66995553D01*
X134047500Y-66995553D01*
X134047500Y-66950553D01*
X134011552Y-66816393D01*
X133982040Y-66765276D01*
X133942107Y-66696110D01*
X133942099Y-66696100D01*
X133843899Y-66597900D01*
X133843889Y-66597892D01*
X133723611Y-66528450D01*
X133723608Y-66528449D01*
X133723607Y-66528448D01*
X133723605Y-66528447D01*
X133723604Y-66528447D01*
X133687655Y-66518814D01*
X133589447Y-66492500D01*
X133450553Y-66492500D01*
X133378659Y-66511763D01*
X133316395Y-66528447D01*
X133316388Y-66528450D01*
X133196110Y-66597892D01*
X133196100Y-66597900D01*
X133097900Y-66696100D01*
X133097892Y-66696110D01*
X133028450Y-66816388D01*
X133028447Y-66816395D01*
X133016390Y-66861393D01*
X132992500Y-66950553D01*
X131191698Y-66950553D01*
X131191698Y-66899441D01*
X131155750Y-66765281D01*
X131115814Y-66696110D01*
X131086305Y-66644998D01*
X131086297Y-66644988D01*
X130988097Y-66546788D01*
X130988087Y-66546780D01*
X130867809Y-66477338D01*
X130867806Y-66477337D01*
X130867805Y-66477336D01*
X130867803Y-66477335D01*
X130867802Y-66477335D01*
X130831853Y-66467702D01*
X130733645Y-66441388D01*
X130594751Y-66441388D01*
X130522857Y-66460651D01*
X130460593Y-66477335D01*
X130460586Y-66477338D01*
X130340308Y-66546780D01*
X130340298Y-66546788D01*
X130242098Y-66644988D01*
X130242090Y-66644998D01*
X130172648Y-66765276D01*
X130172645Y-66765283D01*
X130158950Y-66816395D01*
X130136698Y-66899441D01*
X126248500Y-66899441D01*
X126248500Y-58662500D01*
X126248821Y-58653512D01*
X126252966Y-58595553D01*
X126263018Y-58455001D01*
X126265576Y-58437219D01*
X126306920Y-58247165D01*
X126311984Y-58229916D01*
X126379957Y-58047673D01*
X126387419Y-58031334D01*
X126480639Y-57860614D01*
X126490346Y-57845511D01*
X126606918Y-57689788D01*
X126618678Y-57676217D01*
X126756217Y-57538678D01*
X126769788Y-57526918D01*
X126925511Y-57410346D01*
X126940614Y-57400639D01*
X127111334Y-57307419D01*
X127127673Y-57299957D01*
X127309917Y-57231983D01*
X127327165Y-57226920D01*
X127517219Y-57185576D01*
X127535001Y-57183018D01*
X127716891Y-57170009D01*
X127733511Y-57168821D01*
X127742499Y-57168500D01*
X127793486Y-57168500D01*
X127793580Y-57168487D01*
X139773978Y-57165939D01*
X139842098Y-57185926D01*
G37*
%TD.AperFunction*%
%TD*%
M02*
