%TF.GenerationSoftware,KiCad,Pcbnew,9.0.6-9.0.6~ubuntu24.04.1*%
%TF.CreationDate,2025-11-13T19:41:32+09:00*%
%TF.ProjectId,SafePulse,53616665-5075-46c7-9365-2e6b69636164,V1.2.2*%
%TF.SameCoordinates,Original*%
%TF.FileFunction,Copper,L4,Bot*%
%TF.FilePolarity,Positive*%
%FSLAX46Y46*%
G04 Gerber Fmt 4.6, Leading zero omitted, Abs format (unit mm)*
G04 Created by KiCad (PCBNEW 9.0.6-9.0.6~ubuntu24.04.1) date 2025-11-13 19:41:32*
%MOMM*%
%LPD*%
G01*
G04 APERTURE LIST*
G04 Aperture macros list*
%AMRoundRect*
0 Rectangle with rounded corners*
0 $1 Rounding radius*
0 $2 $3 $4 $5 $6 $7 $8 $9 X,Y pos of 4 corners*
0 Add a 4 corners polygon primitive as box body*
4,1,4,$2,$3,$4,$5,$6,$7,$8,$9,$2,$3,0*
0 Add four circle primitives for the rounded corners*
1,1,$1+$1,$2,$3*
1,1,$1+$1,$4,$5*
1,1,$1+$1,$6,$7*
1,1,$1+$1,$8,$9*
0 Add four rect primitives between the rounded corners*
20,1,$1+$1,$2,$3,$4,$5,0*
20,1,$1+$1,$4,$5,$6,$7,0*
20,1,$1+$1,$6,$7,$8,$9,0*
20,1,$1+$1,$8,$9,$2,$3,0*%
G04 Aperture macros list end*
%TA.AperFunction,ComponentPad*%
%ADD10C,1.700000*%
%TD*%
%TA.AperFunction,ComponentPad*%
%ADD11O,1.700000X1.700000*%
%TD*%
%TA.AperFunction,ComponentPad*%
%ADD12C,2.500000*%
%TD*%
%TA.AperFunction,ComponentPad*%
%ADD13C,2.800000*%
%TD*%
%TA.AperFunction,ComponentPad*%
%ADD14R,1.700000X1.700000*%
%TD*%
%TA.AperFunction,SMDPad,CuDef*%
%ADD15R,1.000000X1.000000*%
%TD*%
%TA.AperFunction,SMDPad,CuDef*%
%ADD16RoundRect,0.250000X-0.262500X-0.450000X0.262500X-0.450000X0.262500X0.450000X-0.262500X0.450000X0*%
%TD*%
%TA.AperFunction,SMDPad,CuDef*%
%ADD17RoundRect,0.150000X0.587500X0.150000X-0.587500X0.150000X-0.587500X-0.150000X0.587500X-0.150000X0*%
%TD*%
%TA.AperFunction,SMDPad,CuDef*%
%ADD18RoundRect,0.250000X0.262500X0.450000X-0.262500X0.450000X-0.262500X-0.450000X0.262500X-0.450000X0*%
%TD*%
%TA.AperFunction,SMDPad,CuDef*%
%ADD19RoundRect,0.250000X-0.250000X-0.475000X0.250000X-0.475000X0.250000X0.475000X-0.250000X0.475000X0*%
%TD*%
%TA.AperFunction,SMDPad,CuDef*%
%ADD20RoundRect,0.250000X-0.475000X0.250000X-0.475000X-0.250000X0.475000X-0.250000X0.475000X0.250000X0*%
%TD*%
%TA.AperFunction,SMDPad,CuDef*%
%ADD21RoundRect,0.250000X0.450000X-0.262500X0.450000X0.262500X-0.450000X0.262500X-0.450000X-0.262500X0*%
%TD*%
%TA.AperFunction,SMDPad,CuDef*%
%ADD22RoundRect,0.250000X-0.450000X0.262500X-0.450000X-0.262500X0.450000X-0.262500X0.450000X0.262500X0*%
%TD*%
%TA.AperFunction,SMDPad,CuDef*%
%ADD23R,0.450000X0.600000*%
%TD*%
%TA.AperFunction,SMDPad,CuDef*%
%ADD24RoundRect,0.150000X-0.587500X-0.150000X0.587500X-0.150000X0.587500X0.150000X-0.587500X0.150000X0*%
%TD*%
%TA.AperFunction,SMDPad,CuDef*%
%ADD25RoundRect,0.112500X0.112500X0.237500X-0.112500X0.237500X-0.112500X-0.237500X0.112500X-0.237500X0*%
%TD*%
%TA.AperFunction,SMDPad,CuDef*%
%ADD26RoundRect,0.150000X0.150000X-0.825000X0.150000X0.825000X-0.150000X0.825000X-0.150000X-0.825000X0*%
%TD*%
%TA.AperFunction,SMDPad,CuDef*%
%ADD27RoundRect,0.250000X0.250000X0.475000X-0.250000X0.475000X-0.250000X-0.475000X0.250000X-0.475000X0*%
%TD*%
%TA.AperFunction,SMDPad,CuDef*%
%ADD28RoundRect,0.150000X-0.512500X-0.150000X0.512500X-0.150000X0.512500X0.150000X-0.512500X0.150000X0*%
%TD*%
%TA.AperFunction,SMDPad,CuDef*%
%ADD29RoundRect,0.250000X0.475000X-0.250000X0.475000X0.250000X-0.475000X0.250000X-0.475000X-0.250000X0*%
%TD*%
%TA.AperFunction,SMDPad,CuDef*%
%ADD30RoundRect,0.250000X-0.325000X-1.100000X0.325000X-1.100000X0.325000X1.100000X-0.325000X1.100000X0*%
%TD*%
%TA.AperFunction,SMDPad,CuDef*%
%ADD31R,0.400000X0.650000*%
%TD*%
%TA.AperFunction,ViaPad*%
%ADD32C,0.800000*%
%TD*%
%TA.AperFunction,Conductor*%
%ADD33C,0.250000*%
%TD*%
%TA.AperFunction,Conductor*%
%ADD34C,0.330200*%
%TD*%
%TA.AperFunction,Conductor*%
%ADD35C,0.500000*%
%TD*%
G04 APERTURE END LIST*
D10*
%TO.P,two_pinheader1,1,Pin_1*%
%TO.N,unconnected-(two_pinheader1-Pad1)*%
X164060000Y-60325000D03*
D11*
%TO.P,two_pinheader1,2,Pin_2*%
%TO.N,unconnected-(two_pinheader1-Pad2)*%
X164060000Y-62865000D03*
%TD*%
D12*
%TO.P,H2,1,1*%
%TO.N,Net-(H2-Pad1)*%
X164060000Y-71755000D03*
%TD*%
D13*
%TO.P,H4,1,1*%
%TO.N,Net-(H2-Pad1)*%
X164060000Y-75565000D03*
%TD*%
%TO.P,H1,1,1*%
%TO.N,Net-(H1-Pad1)*%
X138660000Y-75565000D03*
%TD*%
D14*
%TO.P,J1,1,Pin_1*%
%TO.N,Net-(F1-Pad1)*%
X128500000Y-75565000D03*
D11*
%TO.P,J1,2,Pin_2*%
%TO.N,Net-(D2-Pad2)*%
X131040000Y-75565000D03*
%TO.P,J1,3,Pin_3*%
%TO.N,GND*%
X133580000Y-75565000D03*
%TD*%
D15*
%TO.P,TP5,1,1*%
%TO.N,Net-(C7-Pad1)*%
X132520000Y-68020000D03*
%TD*%
D16*
%TO.P,R21,1*%
%TO.N,Net-(H1-Pad1)*%
X140795500Y-74803000D03*
%TO.P,R21,2*%
%TO.N,Net-(C22-Pad1)*%
X142620500Y-74803000D03*
%TD*%
D15*
%TO.P,TP1,1,1*%
%TO.N,+1V2*%
X150100000Y-66000000D03*
%TD*%
D16*
%TO.P,R12,1*%
%TO.N,+3V3*%
X140795500Y-72771000D03*
%TO.P,R12,2*%
%TO.N,Net-(U4-Pad12)*%
X142620500Y-72771000D03*
%TD*%
D17*
%TO.P,Q3,1,B*%
%TO.N,Net-(C24-Pad1)*%
X154207500Y-71820000D03*
%TO.P,Q3,2,E*%
%TO.N,Net-(Q3-Pad2)*%
X154207500Y-73720000D03*
%TO.P,Q3,3,C*%
%TO.N,Net-(Q2-Pad1)*%
X152332500Y-72770000D03*
%TD*%
D15*
%TO.P,TP6,1,1*%
%TO.N,Net-(C6-Pad2)*%
X140900000Y-58265000D03*
%TD*%
D18*
%TO.P,R24,1*%
%TO.N,Net-(R23-Pad2)*%
X144712500Y-58265000D03*
%TO.P,R24,2*%
%TO.N,GND*%
X142887500Y-58265000D03*
%TD*%
D19*
%TO.P,C23,1*%
%TO.N,Net-(U4-Pad12)*%
X148550000Y-76270000D03*
%TO.P,C23,2*%
%TO.N,GND*%
X150450000Y-76270000D03*
%TD*%
D20*
%TO.P,C2,1*%
%TO.N,Net-(C2-Pad1)*%
X129520000Y-59070000D03*
%TO.P,C2,2*%
%TO.N,GND*%
X129520000Y-60970000D03*
%TD*%
D15*
%TO.P,TP3,1,1*%
%TO.N,Net-(D1-Pad1)*%
X133270000Y-71020000D03*
%TD*%
D19*
%TO.P,C24,1*%
%TO.N,Net-(C24-Pad1)*%
X154870000Y-70020000D03*
%TO.P,C24,2*%
%TO.N,GND*%
X156770000Y-70020000D03*
%TD*%
D21*
%TO.P,R25,1*%
%TO.N,+3V3*%
X141520000Y-70932500D03*
%TO.P,R25,2*%
%TO.N,Net-(C27-Pad1)*%
X141520000Y-69107500D03*
%TD*%
D22*
%TO.P,R22,1*%
%TO.N,Net-(C22-Pad1)*%
X144502000Y-74607500D03*
%TO.P,R22,2*%
%TO.N,GND*%
X144502000Y-76432500D03*
%TD*%
D23*
%TO.P,D1,1,K*%
%TO.N,Net-(D1-Pad1)*%
X134520000Y-67170000D03*
%TO.P,D1,2,A*%
%TO.N,Net-(D1-Pad2)*%
X134520000Y-69270000D03*
%TD*%
D22*
%TO.P,R5,1*%
%TO.N,Net-(C2-Pad1)*%
X127520000Y-59107500D03*
%TO.P,R5,2*%
%TO.N,Net-(FB1-Pad2)*%
X127520000Y-60932500D03*
%TD*%
D20*
%TO.P,C22,1*%
%TO.N,Net-(C22-Pad1)*%
X146534000Y-74615000D03*
%TO.P,C22,2*%
%TO.N,GND*%
X146534000Y-76515000D03*
%TD*%
D24*
%TO.P,Q4,1,B*%
%TO.N,Net-(Q4-Pad1)*%
X156262500Y-76470000D03*
%TO.P,Q4,2,E*%
%TO.N,Net-(Q3-Pad2)*%
X156262500Y-74570000D03*
%TO.P,Q4,3,C*%
%TO.N,GND*%
X158137500Y-75520000D03*
%TD*%
D16*
%TO.P,R20,1*%
%TO.N,Net-(C27-Pad1)*%
X146387500Y-67024000D03*
%TO.P,R20,2*%
%TO.N,+1V2*%
X148212500Y-67024000D03*
%TD*%
D25*
%TO.P,Q2,1,B*%
%TO.N,Net-(Q2-Pad1)*%
X150170000Y-74020000D03*
%TO.P,Q2,2,E*%
%TO.N,GND*%
X148870000Y-74020000D03*
%TO.P,Q2,3,C*%
%TO.N,Net-(Q2-Pad3)*%
X149520000Y-72020000D03*
%TD*%
D15*
%TO.P,TP10,1,1*%
%TO.N,Net-(Q1-Pad3)*%
X129520000Y-64270000D03*
%TD*%
D18*
%TO.P,R23,1*%
%TO.N,Net-(R7-Pad1)*%
X148112500Y-58265000D03*
%TO.P,R23,2*%
%TO.N,Net-(R23-Pad2)*%
X146287500Y-58265000D03*
%TD*%
D20*
%TO.P,C1,1*%
%TO.N,Net-(C1-Pad1)*%
X138770000Y-67320000D03*
%TO.P,C1,2*%
%TO.N,GND*%
X138770000Y-69220000D03*
%TD*%
D16*
%TO.P,R14,1*%
%TO.N,+1V2*%
X147399500Y-69215000D03*
%TO.P,R14,2*%
%TO.N,Net-(C24-Pad1)*%
X149224500Y-69215000D03*
%TD*%
D15*
%TO.P,TP2,1,1*%
%TO.N,Net-(U3-Pad1)*%
X144500000Y-67265000D03*
%TD*%
%TO.P,TP8,1,1*%
%TO.N,Net-(C22-Pad1)*%
X144520000Y-72770000D03*
%TD*%
%TO.P,TP9,1,1*%
%TO.N,Net-(Q2-Pad3)*%
X147804000Y-71247000D03*
%TD*%
D26*
%TO.P,U2,1*%
%TO.N,Net-(C1-Pad1)*%
X139080000Y-65195000D03*
%TO.P,U2,2*%
%TO.N,Net-(D1-Pad1)*%
X137810000Y-65195000D03*
%TO.P,U2,3*%
X136540000Y-65195000D03*
%TO.P,U2,4*%
%TO.N,Net-(Q1-Pad1)*%
X135270000Y-65195000D03*
%TO.P,U2,5*%
%TO.N,Net-(D1-Pad1)*%
X134000000Y-65195000D03*
%TO.P,U2,6*%
%TO.N,Net-(Q1-Pad1)*%
X132730000Y-65195000D03*
%TO.P,U2,7,GND*%
%TO.N,GND*%
X131460000Y-65195000D03*
%TO.P,U2,8*%
%TO.N,Net-(Q1-Pad1)*%
X131460000Y-60245000D03*
%TO.P,U2,9*%
%TO.N,Net-(D1-Pad1)*%
X132730000Y-60245000D03*
%TO.P,U2,10*%
%TO.N,Net-(Q1-Pad1)*%
X134000000Y-60245000D03*
%TO.P,U2,11*%
%TO.N,Net-(D1-Pad1)*%
X135270000Y-60245000D03*
%TO.P,U2,12*%
%TO.N,Net-(Q1-Pad1)*%
X136540000Y-60245000D03*
%TO.P,U2,13*%
%TO.N,Net-(D1-Pad1)*%
X137810000Y-60245000D03*
%TO.P,U2,14,VCC*%
%TO.N,Net-(C2-Pad1)*%
X139080000Y-60245000D03*
%TD*%
D22*
%TO.P,R26,1*%
%TO.N,Net-(Q1-Pad3)*%
X128270000Y-67107500D03*
%TO.P,R26,2*%
%TO.N,GND*%
X128270000Y-68932500D03*
%TD*%
D27*
%TO.P,C27,1*%
%TO.N,Net-(C27-Pad1)*%
X139220000Y-71020000D03*
%TO.P,C27,2*%
%TO.N,GND*%
X137320000Y-71020000D03*
%TD*%
D16*
%TO.P,R3,1*%
%TO.N,Net-(C1-Pad1)*%
X140795500Y-67183000D03*
%TO.P,R3,2*%
%TO.N,Net-(U3-Pad1)*%
X142620500Y-67183000D03*
%TD*%
D22*
%TO.P,R4,1*%
%TO.N,Net-(C1-Pad1)*%
X136520000Y-67307500D03*
%TO.P,R4,2*%
%TO.N,Net-(D1-Pad2)*%
X136520000Y-69132500D03*
%TD*%
D28*
%TO.P,U3,1*%
%TO.N,Net-(U3-Pad1)*%
X144062500Y-61915000D03*
%TO.P,U3,2,V-*%
%TO.N,GND*%
X144062500Y-60965000D03*
%TO.P,U3,3,+*%
%TO.N,Net-(R27-Pad1)*%
X144062500Y-60015000D03*
%TO.P,U3,4,-*%
%TO.N,Net-(R7-Pad1)*%
X146337500Y-60015000D03*
%TO.P,U3,5,V+*%
%TO.N,Net-(C27-Pad1)*%
X146337500Y-61915000D03*
%TD*%
D16*
%TO.P,R15,1*%
%TO.N,Net-(C24-Pad1)*%
X156107500Y-72020000D03*
%TO.P,R15,2*%
%TO.N,GND*%
X157932500Y-72020000D03*
%TD*%
D15*
%TO.P,TP4,1,1*%
%TO.N,Net-(Q1-Pad1)*%
X130520000Y-68020000D03*
%TD*%
D17*
%TO.P,U1,1,IN*%
%TO.N,+1V2*%
X145457500Y-69070000D03*
%TO.P,U1,2,OUT*%
%TO.N,GND*%
X145457500Y-70970000D03*
%TO.P,U1,3,GND*%
%TO.N,unconnected-(U1-Pad3)*%
X143582500Y-70020000D03*
%TD*%
D18*
%TO.P,R16,1*%
%TO.N,Net-(Q2-Pad1)*%
X152932500Y-70020000D03*
%TO.P,R16,2*%
%TO.N,GND*%
X151107500Y-70020000D03*
%TD*%
D29*
%TO.P,C25,1*%
%TO.N,+1V2*%
X150100000Y-64250000D03*
%TO.P,C25,2*%
%TO.N,GND*%
X150100000Y-62350000D03*
%TD*%
D21*
%TO.P,FB1,1*%
%TO.N,+3V3*%
X127520000Y-64432500D03*
%TO.P,FB1,2*%
%TO.N,Net-(FB1-Pad2)*%
X127520000Y-62607500D03*
%TD*%
D22*
%TO.P,R27,1*%
%TO.N,Net-(R27-Pad1)*%
X148100000Y-63452500D03*
%TO.P,R27,2*%
%TO.N,+1V2*%
X148100000Y-65277500D03*
%TD*%
D30*
%TO.P,C4,1*%
%TO.N,+3V3*%
X128295000Y-71501000D03*
%TO.P,C4,2*%
%TO.N,GND*%
X131245000Y-71501000D03*
%TD*%
D18*
%TO.P,R19,1*%
%TO.N,Net-(Q4-Pad1)*%
X153912500Y-76270000D03*
%TO.P,R19,2*%
%TO.N,Net-(C22-Pad1)*%
X152087500Y-76270000D03*
%TD*%
D31*
%TO.P,U33,1,+*%
%TO.N,Net-(R27-Pad1)*%
X145650000Y-65339000D03*
%TO.P,U33,2,V-*%
%TO.N,GND*%
X145000000Y-65339000D03*
%TO.P,U33,3,-*%
%TO.N,Net-(R7-Pad1)*%
X144350000Y-65339000D03*
%TO.P,U33,4*%
%TO.N,Net-(U3-Pad1)*%
X144350000Y-63439000D03*
%TO.P,U33,5,V+*%
%TO.N,Net-(C27-Pad1)*%
X145650000Y-63439000D03*
%TD*%
D32*
%TO.N,*%
X149170000Y-76743500D03*
X145770000Y-72020000D03*
%TO.N,GND*%
X145200000Y-61113817D03*
X154500000Y-68000000D03*
X146153000Y-75819000D03*
X150400000Y-70231000D03*
X150600000Y-77072500D03*
X132770000Y-72770000D03*
X141700000Y-61065000D03*
X148861441Y-61049870D03*
X138020000Y-62770000D03*
X156270000Y-75520000D03*
X150902800Y-71704200D03*
X135770000Y-70520000D03*
X130270000Y-62270000D03*
X139020000Y-57770000D03*
%TO.N,Net-(C7-Pad1)*%
X133520000Y-67020000D03*
%TO.N,+3V3*%
X139634500Y-72517000D03*
X135764700Y-71941100D03*
X126920900Y-69342400D03*
%TO.N,Net-(Q2-Pad3)*%
X148020000Y-72770000D03*
%TO.N,Net-(Q1-Pad1)*%
X130664198Y-66968888D03*
%TO.N,Net-(Q3-Pad2)*%
X152919800Y-74131600D03*
%TO.N,Net-(Q1-Pad3)*%
X127770000Y-67520000D03*
%TO.N,Net-(C6-Pad2)*%
X140700000Y-58665000D03*
%TO.N,Net-(R7-Pad1)*%
X152000000Y-67065000D03*
%TD*%
D33*
%TO.N,Net-(C1-Pad1)*%
X138770000Y-67320000D02*
X138845000Y-67245000D01*
X138758000Y-67307500D02*
X138770000Y-67320000D01*
X139080000Y-65195000D02*
X139080000Y-67010000D01*
X139080000Y-67010000D02*
X138770000Y-67320000D01*
X138845000Y-67245000D02*
X140382500Y-67245000D01*
X136520000Y-67307500D02*
X138758000Y-67307500D01*
D34*
%TO.N,GND*%
X158137500Y-77516500D02*
X158141000Y-77520000D01*
X130270000Y-62270000D02*
X129520000Y-61520000D01*
X139020000Y-57770000D02*
X139250000Y-58000000D01*
X128452500Y-68932500D02*
X128270000Y-68932500D01*
D33*
X131318000Y-70612000D02*
X131318000Y-70568000D01*
D34*
X146880000Y-72855000D02*
X147982500Y-73957500D01*
D33*
X131318000Y-71341500D02*
X131342000Y-71341500D01*
X137520000Y-70520000D02*
X135770000Y-70520000D01*
D34*
X146270000Y-76470000D02*
X146270000Y-77520000D01*
X131460000Y-65195000D02*
X131460000Y-63465000D01*
X147982500Y-73957500D02*
X148570000Y-73957500D01*
X131460000Y-65195000D02*
X131200000Y-65195000D01*
X146600000Y-63065000D02*
X146600000Y-63565000D01*
X150083380Y-70206620D02*
X150025000Y-70265000D01*
X131501000Y-71501000D02*
X132770000Y-72770000D01*
X133580000Y-75565000D02*
X133580000Y-76330000D01*
X144062500Y-60965000D02*
X145051183Y-60965000D01*
X156270000Y-75520000D02*
X157457500Y-75520000D01*
X146600000Y-63565000D02*
X145900000Y-64265000D01*
X150220000Y-76270000D02*
X150220000Y-77470000D01*
X129520000Y-61520000D02*
X129520000Y-60970000D01*
X132770000Y-72770000D02*
X133520000Y-72770000D01*
D35*
X157932500Y-72020000D02*
X157932500Y-75315000D01*
D34*
X144270000Y-76432500D02*
X144270000Y-77520000D01*
D33*
X138770000Y-69220000D02*
X138770000Y-69270000D01*
D34*
X131460000Y-63465000D02*
X130270000Y-62275000D01*
X133580000Y-73580000D02*
X132770000Y-72770000D01*
X146162500Y-70265000D02*
X145457500Y-70970000D01*
X145000000Y-64939100D02*
X145000000Y-65339000D01*
X128676500Y-68932500D02*
X128270000Y-68932500D01*
X145226817Y-61087000D02*
X146932000Y-61087000D01*
X145457500Y-70970000D02*
X145457500Y-70832500D01*
X145051183Y-60965000D02*
X145200000Y-61113817D01*
D35*
X158096000Y-77565000D02*
X158141000Y-77520000D01*
D34*
X146932000Y-61087000D02*
X147340000Y-61495000D01*
X131245000Y-71501000D02*
X128676500Y-68932500D01*
D33*
X138770000Y-69220000D02*
X138570000Y-69220000D01*
D34*
X131200000Y-65195000D02*
X129590000Y-66805000D01*
D33*
X138770000Y-69270000D02*
X137520000Y-70520000D01*
D34*
X147340000Y-61495000D02*
X147340000Y-62325000D01*
X129590000Y-67795000D02*
X128452500Y-68932500D01*
X133580000Y-75565000D02*
X133580000Y-73580000D01*
X138090000Y-62700000D02*
X138020000Y-62770000D01*
X133520000Y-72770000D02*
X135770000Y-70520000D01*
X129590000Y-66805000D02*
X129590000Y-67795000D01*
X157932500Y-75315000D02*
X158137500Y-75520000D01*
X145900000Y-64265000D02*
X145674100Y-64265000D01*
D33*
X131318000Y-70568000D02*
X131318000Y-70612000D01*
D34*
X146270000Y-75770000D02*
X146270000Y-76470000D01*
X145457500Y-70970000D02*
X146005000Y-70970000D01*
D33*
X131318000Y-71341500D02*
X131318000Y-70612000D01*
D35*
X134815000Y-77565000D02*
X158096000Y-77565000D01*
D34*
X130270000Y-62275000D02*
X130270000Y-62270000D01*
X150025000Y-70265000D02*
X146162500Y-70265000D01*
X131245000Y-71501000D02*
X131501000Y-71501000D01*
D35*
X131318000Y-72068000D02*
X131318000Y-71341500D01*
D34*
X146880000Y-71845000D02*
X146880000Y-72855000D01*
D35*
X158137500Y-75520000D02*
X158137500Y-77516500D01*
X133580000Y-76330000D02*
X134815000Y-77565000D01*
D34*
X145674100Y-64265000D02*
X145000000Y-64939100D01*
X145200000Y-61113817D02*
X145226817Y-61087000D01*
D33*
X151020000Y-69479400D02*
X151020000Y-70569000D01*
D34*
X147340000Y-62325000D02*
X146600000Y-63065000D01*
X146005000Y-70970000D02*
X146880000Y-71845000D01*
D33*
%TO.N,Net-(C7-Pad1)*%
X133520000Y-67270000D02*
X133520000Y-67020000D01*
X132520000Y-68270000D02*
X133520000Y-67270000D01*
%TO.N,Net-(C24-Pad1)*%
X156107500Y-72020000D02*
X155857500Y-71770000D01*
X154870000Y-70020000D02*
X153805000Y-68955000D01*
X149484500Y-68955000D02*
X149224500Y-69215000D01*
X155857500Y-71770000D02*
X154257500Y-71770000D01*
X154870000Y-70020000D02*
X154870000Y-71157500D01*
X153805000Y-68955000D02*
X149484500Y-68955000D01*
X154257500Y-71770000D02*
X154207500Y-71820000D01*
X154870000Y-71157500D02*
X154207500Y-71820000D01*
X154870000Y-70020000D02*
X154770000Y-70020000D01*
X154307500Y-71920000D02*
X154207500Y-71820000D01*
X154308000Y-71920000D02*
X154307500Y-71920000D01*
X154308000Y-71920000D02*
X154208000Y-71820000D01*
X156108000Y-72020000D02*
X156107500Y-72020000D01*
%TO.N,+3V3*%
X128368000Y-71341500D02*
X128368000Y-70789500D01*
X139634500Y-72668600D02*
X136492200Y-72668600D01*
X139735900Y-72770000D02*
X139634500Y-72668600D01*
X140857500Y-72770000D02*
X140857500Y-71595000D01*
X136492200Y-72668600D02*
X135764700Y-71941100D01*
X127083100Y-69180200D02*
X126920900Y-69342400D01*
X140379300Y-72770000D02*
X139735900Y-72770000D01*
X128368000Y-70789500D02*
X126920900Y-69342400D01*
X126920900Y-65031600D02*
X127520000Y-64432500D01*
X140695000Y-72770000D02*
X140695000Y-72454300D01*
X126920900Y-69342400D02*
X126920900Y-65031600D01*
X140857500Y-71595000D02*
X141520000Y-70932500D01*
X140695000Y-72454300D02*
X140379300Y-72770000D01*
X139634500Y-72668600D02*
X139634500Y-72517000D01*
%TO.N,Net-(Q2-Pad3)*%
X148707500Y-72082500D02*
X149520000Y-72082500D01*
X149457500Y-72020000D02*
X149513300Y-72075700D01*
X148020000Y-71385000D02*
X148020000Y-72770000D01*
X147900000Y-71265000D02*
X148020000Y-71385000D01*
X148020000Y-72770000D02*
X148707500Y-72082500D01*
X149513300Y-72075700D02*
X149520000Y-72082500D01*
%TO.N,Net-(Q2-Pad1)*%
X151738500Y-73363700D02*
X152332000Y-72770000D01*
X150470000Y-73957500D02*
X151145000Y-73957500D01*
X152932500Y-72170000D02*
X152332500Y-72770000D01*
X151738500Y-73363700D02*
X151738800Y-73363700D01*
X152932500Y-70020000D02*
X152932500Y-72170000D01*
X151145000Y-73957500D02*
X151738500Y-73363700D01*
X151738800Y-73363700D02*
X152332500Y-72770000D01*
%TO.N,Net-(C2-Pad1)*%
X136300000Y-58300000D02*
X136800000Y-58800000D01*
X136800000Y-58800000D02*
X138300000Y-58800000D01*
X131700000Y-58300000D02*
X136300000Y-58300000D01*
X129520000Y-59070000D02*
X129590000Y-59000000D01*
X127520000Y-59107500D02*
X129482500Y-59107500D01*
X139080000Y-59580000D02*
X139080000Y-60245000D01*
X129590000Y-59000000D02*
X131000000Y-59000000D01*
X129482500Y-59107500D02*
X129520000Y-59070000D01*
X138300000Y-58800000D02*
X139080000Y-59580000D01*
X131000000Y-59000000D02*
X131700000Y-58300000D01*
%TO.N,Net-(D1-Pad1)*%
X132730000Y-60245000D02*
X132730000Y-59760000D01*
X137810000Y-60245000D02*
X137810000Y-60730000D01*
X132730000Y-61230000D02*
X133520000Y-62020000D01*
X134520000Y-67770000D02*
X133520000Y-68770000D01*
X134520000Y-67170000D02*
X134520000Y-66720000D01*
X134520000Y-66720000D02*
X134000000Y-66200000D01*
X136540000Y-65700000D02*
X135020000Y-67220000D01*
X132730000Y-60245000D02*
X132730000Y-61230000D01*
X135270000Y-60245000D02*
X135270000Y-61020000D01*
X137770000Y-60285000D02*
X137810000Y-60245000D01*
X136540000Y-65195000D02*
X137810000Y-65195000D01*
X134020000Y-65175000D02*
X134000000Y-65195000D01*
X133520000Y-70770000D02*
X133270000Y-71020000D01*
X134570000Y-67220000D02*
X134520000Y-67170000D01*
X136540000Y-62000000D02*
X135270000Y-60730000D01*
X137770000Y-60770000D02*
X137770000Y-60285000D01*
X136540000Y-65195000D02*
X136540000Y-62250000D01*
X133520000Y-62020000D02*
X136520000Y-62020000D01*
X136540000Y-65195000D02*
X136540000Y-65700000D01*
X134520000Y-67170000D02*
X134520000Y-67770000D01*
X135270000Y-60730000D02*
X135270000Y-60245000D01*
X133520000Y-68770000D02*
X133520000Y-70770000D01*
X136540000Y-62250000D02*
X136540000Y-62000000D01*
X134000000Y-66200000D02*
X134000000Y-65195000D01*
X136540000Y-62000000D02*
X137810000Y-60730000D01*
X135270000Y-60245000D02*
X135270000Y-60980000D01*
X135020000Y-67220000D02*
X134570000Y-67220000D01*
X135270000Y-59470000D02*
X135270000Y-60245000D01*
%TO.N,+1V2*%
X148412500Y-66887500D02*
X148412500Y-66600000D01*
X148190000Y-66377500D02*
X148190000Y-65490000D01*
X148412500Y-66600000D02*
X148190000Y-66377500D01*
X150100000Y-66000000D02*
X150110000Y-66000000D01*
X150110000Y-64260000D02*
X150100000Y-64250000D01*
X148412500Y-66600000D02*
X149500000Y-66600000D01*
X145457500Y-69070000D02*
X145502500Y-69025000D01*
X149500000Y-66600000D02*
X150100000Y-66000000D01*
X149750000Y-63900000D02*
X150100000Y-64250000D01*
X148212500Y-68402000D02*
X147399500Y-69215000D01*
X150110000Y-66000000D02*
X150110000Y-64260000D01*
X145502500Y-69025000D02*
X147062500Y-69025000D01*
X148212500Y-67024000D02*
X148212500Y-68402000D01*
X145720000Y-69070000D02*
X145457500Y-69070000D01*
%TO.N,Net-(Q1-Pad1)*%
X132020000Y-58770000D02*
X133770000Y-58770000D01*
X132730000Y-65195000D02*
X132730000Y-66170000D01*
X131460000Y-60245000D02*
X131460000Y-61210000D01*
X135270000Y-64270000D02*
X135270000Y-65195000D01*
X132730000Y-64310000D02*
X133270000Y-63770000D01*
X132770000Y-65155000D02*
X132730000Y-65195000D01*
X133770000Y-58770000D02*
X136020000Y-58770000D01*
X131460000Y-61210000D02*
X132770000Y-62520000D01*
X130520000Y-68270000D02*
X130520000Y-67113086D01*
X134770000Y-63770000D02*
X135270000Y-64270000D01*
X131460000Y-60245000D02*
X131460000Y-59330000D01*
X133270000Y-63770000D02*
X134770000Y-63770000D01*
X131931112Y-66968888D02*
X130664198Y-66968888D01*
X132770000Y-62520000D02*
X132770000Y-65155000D01*
X132730000Y-65195000D02*
X132730000Y-64310000D01*
X136020000Y-58770000D02*
X136540000Y-59290000D01*
X134000000Y-59000000D02*
X134000000Y-60245000D01*
X133770000Y-58770000D02*
X134000000Y-59000000D01*
X136540000Y-59290000D02*
X136540000Y-60245000D01*
X132730000Y-66170000D02*
X131931112Y-66968888D01*
X131460000Y-59330000D02*
X132020000Y-58770000D01*
X130520000Y-67113086D02*
X130664198Y-66968888D01*
%TO.N,Net-(D1-Pad2)*%
X136382000Y-69270000D02*
X136520000Y-69132500D01*
X134520000Y-69270000D02*
X136382000Y-69270000D01*
%TO.N,Net-(C22-Pad1)*%
X142816000Y-74607500D02*
X144270000Y-74607500D01*
X147010000Y-74615000D02*
X146534000Y-74615000D01*
X144308000Y-74570000D02*
X144270000Y-74607500D01*
X146270000Y-74570000D02*
X144308000Y-74570000D01*
X151857500Y-75872500D02*
X151070000Y-75085000D01*
X142620500Y-74803000D02*
X142816000Y-74607500D01*
X144502000Y-74607500D02*
X144520000Y-72770000D01*
X147480000Y-75085000D02*
X147010000Y-74615000D01*
X151070000Y-75085000D02*
X147480000Y-75085000D01*
X151857500Y-76107500D02*
X151857500Y-75872500D01*
X144270000Y-74607500D02*
X144502000Y-74607500D01*
%TO.N,Net-(FB1-Pad2)*%
X127520000Y-60932500D02*
X127520000Y-62607500D01*
%TO.N,Net-(H1-Pad1)*%
X139422000Y-74803000D02*
X138660000Y-75565000D01*
X140795500Y-74803000D02*
X139422000Y-74803000D01*
%TO.N,Net-(U4-Pad12)*%
X149020000Y-76520000D02*
X148570000Y-76520000D01*
X142520500Y-72770500D02*
X142520000Y-72770000D01*
X142520500Y-72770500D02*
X142520500Y-72770000D01*
X142682500Y-72357500D02*
X143270000Y-71770000D01*
X142682500Y-72770000D02*
X142682500Y-72357500D01*
X143270000Y-71770000D02*
X145520000Y-71770000D01*
X148570000Y-76520000D02*
X148320000Y-76270000D01*
X145520000Y-71770000D02*
X145770000Y-72020000D01*
X148270000Y-76270000D02*
X148320000Y-76270000D01*
%TO.N,Net-(Q3-Pad2)*%
X153420000Y-73720000D02*
X153008400Y-74131600D01*
X153008400Y-74131600D02*
X152919800Y-74131600D01*
X154207500Y-73720000D02*
X153420000Y-73720000D01*
X154475000Y-73720000D02*
X155325000Y-74570000D01*
X155325000Y-74570000D02*
X156262500Y-74570000D01*
X154207500Y-73720000D02*
X154475000Y-73720000D01*
X154207500Y-73720000D02*
X154355000Y-73720000D01*
%TO.N,Net-(Q4-Pad1)*%
X155562600Y-76415000D02*
X155582500Y-76395100D01*
X153827500Y-76415000D02*
X155562600Y-76415000D01*
%TO.N,Net-(C27-Pad1)*%
X141520000Y-69107500D02*
X141770000Y-68857500D01*
X145650000Y-62602500D02*
X146337500Y-61915000D01*
X139220000Y-71020000D02*
X139607500Y-71020000D01*
X143800000Y-64665000D02*
X144200000Y-64265000D01*
X145650000Y-63439000D02*
X145650000Y-62602500D01*
X144296489Y-66431489D02*
X143800000Y-65935000D01*
X146387500Y-67024000D02*
X145794989Y-66431489D01*
X146587500Y-67112500D02*
X145518000Y-68199000D01*
X143800000Y-65935000D02*
X143800000Y-64665000D01*
X145518000Y-68199000D02*
X142470000Y-68199000D01*
X144200000Y-64265000D02*
X144824000Y-64265000D01*
X139607500Y-71020000D02*
X141520000Y-69107500D01*
X145794989Y-66431489D02*
X144296489Y-66431489D01*
X142470000Y-68199000D02*
X141520000Y-69020000D01*
X144824000Y-64265000D02*
X145650000Y-63439000D01*
X141520000Y-69020000D02*
X141520000Y-69107500D01*
%TO.N,Net-(Q1-Pad3)*%
X128107500Y-67520000D02*
X128520000Y-67107500D01*
X129520000Y-65270000D02*
X128520000Y-66270000D01*
X129520000Y-65270000D02*
X129520000Y-64270000D01*
X127770000Y-67520000D02*
X128107500Y-67520000D01*
X128520000Y-66270000D02*
X128520000Y-67107500D01*
%TO.N,Net-(R7-Pad1)*%
X151500000Y-64055000D02*
X150745000Y-63300000D01*
X147550000Y-60015000D02*
X146337500Y-60015000D01*
X147000000Y-64735000D02*
X147370000Y-64365000D01*
X149100000Y-63995000D02*
X149100000Y-63865000D01*
X152000000Y-67065000D02*
X151500000Y-66565000D01*
X146537500Y-60115000D02*
X146537500Y-60040000D01*
X151500000Y-66565000D02*
X151500000Y-64055000D01*
X148730000Y-64365000D02*
X149100000Y-63995000D01*
X144600000Y-65965000D02*
X145062000Y-65965000D01*
X144600000Y-65965000D02*
X146601720Y-65965000D01*
X146601720Y-65965000D02*
X147000000Y-65566720D01*
X147370000Y-64365000D02*
X148730000Y-64365000D01*
X144350000Y-65339000D02*
X144350000Y-65715000D01*
X149165000Y-63300000D02*
X149100000Y-63365000D01*
X149100000Y-63865000D02*
X149100000Y-62404358D01*
X149100000Y-63365000D02*
X149100000Y-63865000D01*
X144350000Y-65715000D02*
X144600000Y-65965000D01*
X146537500Y-60040000D02*
X148212500Y-58365000D01*
X148209930Y-61514288D02*
X148209930Y-60674930D01*
X149100000Y-62404358D02*
X148209930Y-61514288D01*
X147000000Y-65566720D02*
X147000000Y-64735000D01*
X150745000Y-63300000D02*
X149165000Y-63300000D01*
X148209930Y-60674930D02*
X147550000Y-60015000D01*
X152000000Y-67065000D02*
X151955000Y-67020000D01*
%TO.N,Net-(U3-Pad1)*%
X144340000Y-62092500D02*
X144262500Y-62015000D01*
X142980000Y-64685000D02*
X144340000Y-63325000D01*
X143705000Y-67183000D02*
X144555000Y-67183000D01*
X144340000Y-63325000D02*
X144340000Y-62092500D01*
X142980000Y-66805000D02*
X142980000Y-64685000D01*
X142682500Y-67183000D02*
X143705000Y-67183000D01*
%TO.N,Net-(R23-Pad2)*%
X144712500Y-58365000D02*
X146387500Y-58365000D01*
%TO.N,Net-(R27-Pad1)*%
X147736500Y-63252500D02*
X145650000Y-65339000D01*
X147716620Y-63297380D02*
X147800000Y-63214000D01*
X147316176Y-60645000D02*
X145660000Y-60645000D01*
X147800000Y-63214000D02*
X147800000Y-61128824D01*
X147800000Y-61128824D02*
X147316176Y-60645000D01*
X145130000Y-60115000D02*
X144262500Y-60115000D01*
X145660000Y-60645000D02*
X145130000Y-60115000D01*
X148100000Y-63252500D02*
X147736500Y-63252500D01*
%TD*%
%TA.AperFunction,Conductor*%
%TO.N,GND*%
G36*
X158919187Y-57181868D02*
G01*
X158965691Y-57235513D01*
X158977088Y-57287287D01*
X159041919Y-71054313D01*
X159022238Y-71122527D01*
X158968801Y-71169272D01*
X158898576Y-71179707D01*
X158833857Y-71150518D01*
X158808678Y-71121051D01*
X158793634Y-71096660D01*
X158793629Y-71096654D01*
X158668345Y-70971370D01*
X158668339Y-70971365D01*
X158517525Y-70878342D01*
X158349321Y-70822606D01*
X158349318Y-70822605D01*
X158245516Y-70812000D01*
X158186500Y-70812000D01*
X158186500Y-73228000D01*
X158245517Y-73228000D01*
X158245516Y-73227999D01*
X158349318Y-73217394D01*
X158349321Y-73217393D01*
X158517525Y-73161657D01*
X158668339Y-73068634D01*
X158668345Y-73068629D01*
X158793629Y-72943345D01*
X158793634Y-72943339D01*
X158817699Y-72904323D01*
X158870484Y-72856844D01*
X158940559Y-72845440D01*
X159005675Y-72873731D01*
X159045159Y-72932736D01*
X159050940Y-72969875D01*
X159058679Y-74613326D01*
X159038998Y-74681540D01*
X158985561Y-74728285D01*
X158915336Y-74738720D01*
X158897527Y-74734916D01*
X158828751Y-74714934D01*
X158791456Y-74712000D01*
X158391500Y-74712000D01*
X158391500Y-76327999D01*
X158791456Y-76327999D01*
X158828752Y-76325064D01*
X158906048Y-76302607D01*
X158977044Y-76302808D01*
X159036661Y-76341361D01*
X159065971Y-76406025D01*
X159067202Y-76423010D01*
X159073848Y-77834267D01*
X159054167Y-77902481D01*
X159000730Y-77949226D01*
X158947876Y-77960860D01*
X127742515Y-77967499D01*
X127733499Y-77967178D01*
X127535013Y-77952982D01*
X127517219Y-77950423D01*
X127327165Y-77909079D01*
X127309916Y-77904015D01*
X127127678Y-77836044D01*
X127111324Y-77828575D01*
X126940624Y-77735365D01*
X126925501Y-77725646D01*
X126769796Y-77609087D01*
X126756210Y-77597314D01*
X126618685Y-77459789D01*
X126606912Y-77446203D01*
X126599765Y-77436656D01*
X126490351Y-77290495D01*
X126480634Y-77275375D01*
X126456828Y-77231778D01*
X126387421Y-77104670D01*
X126379955Y-77088321D01*
X126311984Y-76906083D01*
X126306920Y-76888834D01*
X126265576Y-76698780D01*
X126263018Y-76680996D01*
X126248821Y-76482487D01*
X126248500Y-76473499D01*
X126248500Y-74666350D01*
X127141500Y-74666350D01*
X127141500Y-76463649D01*
X127148009Y-76524196D01*
X127148011Y-76524204D01*
X127199110Y-76661202D01*
X127199112Y-76661207D01*
X127286738Y-76778261D01*
X127403792Y-76865887D01*
X127403794Y-76865888D01*
X127403796Y-76865889D01*
X127451283Y-76883601D01*
X127540795Y-76916988D01*
X127540803Y-76916990D01*
X127601350Y-76923499D01*
X127601355Y-76923499D01*
X127601362Y-76923500D01*
X127601368Y-76923500D01*
X129398632Y-76923500D01*
X129398638Y-76923500D01*
X129398645Y-76923499D01*
X129398649Y-76923499D01*
X129459196Y-76916990D01*
X129459199Y-76916989D01*
X129459201Y-76916989D01*
X129596204Y-76865889D01*
X129640167Y-76832979D01*
X129713261Y-76778261D01*
X129800887Y-76661207D01*
X129800887Y-76661206D01*
X129800889Y-76661204D01*
X129844869Y-76543288D01*
X129887414Y-76486456D01*
X129953934Y-76461645D01*
X130023308Y-76476736D01*
X130052018Y-76498229D01*
X130154990Y-76601201D01*
X130154993Y-76601203D01*
X130154996Y-76601206D01*
X130327991Y-76726894D01*
X130518517Y-76823972D01*
X130721878Y-76890047D01*
X130721879Y-76890047D01*
X130721884Y-76890049D01*
X130933084Y-76923500D01*
X130933087Y-76923500D01*
X131146913Y-76923500D01*
X131146916Y-76923500D01*
X131358116Y-76890049D01*
X131561483Y-76823972D01*
X131752009Y-76726894D01*
X131925004Y-76601206D01*
X132076206Y-76450004D01*
X132201894Y-76277009D01*
X132201902Y-76276992D01*
X132202854Y-76275441D01*
X132203377Y-76274967D01*
X132204804Y-76273004D01*
X132205216Y-76273303D01*
X132255497Y-76227804D01*
X132325537Y-76216189D01*
X132390738Y-76244285D01*
X132415484Y-76272843D01*
X132415624Y-76272742D01*
X132416801Y-76274362D01*
X132417729Y-76275433D01*
X132418535Y-76276749D01*
X132544177Y-76449679D01*
X132695320Y-76600822D01*
X132868249Y-76726463D01*
X133058707Y-76823506D01*
X133058713Y-76823509D01*
X133261998Y-76889560D01*
X133326000Y-76899696D01*
X133326000Y-75995702D01*
X133387007Y-76030925D01*
X133514174Y-76065000D01*
X133645826Y-76065000D01*
X133772993Y-76030925D01*
X133834000Y-75995702D01*
X133834000Y-76899696D01*
X133898001Y-76889560D01*
X134101286Y-76823509D01*
X134101292Y-76823506D01*
X134291750Y-76726463D01*
X134464679Y-76600822D01*
X134615822Y-76449679D01*
X134741463Y-76276750D01*
X134838506Y-76086292D01*
X134838509Y-76086286D01*
X134904559Y-75883004D01*
X134914698Y-75819000D01*
X134010703Y-75819000D01*
X134045925Y-75757993D01*
X134080000Y-75630826D01*
X134080000Y-75499174D01*
X134045925Y-75372007D01*
X134010703Y-75311000D01*
X134914697Y-75311000D01*
X134904559Y-75246995D01*
X134838509Y-75043713D01*
X134838506Y-75043707D01*
X134741463Y-74853249D01*
X134615822Y-74680320D01*
X134464679Y-74529177D01*
X134291750Y-74403536D01*
X134101292Y-74306493D01*
X134101286Y-74306490D01*
X133898004Y-74240440D01*
X133834000Y-74230302D01*
X133834000Y-75134297D01*
X133772993Y-75099075D01*
X133645826Y-75065000D01*
X133514174Y-75065000D01*
X133387007Y-75099075D01*
X133326000Y-75134297D01*
X133326000Y-74230302D01*
X133261995Y-74240440D01*
X133058713Y-74306490D01*
X133058707Y-74306493D01*
X132868249Y-74403536D01*
X132695320Y-74529177D01*
X132544177Y-74680320D01*
X132418532Y-74853255D01*
X132417724Y-74854574D01*
X132417286Y-74854969D01*
X132415624Y-74857258D01*
X132415143Y-74856908D01*
X132365075Y-74902203D01*
X132295033Y-74913807D01*
X132229836Y-74885702D01*
X132204901Y-74856924D01*
X132204804Y-74856996D01*
X132203975Y-74855855D01*
X132202859Y-74854567D01*
X132201899Y-74853001D01*
X132201894Y-74852991D01*
X132076206Y-74679996D01*
X132076203Y-74679993D01*
X132076201Y-74679990D01*
X131925009Y-74528798D01*
X131925006Y-74528796D01*
X131925004Y-74528794D01*
X131755783Y-74405848D01*
X131752012Y-74403108D01*
X131752011Y-74403107D01*
X131752009Y-74403106D01*
X131561483Y-74306028D01*
X131561480Y-74306027D01*
X131561478Y-74306026D01*
X131358120Y-74239952D01*
X131358123Y-74239952D01*
X131297195Y-74230302D01*
X131146916Y-74206500D01*
X130933084Y-74206500D01*
X130721884Y-74239951D01*
X130721878Y-74239952D01*
X130518521Y-74306026D01*
X130518515Y-74306029D01*
X130327987Y-74403108D01*
X130154995Y-74528794D01*
X130052018Y-74631771D01*
X129989706Y-74665796D01*
X129918890Y-74660730D01*
X129862054Y-74618184D01*
X129844871Y-74586715D01*
X129800889Y-74468796D01*
X129800886Y-74468792D01*
X129800886Y-74468791D01*
X129713261Y-74351738D01*
X129596207Y-74264112D01*
X129596202Y-74264110D01*
X129459204Y-74213011D01*
X129459196Y-74213009D01*
X129398649Y-74206500D01*
X129398638Y-74206500D01*
X127601362Y-74206500D01*
X127601350Y-74206500D01*
X127540803Y-74213009D01*
X127540795Y-74213011D01*
X127403797Y-74264110D01*
X127403792Y-74264112D01*
X127286738Y-74351738D01*
X127199112Y-74468792D01*
X127199110Y-74468797D01*
X127148011Y-74605795D01*
X127148009Y-74605803D01*
X127141500Y-74666350D01*
X126248500Y-74666350D01*
X126248500Y-70221489D01*
X126268502Y-70153368D01*
X126322158Y-70106875D01*
X126392432Y-70096771D01*
X126444500Y-70116723D01*
X126490564Y-70147502D01*
X126655900Y-70215987D01*
X126831421Y-70250900D01*
X126881306Y-70250900D01*
X126949427Y-70270902D01*
X126970401Y-70287805D01*
X127174595Y-70491999D01*
X127208621Y-70554311D01*
X127211500Y-70581094D01*
X127211500Y-72651544D01*
X127222112Y-72755425D01*
X127277885Y-72923738D01*
X127370970Y-73074652D01*
X127370975Y-73074658D01*
X127496341Y-73200024D01*
X127496347Y-73200029D01*
X127496348Y-73200030D01*
X127647262Y-73293115D01*
X127815574Y-73348887D01*
X127919455Y-73359500D01*
X128670544Y-73359499D01*
X128774426Y-73348887D01*
X128942738Y-73293115D01*
X129093652Y-73200030D01*
X129219030Y-73074652D01*
X129312115Y-72923738D01*
X129367887Y-72755426D01*
X129374761Y-72688147D01*
X129378500Y-72651553D01*
X129378500Y-72651516D01*
X130162000Y-72651516D01*
X130172605Y-72755318D01*
X130172606Y-72755321D01*
X130228342Y-72923525D01*
X130321365Y-73074339D01*
X130321370Y-73074345D01*
X130446654Y-73199629D01*
X130446660Y-73199634D01*
X130597474Y-73292657D01*
X130765678Y-73348393D01*
X130765681Y-73348394D01*
X130869483Y-73358999D01*
X130869483Y-73359000D01*
X130991000Y-73359000D01*
X130991000Y-71755000D01*
X130162000Y-71755000D01*
X130162000Y-72651516D01*
X129378500Y-72651516D01*
X129378500Y-71702809D01*
X129378499Y-70350483D01*
X130162000Y-70350483D01*
X130162000Y-71247000D01*
X130991000Y-71247000D01*
X130991000Y-69643000D01*
X130869483Y-69643000D01*
X130765681Y-69653605D01*
X130765678Y-69653606D01*
X130597474Y-69709342D01*
X130446660Y-69802365D01*
X130446654Y-69802370D01*
X130321370Y-69927654D01*
X130321365Y-69927660D01*
X130228342Y-70078474D01*
X130172606Y-70246678D01*
X130172605Y-70246681D01*
X130162000Y-70350483D01*
X129378499Y-70350483D01*
X129378499Y-70350455D01*
X129367887Y-70246574D01*
X129365212Y-70238500D01*
X129312115Y-70078262D01*
X129219030Y-69927348D01*
X129219029Y-69927347D01*
X129219028Y-69927345D01*
X129218191Y-69926287D01*
X129217842Y-69925424D01*
X129215177Y-69921102D01*
X129215915Y-69920646D01*
X129191630Y-69860446D01*
X129204881Y-69790697D01*
X129227932Y-69759041D01*
X129318634Y-69668339D01*
X129411657Y-69517525D01*
X129467393Y-69349321D01*
X129467394Y-69349318D01*
X129477999Y-69245516D01*
X129478000Y-69245516D01*
X129478000Y-69186500D01*
X128396000Y-69186500D01*
X128327879Y-69166498D01*
X128281386Y-69112842D01*
X128270000Y-69060500D01*
X128270000Y-68804500D01*
X128290002Y-68736379D01*
X128343658Y-68689886D01*
X128396000Y-68678500D01*
X129448916Y-68678500D01*
X129517037Y-68698502D01*
X129563530Y-68752158D01*
X129566971Y-68760467D01*
X129569110Y-68766202D01*
X129569112Y-68766207D01*
X129656738Y-68883261D01*
X129773792Y-68970887D01*
X129773794Y-68970888D01*
X129773796Y-68970889D01*
X129832875Y-68992924D01*
X129910795Y-69021988D01*
X129910803Y-69021990D01*
X129971350Y-69028499D01*
X129971355Y-69028499D01*
X129971362Y-69028500D01*
X129971368Y-69028500D01*
X131068632Y-69028500D01*
X131068638Y-69028500D01*
X131068645Y-69028499D01*
X131068649Y-69028499D01*
X131129196Y-69021990D01*
X131129199Y-69021989D01*
X131129201Y-69021989D01*
X131266204Y-68970889D01*
X131298958Y-68946370D01*
X131383261Y-68883261D01*
X131419132Y-68835343D01*
X131475967Y-68792796D01*
X131546783Y-68787731D01*
X131609095Y-68821756D01*
X131620868Y-68835343D01*
X131656738Y-68883261D01*
X131773792Y-68970887D01*
X131773794Y-68970888D01*
X131773796Y-68970889D01*
X131832875Y-68992924D01*
X131910795Y-69021988D01*
X131910803Y-69021990D01*
X131971350Y-69028499D01*
X131971355Y-69028499D01*
X131971362Y-69028500D01*
X132760500Y-69028500D01*
X132828621Y-69048502D01*
X132875114Y-69102158D01*
X132886500Y-69154500D01*
X132886500Y-69885500D01*
X132866498Y-69953621D01*
X132812842Y-70000114D01*
X132760500Y-70011500D01*
X132721350Y-70011500D01*
X132660803Y-70018009D01*
X132660795Y-70018011D01*
X132523797Y-70069110D01*
X132523793Y-70069112D01*
X132450406Y-70124049D01*
X132383886Y-70148859D01*
X132314512Y-70133767D01*
X132264310Y-70083565D01*
X132262099Y-70079191D01*
X132168634Y-69927660D01*
X132168629Y-69927654D01*
X132043345Y-69802370D01*
X132043339Y-69802365D01*
X131892525Y-69709342D01*
X131724321Y-69653606D01*
X131724318Y-69653605D01*
X131620516Y-69643000D01*
X131499000Y-69643000D01*
X131499000Y-73359000D01*
X131620517Y-73359000D01*
X131620516Y-73358999D01*
X131724318Y-73348394D01*
X131724321Y-73348393D01*
X131892525Y-73292657D01*
X132043339Y-73199634D01*
X132043345Y-73199629D01*
X132168629Y-73074345D01*
X132168634Y-73074339D01*
X132261657Y-72923525D01*
X132317393Y-72755321D01*
X132317394Y-72755318D01*
X132327999Y-72651516D01*
X132328000Y-72651516D01*
X132328000Y-72076034D01*
X132348002Y-72007913D01*
X132401658Y-71961420D01*
X132471932Y-71951316D01*
X132514565Y-71968979D01*
X132515882Y-71966568D01*
X132523793Y-71970886D01*
X132523796Y-71970889D01*
X132582875Y-71992924D01*
X132660795Y-72021988D01*
X132660803Y-72021990D01*
X132721350Y-72028499D01*
X132721355Y-72028499D01*
X132721362Y-72028500D01*
X132721368Y-72028500D01*
X133818632Y-72028500D01*
X133818638Y-72028500D01*
X133818645Y-72028499D01*
X133818649Y-72028499D01*
X133879196Y-72021990D01*
X133879199Y-72021989D01*
X133879201Y-72021989D01*
X134016204Y-71970889D01*
X134018756Y-71968979D01*
X134133261Y-71883261D01*
X134220887Y-71766207D01*
X134220887Y-71766206D01*
X134220889Y-71766204D01*
X134271989Y-71629201D01*
X134272513Y-71624332D01*
X134278499Y-71568649D01*
X134278500Y-71568632D01*
X134278500Y-70471367D01*
X134278499Y-70471350D01*
X134271990Y-70410803D01*
X134271988Y-70410795D01*
X134242924Y-70332875D01*
X134220889Y-70273796D01*
X134220886Y-70273793D01*
X134216568Y-70265882D01*
X134219641Y-70264204D01*
X134200728Y-70213461D01*
X134215835Y-70144091D01*
X134266048Y-70093899D01*
X134326409Y-70078500D01*
X134793632Y-70078500D01*
X134793638Y-70078500D01*
X134793645Y-70078499D01*
X134793649Y-70078499D01*
X134854196Y-70071990D01*
X134854199Y-70071989D01*
X134854201Y-70071989D01*
X134855518Y-70071498D01*
X134873045Y-70064960D01*
X134991204Y-70020889D01*
X134995049Y-70018011D01*
X135114445Y-69928632D01*
X135180965Y-69903821D01*
X135189954Y-69903500D01*
X135453628Y-69903500D01*
X135521749Y-69923502D01*
X135542718Y-69940400D01*
X135596348Y-69994030D01*
X135747262Y-70087115D01*
X135915574Y-70142887D01*
X136019455Y-70153500D01*
X136226709Y-70153499D01*
X136294828Y-70173501D01*
X136341321Y-70227156D01*
X136351426Y-70297430D01*
X136346313Y-70319130D01*
X136322607Y-70390671D01*
X136322605Y-70390681D01*
X136312000Y-70494483D01*
X136312000Y-70766000D01*
X137194000Y-70766000D01*
X137262121Y-70786002D01*
X137308614Y-70839658D01*
X137320000Y-70892000D01*
X137320000Y-71148000D01*
X137299998Y-71216121D01*
X137246342Y-71262614D01*
X137194000Y-71274000D01*
X136434603Y-71274000D01*
X136366482Y-71253998D01*
X136345508Y-71237095D01*
X136343837Y-71235424D01*
X136343835Y-71235422D01*
X136195036Y-71135998D01*
X136056517Y-71078621D01*
X136029703Y-71067514D01*
X136029701Y-71067513D01*
X136029700Y-71067513D01*
X135941345Y-71049938D01*
X135854181Y-71032600D01*
X135854179Y-71032600D01*
X135675221Y-71032600D01*
X135675218Y-71032600D01*
X135566061Y-71054313D01*
X135499700Y-71067513D01*
X135499699Y-71067513D01*
X135499696Y-71067514D01*
X135334362Y-71135999D01*
X135185569Y-71235419D01*
X135185562Y-71235424D01*
X135059024Y-71361962D01*
X135059019Y-71361969D01*
X134959599Y-71510762D01*
X134891114Y-71676096D01*
X134891113Y-71676099D01*
X134891113Y-71676100D01*
X134885800Y-71702809D01*
X134856200Y-71851618D01*
X134856200Y-72030581D01*
X134862572Y-72062613D01*
X134889479Y-72197886D01*
X134891114Y-72206103D01*
X134908878Y-72248989D01*
X134959598Y-72371436D01*
X135059022Y-72520235D01*
X135185565Y-72646778D01*
X135334364Y-72746202D01*
X135499700Y-72814687D01*
X135675221Y-72849600D01*
X135725106Y-72849600D01*
X135793227Y-72869602D01*
X135814201Y-72886505D01*
X136088367Y-73160671D01*
X136192125Y-73230000D01*
X136307415Y-73277755D01*
X136429806Y-73302100D01*
X136554593Y-73302100D01*
X139136007Y-73302100D01*
X139198094Y-73320330D01*
X139198707Y-73319185D01*
X139204160Y-73322100D01*
X139204162Y-73322101D01*
X139204164Y-73322102D01*
X139369500Y-73390587D01*
X139545021Y-73425500D01*
X139545022Y-73425500D01*
X139710720Y-73425500D01*
X139778841Y-73445502D01*
X139825334Y-73499158D01*
X139830321Y-73511859D01*
X139840885Y-73543738D01*
X139902471Y-73643584D01*
X139933970Y-73694652D01*
X139933975Y-73694658D01*
X139937222Y-73697905D01*
X139971248Y-73760217D01*
X139966183Y-73831032D01*
X139952308Y-73857869D01*
X139945625Y-73867692D01*
X139933970Y-73879348D01*
X139897734Y-73938094D01*
X139896148Y-73940427D01*
X139870805Y-73961251D01*
X139846421Y-73983184D01*
X139843545Y-73983651D01*
X139841295Y-73985501D01*
X139808723Y-73989317D01*
X139776346Y-73994586D01*
X139773336Y-73993464D01*
X139770781Y-73993764D01*
X139760002Y-73988497D01*
X139726585Y-73976047D01*
X139726153Y-73976797D01*
X139505931Y-73849652D01*
X139505920Y-73849646D01*
X139390351Y-73801776D01*
X139274784Y-73753906D01*
X139053667Y-73694658D01*
X139033122Y-73689153D01*
X138785092Y-73656500D01*
X138785090Y-73656500D01*
X138534910Y-73656500D01*
X138534907Y-73656500D01*
X138286877Y-73689153D01*
X138045216Y-73753906D01*
X137814079Y-73849646D01*
X137814068Y-73849652D01*
X137597417Y-73974735D01*
X137398943Y-74127030D01*
X137398922Y-74127049D01*
X137222049Y-74303922D01*
X137222030Y-74303943D01*
X137069735Y-74502417D01*
X136944652Y-74719068D01*
X136944646Y-74719079D01*
X136848906Y-74950216D01*
X136784153Y-75191877D01*
X136751500Y-75439907D01*
X136751500Y-75690092D01*
X136784153Y-75938122D01*
X136792029Y-75967516D01*
X136848906Y-76179784D01*
X136879440Y-76253498D01*
X136944646Y-76410920D01*
X136944652Y-76410931D01*
X137069735Y-76627582D01*
X137222030Y-76826056D01*
X137222049Y-76826077D01*
X137398922Y-77002950D01*
X137398932Y-77002959D01*
X137398938Y-77002965D01*
X137398941Y-77002967D01*
X137398943Y-77002969D01*
X137597417Y-77155264D01*
X137814068Y-77280347D01*
X137814079Y-77280353D01*
X137814081Y-77280354D01*
X138045216Y-77376094D01*
X138286871Y-77440845D01*
X138286875Y-77440845D01*
X138286877Y-77440846D01*
X138350166Y-77449178D01*
X138534910Y-77473500D01*
X138534917Y-77473500D01*
X138785083Y-77473500D01*
X138785090Y-77473500D01*
X139021371Y-77442393D01*
X139033122Y-77440846D01*
X139033122Y-77440845D01*
X139033129Y-77440845D01*
X139274784Y-77376094D01*
X139505919Y-77280354D01*
X139722581Y-77155265D01*
X139921062Y-77002965D01*
X140097965Y-76826062D01*
X140159770Y-76745516D01*
X143294000Y-76745516D01*
X143304605Y-76849318D01*
X143304606Y-76849321D01*
X143360342Y-77017525D01*
X143453365Y-77168339D01*
X143453370Y-77168345D01*
X143578654Y-77293629D01*
X143578660Y-77293634D01*
X143729474Y-77386657D01*
X143897678Y-77442393D01*
X143897681Y-77442394D01*
X144001483Y-77452999D01*
X144001483Y-77453000D01*
X144248000Y-77453000D01*
X144756000Y-77453000D01*
X145002517Y-77453000D01*
X145002516Y-77452999D01*
X145106318Y-77442394D01*
X145106321Y-77442393D01*
X145274525Y-77386657D01*
X145396408Y-77311479D01*
X145464887Y-77292742D01*
X145532626Y-77314001D01*
X145551650Y-77329625D01*
X145585654Y-77363629D01*
X145585660Y-77363634D01*
X145736474Y-77456657D01*
X145904678Y-77512393D01*
X145904681Y-77512394D01*
X146008483Y-77522999D01*
X146008483Y-77523000D01*
X146280000Y-77523000D01*
X146280000Y-76769000D01*
X145295000Y-76769000D01*
X145226879Y-76748998D01*
X145196891Y-76714390D01*
X145169001Y-76686500D01*
X144756000Y-76686500D01*
X144756000Y-77453000D01*
X144248000Y-77453000D01*
X144248000Y-76686500D01*
X143294000Y-76686500D01*
X143294000Y-76745516D01*
X140159770Y-76745516D01*
X140250265Y-76627581D01*
X140274253Y-76586033D01*
X140282754Y-76571309D01*
X140375347Y-76410931D01*
X140375353Y-76410920D01*
X140375354Y-76410919D01*
X140471094Y-76179784D01*
X140491162Y-76104888D01*
X140528114Y-76044265D01*
X140591975Y-76013244D01*
X140612869Y-76011499D01*
X141108544Y-76011499D01*
X141212426Y-76000887D01*
X141380738Y-75945115D01*
X141531652Y-75852030D01*
X141564682Y-75819000D01*
X141618905Y-75764778D01*
X141681217Y-75730752D01*
X141752032Y-75735817D01*
X141797095Y-75764778D01*
X141884341Y-75852024D01*
X141884347Y-75852029D01*
X141884348Y-75852030D01*
X142035262Y-75945115D01*
X142203574Y-76000887D01*
X142307455Y-76011500D01*
X142933544Y-76011499D01*
X143037426Y-76000887D01*
X143037429Y-76000886D01*
X143037431Y-76000886D01*
X143130768Y-75969957D01*
X143201722Y-75967516D01*
X143262733Y-76003824D01*
X143294428Y-76067352D01*
X143295749Y-76102364D01*
X143294000Y-76119488D01*
X143294000Y-76178500D01*
X145716000Y-76178500D01*
X145784121Y-76198502D01*
X145814108Y-76233109D01*
X145841999Y-76261000D01*
X146408000Y-76261000D01*
X146476121Y-76281002D01*
X146522614Y-76334658D01*
X146534000Y-76387000D01*
X146534000Y-76515000D01*
X146662000Y-76515000D01*
X146730121Y-76535002D01*
X146776614Y-76588658D01*
X146788000Y-76641000D01*
X146788000Y-77523000D01*
X147059517Y-77523000D01*
X147059516Y-77522999D01*
X147163318Y-77512394D01*
X147163321Y-77512393D01*
X147331525Y-77456657D01*
X147482339Y-77363634D01*
X147482345Y-77363629D01*
X147575051Y-77270924D01*
X147637363Y-77236898D01*
X147708178Y-77241963D01*
X147753241Y-77270924D01*
X147826341Y-77344024D01*
X147826347Y-77344029D01*
X147826348Y-77344030D01*
X147977262Y-77437115D01*
X148145574Y-77492887D01*
X148249455Y-77503500D01*
X148633941Y-77503499D01*
X148702061Y-77523501D01*
X148703927Y-77524723D01*
X148739664Y-77548602D01*
X148905000Y-77617087D01*
X149080521Y-77652000D01*
X149080522Y-77652000D01*
X149259478Y-77652000D01*
X149259479Y-77652000D01*
X149435000Y-77617087D01*
X149600336Y-77548602D01*
X149749135Y-77449178D01*
X149749137Y-77449175D01*
X149753950Y-77445960D01*
X149821703Y-77424745D01*
X149870273Y-77435059D01*
X149870509Y-77434349D01*
X149876902Y-77436467D01*
X149877206Y-77436532D01*
X149877473Y-77436656D01*
X150045678Y-77492393D01*
X150045681Y-77492394D01*
X150149483Y-77502999D01*
X150149483Y-77503000D01*
X150196000Y-77503000D01*
X150196000Y-76396000D01*
X150216002Y-76327879D01*
X150269658Y-76281386D01*
X150322000Y-76270000D01*
X150578000Y-76270000D01*
X150646121Y-76290002D01*
X150692614Y-76343658D01*
X150704000Y-76396000D01*
X150704000Y-77503000D01*
X150750517Y-77503000D01*
X150750516Y-77502999D01*
X150854318Y-77492394D01*
X150854321Y-77492393D01*
X151022525Y-77436657D01*
X151173339Y-77343634D01*
X151186390Y-77330583D01*
X151248701Y-77296556D01*
X151319517Y-77301619D01*
X151344709Y-77315812D01*
X151345102Y-77315177D01*
X151351346Y-77319028D01*
X151351348Y-77319030D01*
X151502262Y-77412115D01*
X151670574Y-77467887D01*
X151774455Y-77478500D01*
X152400544Y-77478499D01*
X152504426Y-77467887D01*
X152672738Y-77412115D01*
X152823652Y-77319030D01*
X152867120Y-77275562D01*
X152910905Y-77231778D01*
X152973217Y-77197752D01*
X153044032Y-77202817D01*
X153089095Y-77231778D01*
X153176341Y-77319024D01*
X153176347Y-77319029D01*
X153176348Y-77319030D01*
X153327262Y-77412115D01*
X153495574Y-77467887D01*
X153599455Y-77478500D01*
X154225544Y-77478499D01*
X154329426Y-77467887D01*
X154497738Y-77412115D01*
X154648652Y-77319030D01*
X154774030Y-77193652D01*
X154826643Y-77108352D01*
X154834353Y-77101418D01*
X154838660Y-77091988D01*
X154860299Y-77078081D01*
X154879429Y-77060875D01*
X154891253Y-77058187D01*
X154898386Y-77053604D01*
X154933884Y-77048500D01*
X155120050Y-77048500D01*
X155188171Y-77068502D01*
X155209140Y-77085400D01*
X155268190Y-77144450D01*
X155268193Y-77144453D01*
X155268196Y-77144455D01*
X155411394Y-77229143D01*
X155411397Y-77229143D01*
X155411399Y-77229145D01*
X155571169Y-77275562D01*
X155608488Y-77278499D01*
X155608489Y-77278500D01*
X155608498Y-77278500D01*
X156916511Y-77278500D01*
X156916511Y-77278499D01*
X156953831Y-77275562D01*
X157113601Y-77229145D01*
X157113603Y-77229143D01*
X157113605Y-77229143D01*
X157216418Y-77168339D01*
X157256807Y-77144453D01*
X157374453Y-77026807D01*
X157439399Y-76916990D01*
X157459143Y-76883605D01*
X157459143Y-76883603D01*
X157459145Y-76883601D01*
X157505562Y-76723831D01*
X157508500Y-76686502D01*
X157508500Y-76453999D01*
X157528502Y-76385878D01*
X157582158Y-76339385D01*
X157634500Y-76327999D01*
X157883500Y-76327999D01*
X157883500Y-75774000D01*
X157254842Y-75774000D01*
X157190703Y-75756453D01*
X157113601Y-75710855D01*
X157033716Y-75687646D01*
X156953829Y-75664437D01*
X156916511Y-75661500D01*
X156916502Y-75661500D01*
X155608498Y-75661500D01*
X155608489Y-75661500D01*
X155571171Y-75664437D01*
X155571170Y-75664437D01*
X155411396Y-75710856D01*
X155354585Y-75744455D01*
X155321614Y-75763953D01*
X155305456Y-75768373D01*
X155292974Y-75776396D01*
X155257476Y-75781500D01*
X155048514Y-75781500D01*
X154980393Y-75761498D01*
X154933900Y-75707842D01*
X154923166Y-75668304D01*
X154922887Y-75665575D01*
X154922887Y-75665574D01*
X154867115Y-75497262D01*
X154774030Y-75346348D01*
X154774029Y-75346347D01*
X154774024Y-75346341D01*
X154648658Y-75220975D01*
X154648652Y-75220970D01*
X154551696Y-75161167D01*
X154497738Y-75127885D01*
X154413582Y-75099999D01*
X154329427Y-75072113D01*
X154329420Y-75072112D01*
X154225553Y-75061500D01*
X153599449Y-75061500D01*
X153599442Y-75061501D01*
X153588505Y-75062618D01*
X153518705Y-75049639D01*
X153467003Y-75000982D01*
X153449814Y-74932098D01*
X153472595Y-74864856D01*
X153495777Y-74839869D01*
X153498924Y-74837284D01*
X153498935Y-74837278D01*
X153625478Y-74710735D01*
X153695594Y-74605799D01*
X153709827Y-74584498D01*
X153764304Y-74538970D01*
X153814592Y-74528500D01*
X154335405Y-74528500D01*
X154403526Y-74548502D01*
X154424500Y-74565404D01*
X154921167Y-75062072D01*
X155024925Y-75131401D01*
X155096788Y-75161167D01*
X155140215Y-75179155D01*
X155187340Y-75188528D01*
X155193536Y-75190440D01*
X155217945Y-75206602D01*
X155243879Y-75220168D01*
X155245484Y-75221745D01*
X155268189Y-75244450D01*
X155268196Y-75244455D01*
X155411394Y-75329143D01*
X155411397Y-75329143D01*
X155411399Y-75329145D01*
X155571169Y-75375562D01*
X155608488Y-75378499D01*
X155608489Y-75378500D01*
X155608498Y-75378500D01*
X156916511Y-75378500D01*
X156916511Y-75378499D01*
X156953831Y-75375562D01*
X157113601Y-75329145D01*
X157190703Y-75283546D01*
X157254842Y-75266000D01*
X157883500Y-75266000D01*
X157883500Y-74712000D01*
X157634500Y-74712000D01*
X157566379Y-74691998D01*
X157519886Y-74638342D01*
X157508500Y-74586000D01*
X157508500Y-74353489D01*
X157508499Y-74353488D01*
X157508361Y-74351739D01*
X157505562Y-74316169D01*
X157459145Y-74156399D01*
X157459143Y-74156397D01*
X157459143Y-74156394D01*
X157374455Y-74013196D01*
X157374450Y-74013189D01*
X157256810Y-73895549D01*
X157256803Y-73895544D01*
X157113605Y-73810856D01*
X156953829Y-73764437D01*
X156916511Y-73761500D01*
X156916502Y-73761500D01*
X155608498Y-73761500D01*
X155589385Y-73763004D01*
X155519905Y-73748407D01*
X155469346Y-73698564D01*
X155453500Y-73637392D01*
X155453500Y-73503489D01*
X155453499Y-73503488D01*
X155450562Y-73466171D01*
X155450562Y-73466169D01*
X155412039Y-73333570D01*
X155412242Y-73262579D01*
X155450795Y-73202963D01*
X155515460Y-73173654D01*
X155572665Y-73178816D01*
X155690574Y-73217887D01*
X155794455Y-73228500D01*
X156420544Y-73228499D01*
X156524426Y-73217887D01*
X156692738Y-73162115D01*
X156843652Y-73069030D01*
X156882519Y-73030163D01*
X156931259Y-72981424D01*
X156993571Y-72947398D01*
X157064386Y-72952463D01*
X157109449Y-72981424D01*
X157196654Y-73068629D01*
X157196660Y-73068634D01*
X157347474Y-73161657D01*
X157515678Y-73217393D01*
X157515681Y-73217394D01*
X157619483Y-73227999D01*
X157619483Y-73228000D01*
X157678500Y-73228000D01*
X157678500Y-70801281D01*
X157698502Y-70733160D01*
X157730737Y-70699129D01*
X157757228Y-70679999D01*
X157767393Y-70649324D01*
X157767394Y-70649318D01*
X157777999Y-70545516D01*
X157778000Y-70545516D01*
X157778000Y-70274000D01*
X156896000Y-70274000D01*
X156827879Y-70253998D01*
X156781386Y-70200342D01*
X156770000Y-70148000D01*
X156770000Y-70020000D01*
X156642000Y-70020000D01*
X156573879Y-69999998D01*
X156527386Y-69946342D01*
X156516000Y-69894000D01*
X156516000Y-69766000D01*
X157024000Y-69766000D01*
X157778000Y-69766000D01*
X157778000Y-69494483D01*
X157767394Y-69390681D01*
X157767393Y-69390678D01*
X157711657Y-69222474D01*
X157618634Y-69071660D01*
X157618629Y-69071654D01*
X157493345Y-68946370D01*
X157493339Y-68946365D01*
X157342525Y-68853342D01*
X157174321Y-68797606D01*
X157174318Y-68797605D01*
X157070516Y-68787000D01*
X157024000Y-68787000D01*
X157024000Y-69766000D01*
X156516000Y-69766000D01*
X156516000Y-68787000D01*
X156469483Y-68787000D01*
X156365681Y-68797605D01*
X156365678Y-68797606D01*
X156197474Y-68853342D01*
X156046660Y-68946365D01*
X156046654Y-68946370D01*
X155921370Y-69071654D01*
X155919157Y-69074454D01*
X155917149Y-69075875D01*
X155916175Y-69076850D01*
X155916008Y-69076683D01*
X155861216Y-69115482D01*
X155790291Y-69118672D01*
X155728900Y-69083011D01*
X155721483Y-69074450D01*
X155719028Y-69071345D01*
X155593658Y-68945975D01*
X155593652Y-68945970D01*
X155538682Y-68912064D01*
X155442738Y-68852885D01*
X155330453Y-68815678D01*
X155274427Y-68797113D01*
X155274420Y-68797112D01*
X155170553Y-68786500D01*
X154584594Y-68786500D01*
X154516473Y-68766498D01*
X154495499Y-68749595D01*
X154208835Y-68462931D01*
X154208833Y-68462929D01*
X154105075Y-68393600D01*
X153989785Y-68345845D01*
X153916086Y-68331185D01*
X153867396Y-68321500D01*
X153867394Y-68321500D01*
X150168373Y-68321500D01*
X150100252Y-68301498D01*
X150079278Y-68284595D01*
X149960658Y-68165975D01*
X149960652Y-68165970D01*
X149899902Y-68128499D01*
X149809738Y-68072885D01*
X149721517Y-68043652D01*
X149641427Y-68017113D01*
X149641420Y-68017112D01*
X149537553Y-68006500D01*
X149537545Y-68006500D01*
X149263490Y-68006500D01*
X149195369Y-67986498D01*
X149148876Y-67932842D01*
X149138772Y-67862568D01*
X149156249Y-67814354D01*
X149167115Y-67796738D01*
X149222887Y-67628426D01*
X149227435Y-67583905D01*
X149233500Y-67524553D01*
X149233500Y-67359500D01*
X149253502Y-67291379D01*
X149307158Y-67244886D01*
X149359500Y-67233500D01*
X149562393Y-67233500D01*
X149562394Y-67233500D01*
X149684785Y-67209155D01*
X149800075Y-67161400D01*
X149903833Y-67092071D01*
X149950499Y-67045405D01*
X150012811Y-67011379D01*
X150039594Y-67008500D01*
X150648632Y-67008500D01*
X150648638Y-67008500D01*
X150648645Y-67008499D01*
X150648649Y-67008499D01*
X150709196Y-67001990D01*
X150709197Y-67001989D01*
X150709201Y-67001989D01*
X150846204Y-66950889D01*
X150846207Y-66950886D01*
X150846209Y-66950886D01*
X150854110Y-66946572D01*
X150855612Y-66949323D01*
X150872790Y-66942915D01*
X150907503Y-66929955D01*
X150907525Y-66929959D01*
X150907546Y-66929952D01*
X150941667Y-66937374D01*
X150976882Y-66945022D01*
X150976905Y-66945039D01*
X150976920Y-66945043D01*
X151005631Y-66966535D01*
X151007928Y-66968832D01*
X151007929Y-66968833D01*
X151054596Y-67015500D01*
X151088620Y-67077810D01*
X151091500Y-67104594D01*
X151091500Y-67154481D01*
X151107218Y-67233499D01*
X151126413Y-67330000D01*
X151194898Y-67495336D01*
X151294322Y-67644135D01*
X151420865Y-67770678D01*
X151569664Y-67870102D01*
X151735000Y-67938587D01*
X151910521Y-67973500D01*
X151910522Y-67973500D01*
X152089478Y-67973500D01*
X152089479Y-67973500D01*
X152265000Y-67938587D01*
X152430336Y-67870102D01*
X152579135Y-67770678D01*
X152705678Y-67644135D01*
X152805102Y-67495336D01*
X152873587Y-67330000D01*
X152908500Y-67154479D01*
X152908500Y-66975521D01*
X152873587Y-66800000D01*
X152805102Y-66634664D01*
X152705678Y-66485865D01*
X152579135Y-66359322D01*
X152430336Y-66259898D01*
X152265000Y-66191413D01*
X152264998Y-66191412D01*
X152264994Y-66191411D01*
X152234916Y-66185428D01*
X152172007Y-66152520D01*
X152136877Y-66090824D01*
X152133500Y-66061850D01*
X152133500Y-63992607D01*
X152133499Y-63992603D01*
X152109155Y-63870215D01*
X152061400Y-63754925D01*
X151992071Y-63651167D01*
X151903833Y-63562929D01*
X151320809Y-62979905D01*
X151286783Y-62917593D01*
X151290300Y-62851177D01*
X151322392Y-62754330D01*
X151322394Y-62754318D01*
X151332999Y-62650516D01*
X151333000Y-62650516D01*
X151333000Y-62604000D01*
X150226000Y-62604000D01*
X150157879Y-62583998D01*
X150111386Y-62530342D01*
X150100000Y-62478000D01*
X150100000Y-62350000D01*
X149972000Y-62350000D01*
X149903879Y-62329998D01*
X149857386Y-62276342D01*
X149846000Y-62224000D01*
X149846000Y-62096000D01*
X150354000Y-62096000D01*
X151333000Y-62096000D01*
X151333000Y-62049483D01*
X151322394Y-61945681D01*
X151322393Y-61945678D01*
X151266657Y-61777474D01*
X151173634Y-61626660D01*
X151173629Y-61626654D01*
X151048345Y-61501370D01*
X151048339Y-61501365D01*
X150897525Y-61408342D01*
X150729321Y-61352606D01*
X150729318Y-61352605D01*
X150625516Y-61342000D01*
X150354000Y-61342000D01*
X150354000Y-62096000D01*
X149846000Y-62096000D01*
X149846000Y-61342000D01*
X149574483Y-61342000D01*
X149470681Y-61352605D01*
X149470678Y-61352606D01*
X149302472Y-61408343D01*
X149200117Y-61471476D01*
X149171126Y-61479408D01*
X149142960Y-61489914D01*
X149137261Y-61488674D01*
X149131638Y-61490213D01*
X149102964Y-61481213D01*
X149073586Y-61474823D01*
X149067077Y-61469950D01*
X149063899Y-61468953D01*
X149044876Y-61453330D01*
X148880335Y-61288789D01*
X148846309Y-61226477D01*
X148843430Y-61199694D01*
X148843430Y-60612537D01*
X148843429Y-60612533D01*
X148819085Y-60490145D01*
X148771330Y-60374855D01*
X148702001Y-60271097D01*
X148613763Y-60182859D01*
X148119498Y-59688594D01*
X148085473Y-59626282D01*
X148090538Y-59555466D01*
X148133085Y-59498631D01*
X148199605Y-59473820D01*
X148208594Y-59473499D01*
X148425544Y-59473499D01*
X148529426Y-59462887D01*
X148697738Y-59407115D01*
X148848652Y-59314030D01*
X148974030Y-59188652D01*
X149067115Y-59037738D01*
X149122887Y-58869426D01*
X149133500Y-58765545D01*
X149133499Y-57764456D01*
X149122887Y-57660574D01*
X149067115Y-57492262D01*
X148983130Y-57356102D01*
X148964394Y-57287625D01*
X148985653Y-57219886D01*
X149040160Y-57174394D01*
X149090341Y-57163957D01*
X158851067Y-57161881D01*
X158919187Y-57181868D01*
G37*
%TD.AperFunction*%
%TA.AperFunction,Conductor*%
G36*
X147666379Y-73606879D02*
G01*
X147754992Y-73643584D01*
X147754993Y-73643584D01*
X147755000Y-73643587D01*
X147930521Y-73678500D01*
X147930522Y-73678500D01*
X148011000Y-73678500D01*
X148079121Y-73698502D01*
X148125614Y-73752158D01*
X148134359Y-73792360D01*
X148136999Y-73795000D01*
X148744000Y-73795000D01*
X148752825Y-73797591D01*
X148761932Y-73796282D01*
X148786357Y-73807437D01*
X148812121Y-73815002D01*
X148818145Y-73821955D01*
X148826512Y-73825776D01*
X148841026Y-73848361D01*
X148858614Y-73868658D01*
X148860938Y-73879344D01*
X148864896Y-73885502D01*
X148870000Y-73921000D01*
X148870000Y-74119000D01*
X148849998Y-74187121D01*
X148796342Y-74233614D01*
X148744000Y-74245000D01*
X148137000Y-74245000D01*
X148137000Y-74320183D01*
X148137015Y-74320566D01*
X148137000Y-74320625D01*
X148137000Y-74322642D01*
X148136493Y-74322642D01*
X148134169Y-74331880D01*
X148135830Y-74343432D01*
X148125664Y-74365690D01*
X148119696Y-74389418D01*
X148111182Y-74397399D01*
X148106336Y-74408012D01*
X148085753Y-74421239D01*
X148067902Y-74437976D01*
X148054890Y-74441074D01*
X148046610Y-74446396D01*
X148011112Y-74451500D01*
X147893499Y-74451500D01*
X147825378Y-74431498D01*
X147778885Y-74377842D01*
X147767499Y-74325500D01*
X147767499Y-74314455D01*
X147756887Y-74210574D01*
X147739631Y-74158499D01*
X147701115Y-74042262D01*
X147608030Y-73891348D01*
X147608029Y-73891347D01*
X147608024Y-73891341D01*
X147529065Y-73812382D01*
X147495039Y-73750070D01*
X147500104Y-73679255D01*
X147542651Y-73622419D01*
X147609171Y-73597608D01*
X147666379Y-73606879D01*
G37*
%TD.AperFunction*%
%TA.AperFunction,Conductor*%
G36*
X146826814Y-72015295D02*
G01*
X146843804Y-72016206D01*
X146859388Y-72027444D01*
X146877395Y-72034160D01*
X146899870Y-72056635D01*
X146901390Y-72057732D01*
X146902754Y-72059520D01*
X146940738Y-72110261D01*
X147057791Y-72197886D01*
X147057792Y-72197886D01*
X147057796Y-72197889D01*
X147122396Y-72221984D01*
X147179229Y-72264529D01*
X147204040Y-72331049D01*
X147194770Y-72388257D01*
X147146414Y-72504996D01*
X147146413Y-72504999D01*
X147146413Y-72505000D01*
X147144191Y-72516170D01*
X147111500Y-72680518D01*
X147111500Y-72859481D01*
X147125229Y-72928499D01*
X147144191Y-73023831D01*
X147146414Y-73035003D01*
X147162840Y-73074658D01*
X147214898Y-73200336D01*
X147314322Y-73349135D01*
X147314324Y-73349137D01*
X147413963Y-73448776D01*
X147447989Y-73511088D01*
X147442924Y-73581903D01*
X147400377Y-73638739D01*
X147333857Y-73663550D01*
X147285236Y-73657476D01*
X147163427Y-73617113D01*
X147163420Y-73617112D01*
X147059553Y-73606500D01*
X146008455Y-73606500D01*
X145904574Y-73617112D01*
X145736261Y-73672885D01*
X145589785Y-73763233D01*
X145521305Y-73781970D01*
X145453566Y-73760711D01*
X145408075Y-73706203D01*
X145399274Y-73635754D01*
X145422768Y-73580484D01*
X145470889Y-73516204D01*
X145521989Y-73379201D01*
X145524803Y-73353031D01*
X145528499Y-73318649D01*
X145528500Y-73318632D01*
X145528500Y-73051792D01*
X145548502Y-72983671D01*
X145602158Y-72937178D01*
X145672432Y-72927074D01*
X145679069Y-72928211D01*
X145680521Y-72928500D01*
X145680524Y-72928500D01*
X145859478Y-72928500D01*
X145859479Y-72928500D01*
X146035000Y-72893587D01*
X146200336Y-72825102D01*
X146349135Y-72725678D01*
X146475678Y-72599135D01*
X146575102Y-72450336D01*
X146643587Y-72285000D01*
X146678307Y-72110447D01*
X146687213Y-72093421D01*
X146691298Y-72074644D01*
X146703328Y-72062613D01*
X146711214Y-72047538D01*
X146727913Y-72038028D01*
X146741500Y-72024442D01*
X146758123Y-72020825D01*
X146772909Y-72012406D01*
X146792098Y-72013434D01*
X146810874Y-72009350D01*
X146826814Y-72015295D01*
G37*
%TD.AperFunction*%
%TA.AperFunction,Conductor*%
G36*
X151303621Y-70040002D02*
G01*
X151350114Y-70093658D01*
X151361500Y-70146000D01*
X151361500Y-71228000D01*
X151420517Y-71228000D01*
X151420516Y-71227999D01*
X151524318Y-71217394D01*
X151524321Y-71217393D01*
X151692525Y-71161657D01*
X151843339Y-71068634D01*
X151843345Y-71068629D01*
X151930551Y-70981424D01*
X151934469Y-70979284D01*
X151936874Y-70975520D01*
X151965352Y-70962420D01*
X151992863Y-70947398D01*
X151997318Y-70947716D01*
X152001374Y-70945851D01*
X152032405Y-70950226D01*
X152063678Y-70952463D01*
X152068500Y-70955315D01*
X152071675Y-70955763D01*
X152085856Y-70965580D01*
X152101898Y-70975069D01*
X152105434Y-70978116D01*
X152196348Y-71069030D01*
X152247670Y-71100685D01*
X152255252Y-71107219D01*
X152269310Y-71128963D01*
X152286625Y-71148213D01*
X152289263Y-71159825D01*
X152293799Y-71166840D01*
X152293834Y-71179939D01*
X152299000Y-71202669D01*
X152299000Y-71835500D01*
X152278998Y-71903621D01*
X152225342Y-71950114D01*
X152173000Y-71961500D01*
X151678489Y-71961500D01*
X151641171Y-71964437D01*
X151641170Y-71964437D01*
X151481394Y-72010856D01*
X151338196Y-72095544D01*
X151338189Y-72095549D01*
X151220549Y-72213189D01*
X151220544Y-72213196D01*
X151135856Y-72356394D01*
X151089437Y-72516170D01*
X151089437Y-72516171D01*
X151086500Y-72553488D01*
X151086500Y-72986511D01*
X151089437Y-73023824D01*
X151089440Y-73023838D01*
X151089621Y-73024462D01*
X151089619Y-73024823D01*
X151090595Y-73030163D01*
X151089603Y-73030344D01*
X151089580Y-73037945D01*
X151094297Y-73050580D01*
X151089477Y-73072761D01*
X151089410Y-73095459D01*
X151081749Y-73108330D01*
X151079223Y-73119958D01*
X151057738Y-73148674D01*
X150919410Y-73287073D01*
X150857107Y-73321114D01*
X150830292Y-73324000D01*
X150754418Y-73324000D01*
X150686297Y-73303998D01*
X150671424Y-73292012D01*
X150666140Y-73287913D01*
X150531091Y-73208045D01*
X150531090Y-73208044D01*
X150531089Y-73208044D01*
X150380418Y-73164270D01*
X150380415Y-73164269D01*
X150347215Y-73161657D01*
X150345220Y-73161500D01*
X149994780Y-73161500D01*
X149992785Y-73161657D01*
X149959584Y-73164269D01*
X149808908Y-73208045D01*
X149673859Y-73287913D01*
X149608741Y-73353031D01*
X149546428Y-73387056D01*
X149475613Y-73381990D01*
X149430551Y-73353030D01*
X149365835Y-73288314D01*
X149365828Y-73288309D01*
X149230893Y-73208508D01*
X149080344Y-73164769D01*
X149080331Y-73164767D01*
X149045176Y-73162000D01*
X149021856Y-73162000D01*
X149001315Y-73155968D01*
X148979937Y-73154823D01*
X148967933Y-73146166D01*
X148953735Y-73141998D01*
X148939715Y-73125819D01*
X148922351Y-73113297D01*
X148916932Y-73099525D01*
X148907242Y-73088342D01*
X148904195Y-73067152D01*
X148896357Y-73047230D01*
X148897707Y-73022032D01*
X148897138Y-73018068D01*
X148898272Y-73011443D01*
X148922965Y-72887304D01*
X148955873Y-72824396D01*
X149017568Y-72789264D01*
X149088463Y-72793064D01*
X149110676Y-72803430D01*
X149158911Y-72831956D01*
X149309582Y-72875730D01*
X149344780Y-72878500D01*
X149344781Y-72878500D01*
X149695219Y-72878500D01*
X149695220Y-72878500D01*
X149730418Y-72875730D01*
X149881089Y-72831956D01*
X150016141Y-72752086D01*
X150127086Y-72641141D01*
X150206956Y-72506089D01*
X150250730Y-72355418D01*
X150253500Y-72320220D01*
X150253500Y-71719780D01*
X150250730Y-71684582D01*
X150206956Y-71533911D01*
X150127086Y-71398859D01*
X150127083Y-71398855D01*
X150016144Y-71287916D01*
X150016140Y-71287913D01*
X149881091Y-71208045D01*
X149881090Y-71208044D01*
X149881089Y-71208044D01*
X149730418Y-71164270D01*
X149730415Y-71164269D01*
X149697215Y-71161657D01*
X149695220Y-71161500D01*
X149344780Y-71161500D01*
X149342785Y-71161657D01*
X149309584Y-71164269D01*
X149203526Y-71195082D01*
X149159982Y-71207733D01*
X149158908Y-71208045D01*
X149023859Y-71287913D01*
X149017596Y-71292772D01*
X149015887Y-71290569D01*
X148965283Y-71318203D01*
X148894468Y-71313138D01*
X148837632Y-71270591D01*
X148812821Y-71204071D01*
X148812500Y-71195082D01*
X148812500Y-70698367D01*
X148812499Y-70698350D01*
X148805990Y-70637803D01*
X148805988Y-70637795D01*
X148789465Y-70593496D01*
X148784399Y-70522681D01*
X148818424Y-70460368D01*
X148880736Y-70426343D01*
X148908247Y-70424090D01*
X148908247Y-70423500D01*
X148911454Y-70423499D01*
X148911455Y-70423500D01*
X149537544Y-70423499D01*
X149641426Y-70412887D01*
X149809738Y-70357115D01*
X149894854Y-70304614D01*
X149963332Y-70285877D01*
X150031071Y-70307136D01*
X150076563Y-70361643D01*
X150087000Y-70411855D01*
X150087000Y-70520516D01*
X150097605Y-70624318D01*
X150097606Y-70624321D01*
X150153342Y-70792525D01*
X150246365Y-70943339D01*
X150246370Y-70943345D01*
X150371654Y-71068629D01*
X150371660Y-71068634D01*
X150522474Y-71161657D01*
X150690678Y-71217393D01*
X150690681Y-71217394D01*
X150794483Y-71227999D01*
X150794483Y-71228000D01*
X150853500Y-71228000D01*
X150853500Y-70146000D01*
X150873502Y-70077879D01*
X150927158Y-70031386D01*
X150979500Y-70020000D01*
X151235500Y-70020000D01*
X151303621Y-70040002D01*
G37*
%TD.AperFunction*%
%TA.AperFunction,Conductor*%
G36*
X146303981Y-69840922D02*
G01*
X146339402Y-69841024D01*
X146339510Y-69841094D01*
X146339640Y-69841095D01*
X146369289Y-69860351D01*
X146399018Y-69879577D01*
X146399092Y-69879708D01*
X146399181Y-69879766D01*
X146418424Y-69910030D01*
X146421108Y-69915984D01*
X146444885Y-69987738D01*
X146476756Y-70039410D01*
X146480104Y-70046834D01*
X146483911Y-70074255D01*
X146491217Y-70100954D01*
X146488722Y-70108903D01*
X146489868Y-70117155D01*
X146478247Y-70142278D01*
X146469958Y-70168693D01*
X146463561Y-70174031D01*
X146460064Y-70181593D01*
X146436705Y-70196445D01*
X146415451Y-70214185D01*
X146407183Y-70215217D01*
X146400153Y-70219688D01*
X146372471Y-70219554D01*
X146345002Y-70222986D01*
X146337488Y-70219385D01*
X146329158Y-70219345D01*
X146315205Y-70214262D01*
X146308405Y-70211320D01*
X146148748Y-70164934D01*
X146148750Y-70164934D01*
X146111456Y-70162000D01*
X145711500Y-70162000D01*
X145711500Y-70844000D01*
X145691498Y-70912121D01*
X145637842Y-70958614D01*
X145585500Y-70970000D01*
X145457500Y-70970000D01*
X145457500Y-71010500D01*
X145437498Y-71078621D01*
X145383842Y-71125114D01*
X145331500Y-71136500D01*
X143207603Y-71136500D01*
X143085215Y-71160845D01*
X143085214Y-71160845D01*
X143006782Y-71193333D01*
X143006781Y-71193332D01*
X142969930Y-71208597D01*
X142969929Y-71208597D01*
X142924499Y-71238952D01*
X142914644Y-71242037D01*
X142906841Y-71248799D01*
X142881334Y-71252466D01*
X142856745Y-71260165D01*
X142846788Y-71257433D01*
X142836567Y-71258903D01*
X142813128Y-71248198D01*
X142788279Y-71241381D01*
X142781378Y-71233697D01*
X142771987Y-71229409D01*
X142758056Y-71207733D01*
X142740837Y-71188562D01*
X142738163Y-71176779D01*
X142733603Y-71169683D01*
X142728499Y-71134190D01*
X142728499Y-70946116D01*
X142748501Y-70877997D01*
X142802157Y-70831504D01*
X142872431Y-70821400D01*
X142889651Y-70825121D01*
X142891169Y-70825562D01*
X142928488Y-70828499D01*
X142928489Y-70828500D01*
X142928498Y-70828500D01*
X144236511Y-70828500D01*
X144236511Y-70828499D01*
X144273831Y-70825562D01*
X144433601Y-70779145D01*
X144510703Y-70733546D01*
X144574842Y-70716000D01*
X145203500Y-70716000D01*
X145203500Y-70162000D01*
X144954500Y-70162000D01*
X144945674Y-70159408D01*
X144936568Y-70160718D01*
X144912142Y-70149562D01*
X144886379Y-70141998D01*
X144880354Y-70135044D01*
X144871988Y-70131224D01*
X144857473Y-70108638D01*
X144839886Y-70088342D01*
X144837561Y-70077655D01*
X144833604Y-70071498D01*
X144828500Y-70036000D01*
X144828500Y-70004500D01*
X144848502Y-69936379D01*
X144902158Y-69889886D01*
X144954500Y-69878500D01*
X146111511Y-69878500D01*
X146111511Y-69878499D01*
X146148831Y-69875562D01*
X146268412Y-69840821D01*
X146268535Y-69840821D01*
X146268641Y-69840754D01*
X146268648Y-69840752D01*
X146303981Y-69840922D01*
G37*
%TD.AperFunction*%
%TA.AperFunction,Conductor*%
G36*
X139866976Y-68087845D02*
G01*
X139901532Y-68090317D01*
X139902453Y-68090909D01*
X139903270Y-68090980D01*
X139906783Y-68093692D01*
X139946595Y-68119278D01*
X140059341Y-68232024D01*
X140059347Y-68232029D01*
X140059348Y-68232030D01*
X140210262Y-68325115D01*
X140300680Y-68355076D01*
X140359051Y-68395489D01*
X140386307Y-68461045D01*
X140377498Y-68514402D01*
X140380194Y-68515296D01*
X140377886Y-68522259D01*
X140377885Y-68522262D01*
X140367397Y-68553914D01*
X140322113Y-68690573D01*
X140322112Y-68690579D01*
X140311500Y-68794446D01*
X140311500Y-69367903D01*
X140302716Y-69397818D01*
X140296088Y-69428288D01*
X140292273Y-69433383D01*
X140291498Y-69436024D01*
X140274595Y-69456998D01*
X140218095Y-69513498D01*
X140155783Y-69547524D01*
X140084968Y-69542459D01*
X140041151Y-69509657D01*
X140039905Y-69510904D01*
X140031238Y-69502237D01*
X140028132Y-69499912D01*
X140027667Y-69498666D01*
X140003001Y-69474000D01*
X138896000Y-69474000D01*
X138827879Y-69453998D01*
X138781386Y-69400342D01*
X138770000Y-69348000D01*
X138770000Y-69092000D01*
X138790002Y-69023879D01*
X138843658Y-68977386D01*
X138896000Y-68966000D01*
X140003000Y-68966000D01*
X140003000Y-68919483D01*
X139992394Y-68815681D01*
X139992393Y-68815678D01*
X139936657Y-68647474D01*
X139843634Y-68496660D01*
X139843629Y-68496654D01*
X139718344Y-68371369D01*
X139715551Y-68369161D01*
X139714131Y-68367156D01*
X139713150Y-68366175D01*
X139713317Y-68366007D01*
X139705496Y-68354963D01*
X139691724Y-68344333D01*
X139685403Y-68326591D01*
X139674519Y-68311222D01*
X139673736Y-68293841D01*
X139667898Y-68277454D01*
X139672172Y-68259113D01*
X139671325Y-68240298D01*
X139680143Y-68224909D01*
X139684012Y-68208310D01*
X139701071Y-68188389D01*
X139705925Y-68179920D01*
X139714509Y-68171584D01*
X139718652Y-68169030D01*
X139769075Y-68118606D01*
X139769729Y-68117972D01*
X139800350Y-68101834D01*
X139830717Y-68085252D01*
X139831682Y-68085321D01*
X139832537Y-68084871D01*
X139866976Y-68087845D01*
G37*
%TD.AperFunction*%
%TA.AperFunction,Conductor*%
G36*
X129716121Y-60990002D02*
G01*
X129762614Y-61043658D01*
X129774000Y-61096000D01*
X129774000Y-61978000D01*
X130045517Y-61978000D01*
X130045516Y-61977999D01*
X130149318Y-61967394D01*
X130149321Y-61967393D01*
X130317525Y-61911657D01*
X130468339Y-61818634D01*
X130468345Y-61818629D01*
X130593629Y-61693345D01*
X130593634Y-61693339D01*
X130665798Y-61576343D01*
X130718584Y-61528865D01*
X130788658Y-61517462D01*
X130846814Y-61540347D01*
X130854998Y-61546258D01*
X130903193Y-61594453D01*
X131005462Y-61654934D01*
X131010131Y-61658307D01*
X131012397Y-61661229D01*
X131025451Y-61671355D01*
X132099595Y-62745499D01*
X132133621Y-62807811D01*
X132136500Y-62834594D01*
X132136500Y-63696013D01*
X132116498Y-63764134D01*
X132062842Y-63810627D01*
X131992568Y-63820731D01*
X131946361Y-63804467D01*
X131873401Y-63761318D01*
X131714000Y-63715007D01*
X131714000Y-65069000D01*
X131693998Y-65137121D01*
X131640342Y-65183614D01*
X131588000Y-65195000D01*
X131460000Y-65195000D01*
X131460000Y-65323000D01*
X131439998Y-65391121D01*
X131386342Y-65437614D01*
X131334000Y-65449000D01*
X130652001Y-65449000D01*
X130652001Y-65941609D01*
X130631999Y-66009730D01*
X130578343Y-66056223D01*
X130550583Y-66065188D01*
X130449904Y-66085215D01*
X130399198Y-66095301D01*
X130399196Y-66095301D01*
X130399195Y-66095302D01*
X130302340Y-66135421D01*
X130261061Y-66152520D01*
X130233860Y-66163787D01*
X130085067Y-66263207D01*
X130085060Y-66263212D01*
X129958522Y-66389750D01*
X129958517Y-66389757D01*
X129859097Y-66538550D01*
X129790612Y-66703884D01*
X129755698Y-66879406D01*
X129755698Y-67019587D01*
X129754390Y-67024040D01*
X129755377Y-67028575D01*
X129744480Y-67057790D01*
X129735696Y-67087708D01*
X129731735Y-67091961D01*
X129730567Y-67095095D01*
X129705208Y-67120455D01*
X129680009Y-67139319D01*
X129613489Y-67164130D01*
X129544114Y-67149039D01*
X129493912Y-67098837D01*
X129478499Y-67038451D01*
X129478499Y-66794455D01*
X129467887Y-66690574D01*
X129412115Y-66522262D01*
X129369624Y-66453374D01*
X129350888Y-66384897D01*
X129372147Y-66317158D01*
X129387771Y-66298133D01*
X129664147Y-66021757D01*
X130012072Y-65673833D01*
X130081401Y-65570075D01*
X130115168Y-65488552D01*
X130129155Y-65454785D01*
X130153500Y-65332394D01*
X130153500Y-65330460D01*
X130156090Y-65320153D01*
X130169252Y-65297780D01*
X130178741Y-65273621D01*
X130187065Y-65267500D01*
X130192090Y-65258960D01*
X130213165Y-65248312D01*
X130234260Y-65232803D01*
X130266204Y-65220889D01*
X130383261Y-65133261D01*
X130470889Y-65016204D01*
X130472003Y-65013216D01*
X130473912Y-65010665D01*
X130475205Y-65008299D01*
X130475545Y-65008484D01*
X130514545Y-64956384D01*
X130581064Y-64931570D01*
X130624421Y-64941000D01*
X131206000Y-64941000D01*
X131206000Y-63715007D01*
X131046598Y-63761318D01*
X130903498Y-63845948D01*
X130903496Y-63845949D01*
X130785949Y-63963496D01*
X130785943Y-63963503D01*
X130762953Y-64002379D01*
X130711060Y-64050832D01*
X130641210Y-64063537D01*
X130575579Y-64036462D01*
X130535005Y-63978201D01*
X130528500Y-63938240D01*
X130528500Y-63721367D01*
X130528499Y-63721350D01*
X130521990Y-63660803D01*
X130521988Y-63660795D01*
X130481978Y-63553526D01*
X130470889Y-63523796D01*
X130470888Y-63523794D01*
X130470887Y-63523792D01*
X130383261Y-63406738D01*
X130266207Y-63319112D01*
X130266202Y-63319110D01*
X130129204Y-63268011D01*
X130129196Y-63268009D01*
X130068649Y-63261500D01*
X130068638Y-63261500D01*
X128971362Y-63261500D01*
X128971350Y-63261500D01*
X128910803Y-63268009D01*
X128910799Y-63268010D01*
X128844918Y-63292583D01*
X128774102Y-63297647D01*
X128711790Y-63263622D01*
X128677765Y-63201310D01*
X128681280Y-63134898D01*
X128717887Y-63024426D01*
X128728500Y-62920545D01*
X128728499Y-62294456D01*
X128717887Y-62190574D01*
X128717886Y-62190570D01*
X128717886Y-62190568D01*
X128692414Y-62113699D01*
X128689973Y-62042744D01*
X128726281Y-61981734D01*
X128789810Y-61950039D01*
X128851652Y-61954462D01*
X128890673Y-61967392D01*
X128890681Y-61967394D01*
X128994483Y-61977999D01*
X128994483Y-61978000D01*
X129266000Y-61978000D01*
X129266000Y-61096000D01*
X129286002Y-61027879D01*
X129339658Y-60981386D01*
X129392000Y-60970000D01*
X129648000Y-60970000D01*
X129716121Y-60990002D01*
G37*
%TD.AperFunction*%
%TA.AperFunction,Conductor*%
G36*
X143083621Y-58285002D02*
G01*
X143130114Y-58338658D01*
X143141500Y-58391000D01*
X143141500Y-59290049D01*
X143121498Y-59358170D01*
X143104595Y-59379144D01*
X143025549Y-59458189D01*
X143025544Y-59458196D01*
X142940856Y-59601394D01*
X142894437Y-59761170D01*
X142894437Y-59761171D01*
X142891500Y-59798488D01*
X142891500Y-60231511D01*
X142894437Y-60268828D01*
X142894437Y-60268829D01*
X142940857Y-60428607D01*
X142944005Y-60435882D01*
X142942148Y-60436685D01*
X142956984Y-60495182D01*
X142942772Y-60543592D01*
X142944466Y-60544326D01*
X142941318Y-60551598D01*
X142895007Y-60711000D01*
X143145158Y-60711000D01*
X143209296Y-60728546D01*
X143286399Y-60774145D01*
X143446169Y-60820562D01*
X143483488Y-60823499D01*
X143483489Y-60823500D01*
X143936500Y-60823500D01*
X143945325Y-60826091D01*
X143954432Y-60824782D01*
X143978857Y-60835937D01*
X144004621Y-60843502D01*
X144010645Y-60850455D01*
X144019012Y-60854276D01*
X144033526Y-60876861D01*
X144051114Y-60897158D01*
X144053438Y-60907844D01*
X144057396Y-60914002D01*
X144062500Y-60949500D01*
X144062500Y-60980500D01*
X144042498Y-61048621D01*
X143988842Y-61095114D01*
X143936500Y-61106500D01*
X143483489Y-61106500D01*
X143446171Y-61109437D01*
X143446170Y-61109437D01*
X143286396Y-61155856D01*
X143256003Y-61173831D01*
X143209296Y-61201453D01*
X143145158Y-61219000D01*
X142895007Y-61219000D01*
X142941320Y-61378405D01*
X142944467Y-61385678D01*
X142942373Y-61386584D01*
X142956984Y-61444199D01*
X142942515Y-61493473D01*
X142944005Y-61494118D01*
X142940857Y-61501392D01*
X142894437Y-61661170D01*
X142894437Y-61661171D01*
X142891500Y-61698488D01*
X142891500Y-62131511D01*
X142894437Y-62168828D01*
X142894437Y-62168829D01*
X142940856Y-62328605D01*
X143025544Y-62471803D01*
X143025549Y-62471810D01*
X143143189Y-62589450D01*
X143143196Y-62589455D01*
X143286394Y-62674143D01*
X143286397Y-62674143D01*
X143286399Y-62674145D01*
X143446169Y-62720562D01*
X143483488Y-62723499D01*
X143483489Y-62723500D01*
X143483498Y-62723500D01*
X143571456Y-62723500D01*
X143594720Y-62730331D01*
X143618848Y-62732752D01*
X143628163Y-62740150D01*
X143639577Y-62743502D01*
X143655454Y-62761826D01*
X143674443Y-62776907D01*
X143678279Y-62788167D01*
X143686070Y-62797158D01*
X143689520Y-62821158D01*
X143697341Y-62844110D01*
X143694971Y-62859068D01*
X143696174Y-62867432D01*
X143693760Y-62879794D01*
X143692028Y-62886785D01*
X143648011Y-63004799D01*
X143641500Y-63065362D01*
X143641500Y-63090778D01*
X143637804Y-63105700D01*
X143627343Y-63123618D01*
X143621498Y-63143527D01*
X143604595Y-63164501D01*
X142487931Y-64281164D01*
X142487926Y-64281171D01*
X142418601Y-64384923D01*
X142370846Y-64500212D01*
X142346500Y-64622603D01*
X142346500Y-65856727D01*
X142326498Y-65924848D01*
X142272842Y-65971341D01*
X142233308Y-65982074D01*
X142203580Y-65985111D01*
X142203577Y-65985112D01*
X142035261Y-66040885D01*
X141884347Y-66133970D01*
X141884341Y-66133975D01*
X141797095Y-66221222D01*
X141734783Y-66255248D01*
X141663968Y-66250183D01*
X141618905Y-66221222D01*
X141531658Y-66133975D01*
X141531652Y-66133970D01*
X141506265Y-66118311D01*
X141380738Y-66040885D01*
X141283666Y-66008719D01*
X141212427Y-65985113D01*
X141212420Y-65985112D01*
X141108553Y-65974500D01*
X140482455Y-65974500D01*
X140378574Y-65985112D01*
X140210261Y-66040885D01*
X140131549Y-66089435D01*
X140080645Y-66120833D01*
X140012168Y-66139570D01*
X139944429Y-66118311D01*
X139898937Y-66063804D01*
X139888500Y-66013592D01*
X139888500Y-64303489D01*
X139888499Y-64303488D01*
X139885562Y-64266171D01*
X139885562Y-64266170D01*
X139842938Y-64119455D01*
X139839145Y-64106399D01*
X139839143Y-64106397D01*
X139839143Y-64106394D01*
X139754455Y-63963196D01*
X139754450Y-63963189D01*
X139636810Y-63845549D01*
X139636803Y-63845544D01*
X139493605Y-63760856D01*
X139333829Y-63714437D01*
X139296511Y-63711500D01*
X139296502Y-63711500D01*
X138863498Y-63711500D01*
X138863489Y-63711500D01*
X138826171Y-63714437D01*
X138826170Y-63714437D01*
X138666394Y-63760856D01*
X138523197Y-63845543D01*
X138522225Y-63846298D01*
X138521323Y-63846652D01*
X138516369Y-63849582D01*
X138515896Y-63848782D01*
X138456139Y-63872244D01*
X138386517Y-63858342D01*
X138367775Y-63846298D01*
X138366802Y-63845543D01*
X138223605Y-63760856D01*
X138063829Y-63714437D01*
X138026511Y-63711500D01*
X138026502Y-63711500D01*
X137593498Y-63711500D01*
X137593489Y-63711500D01*
X137556171Y-63714437D01*
X137556170Y-63714437D01*
X137396397Y-63760855D01*
X137363639Y-63780229D01*
X137294822Y-63797688D01*
X137227491Y-63775171D01*
X137183022Y-63719826D01*
X137173500Y-63671775D01*
X137173500Y-62314594D01*
X137193502Y-62246473D01*
X137210405Y-62225499D01*
X137670499Y-61765405D01*
X137732811Y-61731379D01*
X137759594Y-61728500D01*
X138026511Y-61728500D01*
X138026511Y-61728499D01*
X138063831Y-61725562D01*
X138223601Y-61679145D01*
X138223603Y-61679143D01*
X138223605Y-61679143D01*
X138312358Y-61626654D01*
X138366807Y-61594453D01*
X138366814Y-61594445D01*
X138367767Y-61593708D01*
X138368662Y-61593356D01*
X138373631Y-61590418D01*
X138374104Y-61591219D01*
X138433850Y-61567756D01*
X138503474Y-61581652D01*
X138522233Y-61593708D01*
X138523189Y-61594449D01*
X138523193Y-61594453D01*
X138523197Y-61594455D01*
X138523198Y-61594456D01*
X138666394Y-61679143D01*
X138666397Y-61679143D01*
X138666399Y-61679145D01*
X138826169Y-61725562D01*
X138863488Y-61728499D01*
X138863489Y-61728500D01*
X138863498Y-61728500D01*
X139296511Y-61728500D01*
X139296511Y-61728499D01*
X139333831Y-61725562D01*
X139493601Y-61679145D01*
X139493603Y-61679143D01*
X139493605Y-61679143D01*
X139582358Y-61626654D01*
X139636807Y-61594453D01*
X139754453Y-61476807D01*
X139812648Y-61378405D01*
X139839143Y-61333605D01*
X139839143Y-61333603D01*
X139839145Y-61333601D01*
X139885562Y-61173831D01*
X139888499Y-61136511D01*
X139888500Y-61136511D01*
X139888500Y-59442503D01*
X139908502Y-59374382D01*
X139962158Y-59327889D01*
X140032432Y-59317785D01*
X140097012Y-59347279D01*
X140103595Y-59353408D01*
X140120865Y-59370678D01*
X140269664Y-59470102D01*
X140435000Y-59538587D01*
X140610521Y-59573500D01*
X140610522Y-59573500D01*
X140789478Y-59573500D01*
X140789479Y-59573500D01*
X140965000Y-59538587D01*
X141130336Y-59470102D01*
X141279135Y-59370678D01*
X141339408Y-59310405D01*
X141401720Y-59276379D01*
X141428503Y-59273500D01*
X141448632Y-59273500D01*
X141448638Y-59273500D01*
X141448645Y-59273499D01*
X141448649Y-59273499D01*
X141509196Y-59266990D01*
X141509199Y-59266989D01*
X141509201Y-59266989D01*
X141520749Y-59262682D01*
X141570474Y-59244135D01*
X141646204Y-59215889D01*
X141763261Y-59128261D01*
X141776262Y-59110893D01*
X141833095Y-59068347D01*
X141903910Y-59063281D01*
X141966223Y-59097305D01*
X141984371Y-59120255D01*
X142026365Y-59188339D01*
X142026370Y-59188345D01*
X142151654Y-59313629D01*
X142151660Y-59313634D01*
X142302474Y-59406657D01*
X142470678Y-59462393D01*
X142470681Y-59462394D01*
X142574483Y-59472999D01*
X142574483Y-59473000D01*
X142633500Y-59473000D01*
X142633500Y-58391000D01*
X142653502Y-58322879D01*
X142707158Y-58276386D01*
X142759500Y-58265000D01*
X143015500Y-58265000D01*
X143083621Y-58285002D01*
G37*
%TD.AperFunction*%
%TA.AperFunction,Conductor*%
G36*
X146899155Y-62743502D02*
G01*
X146945648Y-62797158D01*
X146955752Y-62867432D01*
X146950641Y-62889120D01*
X146910422Y-63010500D01*
X146902113Y-63035575D01*
X146902112Y-63035579D01*
X146891500Y-63139446D01*
X146891500Y-63149405D01*
X146871498Y-63217526D01*
X146854595Y-63238500D01*
X146573595Y-63519500D01*
X146511283Y-63553526D01*
X146440468Y-63548461D01*
X146383632Y-63505914D01*
X146358821Y-63439394D01*
X146358500Y-63430405D01*
X146358500Y-63065367D01*
X146358499Y-63065350D01*
X146351990Y-63004803D01*
X146351988Y-63004795D01*
X146323678Y-62928894D01*
X146322385Y-62910823D01*
X146316054Y-62893848D01*
X146319904Y-62876147D01*
X146318612Y-62858078D01*
X146327294Y-62842176D01*
X146331146Y-62824474D01*
X146352635Y-62795768D01*
X146352639Y-62795764D01*
X146360237Y-62788167D01*
X146388001Y-62760403D01*
X146450314Y-62726379D01*
X146477095Y-62723500D01*
X146831034Y-62723500D01*
X146899155Y-62743502D01*
G37*
%TD.AperFunction*%
%TA.AperFunction,Conductor*%
G36*
X140041315Y-57185884D02*
G01*
X140087819Y-57239529D01*
X140097938Y-57309801D01*
X140068459Y-57374388D01*
X140048730Y-57392761D01*
X140036739Y-57401737D01*
X139949112Y-57518792D01*
X139949110Y-57518797D01*
X139898011Y-57655795D01*
X139898009Y-57655803D01*
X139891500Y-57716350D01*
X139891500Y-58217803D01*
X139881909Y-58266021D01*
X139826415Y-58399994D01*
X139826413Y-58399999D01*
X139791500Y-58575518D01*
X139791500Y-58760669D01*
X139790227Y-58760669D01*
X139778223Y-58823893D01*
X139729373Y-58875412D01*
X139660424Y-58892341D01*
X139601930Y-58874921D01*
X139592640Y-58869427D01*
X139493601Y-58810855D01*
X139413716Y-58787646D01*
X139333829Y-58764437D01*
X139296511Y-58761500D01*
X139296502Y-58761500D01*
X139209596Y-58761500D01*
X139141475Y-58741498D01*
X139120501Y-58724596D01*
X139049556Y-58653651D01*
X138703833Y-58307929D01*
X138600075Y-58238600D01*
X138484785Y-58190845D01*
X138411086Y-58176185D01*
X138362396Y-58166500D01*
X138362394Y-58166500D01*
X137114596Y-58166500D01*
X137046475Y-58146498D01*
X137025501Y-58129596D01*
X136703833Y-57807929D01*
X136600075Y-57738600D01*
X136484785Y-57690845D01*
X136411086Y-57676185D01*
X136362396Y-57666500D01*
X136362394Y-57666500D01*
X131637606Y-57666500D01*
X131637603Y-57666500D01*
X131564960Y-57680950D01*
X131515215Y-57690845D01*
X131515213Y-57690845D01*
X131515207Y-57690847D01*
X131417067Y-57731499D01*
X131417066Y-57731500D01*
X131399925Y-57738600D01*
X131296171Y-57807926D01*
X131296164Y-57807931D01*
X130774501Y-58329595D01*
X130747132Y-58344539D01*
X130720904Y-58361396D01*
X130714605Y-58362301D01*
X130712189Y-58363621D01*
X130685406Y-58366500D01*
X130666373Y-58366500D01*
X130598252Y-58346498D01*
X130577278Y-58329595D01*
X130468658Y-58220975D01*
X130468652Y-58220970D01*
X130466047Y-58219363D01*
X130317738Y-58127885D01*
X130233582Y-58099999D01*
X130149427Y-58072113D01*
X130149420Y-58072112D01*
X130045553Y-58061500D01*
X128994455Y-58061500D01*
X128890574Y-58072112D01*
X128722261Y-58127885D01*
X128571343Y-58220973D01*
X128566827Y-58224544D01*
X128500984Y-58251102D01*
X128431236Y-58237847D01*
X128422535Y-58232945D01*
X128403129Y-58220975D01*
X128292738Y-58152885D01*
X128208582Y-58124999D01*
X128124427Y-58097113D01*
X128124420Y-58097112D01*
X128020553Y-58086500D01*
X127019455Y-58086500D01*
X126915574Y-58097112D01*
X126747261Y-58152885D01*
X126596347Y-58245970D01*
X126542846Y-58299471D01*
X126534772Y-58303879D01*
X126529260Y-58311243D01*
X126504101Y-58320626D01*
X126480533Y-58333496D01*
X126471357Y-58332839D01*
X126462740Y-58336054D01*
X126436501Y-58330346D01*
X126409718Y-58328430D01*
X126402354Y-58322917D01*
X126393365Y-58320962D01*
X126374376Y-58301973D01*
X126352882Y-58285883D01*
X126349667Y-58277264D01*
X126343163Y-58270760D01*
X126337455Y-58244521D01*
X126328072Y-58219363D01*
X126329628Y-58208539D01*
X126328072Y-58201386D01*
X126335693Y-58166348D01*
X126379959Y-58047667D01*
X126387419Y-58031334D01*
X126480639Y-57860614D01*
X126490346Y-57845511D01*
X126606918Y-57689788D01*
X126618678Y-57676217D01*
X126756217Y-57538678D01*
X126769788Y-57526918D01*
X126925511Y-57410346D01*
X126940614Y-57400639D01*
X127111334Y-57307419D01*
X127127673Y-57299957D01*
X127309917Y-57231983D01*
X127327165Y-57226920D01*
X127517219Y-57185576D01*
X127535001Y-57183018D01*
X127716891Y-57170009D01*
X127733511Y-57168821D01*
X127742467Y-57168500D01*
X127771894Y-57168492D01*
X139973193Y-57165897D01*
X140041315Y-57185884D01*
G37*
%TD.AperFunction*%
%TD*%
M02*
