%TF.GenerationSoftware,KiCad,Pcbnew,9.0.6-9.0.6~ubuntu24.04.1*%
%TF.CreationDate,2025-11-13T19:41:32+09:00*%
%TF.ProjectId,SafePulse,53616665-5075-46c7-9365-2e6b69636164,V1.2.2*%
%TF.SameCoordinates,Original*%
%TF.FileFunction,Copper,L1,Top*%
%TF.FilePolarity,Positive*%
%FSLAX46Y46*%
G04 Gerber Fmt 4.6, Leading zero omitted, Abs format (unit mm)*
G04 Created by KiCad (PCBNEW 9.0.6-9.0.6~ubuntu24.04.1) date 2025-11-13 19:41:32*
%MOMM*%
%LPD*%
G01*
G04 APERTURE LIST*
G04 Aperture macros list*
%AMRoundRect*
0 Rectangle with rounded corners*
0 $1 Rounding radius*
0 $2 $3 $4 $5 $6 $7 $8 $9 X,Y pos of 4 corners*
0 Add a 4 corners polygon primitive as box body*
4,1,4,$2,$3,$4,$5,$6,$7,$8,$9,$2,$3,0*
0 Add four circle primitives for the rounded corners*
1,1,$1+$1,$2,$3*
1,1,$1+$1,$4,$5*
1,1,$1+$1,$6,$7*
1,1,$1+$1,$8,$9*
0 Add four rect primitives between the rounded corners*
20,1,$1+$1,$2,$3,$4,$5,0*
20,1,$1+$1,$4,$5,$6,$7,0*
20,1,$1+$1,$6,$7,$8,$9,0*
20,1,$1+$1,$8,$9,$2,$3,0*%
G04 Aperture macros list end*
%TA.AperFunction,SMDPad,CuDef*%
%ADD10RoundRect,0.250000X-0.250000X-0.475000X0.250000X-0.475000X0.250000X0.475000X-0.250000X0.475000X0*%
%TD*%
%TA.AperFunction,SMDPad,CuDef*%
%ADD11RoundRect,0.250000X0.450000X-0.262500X0.450000X0.262500X-0.450000X0.262500X-0.450000X-0.262500X0*%
%TD*%
%TA.AperFunction,ComponentPad*%
%ADD12C,1.700000*%
%TD*%
%TA.AperFunction,ComponentPad*%
%ADD13O,1.700000X1.700000*%
%TD*%
%TA.AperFunction,ComponentPad*%
%ADD14C,2.500000*%
%TD*%
%TA.AperFunction,ComponentPad*%
%ADD15C,2.800000*%
%TD*%
%TA.AperFunction,SMDPad,CuDef*%
%ADD16RoundRect,0.150000X0.150000X-0.587500X0.150000X0.587500X-0.150000X0.587500X-0.150000X-0.587500X0*%
%TD*%
%TA.AperFunction,SMDPad,CuDef*%
%ADD17RoundRect,0.250000X-0.450000X0.262500X-0.450000X-0.262500X0.450000X-0.262500X0.450000X0.262500X0*%
%TD*%
%TA.AperFunction,SMDPad,CuDef*%
%ADD18RoundRect,0.250000X0.262500X0.450000X-0.262500X0.450000X-0.262500X-0.450000X0.262500X-0.450000X0*%
%TD*%
%TA.AperFunction,SMDPad,CuDef*%
%ADD19RoundRect,0.250000X-0.475000X0.250000X-0.475000X-0.250000X0.475000X-0.250000X0.475000X0.250000X0*%
%TD*%
%TA.AperFunction,ComponentPad*%
%ADD20R,1.700000X1.700000*%
%TD*%
%TA.AperFunction,SMDPad,CuDef*%
%ADD21RoundRect,0.250000X-0.625000X0.312500X-0.625000X-0.312500X0.625000X-0.312500X0.625000X0.312500X0*%
%TD*%
%TA.AperFunction,SMDPad,CuDef*%
%ADD22R,3.700000X1.200000*%
%TD*%
%TA.AperFunction,SMDPad,CuDef*%
%ADD23RoundRect,0.250000X-0.262500X-0.450000X0.262500X-0.450000X0.262500X0.450000X-0.262500X0.450000X0*%
%TD*%
%TA.AperFunction,SMDPad,CuDef*%
%ADD24RoundRect,0.150000X0.150000X-0.825000X0.150000X0.825000X-0.150000X0.825000X-0.150000X-0.825000X0*%
%TD*%
%TA.AperFunction,SMDPad,CuDef*%
%ADD25R,2.000000X1.500000*%
%TD*%
%TA.AperFunction,SMDPad,CuDef*%
%ADD26R,2.000000X3.800000*%
%TD*%
%TA.AperFunction,SMDPad,CuDef*%
%ADD27R,0.450000X0.600000*%
%TD*%
%TA.AperFunction,SMDPad,CuDef*%
%ADD28R,1.000000X1.000000*%
%TD*%
%TA.AperFunction,SMDPad,CuDef*%
%ADD29RoundRect,0.250000X0.250000X0.475000X-0.250000X0.475000X-0.250000X-0.475000X0.250000X-0.475000X0*%
%TD*%
%TA.AperFunction,ViaPad*%
%ADD30C,0.800000*%
%TD*%
%TA.AperFunction,Conductor*%
%ADD31C,0.250000*%
%TD*%
%TA.AperFunction,Conductor*%
%ADD32C,0.330200*%
%TD*%
%TA.AperFunction,Conductor*%
%ADD33C,0.500000*%
%TD*%
G04 APERTURE END LIST*
D10*
%TO.P,C11,1*%
%TO.N,Net-(C11-Pad1)*%
X145968666Y-65050000D03*
%TO.P,C11,2*%
%TO.N,Net-(C11-Pad2)*%
X147868666Y-65050000D03*
%TD*%
D11*
%TO.P,F1,1*%
%TO.N,Net-(F1-Pad1)*%
X128500000Y-72413500D03*
%TO.P,F1,2*%
%TO.N,+3V3*%
X128500000Y-70588500D03*
%TD*%
D12*
%TO.P,two_pinheader1,1,Pin_1*%
%TO.N,unconnected-(two_pinheader1-Pad1)*%
X164060000Y-60325000D03*
D13*
%TO.P,two_pinheader1,2,Pin_2*%
%TO.N,unconnected-(two_pinheader1-Pad2)*%
X164060000Y-62865000D03*
%TD*%
D10*
%TO.P,C9,1*%
%TO.N,Net-(C7-Pad2)*%
X142448333Y-65050000D03*
%TO.P,C9,2*%
%TO.N,Net-(C11-Pad1)*%
X144348333Y-65050000D03*
%TD*%
D14*
%TO.P,H2,1,1*%
%TO.N,Net-(H2-Pad1)*%
X164060000Y-71755000D03*
%TD*%
D15*
%TO.P,H4,1,1*%
%TO.N,Net-(H2-Pad1)*%
X164060000Y-75565000D03*
%TD*%
D16*
%TO.P,D8,1,K*%
%TO.N,Net-(C15-Pad2)*%
X156450000Y-62937500D03*
%TO.P,D8,2,A*%
%TO.N,Net-(C17-Pad2)*%
X158350000Y-62937500D03*
%TO.P,D8,3,K*%
%TO.N,Net-(C16-Pad2)*%
X157400000Y-61062500D03*
%TD*%
%TO.P,D4,1,K*%
%TO.N,Net-(C7-Pad2)*%
X142450000Y-62937500D03*
%TO.P,D4,2,A*%
%TO.N,Net-(C11-Pad1)*%
X144350000Y-62937500D03*
%TO.P,D4,3,K*%
%TO.N,Net-(C10-Pad1)*%
X143400000Y-61062500D03*
%TD*%
D10*
%TO.P,C12,1*%
%TO.N,Net-(C10-Pad2)*%
X148530000Y-59000000D03*
%TO.P,C12,2*%
%TO.N,Net-(C12-Pad2)*%
X150430000Y-59000000D03*
%TD*%
%TO.P,C13,1*%
%TO.N,Net-(C11-Pad2)*%
X149488999Y-65050000D03*
%TO.P,C13,2*%
%TO.N,Net-(C13-Pad2)*%
X151388999Y-65050000D03*
%TD*%
D17*
%TO.P,R17,1*%
%TO.N,Net-(C19-Pad1)*%
X157520000Y-70520000D03*
%TO.P,R17,2*%
%TO.N,Net-(Q3-Pad2)*%
X157520000Y-72345000D03*
%TD*%
D10*
%TO.P,C10,1*%
%TO.N,Net-(C10-Pad1)*%
X145020000Y-59010000D03*
%TO.P,C10,2*%
%TO.N,Net-(C10-Pad2)*%
X146920000Y-59010000D03*
%TD*%
D16*
%TO.P,D3,1,K*%
%TO.N,Net-(C7-Pad1)*%
X138928000Y-62913500D03*
%TO.P,D3,2,A*%
%TO.N,Net-(C7-Pad2)*%
X140828000Y-62913500D03*
%TO.P,D3,3,K*%
%TO.N,Net-(C6-Pad2)*%
X139878000Y-61038500D03*
%TD*%
D18*
%TO.P,R8,1*%
%TO.N,Net-(R7-Pad2)*%
X147824498Y-67520000D03*
%TO.P,R8,2*%
%TO.N,Net-(R8-Pad2)*%
X145999498Y-67520000D03*
%TD*%
D11*
%TO.P,FB2,1*%
%TO.N,+3V3*%
X128020000Y-60912500D03*
%TO.P,FB2,2*%
%TO.N,Net-(C5-Pad1)*%
X128020000Y-59087500D03*
%TD*%
D18*
%TO.P,R7,1*%
%TO.N,Net-(R7-Pad1)*%
X151351499Y-67520000D03*
%TO.P,R7,2*%
%TO.N,Net-(R7-Pad2)*%
X149526499Y-67520000D03*
%TD*%
D17*
%TO.P,R6,1*%
%TO.N,Net-(U4-Pad12)*%
X145020000Y-71857500D03*
%TO.P,R6,2*%
%TO.N,Net-(C3-Pad1)*%
X145020000Y-73682500D03*
%TD*%
D10*
%TO.P,C15,1*%
%TO.N,Net-(C13-Pad2)*%
X153009332Y-65050000D03*
%TO.P,C15,2*%
%TO.N,Net-(C15-Pad2)*%
X154909332Y-65050000D03*
%TD*%
D16*
%TO.P,D6,1,K*%
%TO.N,Net-(C11-Pad2)*%
X149450000Y-62937500D03*
%TO.P,D6,2,A*%
%TO.N,Net-(C13-Pad2)*%
X151350000Y-62937500D03*
%TO.P,D6,3,K*%
%TO.N,Net-(C12-Pad2)*%
X150400000Y-61062500D03*
%TD*%
D15*
%TO.P,H1,1,1*%
%TO.N,Net-(H1-Pad1)*%
X138660000Y-75565000D03*
%TD*%
D16*
%TO.P,D7,1,K*%
%TO.N,Net-(C13-Pad2)*%
X152950000Y-62937500D03*
%TO.P,D7,2,A*%
%TO.N,Net-(C15-Pad2)*%
X154850000Y-62937500D03*
%TO.P,D7,3,K*%
%TO.N,Net-(C14-Pad2)*%
X153900000Y-61062500D03*
%TD*%
D10*
%TO.P,C6,1*%
%TO.N,GND*%
X138030000Y-58990000D03*
%TO.P,C6,2*%
%TO.N,Net-(C6-Pad2)*%
X139930000Y-58990000D03*
%TD*%
D19*
%TO.P,C5,1*%
%TO.N,Net-(C5-Pad1)*%
X130100000Y-59050000D03*
%TO.P,C5,2*%
%TO.N,GND*%
X130100000Y-60950000D03*
%TD*%
D20*
%TO.P,J1,1,Pin_1*%
%TO.N,Net-(F1-Pad1)*%
X128500000Y-75565000D03*
D13*
%TO.P,J1,2,Pin_2*%
%TO.N,Net-(D2-Pad2)*%
X131040000Y-75565000D03*
%TO.P,J1,3,Pin_3*%
%TO.N,GND*%
X133580000Y-75565000D03*
%TD*%
D21*
%TO.P,R1,1*%
%TO.N,Net-(C18-Pad2)*%
X163298000Y-65720500D03*
%TO.P,R1,2*%
%TO.N,Net-(H2-Pad1)*%
X163298000Y-68645500D03*
%TD*%
D10*
%TO.P,C17,1*%
%TO.N,Net-(C15-Pad2)*%
X156529665Y-65050000D03*
%TO.P,C17,2*%
%TO.N,Net-(C17-Pad2)*%
X158429665Y-65050000D03*
%TD*%
D18*
%TO.P,R18,1*%
%TO.N,Net-(C19-Pad1)*%
X142682500Y-72520000D03*
%TO.P,R18,2*%
%TO.N,+3V3*%
X140857500Y-72520000D03*
%TD*%
D10*
%TO.P,C7,1*%
%TO.N,Net-(C7-Pad1)*%
X138928000Y-65050000D03*
%TO.P,C7,2*%
%TO.N,Net-(C7-Pad2)*%
X140828000Y-65050000D03*
%TD*%
%TO.P,C14,1*%
%TO.N,Net-(C12-Pad2)*%
X152060000Y-59010000D03*
%TO.P,C14,2*%
%TO.N,Net-(C14-Pad2)*%
X153960000Y-59010000D03*
%TD*%
D22*
%TO.P,L1,1,1*%
%TO.N,Net-(C5-Pad1)*%
X134500000Y-58700000D03*
%TO.P,L1,2,2*%
%TO.N,Net-(C7-Pad1)*%
X134500000Y-61500000D03*
%TD*%
D11*
%TO.P,R11,1*%
%TO.N,Net-(D2-Pad1)*%
X141520000Y-76682500D03*
%TO.P,R11,2*%
%TO.N,Net-(Q2-Pad3)*%
X141520000Y-74857500D03*
%TD*%
D23*
%TO.P,R10,1*%
%TO.N,Net-(C6-Pad2)*%
X138945500Y-67520000D03*
%TO.P,R10,2*%
%TO.N,Net-(R10-Pad2)*%
X140770500Y-67520000D03*
%TD*%
D10*
%TO.P,C18,1*%
%TO.N,Net-(C16-Pad2)*%
X159020000Y-59000000D03*
%TO.P,C18,2*%
%TO.N,Net-(C18-Pad2)*%
X160920000Y-59000000D03*
%TD*%
D18*
%TO.P,R9,1*%
%TO.N,Net-(R8-Pad2)*%
X144297499Y-67520000D03*
%TO.P,R9,2*%
%TO.N,Net-(R10-Pad2)*%
X142472499Y-67520000D03*
%TD*%
%TO.P,R13,1*%
%TO.N,Net-(C19-Pad1)*%
X142682500Y-70520000D03*
%TO.P,R13,2*%
%TO.N,Net-(Q2-Pad3)*%
X140857500Y-70520000D03*
%TD*%
D10*
%TO.P,C16,1*%
%TO.N,Net-(C14-Pad2)*%
X155540000Y-59000000D03*
%TO.P,C16,2*%
%TO.N,Net-(C16-Pad2)*%
X157440000Y-59000000D03*
%TD*%
D24*
%TO.P,U4,1,VSS*%
%TO.N,GND*%
X146825000Y-75995000D03*
%TO.P,U4,2,RxCx*%
%TO.N,Net-(C3-Pad1)*%
X148095000Y-75995000D03*
%TO.P,U4,3,R*%
%TO.N,Net-(U4-Pad12)*%
X149365000Y-75995000D03*
%TO.P,U4,4,Clk+*%
%TO.N,GND*%
X150635000Y-75995000D03*
%TO.P,U4,5,Clk-*%
%TO.N,Net-(D2-Pad1)*%
X151905000Y-75995000D03*
%TO.P,U4,6,Q*%
%TO.N,Net-(D2-Pad2)*%
X153175000Y-75995000D03*
%TO.P,U4,7,~Q*%
%TO.N,unconnected-(U4-Pad7)*%
X154445000Y-75995000D03*
%TO.P,U4,8,VSS*%
%TO.N,GND*%
X155715000Y-75995000D03*
%TO.P,U4,9,~Q*%
%TO.N,unconnected-(U4-Pad9)*%
X155715000Y-71045000D03*
%TO.P,U4,10,Q*%
%TO.N,unconnected-(U4-Pad10)*%
X154445000Y-71045000D03*
%TO.P,U4,11,Clk-*%
%TO.N,GND*%
X153175000Y-71045000D03*
%TO.P,U4,12,Clk+*%
%TO.N,Net-(U4-Pad12)*%
X151905000Y-71045000D03*
%TO.P,U4,13,R*%
%TO.N,GND*%
X150635000Y-71045000D03*
%TO.P,U4,14,RxCx*%
%TO.N,unconnected-(U4-Pad14)*%
X149365000Y-71045000D03*
%TO.P,U4,15,VSS*%
%TO.N,GND*%
X148095000Y-71045000D03*
%TO.P,U4,16,VDD*%
%TO.N,Net-(U4-Pad12)*%
X146825000Y-71045000D03*
%TD*%
D25*
%TO.P,Q1,1,G*%
%TO.N,Net-(Q1-Pad1)*%
X128676000Y-63740000D03*
%TO.P,Q1,3,S*%
%TO.N,Net-(Q1-Pad3)*%
X128676000Y-68340000D03*
D26*
%TO.P,Q1,4,D*%
%TO.N,Net-(C7-Pad1)*%
X134976000Y-66040000D03*
D25*
%TO.P,Q1,NC*%
%TO.N,N/C*%
X128676000Y-66040000D03*
%TD*%
D16*
%TO.P,D9,1,K*%
%TO.N,Net-(C17-Pad2)*%
X159950000Y-62937500D03*
%TO.P,D9,2,A*%
%TO.N,Net-(C18-Pad2)*%
X161850000Y-62937500D03*
%TO.P,D9,3,K*%
X160900000Y-61062500D03*
%TD*%
D27*
%TO.P,D2,1,K*%
%TO.N,Net-(D2-Pad1)*%
X157520000Y-76320000D03*
%TO.P,D2,2,A*%
%TO.N,Net-(D2-Pad2)*%
X157520000Y-74220000D03*
%TD*%
D28*
%TO.P,TP7,1,1*%
%TO.N,Net-(C18-Pad2)*%
X165584000Y-65913000D03*
%TD*%
D29*
%TO.P,C19,1*%
%TO.N,Net-(C19-Pad1)*%
X139020000Y-70520000D03*
%TO.P,C19,2*%
%TO.N,GND*%
X137120000Y-70520000D03*
%TD*%
D10*
%TO.P,C8,1*%
%TO.N,Net-(C6-Pad2)*%
X141530000Y-58990000D03*
%TO.P,C8,2*%
%TO.N,Net-(C10-Pad1)*%
X143430000Y-58990000D03*
%TD*%
D16*
%TO.P,D5,1,K*%
%TO.N,Net-(C11-Pad1)*%
X145968666Y-62937500D03*
%TO.P,D5,2,A*%
%TO.N,Net-(C11-Pad2)*%
X147868666Y-62937500D03*
%TO.P,D5,3,K*%
%TO.N,Net-(C10-Pad2)*%
X146918666Y-61062500D03*
%TD*%
D10*
%TO.P,C3,1*%
%TO.N,Net-(C3-Pad1)*%
X143320000Y-76270000D03*
%TO.P,C3,2*%
%TO.N,GND*%
X145220000Y-76270000D03*
%TD*%
D30*
%TO.N,*%
X149170000Y-76743500D03*
X145770000Y-72020000D03*
%TO.N,GND*%
X145200000Y-61113817D03*
X154500000Y-68000000D03*
X146153000Y-75819000D03*
X150400000Y-70231000D03*
X150600000Y-77072500D03*
X132770000Y-72770000D03*
X141700000Y-61065000D03*
X148861441Y-61049870D03*
X138020000Y-62770000D03*
X156270000Y-75520000D03*
X150902800Y-71704200D03*
X135770000Y-70520000D03*
X130270000Y-62270000D03*
X139020000Y-57770000D03*
%TO.N,Net-(C7-Pad1)*%
X133520000Y-67020000D03*
%TO.N,+3V3*%
X139634500Y-72517000D03*
X135764700Y-71941100D03*
X126920900Y-69342400D03*
%TO.N,Net-(Q2-Pad3)*%
X148020000Y-72770000D03*
%TO.N,Net-(Q1-Pad1)*%
X130664198Y-66968888D03*
%TO.N,Net-(Q3-Pad2)*%
X152919800Y-74131600D03*
%TO.N,Net-(Q1-Pad3)*%
X127770000Y-67520000D03*
%TO.N,Net-(C6-Pad2)*%
X140700000Y-58665000D03*
%TO.N,Net-(R7-Pad1)*%
X152000000Y-67065000D03*
%TD*%
D31*
%TO.N,Net-(C3-Pad1)*%
X143320000Y-76270000D02*
X145020000Y-74570000D01*
X148095000Y-75095000D02*
X146682500Y-73682500D01*
X148095000Y-76695000D02*
X148095000Y-75995000D01*
X145020000Y-74570000D02*
X145020000Y-73682500D01*
X148095000Y-75995000D02*
X148095000Y-75095000D01*
X146682500Y-73682500D02*
X145020000Y-73682500D01*
D32*
%TO.N,GND*%
X153175000Y-71045000D02*
X153175000Y-72365000D01*
X150635000Y-74905000D02*
X150635000Y-75995000D01*
D33*
X130500000Y-62040000D02*
X130270000Y-62270000D01*
D32*
X148095000Y-71045000D02*
X148095000Y-71595000D01*
D33*
X130500000Y-60950000D02*
X130500000Y-62040000D01*
D32*
X155795000Y-75995000D02*
X155715000Y-75995000D01*
X146825000Y-76467000D02*
X146825000Y-75995000D01*
X148095000Y-71595000D02*
X149520000Y-73020000D01*
X146495000Y-75995000D02*
X146825000Y-75995000D01*
X156270000Y-75520000D02*
X155795000Y-75995000D01*
X149520000Y-73020000D02*
X149587000Y-73020000D01*
X135770000Y-70520000D02*
X137120000Y-70520000D01*
X138020000Y-59030000D02*
X138050000Y-59000000D01*
X151000000Y-69770000D02*
X152830000Y-69770000D01*
X145770000Y-76270000D02*
X146270000Y-75770000D01*
X146270000Y-75770000D02*
X146495000Y-75995000D01*
X150520000Y-75880000D02*
X150635000Y-75995000D01*
X138050000Y-59000000D02*
X138050000Y-58650000D01*
X152830000Y-69770000D02*
X153175000Y-70115000D01*
X138050000Y-58740000D02*
X139020000Y-57770000D01*
X138020000Y-62770000D02*
X138020000Y-59030000D01*
X138050000Y-59000000D02*
X138050000Y-58740000D01*
X149587000Y-73020000D02*
X150902800Y-71704200D01*
X150635000Y-70135000D02*
X151000000Y-69770000D01*
X145220000Y-76270000D02*
X145770000Y-76270000D01*
X153175000Y-70115000D02*
X153175000Y-71045000D01*
X153175000Y-72365000D02*
X150635000Y-74905000D01*
X150635000Y-71045000D02*
X150635000Y-70135000D01*
D33*
%TO.N,Net-(C5-Pad1)*%
X133800000Y-59000000D02*
X133900000Y-58900000D01*
X130500000Y-59250000D02*
X130750000Y-59000000D01*
D31*
X130462000Y-59087500D02*
X130500000Y-59050000D01*
D33*
X130500000Y-59050000D02*
X130500000Y-59250000D01*
X130750000Y-59000000D02*
X133800000Y-59000000D01*
X128000000Y-59087500D02*
X130462000Y-59087500D01*
D31*
X134050000Y-59050000D02*
X134500000Y-58600000D01*
D33*
%TO.N,Net-(C7-Pad1)*%
X134976000Y-64064000D02*
X134976000Y-61876000D01*
D31*
X134568000Y-61468000D02*
X134500000Y-61400000D01*
X139050000Y-64030000D02*
X139050000Y-65000000D01*
X139088000Y-63656000D02*
X139088000Y-63992000D01*
D33*
X134976000Y-66040000D02*
X134976000Y-64064000D01*
D31*
X134500000Y-61400000D02*
X134609000Y-61400000D01*
X138873000Y-63726000D02*
X138943000Y-63656000D01*
D33*
X136314000Y-63726000D02*
X134976000Y-65064000D01*
D31*
X133400000Y-61400000D02*
X134500000Y-61400000D01*
X134976000Y-64064000D02*
X134976000Y-66040000D01*
D33*
X138873000Y-63726000D02*
X136314000Y-63726000D01*
D31*
X139088000Y-63992000D02*
X139050000Y-64030000D01*
D33*
X133520000Y-67020000D02*
X133996000Y-67020000D01*
D31*
X139004000Y-63595400D02*
X139004000Y-62913500D01*
X138943000Y-63656000D02*
X139088000Y-63656000D01*
X139088000Y-63992000D02*
X139088000Y-64328000D01*
X138943000Y-63656000D02*
X139004000Y-63595400D01*
X134568000Y-61468000D02*
X134500000Y-61400000D01*
X134976000Y-61876000D02*
X134568000Y-61468000D01*
D33*
X134976000Y-65064000D02*
X134976000Y-66040000D01*
D31*
%TO.N,Net-(C7-Pad2)*%
X141629500Y-65027500D02*
X141607000Y-65050000D01*
X142448333Y-65050000D02*
X141607000Y-65050000D01*
X141629500Y-62913500D02*
X142424333Y-62913500D01*
X141607000Y-65050000D02*
X140828000Y-65050000D01*
X142628000Y-62859000D02*
X142550000Y-62937500D01*
X141629500Y-62913500D02*
X141629500Y-65027500D01*
X140828000Y-62913500D02*
X141629500Y-62913500D01*
X142526000Y-62913500D02*
X142550000Y-62937500D01*
X142424333Y-62913500D02*
X142448333Y-62937500D01*
D33*
%TO.N,+3V3*%
X126900000Y-61556000D02*
X127523500Y-60932500D01*
D31*
X134412100Y-70588500D02*
X128500000Y-70588500D01*
D33*
X127523500Y-60932500D02*
X128020000Y-60932500D01*
D31*
X128000000Y-60912500D02*
X127391000Y-60912500D01*
X139634500Y-72517000D02*
X139637500Y-72520000D01*
X139637500Y-72520000D02*
X140945500Y-72520000D01*
D33*
X126756000Y-69342400D02*
X126900000Y-69198400D01*
D31*
X128499000Y-70587500D02*
X128500000Y-70588500D01*
D33*
X128412000Y-70500000D02*
X128100000Y-70500000D01*
D31*
X128151000Y-70587500D02*
X128499000Y-70587500D01*
X128500000Y-70587500D02*
X128412000Y-70500000D01*
X126920900Y-69342400D02*
X126756000Y-69342400D01*
X135764700Y-71941100D02*
X134412100Y-70588500D01*
D33*
X128100000Y-70500000D02*
X126942400Y-69342400D01*
X126942400Y-69342400D02*
X126920900Y-69342400D01*
D31*
X128499000Y-70587500D02*
X128500000Y-70587500D01*
X127391000Y-60912500D02*
X128000000Y-60912500D01*
D33*
X126900000Y-69198400D02*
X126900000Y-61556000D01*
D31*
%TO.N,Net-(Q2-Pad3)*%
X141770000Y-71520000D02*
X141770000Y-74607500D01*
X143770000Y-70730000D02*
X144800000Y-69700000D01*
X142182500Y-74857500D02*
X143770000Y-73270000D01*
X141770000Y-74607500D02*
X141520000Y-74857500D01*
X147450000Y-72200000D02*
X148020000Y-72770000D01*
X143770000Y-73270000D02*
X143770000Y-70730000D01*
X147200000Y-69700000D02*
X147450000Y-69950000D01*
X140857500Y-70520000D02*
X140857500Y-70607500D01*
X144800000Y-69700000D02*
X147200000Y-69700000D01*
X147450000Y-69950000D02*
X147450000Y-72200000D01*
X140857500Y-70607500D02*
X141770000Y-71520000D01*
%TO.N,Net-(Q1-Pad1)*%
X128777000Y-63740000D02*
X128676000Y-63740000D01*
X129490000Y-63740000D02*
X128777000Y-63740000D01*
D33*
X130664198Y-64914198D02*
X130664198Y-66968888D01*
D31*
X128777000Y-63740000D02*
X128676000Y-63740000D01*
D33*
X129490000Y-63740000D02*
X130664198Y-64914198D01*
D31*
%TO.N,Net-(D2-Pad1)*%
X151905000Y-77155000D02*
X151905000Y-75995000D01*
X151974000Y-77724000D02*
X142561500Y-77724000D01*
X156116000Y-77724000D02*
X155974000Y-77724000D01*
X142561500Y-77724000D02*
X141520000Y-76682500D01*
X151905000Y-77655000D02*
X151974000Y-77724000D01*
X155974000Y-77724000D02*
X151974000Y-77724000D01*
X151905000Y-75995000D02*
X151905000Y-77655000D01*
X157520000Y-76320000D02*
X156116000Y-77724000D01*
D33*
%TO.N,Net-(H2-Pad1)*%
X164060000Y-69407500D02*
X164060000Y-71755000D01*
X163298000Y-68645500D02*
X164060000Y-69407500D01*
X164060000Y-71755000D02*
X164060000Y-75565000D01*
D31*
%TO.N,Net-(R8-Pad2)*%
X144520000Y-67520000D02*
X144520500Y-67520000D01*
X144520500Y-67520000D02*
X146357500Y-67520000D01*
X146357500Y-67520000D02*
X146358000Y-67520000D01*
%TO.N,Net-(C19-Pad1)*%
X142770000Y-70432500D02*
X142682500Y-70520000D01*
X142682000Y-70520000D02*
X142682300Y-70520200D01*
X139020000Y-70520000D02*
X139020000Y-69770000D01*
X157520000Y-70520000D02*
X157520000Y-70370000D01*
X142770000Y-69770000D02*
X142770000Y-70432500D01*
X142450000Y-69450000D02*
X142770000Y-69770000D01*
X142770000Y-70607500D02*
X142770000Y-71476000D01*
X157520000Y-70370000D02*
X156400000Y-69250000D01*
X143952000Y-69250000D02*
X142682000Y-70520000D01*
X139020000Y-69770000D02*
X139340000Y-69450000D01*
X142770000Y-71563700D02*
X142770000Y-72520000D01*
X139340000Y-69450000D02*
X142450000Y-69450000D01*
X142682300Y-70520200D02*
X142770000Y-70607500D01*
X142682500Y-70520000D02*
X142682300Y-70520200D01*
X156400000Y-69250000D02*
X143952000Y-69250000D01*
%TO.N,Net-(D2-Pad2)*%
X158020000Y-68770000D02*
X138780300Y-68770000D01*
X157997300Y-74220000D02*
X158770000Y-73447300D01*
X153820000Y-74220000D02*
X153175000Y-74865000D01*
X138020000Y-69530300D02*
X138020000Y-71308350D01*
X131225000Y-75565000D02*
X131040000Y-75565000D01*
X135674550Y-73653800D02*
X133136200Y-73653800D01*
X133136200Y-73653800D02*
X131225000Y-75565000D01*
X138020000Y-71308350D02*
X135674550Y-73653800D01*
X138780300Y-68770000D02*
X138020000Y-69530300D01*
X157520000Y-74220000D02*
X157997300Y-74220000D01*
X157520000Y-74220000D02*
X153820000Y-74220000D01*
X158770000Y-73447300D02*
X158770000Y-69520000D01*
X153175000Y-74865000D02*
X153175000Y-75995000D01*
X158770000Y-69520000D02*
X158020000Y-68770000D01*
D33*
%TO.N,Net-(F1-Pad1)*%
X128500000Y-72412500D02*
X128500000Y-72413500D01*
X128500000Y-72413500D02*
X128500000Y-75250000D01*
D31*
X128500000Y-75250000D02*
X128500000Y-75565000D01*
%TO.N,Net-(R10-Pad2)*%
X142695000Y-67520000D02*
X142695500Y-67520000D01*
X140770000Y-67520000D02*
X140770500Y-67520000D01*
X140770500Y-67520000D02*
X142695000Y-67520000D01*
%TO.N,Net-(U4-Pad12)*%
X147645000Y-73395000D02*
X149365000Y-75115000D01*
X145020000Y-71857500D02*
X146012500Y-71857500D01*
X152020000Y-72520000D02*
X152020000Y-71160000D01*
X149270000Y-75900000D02*
X149365000Y-75995000D01*
X147645000Y-73395000D02*
X148770000Y-74520000D01*
X145020000Y-71857500D02*
X145607500Y-71857500D01*
X150020000Y-74520000D02*
X152020000Y-72520000D01*
X146012500Y-71857500D02*
X146825000Y-71045000D01*
X146825000Y-71045000D02*
X146825000Y-72575000D01*
X152020000Y-71160000D02*
X151905000Y-71045000D01*
X145607500Y-71857500D02*
X145770000Y-72020000D01*
X146825000Y-72575000D02*
X147645000Y-73395000D01*
X149365000Y-75115000D02*
X149365000Y-75995000D01*
X149170000Y-76190000D02*
X149365000Y-75995000D01*
X149365000Y-76175000D02*
X149365000Y-75995000D01*
X149170000Y-76743500D02*
X149170000Y-76190000D01*
X148770000Y-74520000D02*
X150020000Y-74520000D01*
%TO.N,Net-(Q3-Pad2)*%
X154706400Y-72345000D02*
X157520000Y-72345000D01*
X152919800Y-74131600D02*
X154706400Y-72345000D01*
%TO.N,Net-(R7-Pad2)*%
X148182000Y-67520000D02*
X148182500Y-67520000D01*
X147824498Y-67520000D02*
X149526499Y-67520000D01*
%TO.N,Net-(Q1-Pad3)*%
X129046000Y-68340000D02*
X129090000Y-68340000D01*
X129046000Y-68340000D02*
X129090000Y-68340000D01*
D33*
X128856000Y-68520000D02*
X128676000Y-68340000D01*
D31*
X129090000Y-68340000D02*
X129427000Y-68340000D01*
X128676000Y-68340000D02*
X129046000Y-68340000D01*
X128676000Y-68340000D02*
X129046000Y-68340000D01*
X128676000Y-68340000D02*
X129046000Y-68340000D01*
%TO.N,Net-(C6-Pad2)*%
X141569000Y-59000000D02*
X141588000Y-59000000D01*
X141540000Y-59000000D02*
X141550000Y-59000000D01*
X141550000Y-59000000D02*
X141569000Y-59000000D01*
X138945500Y-67520000D02*
X138945500Y-67119500D01*
X139878000Y-61038500D02*
X139878000Y-59042000D01*
X140020000Y-61104500D02*
X139954000Y-61038500D01*
X138945000Y-67307500D02*
X138945000Y-67095000D01*
X138945000Y-67307500D02*
X138945500Y-67308000D01*
X138945000Y-67520000D02*
X138945000Y-67307500D01*
X139912000Y-59000000D02*
X139950000Y-59000000D01*
X138945500Y-67308000D02*
X138945500Y-67520000D01*
X139878000Y-59042000D02*
X139930000Y-58990000D01*
X139950000Y-59000000D02*
X141550000Y-59000000D01*
X139954000Y-60579600D02*
X139912000Y-60537600D01*
X141588000Y-59000000D02*
X141863000Y-59000000D01*
X139878000Y-66187000D02*
X139878000Y-61038500D01*
X141750000Y-59200000D02*
X141550000Y-59000000D01*
X138945500Y-67119500D02*
X139878000Y-66187000D01*
X139954000Y-61038500D02*
X139954000Y-60579600D01*
%TO.N,Net-(C10-Pad1)*%
X143450000Y-59000000D02*
X145050000Y-59000000D01*
X143412000Y-60975000D02*
X143412000Y-59000000D01*
X145050000Y-59000000D02*
X145088000Y-59000000D01*
X143500000Y-61062500D02*
X143412000Y-60975000D01*
X143412000Y-59000000D02*
X143450000Y-59000000D01*
%TO.N,Net-(C11-Pad1)*%
X145191500Y-62937500D02*
X144348333Y-62937500D01*
X144348333Y-65050000D02*
X145163000Y-65050000D01*
X146050000Y-65000000D02*
X146088000Y-65000000D01*
X145968666Y-62937500D02*
X145191500Y-62937500D01*
X144500000Y-65000000D02*
X144538000Y-65000000D01*
X145191500Y-62937500D02*
X145191500Y-65021500D01*
X145191500Y-65021500D02*
X145163000Y-65050000D01*
X145163000Y-65050000D02*
X145968666Y-65050000D01*
%TO.N,Net-(C10-Pad2)*%
X147000000Y-61062500D02*
X147000000Y-59087500D01*
X147088000Y-59000000D02*
X147000000Y-59087500D01*
X147000000Y-59087500D02*
X146931100Y-59019100D01*
X146931100Y-59019100D02*
X146912000Y-59000200D01*
X148588000Y-59000000D02*
X148550000Y-59000000D01*
X146950000Y-59000000D02*
X146931100Y-59018900D01*
X148550000Y-59000000D02*
X147088000Y-59000000D01*
X146931100Y-59018900D02*
X146931100Y-59019100D01*
%TO.N,Net-(C11-Pad2)*%
X148638500Y-62937500D02*
X148638500Y-64969500D01*
X147868666Y-65050000D02*
X148719000Y-65050000D01*
X148719000Y-65050000D02*
X149488999Y-65050000D01*
X147868666Y-62937500D02*
X148638500Y-62937500D01*
X148638500Y-64969500D02*
X148719000Y-65050000D01*
X148638500Y-62937500D02*
X149488999Y-62937500D01*
%TO.N,Net-(C12-Pad2)*%
X150450000Y-59000000D02*
X150500000Y-59050000D01*
X152000000Y-59087500D02*
X152068900Y-59019100D01*
X152068900Y-59019100D02*
X152088000Y-59000200D01*
X152050000Y-59000000D02*
X152068900Y-59018900D01*
X150500000Y-61062500D02*
X150500000Y-59087500D01*
X150500000Y-59087500D02*
X152000000Y-59087500D01*
X152068900Y-59018900D02*
X152068900Y-59019100D01*
X150500000Y-59050000D02*
X150500000Y-59087500D01*
%TO.N,Net-(C13-Pad2)*%
X152176500Y-62937500D02*
X152176500Y-65021500D01*
X151388999Y-65050000D02*
X152148000Y-65050000D01*
X151388999Y-62937500D02*
X152176500Y-62937500D01*
X152176500Y-62937500D02*
X153009332Y-62937500D01*
X152148000Y-65050000D02*
X153009332Y-65050000D01*
X152176500Y-65021500D02*
X152148000Y-65050000D01*
%TO.N,Net-(C14-Pad2)*%
X155638000Y-59000000D02*
X155676000Y-59000000D01*
X154000000Y-61062500D02*
X153912000Y-60975000D01*
X153912000Y-60975000D02*
X153912000Y-59000000D01*
X153912000Y-59000000D02*
X153950000Y-59000000D01*
X153950000Y-59000000D02*
X155638000Y-59000000D01*
%TO.N,Net-(C15-Pad2)*%
X154909332Y-65050000D02*
X155779000Y-65050000D01*
X155750500Y-65021500D02*
X155779000Y-65050000D01*
X155750500Y-62937500D02*
X155750500Y-65021500D01*
X154909332Y-62937500D02*
X155750500Y-62937500D01*
X155779000Y-65050000D02*
X156529665Y-65050000D01*
X155750500Y-62937500D02*
X156529665Y-62937500D01*
%TO.N,Net-(C16-Pad2)*%
X157538000Y-59000000D02*
X157500000Y-59000000D01*
X157500000Y-59000000D02*
X157500000Y-61062500D01*
X159088000Y-59000000D02*
X159050000Y-59000000D01*
X159050000Y-59000000D02*
X157538000Y-59000000D01*
%TO.N,Net-(C17-Pad2)*%
X160050000Y-62937500D02*
X158450000Y-62937500D01*
X158538000Y-65000000D02*
X158500000Y-65000000D01*
X158450000Y-64949500D02*
X158450000Y-62937500D01*
X158500000Y-65000000D02*
X158450000Y-64949500D01*
D33*
%TO.N,Net-(C18-Pad2)*%
X161850000Y-62415000D02*
X161850000Y-62937500D01*
D31*
X165391500Y-65720500D02*
X165584000Y-65913000D01*
D33*
X163298000Y-65720500D02*
X165391500Y-65720500D01*
X160900000Y-61062500D02*
X160950000Y-61012500D01*
X160900000Y-61062500D02*
X160900000Y-61465000D01*
D31*
X161000000Y-59087500D02*
X160912000Y-59000200D01*
D33*
X160900000Y-61465000D02*
X161850000Y-62415000D01*
X163298000Y-65913000D02*
X161800000Y-64415000D01*
X160950000Y-61012500D02*
X160950000Y-59000000D01*
D31*
X162000000Y-62887500D02*
X161950000Y-62937500D01*
X160950000Y-61012500D02*
X161000000Y-61062500D01*
D33*
X161800000Y-64415000D02*
X161800000Y-63087500D01*
D31*
%TO.N,Net-(R7-Pad1)*%
X152000000Y-67115000D02*
X151932500Y-67182500D01*
X152000000Y-67065000D02*
X152000000Y-67115000D01*
%TD*%
%TA.AperFunction,Conductor*%
%TO.N,GND*%
G36*
X126444500Y-70116723D02*
G01*
X126490564Y-70147502D01*
X126655900Y-70215987D01*
X126727521Y-70230232D01*
X126790429Y-70263137D01*
X126792035Y-70264716D01*
X127254595Y-70727276D01*
X127288621Y-70789588D01*
X127291500Y-70816370D01*
X127291500Y-70901543D01*
X127302112Y-71005425D01*
X127357885Y-71173738D01*
X127450970Y-71324652D01*
X127450975Y-71324658D01*
X127538222Y-71411905D01*
X127572248Y-71474217D01*
X127567183Y-71545032D01*
X127538222Y-71590095D01*
X127450975Y-71677341D01*
X127450970Y-71677347D01*
X127357885Y-71828262D01*
X127302113Y-71996572D01*
X127302112Y-71996579D01*
X127291500Y-72100446D01*
X127291500Y-72726544D01*
X127302112Y-72830425D01*
X127357885Y-72998738D01*
X127450970Y-73149652D01*
X127450975Y-73149658D01*
X127576341Y-73275024D01*
X127576345Y-73275027D01*
X127576348Y-73275030D01*
X127681647Y-73339979D01*
X127729125Y-73392763D01*
X127741500Y-73447219D01*
X127741500Y-74080500D01*
X127721498Y-74148621D01*
X127667842Y-74195114D01*
X127615500Y-74206500D01*
X127601350Y-74206500D01*
X127540803Y-74213009D01*
X127540795Y-74213011D01*
X127403797Y-74264110D01*
X127403792Y-74264112D01*
X127286738Y-74351738D01*
X127199112Y-74468792D01*
X127199110Y-74468797D01*
X127148011Y-74605795D01*
X127148009Y-74605803D01*
X127141500Y-74666350D01*
X127141500Y-76463649D01*
X127148009Y-76524196D01*
X127148011Y-76524204D01*
X127199110Y-76661202D01*
X127199112Y-76661207D01*
X127286738Y-76778261D01*
X127403792Y-76865887D01*
X127403794Y-76865888D01*
X127403796Y-76865889D01*
X127459061Y-76886502D01*
X127540795Y-76916988D01*
X127540803Y-76916990D01*
X127601350Y-76923499D01*
X127601355Y-76923499D01*
X127601362Y-76923500D01*
X127601368Y-76923500D01*
X129398632Y-76923500D01*
X129398638Y-76923500D01*
X129398645Y-76923499D01*
X129398649Y-76923499D01*
X129459196Y-76916990D01*
X129459199Y-76916989D01*
X129459201Y-76916989D01*
X129596204Y-76865889D01*
X129649387Y-76826077D01*
X129713261Y-76778261D01*
X129800887Y-76661207D01*
X129800887Y-76661206D01*
X129800889Y-76661204D01*
X129844869Y-76543288D01*
X129887414Y-76486456D01*
X129953934Y-76461645D01*
X130023308Y-76476736D01*
X130052018Y-76498229D01*
X130154990Y-76601201D01*
X130154993Y-76601203D01*
X130154996Y-76601206D01*
X130327991Y-76726894D01*
X130518517Y-76823972D01*
X130721878Y-76890047D01*
X130721879Y-76890047D01*
X130721884Y-76890049D01*
X130933084Y-76923500D01*
X130933087Y-76923500D01*
X131146913Y-76923500D01*
X131146916Y-76923500D01*
X131358116Y-76890049D01*
X131561483Y-76823972D01*
X131752009Y-76726894D01*
X131925004Y-76601206D01*
X132076206Y-76450004D01*
X132201894Y-76277009D01*
X132201902Y-76276992D01*
X132202854Y-76275441D01*
X132203377Y-76274967D01*
X132204804Y-76273004D01*
X132205216Y-76273303D01*
X132255497Y-76227804D01*
X132325537Y-76216189D01*
X132390738Y-76244285D01*
X132415484Y-76272843D01*
X132415624Y-76272742D01*
X132416801Y-76274362D01*
X132417729Y-76275433D01*
X132418535Y-76276749D01*
X132544177Y-76449679D01*
X132695320Y-76600822D01*
X132868249Y-76726463D01*
X133058707Y-76823506D01*
X133058713Y-76823509D01*
X133261998Y-76889560D01*
X133326000Y-76899696D01*
X133326000Y-75995702D01*
X133387007Y-76030925D01*
X133514174Y-76065000D01*
X133645826Y-76065000D01*
X133772993Y-76030925D01*
X133834000Y-75995702D01*
X133834000Y-76899696D01*
X133898001Y-76889560D01*
X134101286Y-76823509D01*
X134101292Y-76823506D01*
X134291750Y-76726463D01*
X134464679Y-76600822D01*
X134615822Y-76449679D01*
X134741463Y-76276750D01*
X134838506Y-76086292D01*
X134838509Y-76086286D01*
X134904559Y-75883004D01*
X134914698Y-75819000D01*
X134010703Y-75819000D01*
X134045925Y-75757993D01*
X134080000Y-75630826D01*
X134080000Y-75499174D01*
X134045925Y-75372007D01*
X134010703Y-75311000D01*
X134914697Y-75311000D01*
X134904559Y-75246995D01*
X134838509Y-75043713D01*
X134838506Y-75043707D01*
X134741463Y-74853249D01*
X134615822Y-74680320D01*
X134464682Y-74529180D01*
X134464679Y-74529178D01*
X134445490Y-74515236D01*
X134402136Y-74459014D01*
X134396061Y-74388278D01*
X134429192Y-74325486D01*
X134491012Y-74290574D01*
X134519551Y-74287300D01*
X135736943Y-74287300D01*
X135736944Y-74287300D01*
X135859335Y-74262955D01*
X135974625Y-74215200D01*
X136078383Y-74145871D01*
X138459815Y-71764439D01*
X138522127Y-71730413D01*
X138588543Y-71733930D01*
X138615574Y-71742887D01*
X138719455Y-71753500D01*
X138816282Y-71753499D01*
X138884401Y-71773500D01*
X138930894Y-71827156D01*
X138940999Y-71897429D01*
X138921047Y-71949500D01*
X138829398Y-72086663D01*
X138760914Y-72251996D01*
X138726000Y-72427518D01*
X138726000Y-72606481D01*
X138740728Y-72680521D01*
X138753792Y-72746202D01*
X138760914Y-72782003D01*
X138775772Y-72817873D01*
X138829398Y-72947336D01*
X138928822Y-73096135D01*
X139055365Y-73222678D01*
X139204164Y-73322102D01*
X139369500Y-73390587D01*
X139545021Y-73425500D01*
X139545022Y-73425500D01*
X139723978Y-73425500D01*
X139723979Y-73425500D01*
X139870998Y-73396256D01*
X139941710Y-73402584D01*
X139990478Y-73438764D01*
X139990780Y-73438463D01*
X139992812Y-73440495D01*
X139994412Y-73441682D01*
X139995972Y-73443655D01*
X140121341Y-73569024D01*
X140121347Y-73569029D01*
X140121348Y-73569030D01*
X140272262Y-73662115D01*
X140440574Y-73717887D01*
X140544455Y-73728500D01*
X140585695Y-73728499D01*
X140653813Y-73748500D01*
X140700307Y-73802154D01*
X140710413Y-73872428D01*
X140680921Y-73937009D01*
X140651844Y-73961739D01*
X140596346Y-73995971D01*
X140596341Y-73995975D01*
X140470975Y-74121341D01*
X140470970Y-74121347D01*
X140413081Y-74215200D01*
X140380676Y-74267738D01*
X140377884Y-74272264D01*
X140360930Y-74323427D01*
X140320516Y-74381798D01*
X140254959Y-74409053D01*
X140185074Y-74396539D01*
X140141364Y-74360497D01*
X140134015Y-74350920D01*
X140106454Y-74315001D01*
X140097969Y-74303943D01*
X140097967Y-74303941D01*
X140097965Y-74303938D01*
X140097959Y-74303932D01*
X140097950Y-74303922D01*
X139921077Y-74127049D01*
X139921056Y-74127030D01*
X139722582Y-73974735D01*
X139505931Y-73849652D01*
X139505920Y-73849646D01*
X139390351Y-73801776D01*
X139274784Y-73753906D01*
X139033129Y-73689155D01*
X139033122Y-73689153D01*
X138785092Y-73656500D01*
X138785090Y-73656500D01*
X138534910Y-73656500D01*
X138534907Y-73656500D01*
X138286877Y-73689153D01*
X138045216Y-73753906D01*
X137814079Y-73849646D01*
X137814068Y-73849652D01*
X137597417Y-73974735D01*
X137398943Y-74127030D01*
X137398922Y-74127049D01*
X137222049Y-74303922D01*
X137222030Y-74303943D01*
X137069735Y-74502417D01*
X136944652Y-74719068D01*
X136944646Y-74719079D01*
X136848906Y-74950216D01*
X136784153Y-75191877D01*
X136751500Y-75439907D01*
X136751500Y-75690092D01*
X136784153Y-75938122D01*
X136793060Y-75971362D01*
X136848906Y-76179784D01*
X136887411Y-76272742D01*
X136944646Y-76410920D01*
X136944652Y-76410931D01*
X137069735Y-76627582D01*
X137222030Y-76826056D01*
X137222049Y-76826077D01*
X137398922Y-77002950D01*
X137398930Y-77002957D01*
X137398938Y-77002965D01*
X137398941Y-77002967D01*
X137398943Y-77002969D01*
X137597417Y-77155264D01*
X137814068Y-77280347D01*
X137814079Y-77280353D01*
X137814081Y-77280354D01*
X138045216Y-77376094D01*
X138286871Y-77440845D01*
X138286875Y-77440845D01*
X138286877Y-77440846D01*
X138350802Y-77449261D01*
X138534910Y-77473500D01*
X138534917Y-77473500D01*
X138785083Y-77473500D01*
X138785090Y-77473500D01*
X139009256Y-77443987D01*
X139033122Y-77440846D01*
X139033122Y-77440845D01*
X139033129Y-77440845D01*
X139274784Y-77376094D01*
X139505919Y-77280354D01*
X139722581Y-77155265D01*
X139921062Y-77002965D01*
X140096406Y-76827620D01*
X140158716Y-76793597D01*
X140229532Y-76798661D01*
X140286368Y-76841208D01*
X140311179Y-76907728D01*
X140311500Y-76916715D01*
X140311500Y-76995543D01*
X140322112Y-77099425D01*
X140377885Y-77267738D01*
X140470970Y-77418652D01*
X140470975Y-77418658D01*
X140596341Y-77544024D01*
X140596347Y-77544029D01*
X140596348Y-77544030D01*
X140747262Y-77637115D01*
X140915574Y-77692887D01*
X141019455Y-77703500D01*
X141592905Y-77703499D01*
X141622820Y-77712282D01*
X141653290Y-77718911D01*
X141658385Y-77722725D01*
X141661026Y-77723501D01*
X141682000Y-77740404D01*
X141691051Y-77749455D01*
X141725077Y-77811767D01*
X141720012Y-77882582D01*
X141677465Y-77939418D01*
X141610945Y-77964229D01*
X141601983Y-77964550D01*
X127742515Y-77967499D01*
X127733499Y-77967178D01*
X127535013Y-77952982D01*
X127517219Y-77950423D01*
X127327165Y-77909079D01*
X127309916Y-77904015D01*
X127127678Y-77836044D01*
X127111324Y-77828575D01*
X126940624Y-77735365D01*
X126925501Y-77725646D01*
X126769796Y-77609087D01*
X126756210Y-77597314D01*
X126618685Y-77459789D01*
X126606912Y-77446203D01*
X126554429Y-77376094D01*
X126490351Y-77290495D01*
X126480634Y-77275375D01*
X126476464Y-77267738D01*
X126387421Y-77104670D01*
X126379955Y-77088321D01*
X126311984Y-76906083D01*
X126306920Y-76888834D01*
X126265576Y-76698780D01*
X126263018Y-76680996D01*
X126248821Y-76482487D01*
X126248500Y-76473499D01*
X126248500Y-70221489D01*
X126268502Y-70153368D01*
X126322158Y-70106875D01*
X126392432Y-70096771D01*
X126444500Y-70116723D01*
G37*
%TD.AperFunction*%
%TA.AperFunction,Conductor*%
G36*
X158975516Y-74241853D02*
G01*
X159032352Y-74284400D01*
X159057163Y-74350920D01*
X159057483Y-74359316D01*
X159073847Y-77834266D01*
X159054166Y-77902480D01*
X159000729Y-77949225D01*
X158947875Y-77960859D01*
X157078863Y-77961258D01*
X157010738Y-77941270D01*
X156964234Y-77887625D01*
X156954115Y-77817353D01*
X156983594Y-77752766D01*
X156989741Y-77746162D01*
X157191874Y-77544030D01*
X157570500Y-77165404D01*
X157632812Y-77131379D01*
X157659595Y-77128500D01*
X157793632Y-77128500D01*
X157793638Y-77128500D01*
X157793645Y-77128499D01*
X157793649Y-77128499D01*
X157854196Y-77121990D01*
X157854199Y-77121989D01*
X157854201Y-77121989D01*
X157991204Y-77070889D01*
X157995414Y-77067738D01*
X158108261Y-76983261D01*
X158195887Y-76866207D01*
X158195887Y-76866206D01*
X158195889Y-76866204D01*
X158246989Y-76729201D01*
X158247238Y-76726891D01*
X158253499Y-76668649D01*
X158253500Y-76668632D01*
X158253500Y-75971367D01*
X158253499Y-75971350D01*
X158246990Y-75910803D01*
X158246988Y-75910795D01*
X158212749Y-75819000D01*
X158195889Y-75773796D01*
X158195888Y-75773794D01*
X158195887Y-75773792D01*
X158108261Y-75656738D01*
X157991207Y-75569112D01*
X157991202Y-75569110D01*
X157854204Y-75518011D01*
X157854196Y-75518009D01*
X157793649Y-75511500D01*
X157793638Y-75511500D01*
X157246362Y-75511500D01*
X157246350Y-75511500D01*
X157185803Y-75518009D01*
X157185795Y-75518011D01*
X157048797Y-75569110D01*
X157048792Y-75569112D01*
X156931738Y-75656738D01*
X156844112Y-75773792D01*
X156844110Y-75773797D01*
X156793011Y-75910795D01*
X156793009Y-75910803D01*
X156786500Y-75971350D01*
X156786500Y-76105404D01*
X156777716Y-76135319D01*
X156771088Y-76165789D01*
X156767273Y-76170884D01*
X156766498Y-76173525D01*
X156749595Y-76194499D01*
X156698142Y-76245952D01*
X156635830Y-76279978D01*
X156565015Y-76274913D01*
X156524694Y-76249000D01*
X155841000Y-76249000D01*
X155772879Y-76228998D01*
X155726386Y-76175342D01*
X155715000Y-76123000D01*
X155715000Y-75867000D01*
X155735002Y-75798879D01*
X155788658Y-75752386D01*
X155841000Y-75741000D01*
X156522999Y-75741000D01*
X156522999Y-75103543D01*
X156520065Y-75066249D01*
X156505075Y-75014653D01*
X156505151Y-74987978D01*
X156501354Y-74961568D01*
X156505251Y-74953034D01*
X156505278Y-74943656D01*
X156519765Y-74921253D01*
X156530848Y-74896988D01*
X156538737Y-74891917D01*
X156543832Y-74884040D01*
X156568133Y-74873026D01*
X156590574Y-74858604D01*
X156604312Y-74856628D01*
X156608497Y-74854732D01*
X156626072Y-74853500D01*
X156850046Y-74853500D01*
X156918167Y-74873502D01*
X156925555Y-74878632D01*
X157048792Y-74970887D01*
X157048794Y-74970888D01*
X157048796Y-74970889D01*
X157094613Y-74987978D01*
X157185795Y-75021988D01*
X157185803Y-75021990D01*
X157246350Y-75028499D01*
X157246355Y-75028499D01*
X157246362Y-75028500D01*
X157246368Y-75028500D01*
X157793632Y-75028500D01*
X157793638Y-75028500D01*
X157793645Y-75028499D01*
X157793649Y-75028499D01*
X157854196Y-75021990D01*
X157854199Y-75021989D01*
X157854201Y-75021989D01*
X157991204Y-74970889D01*
X158003656Y-74961568D01*
X158077352Y-74906399D01*
X158108261Y-74883261D01*
X158114213Y-74875309D01*
X158171045Y-74832761D01*
X158178517Y-74830237D01*
X158182076Y-74829156D01*
X158182085Y-74829155D01*
X158297375Y-74781400D01*
X158401133Y-74712071D01*
X158842392Y-74270811D01*
X158904700Y-74236789D01*
X158975516Y-74241853D01*
G37*
%TD.AperFunction*%
%TA.AperFunction,Conductor*%
G36*
X152095997Y-73430637D02*
G01*
X152108537Y-73431534D01*
X152127422Y-73445671D01*
X152148703Y-73455853D01*
X152155309Y-73466548D01*
X152165372Y-73474081D01*
X152173616Y-73496184D01*
X152186014Y-73516255D01*
X152185789Y-73528822D01*
X152190183Y-73540601D01*
X152185167Y-73563653D01*
X152184747Y-73587240D01*
X152176108Y-73605295D01*
X152175091Y-73609975D01*
X152169270Y-73619591D01*
X152114698Y-73701263D01*
X152046214Y-73866596D01*
X152011300Y-74042118D01*
X152011300Y-74221081D01*
X152023219Y-74281000D01*
X152039115Y-74360919D01*
X152032788Y-74431632D01*
X151989234Y-74487700D01*
X151922281Y-74511319D01*
X151915537Y-74511500D01*
X151688489Y-74511500D01*
X151651171Y-74514437D01*
X151651170Y-74514437D01*
X151515885Y-74553741D01*
X151500232Y-74558289D01*
X151491396Y-74560856D01*
X151348186Y-74645551D01*
X151346802Y-74646625D01*
X151345520Y-74647127D01*
X151341371Y-74649582D01*
X151340974Y-74648912D01*
X151280713Y-74672564D01*
X151211093Y-74658655D01*
X151192362Y-74646616D01*
X151191498Y-74645946D01*
X151078995Y-74579412D01*
X151030542Y-74527519D01*
X151017837Y-74457668D01*
X151044912Y-74392037D01*
X151054012Y-74381891D01*
X151975411Y-73460492D01*
X151996115Y-73449187D01*
X152014215Y-73434061D01*
X152026686Y-73432494D01*
X152037721Y-73426469D01*
X152061253Y-73428152D01*
X152084658Y-73425212D01*
X152095997Y-73430637D01*
G37*
%TD.AperFunction*%
%TA.AperFunction,Conductor*%
G36*
X134165627Y-71242002D02*
G01*
X134186601Y-71258905D01*
X134819295Y-71891599D01*
X134853321Y-71953911D01*
X134856200Y-71980694D01*
X134856200Y-72030581D01*
X134867356Y-72086663D01*
X134891113Y-72206100D01*
X134959598Y-72371436D01*
X135059022Y-72520235D01*
X135185565Y-72646778D01*
X135334364Y-72746202D01*
X135408961Y-72777101D01*
X135434867Y-72797977D01*
X135461515Y-72817873D01*
X135462361Y-72820133D01*
X135464242Y-72821649D01*
X135474751Y-72853223D01*
X135486410Y-72884362D01*
X135485900Y-72886720D01*
X135486663Y-72889013D01*
X135478433Y-72921256D01*
X135471407Y-72953755D01*
X135469479Y-72956336D01*
X135469105Y-72957804D01*
X135449951Y-72982492D01*
X135449163Y-72983282D01*
X135386894Y-73017386D01*
X135359955Y-73020300D01*
X133073803Y-73020300D01*
X133000768Y-73034828D01*
X132951415Y-73044645D01*
X132951413Y-73044645D01*
X132951412Y-73044646D01*
X132940901Y-73049000D01*
X132863266Y-73081158D01*
X132836123Y-73092401D01*
X132732371Y-73161726D01*
X132732369Y-73161727D01*
X131636145Y-74257950D01*
X131573833Y-74291975D01*
X131508115Y-74288687D01*
X131358124Y-74239953D01*
X131358123Y-74239952D01*
X131318801Y-74233724D01*
X131146916Y-74206500D01*
X130933084Y-74206500D01*
X130721884Y-74239951D01*
X130721878Y-74239952D01*
X130518521Y-74306026D01*
X130518515Y-74306029D01*
X130327987Y-74403108D01*
X130154995Y-74528794D01*
X130052018Y-74631771D01*
X129989706Y-74665796D01*
X129918890Y-74660730D01*
X129862054Y-74618184D01*
X129844871Y-74586715D01*
X129800889Y-74468796D01*
X129800886Y-74468792D01*
X129800886Y-74468791D01*
X129713261Y-74351738D01*
X129596207Y-74264112D01*
X129596202Y-74264110D01*
X129459204Y-74213011D01*
X129459196Y-74213009D01*
X129398649Y-74206500D01*
X129398638Y-74206500D01*
X129384500Y-74206500D01*
X129316379Y-74186498D01*
X129269886Y-74132842D01*
X129258500Y-74080500D01*
X129258500Y-73447219D01*
X129278502Y-73379098D01*
X129318352Y-73339979D01*
X129423652Y-73275030D01*
X129549030Y-73149652D01*
X129642115Y-72998738D01*
X129697887Y-72830426D01*
X129708500Y-72726545D01*
X129708499Y-72100456D01*
X129697887Y-71996574D01*
X129642115Y-71828262D01*
X129549030Y-71677348D01*
X129549029Y-71677347D01*
X129549024Y-71677341D01*
X129461778Y-71590095D01*
X129459643Y-71586186D01*
X129455889Y-71583789D01*
X129442778Y-71555301D01*
X129427752Y-71527783D01*
X129428069Y-71523340D01*
X129426208Y-71519295D01*
X129430579Y-71488245D01*
X129432817Y-71456968D01*
X129435661Y-71452158D01*
X129436107Y-71448992D01*
X129445902Y-71434840D01*
X129455409Y-71418765D01*
X129458467Y-71415214D01*
X129549030Y-71324652D01*
X129580677Y-71273343D01*
X129587206Y-71265765D01*
X129608954Y-71251698D01*
X129628216Y-71234374D01*
X129639815Y-71231738D01*
X129646820Y-71227208D01*
X129659919Y-71227169D01*
X129682670Y-71222000D01*
X134097506Y-71222000D01*
X134165627Y-71242002D01*
G37*
%TD.AperFunction*%
%TA.AperFunction,Conductor*%
G36*
X150831121Y-71065002D02*
G01*
X150877614Y-71118658D01*
X150889000Y-71171000D01*
X150889000Y-72524992D01*
X150904310Y-72536488D01*
X150946776Y-72593385D01*
X150951739Y-72664207D01*
X150917752Y-72726343D01*
X149794501Y-73849595D01*
X149732189Y-73883620D01*
X149705406Y-73886500D01*
X149084594Y-73886500D01*
X149016473Y-73866498D01*
X148995499Y-73849595D01*
X148699453Y-73553549D01*
X148665427Y-73491237D01*
X148670492Y-73420422D01*
X148699451Y-73375360D01*
X148725678Y-73349135D01*
X148825102Y-73200336D01*
X148893587Y-73035000D01*
X148928500Y-72859479D01*
X148928500Y-72680521D01*
X148925052Y-72663186D01*
X148931378Y-72592473D01*
X148974931Y-72536404D01*
X149041883Y-72512783D01*
X149083778Y-72517604D01*
X149111169Y-72525562D01*
X149148488Y-72528499D01*
X149148489Y-72528500D01*
X149148498Y-72528500D01*
X149581511Y-72528500D01*
X149581511Y-72528499D01*
X149618831Y-72525562D01*
X149778601Y-72479145D01*
X149778603Y-72479143D01*
X149778605Y-72479143D01*
X149869355Y-72425473D01*
X149921807Y-72394453D01*
X149921815Y-72394444D01*
X149923176Y-72393390D01*
X149924454Y-72392887D01*
X149928631Y-72390418D01*
X149929029Y-72391091D01*
X149989259Y-72367437D01*
X150058883Y-72381332D01*
X150077639Y-72393385D01*
X150078500Y-72394052D01*
X150221600Y-72478681D01*
X150381000Y-72524991D01*
X150381000Y-71171000D01*
X150401002Y-71102879D01*
X150454658Y-71056386D01*
X150507000Y-71045000D01*
X150763000Y-71045000D01*
X150831121Y-71065002D01*
G37*
%TD.AperFunction*%
%TA.AperFunction,Conductor*%
G36*
X153371121Y-71065002D02*
G01*
X153417614Y-71118658D01*
X153429000Y-71171000D01*
X153429000Y-72525596D01*
X153470440Y-72581119D01*
X153475404Y-72651942D01*
X153441418Y-72714078D01*
X152969299Y-73186196D01*
X152906989Y-73220220D01*
X152880206Y-73223100D01*
X152830318Y-73223100D01*
X152699571Y-73249107D01*
X152654800Y-73258013D01*
X152654799Y-73258013D01*
X152654796Y-73258014D01*
X152489463Y-73326498D01*
X152407792Y-73381069D01*
X152340039Y-73402283D01*
X152271572Y-73383499D01*
X152224129Y-73330682D01*
X152212773Y-73260599D01*
X152241110Y-73195503D01*
X152248685Y-73187218D01*
X152512071Y-72923833D01*
X152581400Y-72820075D01*
X152629155Y-72704785D01*
X152652106Y-72589400D01*
X152685014Y-72526492D01*
X152746709Y-72491360D01*
X152810839Y-72492986D01*
X152921000Y-72524991D01*
X152921000Y-71171000D01*
X152941002Y-71102879D01*
X152994658Y-71056386D01*
X153047000Y-71045000D01*
X153303000Y-71045000D01*
X153371121Y-71065002D01*
G37*
%TD.AperFunction*%
%TA.AperFunction,Conductor*%
G36*
X158919187Y-57181868D02*
G01*
X158965691Y-57235513D01*
X158977088Y-57287287D01*
X158978748Y-57639907D01*
X158959066Y-57708121D01*
X158905630Y-57754866D01*
X158852750Y-57766500D01*
X158719455Y-57766500D01*
X158615574Y-57777112D01*
X158447261Y-57832885D01*
X158296147Y-57926094D01*
X158227667Y-57944831D01*
X158163853Y-57926094D01*
X158154821Y-57920523D01*
X158012738Y-57832885D01*
X157902713Y-57796427D01*
X157844427Y-57777113D01*
X157844420Y-57777112D01*
X157740553Y-57766500D01*
X157139455Y-57766500D01*
X157035574Y-57777112D01*
X156867261Y-57832885D01*
X156716347Y-57925970D01*
X156716341Y-57925975D01*
X156590972Y-58051344D01*
X156588834Y-58054049D01*
X156586895Y-58055421D01*
X156585780Y-58056537D01*
X156585589Y-58056346D01*
X156530892Y-58095076D01*
X156459967Y-58098264D01*
X156398577Y-58062602D01*
X156391166Y-58054049D01*
X156389027Y-58051344D01*
X156263658Y-57925975D01*
X156263652Y-57925970D01*
X156254821Y-57920523D01*
X156112738Y-57832885D01*
X156002713Y-57796427D01*
X155944427Y-57777113D01*
X155944420Y-57777112D01*
X155840553Y-57766500D01*
X155239455Y-57766500D01*
X155135574Y-57777112D01*
X154967261Y-57832885D01*
X154933358Y-57853797D01*
X154816348Y-57925970D01*
X154816347Y-57925970D01*
X154810102Y-57929823D01*
X154808690Y-57927535D01*
X154754423Y-57949411D01*
X154684678Y-57936140D01*
X154676001Y-57931251D01*
X154673686Y-57929823D01*
X154532738Y-57842885D01*
X154425870Y-57807473D01*
X154364427Y-57787113D01*
X154364420Y-57787112D01*
X154260553Y-57776500D01*
X153659455Y-57776500D01*
X153555574Y-57787112D01*
X153387261Y-57842885D01*
X153236347Y-57935970D01*
X153236341Y-57935975D01*
X153110972Y-58061344D01*
X153108834Y-58064049D01*
X153106895Y-58065421D01*
X153105780Y-58066537D01*
X153105589Y-58066346D01*
X153050892Y-58105076D01*
X152979967Y-58108264D01*
X152918577Y-58072602D01*
X152911166Y-58064049D01*
X152909027Y-58061344D01*
X152783658Y-57935975D01*
X152783652Y-57935970D01*
X152769977Y-57927535D01*
X152632738Y-57842885D01*
X152525870Y-57807473D01*
X152464427Y-57787113D01*
X152464420Y-57787112D01*
X152360553Y-57776500D01*
X151759455Y-57776500D01*
X151655574Y-57787112D01*
X151487261Y-57842885D01*
X151336347Y-57935970D01*
X151330590Y-57940523D01*
X151329126Y-57938671D01*
X151276757Y-57967253D01*
X151205942Y-57962174D01*
X151160902Y-57933220D01*
X151153652Y-57925970D01*
X151002738Y-57832885D01*
X150892713Y-57796427D01*
X150834427Y-57777113D01*
X150834420Y-57777112D01*
X150730553Y-57766500D01*
X150129455Y-57766500D01*
X150025574Y-57777112D01*
X149857261Y-57832885D01*
X149706347Y-57925970D01*
X149706341Y-57925975D01*
X149580972Y-58051344D01*
X149578834Y-58054049D01*
X149576895Y-58055421D01*
X149575780Y-58056537D01*
X149575589Y-58056346D01*
X149520892Y-58095076D01*
X149449967Y-58098264D01*
X149388577Y-58062602D01*
X149381166Y-58054049D01*
X149379027Y-58051344D01*
X149253658Y-57925975D01*
X149253652Y-57925970D01*
X149244821Y-57920523D01*
X149102738Y-57832885D01*
X148992713Y-57796427D01*
X148934427Y-57777113D01*
X148934420Y-57777112D01*
X148830553Y-57766500D01*
X148229455Y-57766500D01*
X148125574Y-57777112D01*
X147957261Y-57832885D01*
X147806347Y-57925970D01*
X147800590Y-57930523D01*
X147799346Y-57928950D01*
X147745881Y-57958135D01*
X147675066Y-57953059D01*
X147650329Y-57939122D01*
X147649898Y-57939823D01*
X147643653Y-57935971D01*
X147643652Y-57935970D01*
X147492738Y-57842885D01*
X147385870Y-57807473D01*
X147324427Y-57787113D01*
X147324420Y-57787112D01*
X147220553Y-57776500D01*
X146619455Y-57776500D01*
X146515574Y-57787112D01*
X146347261Y-57842885D01*
X146196347Y-57935970D01*
X146196341Y-57935975D01*
X146070972Y-58061344D01*
X146068834Y-58064049D01*
X146066895Y-58065421D01*
X146065780Y-58066537D01*
X146065589Y-58066346D01*
X146010892Y-58105076D01*
X145939967Y-58108264D01*
X145878577Y-58072602D01*
X145871166Y-58064049D01*
X145869027Y-58061344D01*
X145743658Y-57935975D01*
X145743652Y-57935970D01*
X145729977Y-57927535D01*
X145592738Y-57842885D01*
X145485870Y-57807473D01*
X145424427Y-57787113D01*
X145424420Y-57787112D01*
X145320553Y-57776500D01*
X144719455Y-57776500D01*
X144615574Y-57787112D01*
X144447261Y-57842885D01*
X144305255Y-57930476D01*
X144236775Y-57949213D01*
X144169036Y-57927954D01*
X144159637Y-57920234D01*
X144159410Y-57920523D01*
X144153652Y-57915970D01*
X144063922Y-57860624D01*
X144002738Y-57822885D01*
X143907760Y-57791413D01*
X143834427Y-57767113D01*
X143834420Y-57767112D01*
X143730553Y-57756500D01*
X143129455Y-57756500D01*
X143025574Y-57767112D01*
X142857261Y-57822885D01*
X142706347Y-57915970D01*
X142706341Y-57915975D01*
X142580972Y-58041344D01*
X142578834Y-58044049D01*
X142576895Y-58045421D01*
X142575780Y-58046537D01*
X142575589Y-58046346D01*
X142520892Y-58085076D01*
X142449967Y-58088264D01*
X142388577Y-58052602D01*
X142381166Y-58044049D01*
X142379027Y-58041344D01*
X142253658Y-57915975D01*
X142253652Y-57915970D01*
X142163922Y-57860624D01*
X142102738Y-57822885D01*
X142007760Y-57791413D01*
X141934427Y-57767113D01*
X141934420Y-57767112D01*
X141830553Y-57756500D01*
X141229455Y-57756500D01*
X141125572Y-57767113D01*
X141125570Y-57767113D01*
X141048290Y-57792720D01*
X140977335Y-57795159D01*
X140970981Y-57793041D01*
X140970930Y-57793212D01*
X140965000Y-57791413D01*
X140789481Y-57756500D01*
X140789479Y-57756500D01*
X140610521Y-57756500D01*
X140610515Y-57756500D01*
X140450610Y-57788307D01*
X140386398Y-57784333D01*
X140334430Y-57767113D01*
X140334426Y-57767112D01*
X140230553Y-57756500D01*
X139629455Y-57756500D01*
X139525574Y-57767112D01*
X139357261Y-57822885D01*
X139206347Y-57915970D01*
X139206341Y-57915975D01*
X139080971Y-58041345D01*
X139078511Y-58044457D01*
X139076281Y-58046035D01*
X139075780Y-58046537D01*
X139075694Y-58046451D01*
X139020568Y-58085483D01*
X138949643Y-58088671D01*
X138888254Y-58053008D01*
X138880837Y-58044446D01*
X138878632Y-58041657D01*
X138753345Y-57916370D01*
X138753339Y-57916365D01*
X138602525Y-57823342D01*
X138434321Y-57767606D01*
X138434318Y-57767605D01*
X138330516Y-57757000D01*
X138284000Y-57757000D01*
X138284000Y-60223000D01*
X138330517Y-60223000D01*
X138330516Y-60222999D01*
X138434318Y-60212394D01*
X138434321Y-60212393D01*
X138602525Y-60156657D01*
X138753339Y-60063634D01*
X138753345Y-60063629D01*
X138878624Y-59938350D01*
X138880832Y-59935558D01*
X138882837Y-59934137D01*
X138883825Y-59933150D01*
X138883993Y-59933318D01*
X138895064Y-59925477D01*
X138905729Y-59911678D01*
X138923434Y-59905383D01*
X138938768Y-59894522D01*
X138956191Y-59893736D01*
X138972623Y-59887894D01*
X138990919Y-59892169D01*
X139009693Y-59891323D01*
X139025098Y-59900156D01*
X139041757Y-59904050D01*
X139061726Y-59921161D01*
X139070133Y-59925982D01*
X139078437Y-59934545D01*
X139080970Y-59938652D01*
X139128793Y-59986475D01*
X139129466Y-59987169D01*
X139145558Y-60017749D01*
X139162131Y-60048099D01*
X139162059Y-60049104D01*
X139162529Y-60049997D01*
X139159532Y-60084435D01*
X139157067Y-60118914D01*
X139156413Y-60120282D01*
X139156375Y-60120726D01*
X139155921Y-60121312D01*
X139147465Y-60139022D01*
X139118855Y-60187397D01*
X139072437Y-60347170D01*
X139072437Y-60347171D01*
X139069500Y-60384488D01*
X139069500Y-61541500D01*
X139049498Y-61609621D01*
X138995842Y-61656114D01*
X138943500Y-61667500D01*
X138711489Y-61667500D01*
X138674171Y-61670437D01*
X138674170Y-61670437D01*
X138514394Y-61716856D01*
X138371196Y-61801544D01*
X138371189Y-61801549D01*
X138253549Y-61919189D01*
X138253544Y-61919196D01*
X138168856Y-62062394D01*
X138122437Y-62222170D01*
X138122437Y-62222171D01*
X138119500Y-62259488D01*
X138119500Y-62841500D01*
X138099498Y-62909621D01*
X138045842Y-62956114D01*
X137993500Y-62967500D01*
X136239290Y-62967500D01*
X136141986Y-62986855D01*
X136141986Y-62986856D01*
X136092754Y-62996649D01*
X136092752Y-62996649D01*
X136092751Y-62996650D01*
X136092750Y-62996650D01*
X135954717Y-63053825D01*
X135930501Y-63070006D01*
X135862748Y-63091220D01*
X135794281Y-63072436D01*
X135746838Y-63019619D01*
X135734500Y-62965240D01*
X135734500Y-62734500D01*
X135754502Y-62666379D01*
X135808158Y-62619886D01*
X135860500Y-62608500D01*
X136398632Y-62608500D01*
X136398638Y-62608500D01*
X136398645Y-62608499D01*
X136398649Y-62608499D01*
X136459196Y-62601990D01*
X136459199Y-62601989D01*
X136459201Y-62601989D01*
X136596204Y-62550889D01*
X136713261Y-62463261D01*
X136785786Y-62366379D01*
X136800887Y-62346207D01*
X136800887Y-62346206D01*
X136800889Y-62346204D01*
X136851989Y-62209201D01*
X136858500Y-62148638D01*
X136858500Y-60851362D01*
X136858499Y-60851350D01*
X136851990Y-60790803D01*
X136851988Y-60790795D01*
X136800889Y-60653797D01*
X136800887Y-60653792D01*
X136713261Y-60536738D01*
X136596207Y-60449112D01*
X136596202Y-60449110D01*
X136459204Y-60398011D01*
X136459196Y-60398009D01*
X136398649Y-60391500D01*
X136398638Y-60391500D01*
X132601362Y-60391500D01*
X132601350Y-60391500D01*
X132540803Y-60398009D01*
X132540795Y-60398011D01*
X132403797Y-60449110D01*
X132403792Y-60449112D01*
X132286738Y-60536738D01*
X132199112Y-60653792D01*
X132199110Y-60653797D01*
X132148011Y-60790795D01*
X132148009Y-60790803D01*
X132141500Y-60851350D01*
X132141500Y-62148649D01*
X132148009Y-62209196D01*
X132148011Y-62209204D01*
X132199110Y-62346202D01*
X132199112Y-62346207D01*
X132286738Y-62463261D01*
X132403792Y-62550887D01*
X132403794Y-62550888D01*
X132403796Y-62550889D01*
X132462875Y-62572924D01*
X132540795Y-62601988D01*
X132540803Y-62601990D01*
X132601350Y-62608499D01*
X132601355Y-62608499D01*
X132601362Y-62608500D01*
X134091500Y-62608500D01*
X134159621Y-62628502D01*
X134206114Y-62682158D01*
X134217500Y-62734500D01*
X134217500Y-63505500D01*
X134197498Y-63573621D01*
X134143842Y-63620114D01*
X134091500Y-63631500D01*
X133927350Y-63631500D01*
X133866803Y-63638009D01*
X133866795Y-63638011D01*
X133729797Y-63689110D01*
X133729792Y-63689112D01*
X133612738Y-63776738D01*
X133525112Y-63893792D01*
X133525110Y-63893797D01*
X133474011Y-64030795D01*
X133474009Y-64030803D01*
X133467500Y-64091350D01*
X133467500Y-66000738D01*
X133447498Y-66068859D01*
X133393842Y-66115352D01*
X133366082Y-66124317D01*
X133299436Y-66137574D01*
X133255000Y-66146413D01*
X133254998Y-66146413D01*
X133254997Y-66146414D01*
X133176447Y-66178951D01*
X133112457Y-66205457D01*
X133089662Y-66214899D01*
X132940869Y-66314319D01*
X132940862Y-66314324D01*
X132814324Y-66440862D01*
X132814319Y-66440869D01*
X132716556Y-66587183D01*
X132714898Y-66589664D01*
X132700716Y-66623902D01*
X132646414Y-66754996D01*
X132611500Y-66930518D01*
X132611500Y-66930521D01*
X132611500Y-67109479D01*
X132646413Y-67285000D01*
X132714898Y-67450336D01*
X132814322Y-67599135D01*
X132940865Y-67725678D01*
X133089664Y-67825102D01*
X133226628Y-67881835D01*
X133254997Y-67893586D01*
X133254998Y-67893586D01*
X133255000Y-67893587D01*
X133370902Y-67916641D01*
X133433810Y-67949547D01*
X133468942Y-68011242D01*
X133471597Y-68026751D01*
X133474009Y-68049196D01*
X133474011Y-68049204D01*
X133525110Y-68186202D01*
X133525112Y-68186207D01*
X133612738Y-68303261D01*
X133729792Y-68390887D01*
X133729794Y-68390888D01*
X133729796Y-68390889D01*
X133788875Y-68412924D01*
X133866795Y-68441988D01*
X133866803Y-68441990D01*
X133927350Y-68448499D01*
X133927355Y-68448499D01*
X133927362Y-68448500D01*
X133927368Y-68448500D01*
X136024632Y-68448500D01*
X136024638Y-68448500D01*
X136024645Y-68448499D01*
X136024649Y-68448499D01*
X136085196Y-68441990D01*
X136085199Y-68441989D01*
X136085201Y-68441989D01*
X136097867Y-68437265D01*
X136104045Y-68434960D01*
X136222204Y-68390889D01*
X136339261Y-68303261D01*
X136426889Y-68186204D01*
X136477989Y-68049201D01*
X136484500Y-67988638D01*
X136484500Y-64680371D01*
X136493283Y-64650455D01*
X136499912Y-64619986D01*
X136503726Y-64614890D01*
X136504502Y-64612250D01*
X136521405Y-64591276D01*
X136591276Y-64521405D01*
X136653588Y-64487379D01*
X136680371Y-64484500D01*
X137793500Y-64484500D01*
X137861621Y-64504502D01*
X137908114Y-64558158D01*
X137919500Y-64610500D01*
X137919500Y-65575544D01*
X137930112Y-65679425D01*
X137985885Y-65847738D01*
X138078970Y-65998652D01*
X138078975Y-65998658D01*
X138204341Y-66124024D01*
X138204346Y-66124028D01*
X138204348Y-66124030D01*
X138293389Y-66178951D01*
X138314222Y-66191801D01*
X138361700Y-66244587D01*
X138373103Y-66314662D01*
X138344810Y-66379778D01*
X138314222Y-66406282D01*
X138304222Y-66412451D01*
X138209347Y-66470970D01*
X138209341Y-66470975D01*
X138083975Y-66596341D01*
X138083970Y-66596347D01*
X137990885Y-66747262D01*
X137935113Y-66915572D01*
X137935112Y-66915579D01*
X137924500Y-67019446D01*
X137924500Y-68020544D01*
X137935112Y-68124425D01*
X137990885Y-68292738D01*
X138080031Y-68437266D01*
X138098768Y-68505744D01*
X138077509Y-68573483D01*
X138061886Y-68592507D01*
X137616167Y-69038229D01*
X137527927Y-69126469D01*
X137527926Y-69126471D01*
X137458081Y-69231002D01*
X137403604Y-69276530D01*
X137379437Y-69281561D01*
X137374000Y-69286999D01*
X137374000Y-70394000D01*
X137353998Y-70462121D01*
X137300342Y-70508614D01*
X137248000Y-70520000D01*
X137120000Y-70520000D01*
X137120000Y-70648000D01*
X137099998Y-70716121D01*
X137046342Y-70762614D01*
X136994000Y-70774000D01*
X136112000Y-70774000D01*
X136112000Y-70930352D01*
X136107118Y-70946975D01*
X136107341Y-70964298D01*
X136097324Y-70980331D01*
X136091998Y-70998473D01*
X136078904Y-71009818D01*
X136069726Y-71024511D01*
X136052631Y-71032584D01*
X136038342Y-71044966D01*
X136020843Y-71047596D01*
X136005529Y-71054829D01*
X135976641Y-71054240D01*
X135969669Y-71055289D01*
X135965516Y-71054746D01*
X135854179Y-71032600D01*
X135796095Y-71032600D01*
X135787963Y-71031537D01*
X135762686Y-71020383D01*
X135736173Y-71012598D01*
X135725435Y-71003944D01*
X135723009Y-71002874D01*
X135721757Y-71000980D01*
X135715199Y-70995695D01*
X134815935Y-70096431D01*
X134815933Y-70096429D01*
X134712175Y-70027100D01*
X134633431Y-69994483D01*
X136112000Y-69994483D01*
X136112000Y-70266000D01*
X136866000Y-70266000D01*
X136866000Y-69287000D01*
X136819483Y-69287000D01*
X136715681Y-69297605D01*
X136715678Y-69297606D01*
X136547474Y-69353342D01*
X136396660Y-69446365D01*
X136396654Y-69446370D01*
X136271370Y-69571654D01*
X136271365Y-69571660D01*
X136178342Y-69722474D01*
X136122606Y-69890678D01*
X136122605Y-69890681D01*
X136112000Y-69994483D01*
X134633431Y-69994483D01*
X134596885Y-69979345D01*
X134523186Y-69964685D01*
X134474496Y-69955000D01*
X134474494Y-69955000D01*
X129682670Y-69955000D01*
X129680100Y-69954245D01*
X129677502Y-69954894D01*
X129646228Y-69944299D01*
X129614549Y-69934998D01*
X129612015Y-69932710D01*
X129610259Y-69932115D01*
X129603997Y-69925468D01*
X129584141Y-69907537D01*
X129579411Y-69901603D01*
X129549030Y-69852348D01*
X129505263Y-69808581D01*
X129500844Y-69803037D01*
X129490004Y-69776467D01*
X129476252Y-69751283D01*
X129476770Y-69744030D01*
X129474025Y-69737301D01*
X129479269Y-69709094D01*
X129481317Y-69680468D01*
X129485674Y-69674647D01*
X129487003Y-69667501D01*
X129506667Y-69646603D01*
X129523864Y-69623632D01*
X129530674Y-69621091D01*
X129535657Y-69615797D01*
X129563499Y-69608848D01*
X129590384Y-69598821D01*
X129599373Y-69598500D01*
X129724632Y-69598500D01*
X129724638Y-69598500D01*
X129724645Y-69598499D01*
X129724649Y-69598499D01*
X129785196Y-69591990D01*
X129785199Y-69591989D01*
X129785201Y-69591989D01*
X129922204Y-69540889D01*
X130039261Y-69453261D01*
X130126889Y-69336204D01*
X130177989Y-69199201D01*
X130184500Y-69138638D01*
X130184500Y-67942116D01*
X130204502Y-67873995D01*
X130258158Y-67827502D01*
X130328432Y-67817398D01*
X130358715Y-67825706D01*
X130399198Y-67842475D01*
X130574719Y-67877388D01*
X130574720Y-67877388D01*
X130753676Y-67877388D01*
X130753677Y-67877388D01*
X130929198Y-67842475D01*
X131094534Y-67773990D01*
X131243333Y-67674566D01*
X131369876Y-67548023D01*
X131469300Y-67399224D01*
X131537785Y-67233888D01*
X131572698Y-67058367D01*
X131572698Y-66879409D01*
X131537785Y-66703888D01*
X131469300Y-66538552D01*
X131443930Y-66500583D01*
X131422718Y-66432831D01*
X131422698Y-66430584D01*
X131422698Y-64839491D01*
X131422697Y-64839488D01*
X131393549Y-64692952D01*
X131336372Y-64554914D01*
X131304978Y-64507929D01*
X131253364Y-64430683D01*
X130221405Y-63398724D01*
X130187379Y-63336412D01*
X130184500Y-63309629D01*
X130184500Y-62941367D01*
X130184499Y-62941350D01*
X130177990Y-62880803D01*
X130177988Y-62880795D01*
X130140673Y-62780752D01*
X130126889Y-62743796D01*
X130126888Y-62743794D01*
X130126887Y-62743792D01*
X130039261Y-62626738D01*
X129922207Y-62539112D01*
X129922202Y-62539110D01*
X129785204Y-62488011D01*
X129785196Y-62488009D01*
X129724649Y-62481500D01*
X129724638Y-62481500D01*
X127784500Y-62481500D01*
X127716379Y-62461498D01*
X127669886Y-62407842D01*
X127658500Y-62355500D01*
X127658500Y-62059499D01*
X127678502Y-61991378D01*
X127732158Y-61944885D01*
X127784500Y-61933499D01*
X128520544Y-61933499D01*
X128624426Y-61922887D01*
X128792738Y-61867115D01*
X128943652Y-61774030D01*
X128946255Y-61771426D01*
X128948482Y-61770210D01*
X128949410Y-61769477D01*
X128949535Y-61769635D01*
X129008563Y-61737399D01*
X129079379Y-61742460D01*
X129124451Y-61771424D01*
X129151660Y-61798634D01*
X129302474Y-61891657D01*
X129470678Y-61947393D01*
X129470681Y-61947394D01*
X129574483Y-61957999D01*
X129574483Y-61958000D01*
X129846000Y-61958000D01*
X130354000Y-61958000D01*
X130625517Y-61958000D01*
X130625516Y-61957999D01*
X130729318Y-61947394D01*
X130729321Y-61947393D01*
X130897525Y-61891657D01*
X131048339Y-61798634D01*
X131048345Y-61798629D01*
X131173629Y-61673345D01*
X131173634Y-61673339D01*
X131266657Y-61522525D01*
X131322393Y-61354321D01*
X131322394Y-61354318D01*
X131332999Y-61250516D01*
X131333000Y-61250516D01*
X131333000Y-61204000D01*
X130354000Y-61204000D01*
X130354000Y-61958000D01*
X129846000Y-61958000D01*
X129846000Y-61076000D01*
X129866002Y-61007879D01*
X129919658Y-60961386D01*
X129972000Y-60950000D01*
X130100000Y-60950000D01*
X130100000Y-60822000D01*
X130120002Y-60753879D01*
X130173658Y-60707386D01*
X130226000Y-60696000D01*
X131333000Y-60696000D01*
X131333000Y-60649483D01*
X131322394Y-60545681D01*
X131322393Y-60545678D01*
X131266657Y-60377474D01*
X131173634Y-60226660D01*
X131173629Y-60226654D01*
X131048344Y-60101369D01*
X131045551Y-60099161D01*
X131044131Y-60097156D01*
X131043150Y-60096175D01*
X131043317Y-60096007D01*
X131035739Y-60085306D01*
X131022231Y-60075026D01*
X131015646Y-60056934D01*
X131004519Y-60041222D01*
X131003755Y-60024261D01*
X130997950Y-60008311D01*
X131002191Y-59989533D01*
X131001325Y-59970298D01*
X131009970Y-59955091D01*
X131013592Y-59939059D01*
X131030165Y-59919571D01*
X131035312Y-59910520D01*
X131044189Y-59901782D01*
X131048652Y-59899030D01*
X131152608Y-59795073D01*
X131152989Y-59794699D01*
X131183897Y-59778138D01*
X131214590Y-59761379D01*
X131215326Y-59761299D01*
X131215569Y-59761170D01*
X131216123Y-59761214D01*
X131241373Y-59758500D01*
X132401470Y-59758500D01*
X132445503Y-59766445D01*
X132540795Y-59801988D01*
X132540803Y-59801990D01*
X132601350Y-59808499D01*
X132601355Y-59808499D01*
X132601362Y-59808500D01*
X132601368Y-59808500D01*
X136398632Y-59808500D01*
X136398638Y-59808500D01*
X136398645Y-59808499D01*
X136398649Y-59808499D01*
X136459196Y-59801990D01*
X136459199Y-59801989D01*
X136459201Y-59801989D01*
X136596204Y-59750889D01*
X136713261Y-59663261D01*
X136800889Y-59546204D01*
X136800889Y-59546202D01*
X136804793Y-59540988D01*
X136861628Y-59498441D01*
X136932444Y-59493376D01*
X136994756Y-59527401D01*
X137028781Y-59589713D01*
X137031008Y-59603687D01*
X137032605Y-59619319D01*
X137032606Y-59619321D01*
X137088342Y-59787525D01*
X137181365Y-59938339D01*
X137181370Y-59938345D01*
X137306654Y-60063629D01*
X137306660Y-60063634D01*
X137457474Y-60156657D01*
X137625678Y-60212393D01*
X137625681Y-60212394D01*
X137729483Y-60222999D01*
X137729483Y-60223000D01*
X137776000Y-60223000D01*
X137776000Y-57757000D01*
X137729483Y-57757000D01*
X137625681Y-57767605D01*
X137625678Y-57767606D01*
X137457474Y-57823342D01*
X137306660Y-57916365D01*
X137306654Y-57916370D01*
X137181370Y-58041654D01*
X137181365Y-58041660D01*
X137091741Y-58186965D01*
X137038955Y-58234443D01*
X136968880Y-58245846D01*
X136903764Y-58217554D01*
X136864282Y-58158548D01*
X136858500Y-58120818D01*
X136858500Y-58051367D01*
X136858499Y-58051350D01*
X136851990Y-57990803D01*
X136851988Y-57990795D01*
X136822924Y-57912875D01*
X136800889Y-57853796D01*
X136800888Y-57853794D01*
X136800887Y-57853792D01*
X136713261Y-57736738D01*
X136596207Y-57649112D01*
X136596202Y-57649110D01*
X136459204Y-57598011D01*
X136459196Y-57598009D01*
X136398649Y-57591500D01*
X136398638Y-57591500D01*
X132601362Y-57591500D01*
X132601350Y-57591500D01*
X132540803Y-57598009D01*
X132540795Y-57598011D01*
X132403797Y-57649110D01*
X132403792Y-57649112D01*
X132286738Y-57736738D01*
X132199112Y-57853792D01*
X132199110Y-57853797D01*
X132148011Y-57990795D01*
X132148009Y-57990803D01*
X132141500Y-58051350D01*
X132141500Y-58115500D01*
X132121498Y-58183621D01*
X132067842Y-58230114D01*
X132015500Y-58241500D01*
X131141373Y-58241500D01*
X131073252Y-58221498D01*
X131052278Y-58204595D01*
X131048658Y-58200975D01*
X131048652Y-58200970D01*
X130938269Y-58132885D01*
X130897738Y-58107885D01*
X130813582Y-58079999D01*
X130729427Y-58052113D01*
X130729420Y-58052112D01*
X130625553Y-58041500D01*
X129574455Y-58041500D01*
X129470574Y-58052112D01*
X129302261Y-58107885D01*
X129151347Y-58200970D01*
X129151341Y-58200975D01*
X129124095Y-58228222D01*
X129061783Y-58262248D01*
X128990968Y-58257183D01*
X128949435Y-58230490D01*
X128949410Y-58230523D01*
X128949082Y-58230264D01*
X128945905Y-58228222D01*
X128943658Y-58225975D01*
X128943652Y-58225970D01*
X128936402Y-58221498D01*
X128792738Y-58132885D01*
X128678636Y-58095076D01*
X128624427Y-58077113D01*
X128624420Y-58077112D01*
X128520553Y-58066500D01*
X127519455Y-58066500D01*
X127415574Y-58077112D01*
X127247261Y-58132885D01*
X127096347Y-58225970D01*
X127096341Y-58225975D01*
X126970975Y-58351341D01*
X126970970Y-58351347D01*
X126877885Y-58502262D01*
X126822113Y-58670572D01*
X126822112Y-58670579D01*
X126811500Y-58774446D01*
X126811500Y-59400544D01*
X126822112Y-59504425D01*
X126877885Y-59672738D01*
X126970970Y-59823652D01*
X126970975Y-59823658D01*
X127058222Y-59910905D01*
X127092248Y-59973217D01*
X127087183Y-60044032D01*
X127058222Y-60089095D01*
X126970975Y-60176341D01*
X126970970Y-60176347D01*
X126877885Y-60327262D01*
X126822112Y-60495576D01*
X126819200Y-60524081D01*
X126792377Y-60589816D01*
X126782949Y-60600368D01*
X126463596Y-60919723D01*
X126401284Y-60953748D01*
X126330468Y-60948684D01*
X126273632Y-60906137D01*
X126248821Y-60839617D01*
X126248500Y-60830628D01*
X126248500Y-58662500D01*
X126248821Y-58653512D01*
X126248999Y-58651016D01*
X126263018Y-58455001D01*
X126265576Y-58437219D01*
X126306920Y-58247165D01*
X126311984Y-58229916D01*
X126322298Y-58202262D01*
X126379957Y-58047673D01*
X126387419Y-58031334D01*
X126480639Y-57860614D01*
X126490346Y-57845511D01*
X126606918Y-57689788D01*
X126618678Y-57676217D01*
X126756217Y-57538678D01*
X126769788Y-57526918D01*
X126925511Y-57410346D01*
X126940614Y-57400639D01*
X127111334Y-57307419D01*
X127127673Y-57299957D01*
X127309917Y-57231983D01*
X127327165Y-57226920D01*
X127517219Y-57185576D01*
X127535001Y-57183018D01*
X127716891Y-57170009D01*
X127733511Y-57168821D01*
X127742499Y-57168500D01*
X127793486Y-57168500D01*
X127793580Y-57168487D01*
X158851067Y-57161881D01*
X158919187Y-57181868D01*
G37*
%TD.AperFunction*%
%TA.AperFunction,Conductor*%
G36*
X158899994Y-67462160D02*
G01*
X158968050Y-67482376D01*
X159014373Y-67536179D01*
X159025594Y-67587566D01*
X159030266Y-68579580D01*
X159010585Y-68647794D01*
X158957148Y-68694539D01*
X158886923Y-68704974D01*
X158822204Y-68675785D01*
X158815172Y-68669268D01*
X158423835Y-68277931D01*
X158423833Y-68277929D01*
X158320075Y-68208600D01*
X158204785Y-68160845D01*
X158131086Y-68146185D01*
X158082396Y-68136500D01*
X158082394Y-68136500D01*
X153579356Y-68136500D01*
X153511235Y-68116498D01*
X153464742Y-68062842D01*
X153453365Y-68009018D01*
X153456130Y-67773988D01*
X153458530Y-67569909D01*
X153479332Y-67502030D01*
X153533530Y-67456172D01*
X153584917Y-67445394D01*
X158899994Y-67462160D01*
G37*
%TD.AperFunction*%
%TA.AperFunction,Conductor*%
G36*
X146061418Y-59947392D02*
G01*
X146068838Y-59955956D01*
X146070971Y-59958654D01*
X146151429Y-60039112D01*
X146185455Y-60101424D01*
X146180390Y-60172239D01*
X146170790Y-60192341D01*
X146159521Y-60211396D01*
X146159519Y-60211401D01*
X146113104Y-60371167D01*
X146113103Y-60371171D01*
X146110166Y-60408488D01*
X146110166Y-61565500D01*
X146090164Y-61633621D01*
X146036508Y-61680114D01*
X145984166Y-61691500D01*
X145752155Y-61691500D01*
X145714837Y-61694437D01*
X145714836Y-61694437D01*
X145555060Y-61740856D01*
X145411862Y-61825544D01*
X145411855Y-61825549D01*
X145294215Y-61943189D01*
X145294212Y-61943193D01*
X145267786Y-61987878D01*
X145215893Y-62036330D01*
X145146043Y-62049035D01*
X145080412Y-62021959D01*
X145050880Y-61987878D01*
X145024453Y-61943193D01*
X145024450Y-61943189D01*
X144906810Y-61825549D01*
X144906803Y-61825544D01*
X144763605Y-61740856D01*
X144603829Y-61694437D01*
X144566511Y-61691500D01*
X144566502Y-61691500D01*
X144334500Y-61691500D01*
X144266379Y-61671498D01*
X144219886Y-61617842D01*
X144208500Y-61565500D01*
X144208500Y-60408489D01*
X144208499Y-60408488D01*
X144207674Y-60398011D01*
X144205562Y-60371169D01*
X144175365Y-60267229D01*
X144175568Y-60196236D01*
X144214122Y-60136619D01*
X144278786Y-60107311D01*
X144349031Y-60117615D01*
X144362500Y-60124833D01*
X144447262Y-60177115D01*
X144615574Y-60232887D01*
X144719455Y-60243500D01*
X145320544Y-60243499D01*
X145424426Y-60232887D01*
X145592738Y-60177115D01*
X145743652Y-60084030D01*
X145869030Y-59958652D01*
X145869031Y-59958649D01*
X145871162Y-59955956D01*
X145873098Y-59954584D01*
X145874220Y-59953463D01*
X145874411Y-59953654D01*
X145929101Y-59914925D01*
X146000026Y-59911733D01*
X146061418Y-59947392D01*
G37*
%TD.AperFunction*%
%TA.AperFunction,Conductor*%
G36*
X142490961Y-59892591D02*
G01*
X142510026Y-59891733D01*
X142524851Y-59900344D01*
X142541566Y-59904168D01*
X142570044Y-59925967D01*
X142578430Y-59934535D01*
X142580970Y-59938652D01*
X142651288Y-60008970D01*
X142651797Y-60009490D01*
X142668158Y-60040231D01*
X142684874Y-60070843D01*
X142684823Y-60071544D01*
X142685153Y-60072163D01*
X142682300Y-60106830D01*
X142679809Y-60141658D01*
X142679387Y-60142221D01*
X142679330Y-60142920D01*
X142670208Y-60161763D01*
X142640856Y-60211396D01*
X142640855Y-60211398D01*
X142640855Y-60211399D01*
X142637485Y-60222999D01*
X142594437Y-60371170D01*
X142594437Y-60371171D01*
X142591500Y-60408488D01*
X142591500Y-61565500D01*
X142571498Y-61633621D01*
X142517842Y-61680114D01*
X142465500Y-61691500D01*
X142233489Y-61691500D01*
X142196171Y-61694437D01*
X142196170Y-61694437D01*
X142036394Y-61740856D01*
X141893196Y-61825544D01*
X141893189Y-61825549D01*
X141775549Y-61943189D01*
X141775546Y-61943193D01*
X141754548Y-61978698D01*
X141702654Y-62027149D01*
X141632803Y-62039853D01*
X141567173Y-62012776D01*
X141537642Y-61978695D01*
X141533739Y-61972096D01*
X141502453Y-61919193D01*
X141502452Y-61919192D01*
X141502451Y-61919190D01*
X141384810Y-61801549D01*
X141384803Y-61801544D01*
X141241605Y-61716856D01*
X141081829Y-61670437D01*
X141044511Y-61667500D01*
X141044502Y-61667500D01*
X140812500Y-61667500D01*
X140744379Y-61647498D01*
X140697886Y-61593842D01*
X140686500Y-61541500D01*
X140686500Y-60384489D01*
X140686499Y-60384488D01*
X140683562Y-60347171D01*
X140683562Y-60347170D01*
X140683562Y-60347169D01*
X140647795Y-60224056D01*
X140647998Y-60153061D01*
X140686552Y-60093445D01*
X140751217Y-60064137D01*
X140821462Y-60074441D01*
X140834924Y-60081656D01*
X140957262Y-60157115D01*
X141125574Y-60212887D01*
X141229455Y-60223500D01*
X141830544Y-60223499D01*
X141934426Y-60212887D01*
X142102738Y-60157115D01*
X142253652Y-60064030D01*
X142379030Y-59938652D01*
X142379031Y-59938649D01*
X142381162Y-59935956D01*
X142383098Y-59934584D01*
X142384220Y-59933463D01*
X142384411Y-59933654D01*
X142395154Y-59926046D01*
X142405576Y-59912432D01*
X142423525Y-59905955D01*
X142439101Y-59894925D01*
X142456231Y-59894154D01*
X142472358Y-59888335D01*
X142490961Y-59892591D01*
G37*
%TD.AperFunction*%
%TA.AperFunction,Conductor*%
G36*
X149571418Y-59937392D02*
G01*
X149578838Y-59945956D01*
X149580971Y-59948654D01*
X149647132Y-60014815D01*
X149681158Y-60077127D01*
X149676093Y-60147942D01*
X149666492Y-60168047D01*
X149640856Y-60211396D01*
X149640855Y-60211398D01*
X149640855Y-60211399D01*
X149637485Y-60222999D01*
X149594437Y-60371170D01*
X149594437Y-60371171D01*
X149591500Y-60408488D01*
X149591500Y-61565500D01*
X149571498Y-61633621D01*
X149517842Y-61680114D01*
X149465500Y-61691500D01*
X149233489Y-61691500D01*
X149196171Y-61694437D01*
X149196170Y-61694437D01*
X149036394Y-61740856D01*
X148893196Y-61825544D01*
X148893189Y-61825549D01*
X148775549Y-61943189D01*
X148775544Y-61943196D01*
X148767785Y-61956316D01*
X148715891Y-62004768D01*
X148646041Y-62017472D01*
X148580410Y-61990395D01*
X148550881Y-61956316D01*
X148543121Y-61943196D01*
X148543116Y-61943189D01*
X148425476Y-61825549D01*
X148425469Y-61825544D01*
X148282271Y-61740856D01*
X148122495Y-61694437D01*
X148085177Y-61691500D01*
X148085168Y-61691500D01*
X147853166Y-61691500D01*
X147785045Y-61671498D01*
X147738552Y-61617842D01*
X147727166Y-61565500D01*
X147727166Y-60408489D01*
X147727165Y-60408488D01*
X147726340Y-60398011D01*
X147724228Y-60371169D01*
X147692383Y-60261556D01*
X147692586Y-60190565D01*
X147731139Y-60130949D01*
X147795804Y-60101640D01*
X147866049Y-60111944D01*
X147879521Y-60119164D01*
X147957262Y-60167115D01*
X148125574Y-60222887D01*
X148229455Y-60233500D01*
X148830544Y-60233499D01*
X148934426Y-60222887D01*
X149102738Y-60167115D01*
X149253652Y-60074030D01*
X149379030Y-59948652D01*
X149379031Y-59948649D01*
X149381162Y-59945956D01*
X149383098Y-59944584D01*
X149384220Y-59943463D01*
X149384411Y-59943654D01*
X149439101Y-59904925D01*
X149510026Y-59901733D01*
X149571418Y-59937392D01*
G37*
%TD.AperFunction*%
%TD*%
M02*
