M48
; DRILL file {KiCad 9.0.6-9.0.6~ubuntu24.04.1} date 2025-11-13T19:41:32+0900
; FORMAT={-:-/ absolute / inch / decimal}
; #@! TF.CreationDate,2025-11-13T19:41:32+09:00
; #@! TF.GenerationSoftware,Kicad,Pcbnew,9.0.6-9.0.6~ubuntu24.04.1
; #@! TF.FileFunction,Plated,1,4,PTH
FMAT,2
INCH
; #@! TA.AperFunction,Plated,PTH,ViaDrill
T1C0.0157
; #@! TA.AperFunction,Plated,PTH,ComponentDrill
T2C0.0394
; #@! TA.AperFunction,Plated,PTH,ComponentDrill
T3C0.0551
%
G90
G05
T1
X4.9969Y-2.73
X5.0303Y-2.6583
X5.1287Y-2.4516
X5.1443Y-2.6366
X5.2272Y-2.865
X5.2567Y-2.6386
X5.3451Y-2.8323
X5.3453Y-2.7764
X5.4339Y-2.4713
X5.4732Y-2.2744
X5.4974Y-2.855
X5.5394Y-2.3096
X5.5787Y-2.4041
X5.7165Y-2.4061
X5.739Y-2.8354
X5.7541Y-2.985
X5.8276Y-2.865
X5.8607Y-2.4035
X5.8728Y-3.0214
X5.9213Y-2.765
X5.9291Y-3.0344
X5.9411Y-2.823
X5.9843Y-2.6404
X6.0205Y-2.9186
X6.0827Y-2.6772
X6.1524Y-2.9732
T2
X5.0591Y-2.975
X5.1591Y-2.975
X5.2591Y-2.975
X5.4591Y-2.975
X6.4591Y-2.375
X6.4591Y-2.475
X6.4591Y-2.825
T3
X6.4591Y-2.975
M30
