%TF.GenerationSoftware,KiCad,Pcbnew,8.99.0-unknown-2123e2ca9c~177~ubuntu22.04.1*%
%TF.CreationDate,2024-04-04T17:44:23+09:00*%
%TF.ProjectId,SafePulse,53616665-5075-46c7-9365-2e6b69636164,V1.2.4*%
%TF.SameCoordinates,PX78d49e0PY49c7f08*%
%TF.FileFunction,Paste,Top*%
%TF.FilePolarity,Positive*%
%FSLAX46Y46*%
G04 Gerber Fmt 4.6, Leading zero omitted, Abs format (unit mm)*
G04 Created by KiCad (PCBNEW 8.99.0-unknown-2123e2ca9c~177~ubuntu22.04.1) date 2024-04-04 17:44:23*
%MOMM*%
%LPD*%
G01*
G04 APERTURE LIST*
G04 Aperture macros list*
%AMRoundRect*
0 Rectangle with rounded corners*
0 $1 Rounding radius*
0 $2 $3 $4 $5 $6 $7 $8 $9 X,Y pos of 4 corners*
0 Add a 4 corners polygon primitive as box body*
4,1,4,$2,$3,$4,$5,$6,$7,$8,$9,$2,$3,0*
0 Add four circle primitives for the rounded corners*
1,1,$1+$1,$2,$3*
1,1,$1+$1,$4,$5*
1,1,$1+$1,$6,$7*
1,1,$1+$1,$8,$9*
0 Add four rect primitives between the rounded corners*
20,1,$1+$1,$2,$3,$4,$5,0*
20,1,$1+$1,$4,$5,$6,$7,0*
20,1,$1+$1,$6,$7,$8,$9,0*
20,1,$1+$1,$8,$9,$2,$3,0*%
G04 Aperture macros list end*
%ADD10RoundRect,0.250000X-0.250000X-0.475000X0.250000X-0.475000X0.250000X0.475000X-0.250000X0.475000X0*%
%ADD11RoundRect,0.250000X0.450000X-0.262500X0.450000X0.262500X-0.450000X0.262500X-0.450000X-0.262500X0*%
%ADD12RoundRect,0.150000X0.150000X-0.587500X0.150000X0.587500X-0.150000X0.587500X-0.150000X-0.587500X0*%
%ADD13RoundRect,0.250000X-0.450000X0.262500X-0.450000X-0.262500X0.450000X-0.262500X0.450000X0.262500X0*%
%ADD14RoundRect,0.250000X0.262500X0.450000X-0.262500X0.450000X-0.262500X-0.450000X0.262500X-0.450000X0*%
%ADD15RoundRect,0.250000X-0.475000X0.250000X-0.475000X-0.250000X0.475000X-0.250000X0.475000X0.250000X0*%
%ADD16RoundRect,0.250000X-0.625000X0.312500X-0.625000X-0.312500X0.625000X-0.312500X0.625000X0.312500X0*%
%ADD17R,3.700000X1.200000*%
%ADD18RoundRect,0.250000X-0.262500X-0.450000X0.262500X-0.450000X0.262500X0.450000X-0.262500X0.450000X0*%
%ADD19RoundRect,0.150000X0.150000X-0.825000X0.150000X0.825000X-0.150000X0.825000X-0.150000X-0.825000X0*%
%ADD20R,2.000000X1.500000*%
%ADD21R,2.000000X3.800000*%
%ADD22R,0.450000X0.600000*%
%ADD23RoundRect,0.250000X0.250000X0.475000X-0.250000X0.475000X-0.250000X-0.475000X0.250000X-0.475000X0*%
%ADD24R,1.075000X0.450000*%
G04 APERTURE END LIST*
D10*
%TO.C,C11*%
X19268666Y12315000D03*
X21168666Y12315000D03*
%TD*%
D11*
%TO.C,F1*%
X900000Y4537500D03*
X900000Y6362500D03*
%TD*%
D10*
%TO.C,C9*%
X15748333Y12315000D03*
X17648333Y12315000D03*
%TD*%
D12*
%TO.C,D8*%
X29750000Y14427500D03*
X31650000Y14427500D03*
X30700000Y16302500D03*
%TD*%
%TO.C,D4*%
X15750000Y14427500D03*
X17650000Y14427500D03*
X16700000Y16302500D03*
%TD*%
D10*
%TO.C,C12*%
X21830000Y18365000D03*
X23730000Y18365000D03*
%TD*%
%TO.C,C13*%
X22788999Y12315000D03*
X24688999Y12315000D03*
%TD*%
D13*
%TO.C,R17*%
X30820000Y6845000D03*
X30820000Y5020000D03*
%TD*%
D10*
%TO.C,C10*%
X18320000Y18355000D03*
X20220000Y18355000D03*
%TD*%
D12*
%TO.C,D3*%
X12228000Y14451500D03*
X14128000Y14451500D03*
X13178000Y16326500D03*
%TD*%
D14*
%TO.C,R8*%
X21124498Y9845000D03*
X19299498Y9845000D03*
%TD*%
D11*
%TO.C,FB2*%
X1320000Y16452500D03*
X1320000Y18277500D03*
%TD*%
D14*
%TO.C,R7*%
X24651499Y9845000D03*
X22826499Y9845000D03*
%TD*%
D13*
%TO.C,R6*%
X18320000Y5507500D03*
X18320000Y3682500D03*
%TD*%
D10*
%TO.C,C15*%
X26309332Y12315000D03*
X28209332Y12315000D03*
%TD*%
D12*
%TO.C,D6*%
X22750000Y14427500D03*
X24650000Y14427500D03*
X23700000Y16302500D03*
%TD*%
%TO.C,D7*%
X26250000Y14427500D03*
X28150000Y14427500D03*
X27200000Y16302500D03*
%TD*%
D10*
%TO.C,C6*%
X11330000Y18375000D03*
X13230000Y18375000D03*
%TD*%
D15*
%TO.C,C5*%
X3400000Y18315000D03*
X3400000Y16415000D03*
%TD*%
D16*
%TO.C,R1*%
X36598000Y11644500D03*
X36598000Y8719500D03*
%TD*%
D10*
%TO.C,C17*%
X29829665Y12315000D03*
X31729665Y12315000D03*
%TD*%
D14*
%TO.C,R18*%
X15982500Y4845000D03*
X14157500Y4845000D03*
%TD*%
D10*
%TO.C,C7*%
X12228000Y12315000D03*
X14128000Y12315000D03*
%TD*%
%TO.C,C14*%
X25360000Y18355000D03*
X27260000Y18355000D03*
%TD*%
D17*
%TO.C,L1*%
X7800000Y18665000D03*
X7800000Y15865000D03*
%TD*%
D11*
%TO.C,R11*%
X14850000Y1237500D03*
X14850000Y3062500D03*
%TD*%
D18*
%TO.C,R10*%
X12245500Y9845000D03*
X14070500Y9845000D03*
%TD*%
D10*
%TO.C,C18*%
X32320000Y18365000D03*
X34220000Y18365000D03*
%TD*%
D14*
%TO.C,R9*%
X17597499Y9845000D03*
X15772499Y9845000D03*
%TD*%
%TO.C,R13*%
X15982500Y6845000D03*
X14157500Y6845000D03*
%TD*%
D10*
%TO.C,C16*%
X28840000Y18365000D03*
X30740000Y18365000D03*
%TD*%
D19*
%TO.C,U4*%
X20125000Y1370000D03*
X21395000Y1370000D03*
X22665000Y1370000D03*
X23935000Y1370000D03*
X25205000Y1370000D03*
X26475000Y1370000D03*
X27745000Y1370000D03*
X29015000Y1370000D03*
X29015000Y6320000D03*
X27745000Y6320000D03*
X26475000Y6320000D03*
X25205000Y6320000D03*
X23935000Y6320000D03*
X22665000Y6320000D03*
X21395000Y6320000D03*
X20125000Y6320000D03*
%TD*%
D20*
%TO.C,Q1*%
X1976000Y13625000D03*
X1976000Y9025000D03*
D21*
X8276000Y11325000D03*
D20*
X1976000Y11325000D03*
%TD*%
D12*
%TO.C,D9*%
X33250000Y14427500D03*
X35150000Y14427500D03*
X34200000Y16302500D03*
%TD*%
D22*
%TO.C,D2*%
X30820000Y1045000D03*
X30820000Y3145000D03*
%TD*%
D23*
%TO.C,C19*%
X12320000Y6845000D03*
X10420000Y6845000D03*
%TD*%
D10*
%TO.C,C8*%
X14830000Y18375000D03*
X16730000Y18375000D03*
%TD*%
D12*
%TO.C,D5*%
X19268666Y14427500D03*
X21168666Y14427500D03*
X20218666Y16302500D03*
%TD*%
D24*
%TO.C,IC1*%
X7338000Y4825000D03*
X7338000Y5475000D03*
X7338000Y6125000D03*
X7338000Y6775000D03*
X3462000Y6775000D03*
X3462000Y6125000D03*
X3462000Y5475000D03*
X3462000Y4825000D03*
%TD*%
D10*
%TO.C,C3*%
X16620000Y1095000D03*
X18520000Y1095000D03*
%TD*%
M02*
