%TF.GenerationSoftware,KiCad,Pcbnew,9.0.6-9.0.6~ubuntu24.04.1*%
%TF.CreationDate,2025-11-13T19:41:32+09:00*%
%TF.ProjectId,SafePulse,53616665-5075-46c7-9365-2e6b69636164,V1.2.2*%
%TF.SameCoordinates,Original*%
%TF.FileFunction,Soldermask,Top*%
%TF.FilePolarity,Negative*%
%FSLAX46Y46*%
G04 Gerber Fmt 4.6, Leading zero omitted, Abs format (unit mm)*
G04 Created by KiCad (PCBNEW 9.0.6-9.0.6~ubuntu24.04.1) date 2025-11-13 19:41:32*
%MOMM*%
%LPD*%
G01*
G04 APERTURE LIST*
G04 Aperture macros list*
%AMRoundRect*
0 Rectangle with rounded corners*
0 $1 Rounding radius*
0 $2 $3 $4 $5 $6 $7 $8 $9 X,Y pos of 4 corners*
0 Add a 4 corners polygon primitive as box body*
4,1,4,$2,$3,$4,$5,$6,$7,$8,$9,$2,$3,0*
0 Add four circle primitives for the rounded corners*
1,1,$1+$1,$2,$3*
1,1,$1+$1,$4,$5*
1,1,$1+$1,$6,$7*
1,1,$1+$1,$8,$9*
0 Add four rect primitives between the rounded corners*
20,1,$1+$1,$2,$3,$4,$5,0*
20,1,$1+$1,$4,$5,$6,$7,0*
20,1,$1+$1,$6,$7,$8,$9,0*
20,1,$1+$1,$8,$9,$2,$3,0*%
G04 Aperture macros list end*
%ADD10RoundRect,0.250000X-0.250000X-0.475000X0.250000X-0.475000X0.250000X0.475000X-0.250000X0.475000X0*%
%ADD11RoundRect,0.250000X0.450000X-0.262500X0.450000X0.262500X-0.450000X0.262500X-0.450000X-0.262500X0*%
%ADD12C,1.700000*%
%ADD13O,1.700000X1.700000*%
%ADD14C,2.500000*%
%ADD15C,2.800000*%
%ADD16RoundRect,0.150000X0.150000X-0.587500X0.150000X0.587500X-0.150000X0.587500X-0.150000X-0.587500X0*%
%ADD17RoundRect,0.250000X-0.450000X0.262500X-0.450000X-0.262500X0.450000X-0.262500X0.450000X0.262500X0*%
%ADD18RoundRect,0.250000X0.262500X0.450000X-0.262500X0.450000X-0.262500X-0.450000X0.262500X-0.450000X0*%
%ADD19RoundRect,0.250000X-0.475000X0.250000X-0.475000X-0.250000X0.475000X-0.250000X0.475000X0.250000X0*%
%ADD20R,1.700000X1.700000*%
%ADD21RoundRect,0.250000X-0.625000X0.312500X-0.625000X-0.312500X0.625000X-0.312500X0.625000X0.312500X0*%
%ADD22R,3.700000X1.200000*%
%ADD23RoundRect,0.250000X-0.262500X-0.450000X0.262500X-0.450000X0.262500X0.450000X-0.262500X0.450000X0*%
%ADD24RoundRect,0.150000X0.150000X-0.825000X0.150000X0.825000X-0.150000X0.825000X-0.150000X-0.825000X0*%
%ADD25R,2.000000X1.500000*%
%ADD26R,2.000000X3.800000*%
%ADD27R,0.450000X0.600000*%
%ADD28R,1.000000X1.000000*%
%ADD29RoundRect,0.250000X0.250000X0.475000X-0.250000X0.475000X-0.250000X-0.475000X0.250000X-0.475000X0*%
G04 APERTURE END LIST*
D10*
%TO.C,C11*%
X145968666Y-65050000D03*
X147868666Y-65050000D03*
%TD*%
D11*
%TO.C,F1*%
X128500000Y-72413500D03*
X128500000Y-70588500D03*
%TD*%
D12*
%TO.C,two_pinheader1*%
X164060000Y-60325000D03*
D13*
X164060000Y-62865000D03*
%TD*%
D10*
%TO.C,C9*%
X142448333Y-65050000D03*
X144348333Y-65050000D03*
%TD*%
D14*
%TO.C,H2*%
X164060000Y-71755000D03*
%TD*%
D15*
%TO.C,H4*%
X164060000Y-75565000D03*
%TD*%
D16*
%TO.C,D8*%
X156450000Y-62937500D03*
X158350000Y-62937500D03*
X157400000Y-61062500D03*
%TD*%
%TO.C,D4*%
X142450000Y-62937500D03*
X144350000Y-62937500D03*
X143400000Y-61062500D03*
%TD*%
D10*
%TO.C,C12*%
X148530000Y-59000000D03*
X150430000Y-59000000D03*
%TD*%
%TO.C,C13*%
X149488999Y-65050000D03*
X151388999Y-65050000D03*
%TD*%
D17*
%TO.C,R17*%
X157520000Y-70520000D03*
X157520000Y-72345000D03*
%TD*%
D10*
%TO.C,C10*%
X145020000Y-59010000D03*
X146920000Y-59010000D03*
%TD*%
D16*
%TO.C,D3*%
X138928000Y-62913500D03*
X140828000Y-62913500D03*
X139878000Y-61038500D03*
%TD*%
D18*
%TO.C,R8*%
X147824498Y-67520000D03*
X145999498Y-67520000D03*
%TD*%
D11*
%TO.C,FB2*%
X128020000Y-60912500D03*
X128020000Y-59087500D03*
%TD*%
D18*
%TO.C,R7*%
X151351499Y-67520000D03*
X149526499Y-67520000D03*
%TD*%
D17*
%TO.C,R6*%
X145020000Y-71857500D03*
X145020000Y-73682500D03*
%TD*%
D10*
%TO.C,C15*%
X153009332Y-65050000D03*
X154909332Y-65050000D03*
%TD*%
D16*
%TO.C,D6*%
X149450000Y-62937500D03*
X151350000Y-62937500D03*
X150400000Y-61062500D03*
%TD*%
D15*
%TO.C,H1*%
X138660000Y-75565000D03*
%TD*%
D16*
%TO.C,D7*%
X152950000Y-62937500D03*
X154850000Y-62937500D03*
X153900000Y-61062500D03*
%TD*%
D10*
%TO.C,C6*%
X138030000Y-58990000D03*
X139930000Y-58990000D03*
%TD*%
D19*
%TO.C,C5*%
X130100000Y-59050000D03*
X130100000Y-60950000D03*
%TD*%
D20*
%TO.C,J1*%
X128500000Y-75565000D03*
D13*
X131040000Y-75565000D03*
X133580000Y-75565000D03*
%TD*%
D21*
%TO.C,R1*%
X163298000Y-65720500D03*
X163298000Y-68645500D03*
%TD*%
D10*
%TO.C,C17*%
X156529665Y-65050000D03*
X158429665Y-65050000D03*
%TD*%
D18*
%TO.C,R18*%
X142682500Y-72520000D03*
X140857500Y-72520000D03*
%TD*%
D10*
%TO.C,C7*%
X138928000Y-65050000D03*
X140828000Y-65050000D03*
%TD*%
%TO.C,C14*%
X152060000Y-59010000D03*
X153960000Y-59010000D03*
%TD*%
D22*
%TO.C,L1*%
X134500000Y-58700000D03*
X134500000Y-61500000D03*
%TD*%
D11*
%TO.C,R11*%
X141520000Y-76682500D03*
X141520000Y-74857500D03*
%TD*%
D23*
%TO.C,R10*%
X138945500Y-67520000D03*
X140770500Y-67520000D03*
%TD*%
D10*
%TO.C,C18*%
X159020000Y-59000000D03*
X160920000Y-59000000D03*
%TD*%
D18*
%TO.C,R9*%
X144297499Y-67520000D03*
X142472499Y-67520000D03*
%TD*%
%TO.C,R13*%
X142682500Y-70520000D03*
X140857500Y-70520000D03*
%TD*%
D10*
%TO.C,C16*%
X155540000Y-59000000D03*
X157440000Y-59000000D03*
%TD*%
D24*
%TO.C,U4*%
X146825000Y-75995000D03*
X148095000Y-75995000D03*
X149365000Y-75995000D03*
X150635000Y-75995000D03*
X151905000Y-75995000D03*
X153175000Y-75995000D03*
X154445000Y-75995000D03*
X155715000Y-75995000D03*
X155715000Y-71045000D03*
X154445000Y-71045000D03*
X153175000Y-71045000D03*
X151905000Y-71045000D03*
X150635000Y-71045000D03*
X149365000Y-71045000D03*
X148095000Y-71045000D03*
X146825000Y-71045000D03*
%TD*%
D25*
%TO.C,Q1*%
X128676000Y-63740000D03*
X128676000Y-68340000D03*
D26*
X134976000Y-66040000D03*
D25*
X128676000Y-66040000D03*
%TD*%
D16*
%TO.C,D9*%
X159950000Y-62937500D03*
X161850000Y-62937500D03*
X160900000Y-61062500D03*
%TD*%
D27*
%TO.C,D2*%
X157520000Y-76320000D03*
X157520000Y-74220000D03*
%TD*%
D28*
%TO.C,TP7*%
X165584000Y-65913000D03*
%TD*%
D29*
%TO.C,C19*%
X139020000Y-70520000D03*
X137120000Y-70520000D03*
%TD*%
D10*
%TO.C,C8*%
X141530000Y-58990000D03*
X143430000Y-58990000D03*
%TD*%
D16*
%TO.C,D5*%
X145968666Y-62937500D03*
X147868666Y-62937500D03*
X146918666Y-61062500D03*
%TD*%
D10*
%TO.C,C3*%
X143320000Y-76270000D03*
X145220000Y-76270000D03*
%TD*%
M02*
