G04 #@! TF.GenerationSoftware,KiCad,Pcbnew,8.99.0-1513-g7fef6e8d83*
G04 #@! TF.CreationDate,2024-06-23T17:30:35+12:00*
G04 #@! TF.ProjectId,SafePulse,53616665-5075-46c7-9365-2e6b69636164,V1.2.4*
G04 #@! TF.SameCoordinates,PX78d49e0PY49c7f08*
G04 #@! TF.FileFunction,Soldermask,Top*
G04 #@! TF.FilePolarity,Negative*
%FSLAX46Y46*%
G04 Gerber Fmt 4.6, Leading zero omitted, Abs format (unit mm)*
G04 Created by KiCad (PCBNEW 8.99.0-1513-g7fef6e8d83) date 2024-06-23 17:30:35*
%MOMM*%
%LPD*%
G01*
G04 APERTURE LIST*
G04 Aperture macros list*
%AMRoundRect*
0 Rectangle with rounded corners*
0 $1 Rounding radius*
0 $2 $3 $4 $5 $6 $7 $8 $9 X,Y pos of 4 corners*
0 Add a 4 corners polygon primitive as box body*
4,1,4,$2,$3,$4,$5,$6,$7,$8,$9,$2,$3,0*
0 Add four circle primitives for the rounded corners*
1,1,$1+$1,$2,$3*
1,1,$1+$1,$4,$5*
1,1,$1+$1,$6,$7*
1,1,$1+$1,$8,$9*
0 Add four rect primitives between the rounded corners*
20,1,$1+$1,$2,$3,$4,$5,0*
20,1,$1+$1,$4,$5,$6,$7,0*
20,1,$1+$1,$6,$7,$8,$9,0*
20,1,$1+$1,$8,$9,$2,$3,0*%
G04 Aperture macros list end*
%ADD10R,1.075000X0.450000*%
%ADD11RoundRect,0.250000X-0.250000X-0.475000X0.250000X-0.475000X0.250000X0.475000X-0.250000X0.475000X0*%
%ADD12RoundRect,0.250000X0.450000X-0.262500X0.450000X0.262500X-0.450000X0.262500X-0.450000X-0.262500X0*%
%ADD13C,1.700000*%
%ADD14O,1.700000X1.700000*%
%ADD15C,2.500000*%
%ADD16C,2.800000*%
%ADD17RoundRect,0.150000X0.150000X-0.587500X0.150000X0.587500X-0.150000X0.587500X-0.150000X-0.587500X0*%
%ADD18RoundRect,0.250000X-0.450000X0.262500X-0.450000X-0.262500X0.450000X-0.262500X0.450000X0.262500X0*%
%ADD19RoundRect,0.250000X0.262500X0.450000X-0.262500X0.450000X-0.262500X-0.450000X0.262500X-0.450000X0*%
%ADD20RoundRect,0.250000X-0.475000X0.250000X-0.475000X-0.250000X0.475000X-0.250000X0.475000X0.250000X0*%
%ADD21R,1.700000X1.700000*%
%ADD22RoundRect,0.250000X-0.625000X0.312500X-0.625000X-0.312500X0.625000X-0.312500X0.625000X0.312500X0*%
%ADD23R,3.700000X1.200000*%
%ADD24RoundRect,0.250000X-0.262500X-0.450000X0.262500X-0.450000X0.262500X0.450000X-0.262500X0.450000X0*%
%ADD25RoundRect,0.150000X0.150000X-0.825000X0.150000X0.825000X-0.150000X0.825000X-0.150000X-0.825000X0*%
%ADD26R,2.000000X1.500000*%
%ADD27R,2.000000X3.800000*%
%ADD28R,0.450000X0.600000*%
%ADD29R,1.000000X1.000000*%
%ADD30RoundRect,0.250000X0.250000X0.475000X-0.250000X0.475000X-0.250000X-0.475000X0.250000X-0.475000X0*%
%ADD31C,0.800000*%
G04 APERTURE END LIST*
D10*
X7338000Y4825000D03*
X7338000Y5475000D03*
X7338000Y6125000D03*
X7338000Y6775000D03*
X3462000Y6775000D03*
X3462000Y6125000D03*
X3462000Y5475000D03*
X3462000Y4825000D03*
D11*
X19268666Y12315000D03*
X21168666Y12315000D03*
D12*
X900000Y4537500D03*
X900000Y6362500D03*
D13*
X37360000Y17040000D03*
D14*
X37360000Y14500000D03*
D11*
X15748333Y12315000D03*
X17648333Y12315000D03*
D15*
X37360000Y5610000D03*
D16*
X37360000Y1800000D03*
D17*
X29750000Y14427500D03*
X31650000Y14427500D03*
X30700000Y16302500D03*
X15750000Y14427500D03*
X17650000Y14427500D03*
X16700000Y16302500D03*
D11*
X21830000Y18365000D03*
X23730000Y18365000D03*
X22788999Y12315000D03*
X24688999Y12315000D03*
D18*
X30820000Y6845000D03*
X30820000Y5020000D03*
D11*
X18320000Y18355000D03*
X20220000Y18355000D03*
D17*
X12228000Y14451500D03*
X14128000Y14451500D03*
X13178000Y16326500D03*
D19*
X21124498Y9845000D03*
X19299498Y9845000D03*
D12*
X1320000Y16452500D03*
X1320000Y18277500D03*
D19*
X24651499Y9845000D03*
X22826499Y9845000D03*
D18*
X18320000Y5507500D03*
X18320000Y3682500D03*
D11*
X26309332Y12315000D03*
X28209332Y12315000D03*
D17*
X22750000Y14427500D03*
X24650000Y14427500D03*
X23700000Y16302500D03*
D16*
X11960000Y1800000D03*
D17*
X26250000Y14427500D03*
X28150000Y14427500D03*
X27200000Y16302500D03*
D11*
X11330000Y18375000D03*
X13230000Y18375000D03*
D20*
X3400000Y18315000D03*
X3400000Y16415000D03*
D21*
X1800000Y1800000D03*
D14*
X4340000Y1800000D03*
X6880000Y1800000D03*
D22*
X36598000Y11644500D03*
X36598000Y8719500D03*
D11*
X29829665Y12315000D03*
X31729665Y12315000D03*
D19*
X15982500Y4845000D03*
X14157500Y4845000D03*
D11*
X12228000Y12315000D03*
X14128000Y12315000D03*
X25360000Y18355000D03*
X27260000Y18355000D03*
D23*
X7800000Y18665000D03*
X7800000Y15865000D03*
D12*
X14850000Y1237500D03*
X14850000Y3062500D03*
D24*
X12245500Y9845000D03*
X14070500Y9845000D03*
D11*
X32320000Y18365000D03*
X34220000Y18365000D03*
D19*
X17597499Y9845000D03*
X15772499Y9845000D03*
X15982500Y6845000D03*
X14157500Y6845000D03*
D11*
X28840000Y18365000D03*
X30740000Y18365000D03*
D25*
X20125000Y1370000D03*
X21395000Y1370000D03*
X22665000Y1370000D03*
X23935000Y1370000D03*
X25205000Y1370000D03*
X26475000Y1370000D03*
X27745000Y1370000D03*
X29015000Y1370000D03*
X29015000Y6320000D03*
X27745000Y6320000D03*
X26475000Y6320000D03*
X25205000Y6320000D03*
X23935000Y6320000D03*
X22665000Y6320000D03*
X21395000Y6320000D03*
X20125000Y6320000D03*
D26*
X1976000Y13625000D03*
X1976000Y9025000D03*
D27*
X8276000Y11325000D03*
D26*
X1976000Y11325000D03*
D17*
X33250000Y14427500D03*
X35150000Y14427500D03*
X34200000Y16302500D03*
D28*
X30820000Y1045000D03*
X30820000Y3145000D03*
D29*
X38884000Y11452000D03*
D30*
X12320000Y6845000D03*
X10420000Y6845000D03*
D11*
X14830000Y18375000D03*
X16730000Y18375000D03*
D17*
X19268666Y14427500D03*
X21168666Y14427500D03*
X20218666Y16302500D03*
D11*
X16620000Y1095000D03*
X18520000Y1095000D03*
D31*
X19446747Y1733798D03*
X18500000Y16251183D03*
X27800000Y9365000D03*
X23550000Y7463500D03*
X2250000Y7800000D03*
X15000000Y16300000D03*
X22161441Y16315130D03*
X11301303Y14625832D03*
X29750000Y1850000D03*
X7950000Y7450000D03*
X23900000Y4900000D03*
X5300000Y5000000D03*
X9400000Y6800000D03*
X4450000Y16200000D03*
X6150000Y10400000D03*
X100000Y11900000D03*
X12934500Y4848000D03*
X9064700Y5423900D03*
X6700000Y7750000D03*
X19450000Y4950000D03*
X22250000Y251500D03*
X2300000Y6800000D03*
X4000000Y8900000D03*
X2300000Y5800000D03*
X14000000Y18700000D03*
X6030000Y11970000D03*
X3550000Y13950000D03*
X21320000Y4595000D03*
X26219800Y3233400D03*
X25300000Y10300000D03*
M02*
