G04 #@! TF.GenerationSoftware,KiCad,Pcbnew,8.99.0-1513-g7fef6e8d83*
G04 #@! TF.CreationDate,2024-06-23T17:30:35+12:00*
G04 #@! TF.ProjectId,SafePulse,53616665-5075-46c7-9365-2e6b69636164,V1.2.4*
G04 #@! TF.SameCoordinates,PX78d49e0PY49c7f08*
G04 #@! TF.FileFunction,Legend,Top*
G04 #@! TF.FilePolarity,Positive*
%FSLAX46Y46*%
G04 Gerber Fmt 4.6, Leading zero omitted, Abs format (unit mm)*
G04 Created by KiCad (PCBNEW 8.99.0-1513-g7fef6e8d83) date 2024-06-23 17:30:35*
%MOMM*%
%LPD*%
G01*
G04 APERTURE LIST*
%ADD10C,0.150000*%
%ADD11C,0.075000*%
%ADD12C,0.100000*%
%ADD13C,0.125000*%
%ADD14C,0.200000*%
%ADD15C,0.120000*%
%ADD16C,0.360000*%
G04 APERTURE END LIST*
D10*
X10714000Y8095000D02*
X32700000Y8095000D01*
X31670000Y1595000D02*
X29970000Y1595000D01*
X32700000Y8095000D02*
X32700000Y-205000D01*
X32700000Y-220000D02*
X38771000Y-215787D01*
X10714000Y8095000D02*
X10714000Y19707000D01*
X39897000Y1065000D02*
X38771000Y-215787D01*
X39904000Y18707000D02*
X39897000Y1065000D01*
X38820000Y19707000D02*
X10714000Y19707000D01*
X38820000Y19707000D02*
X39904000Y18707000D01*
D11*
X1066669Y-103600D02*
X1138097Y-127409D01*
X1138097Y-127409D02*
X1257145Y-127409D01*
X1257145Y-127409D02*
X1304764Y-103600D01*
X1304764Y-103600D02*
X1328573Y-79790D01*
X1328573Y-79790D02*
X1352383Y-32171D01*
X1352383Y-32171D02*
X1352383Y15448D01*
X1352383Y15448D02*
X1328573Y63067D01*
X1328573Y63067D02*
X1304764Y86877D01*
X1304764Y86877D02*
X1257145Y110686D01*
X1257145Y110686D02*
X1161907Y134496D01*
X1161907Y134496D02*
X1114288Y158305D01*
X1114288Y158305D02*
X1090478Y182115D01*
X1090478Y182115D02*
X1066669Y229734D01*
X1066669Y229734D02*
X1066669Y277353D01*
X1066669Y277353D02*
X1090478Y324972D01*
X1090478Y324972D02*
X1114288Y348781D01*
X1114288Y348781D02*
X1161907Y372591D01*
X1161907Y372591D02*
X1280954Y372591D01*
X1280954Y372591D02*
X1352383Y348781D01*
X1542859Y15448D02*
X1780954Y15448D01*
X1495240Y-127409D02*
X1661906Y372591D01*
X1661906Y372591D02*
X1828573Y-127409D01*
X2161906Y134496D02*
X1995239Y134496D01*
X1995239Y-127409D02*
X1995239Y372591D01*
X1995239Y372591D02*
X2233334Y372591D01*
X2423810Y134496D02*
X2590477Y134496D01*
X2661905Y-127409D02*
X2423810Y-127409D01*
X2423810Y-127409D02*
X2423810Y372591D01*
X2423810Y372591D02*
X2661905Y372591D01*
X2876191Y-127409D02*
X2876191Y372591D01*
X2876191Y372591D02*
X3066667Y372591D01*
X3066667Y372591D02*
X3114286Y348781D01*
X3114286Y348781D02*
X3138096Y324972D01*
X3138096Y324972D02*
X3161905Y277353D01*
X3161905Y277353D02*
X3161905Y205924D01*
X3161905Y205924D02*
X3138096Y158305D01*
X3138096Y158305D02*
X3114286Y134496D01*
X3114286Y134496D02*
X3066667Y110686D01*
X3066667Y110686D02*
X2876191Y110686D01*
X3376191Y372591D02*
X3376191Y-32171D01*
X3376191Y-32171D02*
X3400001Y-79790D01*
X3400001Y-79790D02*
X3423810Y-103600D01*
X3423810Y-103600D02*
X3471429Y-127409D01*
X3471429Y-127409D02*
X3566667Y-127409D01*
X3566667Y-127409D02*
X3614286Y-103600D01*
X3614286Y-103600D02*
X3638096Y-79790D01*
X3638096Y-79790D02*
X3661905Y-32171D01*
X3661905Y-32171D02*
X3661905Y372591D01*
X4138096Y-127409D02*
X3900001Y-127409D01*
X3900001Y-127409D02*
X3900001Y372591D01*
X4280954Y-103600D02*
X4352382Y-127409D01*
X4352382Y-127409D02*
X4471430Y-127409D01*
X4471430Y-127409D02*
X4519049Y-103600D01*
X4519049Y-103600D02*
X4542858Y-79790D01*
X4542858Y-79790D02*
X4566668Y-32171D01*
X4566668Y-32171D02*
X4566668Y15448D01*
X4566668Y15448D02*
X4542858Y63067D01*
X4542858Y63067D02*
X4519049Y86877D01*
X4519049Y86877D02*
X4471430Y110686D01*
X4471430Y110686D02*
X4376192Y134496D01*
X4376192Y134496D02*
X4328573Y158305D01*
X4328573Y158305D02*
X4304763Y182115D01*
X4304763Y182115D02*
X4280954Y229734D01*
X4280954Y229734D02*
X4280954Y277353D01*
X4280954Y277353D02*
X4304763Y324972D01*
X4304763Y324972D02*
X4328573Y348781D01*
X4328573Y348781D02*
X4376192Y372591D01*
X4376192Y372591D02*
X4495239Y372591D01*
X4495239Y372591D02*
X4566668Y348781D01*
X4780953Y134496D02*
X4947620Y134496D01*
X5019048Y-127409D02*
X4780953Y-127409D01*
X4780953Y-127409D02*
X4780953Y372591D01*
X4780953Y372591D02*
X5019048Y372591D01*
X5542858Y372591D02*
X5709524Y-127409D01*
X5709524Y-127409D02*
X5876191Y372591D01*
X6304762Y-127409D02*
X6019048Y-127409D01*
X6161905Y-127409D02*
X6161905Y372591D01*
X6161905Y372591D02*
X6114286Y301162D01*
X6114286Y301162D02*
X6066667Y253543D01*
X6066667Y253543D02*
X6019048Y229734D01*
X6519047Y-79790D02*
X6542857Y-103600D01*
X6542857Y-103600D02*
X6519047Y-127409D01*
X6519047Y-127409D02*
X6495238Y-103600D01*
X6495238Y-103600D02*
X6519047Y-79790D01*
X6519047Y-79790D02*
X6519047Y-127409D01*
X6733333Y324972D02*
X6757142Y348781D01*
X6757142Y348781D02*
X6804761Y372591D01*
X6804761Y372591D02*
X6923809Y372591D01*
X6923809Y372591D02*
X6971428Y348781D01*
X6971428Y348781D02*
X6995237Y324972D01*
X6995237Y324972D02*
X7019047Y277353D01*
X7019047Y277353D02*
X7019047Y229734D01*
X7019047Y229734D02*
X6995237Y158305D01*
X6995237Y158305D02*
X6709523Y-127409D01*
X6709523Y-127409D02*
X7019047Y-127409D01*
X7233332Y-79790D02*
X7257142Y-103600D01*
X7257142Y-103600D02*
X7233332Y-127409D01*
X7233332Y-127409D02*
X7209523Y-103600D01*
X7209523Y-103600D02*
X7233332Y-79790D01*
X7233332Y-79790D02*
X7233332Y-127409D01*
X7709522Y372591D02*
X7471427Y372591D01*
X7471427Y372591D02*
X7447618Y134496D01*
X7447618Y134496D02*
X7471427Y158305D01*
X7471427Y158305D02*
X7519046Y182115D01*
X7519046Y182115D02*
X7638094Y182115D01*
X7638094Y182115D02*
X7685713Y158305D01*
X7685713Y158305D02*
X7709522Y134496D01*
X7709522Y134496D02*
X7733332Y86877D01*
X7733332Y86877D02*
X7733332Y-32171D01*
X7733332Y-32171D02*
X7709522Y-79790D01*
X7709522Y-79790D02*
X7685713Y-103600D01*
X7685713Y-103600D02*
X7638094Y-127409D01*
X7638094Y-127409D02*
X7519046Y-127409D01*
X7519046Y-127409D02*
X7471427Y-103600D01*
X7471427Y-103600D02*
X7447618Y-79790D01*
D12*
X1379048Y3123534D02*
X2140953Y3123534D01*
X1760000Y2742581D02*
X1760000Y3504486D01*
X3395238Y3073891D02*
X3395238Y3573891D01*
X3395238Y3573891D02*
X3585714Y3573891D01*
X3585714Y3573891D02*
X3633333Y3550081D01*
X3633333Y3550081D02*
X3657143Y3526272D01*
X3657143Y3526272D02*
X3680952Y3478653D01*
X3680952Y3478653D02*
X3680952Y3407224D01*
X3680952Y3407224D02*
X3657143Y3359605D01*
X3657143Y3359605D02*
X3633333Y3335796D01*
X3633333Y3335796D02*
X3585714Y3311986D01*
X3585714Y3311986D02*
X3395238Y3311986D01*
X4109524Y3407224D02*
X4109524Y3073891D01*
X3895238Y3407224D02*
X3895238Y3145320D01*
X3895238Y3145320D02*
X3919048Y3097700D01*
X3919048Y3097700D02*
X3966667Y3073891D01*
X3966667Y3073891D02*
X4038095Y3073891D01*
X4038095Y3073891D02*
X4085714Y3097700D01*
X4085714Y3097700D02*
X4109524Y3121510D01*
X4419048Y3073891D02*
X4371429Y3097700D01*
X4371429Y3097700D02*
X4347619Y3145320D01*
X4347619Y3145320D02*
X4347619Y3573891D01*
X4585715Y3097700D02*
X4633334Y3073891D01*
X4633334Y3073891D02*
X4728572Y3073891D01*
X4728572Y3073891D02*
X4776191Y3097700D01*
X4776191Y3097700D02*
X4800000Y3145320D01*
X4800000Y3145320D02*
X4800000Y3169129D01*
X4800000Y3169129D02*
X4776191Y3216748D01*
X4776191Y3216748D02*
X4728572Y3240558D01*
X4728572Y3240558D02*
X4657143Y3240558D01*
X4657143Y3240558D02*
X4609524Y3264367D01*
X4609524Y3264367D02*
X4585715Y3311986D01*
X4585715Y3311986D02*
X4585715Y3335796D01*
X4585715Y3335796D02*
X4609524Y3383415D01*
X4609524Y3383415D02*
X4657143Y3407224D01*
X4657143Y3407224D02*
X4728572Y3407224D01*
X4728572Y3407224D02*
X4776191Y3383415D01*
X5204762Y3097700D02*
X5157143Y3073891D01*
X5157143Y3073891D02*
X5061905Y3073891D01*
X5061905Y3073891D02*
X5014286Y3097700D01*
X5014286Y3097700D02*
X4990477Y3145320D01*
X4990477Y3145320D02*
X4990477Y3335796D01*
X4990477Y3335796D02*
X5014286Y3383415D01*
X5014286Y3383415D02*
X5061905Y3407224D01*
X5061905Y3407224D02*
X5157143Y3407224D01*
X5157143Y3407224D02*
X5204762Y3383415D01*
X5204762Y3383415D02*
X5228572Y3335796D01*
X5228572Y3335796D02*
X5228572Y3288177D01*
X5228572Y3288177D02*
X4990477Y3240558D01*
X6519047Y3550081D02*
X6471428Y3573891D01*
X6471428Y3573891D02*
X6399999Y3573891D01*
X6399999Y3573891D02*
X6328571Y3550081D01*
X6328571Y3550081D02*
X6280952Y3502462D01*
X6280952Y3502462D02*
X6257142Y3454843D01*
X6257142Y3454843D02*
X6233333Y3359605D01*
X6233333Y3359605D02*
X6233333Y3288177D01*
X6233333Y3288177D02*
X6257142Y3192939D01*
X6257142Y3192939D02*
X6280952Y3145320D01*
X6280952Y3145320D02*
X6328571Y3097700D01*
X6328571Y3097700D02*
X6399999Y3073891D01*
X6399999Y3073891D02*
X6447618Y3073891D01*
X6447618Y3073891D02*
X6519047Y3097700D01*
X6519047Y3097700D02*
X6542856Y3121510D01*
X6542856Y3121510D02*
X6542856Y3288177D01*
X6542856Y3288177D02*
X6447618Y3288177D01*
X6757142Y3073891D02*
X6757142Y3573891D01*
X6757142Y3573891D02*
X7042856Y3073891D01*
X7042856Y3073891D02*
X7042856Y3573891D01*
X7280952Y3073891D02*
X7280952Y3573891D01*
X7280952Y3573891D02*
X7400000Y3573891D01*
X7400000Y3573891D02*
X7471428Y3550081D01*
X7471428Y3550081D02*
X7519047Y3502462D01*
X7519047Y3502462D02*
X7542857Y3454843D01*
X7542857Y3454843D02*
X7566666Y3359605D01*
X7566666Y3359605D02*
X7566666Y3288177D01*
X7566666Y3288177D02*
X7542857Y3192939D01*
X7542857Y3192939D02*
X7519047Y3145320D01*
X7519047Y3145320D02*
X7471428Y3097700D01*
X7471428Y3097700D02*
X7400000Y3073891D01*
X7400000Y3073891D02*
X7280952Y3073891D01*
D13*
X4911905Y5575191D02*
X4911905Y6075191D01*
X5435714Y5622810D02*
X5411905Y5599000D01*
X5411905Y5599000D02*
X5340476Y5575191D01*
X5340476Y5575191D02*
X5292857Y5575191D01*
X5292857Y5575191D02*
X5221429Y5599000D01*
X5221429Y5599000D02*
X5173810Y5646620D01*
X5173810Y5646620D02*
X5150000Y5694239D01*
X5150000Y5694239D02*
X5126191Y5789477D01*
X5126191Y5789477D02*
X5126191Y5860905D01*
X5126191Y5860905D02*
X5150000Y5956143D01*
X5150000Y5956143D02*
X5173810Y6003762D01*
X5173810Y6003762D02*
X5221429Y6051381D01*
X5221429Y6051381D02*
X5292857Y6075191D01*
X5292857Y6075191D02*
X5340476Y6075191D01*
X5340476Y6075191D02*
X5411905Y6051381D01*
X5411905Y6051381D02*
X5435714Y6027572D01*
X5911905Y5575191D02*
X5626191Y5575191D01*
X5769048Y5575191D02*
X5769048Y6075191D01*
X5769048Y6075191D02*
X5721429Y6003762D01*
X5721429Y6003762D02*
X5673810Y5956143D01*
X5673810Y5956143D02*
X5626191Y5932334D01*
D11*
X19917237Y10985210D02*
X19893428Y10961400D01*
X19893428Y10961400D02*
X19821999Y10937591D01*
X19821999Y10937591D02*
X19774380Y10937591D01*
X19774380Y10937591D02*
X19702952Y10961400D01*
X19702952Y10961400D02*
X19655333Y11009020D01*
X19655333Y11009020D02*
X19631523Y11056639D01*
X19631523Y11056639D02*
X19607714Y11151877D01*
X19607714Y11151877D02*
X19607714Y11223305D01*
X19607714Y11223305D02*
X19631523Y11318543D01*
X19631523Y11318543D02*
X19655333Y11366162D01*
X19655333Y11366162D02*
X19702952Y11413781D01*
X19702952Y11413781D02*
X19774380Y11437591D01*
X19774380Y11437591D02*
X19821999Y11437591D01*
X19821999Y11437591D02*
X19893428Y11413781D01*
X19893428Y11413781D02*
X19917237Y11389972D01*
X20393428Y10937591D02*
X20107714Y10937591D01*
X20250571Y10937591D02*
X20250571Y11437591D01*
X20250571Y11437591D02*
X20202952Y11366162D01*
X20202952Y11366162D02*
X20155333Y11318543D01*
X20155333Y11318543D02*
X20107714Y11294734D01*
X20869618Y10937591D02*
X20583904Y10937591D01*
X20726761Y10937591D02*
X20726761Y11437591D01*
X20726761Y11437591D02*
X20679142Y11366162D01*
X20679142Y11366162D02*
X20631523Y11318543D01*
X20631523Y11318543D02*
X20583904Y11294734D01*
X215504Y7483335D02*
X215504Y7316668D01*
X477409Y7316668D02*
X-22591Y7316668D01*
X-22591Y7316668D02*
X-22591Y7554763D01*
X477409Y8007144D02*
X477409Y7721430D01*
X477409Y7864287D02*
X-22591Y7864287D01*
X-22591Y7864287D02*
X48838Y7816668D01*
X48838Y7816668D02*
X96457Y7769049D01*
X96457Y7769049D02*
X120266Y7721430D01*
X16614999Y10925210D02*
X16591190Y10901400D01*
X16591190Y10901400D02*
X16519761Y10877591D01*
X16519761Y10877591D02*
X16472142Y10877591D01*
X16472142Y10877591D02*
X16400714Y10901400D01*
X16400714Y10901400D02*
X16353095Y10949020D01*
X16353095Y10949020D02*
X16329285Y10996639D01*
X16329285Y10996639D02*
X16305476Y11091877D01*
X16305476Y11091877D02*
X16305476Y11163305D01*
X16305476Y11163305D02*
X16329285Y11258543D01*
X16329285Y11258543D02*
X16353095Y11306162D01*
X16353095Y11306162D02*
X16400714Y11353781D01*
X16400714Y11353781D02*
X16472142Y11377591D01*
X16472142Y11377591D02*
X16519761Y11377591D01*
X16519761Y11377591D02*
X16591190Y11353781D01*
X16591190Y11353781D02*
X16614999Y11329972D01*
X16853095Y10877591D02*
X16948333Y10877591D01*
X16948333Y10877591D02*
X16995952Y10901400D01*
X16995952Y10901400D02*
X17019761Y10925210D01*
X17019761Y10925210D02*
X17067380Y10996639D01*
X17067380Y10996639D02*
X17091190Y11091877D01*
X17091190Y11091877D02*
X17091190Y11282353D01*
X17091190Y11282353D02*
X17067380Y11329972D01*
X17067380Y11329972D02*
X17043571Y11353781D01*
X17043571Y11353781D02*
X16995952Y11377591D01*
X16995952Y11377591D02*
X16900714Y11377591D01*
X16900714Y11377591D02*
X16853095Y11353781D01*
X16853095Y11353781D02*
X16829285Y11329972D01*
X16829285Y11329972D02*
X16805476Y11282353D01*
X16805476Y11282353D02*
X16805476Y11163305D01*
X16805476Y11163305D02*
X16829285Y11115686D01*
X16829285Y11115686D02*
X16853095Y11091877D01*
X16853095Y11091877D02*
X16900714Y11068067D01*
X16900714Y11068067D02*
X16995952Y11068067D01*
X16995952Y11068067D02*
X17043571Y11091877D01*
X17043571Y11091877D02*
X17067380Y11115686D01*
X17067380Y11115686D02*
X17091190Y11163305D01*
X34158096Y3825448D02*
X34396191Y3825448D01*
X34110477Y3682591D02*
X34277143Y4182591D01*
X34277143Y4182591D02*
X34443810Y3682591D01*
X34610476Y4015924D02*
X34610476Y3682591D01*
X34610476Y3968305D02*
X34634286Y3992115D01*
X34634286Y3992115D02*
X34681905Y4015924D01*
X34681905Y4015924D02*
X34753333Y4015924D01*
X34753333Y4015924D02*
X34800952Y3992115D01*
X34800952Y3992115D02*
X34824762Y3944496D01*
X34824762Y3944496D02*
X34824762Y3682591D01*
X35134286Y3682591D02*
X35086667Y3706400D01*
X35086667Y3706400D02*
X35062857Y3730210D01*
X35062857Y3730210D02*
X35039048Y3777829D01*
X35039048Y3777829D02*
X35039048Y3920686D01*
X35039048Y3920686D02*
X35062857Y3968305D01*
X35062857Y3968305D02*
X35086667Y3992115D01*
X35086667Y3992115D02*
X35134286Y4015924D01*
X35134286Y4015924D02*
X35205714Y4015924D01*
X35205714Y4015924D02*
X35253333Y3992115D01*
X35253333Y3992115D02*
X35277143Y3968305D01*
X35277143Y3968305D02*
X35300952Y3920686D01*
X35300952Y3920686D02*
X35300952Y3777829D01*
X35300952Y3777829D02*
X35277143Y3730210D01*
X35277143Y3730210D02*
X35253333Y3706400D01*
X35253333Y3706400D02*
X35205714Y3682591D01*
X35205714Y3682591D02*
X35134286Y3682591D01*
X35729524Y3682591D02*
X35729524Y4182591D01*
X35729524Y3706400D02*
X35681905Y3682591D01*
X35681905Y3682591D02*
X35586667Y3682591D01*
X35586667Y3682591D02*
X35539048Y3706400D01*
X35539048Y3706400D02*
X35515238Y3730210D01*
X35515238Y3730210D02*
X35491429Y3777829D01*
X35491429Y3777829D02*
X35491429Y3920686D01*
X35491429Y3920686D02*
X35515238Y3968305D01*
X35515238Y3968305D02*
X35539048Y3992115D01*
X35539048Y3992115D02*
X35586667Y4015924D01*
X35586667Y4015924D02*
X35681905Y4015924D01*
X35681905Y4015924D02*
X35729524Y3992115D01*
X36158095Y3706400D02*
X36110476Y3682591D01*
X36110476Y3682591D02*
X36015238Y3682591D01*
X36015238Y3682591D02*
X35967619Y3706400D01*
X35967619Y3706400D02*
X35943810Y3754020D01*
X35943810Y3754020D02*
X35943810Y3944496D01*
X35943810Y3944496D02*
X35967619Y3992115D01*
X35967619Y3992115D02*
X36015238Y4015924D01*
X36015238Y4015924D02*
X36110476Y4015924D01*
X36110476Y4015924D02*
X36158095Y3992115D01*
X36158095Y3992115D02*
X36181905Y3944496D01*
X36181905Y3944496D02*
X36181905Y3896877D01*
X36181905Y3896877D02*
X35943810Y3849258D01*
X34118096Y115448D02*
X34356191Y115448D01*
X34070477Y-27409D02*
X34237143Y472591D01*
X34237143Y472591D02*
X34403810Y-27409D01*
X34570476Y305924D02*
X34570476Y-27409D01*
X34570476Y258305D02*
X34594286Y282115D01*
X34594286Y282115D02*
X34641905Y305924D01*
X34641905Y305924D02*
X34713333Y305924D01*
X34713333Y305924D02*
X34760952Y282115D01*
X34760952Y282115D02*
X34784762Y234496D01*
X34784762Y234496D02*
X34784762Y-27409D01*
X35094286Y-27409D02*
X35046667Y-3600D01*
X35046667Y-3600D02*
X35022857Y20210D01*
X35022857Y20210D02*
X34999048Y67829D01*
X34999048Y67829D02*
X34999048Y210686D01*
X34999048Y210686D02*
X35022857Y258305D01*
X35022857Y258305D02*
X35046667Y282115D01*
X35046667Y282115D02*
X35094286Y305924D01*
X35094286Y305924D02*
X35165714Y305924D01*
X35165714Y305924D02*
X35213333Y282115D01*
X35213333Y282115D02*
X35237143Y258305D01*
X35237143Y258305D02*
X35260952Y210686D01*
X35260952Y210686D02*
X35260952Y67829D01*
X35260952Y67829D02*
X35237143Y20210D01*
X35237143Y20210D02*
X35213333Y-3600D01*
X35213333Y-3600D02*
X35165714Y-27409D01*
X35165714Y-27409D02*
X35094286Y-27409D01*
X35689524Y-27409D02*
X35689524Y472591D01*
X35689524Y-3600D02*
X35641905Y-27409D01*
X35641905Y-27409D02*
X35546667Y-27409D01*
X35546667Y-27409D02*
X35499048Y-3600D01*
X35499048Y-3600D02*
X35475238Y20210D01*
X35475238Y20210D02*
X35451429Y67829D01*
X35451429Y67829D02*
X35451429Y210686D01*
X35451429Y210686D02*
X35475238Y258305D01*
X35475238Y258305D02*
X35499048Y282115D01*
X35499048Y282115D02*
X35546667Y305924D01*
X35546667Y305924D02*
X35641905Y305924D01*
X35641905Y305924D02*
X35689524Y282115D01*
X36118095Y-3600D02*
X36070476Y-27409D01*
X36070476Y-27409D02*
X35975238Y-27409D01*
X35975238Y-27409D02*
X35927619Y-3600D01*
X35927619Y-3600D02*
X35903810Y44020D01*
X35903810Y44020D02*
X35903810Y234496D01*
X35903810Y234496D02*
X35927619Y282115D01*
X35927619Y282115D02*
X35975238Y305924D01*
X35975238Y305924D02*
X36070476Y305924D01*
X36070476Y305924D02*
X36118095Y282115D01*
X36118095Y282115D02*
X36141905Y234496D01*
X36141905Y234496D02*
X36141905Y186877D01*
X36141905Y186877D02*
X35903810Y139258D01*
X30927409Y13745953D02*
X30427409Y13745953D01*
X30427409Y13745953D02*
X30427409Y13865001D01*
X30427409Y13865001D02*
X30451219Y13936429D01*
X30451219Y13936429D02*
X30498838Y13984048D01*
X30498838Y13984048D02*
X30546457Y14007858D01*
X30546457Y14007858D02*
X30641695Y14031667D01*
X30641695Y14031667D02*
X30713123Y14031667D01*
X30713123Y14031667D02*
X30808361Y14007858D01*
X30808361Y14007858D02*
X30855980Y13984048D01*
X30855980Y13984048D02*
X30903600Y13936429D01*
X30903600Y13936429D02*
X30927409Y13865001D01*
X30927409Y13865001D02*
X30927409Y13745953D01*
X30641695Y14317382D02*
X30617885Y14269763D01*
X30617885Y14269763D02*
X30594076Y14245953D01*
X30594076Y14245953D02*
X30546457Y14222144D01*
X30546457Y14222144D02*
X30522647Y14222144D01*
X30522647Y14222144D02*
X30475028Y14245953D01*
X30475028Y14245953D02*
X30451219Y14269763D01*
X30451219Y14269763D02*
X30427409Y14317382D01*
X30427409Y14317382D02*
X30427409Y14412620D01*
X30427409Y14412620D02*
X30451219Y14460239D01*
X30451219Y14460239D02*
X30475028Y14484048D01*
X30475028Y14484048D02*
X30522647Y14507858D01*
X30522647Y14507858D02*
X30546457Y14507858D01*
X30546457Y14507858D02*
X30594076Y14484048D01*
X30594076Y14484048D02*
X30617885Y14460239D01*
X30617885Y14460239D02*
X30641695Y14412620D01*
X30641695Y14412620D02*
X30641695Y14317382D01*
X30641695Y14317382D02*
X30665504Y14269763D01*
X30665504Y14269763D02*
X30689314Y14245953D01*
X30689314Y14245953D02*
X30736933Y14222144D01*
X30736933Y14222144D02*
X30832171Y14222144D01*
X30832171Y14222144D02*
X30879790Y14245953D01*
X30879790Y14245953D02*
X30903600Y14269763D01*
X30903600Y14269763D02*
X30927409Y14317382D01*
X30927409Y14317382D02*
X30927409Y14412620D01*
X30927409Y14412620D02*
X30903600Y14460239D01*
X30903600Y14460239D02*
X30879790Y14484048D01*
X30879790Y14484048D02*
X30832171Y14507858D01*
X30832171Y14507858D02*
X30736933Y14507858D01*
X30736933Y14507858D02*
X30689314Y14484048D01*
X30689314Y14484048D02*
X30665504Y14460239D01*
X30665504Y14460239D02*
X30641695Y14412620D01*
X16927409Y13745953D02*
X16427409Y13745953D01*
X16427409Y13745953D02*
X16427409Y13865001D01*
X16427409Y13865001D02*
X16451219Y13936429D01*
X16451219Y13936429D02*
X16498838Y13984048D01*
X16498838Y13984048D02*
X16546457Y14007858D01*
X16546457Y14007858D02*
X16641695Y14031667D01*
X16641695Y14031667D02*
X16713123Y14031667D01*
X16713123Y14031667D02*
X16808361Y14007858D01*
X16808361Y14007858D02*
X16855980Y13984048D01*
X16855980Y13984048D02*
X16903600Y13936429D01*
X16903600Y13936429D02*
X16927409Y13865001D01*
X16927409Y13865001D02*
X16927409Y13745953D01*
X16594076Y14460239D02*
X16927409Y14460239D01*
X16403600Y14341191D02*
X16760742Y14222144D01*
X16760742Y14222144D02*
X16760742Y14531667D01*
X22348571Y16955210D02*
X22324762Y16931400D01*
X22324762Y16931400D02*
X22253333Y16907591D01*
X22253333Y16907591D02*
X22205714Y16907591D01*
X22205714Y16907591D02*
X22134286Y16931400D01*
X22134286Y16931400D02*
X22086667Y16979020D01*
X22086667Y16979020D02*
X22062857Y17026639D01*
X22062857Y17026639D02*
X22039048Y17121877D01*
X22039048Y17121877D02*
X22039048Y17193305D01*
X22039048Y17193305D02*
X22062857Y17288543D01*
X22062857Y17288543D02*
X22086667Y17336162D01*
X22086667Y17336162D02*
X22134286Y17383781D01*
X22134286Y17383781D02*
X22205714Y17407591D01*
X22205714Y17407591D02*
X22253333Y17407591D01*
X22253333Y17407591D02*
X22324762Y17383781D01*
X22324762Y17383781D02*
X22348571Y17359972D01*
X22824762Y16907591D02*
X22539048Y16907591D01*
X22681905Y16907591D02*
X22681905Y17407591D01*
X22681905Y17407591D02*
X22634286Y17336162D01*
X22634286Y17336162D02*
X22586667Y17288543D01*
X22586667Y17288543D02*
X22539048Y17264734D01*
X23015238Y17359972D02*
X23039047Y17383781D01*
X23039047Y17383781D02*
X23086666Y17407591D01*
X23086666Y17407591D02*
X23205714Y17407591D01*
X23205714Y17407591D02*
X23253333Y17383781D01*
X23253333Y17383781D02*
X23277142Y17359972D01*
X23277142Y17359972D02*
X23300952Y17312353D01*
X23300952Y17312353D02*
X23300952Y17264734D01*
X23300952Y17264734D02*
X23277142Y17193305D01*
X23277142Y17193305D02*
X22991428Y16907591D01*
X22991428Y16907591D02*
X23300952Y16907591D01*
X23397570Y10925210D02*
X23373761Y10901400D01*
X23373761Y10901400D02*
X23302332Y10877591D01*
X23302332Y10877591D02*
X23254713Y10877591D01*
X23254713Y10877591D02*
X23183285Y10901400D01*
X23183285Y10901400D02*
X23135666Y10949020D01*
X23135666Y10949020D02*
X23111856Y10996639D01*
X23111856Y10996639D02*
X23088047Y11091877D01*
X23088047Y11091877D02*
X23088047Y11163305D01*
X23088047Y11163305D02*
X23111856Y11258543D01*
X23111856Y11258543D02*
X23135666Y11306162D01*
X23135666Y11306162D02*
X23183285Y11353781D01*
X23183285Y11353781D02*
X23254713Y11377591D01*
X23254713Y11377591D02*
X23302332Y11377591D01*
X23302332Y11377591D02*
X23373761Y11353781D01*
X23373761Y11353781D02*
X23397570Y11329972D01*
X23873761Y10877591D02*
X23588047Y10877591D01*
X23730904Y10877591D02*
X23730904Y11377591D01*
X23730904Y11377591D02*
X23683285Y11306162D01*
X23683285Y11306162D02*
X23635666Y11258543D01*
X23635666Y11258543D02*
X23588047Y11234734D01*
X24040427Y11377591D02*
X24349951Y11377591D01*
X24349951Y11377591D02*
X24183284Y11187115D01*
X24183284Y11187115D02*
X24254713Y11187115D01*
X24254713Y11187115D02*
X24302332Y11163305D01*
X24302332Y11163305D02*
X24326141Y11139496D01*
X24326141Y11139496D02*
X24349951Y11091877D01*
X24349951Y11091877D02*
X24349951Y10972829D01*
X24349951Y10972829D02*
X24326141Y10925210D01*
X24326141Y10925210D02*
X24302332Y10901400D01*
X24302332Y10901400D02*
X24254713Y10877591D01*
X24254713Y10877591D02*
X24111856Y10877591D01*
X24111856Y10877591D02*
X24064237Y10901400D01*
X24064237Y10901400D02*
X24040427Y10925210D01*
X32427409Y5478572D02*
X32189314Y5311906D01*
X32427409Y5192858D02*
X31927409Y5192858D01*
X31927409Y5192858D02*
X31927409Y5383334D01*
X31927409Y5383334D02*
X31951219Y5430953D01*
X31951219Y5430953D02*
X31975028Y5454763D01*
X31975028Y5454763D02*
X32022647Y5478572D01*
X32022647Y5478572D02*
X32094076Y5478572D01*
X32094076Y5478572D02*
X32141695Y5454763D01*
X32141695Y5454763D02*
X32165504Y5430953D01*
X32165504Y5430953D02*
X32189314Y5383334D01*
X32189314Y5383334D02*
X32189314Y5192858D01*
X32427409Y5954763D02*
X32427409Y5669049D01*
X32427409Y5811906D02*
X31927409Y5811906D01*
X31927409Y5811906D02*
X31998838Y5764287D01*
X31998838Y5764287D02*
X32046457Y5716668D01*
X32046457Y5716668D02*
X32070266Y5669049D01*
X31927409Y6121429D02*
X31927409Y6454762D01*
X31927409Y6454762D02*
X32427409Y6240477D01*
X18748571Y16955210D02*
X18724762Y16931400D01*
X18724762Y16931400D02*
X18653333Y16907591D01*
X18653333Y16907591D02*
X18605714Y16907591D01*
X18605714Y16907591D02*
X18534286Y16931400D01*
X18534286Y16931400D02*
X18486667Y16979020D01*
X18486667Y16979020D02*
X18462857Y17026639D01*
X18462857Y17026639D02*
X18439048Y17121877D01*
X18439048Y17121877D02*
X18439048Y17193305D01*
X18439048Y17193305D02*
X18462857Y17288543D01*
X18462857Y17288543D02*
X18486667Y17336162D01*
X18486667Y17336162D02*
X18534286Y17383781D01*
X18534286Y17383781D02*
X18605714Y17407591D01*
X18605714Y17407591D02*
X18653333Y17407591D01*
X18653333Y17407591D02*
X18724762Y17383781D01*
X18724762Y17383781D02*
X18748571Y17359972D01*
X19224762Y16907591D02*
X18939048Y16907591D01*
X19081905Y16907591D02*
X19081905Y17407591D01*
X19081905Y17407591D02*
X19034286Y17336162D01*
X19034286Y17336162D02*
X18986667Y17288543D01*
X18986667Y17288543D02*
X18939048Y17264734D01*
X19534285Y17407591D02*
X19581904Y17407591D01*
X19581904Y17407591D02*
X19629523Y17383781D01*
X19629523Y17383781D02*
X19653333Y17359972D01*
X19653333Y17359972D02*
X19677142Y17312353D01*
X19677142Y17312353D02*
X19700952Y17217115D01*
X19700952Y17217115D02*
X19700952Y17098067D01*
X19700952Y17098067D02*
X19677142Y17002829D01*
X19677142Y17002829D02*
X19653333Y16955210D01*
X19653333Y16955210D02*
X19629523Y16931400D01*
X19629523Y16931400D02*
X19581904Y16907591D01*
X19581904Y16907591D02*
X19534285Y16907591D01*
X19534285Y16907591D02*
X19486666Y16931400D01*
X19486666Y16931400D02*
X19462857Y16955210D01*
X19462857Y16955210D02*
X19439047Y17002829D01*
X19439047Y17002829D02*
X19415238Y17098067D01*
X19415238Y17098067D02*
X19415238Y17217115D01*
X19415238Y17217115D02*
X19439047Y17312353D01*
X19439047Y17312353D02*
X19462857Y17359972D01*
X19462857Y17359972D02*
X19486666Y17383781D01*
X19486666Y17383781D02*
X19534285Y17407591D01*
X13451409Y13745953D02*
X12951409Y13745953D01*
X12951409Y13745953D02*
X12951409Y13865001D01*
X12951409Y13865001D02*
X12975219Y13936429D01*
X12975219Y13936429D02*
X13022838Y13984048D01*
X13022838Y13984048D02*
X13070457Y14007858D01*
X13070457Y14007858D02*
X13165695Y14031667D01*
X13165695Y14031667D02*
X13237123Y14031667D01*
X13237123Y14031667D02*
X13332361Y14007858D01*
X13332361Y14007858D02*
X13379980Y13984048D01*
X13379980Y13984048D02*
X13427600Y13936429D01*
X13427600Y13936429D02*
X13451409Y13865001D01*
X13451409Y13865001D02*
X13451409Y13745953D01*
X12951409Y14198334D02*
X12951409Y14507858D01*
X12951409Y14507858D02*
X13141885Y14341191D01*
X13141885Y14341191D02*
X13141885Y14412620D01*
X13141885Y14412620D02*
X13165695Y14460239D01*
X13165695Y14460239D02*
X13189504Y14484048D01*
X13189504Y14484048D02*
X13237123Y14507858D01*
X13237123Y14507858D02*
X13356171Y14507858D01*
X13356171Y14507858D02*
X13403790Y14484048D01*
X13403790Y14484048D02*
X13427600Y14460239D01*
X13427600Y14460239D02*
X13451409Y14412620D01*
X13451409Y14412620D02*
X13451409Y14269763D01*
X13451409Y14269763D02*
X13427600Y14222144D01*
X13427600Y14222144D02*
X13403790Y14198334D01*
X20128664Y8367591D02*
X19961998Y8605686D01*
X19842950Y8367591D02*
X19842950Y8867591D01*
X19842950Y8867591D02*
X20033426Y8867591D01*
X20033426Y8867591D02*
X20081045Y8843781D01*
X20081045Y8843781D02*
X20104855Y8819972D01*
X20104855Y8819972D02*
X20128664Y8772353D01*
X20128664Y8772353D02*
X20128664Y8700924D01*
X20128664Y8700924D02*
X20104855Y8653305D01*
X20104855Y8653305D02*
X20081045Y8629496D01*
X20081045Y8629496D02*
X20033426Y8605686D01*
X20033426Y8605686D02*
X19842950Y8605686D01*
X20414379Y8653305D02*
X20366760Y8677115D01*
X20366760Y8677115D02*
X20342950Y8700924D01*
X20342950Y8700924D02*
X20319141Y8748543D01*
X20319141Y8748543D02*
X20319141Y8772353D01*
X20319141Y8772353D02*
X20342950Y8819972D01*
X20342950Y8819972D02*
X20366760Y8843781D01*
X20366760Y8843781D02*
X20414379Y8867591D01*
X20414379Y8867591D02*
X20509617Y8867591D01*
X20509617Y8867591D02*
X20557236Y8843781D01*
X20557236Y8843781D02*
X20581045Y8819972D01*
X20581045Y8819972D02*
X20604855Y8772353D01*
X20604855Y8772353D02*
X20604855Y8748543D01*
X20604855Y8748543D02*
X20581045Y8700924D01*
X20581045Y8700924D02*
X20557236Y8677115D01*
X20557236Y8677115D02*
X20509617Y8653305D01*
X20509617Y8653305D02*
X20414379Y8653305D01*
X20414379Y8653305D02*
X20366760Y8629496D01*
X20366760Y8629496D02*
X20342950Y8605686D01*
X20342950Y8605686D02*
X20319141Y8558067D01*
X20319141Y8558067D02*
X20319141Y8462829D01*
X20319141Y8462829D02*
X20342950Y8415210D01*
X20342950Y8415210D02*
X20366760Y8391400D01*
X20366760Y8391400D02*
X20414379Y8367591D01*
X20414379Y8367591D02*
X20509617Y8367591D01*
X20509617Y8367591D02*
X20557236Y8391400D01*
X20557236Y8391400D02*
X20581045Y8415210D01*
X20581045Y8415210D02*
X20604855Y8462829D01*
X20604855Y8462829D02*
X20604855Y8558067D01*
X20604855Y8558067D02*
X20581045Y8605686D01*
X20581045Y8605686D02*
X20557236Y8629496D01*
X20557236Y8629496D02*
X20509617Y8653305D01*
X993334Y19459496D02*
X826667Y19459496D01*
X826667Y19197591D02*
X826667Y19697591D01*
X826667Y19697591D02*
X1064762Y19697591D01*
X1421905Y19459496D02*
X1493333Y19435686D01*
X1493333Y19435686D02*
X1517143Y19411877D01*
X1517143Y19411877D02*
X1540952Y19364258D01*
X1540952Y19364258D02*
X1540952Y19292829D01*
X1540952Y19292829D02*
X1517143Y19245210D01*
X1517143Y19245210D02*
X1493333Y19221400D01*
X1493333Y19221400D02*
X1445714Y19197591D01*
X1445714Y19197591D02*
X1255238Y19197591D01*
X1255238Y19197591D02*
X1255238Y19697591D01*
X1255238Y19697591D02*
X1421905Y19697591D01*
X1421905Y19697591D02*
X1469524Y19673781D01*
X1469524Y19673781D02*
X1493333Y19649972D01*
X1493333Y19649972D02*
X1517143Y19602353D01*
X1517143Y19602353D02*
X1517143Y19554734D01*
X1517143Y19554734D02*
X1493333Y19507115D01*
X1493333Y19507115D02*
X1469524Y19483305D01*
X1469524Y19483305D02*
X1421905Y19459496D01*
X1421905Y19459496D02*
X1255238Y19459496D01*
X1731429Y19649972D02*
X1755238Y19673781D01*
X1755238Y19673781D02*
X1802857Y19697591D01*
X1802857Y19697591D02*
X1921905Y19697591D01*
X1921905Y19697591D02*
X1969524Y19673781D01*
X1969524Y19673781D02*
X1993333Y19649972D01*
X1993333Y19649972D02*
X2017143Y19602353D01*
X2017143Y19602353D02*
X2017143Y19554734D01*
X2017143Y19554734D02*
X1993333Y19483305D01*
X1993333Y19483305D02*
X1707619Y19197591D01*
X1707619Y19197591D02*
X2017143Y19197591D01*
X23655665Y8367591D02*
X23488999Y8605686D01*
X23369951Y8367591D02*
X23369951Y8867591D01*
X23369951Y8867591D02*
X23560427Y8867591D01*
X23560427Y8867591D02*
X23608046Y8843781D01*
X23608046Y8843781D02*
X23631856Y8819972D01*
X23631856Y8819972D02*
X23655665Y8772353D01*
X23655665Y8772353D02*
X23655665Y8700924D01*
X23655665Y8700924D02*
X23631856Y8653305D01*
X23631856Y8653305D02*
X23608046Y8629496D01*
X23608046Y8629496D02*
X23560427Y8605686D01*
X23560427Y8605686D02*
X23369951Y8605686D01*
X23822332Y8867591D02*
X24155665Y8867591D01*
X24155665Y8867591D02*
X23941380Y8367591D01*
X17297409Y4511667D02*
X17059314Y4345001D01*
X17297409Y4225953D02*
X16797409Y4225953D01*
X16797409Y4225953D02*
X16797409Y4416429D01*
X16797409Y4416429D02*
X16821219Y4464048D01*
X16821219Y4464048D02*
X16845028Y4487858D01*
X16845028Y4487858D02*
X16892647Y4511667D01*
X16892647Y4511667D02*
X16964076Y4511667D01*
X16964076Y4511667D02*
X17011695Y4487858D01*
X17011695Y4487858D02*
X17035504Y4464048D01*
X17035504Y4464048D02*
X17059314Y4416429D01*
X17059314Y4416429D02*
X17059314Y4225953D01*
X16797409Y4940239D02*
X16797409Y4845001D01*
X16797409Y4845001D02*
X16821219Y4797382D01*
X16821219Y4797382D02*
X16845028Y4773572D01*
X16845028Y4773572D02*
X16916457Y4725953D01*
X16916457Y4725953D02*
X17011695Y4702144D01*
X17011695Y4702144D02*
X17202171Y4702144D01*
X17202171Y4702144D02*
X17249790Y4725953D01*
X17249790Y4725953D02*
X17273600Y4749763D01*
X17273600Y4749763D02*
X17297409Y4797382D01*
X17297409Y4797382D02*
X17297409Y4892620D01*
X17297409Y4892620D02*
X17273600Y4940239D01*
X17273600Y4940239D02*
X17249790Y4964048D01*
X17249790Y4964048D02*
X17202171Y4987858D01*
X17202171Y4987858D02*
X17083123Y4987858D01*
X17083123Y4987858D02*
X17035504Y4964048D01*
X17035504Y4964048D02*
X17011695Y4940239D01*
X17011695Y4940239D02*
X16987885Y4892620D01*
X16987885Y4892620D02*
X16987885Y4797382D01*
X16987885Y4797382D02*
X17011695Y4749763D01*
X17011695Y4749763D02*
X17035504Y4725953D01*
X17035504Y4725953D02*
X17083123Y4702144D01*
X26887903Y10905210D02*
X26864094Y10881400D01*
X26864094Y10881400D02*
X26792665Y10857591D01*
X26792665Y10857591D02*
X26745046Y10857591D01*
X26745046Y10857591D02*
X26673618Y10881400D01*
X26673618Y10881400D02*
X26625999Y10929020D01*
X26625999Y10929020D02*
X26602189Y10976639D01*
X26602189Y10976639D02*
X26578380Y11071877D01*
X26578380Y11071877D02*
X26578380Y11143305D01*
X26578380Y11143305D02*
X26602189Y11238543D01*
X26602189Y11238543D02*
X26625999Y11286162D01*
X26625999Y11286162D02*
X26673618Y11333781D01*
X26673618Y11333781D02*
X26745046Y11357591D01*
X26745046Y11357591D02*
X26792665Y11357591D01*
X26792665Y11357591D02*
X26864094Y11333781D01*
X26864094Y11333781D02*
X26887903Y11309972D01*
X27364094Y10857591D02*
X27078380Y10857591D01*
X27221237Y10857591D02*
X27221237Y11357591D01*
X27221237Y11357591D02*
X27173618Y11286162D01*
X27173618Y11286162D02*
X27125999Y11238543D01*
X27125999Y11238543D02*
X27078380Y11214734D01*
X27816474Y11357591D02*
X27578379Y11357591D01*
X27578379Y11357591D02*
X27554570Y11119496D01*
X27554570Y11119496D02*
X27578379Y11143305D01*
X27578379Y11143305D02*
X27625998Y11167115D01*
X27625998Y11167115D02*
X27745046Y11167115D01*
X27745046Y11167115D02*
X27792665Y11143305D01*
X27792665Y11143305D02*
X27816474Y11119496D01*
X27816474Y11119496D02*
X27840284Y11071877D01*
X27840284Y11071877D02*
X27840284Y10952829D01*
X27840284Y10952829D02*
X27816474Y10905210D01*
X27816474Y10905210D02*
X27792665Y10881400D01*
X27792665Y10881400D02*
X27745046Y10857591D01*
X27745046Y10857591D02*
X27625998Y10857591D01*
X27625998Y10857591D02*
X27578379Y10881400D01*
X27578379Y10881400D02*
X27554570Y10905210D01*
X23927409Y13745953D02*
X23427409Y13745953D01*
X23427409Y13745953D02*
X23427409Y13865001D01*
X23427409Y13865001D02*
X23451219Y13936429D01*
X23451219Y13936429D02*
X23498838Y13984048D01*
X23498838Y13984048D02*
X23546457Y14007858D01*
X23546457Y14007858D02*
X23641695Y14031667D01*
X23641695Y14031667D02*
X23713123Y14031667D01*
X23713123Y14031667D02*
X23808361Y14007858D01*
X23808361Y14007858D02*
X23855980Y13984048D01*
X23855980Y13984048D02*
X23903600Y13936429D01*
X23903600Y13936429D02*
X23927409Y13865001D01*
X23927409Y13865001D02*
X23927409Y13745953D01*
X23427409Y14460239D02*
X23427409Y14365001D01*
X23427409Y14365001D02*
X23451219Y14317382D01*
X23451219Y14317382D02*
X23475028Y14293572D01*
X23475028Y14293572D02*
X23546457Y14245953D01*
X23546457Y14245953D02*
X23641695Y14222144D01*
X23641695Y14222144D02*
X23832171Y14222144D01*
X23832171Y14222144D02*
X23879790Y14245953D01*
X23879790Y14245953D02*
X23903600Y14269763D01*
X23903600Y14269763D02*
X23927409Y14317382D01*
X23927409Y14317382D02*
X23927409Y14412620D01*
X23927409Y14412620D02*
X23903600Y14460239D01*
X23903600Y14460239D02*
X23879790Y14484048D01*
X23879790Y14484048D02*
X23832171Y14507858D01*
X23832171Y14507858D02*
X23713123Y14507858D01*
X23713123Y14507858D02*
X23665504Y14484048D01*
X23665504Y14484048D02*
X23641695Y14460239D01*
X23641695Y14460239D02*
X23617885Y14412620D01*
X23617885Y14412620D02*
X23617885Y14317382D01*
X23617885Y14317382D02*
X23641695Y14269763D01*
X23641695Y14269763D02*
X23665504Y14245953D01*
X23665504Y14245953D02*
X23713123Y14222144D01*
X10792857Y3920210D02*
X10769048Y3896400D01*
X10769048Y3896400D02*
X10697619Y3872591D01*
X10697619Y3872591D02*
X10650000Y3872591D01*
X10650000Y3872591D02*
X10578572Y3896400D01*
X10578572Y3896400D02*
X10530953Y3944020D01*
X10530953Y3944020D02*
X10507143Y3991639D01*
X10507143Y3991639D02*
X10483334Y4086877D01*
X10483334Y4086877D02*
X10483334Y4158305D01*
X10483334Y4158305D02*
X10507143Y4253543D01*
X10507143Y4253543D02*
X10530953Y4301162D01*
X10530953Y4301162D02*
X10578572Y4348781D01*
X10578572Y4348781D02*
X10650000Y4372591D01*
X10650000Y4372591D02*
X10697619Y4372591D01*
X10697619Y4372591D02*
X10769048Y4348781D01*
X10769048Y4348781D02*
X10792857Y4324972D01*
X11221429Y3872591D02*
X11221429Y4134496D01*
X11221429Y4134496D02*
X11197619Y4182115D01*
X11197619Y4182115D02*
X11150000Y4205924D01*
X11150000Y4205924D02*
X11054762Y4205924D01*
X11054762Y4205924D02*
X11007143Y4182115D01*
X11221429Y3896400D02*
X11173810Y3872591D01*
X11173810Y3872591D02*
X11054762Y3872591D01*
X11054762Y3872591D02*
X11007143Y3896400D01*
X11007143Y3896400D02*
X10983334Y3944020D01*
X10983334Y3944020D02*
X10983334Y3991639D01*
X10983334Y3991639D02*
X11007143Y4039258D01*
X11007143Y4039258D02*
X11054762Y4063067D01*
X11054762Y4063067D02*
X11173810Y4063067D01*
X11173810Y4063067D02*
X11221429Y4086877D01*
X11388096Y4205924D02*
X11578572Y4205924D01*
X11459524Y4372591D02*
X11459524Y3944020D01*
X11459524Y3944020D02*
X11483334Y3896400D01*
X11483334Y3896400D02*
X11530953Y3872591D01*
X11530953Y3872591D02*
X11578572Y3872591D01*
X11745238Y3872591D02*
X11745238Y4372591D01*
X11959524Y3872591D02*
X11959524Y4134496D01*
X11959524Y4134496D02*
X11935714Y4182115D01*
X11935714Y4182115D02*
X11888095Y4205924D01*
X11888095Y4205924D02*
X11816667Y4205924D01*
X11816667Y4205924D02*
X11769048Y4182115D01*
X11769048Y4182115D02*
X11745238Y4158305D01*
X12269048Y3872591D02*
X12221429Y3896400D01*
X12221429Y3896400D02*
X12197619Y3920210D01*
X12197619Y3920210D02*
X12173810Y3967829D01*
X12173810Y3967829D02*
X12173810Y4110686D01*
X12173810Y4110686D02*
X12197619Y4158305D01*
X12197619Y4158305D02*
X12221429Y4182115D01*
X12221429Y4182115D02*
X12269048Y4205924D01*
X12269048Y4205924D02*
X12340476Y4205924D01*
X12340476Y4205924D02*
X12388095Y4182115D01*
X12388095Y4182115D02*
X12411905Y4158305D01*
X12411905Y4158305D02*
X12435714Y4110686D01*
X12435714Y4110686D02*
X12435714Y3967829D01*
X12435714Y3967829D02*
X12411905Y3920210D01*
X12411905Y3920210D02*
X12388095Y3896400D01*
X12388095Y3896400D02*
X12340476Y3872591D01*
X12340476Y3872591D02*
X12269048Y3872591D01*
X12864286Y3872591D02*
X12864286Y4372591D01*
X12864286Y3896400D02*
X12816667Y3872591D01*
X12816667Y3872591D02*
X12721429Y3872591D01*
X12721429Y3872591D02*
X12673810Y3896400D01*
X12673810Y3896400D02*
X12650000Y3920210D01*
X12650000Y3920210D02*
X12626191Y3967829D01*
X12626191Y3967829D02*
X12626191Y4110686D01*
X12626191Y4110686D02*
X12650000Y4158305D01*
X12650000Y4158305D02*
X12673810Y4182115D01*
X12673810Y4182115D02*
X12721429Y4205924D01*
X12721429Y4205924D02*
X12816667Y4205924D01*
X12816667Y4205924D02*
X12864286Y4182115D01*
X13292857Y3896400D02*
X13245238Y3872591D01*
X13245238Y3872591D02*
X13150000Y3872591D01*
X13150000Y3872591D02*
X13102381Y3896400D01*
X13102381Y3896400D02*
X13078572Y3944020D01*
X13078572Y3944020D02*
X13078572Y4134496D01*
X13078572Y4134496D02*
X13102381Y4182115D01*
X13102381Y4182115D02*
X13150000Y4205924D01*
X13150000Y4205924D02*
X13245238Y4205924D01*
X13245238Y4205924D02*
X13292857Y4182115D01*
X13292857Y4182115D02*
X13316667Y4134496D01*
X13316667Y4134496D02*
X13316667Y4086877D01*
X13316667Y4086877D02*
X13078572Y4039258D01*
X27427409Y13745953D02*
X26927409Y13745953D01*
X26927409Y13745953D02*
X26927409Y13865001D01*
X26927409Y13865001D02*
X26951219Y13936429D01*
X26951219Y13936429D02*
X26998838Y13984048D01*
X26998838Y13984048D02*
X27046457Y14007858D01*
X27046457Y14007858D02*
X27141695Y14031667D01*
X27141695Y14031667D02*
X27213123Y14031667D01*
X27213123Y14031667D02*
X27308361Y14007858D01*
X27308361Y14007858D02*
X27355980Y13984048D01*
X27355980Y13984048D02*
X27403600Y13936429D01*
X27403600Y13936429D02*
X27427409Y13865001D01*
X27427409Y13865001D02*
X27427409Y13745953D01*
X26927409Y14198334D02*
X26927409Y14531667D01*
X26927409Y14531667D02*
X27427409Y14317382D01*
X12146666Y16875210D02*
X12122857Y16851400D01*
X12122857Y16851400D02*
X12051428Y16827591D01*
X12051428Y16827591D02*
X12003809Y16827591D01*
X12003809Y16827591D02*
X11932381Y16851400D01*
X11932381Y16851400D02*
X11884762Y16899020D01*
X11884762Y16899020D02*
X11860952Y16946639D01*
X11860952Y16946639D02*
X11837143Y17041877D01*
X11837143Y17041877D02*
X11837143Y17113305D01*
X11837143Y17113305D02*
X11860952Y17208543D01*
X11860952Y17208543D02*
X11884762Y17256162D01*
X11884762Y17256162D02*
X11932381Y17303781D01*
X11932381Y17303781D02*
X12003809Y17327591D01*
X12003809Y17327591D02*
X12051428Y17327591D01*
X12051428Y17327591D02*
X12122857Y17303781D01*
X12122857Y17303781D02*
X12146666Y17279972D01*
X12575238Y17327591D02*
X12480000Y17327591D01*
X12480000Y17327591D02*
X12432381Y17303781D01*
X12432381Y17303781D02*
X12408571Y17279972D01*
X12408571Y17279972D02*
X12360952Y17208543D01*
X12360952Y17208543D02*
X12337143Y17113305D01*
X12337143Y17113305D02*
X12337143Y16922829D01*
X12337143Y16922829D02*
X12360952Y16875210D01*
X12360952Y16875210D02*
X12384762Y16851400D01*
X12384762Y16851400D02*
X12432381Y16827591D01*
X12432381Y16827591D02*
X12527619Y16827591D01*
X12527619Y16827591D02*
X12575238Y16851400D01*
X12575238Y16851400D02*
X12599047Y16875210D01*
X12599047Y16875210D02*
X12622857Y16922829D01*
X12622857Y16922829D02*
X12622857Y17041877D01*
X12622857Y17041877D02*
X12599047Y17089496D01*
X12599047Y17089496D02*
X12575238Y17113305D01*
X12575238Y17113305D02*
X12527619Y17137115D01*
X12527619Y17137115D02*
X12432381Y17137115D01*
X12432381Y17137115D02*
X12384762Y17113305D01*
X12384762Y17113305D02*
X12360952Y17089496D01*
X12360952Y17089496D02*
X12337143Y17041877D01*
X3316666Y19185210D02*
X3292857Y19161400D01*
X3292857Y19161400D02*
X3221428Y19137591D01*
X3221428Y19137591D02*
X3173809Y19137591D01*
X3173809Y19137591D02*
X3102381Y19161400D01*
X3102381Y19161400D02*
X3054762Y19209020D01*
X3054762Y19209020D02*
X3030952Y19256639D01*
X3030952Y19256639D02*
X3007143Y19351877D01*
X3007143Y19351877D02*
X3007143Y19423305D01*
X3007143Y19423305D02*
X3030952Y19518543D01*
X3030952Y19518543D02*
X3054762Y19566162D01*
X3054762Y19566162D02*
X3102381Y19613781D01*
X3102381Y19613781D02*
X3173809Y19637591D01*
X3173809Y19637591D02*
X3221428Y19637591D01*
X3221428Y19637591D02*
X3292857Y19613781D01*
X3292857Y19613781D02*
X3316666Y19589972D01*
X3769047Y19637591D02*
X3530952Y19637591D01*
X3530952Y19637591D02*
X3507143Y19399496D01*
X3507143Y19399496D02*
X3530952Y19423305D01*
X3530952Y19423305D02*
X3578571Y19447115D01*
X3578571Y19447115D02*
X3697619Y19447115D01*
X3697619Y19447115D02*
X3745238Y19423305D01*
X3745238Y19423305D02*
X3769047Y19399496D01*
X3769047Y19399496D02*
X3792857Y19351877D01*
X3792857Y19351877D02*
X3792857Y19232829D01*
X3792857Y19232829D02*
X3769047Y19185210D01*
X3769047Y19185210D02*
X3745238Y19161400D01*
X3745238Y19161400D02*
X3697619Y19137591D01*
X3697619Y19137591D02*
X3578571Y19137591D01*
X3578571Y19137591D02*
X3530952Y19161400D01*
X3530952Y19161400D02*
X3507143Y19185210D01*
X35325409Y10352667D02*
X35087314Y10186001D01*
X35325409Y10066953D02*
X34825409Y10066953D01*
X34825409Y10066953D02*
X34825409Y10257429D01*
X34825409Y10257429D02*
X34849219Y10305048D01*
X34849219Y10305048D02*
X34873028Y10328858D01*
X34873028Y10328858D02*
X34920647Y10352667D01*
X34920647Y10352667D02*
X34992076Y10352667D01*
X34992076Y10352667D02*
X35039695Y10328858D01*
X35039695Y10328858D02*
X35063504Y10305048D01*
X35063504Y10305048D02*
X35087314Y10257429D01*
X35087314Y10257429D02*
X35087314Y10066953D01*
X35325409Y10828858D02*
X35325409Y10543144D01*
X35325409Y10686001D02*
X34825409Y10686001D01*
X34825409Y10686001D02*
X34896838Y10638382D01*
X34896838Y10638382D02*
X34944457Y10590763D01*
X34944457Y10590763D02*
X34968266Y10543144D01*
X30388236Y10855210D02*
X30364427Y10831400D01*
X30364427Y10831400D02*
X30292998Y10807591D01*
X30292998Y10807591D02*
X30245379Y10807591D01*
X30245379Y10807591D02*
X30173951Y10831400D01*
X30173951Y10831400D02*
X30126332Y10879020D01*
X30126332Y10879020D02*
X30102522Y10926639D01*
X30102522Y10926639D02*
X30078713Y11021877D01*
X30078713Y11021877D02*
X30078713Y11093305D01*
X30078713Y11093305D02*
X30102522Y11188543D01*
X30102522Y11188543D02*
X30126332Y11236162D01*
X30126332Y11236162D02*
X30173951Y11283781D01*
X30173951Y11283781D02*
X30245379Y11307591D01*
X30245379Y11307591D02*
X30292998Y11307591D01*
X30292998Y11307591D02*
X30364427Y11283781D01*
X30364427Y11283781D02*
X30388236Y11259972D01*
X30864427Y10807591D02*
X30578713Y10807591D01*
X30721570Y10807591D02*
X30721570Y11307591D01*
X30721570Y11307591D02*
X30673951Y11236162D01*
X30673951Y11236162D02*
X30626332Y11188543D01*
X30626332Y11188543D02*
X30578713Y11164734D01*
X31031093Y11307591D02*
X31364426Y11307591D01*
X31364426Y11307591D02*
X31150141Y10807591D01*
X12528571Y5272591D02*
X12361905Y5510686D01*
X12242857Y5272591D02*
X12242857Y5772591D01*
X12242857Y5772591D02*
X12433333Y5772591D01*
X12433333Y5772591D02*
X12480952Y5748781D01*
X12480952Y5748781D02*
X12504762Y5724972D01*
X12504762Y5724972D02*
X12528571Y5677353D01*
X12528571Y5677353D02*
X12528571Y5605924D01*
X12528571Y5605924D02*
X12504762Y5558305D01*
X12504762Y5558305D02*
X12480952Y5534496D01*
X12480952Y5534496D02*
X12433333Y5510686D01*
X12433333Y5510686D02*
X12242857Y5510686D01*
X13004762Y5272591D02*
X12719048Y5272591D01*
X12861905Y5272591D02*
X12861905Y5772591D01*
X12861905Y5772591D02*
X12814286Y5701162D01*
X12814286Y5701162D02*
X12766667Y5653543D01*
X12766667Y5653543D02*
X12719048Y5629734D01*
X13290476Y5558305D02*
X13242857Y5582115D01*
X13242857Y5582115D02*
X13219047Y5605924D01*
X13219047Y5605924D02*
X13195238Y5653543D01*
X13195238Y5653543D02*
X13195238Y5677353D01*
X13195238Y5677353D02*
X13219047Y5724972D01*
X13219047Y5724972D02*
X13242857Y5748781D01*
X13242857Y5748781D02*
X13290476Y5772591D01*
X13290476Y5772591D02*
X13385714Y5772591D01*
X13385714Y5772591D02*
X13433333Y5748781D01*
X13433333Y5748781D02*
X13457142Y5724972D01*
X13457142Y5724972D02*
X13480952Y5677353D01*
X13480952Y5677353D02*
X13480952Y5653543D01*
X13480952Y5653543D02*
X13457142Y5605924D01*
X13457142Y5605924D02*
X13433333Y5582115D01*
X13433333Y5582115D02*
X13385714Y5558305D01*
X13385714Y5558305D02*
X13290476Y5558305D01*
X13290476Y5558305D02*
X13242857Y5534496D01*
X13242857Y5534496D02*
X13219047Y5510686D01*
X13219047Y5510686D02*
X13195238Y5463067D01*
X13195238Y5463067D02*
X13195238Y5367829D01*
X13195238Y5367829D02*
X13219047Y5320210D01*
X13219047Y5320210D02*
X13242857Y5296400D01*
X13242857Y5296400D02*
X13290476Y5272591D01*
X13290476Y5272591D02*
X13385714Y5272591D01*
X13385714Y5272591D02*
X13433333Y5296400D01*
X13433333Y5296400D02*
X13457142Y5320210D01*
X13457142Y5320210D02*
X13480952Y5367829D01*
X13480952Y5367829D02*
X13480952Y5463067D01*
X13480952Y5463067D02*
X13457142Y5510686D01*
X13457142Y5510686D02*
X13433333Y5534496D01*
X13433333Y5534496D02*
X13385714Y5558305D01*
X13054666Y10935210D02*
X13030857Y10911400D01*
X13030857Y10911400D02*
X12959428Y10887591D01*
X12959428Y10887591D02*
X12911809Y10887591D01*
X12911809Y10887591D02*
X12840381Y10911400D01*
X12840381Y10911400D02*
X12792762Y10959020D01*
X12792762Y10959020D02*
X12768952Y11006639D01*
X12768952Y11006639D02*
X12745143Y11101877D01*
X12745143Y11101877D02*
X12745143Y11173305D01*
X12745143Y11173305D02*
X12768952Y11268543D01*
X12768952Y11268543D02*
X12792762Y11316162D01*
X12792762Y11316162D02*
X12840381Y11363781D01*
X12840381Y11363781D02*
X12911809Y11387591D01*
X12911809Y11387591D02*
X12959428Y11387591D01*
X12959428Y11387591D02*
X13030857Y11363781D01*
X13030857Y11363781D02*
X13054666Y11339972D01*
X13221333Y11387591D02*
X13554666Y11387591D01*
X13554666Y11387591D02*
X13340381Y10887591D01*
X25788571Y16915210D02*
X25764762Y16891400D01*
X25764762Y16891400D02*
X25693333Y16867591D01*
X25693333Y16867591D02*
X25645714Y16867591D01*
X25645714Y16867591D02*
X25574286Y16891400D01*
X25574286Y16891400D02*
X25526667Y16939020D01*
X25526667Y16939020D02*
X25502857Y16986639D01*
X25502857Y16986639D02*
X25479048Y17081877D01*
X25479048Y17081877D02*
X25479048Y17153305D01*
X25479048Y17153305D02*
X25502857Y17248543D01*
X25502857Y17248543D02*
X25526667Y17296162D01*
X25526667Y17296162D02*
X25574286Y17343781D01*
X25574286Y17343781D02*
X25645714Y17367591D01*
X25645714Y17367591D02*
X25693333Y17367591D01*
X25693333Y17367591D02*
X25764762Y17343781D01*
X25764762Y17343781D02*
X25788571Y17319972D01*
X26264762Y16867591D02*
X25979048Y16867591D01*
X26121905Y16867591D02*
X26121905Y17367591D01*
X26121905Y17367591D02*
X26074286Y17296162D01*
X26074286Y17296162D02*
X26026667Y17248543D01*
X26026667Y17248543D02*
X25979048Y17224734D01*
X26693333Y17200924D02*
X26693333Y16867591D01*
X26574285Y17391400D02*
X26455238Y17034258D01*
X26455238Y17034258D02*
X26764761Y17034258D01*
X7716666Y14287591D02*
X7478571Y14287591D01*
X7478571Y14287591D02*
X7478571Y14787591D01*
X8145238Y14287591D02*
X7859524Y14287591D01*
X8002381Y14287591D02*
X8002381Y14787591D01*
X8002381Y14787591D02*
X7954762Y14716162D01*
X7954762Y14716162D02*
X7907143Y14668543D01*
X7907143Y14668543D02*
X7859524Y14644734D01*
X14462571Y95591D02*
X14295905Y333686D01*
X14176857Y95591D02*
X14176857Y595591D01*
X14176857Y595591D02*
X14367333Y595591D01*
X14367333Y595591D02*
X14414952Y571781D01*
X14414952Y571781D02*
X14438762Y547972D01*
X14438762Y547972D02*
X14462571Y500353D01*
X14462571Y500353D02*
X14462571Y428924D01*
X14462571Y428924D02*
X14438762Y381305D01*
X14438762Y381305D02*
X14414952Y357496D01*
X14414952Y357496D02*
X14367333Y333686D01*
X14367333Y333686D02*
X14176857Y333686D01*
X14938762Y95591D02*
X14653048Y95591D01*
X14795905Y95591D02*
X14795905Y595591D01*
X14795905Y595591D02*
X14748286Y524162D01*
X14748286Y524162D02*
X14700667Y476543D01*
X14700667Y476543D02*
X14653048Y452734D01*
X15414952Y95591D02*
X15129238Y95591D01*
X15272095Y95591D02*
X15272095Y595591D01*
X15272095Y595591D02*
X15224476Y524162D01*
X15224476Y524162D02*
X15176857Y476543D01*
X15176857Y476543D02*
X15129238Y452734D01*
X12805571Y8367591D02*
X12638905Y8605686D01*
X12519857Y8367591D02*
X12519857Y8867591D01*
X12519857Y8867591D02*
X12710333Y8867591D01*
X12710333Y8867591D02*
X12757952Y8843781D01*
X12757952Y8843781D02*
X12781762Y8819972D01*
X12781762Y8819972D02*
X12805571Y8772353D01*
X12805571Y8772353D02*
X12805571Y8700924D01*
X12805571Y8700924D02*
X12781762Y8653305D01*
X12781762Y8653305D02*
X12757952Y8629496D01*
X12757952Y8629496D02*
X12710333Y8605686D01*
X12710333Y8605686D02*
X12519857Y8605686D01*
X13281762Y8367591D02*
X12996048Y8367591D01*
X13138905Y8367591D02*
X13138905Y8867591D01*
X13138905Y8867591D02*
X13091286Y8796162D01*
X13091286Y8796162D02*
X13043667Y8748543D01*
X13043667Y8748543D02*
X12996048Y8724734D01*
X13591285Y8867591D02*
X13638904Y8867591D01*
X13638904Y8867591D02*
X13686523Y8843781D01*
X13686523Y8843781D02*
X13710333Y8819972D01*
X13710333Y8819972D02*
X13734142Y8772353D01*
X13734142Y8772353D02*
X13757952Y8677115D01*
X13757952Y8677115D02*
X13757952Y8558067D01*
X13757952Y8558067D02*
X13734142Y8462829D01*
X13734142Y8462829D02*
X13710333Y8415210D01*
X13710333Y8415210D02*
X13686523Y8391400D01*
X13686523Y8391400D02*
X13638904Y8367591D01*
X13638904Y8367591D02*
X13591285Y8367591D01*
X13591285Y8367591D02*
X13543666Y8391400D01*
X13543666Y8391400D02*
X13519857Y8415210D01*
X13519857Y8415210D02*
X13496047Y8462829D01*
X13496047Y8462829D02*
X13472238Y8558067D01*
X13472238Y8558067D02*
X13472238Y8677115D01*
X13472238Y8677115D02*
X13496047Y8772353D01*
X13496047Y8772353D02*
X13519857Y8819972D01*
X13519857Y8819972D02*
X13543666Y8843781D01*
X13543666Y8843781D02*
X13591285Y8867591D01*
X32798571Y16845210D02*
X32774762Y16821400D01*
X32774762Y16821400D02*
X32703333Y16797591D01*
X32703333Y16797591D02*
X32655714Y16797591D01*
X32655714Y16797591D02*
X32584286Y16821400D01*
X32584286Y16821400D02*
X32536667Y16869020D01*
X32536667Y16869020D02*
X32512857Y16916639D01*
X32512857Y16916639D02*
X32489048Y17011877D01*
X32489048Y17011877D02*
X32489048Y17083305D01*
X32489048Y17083305D02*
X32512857Y17178543D01*
X32512857Y17178543D02*
X32536667Y17226162D01*
X32536667Y17226162D02*
X32584286Y17273781D01*
X32584286Y17273781D02*
X32655714Y17297591D01*
X32655714Y17297591D02*
X32703333Y17297591D01*
X32703333Y17297591D02*
X32774762Y17273781D01*
X32774762Y17273781D02*
X32798571Y17249972D01*
X33274762Y16797591D02*
X32989048Y16797591D01*
X33131905Y16797591D02*
X33131905Y17297591D01*
X33131905Y17297591D02*
X33084286Y17226162D01*
X33084286Y17226162D02*
X33036667Y17178543D01*
X33036667Y17178543D02*
X32989048Y17154734D01*
X33560476Y17083305D02*
X33512857Y17107115D01*
X33512857Y17107115D02*
X33489047Y17130924D01*
X33489047Y17130924D02*
X33465238Y17178543D01*
X33465238Y17178543D02*
X33465238Y17202353D01*
X33465238Y17202353D02*
X33489047Y17249972D01*
X33489047Y17249972D02*
X33512857Y17273781D01*
X33512857Y17273781D02*
X33560476Y17297591D01*
X33560476Y17297591D02*
X33655714Y17297591D01*
X33655714Y17297591D02*
X33703333Y17273781D01*
X33703333Y17273781D02*
X33727142Y17249972D01*
X33727142Y17249972D02*
X33750952Y17202353D01*
X33750952Y17202353D02*
X33750952Y17178543D01*
X33750952Y17178543D02*
X33727142Y17130924D01*
X33727142Y17130924D02*
X33703333Y17107115D01*
X33703333Y17107115D02*
X33655714Y17083305D01*
X33655714Y17083305D02*
X33560476Y17083305D01*
X33560476Y17083305D02*
X33512857Y17059496D01*
X33512857Y17059496D02*
X33489047Y17035686D01*
X33489047Y17035686D02*
X33465238Y16988067D01*
X33465238Y16988067D02*
X33465238Y16892829D01*
X33465238Y16892829D02*
X33489047Y16845210D01*
X33489047Y16845210D02*
X33512857Y16821400D01*
X33512857Y16821400D02*
X33560476Y16797591D01*
X33560476Y16797591D02*
X33655714Y16797591D01*
X33655714Y16797591D02*
X33703333Y16821400D01*
X33703333Y16821400D02*
X33727142Y16845210D01*
X33727142Y16845210D02*
X33750952Y16892829D01*
X33750952Y16892829D02*
X33750952Y16988067D01*
X33750952Y16988067D02*
X33727142Y17035686D01*
X33727142Y17035686D02*
X33703333Y17059496D01*
X33703333Y17059496D02*
X33655714Y17083305D01*
X16630665Y8367591D02*
X16463999Y8605686D01*
X16344951Y8367591D02*
X16344951Y8867591D01*
X16344951Y8867591D02*
X16535427Y8867591D01*
X16535427Y8867591D02*
X16583046Y8843781D01*
X16583046Y8843781D02*
X16606856Y8819972D01*
X16606856Y8819972D02*
X16630665Y8772353D01*
X16630665Y8772353D02*
X16630665Y8700924D01*
X16630665Y8700924D02*
X16606856Y8653305D01*
X16606856Y8653305D02*
X16583046Y8629496D01*
X16583046Y8629496D02*
X16535427Y8605686D01*
X16535427Y8605686D02*
X16344951Y8605686D01*
X16868761Y8367591D02*
X16963999Y8367591D01*
X16963999Y8367591D02*
X17011618Y8391400D01*
X17011618Y8391400D02*
X17035427Y8415210D01*
X17035427Y8415210D02*
X17083046Y8486639D01*
X17083046Y8486639D02*
X17106856Y8581877D01*
X17106856Y8581877D02*
X17106856Y8772353D01*
X17106856Y8772353D02*
X17083046Y8819972D01*
X17083046Y8819972D02*
X17059237Y8843781D01*
X17059237Y8843781D02*
X17011618Y8867591D01*
X17011618Y8867591D02*
X16916380Y8867591D01*
X16916380Y8867591D02*
X16868761Y8843781D01*
X16868761Y8843781D02*
X16844951Y8819972D01*
X16844951Y8819972D02*
X16821142Y8772353D01*
X16821142Y8772353D02*
X16821142Y8653305D01*
X16821142Y8653305D02*
X16844951Y8605686D01*
X16844951Y8605686D02*
X16868761Y8581877D01*
X16868761Y8581877D02*
X16916380Y8558067D01*
X16916380Y8558067D02*
X17011618Y8558067D01*
X17011618Y8558067D02*
X17059237Y8581877D01*
X17059237Y8581877D02*
X17083046Y8605686D01*
X17083046Y8605686D02*
X17106856Y8653305D01*
X16998571Y6617591D02*
X16831905Y6855686D01*
X16712857Y6617591D02*
X16712857Y7117591D01*
X16712857Y7117591D02*
X16903333Y7117591D01*
X16903333Y7117591D02*
X16950952Y7093781D01*
X16950952Y7093781D02*
X16974762Y7069972D01*
X16974762Y7069972D02*
X16998571Y7022353D01*
X16998571Y7022353D02*
X16998571Y6950924D01*
X16998571Y6950924D02*
X16974762Y6903305D01*
X16974762Y6903305D02*
X16950952Y6879496D01*
X16950952Y6879496D02*
X16903333Y6855686D01*
X16903333Y6855686D02*
X16712857Y6855686D01*
X17474762Y6617591D02*
X17189048Y6617591D01*
X17331905Y6617591D02*
X17331905Y7117591D01*
X17331905Y7117591D02*
X17284286Y7046162D01*
X17284286Y7046162D02*
X17236667Y6998543D01*
X17236667Y6998543D02*
X17189048Y6974734D01*
X17641428Y7117591D02*
X17950952Y7117591D01*
X17950952Y7117591D02*
X17784285Y6927115D01*
X17784285Y6927115D02*
X17855714Y6927115D01*
X17855714Y6927115D02*
X17903333Y6903305D01*
X17903333Y6903305D02*
X17927142Y6879496D01*
X17927142Y6879496D02*
X17950952Y6831877D01*
X17950952Y6831877D02*
X17950952Y6712829D01*
X17950952Y6712829D02*
X17927142Y6665210D01*
X17927142Y6665210D02*
X17903333Y6641400D01*
X17903333Y6641400D02*
X17855714Y6617591D01*
X17855714Y6617591D02*
X17712857Y6617591D01*
X17712857Y6617591D02*
X17665238Y6641400D01*
X17665238Y6641400D02*
X17641428Y6665210D01*
X29318571Y16915210D02*
X29294762Y16891400D01*
X29294762Y16891400D02*
X29223333Y16867591D01*
X29223333Y16867591D02*
X29175714Y16867591D01*
X29175714Y16867591D02*
X29104286Y16891400D01*
X29104286Y16891400D02*
X29056667Y16939020D01*
X29056667Y16939020D02*
X29032857Y16986639D01*
X29032857Y16986639D02*
X29009048Y17081877D01*
X29009048Y17081877D02*
X29009048Y17153305D01*
X29009048Y17153305D02*
X29032857Y17248543D01*
X29032857Y17248543D02*
X29056667Y17296162D01*
X29056667Y17296162D02*
X29104286Y17343781D01*
X29104286Y17343781D02*
X29175714Y17367591D01*
X29175714Y17367591D02*
X29223333Y17367591D01*
X29223333Y17367591D02*
X29294762Y17343781D01*
X29294762Y17343781D02*
X29318571Y17319972D01*
X29794762Y16867591D02*
X29509048Y16867591D01*
X29651905Y16867591D02*
X29651905Y17367591D01*
X29651905Y17367591D02*
X29604286Y17296162D01*
X29604286Y17296162D02*
X29556667Y17248543D01*
X29556667Y17248543D02*
X29509048Y17224734D01*
X30223333Y17367591D02*
X30128095Y17367591D01*
X30128095Y17367591D02*
X30080476Y17343781D01*
X30080476Y17343781D02*
X30056666Y17319972D01*
X30056666Y17319972D02*
X30009047Y17248543D01*
X30009047Y17248543D02*
X29985238Y17153305D01*
X29985238Y17153305D02*
X29985238Y16962829D01*
X29985238Y16962829D02*
X30009047Y16915210D01*
X30009047Y16915210D02*
X30032857Y16891400D01*
X30032857Y16891400D02*
X30080476Y16867591D01*
X30080476Y16867591D02*
X30175714Y16867591D01*
X30175714Y16867591D02*
X30223333Y16891400D01*
X30223333Y16891400D02*
X30247142Y16915210D01*
X30247142Y16915210D02*
X30270952Y16962829D01*
X30270952Y16962829D02*
X30270952Y17081877D01*
X30270952Y17081877D02*
X30247142Y17129496D01*
X30247142Y17129496D02*
X30223333Y17153305D01*
X30223333Y17153305D02*
X30175714Y17177115D01*
X30175714Y17177115D02*
X30080476Y17177115D01*
X30080476Y17177115D02*
X30032857Y17153305D01*
X30032857Y17153305D02*
X30009047Y17129496D01*
X30009047Y17129496D02*
X29985238Y17081877D01*
X18219047Y2737591D02*
X18219047Y2332829D01*
X18219047Y2332829D02*
X18242857Y2285210D01*
X18242857Y2285210D02*
X18266666Y2261400D01*
X18266666Y2261400D02*
X18314285Y2237591D01*
X18314285Y2237591D02*
X18409523Y2237591D01*
X18409523Y2237591D02*
X18457142Y2261400D01*
X18457142Y2261400D02*
X18480952Y2285210D01*
X18480952Y2285210D02*
X18504761Y2332829D01*
X18504761Y2332829D02*
X18504761Y2737591D01*
X18957143Y2570924D02*
X18957143Y2237591D01*
X18838095Y2761400D02*
X18719048Y2404258D01*
X18719048Y2404258D02*
X19028571Y2404258D01*
X8022380Y8319972D02*
X7974761Y8343781D01*
X7974761Y8343781D02*
X7927142Y8391400D01*
X7927142Y8391400D02*
X7855714Y8462829D01*
X7855714Y8462829D02*
X7808095Y8486639D01*
X7808095Y8486639D02*
X7760476Y8486639D01*
X7784285Y8367591D02*
X7736666Y8391400D01*
X7736666Y8391400D02*
X7689047Y8439020D01*
X7689047Y8439020D02*
X7665238Y8534258D01*
X7665238Y8534258D02*
X7665238Y8700924D01*
X7665238Y8700924D02*
X7689047Y8796162D01*
X7689047Y8796162D02*
X7736666Y8843781D01*
X7736666Y8843781D02*
X7784285Y8867591D01*
X7784285Y8867591D02*
X7879523Y8867591D01*
X7879523Y8867591D02*
X7927142Y8843781D01*
X7927142Y8843781D02*
X7974761Y8796162D01*
X7974761Y8796162D02*
X7998571Y8700924D01*
X7998571Y8700924D02*
X7998571Y8534258D01*
X7998571Y8534258D02*
X7974761Y8439020D01*
X7974761Y8439020D02*
X7927142Y8391400D01*
X7927142Y8391400D02*
X7879523Y8367591D01*
X7879523Y8367591D02*
X7784285Y8367591D01*
X8474762Y8367591D02*
X8189048Y8367591D01*
X8331905Y8367591D02*
X8331905Y8867591D01*
X8331905Y8867591D02*
X8284286Y8796162D01*
X8284286Y8796162D02*
X8236667Y8748543D01*
X8236667Y8748543D02*
X8189048Y8724734D01*
X34427409Y13745953D02*
X33927409Y13745953D01*
X33927409Y13745953D02*
X33927409Y13865001D01*
X33927409Y13865001D02*
X33951219Y13936429D01*
X33951219Y13936429D02*
X33998838Y13984048D01*
X33998838Y13984048D02*
X34046457Y14007858D01*
X34046457Y14007858D02*
X34141695Y14031667D01*
X34141695Y14031667D02*
X34213123Y14031667D01*
X34213123Y14031667D02*
X34308361Y14007858D01*
X34308361Y14007858D02*
X34355980Y13984048D01*
X34355980Y13984048D02*
X34403600Y13936429D01*
X34403600Y13936429D02*
X34427409Y13865001D01*
X34427409Y13865001D02*
X34427409Y13745953D01*
X34427409Y14269763D02*
X34427409Y14365001D01*
X34427409Y14365001D02*
X34403600Y14412620D01*
X34403600Y14412620D02*
X34379790Y14436429D01*
X34379790Y14436429D02*
X34308361Y14484048D01*
X34308361Y14484048D02*
X34213123Y14507858D01*
X34213123Y14507858D02*
X34022647Y14507858D01*
X34022647Y14507858D02*
X33975028Y14484048D01*
X33975028Y14484048D02*
X33951219Y14460239D01*
X33951219Y14460239D02*
X33927409Y14412620D01*
X33927409Y14412620D02*
X33927409Y14317382D01*
X33927409Y14317382D02*
X33951219Y14269763D01*
X33951219Y14269763D02*
X33975028Y14245953D01*
X33975028Y14245953D02*
X34022647Y14222144D01*
X34022647Y14222144D02*
X34141695Y14222144D01*
X34141695Y14222144D02*
X34189314Y14245953D01*
X34189314Y14245953D02*
X34213123Y14269763D01*
X34213123Y14269763D02*
X34236933Y14317382D01*
X34236933Y14317382D02*
X34236933Y14412620D01*
X34236933Y14412620D02*
X34213123Y14460239D01*
X34213123Y14460239D02*
X34189314Y14484048D01*
X34189314Y14484048D02*
X34141695Y14507858D01*
X32427409Y1630953D02*
X31927409Y1630953D01*
X31927409Y1630953D02*
X31927409Y1750001D01*
X31927409Y1750001D02*
X31951219Y1821429D01*
X31951219Y1821429D02*
X31998838Y1869048D01*
X31998838Y1869048D02*
X32046457Y1892858D01*
X32046457Y1892858D02*
X32141695Y1916667D01*
X32141695Y1916667D02*
X32213123Y1916667D01*
X32213123Y1916667D02*
X32308361Y1892858D01*
X32308361Y1892858D02*
X32355980Y1869048D01*
X32355980Y1869048D02*
X32403600Y1821429D01*
X32403600Y1821429D02*
X32427409Y1750001D01*
X32427409Y1750001D02*
X32427409Y1630953D01*
X31975028Y2107144D02*
X31951219Y2130953D01*
X31951219Y2130953D02*
X31927409Y2178572D01*
X31927409Y2178572D02*
X31927409Y2297620D01*
X31927409Y2297620D02*
X31951219Y2345239D01*
X31951219Y2345239D02*
X31975028Y2369048D01*
X31975028Y2369048D02*
X32022647Y2392858D01*
X32022647Y2392858D02*
X32070266Y2392858D01*
X32070266Y2392858D02*
X32141695Y2369048D01*
X32141695Y2369048D02*
X32427409Y2083334D01*
X32427409Y2083334D02*
X32427409Y2392858D01*
X38253048Y10200591D02*
X38538762Y10200591D01*
X38395905Y9700591D02*
X38395905Y10200591D01*
X38705428Y9700591D02*
X38705428Y10200591D01*
X38705428Y10200591D02*
X38895904Y10200591D01*
X38895904Y10200591D02*
X38943523Y10176781D01*
X38943523Y10176781D02*
X38967333Y10152972D01*
X38967333Y10152972D02*
X38991142Y10105353D01*
X38991142Y10105353D02*
X38991142Y10033924D01*
X38991142Y10033924D02*
X38967333Y9986305D01*
X38967333Y9986305D02*
X38943523Y9962496D01*
X38943523Y9962496D02*
X38895904Y9938686D01*
X38895904Y9938686D02*
X38705428Y9938686D01*
X39157809Y10200591D02*
X39491142Y10200591D01*
X39491142Y10200591D02*
X39276857Y9700591D01*
X10428571Y5320210D02*
X10404762Y5296400D01*
X10404762Y5296400D02*
X10333333Y5272591D01*
X10333333Y5272591D02*
X10285714Y5272591D01*
X10285714Y5272591D02*
X10214286Y5296400D01*
X10214286Y5296400D02*
X10166667Y5344020D01*
X10166667Y5344020D02*
X10142857Y5391639D01*
X10142857Y5391639D02*
X10119048Y5486877D01*
X10119048Y5486877D02*
X10119048Y5558305D01*
X10119048Y5558305D02*
X10142857Y5653543D01*
X10142857Y5653543D02*
X10166667Y5701162D01*
X10166667Y5701162D02*
X10214286Y5748781D01*
X10214286Y5748781D02*
X10285714Y5772591D01*
X10285714Y5772591D02*
X10333333Y5772591D01*
X10333333Y5772591D02*
X10404762Y5748781D01*
X10404762Y5748781D02*
X10428571Y5724972D01*
X10904762Y5272591D02*
X10619048Y5272591D01*
X10761905Y5272591D02*
X10761905Y5772591D01*
X10761905Y5772591D02*
X10714286Y5701162D01*
X10714286Y5701162D02*
X10666667Y5653543D01*
X10666667Y5653543D02*
X10619048Y5629734D01*
X11142857Y5272591D02*
X11238095Y5272591D01*
X11238095Y5272591D02*
X11285714Y5296400D01*
X11285714Y5296400D02*
X11309523Y5320210D01*
X11309523Y5320210D02*
X11357142Y5391639D01*
X11357142Y5391639D02*
X11380952Y5486877D01*
X11380952Y5486877D02*
X11380952Y5677353D01*
X11380952Y5677353D02*
X11357142Y5724972D01*
X11357142Y5724972D02*
X11333333Y5748781D01*
X11333333Y5748781D02*
X11285714Y5772591D01*
X11285714Y5772591D02*
X11190476Y5772591D01*
X11190476Y5772591D02*
X11142857Y5748781D01*
X11142857Y5748781D02*
X11119047Y5724972D01*
X11119047Y5724972D02*
X11095238Y5677353D01*
X11095238Y5677353D02*
X11095238Y5558305D01*
X11095238Y5558305D02*
X11119047Y5510686D01*
X11119047Y5510686D02*
X11142857Y5486877D01*
X11142857Y5486877D02*
X11190476Y5463067D01*
X11190476Y5463067D02*
X11285714Y5463067D01*
X11285714Y5463067D02*
X11333333Y5486877D01*
X11333333Y5486877D02*
X11357142Y5510686D01*
X11357142Y5510686D02*
X11380952Y5558305D01*
X15656666Y16935210D02*
X15632857Y16911400D01*
X15632857Y16911400D02*
X15561428Y16887591D01*
X15561428Y16887591D02*
X15513809Y16887591D01*
X15513809Y16887591D02*
X15442381Y16911400D01*
X15442381Y16911400D02*
X15394762Y16959020D01*
X15394762Y16959020D02*
X15370952Y17006639D01*
X15370952Y17006639D02*
X15347143Y17101877D01*
X15347143Y17101877D02*
X15347143Y17173305D01*
X15347143Y17173305D02*
X15370952Y17268543D01*
X15370952Y17268543D02*
X15394762Y17316162D01*
X15394762Y17316162D02*
X15442381Y17363781D01*
X15442381Y17363781D02*
X15513809Y17387591D01*
X15513809Y17387591D02*
X15561428Y17387591D01*
X15561428Y17387591D02*
X15632857Y17363781D01*
X15632857Y17363781D02*
X15656666Y17339972D01*
X15942381Y17173305D02*
X15894762Y17197115D01*
X15894762Y17197115D02*
X15870952Y17220924D01*
X15870952Y17220924D02*
X15847143Y17268543D01*
X15847143Y17268543D02*
X15847143Y17292353D01*
X15847143Y17292353D02*
X15870952Y17339972D01*
X15870952Y17339972D02*
X15894762Y17363781D01*
X15894762Y17363781D02*
X15942381Y17387591D01*
X15942381Y17387591D02*
X16037619Y17387591D01*
X16037619Y17387591D02*
X16085238Y17363781D01*
X16085238Y17363781D02*
X16109047Y17339972D01*
X16109047Y17339972D02*
X16132857Y17292353D01*
X16132857Y17292353D02*
X16132857Y17268543D01*
X16132857Y17268543D02*
X16109047Y17220924D01*
X16109047Y17220924D02*
X16085238Y17197115D01*
X16085238Y17197115D02*
X16037619Y17173305D01*
X16037619Y17173305D02*
X15942381Y17173305D01*
X15942381Y17173305D02*
X15894762Y17149496D01*
X15894762Y17149496D02*
X15870952Y17125686D01*
X15870952Y17125686D02*
X15847143Y17078067D01*
X15847143Y17078067D02*
X15847143Y16982829D01*
X15847143Y16982829D02*
X15870952Y16935210D01*
X15870952Y16935210D02*
X15894762Y16911400D01*
X15894762Y16911400D02*
X15942381Y16887591D01*
X15942381Y16887591D02*
X16037619Y16887591D01*
X16037619Y16887591D02*
X16085238Y16911400D01*
X16085238Y16911400D02*
X16109047Y16935210D01*
X16109047Y16935210D02*
X16132857Y16982829D01*
X16132857Y16982829D02*
X16132857Y17078067D01*
X16132857Y17078067D02*
X16109047Y17125686D01*
X16109047Y17125686D02*
X16085238Y17149496D01*
X16085238Y17149496D02*
X16037619Y17173305D01*
X20446075Y13745953D02*
X19946075Y13745953D01*
X19946075Y13745953D02*
X19946075Y13865001D01*
X19946075Y13865001D02*
X19969885Y13936429D01*
X19969885Y13936429D02*
X20017504Y13984048D01*
X20017504Y13984048D02*
X20065123Y14007858D01*
X20065123Y14007858D02*
X20160361Y14031667D01*
X20160361Y14031667D02*
X20231789Y14031667D01*
X20231789Y14031667D02*
X20327027Y14007858D01*
X20327027Y14007858D02*
X20374646Y13984048D01*
X20374646Y13984048D02*
X20422266Y13936429D01*
X20422266Y13936429D02*
X20446075Y13865001D01*
X20446075Y13865001D02*
X20446075Y13745953D01*
X19946075Y14484048D02*
X19946075Y14245953D01*
X19946075Y14245953D02*
X20184170Y14222144D01*
X20184170Y14222144D02*
X20160361Y14245953D01*
X20160361Y14245953D02*
X20136551Y14293572D01*
X20136551Y14293572D02*
X20136551Y14412620D01*
X20136551Y14412620D02*
X20160361Y14460239D01*
X20160361Y14460239D02*
X20184170Y14484048D01*
X20184170Y14484048D02*
X20231789Y14507858D01*
X20231789Y14507858D02*
X20350837Y14507858D01*
X20350837Y14507858D02*
X20398456Y14484048D01*
X20398456Y14484048D02*
X20422266Y14460239D01*
X20422266Y14460239D02*
X20446075Y14412620D01*
X20446075Y14412620D02*
X20446075Y14293572D01*
X20446075Y14293572D02*
X20422266Y14245953D01*
X20422266Y14245953D02*
X20398456Y14222144D01*
X17486666Y-334790D02*
X17462857Y-358600D01*
X17462857Y-358600D02*
X17391428Y-382409D01*
X17391428Y-382409D02*
X17343809Y-382409D01*
X17343809Y-382409D02*
X17272381Y-358600D01*
X17272381Y-358600D02*
X17224762Y-310980D01*
X17224762Y-310980D02*
X17200952Y-263361D01*
X17200952Y-263361D02*
X17177143Y-168123D01*
X17177143Y-168123D02*
X17177143Y-96695D01*
X17177143Y-96695D02*
X17200952Y-1457D01*
X17200952Y-1457D02*
X17224762Y46162D01*
X17224762Y46162D02*
X17272381Y93781D01*
X17272381Y93781D02*
X17343809Y117591D01*
X17343809Y117591D02*
X17391428Y117591D01*
X17391428Y117591D02*
X17462857Y93781D01*
X17462857Y93781D02*
X17486666Y69972D01*
X17653333Y117591D02*
X17962857Y117591D01*
X17962857Y117591D02*
X17796190Y-72885D01*
X17796190Y-72885D02*
X17867619Y-72885D01*
X17867619Y-72885D02*
X17915238Y-96695D01*
X17915238Y-96695D02*
X17939047Y-120504D01*
X17939047Y-120504D02*
X17962857Y-168123D01*
X17962857Y-168123D02*
X17962857Y-287171D01*
X17962857Y-287171D02*
X17939047Y-334790D01*
X17939047Y-334790D02*
X17915238Y-358600D01*
X17915238Y-358600D02*
X17867619Y-382409D01*
X17867619Y-382409D02*
X17724762Y-382409D01*
X17724762Y-382409D02*
X17677143Y-358600D01*
X17677143Y-358600D02*
X17653333Y-334790D01*
D14*
X6450000Y7250000D02*
X6450000Y4350000D01*
X4350000Y7250000D02*
X6450000Y7250000D01*
X7875000Y4250000D02*
X6800000Y4250000D01*
X6450000Y4350000D02*
X4350000Y4350000D01*
X4350000Y4350000D02*
X4350000Y7250000D01*
D15*
X19957414Y13050000D02*
X20479918Y13050000D01*
X19957414Y11580000D02*
X20479918Y11580000D01*
X165000Y5222936D02*
X165000Y5677064D01*
X1635000Y5222936D02*
X1635000Y5677064D01*
X16437081Y13050000D02*
X16959585Y13050000D01*
X16437081Y11580000D02*
X16959585Y11580000D01*
X39160000Y5610000D02*
G75*
G02*
X35560000Y5610000I-1800000J0D01*
G01*
X35560000Y5610000D02*
G75*
G02*
X39160000Y5610000I1800000J0D01*
G01*
X39160000Y1800000D02*
G75*
G02*
X35560000Y1800000I-1800000J0D01*
G01*
X35560000Y1800000D02*
G75*
G02*
X39160000Y1800000I1800000J0D01*
G01*
X29140000Y15365000D02*
X29140000Y16015000D01*
X29140000Y15365000D02*
X29140000Y13690000D01*
X32260000Y15365000D02*
X32260000Y16015000D01*
X32260000Y15365000D02*
X32260000Y14715000D01*
X15140000Y15365000D02*
X15140000Y16015000D01*
X15140000Y15365000D02*
X15140000Y13690000D01*
X18260000Y15365000D02*
X18260000Y16015000D01*
X18260000Y15365000D02*
X18260000Y14715000D01*
X22518748Y19100000D02*
X23041252Y19100000D01*
X22518748Y17630000D02*
X23041252Y17630000D01*
X23477747Y13050000D02*
X24000251Y13050000D01*
X23477747Y11580000D02*
X24000251Y11580000D01*
X30085000Y6159564D02*
X30085000Y5705436D01*
X31555000Y6159564D02*
X31555000Y5705436D01*
X19008748Y19090000D02*
X19531252Y19090000D01*
X19008748Y17620000D02*
X19531252Y17620000D01*
X11618000Y15389000D02*
X11618000Y16039000D01*
X11618000Y15389000D02*
X11618000Y13714000D01*
X14738000Y15389000D02*
X14738000Y16039000D01*
X14738000Y15389000D02*
X14738000Y14739000D01*
X20439062Y10580000D02*
X19984934Y10580000D01*
X20439062Y9110000D02*
X19984934Y9110000D01*
X585000Y17137936D02*
X585000Y17592064D01*
X2055000Y17137936D02*
X2055000Y17592064D01*
X23966063Y10580000D02*
X23511935Y10580000D01*
X23966063Y9110000D02*
X23511935Y9110000D01*
X17585000Y4822064D02*
X17585000Y4367936D01*
X19055000Y4822064D02*
X19055000Y4367936D01*
X26998080Y13050000D02*
X27520584Y13050000D01*
X26998080Y11580000D02*
X27520584Y11580000D01*
X22140000Y15365000D02*
X22140000Y16015000D01*
X22140000Y15365000D02*
X22140000Y13690000D01*
X25260000Y15365000D02*
X25260000Y16015000D01*
X25260000Y15365000D02*
X25260000Y14715000D01*
X13660000Y1800000D02*
G75*
G02*
X10260000Y1800000I-1700000J0D01*
G01*
X10260000Y1800000D02*
G75*
G02*
X13660000Y1800000I1700000J0D01*
G01*
X25640000Y15365000D02*
X25640000Y16015000D01*
X25640000Y15365000D02*
X25640000Y13690000D01*
X28760000Y15365000D02*
X28760000Y16015000D01*
X28760000Y15365000D02*
X28760000Y14715000D01*
X12018748Y19110000D02*
X12541252Y19110000D01*
X12018748Y17640000D02*
X12541252Y17640000D01*
X2665000Y17626252D02*
X2665000Y17103748D01*
X4135000Y17626252D02*
X4135000Y17103748D01*
X35688000Y10909064D02*
X35688000Y9454936D01*
X37508000Y10909064D02*
X37508000Y9454936D01*
X30518413Y13050000D02*
X31040917Y13050000D01*
X30518413Y11580000D02*
X31040917Y11580000D01*
X15297064Y5580000D02*
X14842936Y5580000D01*
X15297064Y4110000D02*
X14842936Y4110000D01*
X12916748Y13050000D02*
X13439252Y13050000D01*
X12916748Y11580000D02*
X13439252Y11580000D01*
X26048748Y19090000D02*
X26571252Y19090000D01*
X26048748Y17620000D02*
X26571252Y17620000D01*
X5700000Y19265000D02*
X5700000Y15265000D01*
X9900000Y19265000D02*
X9900000Y15265000D01*
X14115000Y1922936D02*
X14115000Y2377064D01*
X15585000Y1922936D02*
X15585000Y2377064D01*
X12930936Y10580000D02*
X13385064Y10580000D01*
X12930936Y9110000D02*
X13385064Y9110000D01*
X33008748Y19100000D02*
X33531252Y19100000D01*
X33008748Y17630000D02*
X33531252Y17630000D01*
X16912063Y10580000D02*
X16457935Y10580000D01*
X16912063Y9110000D02*
X16457935Y9110000D01*
X15297064Y7580000D02*
X14842936Y7580000D01*
X15297064Y6110000D02*
X14842936Y6110000D01*
X29528748Y19100000D02*
X30051252Y19100000D01*
X29528748Y17630000D02*
X30051252Y17630000D01*
X19470000Y1845000D02*
X19510000Y5795000D01*
X29630000Y3845000D02*
X29630000Y5795000D01*
X29630000Y3845000D02*
X29630000Y1895000D01*
D16*
X19650000Y2445000D02*
G75*
G02*
X19290000Y2445000I-180000J0D01*
G01*
X19290000Y2445000D02*
G75*
G02*
X19650000Y2445000I180000J0D01*
G01*
D15*
X1026000Y14735000D02*
X7036000Y14735000D01*
X3276000Y7915000D02*
X7036000Y7915000D01*
X7036000Y14735000D02*
X7036000Y13475000D01*
X7036000Y7915000D02*
X7036000Y9175000D01*
X32640000Y15365000D02*
X32640000Y16015000D01*
X32640000Y15365000D02*
X32640000Y13690000D01*
X35760000Y15365000D02*
X35760000Y16015000D01*
X35760000Y15365000D02*
X35760000Y14715000D01*
X29970000Y595000D02*
X29970000Y3145000D01*
X29970000Y595000D02*
X31670000Y595000D01*
X31670000Y595000D02*
X31670000Y3145000D01*
X38184000Y12152000D02*
X39584000Y12152000D01*
X38184000Y10752000D02*
X38184000Y12152000D01*
X39584000Y12152000D02*
X39584000Y10752000D01*
X39584000Y10752000D02*
X38184000Y10752000D01*
X11631252Y7580000D02*
X11108748Y7580000D01*
X11631252Y6110000D02*
X11108748Y6110000D01*
X15518748Y19110000D02*
X16041252Y19110000D01*
X15518748Y17640000D02*
X16041252Y17640000D01*
X18658666Y15365000D02*
X18658666Y16015000D01*
X18658666Y15365000D02*
X18658666Y13690000D01*
X21778666Y15365000D02*
X21778666Y16015000D01*
X21778666Y15365000D02*
X21778666Y14715000D01*
X17308748Y1830000D02*
X17831252Y1830000D01*
X17308748Y360000D02*
X17831252Y360000D01*
M02*
