M48
; DRILL file {KiCad 8.99.0-1513-g7fef6e8d83} date 2024-06-23T17:30:40+1200
; FORMAT={-:-/ absolute / inch / decimal}
; #@! TF.CreationDate,2024-06-23T17:30:40+12:00
; #@! TF.GenerationSoftware,Kicad,Pcbnew,8.99.0-1513-g7fef6e8d83
; #@! TF.FileFunction,Plated,1,4,PTH
FMAT,2
INCH
; #@! TA.AperFunction,Plated,PTH,ViaDrill
T1C0.0157
; #@! TA.AperFunction,Plated,PTH,ComponentDrill
T2C0.0394
; #@! TA.AperFunction,Plated,PTH,ComponentDrill
T3C0.0551
%
G90
G05
T1
X0.0039Y0.4685
X0.0886Y0.3071
X0.0906Y0.2677
X0.0906Y0.2283
X0.1398Y0.5492
X0.1575Y0.3504
X0.1752Y0.6378
X0.2087Y0.1969
X0.2374Y0.4713
X0.2421Y0.4094
X0.2638Y0.3051
X0.313Y0.2933
X0.3569Y0.2135
X0.3701Y0.2677
X0.4449Y0.5758
X0.5092Y0.1909
X0.5512Y0.7362
X0.5906Y0.6417
X0.7283Y0.6398
X0.7656Y0.0683
X0.7657Y0.1949
X0.8394Y0.1809
X0.8725Y0.6423
X0.876Y0.0099
X0.9272Y0.2938
X0.9409Y0.1929
X0.9961Y0.4055
X1.0323Y0.1273
X1.0945Y0.3687
X1.1713Y0.0728
T2
X0.0709Y0.0709
X0.1709Y0.0709
X0.2709Y0.0709
X0.4709Y0.0709
X1.4709Y0.6709
X1.4709Y0.5709
X1.4709Y0.2209
T3
X1.4709Y0.0709
M30
