G04 #@! TF.GenerationSoftware,KiCad,Pcbnew,8.99.0-1513-g7fef6e8d83*
G04 #@! TF.CreationDate,2024-06-23T17:30:35+12:00*
G04 #@! TF.ProjectId,SafePulse,53616665-5075-46c7-9365-2e6b69636164,V1.2.4*
G04 #@! TF.SameCoordinates,PX78d49e0PY49c7f08*
G04 #@! TF.FileFunction,Legend,Bot*
G04 #@! TF.FilePolarity,Positive*
%FSLAX46Y46*%
G04 Gerber Fmt 4.6, Leading zero omitted, Abs format (unit mm)*
G04 Created by KiCad (PCBNEW 8.99.0-1513-g7fef6e8d83) date 2024-06-23 17:30:35*
%MOMM*%
%LPD*%
G01*
G04 APERTURE LIST*
%ADD10C,0.150000*%
%ADD11C,0.325000*%
%ADD12C,0.100000*%
%ADD13C,0.075000*%
%ADD14C,0.125000*%
%ADD15C,0.300000*%
%ADD16C,0.000000*%
%ADD17C,0.120000*%
G04 APERTURE END LIST*
D10*
X32570000Y-210000D02*
X38400000Y-210000D01*
X39670000Y1165000D02*
X38400000Y-210000D01*
X32570000Y8540000D02*
X34795000Y8540000D01*
X34820000Y11960000D02*
X39670000Y11960000D01*
X7420000Y10040000D02*
X8920000Y10040000D01*
X39670000Y11960000D02*
X39670000Y1165000D01*
X32550000Y8530000D02*
X32550000Y-210000D01*
D11*
X13662500Y11865000D02*
G75*
G02*
X13337500Y11865000I-162500J0D01*
G01*
X13337500Y11865000D02*
G75*
G02*
X13662500Y11865000I162500J0D01*
G01*
D10*
X34820000Y8540000D02*
X34820000Y11960000D01*
D12*
X7605952Y3915081D02*
X7653571Y3938891D01*
X7653571Y3938891D02*
X7725000Y3938891D01*
X7725000Y3938891D02*
X7796428Y3915081D01*
X7796428Y3915081D02*
X7844047Y3867462D01*
X7844047Y3867462D02*
X7867857Y3819843D01*
X7867857Y3819843D02*
X7891666Y3724605D01*
X7891666Y3724605D02*
X7891666Y3653177D01*
X7891666Y3653177D02*
X7867857Y3557939D01*
X7867857Y3557939D02*
X7844047Y3510320D01*
X7844047Y3510320D02*
X7796428Y3462700D01*
X7796428Y3462700D02*
X7725000Y3438891D01*
X7725000Y3438891D02*
X7677381Y3438891D01*
X7677381Y3438891D02*
X7605952Y3462700D01*
X7605952Y3462700D02*
X7582143Y3486510D01*
X7582143Y3486510D02*
X7582143Y3653177D01*
X7582143Y3653177D02*
X7677381Y3653177D01*
X7367857Y3438891D02*
X7367857Y3938891D01*
X7367857Y3938891D02*
X7082143Y3438891D01*
X7082143Y3438891D02*
X7082143Y3938891D01*
X6844047Y3438891D02*
X6844047Y3938891D01*
X6844047Y3938891D02*
X6724999Y3938891D01*
X6724999Y3938891D02*
X6653571Y3915081D01*
X6653571Y3915081D02*
X6605952Y3867462D01*
X6605952Y3867462D02*
X6582142Y3819843D01*
X6582142Y3819843D02*
X6558333Y3724605D01*
X6558333Y3724605D02*
X6558333Y3653177D01*
X6558333Y3653177D02*
X6582142Y3557939D01*
X6582142Y3557939D02*
X6605952Y3510320D01*
X6605952Y3510320D02*
X6653571Y3462700D01*
X6653571Y3462700D02*
X6724999Y3438891D01*
X6724999Y3438891D02*
X6844047Y3438891D01*
X34371714Y18936950D02*
X34236000Y18891712D01*
X34236000Y18891712D02*
X34009809Y18891712D01*
X34009809Y18891712D02*
X33919333Y18936950D01*
X33919333Y18936950D02*
X33874095Y18982189D01*
X33874095Y18982189D02*
X33828857Y19072665D01*
X33828857Y19072665D02*
X33828857Y19163141D01*
X33828857Y19163141D02*
X33874095Y19253617D01*
X33874095Y19253617D02*
X33919333Y19298855D01*
X33919333Y19298855D02*
X34009809Y19344093D01*
X34009809Y19344093D02*
X34190762Y19389331D01*
X34190762Y19389331D02*
X34281238Y19434570D01*
X34281238Y19434570D02*
X34326476Y19479808D01*
X34326476Y19479808D02*
X34371714Y19570284D01*
X34371714Y19570284D02*
X34371714Y19660760D01*
X34371714Y19660760D02*
X34326476Y19751236D01*
X34326476Y19751236D02*
X34281238Y19796474D01*
X34281238Y19796474D02*
X34190762Y19841712D01*
X34190762Y19841712D02*
X33964571Y19841712D01*
X33964571Y19841712D02*
X33828857Y19796474D01*
X33466952Y19163141D02*
X33014571Y19163141D01*
X33557428Y18891712D02*
X33240762Y19841712D01*
X33240762Y19841712D02*
X32924095Y18891712D01*
X32290761Y19389331D02*
X32607428Y19389331D01*
X32607428Y18891712D02*
X32607428Y19841712D01*
X32607428Y19841712D02*
X32155047Y19841712D01*
X31793142Y19389331D02*
X31476475Y19389331D01*
X31340761Y18891712D02*
X31793142Y18891712D01*
X31793142Y18891712D02*
X31793142Y19841712D01*
X31793142Y19841712D02*
X31340761Y19841712D01*
X30390761Y18982189D02*
X30435999Y18936950D01*
X30435999Y18936950D02*
X30571713Y18891712D01*
X30571713Y18891712D02*
X30662189Y18891712D01*
X30662189Y18891712D02*
X30797904Y18936950D01*
X30797904Y18936950D02*
X30888380Y19027427D01*
X30888380Y19027427D02*
X30933618Y19117903D01*
X30933618Y19117903D02*
X30978856Y19298855D01*
X30978856Y19298855D02*
X30978856Y19434570D01*
X30978856Y19434570D02*
X30933618Y19615522D01*
X30933618Y19615522D02*
X30888380Y19705998D01*
X30888380Y19705998D02*
X30797904Y19796474D01*
X30797904Y19796474D02*
X30662189Y19841712D01*
X30662189Y19841712D02*
X30571713Y19841712D01*
X30571713Y19841712D02*
X30435999Y19796474D01*
X30435999Y19796474D02*
X30390761Y19751236D01*
X30028856Y19163141D02*
X29576475Y19163141D01*
X30119332Y18891712D02*
X29802666Y19841712D01*
X29802666Y19841712D02*
X29485999Y18891712D01*
X29214570Y18936950D02*
X29078856Y18891712D01*
X29078856Y18891712D02*
X28852665Y18891712D01*
X28852665Y18891712D02*
X28762189Y18936950D01*
X28762189Y18936950D02*
X28716951Y18982189D01*
X28716951Y18982189D02*
X28671713Y19072665D01*
X28671713Y19072665D02*
X28671713Y19163141D01*
X28671713Y19163141D02*
X28716951Y19253617D01*
X28716951Y19253617D02*
X28762189Y19298855D01*
X28762189Y19298855D02*
X28852665Y19344093D01*
X28852665Y19344093D02*
X29033618Y19389331D01*
X29033618Y19389331D02*
X29124094Y19434570D01*
X29124094Y19434570D02*
X29169332Y19479808D01*
X29169332Y19479808D02*
X29214570Y19570284D01*
X29214570Y19570284D02*
X29214570Y19660760D01*
X29214570Y19660760D02*
X29169332Y19751236D01*
X29169332Y19751236D02*
X29124094Y19796474D01*
X29124094Y19796474D02*
X29033618Y19841712D01*
X29033618Y19841712D02*
X28807427Y19841712D01*
X28807427Y19841712D02*
X28671713Y19796474D01*
X28400284Y19841712D02*
X27857427Y19841712D01*
X28128856Y18891712D02*
X28128856Y19841712D01*
X27540760Y18982189D02*
X27495522Y18936950D01*
X27495522Y18936950D02*
X27540760Y18891712D01*
X27540760Y18891712D02*
X27585998Y18936950D01*
X27585998Y18936950D02*
X27540760Y18982189D01*
X27540760Y18982189D02*
X27540760Y18891712D01*
X26907427Y19841712D02*
X26726474Y19841712D01*
X26726474Y19841712D02*
X26635998Y19796474D01*
X26635998Y19796474D02*
X26545522Y19705998D01*
X26545522Y19705998D02*
X26500284Y19525046D01*
X26500284Y19525046D02*
X26500284Y19208379D01*
X26500284Y19208379D02*
X26545522Y19027427D01*
X26545522Y19027427D02*
X26635998Y18936950D01*
X26635998Y18936950D02*
X26726474Y18891712D01*
X26726474Y18891712D02*
X26907427Y18891712D01*
X26907427Y18891712D02*
X26997903Y18936950D01*
X26997903Y18936950D02*
X27088379Y19027427D01*
X27088379Y19027427D02*
X27133617Y19208379D01*
X27133617Y19208379D02*
X27133617Y19525046D01*
X27133617Y19525046D02*
X27088379Y19705998D01*
X27088379Y19705998D02*
X26997903Y19796474D01*
X26997903Y19796474D02*
X26907427Y19841712D01*
X25550284Y18891712D02*
X25866951Y19344093D01*
X26093141Y18891712D02*
X26093141Y19841712D01*
X26093141Y19841712D02*
X25731236Y19841712D01*
X25731236Y19841712D02*
X25640760Y19796474D01*
X25640760Y19796474D02*
X25595522Y19751236D01*
X25595522Y19751236D02*
X25550284Y19660760D01*
X25550284Y19660760D02*
X25550284Y19525046D01*
X25550284Y19525046D02*
X25595522Y19434570D01*
X25595522Y19434570D02*
X25640760Y19389331D01*
X25640760Y19389331D02*
X25731236Y19344093D01*
X25731236Y19344093D02*
X26093141Y19344093D01*
X24645522Y19796474D02*
X24735998Y19841712D01*
X24735998Y19841712D02*
X24871712Y19841712D01*
X24871712Y19841712D02*
X25007427Y19796474D01*
X25007427Y19796474D02*
X25097903Y19705998D01*
X25097903Y19705998D02*
X25143141Y19615522D01*
X25143141Y19615522D02*
X25188379Y19434570D01*
X25188379Y19434570D02*
X25188379Y19298855D01*
X25188379Y19298855D02*
X25143141Y19117903D01*
X25143141Y19117903D02*
X25097903Y19027427D01*
X25097903Y19027427D02*
X25007427Y18936950D01*
X25007427Y18936950D02*
X24871712Y18891712D01*
X24871712Y18891712D02*
X24781236Y18891712D01*
X24781236Y18891712D02*
X24645522Y18936950D01*
X24645522Y18936950D02*
X24600284Y18982189D01*
X24600284Y18982189D02*
X24600284Y19298855D01*
X24600284Y19298855D02*
X24781236Y19298855D01*
X2021951Y3648534D02*
X1260047Y3648534D01*
X1640999Y3267581D02*
X1640999Y4029486D01*
D13*
X7933330Y-203600D02*
X7861902Y-227409D01*
X7861902Y-227409D02*
X7742854Y-227409D01*
X7742854Y-227409D02*
X7695235Y-203600D01*
X7695235Y-203600D02*
X7671426Y-179790D01*
X7671426Y-179790D02*
X7647616Y-132171D01*
X7647616Y-132171D02*
X7647616Y-84552D01*
X7647616Y-84552D02*
X7671426Y-36933D01*
X7671426Y-36933D02*
X7695235Y-13123D01*
X7695235Y-13123D02*
X7742854Y10686D01*
X7742854Y10686D02*
X7838092Y34496D01*
X7838092Y34496D02*
X7885711Y58305D01*
X7885711Y58305D02*
X7909521Y82115D01*
X7909521Y82115D02*
X7933330Y129734D01*
X7933330Y129734D02*
X7933330Y177353D01*
X7933330Y177353D02*
X7909521Y224972D01*
X7909521Y224972D02*
X7885711Y248781D01*
X7885711Y248781D02*
X7838092Y272591D01*
X7838092Y272591D02*
X7719045Y272591D01*
X7719045Y272591D02*
X7647616Y248781D01*
X7457140Y-84552D02*
X7219045Y-84552D01*
X7504759Y-227409D02*
X7338093Y272591D01*
X7338093Y272591D02*
X7171426Y-227409D01*
X6838093Y34496D02*
X7004760Y34496D01*
X7004760Y-227409D02*
X7004760Y272591D01*
X7004760Y272591D02*
X6766665Y272591D01*
X6576189Y34496D02*
X6409522Y34496D01*
X6338094Y-227409D02*
X6576189Y-227409D01*
X6576189Y-227409D02*
X6576189Y272591D01*
X6576189Y272591D02*
X6338094Y272591D01*
X6123808Y-227409D02*
X6123808Y272591D01*
X6123808Y272591D02*
X5933332Y272591D01*
X5933332Y272591D02*
X5885713Y248781D01*
X5885713Y248781D02*
X5861903Y224972D01*
X5861903Y224972D02*
X5838094Y177353D01*
X5838094Y177353D02*
X5838094Y105924D01*
X5838094Y105924D02*
X5861903Y58305D01*
X5861903Y58305D02*
X5885713Y34496D01*
X5885713Y34496D02*
X5933332Y10686D01*
X5933332Y10686D02*
X6123808Y10686D01*
X5623808Y272591D02*
X5623808Y-132171D01*
X5623808Y-132171D02*
X5599998Y-179790D01*
X5599998Y-179790D02*
X5576189Y-203600D01*
X5576189Y-203600D02*
X5528570Y-227409D01*
X5528570Y-227409D02*
X5433332Y-227409D01*
X5433332Y-227409D02*
X5385713Y-203600D01*
X5385713Y-203600D02*
X5361903Y-179790D01*
X5361903Y-179790D02*
X5338094Y-132171D01*
X5338094Y-132171D02*
X5338094Y272591D01*
X4861903Y-227409D02*
X5099998Y-227409D01*
X5099998Y-227409D02*
X5099998Y272591D01*
X4719045Y-203600D02*
X4647617Y-227409D01*
X4647617Y-227409D02*
X4528569Y-227409D01*
X4528569Y-227409D02*
X4480950Y-203600D01*
X4480950Y-203600D02*
X4457141Y-179790D01*
X4457141Y-179790D02*
X4433331Y-132171D01*
X4433331Y-132171D02*
X4433331Y-84552D01*
X4433331Y-84552D02*
X4457141Y-36933D01*
X4457141Y-36933D02*
X4480950Y-13123D01*
X4480950Y-13123D02*
X4528569Y10686D01*
X4528569Y10686D02*
X4623807Y34496D01*
X4623807Y34496D02*
X4671426Y58305D01*
X4671426Y58305D02*
X4695236Y82115D01*
X4695236Y82115D02*
X4719045Y129734D01*
X4719045Y129734D02*
X4719045Y177353D01*
X4719045Y177353D02*
X4695236Y224972D01*
X4695236Y224972D02*
X4671426Y248781D01*
X4671426Y248781D02*
X4623807Y272591D01*
X4623807Y272591D02*
X4504760Y272591D01*
X4504760Y272591D02*
X4433331Y248781D01*
X4219046Y34496D02*
X4052379Y34496D01*
X3980951Y-227409D02*
X4219046Y-227409D01*
X4219046Y-227409D02*
X4219046Y272591D01*
X4219046Y272591D02*
X3980951Y272591D01*
X3457141Y272591D02*
X3290475Y-227409D01*
X3290475Y-227409D02*
X3123808Y272591D01*
X2695237Y-227409D02*
X2980951Y-227409D01*
X2838094Y-227409D02*
X2838094Y272591D01*
X2838094Y272591D02*
X2885713Y201162D01*
X2885713Y201162D02*
X2933332Y153543D01*
X2933332Y153543D02*
X2980951Y129734D01*
X2480952Y-179790D02*
X2457142Y-203600D01*
X2457142Y-203600D02*
X2480952Y-227409D01*
X2480952Y-227409D02*
X2504761Y-203600D01*
X2504761Y-203600D02*
X2480952Y-179790D01*
X2480952Y-179790D02*
X2480952Y-227409D01*
X2266666Y224972D02*
X2242857Y248781D01*
X2242857Y248781D02*
X2195238Y272591D01*
X2195238Y272591D02*
X2076190Y272591D01*
X2076190Y272591D02*
X2028571Y248781D01*
X2028571Y248781D02*
X2004762Y224972D01*
X2004762Y224972D02*
X1980952Y177353D01*
X1980952Y177353D02*
X1980952Y129734D01*
X1980952Y129734D02*
X2004762Y58305D01*
X2004762Y58305D02*
X2290476Y-227409D01*
X2290476Y-227409D02*
X1980952Y-227409D01*
X1766667Y-179790D02*
X1742857Y-203600D01*
X1742857Y-203600D02*
X1766667Y-227409D01*
X1766667Y-227409D02*
X1790476Y-203600D01*
X1790476Y-203600D02*
X1766667Y-179790D01*
X1766667Y-179790D02*
X1766667Y-227409D01*
X1290477Y272591D02*
X1528572Y272591D01*
X1528572Y272591D02*
X1552381Y34496D01*
X1552381Y34496D02*
X1528572Y58305D01*
X1528572Y58305D02*
X1480953Y82115D01*
X1480953Y82115D02*
X1361905Y82115D01*
X1361905Y82115D02*
X1314286Y58305D01*
X1314286Y58305D02*
X1290477Y34496D01*
X1290477Y34496D02*
X1266667Y-13123D01*
X1266667Y-13123D02*
X1266667Y-132171D01*
X1266667Y-132171D02*
X1290477Y-179790D01*
X1290477Y-179790D02*
X1314286Y-203600D01*
X1314286Y-203600D02*
X1361905Y-227409D01*
X1361905Y-227409D02*
X1480953Y-227409D01*
X1480953Y-227409D02*
X1528572Y-203600D01*
X1528572Y-203600D02*
X1552381Y-179790D01*
D12*
X5085761Y3438891D02*
X5085761Y3938891D01*
X5085761Y3938891D02*
X4895285Y3938891D01*
X4895285Y3938891D02*
X4847666Y3915081D01*
X4847666Y3915081D02*
X4823856Y3891272D01*
X4823856Y3891272D02*
X4800047Y3843653D01*
X4800047Y3843653D02*
X4800047Y3772224D01*
X4800047Y3772224D02*
X4823856Y3724605D01*
X4823856Y3724605D02*
X4847666Y3700796D01*
X4847666Y3700796D02*
X4895285Y3676986D01*
X4895285Y3676986D02*
X5085761Y3676986D01*
X4371475Y3772224D02*
X4371475Y3438891D01*
X4585761Y3772224D02*
X4585761Y3510320D01*
X4585761Y3510320D02*
X4561951Y3462700D01*
X4561951Y3462700D02*
X4514332Y3438891D01*
X4514332Y3438891D02*
X4442904Y3438891D01*
X4442904Y3438891D02*
X4395285Y3462700D01*
X4395285Y3462700D02*
X4371475Y3486510D01*
X4061951Y3438891D02*
X4109570Y3462700D01*
X4109570Y3462700D02*
X4133380Y3510320D01*
X4133380Y3510320D02*
X4133380Y3938891D01*
X3895284Y3462700D02*
X3847665Y3438891D01*
X3847665Y3438891D02*
X3752427Y3438891D01*
X3752427Y3438891D02*
X3704808Y3462700D01*
X3704808Y3462700D02*
X3680999Y3510320D01*
X3680999Y3510320D02*
X3680999Y3534129D01*
X3680999Y3534129D02*
X3704808Y3581748D01*
X3704808Y3581748D02*
X3752427Y3605558D01*
X3752427Y3605558D02*
X3823856Y3605558D01*
X3823856Y3605558D02*
X3871475Y3629367D01*
X3871475Y3629367D02*
X3895284Y3676986D01*
X3895284Y3676986D02*
X3895284Y3700796D01*
X3895284Y3700796D02*
X3871475Y3748415D01*
X3871475Y3748415D02*
X3823856Y3772224D01*
X3823856Y3772224D02*
X3752427Y3772224D01*
X3752427Y3772224D02*
X3704808Y3748415D01*
X3276237Y3462700D02*
X3323856Y3438891D01*
X3323856Y3438891D02*
X3419094Y3438891D01*
X3419094Y3438891D02*
X3466713Y3462700D01*
X3466713Y3462700D02*
X3490522Y3510320D01*
X3490522Y3510320D02*
X3490522Y3700796D01*
X3490522Y3700796D02*
X3466713Y3748415D01*
X3466713Y3748415D02*
X3419094Y3772224D01*
X3419094Y3772224D02*
X3323856Y3772224D01*
X3323856Y3772224D02*
X3276237Y3748415D01*
X3276237Y3748415D02*
X3252427Y3700796D01*
X3252427Y3700796D02*
X3252427Y3653177D01*
X3252427Y3653177D02*
X3490522Y3605558D01*
D14*
X366666Y7725191D02*
X366666Y7368048D01*
X366666Y7368048D02*
X390475Y7296620D01*
X390475Y7296620D02*
X438094Y7249000D01*
X438094Y7249000D02*
X509523Y7225191D01*
X509523Y7225191D02*
X557142Y7225191D01*
X152380Y7677572D02*
X128571Y7701381D01*
X128571Y7701381D02*
X80952Y7725191D01*
X80952Y7725191D02*
X-38096Y7725191D01*
X-38096Y7725191D02*
X-85715Y7701381D01*
X-85715Y7701381D02*
X-109524Y7677572D01*
X-109524Y7677572D02*
X-133334Y7629953D01*
X-133334Y7629953D02*
X-133334Y7582334D01*
X-133334Y7582334D02*
X-109524Y7510905D01*
X-109524Y7510905D02*
X176190Y7225191D01*
X176190Y7225191D02*
X-133334Y7225191D01*
D13*
X36151903Y4335448D02*
X35913808Y4335448D01*
X36199522Y4192591D02*
X36032856Y4692591D01*
X36032856Y4692591D02*
X35866189Y4192591D01*
X35699523Y4525924D02*
X35699523Y4192591D01*
X35699523Y4478305D02*
X35675713Y4502115D01*
X35675713Y4502115D02*
X35628094Y4525924D01*
X35628094Y4525924D02*
X35556666Y4525924D01*
X35556666Y4525924D02*
X35509047Y4502115D01*
X35509047Y4502115D02*
X35485237Y4454496D01*
X35485237Y4454496D02*
X35485237Y4192591D01*
X35175713Y4192591D02*
X35223332Y4216400D01*
X35223332Y4216400D02*
X35247142Y4240210D01*
X35247142Y4240210D02*
X35270951Y4287829D01*
X35270951Y4287829D02*
X35270951Y4430686D01*
X35270951Y4430686D02*
X35247142Y4478305D01*
X35247142Y4478305D02*
X35223332Y4502115D01*
X35223332Y4502115D02*
X35175713Y4525924D01*
X35175713Y4525924D02*
X35104285Y4525924D01*
X35104285Y4525924D02*
X35056666Y4502115D01*
X35056666Y4502115D02*
X35032856Y4478305D01*
X35032856Y4478305D02*
X35009047Y4430686D01*
X35009047Y4430686D02*
X35009047Y4287829D01*
X35009047Y4287829D02*
X35032856Y4240210D01*
X35032856Y4240210D02*
X35056666Y4216400D01*
X35056666Y4216400D02*
X35104285Y4192591D01*
X35104285Y4192591D02*
X35175713Y4192591D01*
X34580475Y4192591D02*
X34580475Y4692591D01*
X34580475Y4216400D02*
X34628094Y4192591D01*
X34628094Y4192591D02*
X34723332Y4192591D01*
X34723332Y4192591D02*
X34770951Y4216400D01*
X34770951Y4216400D02*
X34794761Y4240210D01*
X34794761Y4240210D02*
X34818570Y4287829D01*
X34818570Y4287829D02*
X34818570Y4430686D01*
X34818570Y4430686D02*
X34794761Y4478305D01*
X34794761Y4478305D02*
X34770951Y4502115D01*
X34770951Y4502115D02*
X34723332Y4525924D01*
X34723332Y4525924D02*
X34628094Y4525924D01*
X34628094Y4525924D02*
X34580475Y4502115D01*
X34151904Y4216400D02*
X34199523Y4192591D01*
X34199523Y4192591D02*
X34294761Y4192591D01*
X34294761Y4192591D02*
X34342380Y4216400D01*
X34342380Y4216400D02*
X34366189Y4264020D01*
X34366189Y4264020D02*
X34366189Y4454496D01*
X34366189Y4454496D02*
X34342380Y4502115D01*
X34342380Y4502115D02*
X34294761Y4525924D01*
X34294761Y4525924D02*
X34199523Y4525924D01*
X34199523Y4525924D02*
X34151904Y4502115D01*
X34151904Y4502115D02*
X34128094Y4454496D01*
X34128094Y4454496D02*
X34128094Y4406877D01*
X34128094Y4406877D02*
X34366189Y4359258D01*
X36151903Y465448D02*
X35913808Y465448D01*
X36199522Y322591D02*
X36032856Y822591D01*
X36032856Y822591D02*
X35866189Y322591D01*
X35699523Y655924D02*
X35699523Y322591D01*
X35699523Y608305D02*
X35675713Y632115D01*
X35675713Y632115D02*
X35628094Y655924D01*
X35628094Y655924D02*
X35556666Y655924D01*
X35556666Y655924D02*
X35509047Y632115D01*
X35509047Y632115D02*
X35485237Y584496D01*
X35485237Y584496D02*
X35485237Y322591D01*
X35175713Y322591D02*
X35223332Y346400D01*
X35223332Y346400D02*
X35247142Y370210D01*
X35247142Y370210D02*
X35270951Y417829D01*
X35270951Y417829D02*
X35270951Y560686D01*
X35270951Y560686D02*
X35247142Y608305D01*
X35247142Y608305D02*
X35223332Y632115D01*
X35223332Y632115D02*
X35175713Y655924D01*
X35175713Y655924D02*
X35104285Y655924D01*
X35104285Y655924D02*
X35056666Y632115D01*
X35056666Y632115D02*
X35032856Y608305D01*
X35032856Y608305D02*
X35009047Y560686D01*
X35009047Y560686D02*
X35009047Y417829D01*
X35009047Y417829D02*
X35032856Y370210D01*
X35032856Y370210D02*
X35056666Y346400D01*
X35056666Y346400D02*
X35104285Y322591D01*
X35104285Y322591D02*
X35175713Y322591D01*
X34580475Y322591D02*
X34580475Y822591D01*
X34580475Y346400D02*
X34628094Y322591D01*
X34628094Y322591D02*
X34723332Y322591D01*
X34723332Y322591D02*
X34770951Y346400D01*
X34770951Y346400D02*
X34794761Y370210D01*
X34794761Y370210D02*
X34818570Y417829D01*
X34818570Y417829D02*
X34818570Y560686D01*
X34818570Y560686D02*
X34794761Y608305D01*
X34794761Y608305D02*
X34770951Y632115D01*
X34770951Y632115D02*
X34723332Y655924D01*
X34723332Y655924D02*
X34628094Y655924D01*
X34628094Y655924D02*
X34580475Y632115D01*
X34151904Y346400D02*
X34199523Y322591D01*
X34199523Y322591D02*
X34294761Y322591D01*
X34294761Y322591D02*
X34342380Y346400D01*
X34342380Y346400D02*
X34366189Y394020D01*
X34366189Y394020D02*
X34366189Y584496D01*
X34366189Y584496D02*
X34342380Y632115D01*
X34342380Y632115D02*
X34294761Y655924D01*
X34294761Y655924D02*
X34199523Y655924D01*
X34199523Y655924D02*
X34151904Y632115D01*
X34151904Y632115D02*
X34128094Y584496D01*
X34128094Y584496D02*
X34128094Y536877D01*
X34128094Y536877D02*
X34366189Y489258D01*
X12907142Y3620210D02*
X12930951Y3596400D01*
X12930951Y3596400D02*
X13002380Y3572591D01*
X13002380Y3572591D02*
X13049999Y3572591D01*
X13049999Y3572591D02*
X13121427Y3596400D01*
X13121427Y3596400D02*
X13169046Y3644020D01*
X13169046Y3644020D02*
X13192856Y3691639D01*
X13192856Y3691639D02*
X13216665Y3786877D01*
X13216665Y3786877D02*
X13216665Y3858305D01*
X13216665Y3858305D02*
X13192856Y3953543D01*
X13192856Y3953543D02*
X13169046Y4001162D01*
X13169046Y4001162D02*
X13121427Y4048781D01*
X13121427Y4048781D02*
X13049999Y4072591D01*
X13049999Y4072591D02*
X13002380Y4072591D01*
X13002380Y4072591D02*
X12930951Y4048781D01*
X12930951Y4048781D02*
X12907142Y4024972D01*
X12478570Y3572591D02*
X12478570Y3834496D01*
X12478570Y3834496D02*
X12502380Y3882115D01*
X12502380Y3882115D02*
X12549999Y3905924D01*
X12549999Y3905924D02*
X12645237Y3905924D01*
X12645237Y3905924D02*
X12692856Y3882115D01*
X12478570Y3596400D02*
X12526189Y3572591D01*
X12526189Y3572591D02*
X12645237Y3572591D01*
X12645237Y3572591D02*
X12692856Y3596400D01*
X12692856Y3596400D02*
X12716665Y3644020D01*
X12716665Y3644020D02*
X12716665Y3691639D01*
X12716665Y3691639D02*
X12692856Y3739258D01*
X12692856Y3739258D02*
X12645237Y3763067D01*
X12645237Y3763067D02*
X12526189Y3763067D01*
X12526189Y3763067D02*
X12478570Y3786877D01*
X12311903Y3905924D02*
X12121427Y3905924D01*
X12240475Y4072591D02*
X12240475Y3644020D01*
X12240475Y3644020D02*
X12216665Y3596400D01*
X12216665Y3596400D02*
X12169046Y3572591D01*
X12169046Y3572591D02*
X12121427Y3572591D01*
X11954761Y3572591D02*
X11954761Y4072591D01*
X11740475Y3572591D02*
X11740475Y3834496D01*
X11740475Y3834496D02*
X11764285Y3882115D01*
X11764285Y3882115D02*
X11811904Y3905924D01*
X11811904Y3905924D02*
X11883332Y3905924D01*
X11883332Y3905924D02*
X11930951Y3882115D01*
X11930951Y3882115D02*
X11954761Y3858305D01*
X11430951Y3572591D02*
X11478570Y3596400D01*
X11478570Y3596400D02*
X11502380Y3620210D01*
X11502380Y3620210D02*
X11526189Y3667829D01*
X11526189Y3667829D02*
X11526189Y3810686D01*
X11526189Y3810686D02*
X11502380Y3858305D01*
X11502380Y3858305D02*
X11478570Y3882115D01*
X11478570Y3882115D02*
X11430951Y3905924D01*
X11430951Y3905924D02*
X11359523Y3905924D01*
X11359523Y3905924D02*
X11311904Y3882115D01*
X11311904Y3882115D02*
X11288094Y3858305D01*
X11288094Y3858305D02*
X11264285Y3810686D01*
X11264285Y3810686D02*
X11264285Y3667829D01*
X11264285Y3667829D02*
X11288094Y3620210D01*
X11288094Y3620210D02*
X11311904Y3596400D01*
X11311904Y3596400D02*
X11359523Y3572591D01*
X11359523Y3572591D02*
X11430951Y3572591D01*
X10835713Y3572591D02*
X10835713Y4072591D01*
X10835713Y3596400D02*
X10883332Y3572591D01*
X10883332Y3572591D02*
X10978570Y3572591D01*
X10978570Y3572591D02*
X11026189Y3596400D01*
X11026189Y3596400D02*
X11049999Y3620210D01*
X11049999Y3620210D02*
X11073808Y3667829D01*
X11073808Y3667829D02*
X11073808Y3810686D01*
X11073808Y3810686D02*
X11049999Y3858305D01*
X11049999Y3858305D02*
X11026189Y3882115D01*
X11026189Y3882115D02*
X10978570Y3905924D01*
X10978570Y3905924D02*
X10883332Y3905924D01*
X10883332Y3905924D02*
X10835713Y3882115D01*
X10407142Y3596400D02*
X10454761Y3572591D01*
X10454761Y3572591D02*
X10549999Y3572591D01*
X10549999Y3572591D02*
X10597618Y3596400D01*
X10597618Y3596400D02*
X10621427Y3644020D01*
X10621427Y3644020D02*
X10621427Y3834496D01*
X10621427Y3834496D02*
X10597618Y3882115D01*
X10597618Y3882115D02*
X10549999Y3905924D01*
X10549999Y3905924D02*
X10454761Y3905924D01*
X10454761Y3905924D02*
X10407142Y3882115D01*
X10407142Y3882115D02*
X10383332Y3834496D01*
X10383332Y3834496D02*
X10383332Y3786877D01*
X10383332Y3786877D02*
X10621427Y3739258D01*
D15*
X31517999Y13048569D02*
X32025999Y13774283D01*
X32388856Y13048569D02*
X32388856Y14572569D01*
X32388856Y14572569D02*
X31808285Y14572569D01*
X31808285Y14572569D02*
X31663142Y14499998D01*
X31663142Y14499998D02*
X31590571Y14427426D01*
X31590571Y14427426D02*
X31517999Y14282283D01*
X31517999Y14282283D02*
X31517999Y14064569D01*
X31517999Y14064569D02*
X31590571Y13919426D01*
X31590571Y13919426D02*
X31663142Y13846855D01*
X31663142Y13846855D02*
X31808285Y13774283D01*
X31808285Y13774283D02*
X32388856Y13774283D01*
X30864856Y13846855D02*
X30356856Y13846855D01*
X30139142Y13048569D02*
X30864856Y13048569D01*
X30864856Y13048569D02*
X30864856Y14572569D01*
X30864856Y14572569D02*
X30139142Y14572569D01*
X28977999Y13846855D02*
X29485999Y13846855D01*
X29485999Y13048569D02*
X29485999Y14572569D01*
X29485999Y14572569D02*
X28760285Y14572569D01*
X27961999Y14572569D02*
X27961999Y14209712D01*
X28324856Y14354855D02*
X27961999Y14209712D01*
X27961999Y14209712D02*
X27599142Y14354855D01*
X28179713Y13919426D02*
X27961999Y14209712D01*
X27961999Y14209712D02*
X27744285Y13919426D01*
X26800856Y14572569D02*
X26800856Y14209712D01*
X27163713Y14354855D02*
X26800856Y14209712D01*
X26800856Y14209712D02*
X26437999Y14354855D01*
X27018570Y13919426D02*
X26800856Y14209712D01*
X26800856Y14209712D02*
X26583142Y13919426D01*
D13*
X3530951Y11922591D02*
X3245237Y11922591D01*
X3388094Y11422591D02*
X3388094Y11922591D01*
X3078571Y11422591D02*
X3078571Y11922591D01*
X3078571Y11922591D02*
X2888095Y11922591D01*
X2888095Y11922591D02*
X2840476Y11898781D01*
X2840476Y11898781D02*
X2816666Y11874972D01*
X2816666Y11874972D02*
X2792857Y11827353D01*
X2792857Y11827353D02*
X2792857Y11755924D01*
X2792857Y11755924D02*
X2816666Y11708305D01*
X2816666Y11708305D02*
X2840476Y11684496D01*
X2840476Y11684496D02*
X2888095Y11660686D01*
X2888095Y11660686D02*
X3078571Y11660686D01*
X2340476Y11922591D02*
X2578571Y11922591D01*
X2578571Y11922591D02*
X2602380Y11684496D01*
X2602380Y11684496D02*
X2578571Y11708305D01*
X2578571Y11708305D02*
X2530952Y11732115D01*
X2530952Y11732115D02*
X2411904Y11732115D01*
X2411904Y11732115D02*
X2364285Y11708305D01*
X2364285Y11708305D02*
X2340476Y11684496D01*
X2340476Y11684496D02*
X2316666Y11636877D01*
X2316666Y11636877D02*
X2316666Y11517829D01*
X2316666Y11517829D02*
X2340476Y11470210D01*
X2340476Y11470210D02*
X2364285Y11446400D01*
X2364285Y11446400D02*
X2411904Y11422591D01*
X2411904Y11422591D02*
X2530952Y11422591D01*
X2530952Y11422591D02*
X2578571Y11446400D01*
X2578571Y11446400D02*
X2602380Y11470210D01*
X14621428Y1022591D02*
X14788094Y1260686D01*
X14907142Y1022591D02*
X14907142Y1522591D01*
X14907142Y1522591D02*
X14716666Y1522591D01*
X14716666Y1522591D02*
X14669047Y1498781D01*
X14669047Y1498781D02*
X14645237Y1474972D01*
X14645237Y1474972D02*
X14621428Y1427353D01*
X14621428Y1427353D02*
X14621428Y1355924D01*
X14621428Y1355924D02*
X14645237Y1308305D01*
X14645237Y1308305D02*
X14669047Y1284496D01*
X14669047Y1284496D02*
X14716666Y1260686D01*
X14716666Y1260686D02*
X14907142Y1260686D01*
X14430951Y1474972D02*
X14407142Y1498781D01*
X14407142Y1498781D02*
X14359523Y1522591D01*
X14359523Y1522591D02*
X14240475Y1522591D01*
X14240475Y1522591D02*
X14192856Y1498781D01*
X14192856Y1498781D02*
X14169047Y1474972D01*
X14169047Y1474972D02*
X14145237Y1427353D01*
X14145237Y1427353D02*
X14145237Y1379734D01*
X14145237Y1379734D02*
X14169047Y1308305D01*
X14169047Y1308305D02*
X14454761Y1022591D01*
X14454761Y1022591D02*
X14145237Y1022591D01*
X13669047Y1022591D02*
X13954761Y1022591D01*
X13811904Y1022591D02*
X13811904Y1522591D01*
X13811904Y1522591D02*
X13859523Y1451162D01*
X13859523Y1451162D02*
X13907142Y1403543D01*
X13907142Y1403543D02*
X13954761Y1379734D01*
X23930951Y10437591D02*
X23645237Y10437591D01*
X23788094Y9937591D02*
X23788094Y10437591D01*
X23478571Y9937591D02*
X23478571Y10437591D01*
X23478571Y10437591D02*
X23288095Y10437591D01*
X23288095Y10437591D02*
X23240476Y10413781D01*
X23240476Y10413781D02*
X23216666Y10389972D01*
X23216666Y10389972D02*
X23192857Y10342353D01*
X23192857Y10342353D02*
X23192857Y10270924D01*
X23192857Y10270924D02*
X23216666Y10223305D01*
X23216666Y10223305D02*
X23240476Y10199496D01*
X23240476Y10199496D02*
X23288095Y10175686D01*
X23288095Y10175686D02*
X23478571Y10175686D01*
X22716666Y9937591D02*
X23002380Y9937591D01*
X22859523Y9937591D02*
X22859523Y10437591D01*
X22859523Y10437591D02*
X22907142Y10366162D01*
X22907142Y10366162D02*
X22954761Y10318543D01*
X22954761Y10318543D02*
X23002380Y10294734D01*
X16963428Y5528591D02*
X17130094Y5766686D01*
X17249142Y5528591D02*
X17249142Y6028591D01*
X17249142Y6028591D02*
X17058666Y6028591D01*
X17058666Y6028591D02*
X17011047Y6004781D01*
X17011047Y6004781D02*
X16987237Y5980972D01*
X16987237Y5980972D02*
X16963428Y5933353D01*
X16963428Y5933353D02*
X16963428Y5861924D01*
X16963428Y5861924D02*
X16987237Y5814305D01*
X16987237Y5814305D02*
X17011047Y5790496D01*
X17011047Y5790496D02*
X17058666Y5766686D01*
X17058666Y5766686D02*
X17249142Y5766686D01*
X16487237Y5528591D02*
X16772951Y5528591D01*
X16630094Y5528591D02*
X16630094Y6028591D01*
X16630094Y6028591D02*
X16677713Y5957162D01*
X16677713Y5957162D02*
X16725332Y5909543D01*
X16725332Y5909543D02*
X16772951Y5885734D01*
X16296761Y5980972D02*
X16272952Y6004781D01*
X16272952Y6004781D02*
X16225333Y6028591D01*
X16225333Y6028591D02*
X16106285Y6028591D01*
X16106285Y6028591D02*
X16058666Y6004781D01*
X16058666Y6004781D02*
X16034857Y5980972D01*
X16034857Y5980972D02*
X16011047Y5933353D01*
X16011047Y5933353D02*
X16011047Y5885734D01*
X16011047Y5885734D02*
X16034857Y5814305D01*
X16034857Y5814305D02*
X16320571Y5528591D01*
X16320571Y5528591D02*
X16011047Y5528591D01*
X26717619Y2264972D02*
X26765238Y2288781D01*
X26765238Y2288781D02*
X26812857Y2336400D01*
X26812857Y2336400D02*
X26884285Y2407829D01*
X26884285Y2407829D02*
X26931904Y2431639D01*
X26931904Y2431639D02*
X26979523Y2431639D01*
X26955714Y2312591D02*
X27003333Y2336400D01*
X27003333Y2336400D02*
X27050952Y2384020D01*
X27050952Y2384020D02*
X27074761Y2479258D01*
X27074761Y2479258D02*
X27074761Y2645924D01*
X27074761Y2645924D02*
X27050952Y2741162D01*
X27050952Y2741162D02*
X27003333Y2788781D01*
X27003333Y2788781D02*
X26955714Y2812591D01*
X26955714Y2812591D02*
X26860476Y2812591D01*
X26860476Y2812591D02*
X26812857Y2788781D01*
X26812857Y2788781D02*
X26765238Y2741162D01*
X26765238Y2741162D02*
X26741428Y2645924D01*
X26741428Y2645924D02*
X26741428Y2479258D01*
X26741428Y2479258D02*
X26765238Y2384020D01*
X26765238Y2384020D02*
X26812857Y2336400D01*
X26812857Y2336400D02*
X26860476Y2312591D01*
X26860476Y2312591D02*
X26955714Y2312591D01*
X26574761Y2812591D02*
X26265237Y2812591D01*
X26265237Y2812591D02*
X26431904Y2622115D01*
X26431904Y2622115D02*
X26360475Y2622115D01*
X26360475Y2622115D02*
X26312856Y2598305D01*
X26312856Y2598305D02*
X26289047Y2574496D01*
X26289047Y2574496D02*
X26265237Y2526877D01*
X26265237Y2526877D02*
X26265237Y2407829D01*
X26265237Y2407829D02*
X26289047Y2360210D01*
X26289047Y2360210D02*
X26312856Y2336400D01*
X26312856Y2336400D02*
X26360475Y2312591D01*
X26360475Y2312591D02*
X26503332Y2312591D01*
X26503332Y2312591D02*
X26550951Y2336400D01*
X26550951Y2336400D02*
X26574761Y2360210D01*
X13330951Y19972591D02*
X13045237Y19972591D01*
X13188094Y19472591D02*
X13188094Y19972591D01*
X12878571Y19472591D02*
X12878571Y19972591D01*
X12878571Y19972591D02*
X12688095Y19972591D01*
X12688095Y19972591D02*
X12640476Y19948781D01*
X12640476Y19948781D02*
X12616666Y19924972D01*
X12616666Y19924972D02*
X12592857Y19877353D01*
X12592857Y19877353D02*
X12592857Y19805924D01*
X12592857Y19805924D02*
X12616666Y19758305D01*
X12616666Y19758305D02*
X12640476Y19734496D01*
X12640476Y19734496D02*
X12688095Y19710686D01*
X12688095Y19710686D02*
X12878571Y19710686D01*
X12164285Y19972591D02*
X12259523Y19972591D01*
X12259523Y19972591D02*
X12307142Y19948781D01*
X12307142Y19948781D02*
X12330952Y19924972D01*
X12330952Y19924972D02*
X12378571Y19853543D01*
X12378571Y19853543D02*
X12402380Y19758305D01*
X12402380Y19758305D02*
X12402380Y19567829D01*
X12402380Y19567829D02*
X12378571Y19520210D01*
X12378571Y19520210D02*
X12354761Y19496400D01*
X12354761Y19496400D02*
X12307142Y19472591D01*
X12307142Y19472591D02*
X12211904Y19472591D01*
X12211904Y19472591D02*
X12164285Y19496400D01*
X12164285Y19496400D02*
X12140476Y19520210D01*
X12140476Y19520210D02*
X12116666Y19567829D01*
X12116666Y19567829D02*
X12116666Y19686877D01*
X12116666Y19686877D02*
X12140476Y19734496D01*
X12140476Y19734496D02*
X12164285Y19758305D01*
X12164285Y19758305D02*
X12211904Y19782115D01*
X12211904Y19782115D02*
X12307142Y19782115D01*
X12307142Y19782115D02*
X12354761Y19758305D01*
X12354761Y19758305D02*
X12378571Y19734496D01*
X12378571Y19734496D02*
X12402380Y19686877D01*
X16221428Y17572591D02*
X16388094Y17810686D01*
X16507142Y17572591D02*
X16507142Y18072591D01*
X16507142Y18072591D02*
X16316666Y18072591D01*
X16316666Y18072591D02*
X16269047Y18048781D01*
X16269047Y18048781D02*
X16245237Y18024972D01*
X16245237Y18024972D02*
X16221428Y17977353D01*
X16221428Y17977353D02*
X16221428Y17905924D01*
X16221428Y17905924D02*
X16245237Y17858305D01*
X16245237Y17858305D02*
X16269047Y17834496D01*
X16269047Y17834496D02*
X16316666Y17810686D01*
X16316666Y17810686D02*
X16507142Y17810686D01*
X16030951Y18024972D02*
X16007142Y18048781D01*
X16007142Y18048781D02*
X15959523Y18072591D01*
X15959523Y18072591D02*
X15840475Y18072591D01*
X15840475Y18072591D02*
X15792856Y18048781D01*
X15792856Y18048781D02*
X15769047Y18024972D01*
X15769047Y18024972D02*
X15745237Y17977353D01*
X15745237Y17977353D02*
X15745237Y17929734D01*
X15745237Y17929734D02*
X15769047Y17858305D01*
X15769047Y17858305D02*
X16054761Y17572591D01*
X16054761Y17572591D02*
X15745237Y17572591D01*
X15316666Y17905924D02*
X15316666Y17572591D01*
X15435714Y18096400D02*
X15554761Y17739258D01*
X15554761Y17739258D02*
X15245238Y17739258D01*
X23121428Y-334790D02*
X23145237Y-358600D01*
X23145237Y-358600D02*
X23216666Y-382409D01*
X23216666Y-382409D02*
X23264285Y-382409D01*
X23264285Y-382409D02*
X23335713Y-358600D01*
X23335713Y-358600D02*
X23383332Y-310980D01*
X23383332Y-310980D02*
X23407142Y-263361D01*
X23407142Y-263361D02*
X23430951Y-168123D01*
X23430951Y-168123D02*
X23430951Y-96695D01*
X23430951Y-96695D02*
X23407142Y-1457D01*
X23407142Y-1457D02*
X23383332Y46162D01*
X23383332Y46162D02*
X23335713Y93781D01*
X23335713Y93781D02*
X23264285Y117591D01*
X23264285Y117591D02*
X23216666Y117591D01*
X23216666Y117591D02*
X23145237Y93781D01*
X23145237Y93781D02*
X23121428Y69972D01*
X22930951Y69972D02*
X22907142Y93781D01*
X22907142Y93781D02*
X22859523Y117591D01*
X22859523Y117591D02*
X22740475Y117591D01*
X22740475Y117591D02*
X22692856Y93781D01*
X22692856Y93781D02*
X22669047Y69972D01*
X22669047Y69972D02*
X22645237Y22353D01*
X22645237Y22353D02*
X22645237Y-25266D01*
X22645237Y-25266D02*
X22669047Y-96695D01*
X22669047Y-96695D02*
X22954761Y-382409D01*
X22954761Y-382409D02*
X22645237Y-382409D01*
X22478571Y117591D02*
X22169047Y117591D01*
X22169047Y117591D02*
X22335714Y-72885D01*
X22335714Y-72885D02*
X22264285Y-72885D01*
X22264285Y-72885D02*
X22216666Y-96695D01*
X22216666Y-96695D02*
X22192857Y-120504D01*
X22192857Y-120504D02*
X22169047Y-168123D01*
X22169047Y-168123D02*
X22169047Y-287171D01*
X22169047Y-287171D02*
X22192857Y-334790D01*
X22192857Y-334790D02*
X22216666Y-358600D01*
X22216666Y-358600D02*
X22264285Y-382409D01*
X22264285Y-382409D02*
X22407142Y-382409D01*
X22407142Y-382409D02*
X22454761Y-358600D01*
X22454761Y-358600D02*
X22478571Y-334790D01*
X2983333Y19620210D02*
X3007142Y19596400D01*
X3007142Y19596400D02*
X3078571Y19572591D01*
X3078571Y19572591D02*
X3126190Y19572591D01*
X3126190Y19572591D02*
X3197618Y19596400D01*
X3197618Y19596400D02*
X3245237Y19644020D01*
X3245237Y19644020D02*
X3269047Y19691639D01*
X3269047Y19691639D02*
X3292856Y19786877D01*
X3292856Y19786877D02*
X3292856Y19858305D01*
X3292856Y19858305D02*
X3269047Y19953543D01*
X3269047Y19953543D02*
X3245237Y20001162D01*
X3245237Y20001162D02*
X3197618Y20048781D01*
X3197618Y20048781D02*
X3126190Y20072591D01*
X3126190Y20072591D02*
X3078571Y20072591D01*
X3078571Y20072591D02*
X3007142Y20048781D01*
X3007142Y20048781D02*
X2983333Y20024972D01*
X2792856Y20024972D02*
X2769047Y20048781D01*
X2769047Y20048781D02*
X2721428Y20072591D01*
X2721428Y20072591D02*
X2602380Y20072591D01*
X2602380Y20072591D02*
X2554761Y20048781D01*
X2554761Y20048781D02*
X2530952Y20024972D01*
X2530952Y20024972D02*
X2507142Y19977353D01*
X2507142Y19977353D02*
X2507142Y19929734D01*
X2507142Y19929734D02*
X2530952Y19858305D01*
X2530952Y19858305D02*
X2816666Y19572591D01*
X2816666Y19572591D02*
X2507142Y19572591D01*
X15130951Y13472591D02*
X14845237Y13472591D01*
X14988094Y12972591D02*
X14988094Y13472591D01*
X14678571Y12972591D02*
X14678571Y13472591D01*
X14678571Y13472591D02*
X14488095Y13472591D01*
X14488095Y13472591D02*
X14440476Y13448781D01*
X14440476Y13448781D02*
X14416666Y13424972D01*
X14416666Y13424972D02*
X14392857Y13377353D01*
X14392857Y13377353D02*
X14392857Y13305924D01*
X14392857Y13305924D02*
X14416666Y13258305D01*
X14416666Y13258305D02*
X14440476Y13234496D01*
X14440476Y13234496D02*
X14488095Y13210686D01*
X14488095Y13210686D02*
X14678571Y13210686D01*
X14226190Y13472591D02*
X13916666Y13472591D01*
X13916666Y13472591D02*
X14083333Y13282115D01*
X14083333Y13282115D02*
X14011904Y13282115D01*
X14011904Y13282115D02*
X13964285Y13258305D01*
X13964285Y13258305D02*
X13940476Y13234496D01*
X13940476Y13234496D02*
X13916666Y13186877D01*
X13916666Y13186877D02*
X13916666Y13067829D01*
X13916666Y13067829D02*
X13940476Y13020210D01*
X13940476Y13020210D02*
X13964285Y12996400D01*
X13964285Y12996400D02*
X14011904Y12972591D01*
X14011904Y12972591D02*
X14154761Y12972591D01*
X14154761Y12972591D02*
X14202380Y12996400D01*
X14202380Y12996400D02*
X14226190Y13020210D01*
X29553428Y8224210D02*
X29577237Y8200400D01*
X29577237Y8200400D02*
X29648666Y8176591D01*
X29648666Y8176591D02*
X29696285Y8176591D01*
X29696285Y8176591D02*
X29767713Y8200400D01*
X29767713Y8200400D02*
X29815332Y8248020D01*
X29815332Y8248020D02*
X29839142Y8295639D01*
X29839142Y8295639D02*
X29862951Y8390877D01*
X29862951Y8390877D02*
X29862951Y8462305D01*
X29862951Y8462305D02*
X29839142Y8557543D01*
X29839142Y8557543D02*
X29815332Y8605162D01*
X29815332Y8605162D02*
X29767713Y8652781D01*
X29767713Y8652781D02*
X29696285Y8676591D01*
X29696285Y8676591D02*
X29648666Y8676591D01*
X29648666Y8676591D02*
X29577237Y8652781D01*
X29577237Y8652781D02*
X29553428Y8628972D01*
X29362951Y8628972D02*
X29339142Y8652781D01*
X29339142Y8652781D02*
X29291523Y8676591D01*
X29291523Y8676591D02*
X29172475Y8676591D01*
X29172475Y8676591D02*
X29124856Y8652781D01*
X29124856Y8652781D02*
X29101047Y8628972D01*
X29101047Y8628972D02*
X29077237Y8581353D01*
X29077237Y8581353D02*
X29077237Y8533734D01*
X29077237Y8533734D02*
X29101047Y8462305D01*
X29101047Y8462305D02*
X29386761Y8176591D01*
X29386761Y8176591D02*
X29077237Y8176591D01*
X28648666Y8509924D02*
X28648666Y8176591D01*
X28767714Y8700400D02*
X28886761Y8343258D01*
X28886761Y8343258D02*
X28577238Y8343258D01*
X13877409Y7771429D02*
X13639314Y7938095D01*
X13877409Y8057143D02*
X13377409Y8057143D01*
X13377409Y8057143D02*
X13377409Y7866667D01*
X13377409Y7866667D02*
X13401219Y7819048D01*
X13401219Y7819048D02*
X13425028Y7795238D01*
X13425028Y7795238D02*
X13472647Y7771429D01*
X13472647Y7771429D02*
X13544076Y7771429D01*
X13544076Y7771429D02*
X13591695Y7795238D01*
X13591695Y7795238D02*
X13615504Y7819048D01*
X13615504Y7819048D02*
X13639314Y7866667D01*
X13639314Y7866667D02*
X13639314Y8057143D01*
X13425028Y7580952D02*
X13401219Y7557143D01*
X13401219Y7557143D02*
X13377409Y7509524D01*
X13377409Y7509524D02*
X13377409Y7390476D01*
X13377409Y7390476D02*
X13401219Y7342857D01*
X13401219Y7342857D02*
X13425028Y7319048D01*
X13425028Y7319048D02*
X13472647Y7295238D01*
X13472647Y7295238D02*
X13520266Y7295238D01*
X13520266Y7295238D02*
X13591695Y7319048D01*
X13591695Y7319048D02*
X13877409Y7604762D01*
X13877409Y7604762D02*
X13877409Y7295238D01*
X13377409Y6842858D02*
X13377409Y7080953D01*
X13377409Y7080953D02*
X13615504Y7104762D01*
X13615504Y7104762D02*
X13591695Y7080953D01*
X13591695Y7080953D02*
X13567885Y7033334D01*
X13567885Y7033334D02*
X13567885Y6914286D01*
X13567885Y6914286D02*
X13591695Y6866667D01*
X13591695Y6866667D02*
X13615504Y6842858D01*
X13615504Y6842858D02*
X13663123Y6819048D01*
X13663123Y6819048D02*
X13782171Y6819048D01*
X13782171Y6819048D02*
X13829790Y6842858D01*
X13829790Y6842858D02*
X13853600Y6866667D01*
X13853600Y6866667D02*
X13877409Y6914286D01*
X13877409Y6914286D02*
X13877409Y7033334D01*
X13877409Y7033334D02*
X13853600Y7080953D01*
X13853600Y7080953D02*
X13829790Y7104762D01*
X18386428Y-345909D02*
X18553094Y-107814D01*
X18672142Y-345909D02*
X18672142Y154091D01*
X18672142Y154091D02*
X18481666Y154091D01*
X18481666Y154091D02*
X18434047Y130281D01*
X18434047Y130281D02*
X18410237Y106472D01*
X18410237Y106472D02*
X18386428Y58853D01*
X18386428Y58853D02*
X18386428Y-12576D01*
X18386428Y-12576D02*
X18410237Y-60195D01*
X18410237Y-60195D02*
X18434047Y-84004D01*
X18434047Y-84004D02*
X18481666Y-107814D01*
X18481666Y-107814D02*
X18672142Y-107814D01*
X18195951Y106472D02*
X18172142Y130281D01*
X18172142Y130281D02*
X18124523Y154091D01*
X18124523Y154091D02*
X18005475Y154091D01*
X18005475Y154091D02*
X17957856Y130281D01*
X17957856Y130281D02*
X17934047Y106472D01*
X17934047Y106472D02*
X17910237Y58853D01*
X17910237Y58853D02*
X17910237Y11234D01*
X17910237Y11234D02*
X17934047Y-60195D01*
X17934047Y-60195D02*
X18219761Y-345909D01*
X18219761Y-345909D02*
X17910237Y-345909D01*
X17719761Y106472D02*
X17695952Y130281D01*
X17695952Y130281D02*
X17648333Y154091D01*
X17648333Y154091D02*
X17529285Y154091D01*
X17529285Y154091D02*
X17481666Y130281D01*
X17481666Y130281D02*
X17457857Y106472D01*
X17457857Y106472D02*
X17434047Y58853D01*
X17434047Y58853D02*
X17434047Y11234D01*
X17434047Y11234D02*
X17457857Y-60195D01*
X17457857Y-60195D02*
X17743571Y-345909D01*
X17743571Y-345909D02*
X17434047Y-345909D01*
X8469047Y11312591D02*
X8469047Y11812591D01*
X8469047Y11812591D02*
X8349999Y11812591D01*
X8349999Y11812591D02*
X8278571Y11788781D01*
X8278571Y11788781D02*
X8230952Y11741162D01*
X8230952Y11741162D02*
X8207142Y11693543D01*
X8207142Y11693543D02*
X8183333Y11598305D01*
X8183333Y11598305D02*
X8183333Y11526877D01*
X8183333Y11526877D02*
X8207142Y11431639D01*
X8207142Y11431639D02*
X8230952Y11384020D01*
X8230952Y11384020D02*
X8278571Y11336400D01*
X8278571Y11336400D02*
X8349999Y11312591D01*
X8349999Y11312591D02*
X8469047Y11312591D01*
X7707142Y11312591D02*
X7992856Y11312591D01*
X7849999Y11312591D02*
X7849999Y11812591D01*
X7849999Y11812591D02*
X7897618Y11741162D01*
X7897618Y11741162D02*
X7945237Y11693543D01*
X7945237Y11693543D02*
X7992856Y11669734D01*
X903333Y19117591D02*
X1069999Y19355686D01*
X1189047Y19117591D02*
X1189047Y19617591D01*
X1189047Y19617591D02*
X998571Y19617591D01*
X998571Y19617591D02*
X950952Y19593781D01*
X950952Y19593781D02*
X927142Y19569972D01*
X927142Y19569972D02*
X903333Y19522353D01*
X903333Y19522353D02*
X903333Y19450924D01*
X903333Y19450924D02*
X927142Y19403305D01*
X927142Y19403305D02*
X950952Y19379496D01*
X950952Y19379496D02*
X998571Y19355686D01*
X998571Y19355686D02*
X1189047Y19355686D01*
X450952Y19617591D02*
X689047Y19617591D01*
X689047Y19617591D02*
X712856Y19379496D01*
X712856Y19379496D02*
X689047Y19403305D01*
X689047Y19403305D02*
X641428Y19427115D01*
X641428Y19427115D02*
X522380Y19427115D01*
X522380Y19427115D02*
X474761Y19403305D01*
X474761Y19403305D02*
X450952Y19379496D01*
X450952Y19379496D02*
X427142Y19331877D01*
X427142Y19331877D02*
X427142Y19212829D01*
X427142Y19212829D02*
X450952Y19165210D01*
X450952Y19165210D02*
X474761Y19141400D01*
X474761Y19141400D02*
X522380Y19117591D01*
X522380Y19117591D02*
X641428Y19117591D01*
X641428Y19117591D02*
X689047Y19141400D01*
X689047Y19141400D02*
X712856Y19165210D01*
X20441428Y-298290D02*
X20465237Y-322100D01*
X20465237Y-322100D02*
X20536666Y-345909D01*
X20536666Y-345909D02*
X20584285Y-345909D01*
X20584285Y-345909D02*
X20655713Y-322100D01*
X20655713Y-322100D02*
X20703332Y-274480D01*
X20703332Y-274480D02*
X20727142Y-226861D01*
X20727142Y-226861D02*
X20750951Y-131623D01*
X20750951Y-131623D02*
X20750951Y-60195D01*
X20750951Y-60195D02*
X20727142Y35043D01*
X20727142Y35043D02*
X20703332Y82662D01*
X20703332Y82662D02*
X20655713Y130281D01*
X20655713Y130281D02*
X20584285Y154091D01*
X20584285Y154091D02*
X20536666Y154091D01*
X20536666Y154091D02*
X20465237Y130281D01*
X20465237Y130281D02*
X20441428Y106472D01*
X20250951Y106472D02*
X20227142Y130281D01*
X20227142Y130281D02*
X20179523Y154091D01*
X20179523Y154091D02*
X20060475Y154091D01*
X20060475Y154091D02*
X20012856Y130281D01*
X20012856Y130281D02*
X19989047Y106472D01*
X19989047Y106472D02*
X19965237Y58853D01*
X19965237Y58853D02*
X19965237Y11234D01*
X19965237Y11234D02*
X19989047Y-60195D01*
X19989047Y-60195D02*
X20274761Y-345909D01*
X20274761Y-345909D02*
X19965237Y-345909D01*
X19774761Y106472D02*
X19750952Y130281D01*
X19750952Y130281D02*
X19703333Y154091D01*
X19703333Y154091D02*
X19584285Y154091D01*
X19584285Y154091D02*
X19536666Y130281D01*
X19536666Y130281D02*
X19512857Y106472D01*
X19512857Y106472D02*
X19489047Y58853D01*
X19489047Y58853D02*
X19489047Y11234D01*
X19489047Y11234D02*
X19512857Y-60195D01*
X19512857Y-60195D02*
X19798571Y-345909D01*
X19798571Y-345909D02*
X19489047Y-345909D01*
X31717619Y764972D02*
X31765238Y788781D01*
X31765238Y788781D02*
X31812857Y836400D01*
X31812857Y836400D02*
X31884285Y907829D01*
X31884285Y907829D02*
X31931904Y931639D01*
X31931904Y931639D02*
X31979523Y931639D01*
X31955714Y812591D02*
X32003333Y836400D01*
X32003333Y836400D02*
X32050952Y884020D01*
X32050952Y884020D02*
X32074761Y979258D01*
X32074761Y979258D02*
X32074761Y1145924D01*
X32074761Y1145924D02*
X32050952Y1241162D01*
X32050952Y1241162D02*
X32003333Y1288781D01*
X32003333Y1288781D02*
X31955714Y1312591D01*
X31955714Y1312591D02*
X31860476Y1312591D01*
X31860476Y1312591D02*
X31812857Y1288781D01*
X31812857Y1288781D02*
X31765238Y1241162D01*
X31765238Y1241162D02*
X31741428Y1145924D01*
X31741428Y1145924D02*
X31741428Y979258D01*
X31741428Y979258D02*
X31765238Y884020D01*
X31765238Y884020D02*
X31812857Y836400D01*
X31812857Y836400D02*
X31860476Y812591D01*
X31860476Y812591D02*
X31955714Y812591D01*
X31312856Y1145924D02*
X31312856Y812591D01*
X31431904Y1336400D02*
X31550951Y979258D01*
X31550951Y979258D02*
X31241428Y979258D01*
X20221428Y11172591D02*
X20388094Y11410686D01*
X20507142Y11172591D02*
X20507142Y11672591D01*
X20507142Y11672591D02*
X20316666Y11672591D01*
X20316666Y11672591D02*
X20269047Y11648781D01*
X20269047Y11648781D02*
X20245237Y11624972D01*
X20245237Y11624972D02*
X20221428Y11577353D01*
X20221428Y11577353D02*
X20221428Y11505924D01*
X20221428Y11505924D02*
X20245237Y11458305D01*
X20245237Y11458305D02*
X20269047Y11434496D01*
X20269047Y11434496D02*
X20316666Y11410686D01*
X20316666Y11410686D02*
X20507142Y11410686D01*
X20030951Y11624972D02*
X20007142Y11648781D01*
X20007142Y11648781D02*
X19959523Y11672591D01*
X19959523Y11672591D02*
X19840475Y11672591D01*
X19840475Y11672591D02*
X19792856Y11648781D01*
X19792856Y11648781D02*
X19769047Y11624972D01*
X19769047Y11624972D02*
X19745237Y11577353D01*
X19745237Y11577353D02*
X19745237Y11529734D01*
X19745237Y11529734D02*
X19769047Y11458305D01*
X19769047Y11458305D02*
X20054761Y11172591D01*
X20054761Y11172591D02*
X19745237Y11172591D01*
X19435714Y11672591D02*
X19388095Y11672591D01*
X19388095Y11672591D02*
X19340476Y11648781D01*
X19340476Y11648781D02*
X19316666Y11624972D01*
X19316666Y11624972D02*
X19292857Y11577353D01*
X19292857Y11577353D02*
X19269047Y11482115D01*
X19269047Y11482115D02*
X19269047Y11363067D01*
X19269047Y11363067D02*
X19292857Y11267829D01*
X19292857Y11267829D02*
X19316666Y11220210D01*
X19316666Y11220210D02*
X19340476Y11196400D01*
X19340476Y11196400D02*
X19388095Y11172591D01*
X19388095Y11172591D02*
X19435714Y11172591D01*
X19435714Y11172591D02*
X19483333Y11196400D01*
X19483333Y11196400D02*
X19507142Y11220210D01*
X19507142Y11220210D02*
X19530952Y11267829D01*
X19530952Y11267829D02*
X19554761Y11363067D01*
X19554761Y11363067D02*
X19554761Y11482115D01*
X19554761Y11482115D02*
X19530952Y11577353D01*
X19530952Y11577353D02*
X19507142Y11624972D01*
X19507142Y11624972D02*
X19483333Y11648781D01*
X19483333Y11648781D02*
X19435714Y11672591D01*
X22867619Y2819972D02*
X22915238Y2843781D01*
X22915238Y2843781D02*
X22962857Y2891400D01*
X22962857Y2891400D02*
X23034285Y2962829D01*
X23034285Y2962829D02*
X23081904Y2986639D01*
X23081904Y2986639D02*
X23129523Y2986639D01*
X23105714Y2867591D02*
X23153333Y2891400D01*
X23153333Y2891400D02*
X23200952Y2939020D01*
X23200952Y2939020D02*
X23224761Y3034258D01*
X23224761Y3034258D02*
X23224761Y3200924D01*
X23224761Y3200924D02*
X23200952Y3296162D01*
X23200952Y3296162D02*
X23153333Y3343781D01*
X23153333Y3343781D02*
X23105714Y3367591D01*
X23105714Y3367591D02*
X23010476Y3367591D01*
X23010476Y3367591D02*
X22962857Y3343781D01*
X22962857Y3343781D02*
X22915238Y3296162D01*
X22915238Y3296162D02*
X22891428Y3200924D01*
X22891428Y3200924D02*
X22891428Y3034258D01*
X22891428Y3034258D02*
X22915238Y2939020D01*
X22915238Y2939020D02*
X22962857Y2891400D01*
X22962857Y2891400D02*
X23010476Y2867591D01*
X23010476Y2867591D02*
X23105714Y2867591D01*
X22700951Y3319972D02*
X22677142Y3343781D01*
X22677142Y3343781D02*
X22629523Y3367591D01*
X22629523Y3367591D02*
X22510475Y3367591D01*
X22510475Y3367591D02*
X22462856Y3343781D01*
X22462856Y3343781D02*
X22439047Y3319972D01*
X22439047Y3319972D02*
X22415237Y3272353D01*
X22415237Y3272353D02*
X22415237Y3224734D01*
X22415237Y3224734D02*
X22439047Y3153305D01*
X22439047Y3153305D02*
X22724761Y2867591D01*
X22724761Y2867591D02*
X22415237Y2867591D01*
X21821428Y17572591D02*
X21988094Y17810686D01*
X22107142Y17572591D02*
X22107142Y18072591D01*
X22107142Y18072591D02*
X21916666Y18072591D01*
X21916666Y18072591D02*
X21869047Y18048781D01*
X21869047Y18048781D02*
X21845237Y18024972D01*
X21845237Y18024972D02*
X21821428Y17977353D01*
X21821428Y17977353D02*
X21821428Y17905924D01*
X21821428Y17905924D02*
X21845237Y17858305D01*
X21845237Y17858305D02*
X21869047Y17834496D01*
X21869047Y17834496D02*
X21916666Y17810686D01*
X21916666Y17810686D02*
X22107142Y17810686D01*
X21630951Y18024972D02*
X21607142Y18048781D01*
X21607142Y18048781D02*
X21559523Y18072591D01*
X21559523Y18072591D02*
X21440475Y18072591D01*
X21440475Y18072591D02*
X21392856Y18048781D01*
X21392856Y18048781D02*
X21369047Y18024972D01*
X21369047Y18024972D02*
X21345237Y17977353D01*
X21345237Y17977353D02*
X21345237Y17929734D01*
X21345237Y17929734D02*
X21369047Y17858305D01*
X21369047Y17858305D02*
X21654761Y17572591D01*
X21654761Y17572591D02*
X21345237Y17572591D01*
X21178571Y18072591D02*
X20869047Y18072591D01*
X20869047Y18072591D02*
X21035714Y17882115D01*
X21035714Y17882115D02*
X20964285Y17882115D01*
X20964285Y17882115D02*
X20916666Y17858305D01*
X20916666Y17858305D02*
X20892857Y17834496D01*
X20892857Y17834496D02*
X20869047Y17786877D01*
X20869047Y17786877D02*
X20869047Y17667829D01*
X20869047Y17667829D02*
X20892857Y17620210D01*
X20892857Y17620210D02*
X20916666Y17596400D01*
X20916666Y17596400D02*
X20964285Y17572591D01*
X20964285Y17572591D02*
X21107142Y17572591D01*
X21107142Y17572591D02*
X21154761Y17596400D01*
X21154761Y17596400D02*
X21178571Y17620210D01*
X12333333Y11220210D02*
X12357142Y11196400D01*
X12357142Y11196400D02*
X12428571Y11172591D01*
X12428571Y11172591D02*
X12476190Y11172591D01*
X12476190Y11172591D02*
X12547618Y11196400D01*
X12547618Y11196400D02*
X12595237Y11244020D01*
X12595237Y11244020D02*
X12619047Y11291639D01*
X12619047Y11291639D02*
X12642856Y11386877D01*
X12642856Y11386877D02*
X12642856Y11458305D01*
X12642856Y11458305D02*
X12619047Y11553543D01*
X12619047Y11553543D02*
X12595237Y11601162D01*
X12595237Y11601162D02*
X12547618Y11648781D01*
X12547618Y11648781D02*
X12476190Y11672591D01*
X12476190Y11672591D02*
X12428571Y11672591D01*
X12428571Y11672591D02*
X12357142Y11648781D01*
X12357142Y11648781D02*
X12333333Y11624972D01*
X11857142Y11172591D02*
X12142856Y11172591D01*
X11999999Y11172591D02*
X11999999Y11672591D01*
X11999999Y11672591D02*
X12047618Y11601162D01*
X12047618Y11601162D02*
X12095237Y11553543D01*
X12095237Y11553543D02*
X12142856Y11529734D01*
D14*
X9333333Y1022810D02*
X9357142Y999000D01*
X9357142Y999000D02*
X9428571Y975191D01*
X9428571Y975191D02*
X9476190Y975191D01*
X9476190Y975191D02*
X9547618Y999000D01*
X9547618Y999000D02*
X9595237Y1046620D01*
X9595237Y1046620D02*
X9619047Y1094239D01*
X9619047Y1094239D02*
X9642856Y1189477D01*
X9642856Y1189477D02*
X9642856Y1260905D01*
X9642856Y1260905D02*
X9619047Y1356143D01*
X9619047Y1356143D02*
X9595237Y1403762D01*
X9595237Y1403762D02*
X9547618Y1451381D01*
X9547618Y1451381D02*
X9476190Y1475191D01*
X9476190Y1475191D02*
X9428571Y1475191D01*
X9428571Y1475191D02*
X9357142Y1451381D01*
X9357142Y1451381D02*
X9333333Y1427572D01*
X8904761Y1308524D02*
X8904761Y975191D01*
X9023809Y1499000D02*
X9142856Y1141858D01*
X9142856Y1141858D02*
X8833333Y1141858D01*
D13*
X22921428Y8972591D02*
X23088094Y9210686D01*
X23207142Y8972591D02*
X23207142Y9472591D01*
X23207142Y9472591D02*
X23016666Y9472591D01*
X23016666Y9472591D02*
X22969047Y9448781D01*
X22969047Y9448781D02*
X22945237Y9424972D01*
X22945237Y9424972D02*
X22921428Y9377353D01*
X22921428Y9377353D02*
X22921428Y9305924D01*
X22921428Y9305924D02*
X22945237Y9258305D01*
X22945237Y9258305D02*
X22969047Y9234496D01*
X22969047Y9234496D02*
X23016666Y9210686D01*
X23016666Y9210686D02*
X23207142Y9210686D01*
X22445237Y8972591D02*
X22730951Y8972591D01*
X22588094Y8972591D02*
X22588094Y9472591D01*
X22588094Y9472591D02*
X22635713Y9401162D01*
X22635713Y9401162D02*
X22683332Y9353543D01*
X22683332Y9353543D02*
X22730951Y9329734D01*
X22016666Y9305924D02*
X22016666Y8972591D01*
X22135714Y9496400D02*
X22254761Y9139258D01*
X22254761Y9139258D02*
X21945238Y9139258D01*
X18430951Y11490591D02*
X18145237Y11490591D01*
X18288094Y10990591D02*
X18288094Y11490591D01*
X17978571Y10990591D02*
X17978571Y11490591D01*
X17978571Y11490591D02*
X17788095Y11490591D01*
X17788095Y11490591D02*
X17740476Y11466781D01*
X17740476Y11466781D02*
X17716666Y11442972D01*
X17716666Y11442972D02*
X17692857Y11395353D01*
X17692857Y11395353D02*
X17692857Y11323924D01*
X17692857Y11323924D02*
X17716666Y11276305D01*
X17716666Y11276305D02*
X17740476Y11252496D01*
X17740476Y11252496D02*
X17788095Y11228686D01*
X17788095Y11228686D02*
X17978571Y11228686D01*
X17502380Y11442972D02*
X17478571Y11466781D01*
X17478571Y11466781D02*
X17430952Y11490591D01*
X17430952Y11490591D02*
X17311904Y11490591D01*
X17311904Y11490591D02*
X17264285Y11466781D01*
X17264285Y11466781D02*
X17240476Y11442972D01*
X17240476Y11442972D02*
X17216666Y11395353D01*
X17216666Y11395353D02*
X17216666Y11347734D01*
X17216666Y11347734D02*
X17240476Y11276305D01*
X17240476Y11276305D02*
X17526190Y10990591D01*
X17526190Y10990591D02*
X17216666Y10990591D01*
X14930951Y472591D02*
X14645237Y472591D01*
X14788094Y-27409D02*
X14788094Y472591D01*
X14478571Y-27409D02*
X14478571Y472591D01*
X14478571Y472591D02*
X14288095Y472591D01*
X14288095Y472591D02*
X14240476Y448781D01*
X14240476Y448781D02*
X14216666Y424972D01*
X14216666Y424972D02*
X14192857Y377353D01*
X14192857Y377353D02*
X14192857Y305924D01*
X14192857Y305924D02*
X14216666Y258305D01*
X14216666Y258305D02*
X14240476Y234496D01*
X14240476Y234496D02*
X14288095Y210686D01*
X14288095Y210686D02*
X14478571Y210686D01*
X13907142Y258305D02*
X13954761Y282115D01*
X13954761Y282115D02*
X13978571Y305924D01*
X13978571Y305924D02*
X14002380Y353543D01*
X14002380Y353543D02*
X14002380Y377353D01*
X14002380Y377353D02*
X13978571Y424972D01*
X13978571Y424972D02*
X13954761Y448781D01*
X13954761Y448781D02*
X13907142Y472591D01*
X13907142Y472591D02*
X13811904Y472591D01*
X13811904Y472591D02*
X13764285Y448781D01*
X13764285Y448781D02*
X13740476Y424972D01*
X13740476Y424972D02*
X13716666Y377353D01*
X13716666Y377353D02*
X13716666Y353543D01*
X13716666Y353543D02*
X13740476Y305924D01*
X13740476Y305924D02*
X13764285Y282115D01*
X13764285Y282115D02*
X13811904Y258305D01*
X13811904Y258305D02*
X13907142Y258305D01*
X13907142Y258305D02*
X13954761Y234496D01*
X13954761Y234496D02*
X13978571Y210686D01*
X13978571Y210686D02*
X14002380Y163067D01*
X14002380Y163067D02*
X14002380Y67829D01*
X14002380Y67829D02*
X13978571Y20210D01*
X13978571Y20210D02*
X13954761Y-3600D01*
X13954761Y-3600D02*
X13907142Y-27409D01*
X13907142Y-27409D02*
X13811904Y-27409D01*
X13811904Y-27409D02*
X13764285Y-3600D01*
X13764285Y-3600D02*
X13740476Y20210D01*
X13740476Y20210D02*
X13716666Y67829D01*
X13716666Y67829D02*
X13716666Y163067D01*
X13716666Y163067D02*
X13740476Y210686D01*
X13740476Y210686D02*
X13764285Y234496D01*
X13764285Y234496D02*
X13811904Y258305D01*
X23234951Y6790591D02*
X22949237Y6790591D01*
X23092094Y6290591D02*
X23092094Y6790591D01*
X22782571Y6290591D02*
X22782571Y6790591D01*
X22782571Y6790591D02*
X22592095Y6790591D01*
X22592095Y6790591D02*
X22544476Y6766781D01*
X22544476Y6766781D02*
X22520666Y6742972D01*
X22520666Y6742972D02*
X22496857Y6695353D01*
X22496857Y6695353D02*
X22496857Y6623924D01*
X22496857Y6623924D02*
X22520666Y6576305D01*
X22520666Y6576305D02*
X22544476Y6552496D01*
X22544476Y6552496D02*
X22592095Y6528686D01*
X22592095Y6528686D02*
X22782571Y6528686D01*
X22258761Y6290591D02*
X22163523Y6290591D01*
X22163523Y6290591D02*
X22115904Y6314400D01*
X22115904Y6314400D02*
X22092095Y6338210D01*
X22092095Y6338210D02*
X22044476Y6409639D01*
X22044476Y6409639D02*
X22020666Y6504877D01*
X22020666Y6504877D02*
X22020666Y6695353D01*
X22020666Y6695353D02*
X22044476Y6742972D01*
X22044476Y6742972D02*
X22068285Y6766781D01*
X22068285Y6766781D02*
X22115904Y6790591D01*
X22115904Y6790591D02*
X22211142Y6790591D01*
X22211142Y6790591D02*
X22258761Y6766781D01*
X22258761Y6766781D02*
X22282571Y6742972D01*
X22282571Y6742972D02*
X22306380Y6695353D01*
X22306380Y6695353D02*
X22306380Y6576305D01*
X22306380Y6576305D02*
X22282571Y6528686D01*
X22282571Y6528686D02*
X22258761Y6504877D01*
X22258761Y6504877D02*
X22211142Y6481067D01*
X22211142Y6481067D02*
X22115904Y6481067D01*
X22115904Y6481067D02*
X22068285Y6504877D01*
X22068285Y6504877D02*
X22044476Y6528686D01*
X22044476Y6528686D02*
X22020666Y6576305D01*
X8700952Y20072591D02*
X8700952Y19667829D01*
X8700952Y19667829D02*
X8677142Y19620210D01*
X8677142Y19620210D02*
X8653333Y19596400D01*
X8653333Y19596400D02*
X8605714Y19572591D01*
X8605714Y19572591D02*
X8510476Y19572591D01*
X8510476Y19572591D02*
X8462857Y19596400D01*
X8462857Y19596400D02*
X8439047Y19620210D01*
X8439047Y19620210D02*
X8415238Y19667829D01*
X8415238Y19667829D02*
X8415238Y20072591D01*
X8200951Y20024972D02*
X8177142Y20048781D01*
X8177142Y20048781D02*
X8129523Y20072591D01*
X8129523Y20072591D02*
X8010475Y20072591D01*
X8010475Y20072591D02*
X7962856Y20048781D01*
X7962856Y20048781D02*
X7939047Y20024972D01*
X7939047Y20024972D02*
X7915237Y19977353D01*
X7915237Y19977353D02*
X7915237Y19929734D01*
X7915237Y19929734D02*
X7939047Y19858305D01*
X7939047Y19858305D02*
X8224761Y19572591D01*
X8224761Y19572591D02*
X7915237Y19572591D01*
X9421428Y6020210D02*
X9445237Y5996400D01*
X9445237Y5996400D02*
X9516666Y5972591D01*
X9516666Y5972591D02*
X9564285Y5972591D01*
X9564285Y5972591D02*
X9635713Y5996400D01*
X9635713Y5996400D02*
X9683332Y6044020D01*
X9683332Y6044020D02*
X9707142Y6091639D01*
X9707142Y6091639D02*
X9730951Y6186877D01*
X9730951Y6186877D02*
X9730951Y6258305D01*
X9730951Y6258305D02*
X9707142Y6353543D01*
X9707142Y6353543D02*
X9683332Y6401162D01*
X9683332Y6401162D02*
X9635713Y6448781D01*
X9635713Y6448781D02*
X9564285Y6472591D01*
X9564285Y6472591D02*
X9516666Y6472591D01*
X9516666Y6472591D02*
X9445237Y6448781D01*
X9445237Y6448781D02*
X9421428Y6424972D01*
X9230951Y6424972D02*
X9207142Y6448781D01*
X9207142Y6448781D02*
X9159523Y6472591D01*
X9159523Y6472591D02*
X9040475Y6472591D01*
X9040475Y6472591D02*
X8992856Y6448781D01*
X8992856Y6448781D02*
X8969047Y6424972D01*
X8969047Y6424972D02*
X8945237Y6377353D01*
X8945237Y6377353D02*
X8945237Y6329734D01*
X8945237Y6329734D02*
X8969047Y6258305D01*
X8969047Y6258305D02*
X9254761Y5972591D01*
X9254761Y5972591D02*
X8945237Y5972591D01*
X8778571Y6472591D02*
X8445238Y6472591D01*
X8445238Y6472591D02*
X8659523Y5972591D01*
X15151333Y11172591D02*
X15317999Y11410686D01*
X15437047Y11172591D02*
X15437047Y11672591D01*
X15437047Y11672591D02*
X15246571Y11672591D01*
X15246571Y11672591D02*
X15198952Y11648781D01*
X15198952Y11648781D02*
X15175142Y11624972D01*
X15175142Y11624972D02*
X15151333Y11577353D01*
X15151333Y11577353D02*
X15151333Y11505924D01*
X15151333Y11505924D02*
X15175142Y11458305D01*
X15175142Y11458305D02*
X15198952Y11434496D01*
X15198952Y11434496D02*
X15246571Y11410686D01*
X15246571Y11410686D02*
X15437047Y11410686D01*
X14984666Y11672591D02*
X14675142Y11672591D01*
X14675142Y11672591D02*
X14841809Y11482115D01*
X14841809Y11482115D02*
X14770380Y11482115D01*
X14770380Y11482115D02*
X14722761Y11458305D01*
X14722761Y11458305D02*
X14698952Y11434496D01*
X14698952Y11434496D02*
X14675142Y11386877D01*
X14675142Y11386877D02*
X14675142Y11267829D01*
X14675142Y11267829D02*
X14698952Y11220210D01*
X14698952Y11220210D02*
X14722761Y11196400D01*
X14722761Y11196400D02*
X14770380Y11172591D01*
X14770380Y11172591D02*
X14913237Y11172591D01*
X14913237Y11172591D02*
X14960856Y11196400D01*
X14960856Y11196400D02*
X14984666Y11220210D01*
X10283333Y11172591D02*
X10449999Y11410686D01*
X10569047Y11172591D02*
X10569047Y11672591D01*
X10569047Y11672591D02*
X10378571Y11672591D01*
X10378571Y11672591D02*
X10330952Y11648781D01*
X10330952Y11648781D02*
X10307142Y11624972D01*
X10307142Y11624972D02*
X10283333Y11577353D01*
X10283333Y11577353D02*
X10283333Y11505924D01*
X10283333Y11505924D02*
X10307142Y11458305D01*
X10307142Y11458305D02*
X10330952Y11434496D01*
X10330952Y11434496D02*
X10378571Y11410686D01*
X10378571Y11410686D02*
X10569047Y11410686D01*
X9854761Y11505924D02*
X9854761Y11172591D01*
X9973809Y11696400D02*
X10092856Y11339258D01*
X10092856Y11339258D02*
X9783333Y11339258D01*
X20580952Y16672591D02*
X20580952Y16267829D01*
X20580952Y16267829D02*
X20557142Y16220210D01*
X20557142Y16220210D02*
X20533333Y16196400D01*
X20533333Y16196400D02*
X20485714Y16172591D01*
X20485714Y16172591D02*
X20390476Y16172591D01*
X20390476Y16172591D02*
X20342857Y16196400D01*
X20342857Y16196400D02*
X20319047Y16220210D01*
X20319047Y16220210D02*
X20295238Y16267829D01*
X20295238Y16267829D02*
X20295238Y16672591D01*
X20104761Y16672591D02*
X19795237Y16672591D01*
X19795237Y16672591D02*
X19961904Y16482115D01*
X19961904Y16482115D02*
X19890475Y16482115D01*
X19890475Y16482115D02*
X19842856Y16458305D01*
X19842856Y16458305D02*
X19819047Y16434496D01*
X19819047Y16434496D02*
X19795237Y16386877D01*
X19795237Y16386877D02*
X19795237Y16267829D01*
X19795237Y16267829D02*
X19819047Y16220210D01*
X19819047Y16220210D02*
X19842856Y16196400D01*
X19842856Y16196400D02*
X19890475Y16172591D01*
X19890475Y16172591D02*
X20033332Y16172591D01*
X20033332Y16172591D02*
X20080951Y16196400D01*
X20080951Y16196400D02*
X20104761Y16220210D01*
X30571428Y3772591D02*
X30738094Y4010686D01*
X30857142Y3772591D02*
X30857142Y4272591D01*
X30857142Y4272591D02*
X30666666Y4272591D01*
X30666666Y4272591D02*
X30619047Y4248781D01*
X30619047Y4248781D02*
X30595237Y4224972D01*
X30595237Y4224972D02*
X30571428Y4177353D01*
X30571428Y4177353D02*
X30571428Y4105924D01*
X30571428Y4105924D02*
X30595237Y4058305D01*
X30595237Y4058305D02*
X30619047Y4034496D01*
X30619047Y4034496D02*
X30666666Y4010686D01*
X30666666Y4010686D02*
X30857142Y4010686D01*
X30095237Y3772591D02*
X30380951Y3772591D01*
X30238094Y3772591D02*
X30238094Y4272591D01*
X30238094Y4272591D02*
X30285713Y4201162D01*
X30285713Y4201162D02*
X30333332Y4153543D01*
X30333332Y4153543D02*
X30380951Y4129734D01*
X29642857Y4272591D02*
X29880952Y4272591D01*
X29880952Y4272591D02*
X29904761Y4034496D01*
X29904761Y4034496D02*
X29880952Y4058305D01*
X29880952Y4058305D02*
X29833333Y4082115D01*
X29833333Y4082115D02*
X29714285Y4082115D01*
X29714285Y4082115D02*
X29666666Y4058305D01*
X29666666Y4058305D02*
X29642857Y4034496D01*
X29642857Y4034496D02*
X29619047Y3986877D01*
X29619047Y3986877D02*
X29619047Y3867829D01*
X29619047Y3867829D02*
X29642857Y3820210D01*
X29642857Y3820210D02*
X29666666Y3796400D01*
X29666666Y3796400D02*
X29714285Y3772591D01*
X29714285Y3772591D02*
X29833333Y3772591D01*
X29833333Y3772591D02*
X29880952Y3796400D01*
X29880952Y3796400D02*
X29904761Y3820210D01*
X3530951Y16222591D02*
X3245237Y16222591D01*
X3388094Y15722591D02*
X3388094Y16222591D01*
X3078571Y15722591D02*
X3078571Y16222591D01*
X3078571Y16222591D02*
X2888095Y16222591D01*
X2888095Y16222591D02*
X2840476Y16198781D01*
X2840476Y16198781D02*
X2816666Y16174972D01*
X2816666Y16174972D02*
X2792857Y16127353D01*
X2792857Y16127353D02*
X2792857Y16055924D01*
X2792857Y16055924D02*
X2816666Y16008305D01*
X2816666Y16008305D02*
X2840476Y15984496D01*
X2840476Y15984496D02*
X2888095Y15960686D01*
X2888095Y15960686D02*
X3078571Y15960686D01*
X2364285Y16055924D02*
X2364285Y15722591D01*
X2483333Y16246400D02*
X2602380Y15889258D01*
X2602380Y15889258D02*
X2292857Y15889258D01*
X17050952Y8812591D02*
X17050952Y8407829D01*
X17050952Y8407829D02*
X17027142Y8360210D01*
X17027142Y8360210D02*
X17003333Y8336400D01*
X17003333Y8336400D02*
X16955714Y8312591D01*
X16955714Y8312591D02*
X16860476Y8312591D01*
X16860476Y8312591D02*
X16812857Y8336400D01*
X16812857Y8336400D02*
X16789047Y8360210D01*
X16789047Y8360210D02*
X16765238Y8407829D01*
X16765238Y8407829D02*
X16765238Y8812591D01*
X16265237Y8312591D02*
X16550951Y8312591D01*
X16408094Y8312591D02*
X16408094Y8812591D01*
X16408094Y8812591D02*
X16455713Y8741162D01*
X16455713Y8741162D02*
X16503332Y8693543D01*
X16503332Y8693543D02*
X16550951Y8669734D01*
X25721428Y8176591D02*
X25888094Y8414686D01*
X26007142Y8176591D02*
X26007142Y8676591D01*
X26007142Y8676591D02*
X25816666Y8676591D01*
X25816666Y8676591D02*
X25769047Y8652781D01*
X25769047Y8652781D02*
X25745237Y8628972D01*
X25745237Y8628972D02*
X25721428Y8581353D01*
X25721428Y8581353D02*
X25721428Y8509924D01*
X25721428Y8509924D02*
X25745237Y8462305D01*
X25745237Y8462305D02*
X25769047Y8438496D01*
X25769047Y8438496D02*
X25816666Y8414686D01*
X25816666Y8414686D02*
X26007142Y8414686D01*
X25245237Y8176591D02*
X25530951Y8176591D01*
X25388094Y8176591D02*
X25388094Y8676591D01*
X25388094Y8676591D02*
X25435713Y8605162D01*
X25435713Y8605162D02*
X25483332Y8557543D01*
X25483332Y8557543D02*
X25530951Y8533734D01*
X24816666Y8676591D02*
X24911904Y8676591D01*
X24911904Y8676591D02*
X24959523Y8652781D01*
X24959523Y8652781D02*
X24983333Y8628972D01*
X24983333Y8628972D02*
X25030952Y8557543D01*
X25030952Y8557543D02*
X25054761Y8462305D01*
X25054761Y8462305D02*
X25054761Y8271829D01*
X25054761Y8271829D02*
X25030952Y8224210D01*
X25030952Y8224210D02*
X25007142Y8200400D01*
X25007142Y8200400D02*
X24959523Y8176591D01*
X24959523Y8176591D02*
X24864285Y8176591D01*
X24864285Y8176591D02*
X24816666Y8200400D01*
X24816666Y8200400D02*
X24792857Y8224210D01*
X24792857Y8224210D02*
X24769047Y8271829D01*
X24769047Y8271829D02*
X24769047Y8390877D01*
X24769047Y8390877D02*
X24792857Y8438496D01*
X24792857Y8438496D02*
X24816666Y8462305D01*
X24816666Y8462305D02*
X24864285Y8486115D01*
X24864285Y8486115D02*
X24959523Y8486115D01*
X24959523Y8486115D02*
X25007142Y8462305D01*
X25007142Y8462305D02*
X25030952Y8438496D01*
X25030952Y8438496D02*
X25054761Y8390877D01*
X23821428Y16035210D02*
X23845237Y16011400D01*
X23845237Y16011400D02*
X23916666Y15987591D01*
X23916666Y15987591D02*
X23964285Y15987591D01*
X23964285Y15987591D02*
X24035713Y16011400D01*
X24035713Y16011400D02*
X24083332Y16059020D01*
X24083332Y16059020D02*
X24107142Y16106639D01*
X24107142Y16106639D02*
X24130951Y16201877D01*
X24130951Y16201877D02*
X24130951Y16273305D01*
X24130951Y16273305D02*
X24107142Y16368543D01*
X24107142Y16368543D02*
X24083332Y16416162D01*
X24083332Y16416162D02*
X24035713Y16463781D01*
X24035713Y16463781D02*
X23964285Y16487591D01*
X23964285Y16487591D02*
X23916666Y16487591D01*
X23916666Y16487591D02*
X23845237Y16463781D01*
X23845237Y16463781D02*
X23821428Y16439972D01*
X23630951Y16439972D02*
X23607142Y16463781D01*
X23607142Y16463781D02*
X23559523Y16487591D01*
X23559523Y16487591D02*
X23440475Y16487591D01*
X23440475Y16487591D02*
X23392856Y16463781D01*
X23392856Y16463781D02*
X23369047Y16439972D01*
X23369047Y16439972D02*
X23345237Y16392353D01*
X23345237Y16392353D02*
X23345237Y16344734D01*
X23345237Y16344734D02*
X23369047Y16273305D01*
X23369047Y16273305D02*
X23654761Y15987591D01*
X23654761Y15987591D02*
X23345237Y15987591D01*
X22892857Y16487591D02*
X23130952Y16487591D01*
X23130952Y16487591D02*
X23154761Y16249496D01*
X23154761Y16249496D02*
X23130952Y16273305D01*
X23130952Y16273305D02*
X23083333Y16297115D01*
X23083333Y16297115D02*
X22964285Y16297115D01*
X22964285Y16297115D02*
X22916666Y16273305D01*
X22916666Y16273305D02*
X22892857Y16249496D01*
X22892857Y16249496D02*
X22869047Y16201877D01*
X22869047Y16201877D02*
X22869047Y16082829D01*
X22869047Y16082829D02*
X22892857Y16035210D01*
X22892857Y16035210D02*
X22916666Y16011400D01*
X22916666Y16011400D02*
X22964285Y15987591D01*
X22964285Y15987591D02*
X23083333Y15987591D01*
X23083333Y15987591D02*
X23130952Y16011400D01*
X23130952Y16011400D02*
X23154761Y16035210D01*
X1216665Y11899496D02*
X1383332Y11899496D01*
X1383332Y11637591D02*
X1383332Y12137591D01*
X1383332Y12137591D02*
X1145237Y12137591D01*
X788094Y11899496D02*
X716666Y11875686D01*
X716666Y11875686D02*
X692856Y11851877D01*
X692856Y11851877D02*
X669047Y11804258D01*
X669047Y11804258D02*
X669047Y11732829D01*
X669047Y11732829D02*
X692856Y11685210D01*
X692856Y11685210D02*
X716666Y11661400D01*
X716666Y11661400D02*
X764285Y11637591D01*
X764285Y11637591D02*
X954761Y11637591D01*
X954761Y11637591D02*
X954761Y12137591D01*
X954761Y12137591D02*
X788094Y12137591D01*
X788094Y12137591D02*
X740475Y12113781D01*
X740475Y12113781D02*
X716666Y12089972D01*
X716666Y12089972D02*
X692856Y12042353D01*
X692856Y12042353D02*
X692856Y11994734D01*
X692856Y11994734D02*
X716666Y11947115D01*
X716666Y11947115D02*
X740475Y11923305D01*
X740475Y11923305D02*
X788094Y11899496D01*
X788094Y11899496D02*
X954761Y11899496D01*
X192856Y11637591D02*
X478570Y11637591D01*
X335713Y11637591D02*
X335713Y12137591D01*
X335713Y12137591D02*
X383332Y12066162D01*
X383332Y12066162D02*
X430951Y12018543D01*
X430951Y12018543D02*
X478570Y11994734D01*
X21721428Y14872591D02*
X21888094Y15110686D01*
X22007142Y14872591D02*
X22007142Y15372591D01*
X22007142Y15372591D02*
X21816666Y15372591D01*
X21816666Y15372591D02*
X21769047Y15348781D01*
X21769047Y15348781D02*
X21745237Y15324972D01*
X21745237Y15324972D02*
X21721428Y15277353D01*
X21721428Y15277353D02*
X21721428Y15205924D01*
X21721428Y15205924D02*
X21745237Y15158305D01*
X21745237Y15158305D02*
X21769047Y15134496D01*
X21769047Y15134496D02*
X21816666Y15110686D01*
X21816666Y15110686D02*
X22007142Y15110686D01*
X21530951Y15324972D02*
X21507142Y15348781D01*
X21507142Y15348781D02*
X21459523Y15372591D01*
X21459523Y15372591D02*
X21340475Y15372591D01*
X21340475Y15372591D02*
X21292856Y15348781D01*
X21292856Y15348781D02*
X21269047Y15324972D01*
X21269047Y15324972D02*
X21245237Y15277353D01*
X21245237Y15277353D02*
X21245237Y15229734D01*
X21245237Y15229734D02*
X21269047Y15158305D01*
X21269047Y15158305D02*
X21554761Y14872591D01*
X21554761Y14872591D02*
X21245237Y14872591D01*
X21078571Y15372591D02*
X20745238Y15372591D01*
X20745238Y15372591D02*
X20959523Y14872591D01*
X26621428Y-382409D02*
X26788094Y-144314D01*
X26907142Y-382409D02*
X26907142Y117591D01*
X26907142Y117591D02*
X26716666Y117591D01*
X26716666Y117591D02*
X26669047Y93781D01*
X26669047Y93781D02*
X26645237Y69972D01*
X26645237Y69972D02*
X26621428Y22353D01*
X26621428Y22353D02*
X26621428Y-49076D01*
X26621428Y-49076D02*
X26645237Y-96695D01*
X26645237Y-96695D02*
X26669047Y-120504D01*
X26669047Y-120504D02*
X26716666Y-144314D01*
X26716666Y-144314D02*
X26907142Y-144314D01*
X26145237Y-382409D02*
X26430951Y-382409D01*
X26288094Y-382409D02*
X26288094Y117591D01*
X26288094Y117591D02*
X26335713Y46162D01*
X26335713Y46162D02*
X26383332Y-1457D01*
X26383332Y-1457D02*
X26430951Y-25266D01*
X25907142Y-382409D02*
X25811904Y-382409D01*
X25811904Y-382409D02*
X25764285Y-358600D01*
X25764285Y-358600D02*
X25740476Y-334790D01*
X25740476Y-334790D02*
X25692857Y-263361D01*
X25692857Y-263361D02*
X25669047Y-168123D01*
X25669047Y-168123D02*
X25669047Y22353D01*
X25669047Y22353D02*
X25692857Y69972D01*
X25692857Y69972D02*
X25716666Y93781D01*
X25716666Y93781D02*
X25764285Y117591D01*
X25764285Y117591D02*
X25859523Y117591D01*
X25859523Y117591D02*
X25907142Y93781D01*
X25907142Y93781D02*
X25930952Y69972D01*
X25930952Y69972D02*
X25954761Y22353D01*
X25954761Y22353D02*
X25954761Y-96695D01*
X25954761Y-96695D02*
X25930952Y-144314D01*
X25930952Y-144314D02*
X25907142Y-168123D01*
X25907142Y-168123D02*
X25859523Y-191933D01*
X25859523Y-191933D02*
X25764285Y-191933D01*
X25764285Y-191933D02*
X25716666Y-168123D01*
X25716666Y-168123D02*
X25692857Y-144314D01*
X25692857Y-144314D02*
X25669047Y-96695D01*
X16819047Y13248591D02*
X16819047Y12843829D01*
X16819047Y12843829D02*
X16795237Y12796210D01*
X16795237Y12796210D02*
X16771428Y12772400D01*
X16771428Y12772400D02*
X16723809Y12748591D01*
X16723809Y12748591D02*
X16628571Y12748591D01*
X16628571Y12748591D02*
X16580952Y12772400D01*
X16580952Y12772400D02*
X16557142Y12796210D01*
X16557142Y12796210D02*
X16533333Y12843829D01*
X16533333Y12843829D02*
X16533333Y13248591D01*
X16342856Y13248591D02*
X16033332Y13248591D01*
X16033332Y13248591D02*
X16199999Y13058115D01*
X16199999Y13058115D02*
X16128570Y13058115D01*
X16128570Y13058115D02*
X16080951Y13034305D01*
X16080951Y13034305D02*
X16057142Y13010496D01*
X16057142Y13010496D02*
X16033332Y12962877D01*
X16033332Y12962877D02*
X16033332Y12843829D01*
X16033332Y12843829D02*
X16057142Y12796210D01*
X16057142Y12796210D02*
X16080951Y12772400D01*
X16080951Y12772400D02*
X16128570Y12748591D01*
X16128570Y12748591D02*
X16271427Y12748591D01*
X16271427Y12748591D02*
X16319046Y12772400D01*
X16319046Y12772400D02*
X16342856Y12796210D01*
X15866666Y13248591D02*
X15557142Y13248591D01*
X15557142Y13248591D02*
X15723809Y13058115D01*
X15723809Y13058115D02*
X15652380Y13058115D01*
X15652380Y13058115D02*
X15604761Y13034305D01*
X15604761Y13034305D02*
X15580952Y13010496D01*
X15580952Y13010496D02*
X15557142Y12962877D01*
X15557142Y12962877D02*
X15557142Y12843829D01*
X15557142Y12843829D02*
X15580952Y12796210D01*
X15580952Y12796210D02*
X15604761Y12772400D01*
X15604761Y12772400D02*
X15652380Y12748591D01*
X15652380Y12748591D02*
X15795237Y12748591D01*
X15795237Y12748591D02*
X15842856Y12772400D01*
X15842856Y12772400D02*
X15866666Y12796210D01*
D12*
X750000Y9400000D02*
X750000Y5400000D01*
X5000000Y4400000D02*
X5000000Y5400000D01*
X2550000Y4400000D02*
X5000000Y4400000D01*
X2550000Y10400000D02*
X5000000Y10400000D01*
X5000000Y10400000D02*
X5000000Y9400000D01*
D16*
G36*
X26603730Y12975861D02*
G01*
X26298875Y12975861D01*
X26298875Y13280717D01*
X26603730Y13280717D01*
X26603730Y12975861D01*
G37*
G36*
X27213441Y13890428D02*
G01*
X26908586Y13890428D01*
X26908586Y14195283D01*
X27213441Y14195283D01*
X27213441Y13890428D01*
G37*
G36*
X27213441Y12671006D02*
G01*
X26908586Y12671006D01*
X26908586Y12975861D01*
X27213441Y12975861D01*
X27213441Y12671006D01*
G37*
G36*
X27823152Y13585572D02*
G01*
X27518297Y13585572D01*
X27518297Y13890428D01*
X27823152Y13890428D01*
X27823152Y13585572D01*
G37*
G36*
X28128008Y15705703D02*
G01*
X27823152Y15705703D01*
X27823152Y16010559D01*
X28128008Y16010559D01*
X28128008Y15705703D01*
G37*
G36*
X28128008Y13280717D02*
G01*
X27823152Y13280717D01*
X27823152Y13585572D01*
X28128008Y13585572D01*
X28128008Y13280717D01*
G37*
G36*
X28128008Y11160586D02*
G01*
X27823152Y11160586D01*
X27823152Y11465441D01*
X28128008Y11465441D01*
X28128008Y11160586D01*
G37*
G36*
X28723861Y11160586D02*
G01*
X28419006Y11160586D01*
X28419006Y11465441D01*
X28723861Y11465441D01*
X28723861Y11160586D01*
G37*
G36*
X29028717Y13280717D02*
G01*
X28419006Y13280717D01*
X28419006Y13585572D01*
X29028717Y13585572D01*
X29028717Y13280717D01*
G37*
G36*
X29333572Y12975861D02*
G01*
X29028717Y12975861D01*
X29028717Y13280717D01*
X29333572Y13280717D01*
X29333572Y12975861D01*
G37*
G36*
X29333572Y11770297D02*
G01*
X29028717Y11770297D01*
X29028717Y12075152D01*
X29333572Y12075152D01*
X29333572Y11770297D01*
G37*
G36*
X29638428Y12671006D02*
G01*
X29333572Y12671006D01*
X29333572Y12975861D01*
X29638428Y12975861D01*
X29638428Y12671006D01*
G37*
G36*
X29638428Y10246020D02*
G01*
X29333572Y10246020D01*
X29333572Y10550875D01*
X29638428Y10550875D01*
X29638428Y10246020D01*
G37*
G36*
X29943283Y9955021D02*
G01*
X29638428Y9955021D01*
X29638428Y10246020D01*
X29943283Y10246020D01*
X29943283Y9955021D01*
G37*
G36*
X30552994Y16315414D02*
G01*
X30248139Y16315414D01*
X30248139Y16620269D01*
X30552994Y16620269D01*
X30552994Y16315414D01*
G37*
G36*
X30843992Y9955021D02*
G01*
X30552994Y9955021D01*
X30552994Y10246020D01*
X30843992Y10246020D01*
X30843992Y9955021D01*
G37*
G36*
X31758559Y13585572D02*
G01*
X31453703Y13585572D01*
X31453703Y13890428D01*
X31758559Y13890428D01*
X31758559Y13585572D01*
G37*
G36*
X31758559Y12075152D02*
G01*
X31453703Y12075152D01*
X31453703Y12380008D01*
X31758559Y12380008D01*
X31758559Y12075152D01*
G37*
G36*
X32063414Y14804994D02*
G01*
X31758559Y14804994D01*
X31758559Y15400848D01*
X32063414Y15400848D01*
X32063414Y14804994D01*
G37*
G36*
X32063414Y14195283D02*
G01*
X31453703Y14195283D01*
X31453703Y14500139D01*
X32063414Y14500139D01*
X32063414Y14195283D01*
G37*
G36*
X33268979Y16620269D02*
G01*
X32673125Y16620269D01*
X32673125Y16925125D01*
X33268979Y16925125D01*
X33268979Y16620269D01*
G37*
G36*
X26908586Y13585572D02*
G01*
X27518297Y13585572D01*
X27518297Y13280717D01*
X26603730Y13280717D01*
X26603730Y13890428D01*
X26908586Y13890428D01*
X26908586Y13585572D01*
G37*
G36*
X30552994Y13585572D02*
G01*
X30248139Y13585572D01*
X30248139Y13280717D01*
X29638428Y13280717D01*
X29638428Y13890428D01*
X30552994Y13890428D01*
X30552994Y13585572D01*
G37*
G36*
X27518297Y14195283D02*
G01*
X27213441Y14195283D01*
X27213441Y14500139D01*
X26908586Y14500139D01*
X26908586Y14804994D01*
X27213441Y14804994D01*
X27213441Y15095992D01*
X27518297Y15095992D01*
X27518297Y14195283D01*
G37*
G36*
X29028717Y14195283D02*
G01*
X29333572Y14195283D01*
X29333572Y14500139D01*
X29638428Y14500139D01*
X29638428Y13890428D01*
X28723861Y13890428D01*
X28723861Y14500139D01*
X29028717Y14500139D01*
X29028717Y14195283D01*
G37*
G36*
X32368269Y17229980D02*
G01*
X31758559Y17229980D01*
X31758559Y16925125D01*
X31453703Y16925125D01*
X31453703Y17520979D01*
X31758559Y17520979D01*
X31758559Y17825834D01*
X32368269Y17825834D01*
X32368269Y17229980D01*
G37*
G36*
X26894729Y16329271D02*
G01*
X25412023Y16329271D01*
X25412023Y16620269D01*
X25412023Y17520979D01*
X25703021Y17520979D01*
X25703021Y16620269D01*
X26603730Y16620269D01*
X26603730Y17520979D01*
X25703021Y17520979D01*
X25412023Y17520979D01*
X25412023Y17811977D01*
X26894729Y17811977D01*
X26894729Y16329271D01*
G37*
G36*
X26894729Y9664023D02*
G01*
X25412023Y9664023D01*
X25412023Y9955021D01*
X25412023Y10855730D01*
X25703021Y10855730D01*
X25703021Y9955021D01*
X26603730Y9955021D01*
X26603730Y10855730D01*
X25703021Y10855730D01*
X25412023Y10855730D01*
X25412023Y11146729D01*
X26894729Y11146729D01*
X26894729Y9664023D01*
G37*
G36*
X32368269Y15705703D02*
G01*
X31453703Y15705703D01*
X31453703Y16010559D01*
X31453703Y16315414D01*
X31758559Y16315414D01*
X31758559Y16010559D01*
X32063414Y16010559D01*
X32063414Y16315414D01*
X31758559Y16315414D01*
X31453703Y16315414D01*
X31453703Y16620269D01*
X32368269Y16620269D01*
X32368269Y15705703D01*
G37*
G36*
X33559977Y9664023D02*
G01*
X32077271Y9664023D01*
X32077271Y9955021D01*
X32077271Y10855730D01*
X32368269Y10855730D01*
X32368269Y9955021D01*
X33268979Y9955021D01*
X33268979Y10855730D01*
X32368269Y10855730D01*
X32077271Y10855730D01*
X32077271Y11146729D01*
X33559977Y11146729D01*
X33559977Y9664023D01*
G37*
G36*
X30843992Y11160586D02*
G01*
X30843992Y10855730D01*
X30552994Y10855730D01*
X30552994Y10246020D01*
X30248139Y10246020D01*
X30248139Y10855730D01*
X30552994Y10855730D01*
X30552994Y11160586D01*
X30843992Y11160586D01*
G37*
G36*
X30552994Y11160586D02*
G01*
X30248139Y11160586D01*
X30248139Y10855730D01*
X29943283Y10855730D01*
X29943283Y11160586D01*
X30248139Y11160586D01*
X30248139Y11465441D01*
X30552994Y11465441D01*
X30552994Y11160586D01*
G37*
G36*
X29028717Y12075152D02*
G01*
X28723861Y12075152D01*
X28723861Y11770297D01*
X28419006Y11770297D01*
X28419006Y11465441D01*
X28128008Y11465441D01*
X28128008Y11770297D01*
X28418068Y11770297D01*
X28422001Y11919260D01*
X28425934Y12068224D01*
X28574898Y12072157D01*
X28723861Y12076090D01*
X28723861Y12379434D01*
X28430883Y12379391D01*
X28400943Y12379409D01*
X28316747Y12379701D01*
X28243822Y12380310D01*
X28186279Y12381179D01*
X28148228Y12382252D01*
X28133780Y12383473D01*
X28132283Y12392602D01*
X28130504Y12426131D01*
X28129017Y12480459D01*
X28127882Y12551644D01*
X28127157Y12635741D01*
X28126902Y12728807D01*
X28127174Y12826898D01*
X28128008Y12975861D01*
X29028717Y12975861D01*
X29028717Y12075152D01*
G37*
G36*
X33268979Y16010559D02*
G01*
X32977980Y16010559D01*
X32977980Y15400848D01*
X33268979Y15400848D01*
X33269788Y15251884D01*
X33269905Y15223891D01*
X33269961Y15133694D01*
X33269658Y15038218D01*
X33269037Y14953957D01*
X33267476Y14804994D01*
X33573834Y14804994D01*
X33573834Y14501076D01*
X33424871Y14497143D01*
X33275907Y14493210D01*
X33273073Y14340782D01*
X33272512Y14308481D01*
X33271225Y14217681D01*
X33270195Y14122664D01*
X33269608Y14039391D01*
X33268979Y13890428D01*
X32978918Y13890428D01*
X32974985Y14039391D01*
X32971052Y14188355D01*
X32822088Y14192288D01*
X32673125Y14196221D01*
X32673125Y13890428D01*
X32063414Y13890428D01*
X32063414Y14195283D01*
X32368269Y14195283D01*
X32368269Y14804994D01*
X32673125Y14804994D01*
X32673125Y14500139D01*
X32978918Y14500139D01*
X32971052Y14798065D01*
X32822088Y14801998D01*
X32673125Y14805932D01*
X32673125Y16315414D01*
X33268979Y16315414D01*
X33268979Y16010559D01*
G37*
G36*
X34488400Y8735600D02*
G01*
X24483600Y8735600D01*
X24483600Y9345310D01*
X24483600Y11465441D01*
X25093310Y11465441D01*
X25093310Y9345310D01*
X27213441Y9345310D01*
X27213441Y9650166D01*
X28128008Y9650166D01*
X28128008Y9345310D01*
X28723861Y9345310D01*
X28723861Y9650166D01*
X28128008Y9650166D01*
X27213441Y9650166D01*
X27213441Y11465441D01*
X25093310Y11465441D01*
X24483600Y11465441D01*
X24483600Y11770297D01*
X24483600Y14500139D01*
X25093310Y14500139D01*
X25093310Y13280717D01*
X25398706Y13280717D01*
X25394972Y12979326D01*
X25391237Y12677934D01*
X25242274Y12674001D01*
X25093310Y12670068D01*
X25093310Y11770297D01*
X25398166Y11770297D01*
X25398166Y12065914D01*
X25994020Y12065914D01*
X25994020Y11770297D01*
X26298875Y11770297D01*
X26298875Y12075152D01*
X26603730Y12075152D01*
X26603730Y11770297D01*
X27213441Y11770297D01*
X27213441Y12075152D01*
X26603730Y12075152D01*
X26298875Y12075152D01*
X26298875Y12380008D01*
X26155685Y12380008D01*
X26112042Y12379575D01*
X26058531Y12377677D01*
X26020177Y12374615D01*
X26003258Y12370770D01*
X26002278Y12368129D01*
X25999643Y12343458D01*
X25997373Y12296716D01*
X25995595Y12232087D01*
X25994434Y12153758D01*
X25994020Y12065914D01*
X25398166Y12065914D01*
X25398166Y12075152D01*
X25703331Y12075152D01*
X25702568Y12376543D01*
X25702541Y12387538D01*
X25702344Y12488374D01*
X25702231Y12589805D01*
X25702203Y12684754D01*
X25702263Y12766144D01*
X25702413Y12826898D01*
X25703021Y12975861D01*
X26297937Y12975861D01*
X26301870Y12826898D01*
X26305804Y12677934D01*
X26607195Y12674200D01*
X26908586Y12670465D01*
X26908586Y12380008D01*
X27213441Y12380008D01*
X27213441Y12670068D01*
X27362405Y12674001D01*
X27511368Y12677934D01*
X27515301Y12826898D01*
X27519234Y12975861D01*
X27823152Y12975861D01*
X27823152Y12380008D01*
X28128008Y12380008D01*
X28128008Y12075152D01*
X27824090Y12075152D01*
X27820157Y12224116D01*
X27816224Y12373079D01*
X27667260Y12377012D01*
X27518297Y12380945D01*
X27518297Y11770297D01*
X27823152Y11770297D01*
X27823152Y11465441D01*
X27518297Y11465441D01*
X27518297Y10855730D01*
X28128945Y10855730D01*
X28121079Y10557804D01*
X27972116Y10553870D01*
X27823152Y10549937D01*
X27823152Y9955021D01*
X28419006Y9955021D01*
X28419006Y10550875D01*
X29027779Y10550875D01*
X29031712Y10401912D01*
X29035645Y10252948D01*
X29184609Y10249015D01*
X29333572Y10245082D01*
X29333572Y9955959D01*
X29184609Y9952026D01*
X29035645Y9948093D01*
X29031712Y9799129D01*
X29027779Y9650166D01*
X29333572Y9650166D01*
X29333572Y9955021D01*
X29638428Y9955021D01*
X29638428Y9345310D01*
X29943283Y9345310D01*
X29943283Y9650706D01*
X30244674Y9646972D01*
X30546065Y9643237D01*
X30549998Y9494274D01*
X30553932Y9345310D01*
X31148848Y9345310D01*
X31758559Y9345310D01*
X33878690Y9345310D01*
X33878690Y11465441D01*
X31758559Y11465441D01*
X31758559Y9345310D01*
X31148848Y9345310D01*
X31148848Y9650166D01*
X30843992Y9650166D01*
X30843992Y9955021D01*
X31453703Y9955021D01*
X31453703Y10246020D01*
X31148848Y10246020D01*
X31148848Y10549937D01*
X30999884Y10553870D01*
X30850921Y10557804D01*
X30843055Y10855730D01*
X31148848Y10855730D01*
X31148848Y11160586D01*
X31453703Y11160586D01*
X31453703Y11465441D01*
X31148848Y11465441D01*
X31148848Y11160586D01*
X30843992Y11160586D01*
X30843992Y11770297D01*
X30248139Y11770297D01*
X30248139Y11465441D01*
X29943283Y11465441D01*
X29943283Y11160586D01*
X29638428Y11160586D01*
X29638428Y10855730D01*
X29333572Y10855730D01*
X29333572Y10550875D01*
X29027779Y10550875D01*
X28419006Y10550875D01*
X28419006Y10855730D01*
X28723861Y10855730D01*
X28723861Y11160586D01*
X29028717Y11160586D01*
X29028717Y11465441D01*
X29333572Y11465441D01*
X29333572Y11160586D01*
X29638428Y11160586D01*
X29638428Y11465441D01*
X29333572Y11465441D01*
X29333572Y11770297D01*
X29638428Y11770297D01*
X29638428Y12075152D01*
X29333572Y12075152D01*
X29333572Y12379935D01*
X29943283Y12379935D01*
X29943283Y12075152D01*
X30553932Y12075152D01*
X30549998Y12224116D01*
X30546065Y12373079D01*
X29943283Y12379935D01*
X29333572Y12379935D01*
X29333572Y12380008D01*
X29638428Y12380008D01*
X29638428Y12670068D01*
X29787391Y12674001D01*
X29936355Y12677934D01*
X29940285Y12826629D01*
X29944215Y12975323D01*
X29987573Y12975861D01*
X30552994Y12975861D01*
X30552994Y12380008D01*
X31148848Y12380008D01*
X31148848Y12670068D01*
X30999884Y12674001D01*
X30850921Y12677934D01*
X30846988Y12826898D01*
X30843055Y12975861D01*
X31147910Y12975861D01*
X31151843Y12826898D01*
X31155776Y12677934D01*
X31304740Y12674001D01*
X31453703Y12670068D01*
X31453703Y12380945D01*
X31304740Y12377012D01*
X31155776Y12373079D01*
X31151843Y12224116D01*
X31147910Y12075152D01*
X31453703Y12075152D01*
X31453703Y11770297D01*
X31758559Y11770297D01*
X32063414Y11770297D01*
X32368269Y11770297D01*
X32368269Y12075152D01*
X32063414Y12075152D01*
X32063414Y11770297D01*
X31758559Y11770297D01*
X31758559Y12075152D01*
X32063414Y12075152D01*
X32063414Y12380008D01*
X31758559Y12380008D01*
X31758559Y12380945D01*
X31758559Y12671006D01*
X31453703Y12671006D01*
X31453703Y12975861D01*
X31147910Y12975861D01*
X30843055Y12975861D01*
X30552994Y12975861D01*
X29987573Y12975861D01*
X30245140Y12979057D01*
X30546065Y12982790D01*
X30549998Y13131753D01*
X30553932Y13280717D01*
X30843992Y13280717D01*
X30843992Y14195283D01*
X30553932Y14195283D01*
X30549998Y14344247D01*
X30546065Y14493210D01*
X30283628Y14500139D01*
X30248139Y14501076D01*
X30248139Y14195283D01*
X29943283Y14195283D01*
X29943283Y14500139D01*
X29638428Y14500139D01*
X29638428Y15400848D01*
X29333572Y15400848D01*
X29333572Y14804994D01*
X29028717Y14804994D01*
X29028717Y15095992D01*
X28723861Y15095992D01*
X28723861Y14501076D01*
X28574898Y14497143D01*
X28425934Y14493210D01*
X28422281Y14039391D01*
X28418627Y13585572D01*
X28128008Y13585572D01*
X28128008Y14500139D01*
X28419006Y14500139D01*
X28419006Y15095992D01*
X28128008Y15095992D01*
X28128008Y14804994D01*
X27823152Y14804994D01*
X27823152Y15399910D01*
X27972116Y15403843D01*
X28121079Y15407776D01*
X28125012Y15556740D01*
X28128945Y15705703D01*
X28722924Y15705703D01*
X28726857Y15556740D01*
X28730790Y15407776D01*
X28879753Y15403843D01*
X29028717Y15399910D01*
X29028717Y15705703D01*
X28723861Y15705703D01*
X28723861Y16010559D01*
X29333572Y16010559D01*
X29333572Y15705703D01*
X29638428Y15705703D01*
X29638428Y16010559D01*
X29333572Y16010559D01*
X28723861Y16010559D01*
X28723861Y16315414D01*
X28419006Y16315414D01*
X28419006Y16620269D01*
X29333572Y16620269D01*
X29333572Y16315414D01*
X29943283Y16315414D01*
X29943283Y15705703D01*
X29638428Y15705703D01*
X29638428Y15400848D01*
X30248139Y15400848D01*
X30248139Y16010559D01*
X30552994Y16010559D01*
X30552994Y16315414D01*
X30843992Y16315414D01*
X30843992Y16620269D01*
X30553932Y16620269D01*
X30549998Y16769233D01*
X30546065Y16918196D01*
X30244674Y16921931D01*
X29943283Y16925665D01*
X29943283Y16620269D01*
X29333572Y16620269D01*
X28419006Y16620269D01*
X28419006Y16925125D01*
X29333572Y16925125D01*
X29333572Y17229980D01*
X29028717Y17229980D01*
X29028717Y17520979D01*
X29943283Y17520979D01*
X29943283Y17229980D01*
X30248139Y17229980D01*
X30248139Y17520979D01*
X29943283Y17520979D01*
X29028717Y17520979D01*
X28723861Y17520979D01*
X28723861Y17230918D01*
X28574898Y17226985D01*
X28425934Y17223052D01*
X28422001Y17074088D01*
X28418068Y16925125D01*
X28128008Y16925125D01*
X28128008Y17229980D01*
X28419006Y17229980D01*
X28419006Y17825834D01*
X27823152Y17825834D01*
X27823152Y17229980D01*
X27518297Y17229980D01*
X27518297Y16925125D01*
X27823152Y16925125D01*
X27823152Y16620269D01*
X27518297Y16620269D01*
X27518297Y16315414D01*
X27823152Y16315414D01*
X27823152Y16010559D01*
X27518297Y16010559D01*
X27518297Y15400848D01*
X27213441Y15400848D01*
X27213441Y15095992D01*
X26908586Y15095992D01*
X26908586Y14804994D01*
X26603730Y14804994D01*
X26603730Y14500139D01*
X26908586Y14500139D01*
X26908586Y14195283D01*
X26298875Y14195283D01*
X26298875Y13585572D01*
X25704052Y13585572D01*
X25700072Y13886963D01*
X25699948Y13896587D01*
X25698959Y13998057D01*
X25698469Y14100805D01*
X25698481Y14195283D01*
X25993082Y14195283D01*
X26298875Y14195283D01*
X26298875Y14501076D01*
X26149912Y14497143D01*
X26000948Y14493210D01*
X25997015Y14344247D01*
X25993082Y14195283D01*
X25698481Y14195283D01*
X25698481Y14197583D01*
X25698994Y14281146D01*
X25700011Y14344247D01*
X25703929Y14500139D01*
X25994020Y14500139D01*
X25994020Y15095992D01*
X25703021Y15095992D01*
X25703021Y14804994D01*
X25398166Y14804994D01*
X25398166Y14500139D01*
X25093310Y14500139D01*
X24483600Y14500139D01*
X24483600Y14804994D01*
X24483600Y15095992D01*
X25093310Y15095992D01*
X25093310Y14804994D01*
X25398166Y14804994D01*
X25398166Y15095992D01*
X25093310Y15095992D01*
X24483600Y15095992D01*
X24483600Y15399910D01*
X25093310Y15399910D01*
X25128837Y15400848D01*
X25242274Y15403843D01*
X25391237Y15407776D01*
X25395170Y15556740D01*
X25399103Y15705703D01*
X25703021Y15705703D01*
X25703021Y15400848D01*
X25993082Y15400848D01*
X25997015Y15251884D01*
X26000948Y15102921D01*
X26149912Y15098988D01*
X26298875Y15095055D01*
X26298875Y14804994D01*
X26603730Y14804994D01*
X26603730Y15400848D01*
X26603730Y15705703D01*
X26908586Y15705703D01*
X26908586Y15400848D01*
X27213441Y15400848D01*
X27213441Y15705703D01*
X26908586Y15705703D01*
X26603730Y15705703D01*
X25703021Y15705703D01*
X25399103Y15705703D01*
X25093310Y15705703D01*
X25093310Y15399910D01*
X24483600Y15399910D01*
X24483600Y15705703D01*
X24483600Y16010559D01*
X24483600Y18130690D01*
X25093310Y18130690D01*
X25093310Y16010559D01*
X27213441Y16010559D01*
X27213441Y17824896D01*
X27518297Y17824896D01*
X27667260Y17828830D01*
X27816224Y17832763D01*
X27820157Y17981726D01*
X27824090Y18130690D01*
X28418068Y18130690D01*
X28422001Y17981726D01*
X28425934Y17832763D01*
X28574898Y17828830D01*
X28723861Y17824896D01*
X28723861Y17825834D01*
X29332635Y17825834D01*
X29336568Y17676871D01*
X29340501Y17527907D01*
X29936355Y17527907D01*
X29940288Y17676871D01*
X29944221Y17825834D01*
X30248139Y17825834D01*
X30248139Y17520979D01*
X30397102Y17521812D01*
X30471269Y17522069D01*
X30565944Y17521938D01*
X30652624Y17521324D01*
X30727366Y17520285D01*
X30786227Y17518880D01*
X30825262Y17517167D01*
X30840527Y17515206D01*
X30840948Y17513257D01*
X30842126Y17490464D01*
X30843137Y17445441D01*
X30843925Y17382300D01*
X30844435Y17305150D01*
X30844608Y17218104D01*
X30844566Y16925125D01*
X31148848Y16925125D01*
X31148848Y16010559D01*
X30843992Y16010559D01*
X30843992Y15705703D01*
X30552994Y15705703D01*
X30552994Y15400848D01*
X30248139Y15400848D01*
X30248139Y15095992D01*
X29943283Y15095992D01*
X29943283Y14804994D01*
X30248139Y14804994D01*
X30552994Y14804994D01*
X30552994Y14500139D01*
X30843992Y14500139D01*
X30843992Y14804994D01*
X30552994Y14804994D01*
X30248139Y14804994D01*
X30248139Y15095055D01*
X30546065Y15102921D01*
X30549998Y15251884D01*
X30553932Y15400848D01*
X31147910Y15400848D01*
X31151843Y15251884D01*
X31155776Y15102921D01*
X31304740Y15098988D01*
X31453703Y15095055D01*
X31453703Y14805932D01*
X31304740Y14801998D01*
X31155776Y14798065D01*
X31152194Y14039391D01*
X31148611Y13280717D01*
X31453703Y13280717D01*
X31453703Y12975861D01*
X32063414Y12975861D01*
X32368269Y12975861D01*
X32368269Y12380945D01*
X32517233Y12377012D01*
X32666196Y12373079D01*
X32670129Y12224116D01*
X32674062Y12075152D01*
X32977980Y12075152D01*
X32977980Y12218342D01*
X33573834Y12218342D01*
X33573834Y12075152D01*
X33878690Y12075152D01*
X33878690Y12380008D01*
X33735500Y12380008D01*
X33691857Y12379575D01*
X33638346Y12377677D01*
X33599992Y12374615D01*
X33583072Y12370770D01*
X33580284Y12361279D01*
X33576954Y12328529D01*
X33574678Y12278791D01*
X33573834Y12218342D01*
X32977980Y12218342D01*
X32977980Y12380008D01*
X33573834Y12380008D01*
X33573834Y12975861D01*
X33878690Y12975861D01*
X33878690Y13280717D01*
X33268979Y13280717D01*
X33268979Y12975861D01*
X32978918Y12975861D01*
X32974985Y12826898D01*
X32971052Y12677934D01*
X32822088Y12674001D01*
X32673125Y12670068D01*
X32673125Y12974924D01*
X32822088Y12978857D01*
X32971052Y12982790D01*
X32974985Y13131753D01*
X32978918Y13280717D01*
X32673125Y13280717D01*
X32673125Y12975861D01*
X32368269Y12975861D01*
X32063414Y12975861D01*
X32063414Y13280717D01*
X31758559Y13280717D01*
X31758559Y13585572D01*
X33878690Y13585572D01*
X33878690Y13890428D01*
X33573834Y13890428D01*
X33573834Y14500139D01*
X33878690Y14500139D01*
X33878690Y15400848D01*
X33268979Y15400848D01*
X33268979Y15705703D01*
X33878690Y15705703D01*
X33878690Y16010559D01*
X33573834Y16010559D01*
X33573834Y16315414D01*
X33268979Y16315414D01*
X33268979Y16620269D01*
X33878690Y16620269D01*
X33878690Y16925125D01*
X33573834Y16925125D01*
X33573834Y17229980D01*
X33268979Y17229980D01*
X33268979Y17520979D01*
X32673125Y17520979D01*
X32673125Y17824896D01*
X32822088Y17828830D01*
X32971052Y17832763D01*
X32974985Y17981726D01*
X32978918Y18130690D01*
X33269051Y18130690D01*
X33272479Y17829298D01*
X33275907Y17527907D01*
X33424871Y17523974D01*
X33573834Y17520041D01*
X33573834Y17229980D01*
X33878690Y17229980D01*
X33878690Y17520979D01*
X33573834Y17520979D01*
X33573834Y18130690D01*
X33269051Y18130690D01*
X32978918Y18130690D01*
X31148848Y18130690D01*
X31148848Y17825834D01*
X30552994Y17825834D01*
X30552994Y18130690D01*
X29943283Y18130690D01*
X29943283Y17825834D01*
X29332635Y17825834D01*
X28723861Y17825834D01*
X28723861Y18130690D01*
X28418068Y18130690D01*
X27824090Y18130690D01*
X27518297Y18130690D01*
X27518297Y17824896D01*
X27213441Y17824896D01*
X27213441Y18130690D01*
X25093310Y18130690D01*
X24483600Y18130690D01*
X24483600Y18740400D01*
X34488400Y18740400D01*
X34488400Y8735600D01*
G37*
D17*
X2200000Y13600000D02*
X2200000Y12200000D01*
X2200000Y12200000D02*
X3600000Y12200000D01*
X3600000Y13600000D02*
X2200000Y13600000D01*
X3600000Y12200000D02*
X3600000Y13600000D01*
X15122936Y3335000D02*
X15577064Y3335000D01*
X15122936Y1865000D02*
X15577064Y1865000D01*
X22700000Y12065000D02*
X22700000Y10665000D01*
X22700000Y10665000D02*
X24100000Y10665000D01*
X24100000Y12065000D02*
X22700000Y12065000D01*
X24100000Y10665000D02*
X24100000Y12065000D01*
X15122936Y5385000D02*
X15577064Y5385000D01*
X15122936Y3915000D02*
X15577064Y3915000D01*
X26570000Y6155000D02*
X25920000Y6155000D01*
X26570000Y6155000D02*
X28245000Y6155000D01*
X26570000Y3035000D02*
X25920000Y3035000D01*
X26570000Y3035000D02*
X27220000Y3035000D01*
X13500000Y19800000D02*
X13500000Y18400000D01*
X13500000Y18400000D02*
X14900000Y18400000D01*
X14900000Y19800000D02*
X13500000Y19800000D01*
X14900000Y18400000D02*
X14900000Y19800000D01*
X17327064Y19835000D02*
X16872936Y19835000D01*
X17327064Y18365000D02*
X16872936Y18365000D01*
X22538748Y1830000D02*
X23061252Y1830000D01*
X22538748Y360000D02*
X23061252Y360000D01*
X2165000Y18061252D02*
X2165000Y17538748D01*
X3635000Y18061252D02*
X3635000Y17538748D01*
X13700000Y15300000D02*
X13700000Y13900000D01*
X13700000Y13900000D02*
X15100000Y13900000D01*
X15100000Y15300000D02*
X13700000Y15300000D01*
X15100000Y13900000D02*
X15100000Y15300000D01*
X28858748Y8080000D02*
X29381252Y8080000D01*
X28858748Y6610000D02*
X29381252Y6610000D01*
X14165000Y7222936D02*
X14165000Y7677064D01*
X15635000Y7222936D02*
X15635000Y7677064D01*
X17315000Y2027064D02*
X17315000Y1572936D01*
X18785000Y2027064D02*
X18785000Y1572936D01*
X7250000Y11000000D02*
X7250000Y8450000D01*
X7250000Y11000000D02*
X8950000Y11000000D01*
X8950000Y11000000D02*
X8950000Y8450000D01*
X85000Y17572064D02*
X85000Y17117936D01*
X1555000Y17572064D02*
X1555000Y17117936D01*
X19315000Y2061252D02*
X19315000Y1538748D01*
X20785000Y2061252D02*
X20785000Y1538748D01*
X30500000Y3405000D02*
X29850000Y3405000D01*
X30500000Y3405000D02*
X31150000Y3405000D01*
X30500000Y285000D02*
X28825000Y285000D01*
X30500000Y285000D02*
X31150000Y285000D01*
X20372936Y11076000D02*
X20827064Y11076000D01*
X20372936Y9606000D02*
X20827064Y9606000D01*
X21260000Y4345000D02*
X21260000Y4995000D01*
X21260000Y4345000D02*
X21260000Y3695000D01*
X24380000Y4345000D02*
X24380000Y4995000D01*
X24380000Y4345000D02*
X24380000Y2670000D01*
X20727064Y19835000D02*
X20272936Y19835000D01*
X20727064Y18365000D02*
X20272936Y18365000D01*
X11465000Y9661252D02*
X11465000Y9138748D01*
X12935000Y9661252D02*
X12935000Y9138748D01*
X8415000Y3611252D02*
X8415000Y3088748D01*
X9885000Y3611252D02*
X9885000Y3088748D01*
X21384936Y8885000D02*
X21839064Y8885000D01*
X21384936Y7415000D02*
X21839064Y7415000D01*
X17100000Y10800000D02*
X17100000Y9400000D01*
X17100000Y9400000D02*
X18500000Y9400000D01*
X18500000Y10800000D02*
X17100000Y10800000D01*
X18500000Y9400000D02*
X18500000Y10800000D01*
X15350000Y1300000D02*
X15350000Y-100000D01*
X15350000Y-100000D02*
X16750000Y-100000D01*
X16750000Y1300000D02*
X15350000Y1300000D01*
X16750000Y-100000D02*
X16750000Y1300000D01*
X20404000Y6818000D02*
X20404000Y5418000D01*
X20404000Y5418000D02*
X21804000Y5418000D01*
X21804000Y6818000D02*
X20404000Y6818000D01*
X21804000Y5418000D02*
X21804000Y6818000D01*
X4135000Y15600000D02*
X4135000Y17550000D01*
X4135000Y15600000D02*
X4135000Y13650000D01*
X13005000Y15600000D02*
X13005000Y17550000D01*
X13005000Y15600000D02*
X13005000Y12150000D01*
X11831252Y7080000D02*
X11308748Y7080000D01*
X11831252Y5610000D02*
X11308748Y5610000D01*
X14780936Y10917000D02*
X15235064Y10917000D01*
X14780936Y9447000D02*
X15235064Y9447000D01*
X9365000Y9627064D02*
X9365000Y9172936D01*
X10835000Y9627064D02*
X10835000Y9172936D01*
X18500000Y17960000D02*
X17700000Y17960000D01*
X18500000Y17960000D02*
X19300000Y17960000D01*
X18500000Y14840000D02*
X16700000Y14840000D01*
X18500000Y14840000D02*
X19300000Y14840000D01*
X30092936Y6080000D02*
X30547064Y6080000D01*
X30092936Y4610000D02*
X30547064Y4610000D01*
X2200000Y15700000D02*
X2200000Y14300000D01*
X2200000Y14300000D02*
X3600000Y14300000D01*
X3600000Y15700000D02*
X2200000Y15700000D01*
X3600000Y14300000D02*
X3600000Y15700000D01*
X17820000Y8905000D02*
X17170000Y8905000D01*
X17820000Y8905000D02*
X19495000Y8905000D01*
X17820000Y5785000D02*
X17170000Y5785000D01*
X17820000Y5785000D02*
X18470000Y5785000D01*
X25547064Y8080000D02*
X25092936Y8080000D01*
X25547064Y6610000D02*
X25092936Y6610000D01*
X22665000Y13803748D02*
X22665000Y14326252D01*
X24135000Y13803748D02*
X24135000Y14326252D01*
X85000Y13617936D02*
X85000Y14072064D01*
X1555000Y13617936D02*
X1555000Y14072064D01*
X20665000Y13227064D02*
X20665000Y12772936D01*
X22135000Y13227064D02*
X22135000Y12772936D01*
X26527064Y1830000D02*
X26072936Y1830000D01*
X26527064Y360000D02*
X26072936Y360000D01*
X17140000Y12276000D02*
X17140000Y13676000D01*
X19460000Y13676000D02*
X19460000Y11776000D01*
M02*
