G04 #@! TF.GenerationSoftware,KiCad,Pcbnew,5.99.0-unknown-5a0a2a8366~101~ubuntu20.04.1*
G04 #@! TF.CreationDate,2021-02-21T23:03:29+09:00*
G04 #@! TF.ProjectId,OpenHVPS-5,4f70656e-4856-4505-932d-352e6b696361,V1.1*
G04 #@! TF.SameCoordinates,Original*
G04 #@! TF.FileFunction,Soldermask,Top*
G04 #@! TF.FilePolarity,Negative*
%FSLAX46Y46*%
G04 Gerber Fmt 4.6, Leading zero omitted, Abs format (unit mm)*
G04 Created by KiCad (PCBNEW 5.99.0-unknown-5a0a2a8366~101~ubuntu20.04.1) date 2021-02-21 23:03:29*
%MOMM*%
%LPD*%
G01*
G04 APERTURE LIST*
G04 Aperture macros list*
%AMRoundRect*
0 Rectangle with rounded corners*
0 $1 Rounding radius*
0 $2 $3 $4 $5 $6 $7 $8 $9 X,Y pos of 4 corners*
0 Add a 4 corners polygon primitive as box body*
4,1,4,$2,$3,$4,$5,$6,$7,$8,$9,$2,$3,0*
0 Add four circle primitives for the rounded corners*
1,1,$1+$1,$2,$3*
1,1,$1+$1,$4,$5*
1,1,$1+$1,$6,$7*
1,1,$1+$1,$8,$9*
0 Add four rect primitives between the rounded corners*
20,1,$1+$1,$2,$3,$4,$5,0*
20,1,$1+$1,$4,$5,$6,$7,0*
20,1,$1+$1,$6,$7,$8,$9,0*
20,1,$1+$1,$8,$9,$2,$3,0*%
G04 Aperture macros list end*
%ADD10RoundRect,0.250000X0.450000X-0.262500X0.450000X0.262500X-0.450000X0.262500X-0.450000X-0.262500X0*%
%ADD11R,1.700000X1.700000*%
%ADD12O,1.700000X1.700000*%
%ADD13RoundRect,0.250000X-0.250000X-0.475000X0.250000X-0.475000X0.250000X0.475000X-0.250000X0.475000X0*%
%ADD14C,2.500000*%
%ADD15C,2.800000*%
%ADD16RoundRect,0.150000X0.150000X-0.587500X0.150000X0.587500X-0.150000X0.587500X-0.150000X-0.587500X0*%
%ADD17RoundRect,0.250000X-0.450000X0.262500X-0.450000X-0.262500X0.450000X-0.262500X0.450000X0.262500X0*%
%ADD18RoundRect,0.250000X0.262500X0.450000X-0.262500X0.450000X-0.262500X-0.450000X0.262500X-0.450000X0*%
%ADD19RoundRect,0.250000X-0.475000X0.250000X-0.475000X-0.250000X0.475000X-0.250000X0.475000X0.250000X0*%
%ADD20RoundRect,0.250000X-0.625000X0.312500X-0.625000X-0.312500X0.625000X-0.312500X0.625000X0.312500X0*%
%ADD21R,3.700000X1.200000*%
%ADD22RoundRect,0.250000X-0.262500X-0.450000X0.262500X-0.450000X0.262500X0.450000X-0.262500X0.450000X0*%
%ADD23RoundRect,0.150000X0.150000X-0.825000X0.150000X0.825000X-0.150000X0.825000X-0.150000X-0.825000X0*%
%ADD24R,2.000000X1.500000*%
%ADD25R,2.000000X3.800000*%
%ADD26R,0.450000X0.600000*%
%ADD27R,1.000000X1.000000*%
%ADD28RoundRect,0.250000X0.250000X0.475000X-0.250000X0.475000X-0.250000X-0.475000X0.250000X-0.475000X0*%
G04 APERTURE END LIST*
D10*
X128500000Y-72413500D03*
X128500000Y-70588500D03*
D11*
X165100000Y-59055000D03*
D12*
X165100000Y-61595000D03*
D13*
X145050000Y-59000000D03*
X146950000Y-59000000D03*
D14*
X162560000Y-71755000D03*
D15*
X162560000Y-75565000D03*
D16*
X156550000Y-62937500D03*
X158450000Y-62937500D03*
X157500000Y-61062500D03*
X142550000Y-62937500D03*
X144450000Y-62937500D03*
X143500000Y-61062500D03*
D17*
X157520000Y-70520000D03*
X157520000Y-72345000D03*
D13*
X152050000Y-59000000D03*
X153950000Y-59000000D03*
D16*
X139004000Y-62913500D03*
X140904000Y-62913500D03*
X139954000Y-61038500D03*
D18*
X148182500Y-67520000D03*
X146357500Y-67520000D03*
D13*
X148550000Y-59000000D03*
X150450000Y-59000000D03*
D18*
X151932500Y-67520000D03*
X150107500Y-67520000D03*
D17*
X145020000Y-71857500D03*
X145020000Y-73682500D03*
D16*
X149550000Y-62937500D03*
X151450000Y-62937500D03*
X150500000Y-61062500D03*
D15*
X138176000Y-75565000D03*
D16*
X153050000Y-62937500D03*
X154950000Y-62937500D03*
X154000000Y-61062500D03*
D19*
X130500000Y-59050000D03*
X130500000Y-60950000D03*
D13*
X153050000Y-65000000D03*
X154950000Y-65000000D03*
D11*
X128500000Y-75565000D03*
D12*
X131040000Y-75565000D03*
X133580000Y-75565000D03*
D20*
X165250000Y-64857500D03*
X165250000Y-67782500D03*
D13*
X138050000Y-59000000D03*
X139950000Y-59000000D03*
D18*
X142682500Y-72520000D03*
X140857500Y-72520000D03*
D13*
X139050000Y-65000000D03*
X140950000Y-65000000D03*
X149550000Y-65000000D03*
X151450000Y-65000000D03*
X146050000Y-65000000D03*
X147950000Y-65000000D03*
D21*
X134500000Y-58600000D03*
X134500000Y-61400000D03*
D10*
X141520000Y-76682500D03*
X141520000Y-74857500D03*
D22*
X138945500Y-67520000D03*
X140770500Y-67520000D03*
D13*
X156638000Y-65000000D03*
X158538000Y-65000000D03*
D10*
X128020000Y-60932500D03*
X128020000Y-59107500D03*
D18*
X144520500Y-67520000D03*
X142695500Y-67520000D03*
D13*
X155638000Y-59000000D03*
X157538000Y-59000000D03*
D18*
X142682500Y-70520000D03*
X140857500Y-70520000D03*
D13*
X142638000Y-65000000D03*
X144538000Y-65000000D03*
D23*
X146825000Y-75995000D03*
X148095000Y-75995000D03*
X149365000Y-75995000D03*
X150635000Y-75995000D03*
X151905000Y-75995000D03*
X153175000Y-75995000D03*
X154445000Y-75995000D03*
X155715000Y-75995000D03*
X155715000Y-71045000D03*
X154445000Y-71045000D03*
X153175000Y-71045000D03*
X151905000Y-71045000D03*
X150635000Y-71045000D03*
X149365000Y-71045000D03*
X148095000Y-71045000D03*
X146825000Y-71045000D03*
D24*
X128676000Y-63740000D03*
X128676000Y-68340000D03*
D25*
X134976000Y-66040000D03*
D24*
X128676000Y-66040000D03*
D16*
X160050000Y-62937500D03*
X161950000Y-62937500D03*
X161000000Y-61062500D03*
D26*
X157520000Y-76320000D03*
X157520000Y-74220000D03*
D27*
X163020000Y-65020000D03*
D28*
X139020000Y-70520000D03*
X137120000Y-70520000D03*
D13*
X159050000Y-59000000D03*
X160950000Y-59000000D03*
X141550000Y-59000000D03*
X143450000Y-59000000D03*
D16*
X146050000Y-62937500D03*
X147950000Y-62937500D03*
X147000000Y-61062500D03*
D13*
X143320000Y-76270000D03*
X145220000Y-76270000D03*
M02*
