<?xml version="1.0" encoding="UTF-8"?>
<svg xmlns="http://www.w3.org/2000/svg" width="34.855mm" height="34.763mm" viewBox="132.572250 -167.381302 34.855499 34.762604">
    <path transform="matrix(1,0,0,-1,150.42775,-150.618698)" style="stroke:#000000;stroke-width:0.05mm;fill:none" d="M-17.855499,-15L-17.854433,-15.081972L-17.851019,-15.16484L-17.845209,-15.248497L-17.836954,-15.332833L-17.826208,-15.41774L-17.812923,-15.503104L-17.79705,-15.58882L-17.77854,-15.674773L-17.757351,-15.760859L-17.733427,-15.846961L-17.706728,-15.932978L-17.677202,-16.018795L-17.6448,-16.1043L-17.609772,-16.189268L-17.571827,-16.273594L-17.531017,-16.357147L-17.487396,-16.439796L-17.441011,-16.521406L-17.391922,-16.601852L-17.340174,-16.681002L-17.285822,-16.75872L-17.228916,-16.834879L-17.16951,-16.909348L-17.107656,-16.981993L-17.043402,-17.052687L-16.976805,-17.121296L-16.908195,-17.187893L-16.837503,-17.25215L-16.764856,-17.314005L-16.690388,-17.373413L-16.614227,-17.430323L-16.536509,-17.48468L-16.457359,-17.536432L-16.376915,-17.585535L-16.2953,-17.631924L-16.212652,-17.67556L-16.129099,-17.716385L-16.044773,-17.754349L-15.959803,-17.7894L-15.874296,-17.821798L-15.788481,-17.851322L-15.702463,-17.878014L-15.61636,-17.901928L-15.530275,-17.923107L-15.444321,-17.941605L-15.358605,-17.957466L-15.273241,-17.970741L-15.188335,-17.981478L-15.103997,-17.989721L-15.02034,-17.995527L-14.937471,-17.998936L-14.8555,-18L14,-18L14.081971,-17.998936L14.164841,-17.995527L14.248496,-17.989721L14.332834,-17.981478L14.41774,-17.970741L14.503105,-17.957466L14.58882,-17.941605L14.674774,-17.923107L14.760859,-17.901928L14.846964,-17.878014L14.932981,-17.851322L15.018796,-17.821798L15.104302,-17.7894L15.189274,-17.754349L15.273598,-17.716385L15.357152,-17.67556L15.4398,-17.631924L15.521414,-17.585535L15.601859,-17.536432L15.681007,-17.48468L15.758726,-17.430323L15.834887,-17.373413L15.909355,-17.314005L15.982002,-17.25215L16.052694,-17.187893L16.121304,-17.121296L16.187902,-17.052687L16.252155,-16.981993L16.314011,-16.909348L16.373419,-16.834879L16.430326,-16.75872L16.484684,-16.681002L16.536438,-16.601852L16.585535,-16.521406L16.631929,-16.439796L16.675564,-16.357147L16.716389,-16.273594L16.754351,-16.189268L16.7894,-16.1043L16.8218,-16.018795L16.851322,-15.932978L16.878014,-15.846961L16.901928,-15.760859L16.923109,-15.674773L16.941607,-15.58882L16.957468,-15.503104L16.970741,-15.41774L16.981478,-15.332833L16.989723,-15.248497L16.995527,-15.16484L16.998938,-15.081972L17,-15L17,13.7626L16.998938,13.84457L16.995525,13.927437L16.989725,14.011097L16.981478,14.09543L16.970743,14.180337L16.957468,14.2657L16.941607,14.351415L16.923109,14.437368L16.90193,14.523453L16.878016,14.609557L16.851324,14.695572L16.821802,14.781388L16.789404,14.866894L16.754353,14.951864L16.716389,15.036192L16.675564,15.119747L16.631927,15.202397L16.585533,15.284011L16.536434,15.364458L16.484678,15.443608L16.430323,15.52133L16.373411,15.597488L16.314001,15.671959L16.252144,15.744606L16.187889,15.815303L16.121288,15.883911L16.052679,15.95051L15.981986,16.014761L15.909341,16.076616L15.834872,16.136021L15.758714,16.192928L15.680994,16.24728L15.601845,16.299026L15.521399,16.348118L15.439785,16.394499L15.35714,16.438122L15.273587,16.478931L15.18926,16.516876L15.104293,16.551903L15.018787,16.584326L14.932974,16.613865L14.846957,16.640572L14.760852,16.664495L14.674769,16.685686L14.588814,16.704191L14.503101,16.720058L14.417736,16.733335L14.33283,16.744074L14.248497,16.752323L14.164839,16.758125L14.08197,16.761536L14,16.7626L-14.8555,16.7626L-14.93747,16.761538L-15.020338,16.758125L-15.103999,16.752323L-15.188335,16.744076L-15.273239,16.733335L-15.358604,16.720058L-15.44432,16.704189L-15.530272,16.685684L-15.616358,16.664494L-15.702463,16.64057L-15.788477,16.613861L-15.874295,16.584322L-15.9598,16.551901L-16.044769,16.51687L-16.129097,16.478928L-16.21265,16.438118L-16.2953,16.394495L-16.376909,16.34811L-16.457355,16.299021L-16.536505,16.247272L-16.614223,16.192919L-16.690384,16.136013L-16.764853,16.076605L-16.8375,16.014751L-16.908194,15.950499L-16.976801,15.8839L-17.0434,15.815291L-17.107653,15.744598L-17.169504,15.671948L-17.228912,15.597482L-17.285818,15.521322L-17.340172,15.443604L-17.391918,15.364456L-17.44101,15.28401L-17.487392,15.202397L-17.531015,15.119749L-17.571825,15.036197L-17.60977,14.95187L-17.644798,14.8669L-17.6772,14.781395L-17.70673,14.69558L-17.733429,14.609563L-17.757347,14.523457L-17.778542,14.437374L-17.797049,14.351419L-17.812923,14.265703L-17.826208,14.18034L-17.836954,14.095433L-17.845209,14.011097L-17.851021,13.927439L-17.854433,13.84457L-17.855499,13.7626L-17.855499,-15z"/>
    <path transform="matrix(1,0,0,-1,150.42775,-150.618698)" style="stroke:#000000;stroke-width:0.05mm;fill:none" d="M-14.8555,-18L-14.8555,-18L-14.8555,-18L-14.855501,-18L-14.8555,-18L-14.855501,-18L-14.8555,-18L-14.8555,-18L-14.8555,-18z"/>
    <path transform="matrix(1,0,0,-1,150.42775,-150.618698)" style="stroke:#000000;stroke-width:0.05mm;fill:none" d="M14,-18L14,-18L14,-18L14,-18L14,-18L14,-18L14,-18L14,-18L14,-18z"/>
    <path transform="matrix(1,0,0,-1,150.42775,-150.618698)" style="stroke:#000000;stroke-width:0.05mm;fill:none" d="M-17.855499,-15L-17.854433,-15.081972L-17.851019,-15.16484L-17.845209,-15.248497L-17.836954,-15.332833L-17.826208,-15.41774L-17.812923,-15.503104L-17.79705,-15.58882L-17.77854,-15.674773L-17.757351,-15.760859L-17.733427,-15.846961L-17.706728,-15.932978L-17.677202,-16.018795L-17.6448,-16.1043L-17.609772,-16.189268L-17.571827,-16.273594L-17.531017,-16.357147L-17.487396,-16.439796L-17.441011,-16.521406L-17.391922,-16.601852L-17.340174,-16.681002L-17.285822,-16.75872L-17.228916,-16.834879L-17.16951,-16.909348L-17.107656,-16.981993L-17.043402,-17.052687L-16.976805,-17.121296L-16.908195,-17.187893L-16.837503,-17.25215L-16.764856,-17.314005L-16.690388,-17.373413L-16.614227,-17.430323L-16.536509,-17.48468L-16.457359,-17.536432L-16.376915,-17.585535L-16.2953,-17.631924L-16.212652,-17.67556L-16.129099,-17.716385L-16.044773,-17.754349L-15.959803,-17.7894L-15.874296,-17.821798L-15.788481,-17.851322L-15.702463,-17.878014L-15.61636,-17.901928L-15.530275,-17.923107L-15.444321,-17.941605L-15.358605,-17.957466L-15.273241,-17.970741L-15.188335,-17.981478L-15.103997,-17.989721L-15.02034,-17.995527L-14.937471,-17.998936L-14.8555,-18L14,-18L14.081971,-17.998936L14.164841,-17.995527L14.248496,-17.989721L14.332834,-17.981478L14.41774,-17.970741L14.503105,-17.957466L14.58882,-17.941605L14.674774,-17.923107L14.760859,-17.901928L14.846964,-17.878014L14.932981,-17.851322L15.018796,-17.821798L15.104302,-17.7894L15.189274,-17.754349L15.273598,-17.716385L15.357152,-17.67556L15.4398,-17.631924L15.521414,-17.585535L15.601859,-17.536432L15.681007,-17.48468L15.758726,-17.430323L15.834887,-17.373413L15.909355,-17.314005L15.982002,-17.25215L16.052694,-17.187893L16.121304,-17.121296L16.187902,-17.052687L16.252155,-16.981993L16.314011,-16.909348L16.373419,-16.834879L16.430326,-16.75872L16.484684,-16.681002L16.536438,-16.601852L16.585535,-16.521406L16.631929,-16.439796L16.675564,-16.357147L16.716389,-16.273594L16.754351,-16.189268L16.7894,-16.1043L16.8218,-16.018795L16.851322,-15.932978L16.878014,-15.846961L16.901928,-15.760859L16.923109,-15.674773L16.941607,-15.58882L16.957468,-15.503104L16.970741,-15.41774L16.981478,-15.332833L16.989723,-15.248497L16.995527,-15.16484L16.998938,-15.081972L17,-15L17,13.7626L16.998938,13.84457L16.995525,13.927437L16.989725,14.011097L16.981478,14.09543L16.970743,14.180337L16.957468,14.2657L16.941607,14.351415L16.923109,14.437368L16.90193,14.523453L16.878016,14.609557L16.851324,14.695572L16.821802,14.781388L16.789404,14.866894L16.754353,14.951864L16.716389,15.036192L16.675564,15.119747L16.631927,15.202397L16.585533,15.284011L16.536434,15.364458L16.484678,15.443608L16.430323,15.52133L16.373411,15.597488L16.314001,15.671959L16.252144,15.744606L16.187889,15.815303L16.121288,15.883911L16.052679,15.95051L15.981986,16.014761L15.909341,16.076616L15.834872,16.136021L15.758714,16.192928L15.680994,16.24728L15.601845,16.299026L15.521399,16.348118L15.439785,16.394499L15.35714,16.438122L15.273587,16.478931L15.18926,16.516876L15.104293,16.551903L15.018787,16.584326L14.932974,16.613865L14.846957,16.640572L14.760852,16.664495L14.674769,16.685686L14.588814,16.704191L14.503101,16.720058L14.417736,16.733335L14.33283,16.744074L14.248497,16.752323L14.164839,16.758125L14.08197,16.761536L14,16.7626L-14.8555,16.7626L-14.93747,16.761538L-15.020338,16.758125L-15.103999,16.752323L-15.188335,16.744076L-15.273239,16.733335L-15.358604,16.720058L-15.44432,16.704189L-15.530272,16.685684L-15.616358,16.664494L-15.702463,16.64057L-15.788477,16.613861L-15.874295,16.584322L-15.9598,16.551901L-16.044769,16.51687L-16.129097,16.478928L-16.21265,16.438118L-16.2953,16.394495L-16.376909,16.34811L-16.457355,16.299021L-16.536505,16.247272L-16.614223,16.192919L-16.690384,16.136013L-16.764853,16.076605L-16.8375,16.014751L-16.908194,15.950499L-16.976801,15.8839L-17.0434,15.815291L-17.107653,15.744598L-17.169504,15.671948L-17.228912,15.597482L-17.285818,15.521322L-17.340172,15.443604L-17.391918,15.364456L-17.44101,15.28401L-17.487392,15.202397L-17.531015,15.119749L-17.571825,15.036197L-17.60977,14.95187L-17.644798,14.8669L-17.6772,14.781395L-17.70673,14.69558L-17.733429,14.609563L-17.757347,14.523457L-17.778542,14.437374L-17.797049,14.351419L-17.812923,14.265703L-17.826208,14.18034L-17.836954,14.095433L-17.845209,14.011097L-17.851021,13.927439L-17.854433,13.84457L-17.855499,13.7626L-17.855499,-15z"/>
    <path transform="matrix(1,0,0,-1,150.42775,-150.618698)" style="stroke:#000000;stroke-width:0.05mm;fill:none" d="M-17.855499,-15L-17.854433,-15.081972L-17.851019,-15.16484L-17.845209,-15.248497L-17.836954,-15.332833L-17.826208,-15.41774L-17.812923,-15.503104L-17.79705,-15.58882L-17.77854,-15.674773L-17.757351,-15.760859L-17.733427,-15.846961L-17.706728,-15.932978L-17.677202,-16.018795L-17.6448,-16.1043L-17.609772,-16.189268L-17.571827,-16.273594L-17.531017,-16.357147L-17.487396,-16.439796L-17.441011,-16.521406L-17.391922,-16.601852L-17.340174,-16.681002L-17.285822,-16.75872L-17.228916,-16.834879L-17.16951,-16.909348L-17.107656,-16.981993L-17.043402,-17.052687L-16.976805,-17.121296L-16.908195,-17.187893L-16.837503,-17.25215L-16.764856,-17.314005L-16.690388,-17.373413L-16.614227,-17.430323L-16.536509,-17.48468L-16.457359,-17.536432L-16.376915,-17.585535L-16.2953,-17.631924L-16.212652,-17.67556L-16.129099,-17.716385L-16.044773,-17.754349L-15.959803,-17.7894L-15.874296,-17.821798L-15.788481,-17.851322L-15.702463,-17.878014L-15.61636,-17.901928L-15.530275,-17.923107L-15.444321,-17.941605L-15.358605,-17.957466L-15.273241,-17.970741L-15.188335,-17.981478L-15.103997,-17.989721L-15.02034,-17.995527L-14.937471,-17.998936L-14.8555,-18L14,-18L14.081971,-17.998936L14.164841,-17.995527L14.248496,-17.989721L14.332834,-17.981478L14.41774,-17.970741L14.503105,-17.957466L14.58882,-17.941605L14.674774,-17.923107L14.760859,-17.901928L14.846964,-17.878014L14.932981,-17.851322L15.018796,-17.821798L15.104302,-17.7894L15.189274,-17.754349L15.273598,-17.716385L15.357152,-17.67556L15.4398,-17.631924L15.521414,-17.585535L15.601859,-17.536432L15.681007,-17.48468L15.758726,-17.430323L15.834887,-17.373413L15.909355,-17.314005L15.982002,-17.25215L16.052694,-17.187893L16.121304,-17.121296L16.187902,-17.052687L16.252155,-16.981993L16.314011,-16.909348L16.373419,-16.834879L16.430326,-16.75872L16.484684,-16.681002L16.536438,-16.601852L16.585535,-16.521406L16.631929,-16.439796L16.675564,-16.357147L16.716389,-16.273594L16.754351,-16.189268L16.7894,-16.1043L16.8218,-16.018795L16.851322,-15.932978L16.878014,-15.846961L16.901928,-15.760859L16.923109,-15.674773L16.941607,-15.58882L16.957468,-15.503104L16.970741,-15.41774L16.981478,-15.332833L16.989723,-15.248497L16.995527,-15.16484L16.998938,-15.081972L17,-15L17,13.7626L16.998938,13.84457L16.995525,13.927437L16.989725,14.011097L16.981478,14.09543L16.970743,14.180337L16.957468,14.2657L16.941607,14.351415L16.923109,14.437368L16.90193,14.523453L16.878016,14.609557L16.851324,14.695572L16.821802,14.781388L16.789404,14.866894L16.754353,14.951864L16.716389,15.036192L16.675564,15.119747L16.631927,15.202397L16.585533,15.284011L16.536434,15.364458L16.484678,15.443608L16.430323,15.52133L16.373411,15.597488L16.314001,15.671959L16.252144,15.744606L16.187889,15.815303L16.121288,15.883911L16.052679,15.95051L15.981986,16.014761L15.909341,16.076616L15.834872,16.136021L15.758714,16.192928L15.680994,16.24728L15.601845,16.299026L15.521399,16.348118L15.439785,16.394499L15.35714,16.438122L15.273587,16.478931L15.18926,16.516876L15.104293,16.551903L15.018787,16.584326L14.932974,16.613865L14.846957,16.640572L14.760852,16.664495L14.674769,16.685686L14.588814,16.704191L14.503101,16.720058L14.417736,16.733335L14.33283,16.744074L14.248497,16.752323L14.164839,16.758125L14.08197,16.761536L14,16.7626L-14.8555,16.7626L-14.93747,16.761538L-15.020338,16.758125L-15.103999,16.752323L-15.188335,16.744076L-15.273239,16.733335L-15.358604,16.720058L-15.44432,16.704189L-15.530272,16.685684L-15.616358,16.664494L-15.702463,16.64057L-15.788477,16.613861L-15.874295,16.584322L-15.9598,16.551901L-16.044769,16.51687L-16.129097,16.478928L-16.21265,16.438118L-16.2953,16.394495L-16.376909,16.34811L-16.457355,16.299021L-16.536505,16.247272L-16.614223,16.192919L-16.690384,16.136013L-16.764853,16.076605L-16.8375,16.014751L-16.908194,15.950499L-16.976801,15.8839L-17.0434,15.815291L-17.107653,15.744598L-17.169504,15.671948L-17.228912,15.597482L-17.285818,15.521322L-17.340172,15.443604L-17.391918,15.364456L-17.44101,15.28401L-17.487392,15.202397L-17.531015,15.119749L-17.571825,15.036197L-17.60977,14.95187L-17.644798,14.8669L-17.6772,14.781395L-17.70673,14.69558L-17.733429,14.609563L-17.757347,14.523457L-17.778542,14.437374L-17.797049,14.351419L-17.812923,14.265703L-17.826208,14.18034L-17.836954,14.095433L-17.845209,14.011097L-17.851021,13.927439L-17.854433,13.84457L-17.855499,13.7626L-17.855499,-15z"/>
    <path transform="matrix(1,0,0,-1,150.42775,-150.618698)" style="stroke:#000000;stroke-width:0.05mm;fill:none" d="M-17.855499,13.7626L-17.854433,13.84457L-17.851021,13.927439L-17.845209,14.011097L-17.836954,14.095433L-17.826208,14.18034L-17.812923,14.265703L-17.797049,14.351419L-17.778542,14.437374L-17.757347,14.523457L-17.733429,14.609563L-17.70673,14.69558L-17.6772,14.781395L-17.644798,14.8669L-17.60977,14.95187L-17.571825,15.036197L-17.531015,15.119749L-17.487392,15.202397L-17.44101,15.28401L-17.391918,15.364456L-17.340172,15.443604L-17.285818,15.521322L-17.228912,15.597482L-17.169504,15.671948L-17.107653,15.744598L-17.0434,15.815291L-16.976801,15.8839L-16.908194,15.950499L-16.8375,16.014751L-16.764853,16.076605L-16.690384,16.136013L-16.614223,16.192919L-16.536505,16.247272L-16.457355,16.299021L-16.376909,16.34811L-16.2953,16.394495L-16.21265,16.438118L-16.129097,16.478928L-16.044769,16.51687L-15.9598,16.551901L-15.874295,16.584322L-15.788477,16.613861L-15.702463,16.64057L-15.616358,16.664494L-15.530272,16.685684L-15.44432,16.704189L-15.358604,16.720058L-15.273239,16.733335L-15.188335,16.744076L-15.103999,16.752323L-15.020338,16.758125L-14.93747,16.761538L-14.8555,16.7626L14,16.7626L14.08197,16.761536L14.164839,16.758125L14.248497,16.752323L14.33283,16.744074L14.417736,16.733335L14.503101,16.720058L14.588814,16.704191L14.674769,16.685686L14.760852,16.664495L14.846957,16.640572L14.932974,16.613865L15.018787,16.584326L15.104293,16.551903L15.18926,16.516876L15.273587,16.478931L15.35714,16.438122L15.439785,16.394499L15.521399,16.348118L15.601845,16.299026L15.680994,16.24728L15.758714,16.192928L15.834872,16.136021L15.909341,16.076616L15.981986,16.014761L16.052679,15.95051L16.121288,15.883911L16.187889,15.815303L16.252144,15.744606L16.314001,15.671959L16.373411,15.597488L16.430323,15.52133L16.484678,15.443608L16.536434,15.364458L16.585533,15.284011L16.631927,15.202397L16.675564,15.119747L16.716389,15.036192L16.754353,14.951864L16.789404,14.866894L16.821802,14.781388L16.851324,14.695572L16.878016,14.609557L16.90193,14.523453L16.923109,14.437368L16.941607,14.351415L16.957468,14.2657L16.970743,14.180337L16.981478,14.09543L16.989725,14.011097L16.995525,13.927437L16.998938,13.84457L17,13.7626L17,-15L16.998938,-15.081972L16.995527,-15.16484L16.989723,-15.248497L16.981478,-15.332833L16.970741,-15.41774L16.957468,-15.503104L16.941607,-15.58882L16.923109,-15.674773L16.901928,-15.760859L16.878014,-15.846961L16.851322,-15.932978L16.8218,-16.018795L16.7894,-16.1043L16.754351,-16.189268L16.716389,-16.273594L16.675564,-16.357147L16.631929,-16.439796L16.585535,-16.521406L16.536438,-16.601852L16.484684,-16.681002L16.430326,-16.75872L16.373419,-16.834879L16.314011,-16.909348L16.252155,-16.981993L16.187902,-17.052687L16.121304,-17.121296L16.052694,-17.187893L15.982002,-17.25215L15.909355,-17.314005L15.834887,-17.373413L15.758726,-17.430323L15.681007,-17.48468L15.601859,-17.536432L15.521414,-17.585535L15.4398,-17.631924L15.357152,-17.67556L15.273598,-17.716385L15.189274,-17.754349L15.104302,-17.7894L15.018796,-17.821798L14.932981,-17.851322L14.846964,-17.878014L14.760859,-17.901928L14.674774,-17.923107L14.58882,-17.941605L14.503105,-17.957466L14.41774,-17.970741L14.332834,-17.981478L14.248496,-17.989721L14.164841,-17.995527L14.081971,-17.998936L14,-18L-14.8555,-18L-14.937471,-17.998936L-15.02034,-17.995527L-15.103997,-17.989721L-15.188335,-17.981478L-15.273241,-17.970741L-15.358605,-17.957466L-15.444321,-17.941605L-15.530275,-17.923107L-15.61636,-17.901928L-15.702463,-17.878014L-15.788481,-17.851322L-15.874296,-17.821798L-15.959803,-17.7894L-16.044773,-17.754349L-16.129099,-17.716385L-16.212652,-17.67556L-16.2953,-17.631924L-16.376915,-17.585535L-16.457359,-17.536432L-16.536509,-17.48468L-16.614227,-17.430323L-16.690388,-17.373413L-16.764856,-17.314005L-16.837503,-17.25215L-16.908195,-17.187893L-16.976805,-17.121296L-17.043402,-17.052687L-17.107656,-16.981993L-17.16951,-16.909348L-17.228916,-16.834879L-17.285822,-16.75872L-17.340174,-16.681002L-17.391922,-16.601852L-17.441011,-16.521406L-17.487396,-16.439796L-17.531017,-16.357147L-17.571827,-16.273594L-17.609772,-16.189268L-17.6448,-16.1043L-17.677202,-16.018795L-17.706728,-15.932978L-17.733427,-15.846961L-17.757351,-15.760859L-17.77854,-15.674773L-17.79705,-15.58882L-17.812923,-15.503104L-17.826208,-15.41774L-17.836954,-15.332833L-17.845209,-15.248497L-17.851019,-15.16484L-17.854433,-15.081972L-17.855499,-15L-17.855499,13.7626z"/>
    <path transform="matrix(1,0,0,-1,150.42775,-150.618698)" style="stroke:#000000;stroke-width:0.05mm;fill:none" d="M-0.420085,-11.3082L-0.421048,-11.366534L-0.424233,-11.426094L-0.429738,-11.486724L-0.437657,-11.54828L-0.448086,-11.610611L-0.461121,-11.673569L-0.476858,-11.737002L-0.495391,-11.800765L-0.516817,-11.864703L-0.541231,-11.928671L-0.568729,-11.992517L-0.599407,-12.056093L-0.633038,-12.119113L-0.669873,-12.18126L-0.709983,-12.242351L-0.75326,-12.302174L-0.799593,-12.36052L-0.848872,-12.417181L-0.900988,-12.471943L-0.955831,-12.524601L-1.01329,-12.57494L-1.073256,-12.622751L-1.13562,-12.667828L-1.200271,-12.709955L-1.266979,-12.749094L-1.33527,-12.785174L-1.405048,-12.817794L-1.476077,-12.846968L-1.54812,-12.872704L-1.62094,-12.895009L-1.694299,-12.913899L-1.767961,-12.929379L-1.841689,-12.94146L-1.915245,-12.950153L-1.988393,-12.955467L-2.060895,-12.957412L-2.132516,-12.956001L-2.203343,-12.951777L-2.272841,-12.944616L-2.340929,-12.934672L-2.407524,-12.922105L-2.472548,-12.907069L-2.535916,-12.889719L-2.597549,-12.870216L-2.657366,-12.848717L-2.715284,-12.825376L-2.771224,-12.800354L-2.825103,-12.773805L-2.87684,-12.745888L-2.926957,-12.716575L-2.976986,-12.68487L-3.026843,-12.650629L-3.07635,-12.61384L-3.125331,-12.574492L-3.173608,-12.532582L-3.221005,-12.488095L-3.267345,-12.441031L-3.312451,-12.391373L-3.356147,-12.339117L-3.398255,-12.284252L-3.438598,-12.226771L-3.477035,-12.166835L-3.513256,-12.104678L-3.546968,-12.040146L-3.578045,-11.973437L-3.606357,-11.904754L-3.631779,-11.834293L-3.654183,-11.762259L-3.673442,-11.68885L-3.689429,-11.614267L-3.702016,-11.538709L-3.711077,-11.462377L-3.716484,-11.385471L-3.71811,-11.308192L-3.716483,-11.230909L-3.711075,-11.154006L-3.702014,-11.077674L-3.689426,-11.002117L-3.673438,-10.927532L-3.654178,-10.854124L-3.631773,-10.78209L-3.606351,-10.711632L-3.578038,-10.642947L-3.546961,-10.57624L-3.513248,-10.511707L-3.477026,-10.449551L-3.43859,-10.389617L-3.398247,-10.332137L-3.356139,-10.27727L-3.312444,-10.225014L-3.267339,-10.175356L-3.220999,-10.128289L-3.173603,-10.083805L-3.125326,-10.041897L-3.076347,-10.002554L-3.02684,-9.965769L-2.976985,-9.931534L-2.926957,-9.899839L-2.87684,-9.870536L-2.825103,-9.842618L-2.771224,-9.81607L-2.715284,-9.791045L-2.657365,-9.767703L-2.597549,-9.746202L-2.535916,-9.726695L-2.472547,-9.709346L-2.407525,-9.694306L-2.340929,-9.681736L-2.272842,-9.671791L-2.203344,-9.66463L-2.132516,-9.660409L-2.060895,-9.659L-1.988392,-9.660951L-1.915245,-9.666267L-1.841689,-9.674962L-1.767962,-9.687045L-1.694299,-9.702525L-1.62094,-9.721414L-1.548121,-9.74372L-1.476078,-9.769454L-1.405048,-9.798627L-1.33527,-9.831246L-1.26698,-9.867325L-1.200271,-9.906464L-1.13562,-9.948591L-1.073256,-9.99367L-1.01329,-10.041487L-0.95583,-10.091832L-0.900988,-10.144495L-0.848872,-10.199264L-0.799592,-10.255926L-0.753259,-10.314273L-0.709983,-10.374092L-0.669872,-10.435171L-0.633038,-10.497302L-0.599407,-10.560307L-0.568729,-10.623882L-0.541231,-10.687729L-0.516817,-10.751697L-0.495391,-10.815636L-0.476858,-10.879396L-0.461121,-10.94283L-0.448086,-11.00579L-0.437657,-11.06812L-0.429738,-11.129677L-0.424233,-11.190309L-0.421048,-11.249865L-0.420085,-11.3082z"/>
    <path transform="matrix(1,0,0,-1,150.42775,-150.618698)" style="stroke:#000000;stroke-width:0.05mm;fill:none" d="M5.0026,12.9152L5.00179,12.86619L4.999112,12.816151L4.994486,12.765203L4.987831,12.713483L4.979066,12.661107L4.968112,12.60821L4.954889,12.554911L4.939316,12.501339L4.921311,12.447617L4.900796,12.393875L4.877689,12.340239L4.851911,12.286829L4.823649,12.233873L4.792698,12.181643L4.758994,12.130305L4.722628,12.08003L4.683695,12.030998L4.642286,11.983385L4.598494,11.937364L4.55241,11.893113L4.504128,11.850811L4.453739,11.81063L4.401336,11.77275L4.347011,11.737345L4.290956,11.704451L4.233572,11.674135L4.174937,11.646726L4.115252,11.622211L4.054714,11.600585L3.993523,11.58184L3.93188,11.565968L3.869982,11.552958L3.80803,11.542807L3.746221,11.535502L3.684756,11.531038L3.623834,11.529407L3.563653,11.5306L3.504137,11.534142L3.445739,11.540154L3.388525,11.548505L3.332565,11.559067L3.277926,11.571701L3.224677,11.586277L3.172887,11.602666L3.122622,11.620731L3.073953,11.640346L3.026946,11.661374L2.981671,11.683684L2.938194,11.707145L2.896081,11.731773L2.854042,11.758408L2.812149,11.787178L2.77055,11.818091L2.729393,11.851151L2.688826,11.886369L2.648999,11.923751L2.610061,11.963303L2.572159,12.005033L2.535442,12.048951L2.50006,12.095062L2.466159,12.143373L2.43386,12.193736L2.403425,12.245949L2.375098,12.300163L2.348985,12.356209L2.325195,12.413917L2.303833,12.473116L2.285007,12.533642L2.268824,12.595327L2.25539,12.658002L2.244813,12.721493L2.237199,12.785637L2.232656,12.850266L2.23129,12.915209L2.232657,12.980148L2.237201,13.044777L2.244815,13.108924L2.255393,13.17242L2.268827,13.235095L2.285011,13.296782L2.303837,13.357316L2.3252,13.416527L2.348991,13.474245L2.375104,13.530302L2.403432,13.584533L2.433868,13.636766L2.466166,13.687124L2.500067,13.735417L2.535449,13.781515L2.572165,13.825426L2.610066,13.867154L2.649005,13.906704L2.688831,13.944084L2.729396,13.979301L2.770552,14.012359L2.812151,14.043264L2.854044,14.072023L2.896081,14.098641L2.938194,14.123255L2.98167,14.146717L3.026946,14.169028L3.073953,14.190058L3.122623,14.209673L3.172887,14.227742L3.224677,14.244135L3.277926,14.258722L3.332564,14.271365L3.388524,14.281937L3.445738,14.290305L3.504137,14.296335L3.563653,14.299899L3.623834,14.301071L3.684757,14.299421L3.746222,14.294943L3.808029,14.287626L3.869982,14.277464L3.93188,14.264449L3.993523,14.248569L4.054713,14.22982L4.115251,14.208193L4.174938,14.183678L4.233572,14.156265L4.290956,14.12595L4.347011,14.093071L4.401336,14.057683L4.453739,14.019811L4.504128,13.979636L4.55241,13.937335L4.598494,13.893086L4.642286,13.847066L4.683696,13.799452L4.722629,13.750422L4.758994,13.700155L4.792699,13.648825L4.823651,13.596613L4.851911,13.543662L4.877689,13.490237L4.900796,13.436588L4.921311,13.382837L4.939315,13.329114L4.954889,13.275541L4.968112,13.22224L4.979066,13.16934L4.987831,13.116966L4.994486,13.06524L4.999112,13.014286L5.00179,12.964231L5.0026,12.9152z"/>
    <path transform="matrix(1,0,0,-1,150.42775,-150.618698)" style="stroke:#000000;stroke-width:0.05mm;fill:none" d="M-14.8555,-18L-14.8555,-18L-14.8555,-18L-14.855501,-18L-14.8555,-18L-14.855501,-18L-14.8555,-18L-14.8555,-18L-14.8555,-18z"/>
    <path transform="matrix(1,0,0,-1,150.42775,-150.618698)" style="stroke:#000000;stroke-width:0.05mm;fill:none" d="M-17.855499,-15L-17.855499,-15L-17.855499,-15L-17.855499,-15L-17.855499,-15L-17.855499,-15L-17.855499,-15L-17.855499,-15L-17.855499,-15z"/>
    <path transform="matrix(1,0,0,-1,150.42775,-150.618698)" style="stroke:#000000;stroke-width:0.05mm;fill:none" d="M14,-18L14,-18L14,-18L14,-18L14,-18L14,-18L14,-18L14,-18L14,-18z"/>
    <path transform="matrix(1,0,0,-1,150.42775,-150.618698)" style="stroke:#000000;stroke-width:0.05mm;fill:none" d="M17,-15L17,-15L17,-15L17,-15L17,-15L17,-15L17,-15L17,-15L17,-15z"/>
    <path transform="matrix(1,0,0,-1,150.42775,-150.618698)" style="stroke:#000000;stroke-width:0.05mm;fill:none" d="M-0.420085,-11.3082L-0.421048,-11.366534L-0.424233,-11.426094L-0.429738,-11.486724L-0.437657,-11.54828L-0.448086,-11.610611L-0.461121,-11.673569L-0.476858,-11.737002L-0.495391,-11.800765L-0.516817,-11.864703L-0.541231,-11.928671L-0.568729,-11.992517L-0.599407,-12.056093L-0.633038,-12.119113L-0.669873,-12.18126L-0.709983,-12.242351L-0.75326,-12.302174L-0.799593,-12.36052L-0.848872,-12.417181L-0.900988,-12.471943L-0.955831,-12.524601L-1.01329,-12.57494L-1.073256,-12.622751L-1.13562,-12.667828L-1.200271,-12.709955L-1.266979,-12.749094L-1.33527,-12.785174L-1.405048,-12.817794L-1.476077,-12.846968L-1.54812,-12.872704L-1.62094,-12.895009L-1.694299,-12.913899L-1.767961,-12.929379L-1.841689,-12.94146L-1.915245,-12.950153L-1.988393,-12.955467L-2.060895,-12.957412L-2.132516,-12.956001L-2.203343,-12.951777L-2.272841,-12.944616L-2.340929,-12.934672L-2.407524,-12.922105L-2.472548,-12.907069L-2.535916,-12.889719L-2.597549,-12.870216L-2.657366,-12.848717L-2.715284,-12.825376L-2.771224,-12.800354L-2.825103,-12.773805L-2.87684,-12.745888L-2.926957,-12.716575L-2.976986,-12.68487L-3.026843,-12.650629L-3.07635,-12.61384L-3.125331,-12.574492L-3.173608,-12.532582L-3.221005,-12.488095L-3.267345,-12.441031L-3.312451,-12.391373L-3.356147,-12.339117L-3.398255,-12.284252L-3.438598,-12.226771L-3.477035,-12.166835L-3.513256,-12.104678L-3.546968,-12.040146L-3.578045,-11.973437L-3.606357,-11.904754L-3.631779,-11.834293L-3.654183,-11.762259L-3.673442,-11.68885L-3.689429,-11.614267L-3.702016,-11.538709L-3.711077,-11.462377L-3.716484,-11.385471L-3.71811,-11.308192L-3.716483,-11.230909L-3.711075,-11.154006L-3.702014,-11.077674L-3.689426,-11.002117L-3.673438,-10.927532L-3.654178,-10.854124L-3.631773,-10.78209L-3.606351,-10.711632L-3.578038,-10.642947L-3.546961,-10.57624L-3.513248,-10.511707L-3.477026,-10.449551L-3.43859,-10.389617L-3.398247,-10.332137L-3.356139,-10.27727L-3.312444,-10.225014L-3.267339,-10.175356L-3.220999,-10.128289L-3.173603,-10.083805L-3.125326,-10.041897L-3.076347,-10.002554L-3.02684,-9.965769L-2.976985,-9.931534L-2.926957,-9.899839L-2.87684,-9.870536L-2.825103,-9.842618L-2.771224,-9.81607L-2.715284,-9.791045L-2.657365,-9.767703L-2.597549,-9.746202L-2.535916,-9.726695L-2.472547,-9.709346L-2.407525,-9.694306L-2.340929,-9.681736L-2.272842,-9.671791L-2.203344,-9.66463L-2.132516,-9.660409L-2.060895,-9.659L-1.988392,-9.660951L-1.915245,-9.666267L-1.841689,-9.674962L-1.767962,-9.687045L-1.694299,-9.702525L-1.62094,-9.721414L-1.548121,-9.74372L-1.476078,-9.769454L-1.405048,-9.798627L-1.33527,-9.831246L-1.26698,-9.867325L-1.200271,-9.906464L-1.13562,-9.948591L-1.073256,-9.99367L-1.01329,-10.041487L-0.95583,-10.091832L-0.900988,-10.144495L-0.848872,-10.199264L-0.799592,-10.255926L-0.753259,-10.314273L-0.709983,-10.374092L-0.669872,-10.435171L-0.633038,-10.497302L-0.599407,-10.560307L-0.568729,-10.623882L-0.541231,-10.687729L-0.516817,-10.751697L-0.495391,-10.815636L-0.476858,-10.879396L-0.461121,-10.94283L-0.448086,-11.00579L-0.437657,-11.06812L-0.429738,-11.129677L-0.424233,-11.190309L-0.421048,-11.249865L-0.420085,-11.3082z"/>
    <path transform="matrix(1,0,0,-1,150.42775,-150.618698)" style="stroke:#000000;stroke-width:0.05mm;fill:none" d="M5.0026,12.9152L5.00179,12.86619L4.999112,12.816151L4.994486,12.765203L4.987831,12.713483L4.979066,12.661107L4.968112,12.60821L4.954889,12.554911L4.939316,12.501339L4.921311,12.447617L4.900796,12.393875L4.877689,12.340239L4.851911,12.286829L4.823649,12.233873L4.792698,12.181643L4.758994,12.130305L4.722628,12.08003L4.683695,12.030998L4.642286,11.983385L4.598494,11.937364L4.55241,11.893113L4.504128,11.850811L4.453739,11.81063L4.401336,11.77275L4.347011,11.737345L4.290956,11.704451L4.233572,11.674135L4.174937,11.646726L4.115252,11.622211L4.054714,11.600585L3.993523,11.58184L3.93188,11.565968L3.869982,11.552958L3.80803,11.542807L3.746221,11.535502L3.684756,11.531038L3.623834,11.529407L3.563653,11.5306L3.504137,11.534142L3.445739,11.540154L3.388525,11.548505L3.332565,11.559067L3.277926,11.571701L3.224677,11.586277L3.172887,11.602666L3.122622,11.620731L3.073953,11.640346L3.026946,11.661374L2.981671,11.683684L2.938194,11.707145L2.896081,11.731773L2.854042,11.758408L2.812149,11.787178L2.77055,11.818091L2.729393,11.851151L2.688826,11.886369L2.648999,11.923751L2.610061,11.963303L2.572159,12.005033L2.535442,12.048951L2.50006,12.095062L2.466159,12.143373L2.43386,12.193736L2.403425,12.245949L2.375098,12.300163L2.348985,12.356209L2.325195,12.413917L2.303833,12.473116L2.285007,12.533642L2.268824,12.595327L2.25539,12.658002L2.244813,12.721493L2.237199,12.785637L2.232656,12.850266L2.23129,12.915209L2.232657,12.980148L2.237201,13.044777L2.244815,13.108924L2.255393,13.17242L2.268827,13.235095L2.285011,13.296782L2.303837,13.357316L2.3252,13.416527L2.348991,13.474245L2.375104,13.530302L2.403432,13.584533L2.433868,13.636766L2.466166,13.687124L2.500067,13.735417L2.535449,13.781515L2.572165,13.825426L2.610066,13.867154L2.649005,13.906704L2.688831,13.944084L2.729396,13.979301L2.770552,14.012359L2.812151,14.043264L2.854044,14.072023L2.896081,14.098641L2.938194,14.123255L2.98167,14.146717L3.026946,14.169028L3.073953,14.190058L3.122623,14.209673L3.172887,14.227742L3.224677,14.244135L3.277926,14.258722L3.332564,14.271365L3.388524,14.281937L3.445738,14.290305L3.504137,14.296335L3.563653,14.299899L3.623834,14.301071L3.684757,14.299421L3.746222,14.294943L3.808029,14.287626L3.869982,14.277464L3.93188,14.264449L3.993523,14.248569L4.054713,14.22982L4.115251,14.208193L4.174938,14.183678L4.233572,14.156265L4.290956,14.12595L4.347011,14.093071L4.401336,14.057683L4.453739,14.019811L4.504128,13.979636L4.55241,13.937335L4.598494,13.893086L4.642286,13.847066L4.683696,13.799452L4.722629,13.750422L4.758994,13.700155L4.792699,13.648825L4.823651,13.596613L4.851911,13.543662L4.877689,13.490237L4.900796,13.436588L4.921311,13.382837L4.939315,13.329114L4.954889,13.275541L4.968112,13.22224L4.979066,13.16934L4.987831,13.116966L4.994486,13.06524L4.999112,13.014286L5.00179,12.964231L5.0026,12.9152z"/>
    <path transform="matrix(1,0,0,-1,150.42775,-150.618698)" style="stroke:#000000;stroke-width:0.05mm;fill:none" d="M-17.855499,13.7626L-17.855499,13.7626L-17.855499,13.7626L-17.855499,13.7626L-17.855499,13.7626L-17.855499,13.7626L-17.855499,13.7626L-17.855499,13.7626L-17.855499,13.7626z"/>
    <path transform="matrix(1,0,0,-1,150.42775,-150.618698)" style="stroke:#000000;stroke-width:0.05mm;fill:none" d="M-17.855499,-15L-17.855499,-15L-17.855499,-15L-17.855499,-15L-17.855499,-15L-17.855499,-15L-17.855499,-15L-17.855499,-15L-17.855499,-15z"/>
    <path transform="matrix(1,0,0,-1,150.42775,-150.618698)" style="stroke:#000000;stroke-width:0.05mm;fill:none" d="M17,-15L17,-15L17,-15L17,-15L17,-15L17,-15L17,-15L17,-15L17,-15z"/>
    <path transform="matrix(1,0,0,-1,150.42775,-150.618698)" style="stroke:#000000;stroke-width:0.05mm;fill:none" d="M17,13.7626L17,13.7626L17,13.7626L17,13.7626L17,13.7626L17,13.7626L17,13.7626L17,13.7626L17,13.7626z"/>
    <path transform="matrix(1,0,0,-1,150.42775,-150.618698)" style="stroke:#000000;stroke-width:0.05mm;fill:none" d="M-14.8555,16.7626L-14.8555,16.7626L-14.8555,16.7626L-14.855501,16.7626L-14.8555,16.7626L-14.855501,16.7626L-14.8555,16.7626L-14.8555,16.7626L-14.8555,16.7626z"/>
    <path transform="matrix(1,0,0,-1,150.42775,-150.618698)" style="stroke:#000000;stroke-width:0.05mm;fill:none" d="M-17.855499,13.7626L-17.855499,13.7626L-17.855499,13.7626L-17.855499,13.7626L-17.855499,13.7626L-17.855499,13.7626L-17.855499,13.7626L-17.855499,13.7626L-17.855499,13.7626z"/>
    <path transform="matrix(1,0,0,-1,150.42775,-150.618698)" style="stroke:#000000;stroke-width:0.05mm;fill:none" d="M17,13.7626L17,13.7626L17,13.7626L17,13.7626L17,13.7626L17,13.7626L17,13.7626L17,13.7626L17,13.7626z"/>
    <path transform="matrix(1,0,0,-1,150.42775,-150.618698)" style="stroke:#000000;stroke-width:0.05mm;fill:none" d="M14,16.7626L14,16.7626L14,16.7626L14,16.7626L14,16.7626L14,16.7626L14,16.7626L14,16.7626L14,16.7626z"/>
    <path transform="matrix(1,0,0,-1,150.42775,-150.618698)" style="stroke:#000000;stroke-width:0.05mm;fill:none" d="M14,16.7626L14,16.7626L14,16.7626L14,16.7626L14,16.7626L14,16.7626L14,16.7626L14,16.7626L14,16.7626z"/>
    <path transform="matrix(1,0,0,-1,150.42775,-150.618698)" style="stroke:#000000;stroke-width:0.05mm;fill:none" d="M-14.8555,16.7626L-14.8555,16.7626L-14.8555,16.7626L-14.855501,16.7626L-14.8555,16.7626L-14.855501,16.7626L-14.8555,16.7626L-14.8555,16.7626L-14.8555,16.7626z"/>
    <path transform="matrix(1,0,0,-1,150.42775,-150.618698)" style="stroke:#000000;stroke-width:0.05mm;fill:none" d="M-0.420085,-11.3082L-0.421048,-11.366534L-0.424233,-11.426094L-0.429738,-11.486724L-0.437657,-11.54828L-0.448086,-11.610611L-0.461121,-11.673569L-0.476858,-11.737002L-0.495391,-11.800765L-0.516817,-11.864703L-0.541231,-11.928671L-0.568729,-11.992517L-0.599407,-12.056093L-0.633038,-12.119113L-0.669873,-12.18126L-0.709983,-12.242351L-0.75326,-12.302174L-0.799593,-12.36052L-0.848872,-12.417181L-0.900988,-12.471943L-0.955831,-12.524601L-1.01329,-12.57494L-1.073256,-12.622751L-1.13562,-12.667828L-1.200271,-12.709955L-1.266979,-12.749094L-1.33527,-12.785174L-1.405048,-12.817794L-1.476077,-12.846968L-1.54812,-12.872704L-1.62094,-12.895009L-1.694299,-12.913899L-1.767961,-12.929379L-1.841689,-12.94146L-1.915245,-12.950153L-1.988393,-12.955467L-2.060895,-12.957412L-2.132516,-12.956001L-2.203343,-12.951777L-2.272841,-12.944616L-2.340929,-12.934672L-2.407524,-12.922105L-2.472548,-12.907069L-2.535916,-12.889719L-2.597549,-12.870216L-2.657366,-12.848717L-2.715284,-12.825376L-2.771224,-12.800354L-2.825103,-12.773805L-2.87684,-12.745888L-2.926957,-12.716575L-2.976986,-12.68487L-3.026843,-12.650629L-3.07635,-12.61384L-3.125331,-12.574492L-3.173608,-12.532582L-3.221005,-12.488095L-3.267345,-12.441031L-3.312451,-12.391373L-3.356147,-12.339117L-3.398255,-12.284252L-3.438598,-12.226771L-3.477035,-12.166835L-3.513256,-12.104678L-3.546968,-12.040146L-3.578045,-11.973437L-3.606357,-11.904754L-3.631779,-11.834293L-3.654183,-11.762259L-3.673442,-11.68885L-3.689429,-11.614267L-3.702016,-11.538709L-3.711077,-11.462377L-3.716484,-11.385471L-3.71811,-11.308192L-3.716483,-11.230909L-3.711075,-11.154006L-3.702014,-11.077674L-3.689426,-11.002117L-3.673438,-10.927532L-3.654178,-10.854124L-3.631773,-10.78209L-3.606351,-10.711632L-3.578038,-10.642947L-3.546961,-10.57624L-3.513248,-10.511707L-3.477026,-10.449551L-3.43859,-10.389617L-3.398247,-10.332137L-3.356139,-10.27727L-3.312444,-10.225014L-3.267339,-10.175356L-3.220999,-10.128289L-3.173603,-10.083805L-3.125326,-10.041897L-3.076347,-10.002554L-3.02684,-9.965769L-2.976985,-9.931534L-2.926957,-9.899839L-2.87684,-9.870536L-2.825103,-9.842618L-2.771224,-9.81607L-2.715284,-9.791045L-2.657365,-9.767703L-2.597549,-9.746202L-2.535916,-9.726695L-2.472547,-9.709346L-2.407525,-9.694306L-2.340929,-9.681736L-2.272842,-9.671791L-2.203344,-9.66463L-2.132516,-9.660409L-2.060895,-9.659L-1.988392,-9.660951L-1.915245,-9.666267L-1.841689,-9.674962L-1.767962,-9.687045L-1.694299,-9.702525L-1.62094,-9.721414L-1.548121,-9.74372L-1.476078,-9.769454L-1.405048,-9.798627L-1.33527,-9.831246L-1.26698,-9.867325L-1.200271,-9.906464L-1.13562,-9.948591L-1.073256,-9.99367L-1.01329,-10.041487L-0.95583,-10.091832L-0.900988,-10.144495L-0.848872,-10.199264L-0.799592,-10.255926L-0.753259,-10.314273L-0.709983,-10.374092L-0.669872,-10.435171L-0.633038,-10.497302L-0.599407,-10.560307L-0.568729,-10.623882L-0.541231,-10.687729L-0.516817,-10.751697L-0.495391,-10.815636L-0.476858,-10.879396L-0.461121,-10.94283L-0.448086,-11.00579L-0.437657,-11.06812L-0.429738,-11.129677L-0.424233,-11.190309L-0.421048,-11.249865L-0.420085,-11.3082z"/>
    <path transform="matrix(1,0,0,-1,150.42775,-150.618698)" style="stroke:#000000;stroke-width:0.05mm;fill:none" d="M-0.420085,-11.3082L-0.420085,-11.3082L-0.420085,-11.3082L-0.420085,-11.308199L-0.420085,-11.308199L-0.420085,-11.3082L-0.420085,-11.3082L-0.420085,-11.3082L-0.420085,-11.3082z"/>
    <path transform="matrix(1,0,0,-1,150.42775,-150.618698)" style="stroke:#000000;stroke-width:0.05mm;fill:none" d="M-0.420085,-11.3082L-0.421048,-11.366534L-0.424233,-11.426094L-0.429738,-11.486724L-0.437657,-11.54828L-0.448086,-11.610611L-0.461121,-11.673569L-0.476858,-11.737002L-0.495391,-11.800765L-0.516817,-11.864703L-0.541231,-11.928671L-0.568729,-11.992517L-0.599407,-12.056093L-0.633038,-12.119113L-0.669873,-12.18126L-0.709983,-12.242351L-0.75326,-12.302174L-0.799593,-12.36052L-0.848872,-12.417181L-0.900988,-12.471943L-0.955831,-12.524601L-1.01329,-12.57494L-1.073256,-12.622751L-1.13562,-12.667828L-1.200271,-12.709955L-1.266979,-12.749094L-1.33527,-12.785174L-1.405048,-12.817794L-1.476077,-12.846968L-1.54812,-12.872704L-1.62094,-12.895009L-1.694299,-12.913899L-1.767961,-12.929379L-1.841689,-12.94146L-1.915245,-12.950153L-1.988393,-12.955467L-2.060895,-12.957412L-2.132516,-12.956001L-2.203343,-12.951777L-2.272841,-12.944616L-2.340929,-12.934672L-2.407524,-12.922105L-2.472548,-12.907069L-2.535916,-12.889719L-2.597549,-12.870216L-2.657366,-12.848717L-2.715284,-12.825376L-2.771224,-12.800354L-2.825103,-12.773805L-2.87684,-12.745888L-2.926957,-12.716575L-2.976986,-12.68487L-3.026843,-12.650629L-3.07635,-12.61384L-3.125331,-12.574492L-3.173608,-12.532582L-3.221005,-12.488095L-3.267345,-12.441031L-3.312451,-12.391373L-3.356147,-12.339117L-3.398255,-12.284252L-3.438598,-12.226771L-3.477035,-12.166835L-3.513256,-12.104678L-3.546968,-12.040146L-3.578045,-11.973437L-3.606357,-11.904754L-3.631779,-11.834293L-3.654183,-11.762259L-3.673442,-11.68885L-3.689429,-11.614267L-3.702016,-11.538709L-3.711077,-11.462377L-3.716484,-11.385471L-3.71811,-11.308192L-3.716483,-11.230909L-3.711075,-11.154006L-3.702014,-11.077674L-3.689426,-11.002117L-3.673438,-10.927532L-3.654178,-10.854124L-3.631773,-10.78209L-3.606351,-10.711632L-3.578038,-10.642947L-3.546961,-10.57624L-3.513248,-10.511707L-3.477026,-10.449551L-3.43859,-10.389617L-3.398247,-10.332137L-3.356139,-10.27727L-3.312444,-10.225014L-3.267339,-10.175356L-3.220999,-10.128289L-3.173603,-10.083805L-3.125326,-10.041897L-3.076347,-10.002554L-3.02684,-9.965769L-2.976985,-9.931534L-2.926957,-9.899839L-2.87684,-9.870536L-2.825103,-9.842618L-2.771224,-9.81607L-2.715284,-9.791045L-2.657365,-9.767703L-2.597549,-9.746202L-2.535916,-9.726695L-2.472547,-9.709346L-2.407525,-9.694306L-2.340929,-9.681736L-2.272842,-9.671791L-2.203344,-9.66463L-2.132516,-9.660409L-2.060895,-9.659L-1.988392,-9.660951L-1.915245,-9.666267L-1.841689,-9.674962L-1.767962,-9.687045L-1.694299,-9.702525L-1.62094,-9.721414L-1.548121,-9.74372L-1.476078,-9.769454L-1.405048,-9.798627L-1.33527,-9.831246L-1.26698,-9.867325L-1.200271,-9.906464L-1.13562,-9.948591L-1.073256,-9.99367L-1.01329,-10.041487L-0.95583,-10.091832L-0.900988,-10.144495L-0.848872,-10.199264L-0.799592,-10.255926L-0.753259,-10.314273L-0.709983,-10.374092L-0.669872,-10.435171L-0.633038,-10.497302L-0.599407,-10.560307L-0.568729,-10.623882L-0.541231,-10.687729L-0.516817,-10.751697L-0.495391,-10.815636L-0.476858,-10.879396L-0.461121,-10.94283L-0.448086,-11.00579L-0.437657,-11.06812L-0.429738,-11.129677L-0.424233,-11.190309L-0.421048,-11.249865L-0.420085,-11.3082z"/>
    <path transform="matrix(1,0,0,-1,150.42775,-150.618698)" style="stroke:#000000;stroke-width:0.05mm;fill:none" d="M-0.420085,-11.3082L-0.420085,-11.3082L-0.420085,-11.3082L-0.420085,-11.308199L-0.420085,-11.308199L-0.420085,-11.3082L-0.420085,-11.3082L-0.420085,-11.3082L-0.420085,-11.3082z"/>
    <path transform="matrix(1,0,0,-1,150.42775,-150.618698)" style="stroke:#000000;stroke-width:0.05mm;fill:none" d="M5.0026,12.9152L5.00179,12.86619L4.999112,12.816151L4.994486,12.765203L4.987831,12.713483L4.979066,12.661107L4.968112,12.60821L4.954889,12.554911L4.939316,12.501339L4.921311,12.447617L4.900796,12.393875L4.877689,12.340239L4.851911,12.286829L4.823649,12.233873L4.792698,12.181643L4.758994,12.130305L4.722628,12.08003L4.683695,12.030998L4.642286,11.983385L4.598494,11.937364L4.55241,11.893113L4.504128,11.850811L4.453739,11.81063L4.401336,11.77275L4.347011,11.737345L4.290956,11.704451L4.233572,11.674135L4.174937,11.646726L4.115252,11.622211L4.054714,11.600585L3.993523,11.58184L3.93188,11.565968L3.869982,11.552958L3.80803,11.542807L3.746221,11.535502L3.684756,11.531038L3.623834,11.529407L3.563653,11.5306L3.504137,11.534142L3.445739,11.540154L3.388525,11.548505L3.332565,11.559067L3.277926,11.571701L3.224677,11.586277L3.172887,11.602666L3.122622,11.620731L3.073953,11.640346L3.026946,11.661374L2.981671,11.683684L2.938194,11.707145L2.896081,11.731773L2.854042,11.758408L2.812149,11.787178L2.77055,11.818091L2.729393,11.851151L2.688826,11.886369L2.648999,11.923751L2.610061,11.963303L2.572159,12.005033L2.535442,12.048951L2.50006,12.095062L2.466159,12.143373L2.43386,12.193736L2.403425,12.245949L2.375098,12.300163L2.348985,12.356209L2.325195,12.413917L2.303833,12.473116L2.285007,12.533642L2.268824,12.595327L2.25539,12.658002L2.244813,12.721493L2.237199,12.785637L2.232656,12.850266L2.23129,12.915209L2.232657,12.980148L2.237201,13.044777L2.244815,13.108924L2.255393,13.17242L2.268827,13.235095L2.285011,13.296782L2.303837,13.357316L2.3252,13.416527L2.348991,13.474245L2.375104,13.530302L2.403432,13.584533L2.433868,13.636766L2.466166,13.687124L2.500067,13.735417L2.535449,13.781515L2.572165,13.825426L2.610066,13.867154L2.649005,13.906704L2.688831,13.944084L2.729396,13.979301L2.770552,14.012359L2.812151,14.043264L2.854044,14.072023L2.896081,14.098641L2.938194,14.123255L2.98167,14.146717L3.026946,14.169028L3.073953,14.190058L3.122623,14.209673L3.172887,14.227742L3.224677,14.244135L3.277926,14.258722L3.332564,14.271365L3.388524,14.281937L3.445738,14.290305L3.504137,14.296335L3.563653,14.299899L3.623834,14.301071L3.684757,14.299421L3.746222,14.294943L3.808029,14.287626L3.869982,14.277464L3.93188,14.264449L3.993523,14.248569L4.054713,14.22982L4.115251,14.208193L4.174938,14.183678L4.233572,14.156265L4.290956,14.12595L4.347011,14.093071L4.401336,14.057683L4.453739,14.019811L4.504128,13.979636L4.55241,13.937335L4.598494,13.893086L4.642286,13.847066L4.683696,13.799452L4.722629,13.750422L4.758994,13.700155L4.792699,13.648825L4.823651,13.596613L4.851911,13.543662L4.877689,13.490237L4.900796,13.436588L4.921311,13.382837L4.939315,13.329114L4.954889,13.275541L4.968112,13.22224L4.979066,13.16934L4.987831,13.116966L4.994486,13.06524L4.999112,13.014286L5.00179,12.964231L5.0026,12.9152z"/>
    <path transform="matrix(1,0,0,-1,150.42775,-150.618698)" style="stroke:#000000;stroke-width:0.05mm;fill:none" d="M5.0026,12.9152L5.0026,12.9152L5.0026,12.915201L5.0026,12.915199L5.0026,12.9152L5.0026,12.915199L5.0026,12.915201L5.0026,12.9152L5.0026,12.9152z"/>
    <path transform="matrix(1,0,0,-1,150.42775,-150.618698)" style="stroke:#000000;stroke-width:0.05mm;fill:none" d="M5.0026,12.9152L5.00179,12.86619L4.999112,12.816151L4.994486,12.765203L4.987831,12.713483L4.979066,12.661107L4.968112,12.60821L4.954889,12.554911L4.939316,12.501339L4.921311,12.447617L4.900796,12.393875L4.877689,12.340239L4.851911,12.286829L4.823649,12.233873L4.792698,12.181643L4.758994,12.130305L4.722628,12.08003L4.683695,12.030998L4.642286,11.983385L4.598494,11.937364L4.55241,11.893113L4.504128,11.850811L4.453739,11.81063L4.401336,11.77275L4.347011,11.737345L4.290956,11.704451L4.233572,11.674135L4.174937,11.646726L4.115252,11.622211L4.054714,11.600585L3.993523,11.58184L3.93188,11.565968L3.869982,11.552958L3.80803,11.542807L3.746221,11.535502L3.684756,11.531038L3.623834,11.529407L3.563653,11.5306L3.504137,11.534142L3.445739,11.540154L3.388525,11.548505L3.332565,11.559067L3.277926,11.571701L3.224677,11.586277L3.172887,11.602666L3.122622,11.620731L3.073953,11.640346L3.026946,11.661374L2.981671,11.683684L2.938194,11.707145L2.896081,11.731773L2.854042,11.758408L2.812149,11.787178L2.77055,11.818091L2.729393,11.851151L2.688826,11.886369L2.648999,11.923751L2.610061,11.963303L2.572159,12.005033L2.535442,12.048951L2.50006,12.095062L2.466159,12.143373L2.43386,12.193736L2.403425,12.245949L2.375098,12.300163L2.348985,12.356209L2.325195,12.413917L2.303833,12.473116L2.285007,12.533642L2.268824,12.595327L2.25539,12.658002L2.244813,12.721493L2.237199,12.785637L2.232656,12.850266L2.23129,12.915209L2.232657,12.980148L2.237201,13.044777L2.244815,13.108924L2.255393,13.17242L2.268827,13.235095L2.285011,13.296782L2.303837,13.357316L2.3252,13.416527L2.348991,13.474245L2.375104,13.530302L2.403432,13.584533L2.433868,13.636766L2.466166,13.687124L2.500067,13.735417L2.535449,13.781515L2.572165,13.825426L2.610066,13.867154L2.649005,13.906704L2.688831,13.944084L2.729396,13.979301L2.770552,14.012359L2.812151,14.043264L2.854044,14.072023L2.896081,14.098641L2.938194,14.123255L2.98167,14.146717L3.026946,14.169028L3.073953,14.190058L3.122623,14.209673L3.172887,14.227742L3.224677,14.244135L3.277926,14.258722L3.332564,14.271365L3.388524,14.281937L3.445738,14.290305L3.504137,14.296335L3.563653,14.299899L3.623834,14.301071L3.684757,14.299421L3.746222,14.294943L3.808029,14.287626L3.869982,14.277464L3.93188,14.264449L3.993523,14.248569L4.054713,14.22982L4.115251,14.208193L4.174938,14.183678L4.233572,14.156265L4.290956,14.12595L4.347011,14.093071L4.401336,14.057683L4.453739,14.019811L4.504128,13.979636L4.55241,13.937335L4.598494,13.893086L4.642286,13.847066L4.683696,13.799452L4.722629,13.750422L4.758994,13.700155L4.792699,13.648825L4.823651,13.596613L4.851911,13.543662L4.877689,13.490237L4.900796,13.436588L4.921311,13.382837L4.939315,13.329114L4.954889,13.275541L4.968112,13.22224L4.979066,13.16934L4.987831,13.116966L4.994486,13.06524L4.999112,13.014286L5.00179,12.964231L5.0026,12.9152z"/>
    <path transform="matrix(1,0,0,-1,150.42775,-150.618698)" style="stroke:#000000;stroke-width:0.05mm;fill:none" d="M5.0026,12.9152L5.0026,12.9152L5.0026,12.915201L5.0026,12.915199L5.0026,12.9152L5.0026,12.915199L5.0026,12.915201L5.0026,12.9152L5.0026,12.9152z"/>
</svg>
