M48
; DRILL file {KiCad (5.99.0-8941-ge2f8b1a4b1)} date 04/11/21 11:55:05
; FORMAT={-:-/ absolute / inch / decimal}
; #@! TF.CreationDate,2021-04-11T11:55:05+12:00
; #@! TF.GenerationSoftware,Kicad,Pcbnew,(5.99.0-8941-ge2f8b1a4b1)
; #@! TF.FileFunction,Plated,1,2,PTH
FMAT,2
INCH
T1C0.0157
T2C0.0394
T3C0.0551
%
G90
G05
T1
X4.9969Y-2.73
X5.0303Y-2.6583
X5.1287Y-2.4516
X5.1386Y-2.6287
X5.2272Y-2.865
X5.2567Y-2.6386
X5.3451Y-2.8323
X5.3453Y-2.7764
X5.4339Y-2.4713
X5.4732Y-2.2744
X5.4974Y-2.855
X5.5413Y-2.3524
X5.739Y-2.8354
X5.7587Y-2.9831
X5.8276Y-2.865
X5.8669Y-3.0126
X5.9161Y-2.7567
X5.92Y-2.8591
X5.926Y-3.0323
X5.9752Y-2.6386
X6.0205Y-2.9186
X6.0827Y-2.6772
X6.1524Y-2.9732
T2
X5.0591Y-2.975
X5.1591Y-2.975
X5.2591Y-2.975
X5.4591Y-2.975
X6.4591Y-2.375
X6.4591Y-2.475
X6.4591Y-2.825
T3
X6.4591Y-2.975
T0
M30
