<?xml version="1.0" standalone="no"?>
 <!DOCTYPE svg PUBLIC "-//W3C//DTD SVG 1.1//EN" 
 "http://www.w3.org/Graphics/SVG/1.1/DTD/svg11.dtd"> 
<svg
  xmlns:svg="http://www.w3.org/2000/svg"
  xmlns="http://www.w3.org/2000/svg"
  xmlns:xlink="http://www.w3.org/1999/xlink"
  version="1.1"
  width="29.700220cm" height="21.000720cm" viewBox="0 0 297002200 210007200">
<title>SVG Picture created as OpenHVPS-5-B_Silkscreen.svg date 2021/02/12 22:47:36 </title>
  <desc>Picture generated by PCBNEW </desc>
<g style="fill:#000000; fill-opacity:1.000000;stroke:#000000; stroke-opacity:1.000000;
stroke-linecap:round; stroke-linejoin:round;"
 transform="translate(0 0) scale(1 1)">
</g>
<g style="fill:#000000; fill-opacity:0.0; 
stroke:#000000; stroke-width:0.000000; stroke-opacity:1; 
stroke-linecap:round; stroke-linejoin:round;">
</g>
<g style="fill:#000000; fill-opacity:1.0; 
stroke:#000000; stroke-width:1.000000; stroke-opacity:1; 
stroke-linecap:round; stroke-linejoin:round;">
<circle cx="127782000.000000" cy="64250000.000000" r="325000.000000" /> 
</g>
<g style="fill:#000000; fill-opacity:1.0; 
stroke:#000000; stroke-width:150000.000000; stroke-opacity:1; 
stroke-linecap:round; stroke-linejoin:round;">
</g>
<g style="fill:#000000; fill-opacity:0.0; 
stroke:#000000; stroke-width:150000.000000; stroke-opacity:1; 
stroke-linecap:round; stroke-linejoin:round;">
<path d="M159512000 77575000
L165100000 77575000
" />
<path d="M166370000 76200000
L165100000 77575000
" />
<path d="M134750000 59350000
L134750000 57650000
" />
<path d="M159512000 69350000
L161520000 69350000
" />
<path d="M161520000 65405000
L166370000 65405000
" />
<path d="M166370000 65405000
L166370000 76200000
" />
<path d="M159512000 71500000
L159512000 77575000
" />
<path d="M161520000 69350000
L161520000 65405000
" />
<path d="M159512000 71500000
L159512000 69350000
" />
</g>
<g style="fill:#000000; fill-opacity:0.0; 
stroke:#000000; stroke-width:100000.000000; stroke-opacity:1; 
stroke-linecap:round; stroke-linejoin:round;">
<text x="133925000.000000" y="73950000.000000"
transform="scale(-1 1) translate(-267850000.000000 0)"
textLength="1523809.000000" font-size="666666.000000" lengthAdjust="spacingAndGlyphs"
text-anchor="middle" opacity="0">GND</text>
<g class="stroked-text"><desc>GND</desc>
<path d="M134305952 73450000
L134353571 73426190
L134425000 73426190
L134496428 73450000
L134544047 73497619
L134567857 73545238
L134591666 73640476
L134591666 73711904
L134567857 73807142
L134544047 73854761
L134496428 73902380
L134425000 73926190
L134377380 73926190
L134305952 73902380
L134282142 73878571
L134282142 73711904
L134377380 73711904
" />
<path d="M134067857 73926190
L134067857 73426190
L133782142 73926190
L133782142 73426190
" />
<path d="M133544047 73926190
L133544047 73426190
L133425000 73426190
L133353571 73450000
L133305952 73497619
L133282142 73545238
L133258333 73640476
L133258333 73711904
L133282142 73807142
L133305952 73854761
L133353571 73902380
L133425000 73926190
L133544047 73926190
" />
</g><text x="155956000.000000" y="58765000.000000"
transform="scale(-1 1) translate(-311912000.000000 0)"
textLength="10003333.000000" font-size="1266666.000000" lengthAdjust="spacingAndGlyphs"
text-anchor="middle" opacity="0">SAFECAST.ORG</text>
<g class="stroked-text"><desc>SAFECAST.ORG</desc>
<path d="M160841714 58674523
L160706000 58719761
L160479809 58719761
L160389333 58674523
L160344095 58629285
L160298857 58538809
L160298857 58448333
L160344095 58357857
L160389333 58312619
L160479809 58267380
L160660761 58222142
L160751238 58176904
L160796476 58131666
L160841714 58041190
L160841714 57950714
L160796476 57860238
L160751238 57815000
L160660761 57769761
L160434571 57769761
L160298857 57815000
" />
<path d="M159936952 58448333
L159484571 58448333
" />
<path d="M160027428 58719761
L159710761 57769761
L159394095 58719761
" />
<path d="M158760761 58222142
L159077428 58222142
" />
<path d="M159077428 58719761
L159077428 57769761
L158625047 57769761
" />
<path d="M158263142 58222142
L157946476 58222142
" />
<path d="M157810761 58719761
L158263142 58719761
L158263142 57769761
L157810761 57769761
" />
<path d="M156860761 58629285
L156906000 58674523
L157041714 58719761
L157132190 58719761
L157267904 58674523
L157358380 58584047
L157403619 58493571
L157448857 58312619
L157448857 58176904
L157403619 57995952
L157358380 57905476
L157267904 57815000
L157132190 57769761
L157041714 57769761
L156906000 57815000
L156860761 57860238
" />
<path d="M156498857 58448333
L156046476 58448333
" />
<path d="M156589333 58719761
L156272666 57769761
L155956000 58719761
" />
<path d="M155684571 58674523
L155548857 58719761
L155322666 58719761
L155232190 58674523
L155186952 58629285
L155141714 58538809
L155141714 58448333
L155186952 58357857
L155232190 58312619
L155322666 58267380
L155503619 58222142
L155594095 58176904
L155639333 58131666
L155684571 58041190
L155684571 57950714
L155639333 57860238
L155594095 57815000
L155503619 57769761
L155277428 57769761
L155141714 57815000
" />
<path d="M154870285 57769761
L154327428 57769761
" />
<path d="M154598857 58719761
L154598857 57769761
" />
<path d="M154010761 58629285
L153965523 58674523
L154010761 58719761
L154056000 58674523
L154010761 58629285
L154010761 58719761
" />
<path d="M153377428 57769761
L153196476 57769761
L153106000 57815000
L153015523 57905476
L152970285 58086428
L152970285 58403095
L153015523 58584047
L153106000 58674523
L153196476 58719761
L153377428 58719761
L153467904 58674523
L153558380 58584047
L153603619 58403095
L153603619 58086428
L153558380 57905476
L153467904 57815000
L153377428 57769761
" />
<path d="M152020285 58719761
L152336952 58267380
" />
<path d="M152563142 58719761
L152563142 57769761
L152201238 57769761
L152110761 57815000
L152065523 57860238
L152020285 57950714
L152020285 58086428
L152065523 58176904
L152110761 58222142
L152201238 58267380
L152563142 58267380
" />
<path d="M151115523 57815000
L151206000 57769761
L151341714 57769761
L151477428 57815000
L151567904 57905476
L151613142 57995952
L151658380 58176904
L151658380 58312619
L151613142 58493571
L151567904 58584047
L151477428 58674523
L151341714 58719761
L151251238 58719761
L151115523 58674523
L151070285 58629285
L151070285 58312619
L151251238 58312619
" />
</g><text x="128341000.000000" y="74140000.000000"
transform="scale(-1 1) translate(-256682000.000000 0)"
textLength="1108095.000000" font-size="1333333.000000" lengthAdjust="spacingAndGlyphs"
text-anchor="middle" opacity="0">+</text>
<g class="stroked-text"><desc>+</desc>
<path d="M128721952 73711428
L127960047 73711428
" />
<path d="M128341000 74092380
L128341000 73330476
" />
</g></g>
<g style="fill:#000000; fill-opacity:0.0; 
stroke:#000000; stroke-width:75000.000000; stroke-opacity:1; 
stroke-linecap:round; stroke-linejoin:round;">
<text x="131064000.000000" y="77593000.000000"
transform="scale(-1 1) translate(-262128000.000000 0)"
textLength="6727143.000000" font-size="666666.000000" lengthAdjust="spacingAndGlyphs"
text-anchor="middle" opacity="0">SAFEPULSE V1.1.1</text>
<g class="stroked-text"><desc>SAFEPULSE V1.1.1</desc>
<path d="M134397333 77545380
L134325904 77569190
L134206857 77569190
L134159238 77545380
L134135428 77521571
L134111619 77473952
L134111619 77426333
L134135428 77378714
L134159238 77354904
L134206857 77331095
L134302095 77307285
L134349714 77283476
L134373523 77259666
L134397333 77212047
L134397333 77164428
L134373523 77116809
L134349714 77093000
L134302095 77069190
L134183047 77069190
L134111619 77093000
" />
<path d="M133921142 77426333
L133683047 77426333
" />
<path d="M133968761 77569190
L133802095 77069190
L133635428 77569190
" />
<path d="M133302095 77307285
L133468761 77307285
" />
<path d="M133468761 77569190
L133468761 77069190
L133230666 77069190
" />
<path d="M133040190 77307285
L132873523 77307285
" />
<path d="M132802095 77569190
L133040190 77569190
L133040190 77069190
L132802095 77069190
" />
<path d="M132587809 77569190
L132587809 77069190
L132397333 77069190
L132349714 77093000
L132325904 77116809
L132302095 77164428
L132302095 77235857
L132325904 77283476
L132349714 77307285
L132397333 77331095
L132587809 77331095
" />
<path d="M132087809 77069190
L132087809 77473952
L132064000 77521571
L132040190 77545380
L131992571 77569190
L131897333 77569190
L131849714 77545380
L131825904 77521571
L131802095 77473952
L131802095 77069190
" />
<path d="M131325904 77569190
L131564000 77569190
L131564000 77069190
" />
<path d="M131183047 77545380
L131111619 77569190
L130992571 77569190
L130944952 77545380
L130921142 77521571
L130897333 77473952
L130897333 77426333
L130921142 77378714
L130944952 77354904
L130992571 77331095
L131087809 77307285
L131135428 77283476
L131159238 77259666
L131183047 77212047
L131183047 77164428
L131159238 77116809
L131135428 77093000
L131087809 77069190
L130968761 77069190
L130897333 77093000
" />
<path d="M130683047 77307285
L130516380 77307285
" />
<path d="M130444952 77569190
L130683047 77569190
L130683047 77069190
L130444952 77069190
" />
<path d="M129921142 77069190
L129754476 77569190
L129587809 77069190
" />
<path d="M129159238 77569190
L129444952 77569190
" />
<path d="M129302095 77569190
L129302095 77069190
L129349714 77140619
L129397333 77188238
L129444952 77212047
" />
<path d="M128944952 77521571
L128921142 77545380
L128944952 77569190
L128968761 77545380
L128944952 77521571
L128944952 77569190
" />
<path d="M128444952 77569190
L128730666 77569190
" />
<path d="M128587809 77569190
L128587809 77069190
L128635428 77140619
L128683047 77188238
L128730666 77212047
" />
<path d="M128230666 77521571
L128206857 77545380
L128230666 77569190
L128254476 77545380
L128230666 77521571
L128230666 77569190
" />
<path d="M127730666 77569190
L128016380 77569190
" />
<path d="M127873523 77569190
L127873523 77069190
L127921142 77140619
L127968761 77188238
L128016380 77212047
" />
</g></g>
<g style="fill:#000000; fill-opacity:0.0; 
stroke:#000000; stroke-width:100000.000000; stroke-opacity:1; 
stroke-linecap:round; stroke-linejoin:round;">
<text x="130881000.000000" y="73950000.000000"
transform="scale(-1 1) translate(-261762000.000000 0)"
textLength="1950119.000000" font-size="666666.000000" lengthAdjust="spacingAndGlyphs"
text-anchor="middle" opacity="0">Pulse</text>
<g class="stroked-text"><desc>Pulse</desc>
<path d="M131785761 73926190
L131785761 73426190
L131595285 73426190
L131547666 73450000
L131523857 73473809
L131500047 73521428
L131500047 73592857
L131523857 73640476
L131547666 73664285
L131595285 73688095
L131785761 73688095
" />
<path d="M131071476 73592857
L131071476 73926190
" />
<path d="M131285761 73592857
L131285761 73854761
L131261952 73902380
L131214333 73926190
L131142904 73926190
L131095285 73902380
L131071476 73878571
" />
<path d="M130761952 73926190
L130809571 73902380
L130833380 73854761
L130833380 73426190
" />
<path d="M130595285 73902380
L130547666 73926190
L130452428 73926190
L130404809 73902380
L130381000 73854761
L130381000 73830952
L130404809 73783333
L130452428 73759523
L130523857 73759523
L130571476 73735714
L130595285 73688095
L130595285 73664285
L130571476 73616666
L130523857 73592857
L130452428 73592857
L130404809 73616666
" />
<path d="M129976238 73902380
L130023857 73926190
L130119095 73926190
L130166714 73902380
L130190523 73854761
L130190523 73664285
L130166714 73616666
L130119095 73592857
L130023857 73592857
L129976238 73616666
L129952428 73664285
L129952428 73711904
L130190523 73759523
" />
</g></g>
<g style="fill:#000000; fill-opacity:0.0; 
stroke:#000000; stroke-width:75000.000000; stroke-opacity:1; 
stroke-linecap:round; stroke-linejoin:round;">
<text x="165100000.000000" y="70735000.000000"
transform="scale(-1 1) translate(-330200000.000000 0)"
textLength="2084286.000000" font-size="666666.000000" lengthAdjust="spacingAndGlyphs"
text-anchor="middle" opacity="0">Anode</text>
<g class="stroked-text"><desc>Anode</desc>
<path d="M166111904 70568333
L165873809 70568333
" />
<path d="M166159523 70711190
L165992857 70211190
L165826190 70711190
" />
<path d="M165659523 70377857
L165659523 70711190
" />
<path d="M165659523 70425476
L165635714 70401666
L165588095 70377857
L165516666 70377857
L165469047 70401666
L165445238 70449285
L165445238 70711190
" />
<path d="M165135714 70711190
L165183333 70687380
L165207142 70663571
L165230952 70615952
L165230952 70473095
L165207142 70425476
L165183333 70401666
L165135714 70377857
L165064285 70377857
L165016666 70401666
L164992857 70425476
L164969047 70473095
L164969047 70615952
L164992857 70663571
L165016666 70687380
L165064285 70711190
L165135714 70711190
" />
<path d="M164540476 70711190
L164540476 70211190
" />
<path d="M164540476 70687380
L164588095 70711190
L164683333 70711190
L164730952 70687380
L164754761 70663571
L164778571 70615952
L164778571 70473095
L164754761 70425476
L164730952 70401666
L164683333 70377857
L164588095 70377857
L164540476 70401666
" />
<path d="M164111904 70687380
L164159523 70711190
L164254761 70711190
L164302380 70687380
L164326190 70639761
L164326190 70449285
L164302380 70401666
L164254761 70377857
L164159523 70377857
L164111904 70401666
L164088095 70449285
L164088095 70496904
L164326190 70544523
" />
</g><text x="165100000.000000" y="74545000.000000"
transform="scale(-1 1) translate(-330200000.000000 0)"
textLength="2116786.000000" font-size="666666.000000" lengthAdjust="spacingAndGlyphs"
text-anchor="middle" opacity="0">Anode</text>
<g class="stroked-text"><desc>Anode</desc>
<path d="M166111904 74378333
L165873809 74378333
" />
<path d="M166159523 74521190
L165992857 74021190
L165826190 74521190
" />
<path d="M165659523 74187857
L165659523 74521190
" />
<path d="M165659523 74235476
L165635714 74211666
L165588095 74187857
L165516666 74187857
L165469047 74211666
L165445238 74259285
L165445238 74521190
" />
<path d="M165135714 74521190
L165183333 74497380
L165207142 74473571
L165230952 74425952
L165230952 74283095
L165207142 74235476
L165183333 74211666
L165135714 74187857
L165064285 74187857
L165016666 74211666
L164992857 74235476
L164969047 74283095
L164969047 74425952
L164992857 74473571
L165016666 74497380
L165064285 74521190
L165135714 74521190
" />
<path d="M164540476 74521190
L164540476 74021190
" />
<path d="M164540476 74497380
L164588095 74521190
L164683333 74521190
L164730952 74497380
L164754761 74473571
L164778571 74425952
L164778571 74283095
L164754761 74235476
L164730952 74211666
L164683333 74187857
L164588095 74187857
L164540476 74211666
" />
<path d="M164111904 74497380
L164159523 74521190
L164254761 74521190
L164302380 74497380
L164326190 74449761
L164326190 74259285
L164302380 74211666
L164254761 74187857
L164159523 74187857
L164111904 74211666
L164088095 74259285
L164088095 74306904
L164326190 74354523
" />
</g><text x="138251000.000000" y="73606000.000000"
transform="scale(-1 1) translate(-276502000.000000 0)"
textLength="2926310.000000" font-size="666666.000000" lengthAdjust="spacingAndGlyphs"
text-anchor="middle" opacity="0">Cathode</text>
<g class="stroked-text"><desc>Cathode</desc>
<path d="M139358142 73534571
L139381952 73558380
L139453380 73582190
L139501000 73582190
L139572428 73558380
L139620047 73510761
L139643857 73463142
L139667666 73367904
L139667666 73296476
L139643857 73201238
L139620047 73153619
L139572428 73106000
L139501000 73082190
L139453380 73082190
L139381952 73106000
L139358142 73129809
" />
<path d="M138929571 73582190
L138929571 73320285
L138953380 73272666
L139001000 73248857
L139096238 73248857
L139143857 73272666
" />
<path d="M138929571 73558380
L138977190 73582190
L139096238 73582190
L139143857 73558380
L139167666 73510761
L139167666 73463142
L139143857 73415523
L139096238 73391714
L138977190 73391714
L138929571 73367904
" />
<path d="M138762904 73248857
L138572428 73248857
" />
<path d="M138691476 73082190
L138691476 73510761
L138667666 73558380
L138620047 73582190
L138572428 73582190
" />
<path d="M138405761 73582190
L138405761 73082190
" />
<path d="M138191476 73582190
L138191476 73320285
L138215285 73272666
L138262904 73248857
L138334333 73248857
L138381952 73272666
L138405761 73296476
" />
<path d="M137881952 73582190
L137929571 73558380
L137953380 73534571
L137977190 73486952
L137977190 73344095
L137953380 73296476
L137929571 73272666
L137881952 73248857
L137810523 73248857
L137762904 73272666
L137739095 73296476
L137715285 73344095
L137715285 73486952
L137739095 73534571
L137762904 73558380
L137810523 73582190
L137881952 73582190
" />
<path d="M137286714 73582190
L137286714 73082190
" />
<path d="M137286714 73558380
L137334333 73582190
L137429571 73582190
L137477190 73558380
L137501000 73534571
L137524809 73486952
L137524809 73344095
L137501000 73296476
L137477190 73272666
L137429571 73248857
L137334333 73248857
L137286714 73272666
" />
<path d="M136858142 73558380
L136905761 73582190
L137001000 73582190
L137048619 73558380
L137072428 73510761
L137072428 73320285
L137048619 73272666
L137001000 73248857
L136905761 73248857
L136858142 73272666
L136834333 73320285
L136834333 73367904
L137072428 73415523
" />
</g><text x="135500000.000000" y="61000000.000000"
transform="scale(-1 1) translate(-271000000.000000 0)"
textLength="1259643.000000" font-size="666666.000000" lengthAdjust="spacingAndGlyphs"
text-anchor="middle" opacity="0">TP5</text>
<g class="stroked-text"><desc>TP5</desc>
<path d="M136130952 60476190
L135845238 60476190
" />
<path d="M135988095 60976190
L135988095 60476190
" />
<path d="M135678571 60976190
L135678571 60476190
L135488095 60476190
L135440476 60500000
L135416666 60523809
L135392857 60571428
L135392857 60642857
L135416666 60690476
L135440476 60714285
L135488095 60738095
L135678571 60738095
" />
<path d="M134940476 60476190
L135178571 60476190
L135202380 60714285
L135178571 60690476
L135130952 60666666
L135011904 60666666
L134964285 60690476
L134940476 60714285
L134916666 60761904
L134916666 60880952
L134940476 60928571
L134964285 60952380
L135011904 60976190
L135130952 60976190
L135178571 60952380
L135202380 60928571
" />
</g><text x="141986000.000000" y="76578500.000000"
transform="scale(-1 1) translate(-283972000.000000 0)"
textLength="1354881.000000" font-size="666666.000000" lengthAdjust="spacingAndGlyphs"
text-anchor="middle" opacity="0">R21</text>
<g class="stroked-text"><desc>R21</desc>
<path d="M142307428 76554690
L142474095 76316595
" />
<path d="M142593142 76554690
L142593142 76054690
L142402666 76054690
L142355047 76078500
L142331238 76102309
L142307428 76149928
L142307428 76221357
L142331238 76268976
L142355047 76292785
L142402666 76316595
L142593142 76316595
" />
<path d="M142116952 76102309
L142093142 76078500
L142045523 76054690
L141926476 76054690
L141878857 76078500
L141855047 76102309
L141831238 76149928
L141831238 76197547
L141855047 76268976
L142140761 76554690
L141831238 76554690
" />
<path d="M141355047 76554690
L141640761 76554690
" />
<path d="M141497904 76554690
L141497904 76054690
L141545523 76126119
L141593142 76173738
L141640761 76197547
" />
</g><g transform="rotate(-90.000000 137250000.000000 71500000.000000)">
<text x="137250000.000000" y="71750000.000000"
transform="scale(-1 1) translate(-274500000.000000 0)"
textLength="1354881.000000" font-size="666666.000000" lengthAdjust="spacingAndGlyphs"
text-anchor="middle" opacity="0">R12</text>
</g>
<g class="stroked-text"><desc>R12</desc>
<path d="M137476190 71178571
L137238095 71011904
" />
<path d="M137476190 70892857
L136976190 70892857
L136976190 71083333
L137000000 71130952
L137023809 71154761
L137071428 71178571
L137142857 71178571
L137190476 71154761
L137214285 71130952
L137238095 71083333
L137238095 70892857
" />
<path d="M137476190 71654761
L137476190 71369047
" />
<path d="M137476190 71511904
L136976190 71511904
L137047619 71464285
L137095238 71416666
L137119047 71369047
" />
<path d="M137023809 71845238
L137000000 71869047
L136976190 71916666
L136976190 72035714
L137000000 72083333
L137023809 72107142
L137071428 72130952
L137119047 72130952
L137190476 72107142
L137476190 71821428
L137476190 72130952
" />
</g><text x="147320000.000000" y="68957000.000000"
transform="scale(-1 1) translate(-294640000.000000 0)"
textLength="902500.000000" font-size="666666.000000" lengthAdjust="spacingAndGlyphs"
text-anchor="middle" opacity="0">Q3</text>
<g class="stroked-text"><desc>Q3</desc>
<path d="M147367619 68980809
L147415238 68957000
L147462857 68909380
L147534285 68837952
L147581904 68814142
L147629523 68814142
" />
<path d="M147605714 68933190
L147653333 68909380
L147700952 68861761
L147724761 68766523
L147724761 68599857
L147700952 68504619
L147653333 68457000
L147605714 68433190
L147510476 68433190
L147462857 68457000
L147415238 68504619
L147391428 68599857
L147391428 68766523
L147415238 68861761
L147462857 68909380
L147510476 68933190
L147605714 68933190
" />
<path d="M147224761 68433190
L146915238 68433190
L147081904 68623666
L147010476 68623666
L146962857 68647476
L146939047 68671285
L146915238 68718904
L146915238 68837952
L146939047 68885571
L146962857 68909380
L147010476 68933190
L147153333 68933190
L147200952 68909380
L147224761 68885571
" />
</g><text x="143000000.000000" y="58052000.000000"
transform="scale(-1 1) translate(-286000000.000000 0)"
textLength="1259643.000000" font-size="666666.000000" lengthAdjust="spacingAndGlyphs"
text-anchor="middle" opacity="0">TP6</text>
<g class="stroked-text"><desc>TP6</desc>
<path d="M143630952 57528190
L143345238 57528190
" />
<path d="M143488095 58028190
L143488095 57528190
" />
<path d="M143178571 58028190
L143178571 57528190
L142988095 57528190
L142940476 57552000
L142916666 57575809
L142892857 57623428
L142892857 57694857
L142916666 57742476
L142940476 57766285
L142988095 57790095
L143178571 57790095
" />
<path d="M142464285 57528190
L142559523 57528190
L142607142 57552000
L142630952 57575809
L142678571 57647238
L142702380 57742476
L142702380 57932952
L142678571 57980571
L142654761 58004380
L142607142 58028190
L142511904 58028190
L142464285 58004380
L142440476 57980571
L142416666 57932952
L142416666 57813904
L142440476 57766285
L142464285 57742476
L142511904 57718666
L142607142 57718666
L142654761 57742476
L142678571 57766285
L142702380 57813904
" />
</g><g transform="rotate(-90.000000 138430000.000000 65786000.000000)">
<text x="138430000.000000" y="66036000.000000"
transform="scale(-1 1) translate(-276860000.000000 0)"
textLength="1354881.000000" font-size="666666.000000" lengthAdjust="spacingAndGlyphs"
text-anchor="middle" opacity="0">R17</text>
</g>
<g class="stroked-text"><desc>R17</desc>
<path d="M138656190 65464571
L138418095 65297904
" />
<path d="M138656190 65178857
L138156190 65178857
L138156190 65369333
L138180000 65416952
L138203809 65440761
L138251428 65464571
L138322857 65464571
L138370476 65440761
L138394285 65416952
L138418095 65369333
L138418095 65178857
" />
<path d="M138656190 65940761
L138656190 65655047
" />
<path d="M138656190 65797904
L138156190 65797904
L138227619 65750285
L138275238 65702666
L138299047 65655047
" />
<path d="M138156190 66107428
L138156190 66440761
L138656190 66226476
" />
</g><text x="133500000.000000" y="69750000.000000"
transform="scale(-1 1) translate(-267000000.000000 0)"
textLength="1354881.000000" font-size="666666.000000" lengthAdjust="spacingAndGlyphs"
text-anchor="middle" opacity="0">C23</text>
<g class="stroked-text"><desc>C23</desc>
<path d="M133821428 69678571
L133845238 69702380
L133916666 69726190
L133964285 69726190
L134035714 69702380
L134083333 69654761
L134107142 69607142
L134130952 69511904
L134130952 69440476
L134107142 69345238
L134083333 69297619
L134035714 69250000
L133964285 69226190
L133916666 69226190
L133845238 69250000
L133821428 69273809
" />
<path d="M133630952 69273809
L133607142 69250000
L133559523 69226190
L133440476 69226190
L133392857 69250000
L133369047 69273809
L133345238 69321428
L133345238 69369047
L133369047 69440476
L133654761 69726190
L133345238 69726190
" />
<path d="M133178571 69226190
L132869047 69226190
L133035714 69416666
L132964285 69416666
L132916666 69440476
L132892857 69464285
L132869047 69511904
L132869047 69630952
L132892857 69678571
L132916666 69702380
L132964285 69726190
L133107142 69726190
L133154761 69702380
L133178571 69678571
" />
</g><text x="154030000.000000" y="72300000.000000"
transform="scale(-1 1) translate(-308060000.000000 0)"
textLength="1259643.000000" font-size="666666.000000" lengthAdjust="spacingAndGlyphs"
text-anchor="middle" opacity="0">TP3</text>
<g class="stroked-text"><desc>TP3</desc>
<path d="M154660952 71776190
L154375238 71776190
" />
<path d="M154518095 72276190
L154518095 71776190
" />
<path d="M154208571 72276190
L154208571 71776190
L154018095 71776190
L153970476 71800000
L153946666 71823809
L153922857 71871428
L153922857 71942857
L153946666 71990476
L153970476 72014285
L154018095 72038095
L154208571 72038095
" />
<path d="M153756190 71776190
L153446666 71776190
L153613333 71966666
L153541904 71966666
L153494285 71990476
L153470476 72014285
L153446666 72061904
L153446666 72180952
L153470476 72228571
L153494285 72252380
L153541904 72276190
L153684761 72276190
L153732380 72252380
L153756190 72228571
" />
</g><g transform="rotate(-90.000000 149750000.000000 62025000.000000)">
<text x="149750000.000000" y="62275000.000000"
transform="scale(-1 1) translate(-299500000.000000 0)"
textLength="1354881.000000" font-size="666666.000000" lengthAdjust="spacingAndGlyphs"
text-anchor="middle" opacity="0">C24</text>
</g>
<g class="stroked-text"><desc>C24</desc>
<path d="M149928571 61703571
L149952380 61679761
L149976190 61608333
L149976190 61560714
L149952380 61489285
L149904761 61441666
L149857142 61417857
L149761904 61394047
L149690476 61394047
L149595238 61417857
L149547619 61441666
L149500000 61489285
L149476190 61560714
L149476190 61608333
L149500000 61679761
L149523809 61703571
" />
<path d="M149523809 61894047
L149500000 61917857
L149476190 61965476
L149476190 62084523
L149500000 62132142
L149523809 62155952
L149571428 62179761
L149619047 62179761
L149690476 62155952
L149976190 61870238
L149976190 62179761
" />
<path d="M149642857 62608333
L149976190 62608333
" />
<path d="M149452380 62489285
L149809523 62370238
L149809523 62679761
" />
</g><text x="131000000.000000" y="58250000.000000"
transform="scale(-1 1) translate(-262000000.000000 0)"
textLength="878690.000000" font-size="666666.000000" lengthAdjust="spacingAndGlyphs"
text-anchor="middle" opacity="0">R6</text>
<g class="stroked-text"><desc>R6</desc>
<path d="M131083333 58226190
L131250000 57988095
" />
<path d="M131369047 58226190
L131369047 57726190
L131178571 57726190
L131130952 57750000
L131107142 57773809
L131083333 57821428
L131083333 57892857
L131107142 57940476
L131130952 57964285
L131178571 57988095
L131369047 57988095
" />
<path d="M130654761 57726190
L130750000 57726190
L130797619 57750000
L130821428 57773809
L130869047 57845238
L130892857 57940476
L130892857 58130952
L130869047 58178571
L130845238 58202380
L130797619 58226190
L130702380 58226190
L130654761 58202380
L130630952 58178571
L130607142 58130952
L130607142 58011904
L130630952 57964285
L130654761 57940476
L130702380 57916666
L130797619 57916666
L130845238 57940476
L130869047 57964285
L130892857 58011904
" />
</g><text x="144750000.000000" y="77000000.000000"
transform="scale(-1 1) translate(-289500000.000000 0)"
textLength="1354881.000000" font-size="666666.000000" lengthAdjust="spacingAndGlyphs"
text-anchor="middle" opacity="0">R22</text>
<g class="stroked-text"><desc>R22</desc>
<path d="M145071428 76976190
L145238095 76738095
" />
<path d="M145357142 76976190
L145357142 76476190
L145166666 76476190
L145119047 76500000
L145095238 76523809
L145071428 76571428
L145071428 76642857
L145095238 76690476
L145119047 76714285
L145166666 76738095
L145357142 76738095
" />
<path d="M144880952 76523809
L144857142 76500000
L144809523 76476190
L144690476 76476190
L144642857 76500000
L144619047 76523809
L144595238 76571428
L144595238 76619047
L144619047 76690476
L144904761 76976190
L144595238 76976190
" />
<path d="M144404761 76523809
L144380952 76500000
L144333333 76476190
L144214285 76476190
L144166666 76500000
L144142857 76523809
L144119047 76571428
L144119047 76619047
L144142857 76690476
L144428571 76976190
L144119047 76976190
" />
</g><text x="157250000.000000" y="77326000.000000"
transform="scale(-1 1) translate(-314500000.000000 0)"
textLength="902500.000000" font-size="666666.000000" lengthAdjust="spacingAndGlyphs"
text-anchor="middle" opacity="0">U3</text>
<g class="stroked-text"><desc>U3</desc>
<path d="M157630952 76802190
L157630952 77206952
L157607142 77254571
L157583333 77278380
L157535714 77302190
L157440476 77302190
L157392857 77278380
L157369047 77254571
L157345238 77206952
L157345238 76802190
" />
<path d="M157154761 76802190
L156845238 76802190
L157011904 76992666
L156940476 76992666
L156892857 77016476
L156869047 77040285
L156845238 77087904
L156845238 77206952
L156869047 77254571
L156892857 77278380
L156940476 77302190
L157083333 77302190
L157130952 77278380
L157154761 77254571
" />
</g><text x="146680000.000000" y="77000000.000000"
transform="scale(-1 1) translate(-293360000.000000 0)"
textLength="1354881.000000" font-size="666666.000000" lengthAdjust="spacingAndGlyphs"
text-anchor="middle" opacity="0">C22</text>
<g class="stroked-text"><desc>C22</desc>
<path d="M147001428 76928571
L147025238 76952380
L147096666 76976190
L147144285 76976190
L147215714 76952380
L147263333 76904761
L147287142 76857142
L147310952 76761904
L147310952 76690476
L147287142 76595238
L147263333 76547619
L147215714 76500000
L147144285 76476190
L147096666 76476190
L147025238 76500000
L147001428 76523809
" />
<path d="M146810952 76523809
L146787142 76500000
L146739523 76476190
L146620476 76476190
L146572857 76500000
L146549047 76523809
L146525238 76571428
L146525238 76619047
L146549047 76690476
L146834761 76976190
L146525238 76976190
" />
<path d="M146334761 76523809
L146310952 76500000
L146263333 76476190
L146144285 76476190
L146096666 76500000
L146072857 76523809
L146049047 76571428
L146049047 76619047
L146072857 76690476
L146358571 76976190
L146049047 76976190
" />
</g><text x="145034000.000000" y="68957000.000000"
transform="scale(-1 1) translate(-290068000.000000 0)"
textLength="902500.000000" font-size="666666.000000" lengthAdjust="spacingAndGlyphs"
text-anchor="middle" opacity="0">Q4</text>
<g class="stroked-text"><desc>Q4</desc>
<path d="M145081619 68980809
L145129238 68957000
L145176857 68909380
L145248285 68837952
L145295904 68814142
L145343523 68814142
" />
<path d="M145319714 68933190
L145367333 68909380
L145414952 68861761
L145438761 68766523
L145438761 68599857
L145414952 68504619
L145367333 68457000
L145319714 68433190
L145224476 68433190
L145176857 68457000
L145129238 68504619
L145105428 68599857
L145105428 68766523
L145129238 68861761
L145176857 68909380
L145224476 68933190
L145319714 68933190
" />
<path d="M144676857 68599857
L144676857 68933190
" />
<path d="M144795904 68409380
L144914952 68766523
L144605428 68766523
" />
</g><g transform="rotate(-90.000000 149500000.000000 71120000.000000)">
<text x="149500000.000000" y="71370000.000000"
transform="scale(-1 1) translate(-299000000.000000 0)"
textLength="1354881.000000" font-size="666666.000000" lengthAdjust="spacingAndGlyphs"
text-anchor="middle" opacity="0">R20</text>
</g>
<g class="stroked-text"><desc>R20</desc>
<path d="M149726190 70798571
L149488095 70631904
" />
<path d="M149726190 70512857
L149226190 70512857
L149226190 70703333
L149250000 70750952
L149273809 70774761
L149321428 70798571
L149392857 70798571
L149440476 70774761
L149464285 70750952
L149488095 70703333
L149488095 70512857
" />
<path d="M149273809 70989047
L149250000 71012857
L149226190 71060476
L149226190 71179523
L149250000 71227142
L149273809 71250952
L149321428 71274761
L149369047 71274761
L149440476 71250952
L149726190 70965238
L149726190 71274761
" />
<path d="M149226190 71584285
L149226190 71631904
L149250000 71679523
L149273809 71703333
L149321428 71727142
L149416666 71750952
L149535714 71750952
L149630952 71727142
L149678571 71703333
L149702380 71679523
L149726190 71631904
L149726190 71584285
L149702380 71536666
L149678571 71512857
L149630952 71489047
L149535714 71465238
L149416666 71465238
L149321428 71489047
L149273809 71512857
L149250000 71536666
L149226190 71584285
" />
</g><text x="143950000.000000" y="61750000.000000"
transform="scale(-1 1) translate(-287900000.000000 0)"
textLength="902500.000000" font-size="666666.000000" lengthAdjust="spacingAndGlyphs"
text-anchor="middle" opacity="0">Q2</text>
<g class="stroked-text"><desc>Q2</desc>
<path d="M143997619 61773809
L144045238 61750000
L144092857 61702380
L144164285 61630952
L144211904 61607142
L144259523 61607142
" />
<path d="M144235714 61726190
L144283333 61702380
L144330952 61654761
L144354761 61559523
L144354761 61392857
L144330952 61297619
L144283333 61250000
L144235714 61226190
L144140476 61226190
L144092857 61250000
L144045238 61297619
L144021428 61392857
L144021428 61559523
L144045238 61654761
L144092857 61702380
L144140476 61726190
L144235714 61726190
" />
<path d="M143830952 61273809
L143807142 61250000
L143759523 61226190
L143640476 61226190
L143592857 61250000
L143569047 61273809
L143545238 61321428
L143545238 61369047
L143569047 61440476
L143854761 61726190
L143545238 61726190
" />
</g><g transform="rotate(-90.000000 138430000.000000 63500000.000000)">
<text x="138430000.000000" y="63750000.000000"
transform="scale(-1 1) translate(-276860000.000000 0)"
textLength="1354881.000000" font-size="666666.000000" lengthAdjust="spacingAndGlyphs"
text-anchor="middle" opacity="0">R18</text>
</g>
<g class="stroked-text"><desc>R18</desc>
<path d="M138656190 63178571
L138418095 63011904
" />
<path d="M138656190 62892857
L138156190 62892857
L138156190 63083333
L138180000 63130952
L138203809 63154761
L138251428 63178571
L138322857 63178571
L138370476 63154761
L138394285 63130952
L138418095 63083333
L138418095 62892857
" />
<path d="M138656190 63654761
L138656190 63369047
" />
<path d="M138656190 63511904
L138156190 63511904
L138227619 63464285
L138275238 63416666
L138299047 63369047
" />
<path d="M138370476 63940476
L138346666 63892857
L138322857 63869047
L138275238 63845238
L138251428 63845238
L138203809 63869047
L138180000 63892857
L138156190 63940476
L138156190 64035714
L138180000 64083333
L138203809 64107142
L138251428 64130952
L138275238 64130952
L138322857 64107142
L138346666 64083333
L138370476 64035714
L138370476 63940476
L138394285 63892857
L138418095 63869047
L138465714 63845238
L138560952 63845238
L138608571 63869047
L138632380 63892857
L138656190 63940476
L138656190 64035714
L138632380 64083333
L138608571 64107142
L138560952 64130952
L138465714 64130952
L138418095 64107142
L138394285 64083333
L138370476 64035714
" />
</g><text x="150000000.000000" y="75750000.000000"
transform="scale(-1 1) translate(-300000000.000000 0)"
textLength="878690.000000" font-size="666666.000000" lengthAdjust="spacingAndGlyphs"
text-anchor="middle" opacity="0">C1</text>
<g class="stroked-text"><desc>C1</desc>
<path d="M150083333 75678571
L150107142 75702380
L150178571 75726190
L150226190 75726190
L150297619 75702380
L150345238 75654761
L150369047 75607142
L150392857 75511904
L150392857 75440476
L150369047 75345238
L150345238 75297619
L150297619 75250000
L150226190 75226190
L150178571 75226190
L150107142 75250000
L150083333 75273809
" />
<path d="M149607142 75726190
L149892857 75726190
" />
<path d="M149750000 75726190
L149750000 75226190
L149797619 75297619
L149845238 75345238
L149892857 75369047
" />
</g><text x="147320000.000000" y="65528000.000000"
transform="scale(-1 1) translate(-294640000.000000 0)"
textLength="1354881.000000" font-size="666666.000000" lengthAdjust="spacingAndGlyphs"
text-anchor="middle" opacity="0">R14</text>
<g class="stroked-text"><desc>R14</desc>
<path d="M147641428 65504190
L147808095 65266095
" />
<path d="M147927142 65504190
L147927142 65004190
L147736666 65004190
L147689047 65028000
L147665238 65051809
L147641428 65099428
L147641428 65170857
L147665238 65218476
L147689047 65242285
L147736666 65266095
L147927142 65266095
" />
<path d="M147165238 65504190
L147450952 65504190
" />
<path d="M147308095 65504190
L147308095 65004190
L147355714 65075619
L147403333 65123238
L147450952 65147047
" />
<path d="M146736666 65170857
L146736666 65504190
" />
<path d="M146855714 64980380
L146974761 65337523
L146665238 65337523
" />
</g><text x="154000000.000000" y="74302000.000000"
transform="scale(-1 1) translate(-308000000.000000 0)"
textLength="1259643.000000" font-size="666666.000000" lengthAdjust="spacingAndGlyphs"
text-anchor="middle" opacity="0">TP2</text>
<g class="stroked-text"><desc>TP2</desc>
<path d="M154630952 73778190
L154345238 73778190
" />
<path d="M154488095 74278190
L154488095 73778190
" />
<path d="M154178571 74278190
L154178571 73778190
L153988095 73778190
L153940476 73802000
L153916666 73825809
L153892857 73873428
L153892857 73944857
L153916666 73992476
L153940476 74016285
L153988095 74040095
L154178571 74040095
" />
<path d="M153702380 73825809
L153678571 73802000
L153630952 73778190
L153511904 73778190
L153464285 73802000
L153440476 73825809
L153416666 73873428
L153416666 73921047
L153440476 73992476
L153726190 74278190
L153416666 74278190
" />
</g><text x="139250000.000000" y="71000000.000000"
transform="scale(-1 1) translate(-278500000.000000 0)"
textLength="1259643.000000" font-size="666666.000000" lengthAdjust="spacingAndGlyphs"
text-anchor="middle" opacity="0">TP8</text>
<g class="stroked-text"><desc>TP8</desc>
<path d="M139880952 70476190
L139595238 70476190
" />
<path d="M139738095 70976190
L139738095 70476190
" />
<path d="M139428571 70976190
L139428571 70476190
L139238095 70476190
L139190476 70500000
L139166666 70523809
L139142857 70571428
L139142857 70642857
L139166666 70690476
L139190476 70714285
L139238095 70738095
L139428571 70738095
" />
<path d="M138857142 70690476
L138904761 70666666
L138928571 70642857
L138952380 70595238
L138952380 70571428
L138928571 70523809
L138904761 70500000
L138857142 70476190
L138761904 70476190
L138714285 70500000
L138690476 70523809
L138666666 70571428
L138666666 70595238
L138690476 70642857
L138714285 70666666
L138761904 70690476
L138857142 70690476
L138904761 70714285
L138928571 70738095
L138952380 70785714
L138952380 70880952
L138928571 70928571
L138904761 70952380
L138857142 70976190
L138761904 70976190
L138714285 70952380
L138690476 70928571
L138666666 70880952
L138666666 70785714
L138690476 70738095
L138714285 70714285
L138761904 70690476
" />
</g><text x="145250000.000000" y="59000000.000000"
transform="scale(-1 1) translate(-290500000.000000 0)"
textLength="1259643.000000" font-size="666666.000000" lengthAdjust="spacingAndGlyphs"
text-anchor="middle" opacity="0">TP9</text>
<g class="stroked-text"><desc>TP9</desc>
<path d="M145880952 58476190
L145595238 58476190
" />
<path d="M145738095 58976190
L145738095 58476190
" />
<path d="M145428571 58976190
L145428571 58476190
L145238095 58476190
L145190476 58500000
L145166666 58523809
L145142857 58571428
L145142857 58642857
L145166666 58690476
L145190476 58714285
L145238095 58738095
L145428571 58738095
" />
<path d="M144904761 58976190
L144809523 58976190
L144761904 58952380
L144738095 58928571
L144690476 58857142
L144666666 58761904
L144666666 58571428
L144690476 58523809
L144714285 58500000
L144761904 58476190
L144857142 58476190
L144904761 58500000
L144928571 58523809
L144952380 58571428
L144952380 58690476
L144928571 58738095
L144904761 58761904
L144857142 58785714
L144761904 58785714
L144714285 58761904
L144690476 58738095
L144666666 58690476
" />
</g><text x="136906000.000000" y="57908000.000000"
transform="scale(-1 1) translate(-273812000.000000 0)"
textLength="1354881.000000" font-size="666666.000000" lengthAdjust="spacingAndGlyphs"
text-anchor="middle" opacity="0">R11</text>
<g class="stroked-text"><desc>R11</desc>
<path d="M137227428 57884190
L137394095 57646095
" />
<path d="M137513142 57884190
L137513142 57384190
L137322666 57384190
L137275047 57408000
L137251238 57431809
L137227428 57479428
L137227428 57550857
L137251238 57598476
L137275047 57622285
L137322666 57646095
L137513142 57646095
" />
<path d="M136751238 57884190
L137036952 57884190
" />
<path d="M136894095 57884190
L136894095 57384190
L136941714 57455619
L136989333 57503238
L137036952 57527047
" />
<path d="M136275047 57884190
L136560761 57884190
" />
<path d="M136417904 57884190
L136417904 57384190
L136465523 57455619
L136513142 57503238
L136560761 57527047
" />
</g><text x="139818000.000000" y="57936000.000000"
transform="scale(-1 1) translate(-279636000.000000 0)"
textLength="1354881.000000" font-size="666666.000000" lengthAdjust="spacingAndGlyphs"
text-anchor="middle" opacity="0">R13</text>
<g class="stroked-text"><desc>R13</desc>
<path d="M140139428 57912190
L140306095 57674095
" />
<path d="M140425142 57912190
L140425142 57412190
L140234666 57412190
L140187047 57436000
L140163238 57459809
L140139428 57507428
L140139428 57578857
L140163238 57626476
L140187047 57650285
L140234666 57674095
L140425142 57674095
" />
<path d="M139663238 57912190
L139948952 57912190
" />
<path d="M139806095 57912190
L139806095 57412190
L139853714 57483619
L139901333 57531238
L139948952 57555047
" />
<path d="M139496571 57412190
L139187047 57412190
L139353714 57602666
L139282285 57602666
L139234666 57626476
L139210857 57650285
L139187047 57697904
L139187047 57816952
L139210857 57864571
L139234666 57888380
L139282285 57912190
L139425142 57912190
L139472761 57888380
L139496571 57864571
" />
</g><g transform="rotate(-90.000000 127075000.000000 65250000.000000)">
<text x="127075000.000000" y="65500000.000000"
transform="scale(-1 1) translate(-254150000.000000 0)"
textLength="902500.000000" font-size="666666.000000" lengthAdjust="spacingAndGlyphs"
text-anchor="middle" opacity="0">U4</text>
</g>
<g class="stroked-text"><desc>U4</desc>
<path d="M126801190 64869047
L127205952 64869047
L127253571 64892857
L127277380 64916666
L127301190 64964285
L127301190 65059523
L127277380 65107142
L127253571 65130952
L127205952 65154761
L126801190 65154761
" />
<path d="M126967857 65607142
L127301190 65607142
" />
<path d="M126777380 65488095
L127134523 65369047
L127134523 65678571
" />
</g><text x="132250000.000000" y="58250000.000000"
transform="scale(-1 1) translate(-264500000.000000 0)"
textLength="878690.000000" font-size="666666.000000" lengthAdjust="spacingAndGlyphs"
text-anchor="middle" opacity="0">D2</text>
<g class="stroked-text"><desc>D2</desc>
<path d="M132619047 58226190
L132619047 57726190
L132500000 57726190
L132428571 57750000
L132380952 57797619
L132357142 57845238
L132333333 57940476
L132333333 58011904
L132357142 58107142
L132380952 58154761
L132428571 58202380
L132500000 58226190
L132619047 58226190
" />
<path d="M132142857 57773809
L132119047 57750000
L132071428 57726190
L131952380 57726190
L131904761 57750000
L131880952 57773809
L131857142 57821428
L131857142 57869047
L131880952 57940476
L132166666 58226190
L131857142 58226190
" />
</g><text x="148000000.000000" y="58750000.000000"
transform="scale(-1 1) translate(-296000000.000000 0)"
textLength="1354881.000000" font-size="666666.000000" lengthAdjust="spacingAndGlyphs"
text-anchor="middle" opacity="0">R15</text>
<g class="stroked-text"><desc>R15</desc>
<path d="M148321428 58726190
L148488095 58488095
" />
<path d="M148607142 58726190
L148607142 58226190
L148416666 58226190
L148369047 58250000
L148345238 58273809
L148321428 58321428
L148321428 58392857
L148345238 58440476
L148369047 58464285
L148416666 58488095
L148607142 58488095
" />
<path d="M147845238 58726190
L148130952 58726190
" />
<path d="M147988095 58726190
L147988095 58226190
L148035714 58297619
L148083333 58345238
L148130952 58369047
" />
<path d="M147392857 58226190
L147630952 58226190
L147654761 58464285
L147630952 58440476
L147583333 58416666
L147464285 58416666
L147416666 58440476
L147392857 58464285
L147369047 58511904
L147369047 58630952
L147392857 58678571
L147416666 58702380
L147464285 58726190
L147583333 58726190
L147630952 58702380
L147654761 58678571
" />
</g><text x="139750000.000000" y="60250000.000000"
transform="scale(-1 1) translate(-279500000.000000 0)"
textLength="1354881.000000" font-size="666666.000000" lengthAdjust="spacingAndGlyphs"
text-anchor="middle" opacity="0">C19</text>
<g class="stroked-text"><desc>C19</desc>
<path d="M140071428 60178571
L140095238 60202380
L140166666 60226190
L140214285 60226190
L140285714 60202380
L140333333 60154761
L140357142 60107142
L140380952 60011904
L140380952 59940476
L140357142 59845238
L140333333 59797619
L140285714 59750000
L140214285 59726190
L140166666 59726190
L140095238 59750000
L140071428 59773809
" />
<path d="M139595238 60226190
L139880952 60226190
" />
<path d="M139738095 60226190
L139738095 59726190
L139785714 59797619
L139833333 59845238
L139880952 59869047
" />
<path d="M139357142 60226190
L139261904 60226190
L139214285 60202380
L139190476 60178571
L139142857 60107142
L139119047 60011904
L139119047 59821428
L139142857 59773809
L139166666 59750000
L139214285 59726190
L139309523 59726190
L139357142 59750000
L139380952 59773809
L139404761 59821428
L139404761 59940476
L139380952 59988095
L139357142 60011904
L139309523 60035714
L139214285 60035714
L139166666 60011904
L139142857 59988095
L139119047 59940476
" />
</g><text x="150750000.000000" y="77250000.000000"
transform="scale(-1 1) translate(-301500000.000000 0)"
textLength="1259643.000000" font-size="666666.000000" lengthAdjust="spacingAndGlyphs"
text-anchor="middle" opacity="0">TP4</text>
<g class="stroked-text"><desc>TP4</desc>
<path d="M151380952 76726190
L151095238 76726190
" />
<path d="M151238095 77226190
L151238095 76726190
" />
<path d="M150928571 77226190
L150928571 76726190
L150738095 76726190
L150690476 76750000
L150666666 76773809
L150642857 76821428
L150642857 76892857
L150666666 76940476
L150690476 76964285
L150738095 76988095
L150928571 76988095
" />
<path d="M150214285 76892857
L150214285 77226190
" />
<path d="M150333333 76702380
L150452380 77059523
L150142857 77059523
" />
</g><text x="146000000.000000" y="71500000.000000"
transform="scale(-1 1) translate(-292000000.000000 0)"
textLength="902500.000000" font-size="666666.000000" lengthAdjust="spacingAndGlyphs"
text-anchor="middle" opacity="0">U1</text>
<g class="stroked-text"><desc>U1</desc>
<path d="M146380952 70976190
L146380952 71380952
L146357142 71428571
L146333333 71452380
L146285714 71476190
L146190476 71476190
L146142857 71452380
L146119047 71428571
L146095238 71380952
L146095238 70976190
" />
<path d="M145595238 71476190
L145880952 71476190
" />
<path d="M145738095 71476190
L145738095 70976190
L145785714 71047619
L145833333 71095238
L145880952 71119047
" />
</g><g transform="rotate(-90.000000 138430000.000000 68199000.000000)">
<text x="138430000.000000" y="68449000.000000"
transform="scale(-1 1) translate(-276860000.000000 0)"
textLength="1354881.000000" font-size="666666.000000" lengthAdjust="spacingAndGlyphs"
text-anchor="middle" opacity="0">R16</text>
</g>
<g class="stroked-text"><desc>R16</desc>
<path d="M138656190 67877571
L138418095 67710904
" />
<path d="M138656190 67591857
L138156190 67591857
L138156190 67782333
L138180000 67829952
L138203809 67853761
L138251428 67877571
L138322857 67877571
L138370476 67853761
L138394285 67829952
L138418095 67782333
L138418095 67591857
" />
<path d="M138656190 68353761
L138656190 68068047
" />
<path d="M138656190 68210904
L138156190 68210904
L138227619 68163285
L138275238 68115666
L138299047 68068047
" />
<path d="M138156190 68782333
L138156190 68687095
L138180000 68639476
L138203809 68615666
L138275238 68568047
L138370476 68544238
L138560952 68544238
L138608571 68568047
L138632380 68591857
L138656190 68639476
L138656190 68734714
L138632380 68782333
L138608571 68806142
L138560952 68829952
L138441904 68829952
L138394285 68806142
L138370476 68782333
L138346666 68734714
L138346666 68639476
L138370476 68591857
L138394285 68568047
L138441904 68544238
" />
</g><text x="129550000.000000" y="69825000.000000"
transform="scale(-1 1) translate(-259100000.000000 0)"
textLength="878690.000000" font-size="666666.000000" lengthAdjust="spacingAndGlyphs"
text-anchor="middle" opacity="0">C4</text>
<g class="stroked-text"><desc>C4</desc>
<path d="M129633333 69753571
L129657142 69777380
L129728571 69801190
L129776190 69801190
L129847619 69777380
L129895238 69729761
L129919047 69682142
L129942857 69586904
L129942857 69515476
L129919047 69420238
L129895238 69372619
L129847619 69325000
L129776190 69301190
L129728571 69301190
L129657142 69325000
L129633333 69348809
" />
<path d="M129204761 69467857
L129204761 69801190
" />
<path d="M129323809 69277380
L129442857 69634523
L129133333 69634523
" />
</g><text x="141750000.000000" y="73500000.000000"
transform="scale(-1 1) translate(-283500000.000000 0)"
textLength="1354881.000000" font-size="666666.000000" lengthAdjust="spacingAndGlyphs"
text-anchor="middle" opacity="0">R19</text>
<g class="stroked-text"><desc>R19</desc>
<path d="M142071428 73476190
L142238095 73238095
" />
<path d="M142357142 73476190
L142357142 72976190
L142166666 72976190
L142119047 73000000
L142095238 73023809
L142071428 73071428
L142071428 73142857
L142095238 73190476
L142119047 73214285
L142166666 73238095
L142357142 73238095
" />
<path d="M141595238 73476190
L141880952 73476190
" />
<path d="M141738095 73476190
L141738095 72976190
L141785714 73047619
L141833333 73095238
L141880952 73119047
" />
<path d="M141357142 73476190
L141261904 73476190
L141214285 73452380
L141190476 73428571
L141142857 73357142
L141119047 73261904
L141119047 73071428
L141142857 73023809
L141166666 73000000
L141214285 72976190
L141309523 72976190
L141357142 73000000
L141380952 73023809
L141404761 73071428
L141404761 73190476
L141380952 73238095
L141357142 73261904
L141309523 73285714
L141214285 73285714
L141166666 73261904
L141142857 73238095
L141119047 73190476
" />
</g><text x="128651000.000000" y="58250000.000000"
transform="scale(-1 1) translate(-257302000.000000 0)"
textLength="878690.000000" font-size="666666.000000" lengthAdjust="spacingAndGlyphs"
text-anchor="middle" opacity="0">C3</text>
<g class="stroked-text"><desc>C3</desc>
<path d="M128734333 58178571
L128758142 58202380
L128829571 58226190
L128877190 58226190
L128948619 58202380
L128996238 58154761
L129020047 58107142
L129043857 58011904
L129043857 57940476
L129020047 57845238
L128996238 57797619
L128948619 57750000
L128877190 57726190
L128829571 57726190
L128758142 57750000
L128734333 57773809
" />
<path d="M128567666 57726190
L128258142 57726190
L128424809 57916666
L128353380 57916666
L128305761 57940476
L128281952 57964285
L128258142 58011904
L128258142 58130952
L128281952 58178571
L128305761 58202380
L128353380 58226190
L128496238 58226190
L128543857 58202380
L128567666 58178571
" />
</g></g>
<g style="fill:#000000; fill-opacity:1.0; 
stroke:#000000; stroke-width:1.000000; stroke-opacity:1; 
stroke-linecap:round; stroke-linejoin:round;">
<path style="fill:#000000; fill-opacity:1.0; 
stroke:#000000; stroke-width:1.000000; stroke-opacity:1; 
stroke-linecap:round; stroke-linejoin:round;fill-rule:evenodd;"
d="M 155498717.000000,63550717.000000
155803572.000000,63550717.000000
155803572.000000,63245861.000000
156108428.000000,63245861.000000
156108428.000000,63855572.000000
155193861.000000,63855572.000000
155193861.000000,63245861.000000
155498717.000000,63245861.000000
Z" /> 
<path style="fill:#000000; fill-opacity:1.0; 
stroke:#000000; stroke-width:1.000000; stroke-opacity:1; 
stroke-linecap:round; stroke-linejoin:round;fill-rule:evenodd;"
d="M 158228559.000000,65670848.000000
157923703.000000,65670848.000000
157923703.000000,65365992.000000
158228559.000000,65365992.000000
Z" /> 
<path style="fill:#000000; fill-opacity:1.0; 
stroke:#000000; stroke-width:1.000000; stroke-opacity:1; 
stroke-linecap:round; stroke-linejoin:round;fill-rule:evenodd;"
d="M 153378586.000000,64160428.000000
153988297.000000,64160428.000000
153988297.000000,64465283.000000
153073730.000000,64465283.000000
153073730.000000,63855572.000000
153378586.000000,63855572.000000
Z" /> 
<path style="fill:#000000; fill-opacity:1.0; 
stroke:#000000; stroke-width:1.000000; stroke-opacity:1; 
stroke-linecap:round; stroke-linejoin:round;fill-rule:evenodd;"
d="M 153683441.000000,65074994.000000
153378586.000000,65074994.000000
153378586.000000,64770139.000000
153683441.000000,64770139.000000
Z" /> 
<path style="fill:#000000; fill-opacity:1.0; 
stroke:#000000; stroke-width:1.000000; stroke-opacity:1; 
stroke-linecap:round; stroke-linejoin:round;fill-rule:evenodd;"
d="M 160958400.000000,59005600.000000
160958400.000000,69010400.000000
150953600.000000,69010400.000000
150953600.000000,66280559.000000
151563310.000000,66280559.000000
151563310.000000,68400690.000000
155193861.000000,68400690.000000
155193861.000000,68095834.000000
154598008.000000,68095834.000000
154598008.000000,68400690.000000
153683441.000000,68400690.000000
153683441.000000,66280559.000000
151563310.000000,66280559.000000
150953600.000000,66280559.000000
150953600.000000,63245861.000000
151563310.000000,63245861.000000
151563310.000000,64465283.000000
151868706.000000,64465283.000000
151864972.000000,64766674.000000
151861237.000000,65068066.000000
151712274.000000,65071999.000000
151563310.000000,65075932.000000
151563310.000000,65975703.000000
151868166.000000,65975703.000000
151868166.000000,65680086.000000
152464020.000000,65680086.000000
152464020.000000,65975703.000000
152768875.000000,65975703.000000
152768875.000000,65670848.000000
153073730.000000,65670848.000000
153073730.000000,65975703.000000
153683441.000000,65975703.000000
153683441.000000,65670848.000000
153073730.000000,65670848.000000
152768875.000000,65670848.000000
152768875.000000,65365992.000000
152625685.000000,65365992.000000
152582042.000000,65366425.000000
152528531.000000,65368323.000000
152490177.000000,65371385.000000
152473258.000000,65375230.000000
152472278.000000,65377871.000000
152469643.000000,65402542.000000
152467373.000000,65449284.000000
152465595.000000,65513913.000000
152464434.000000,65592242.000000
152464020.000000,65680086.000000
151868166.000000,65680086.000000
151868166.000000,65670848.000000
152173331.000000,65670848.000000
152172568.000000,65369457.000000
152172541.000000,65358462.000000
152172344.000000,65257626.000000
152172231.000000,65156195.000000
152172203.000000,65061246.000000
152172263.000000,64979856.000000
152172413.000000,64919102.000000
152173021.000000,64770139.000000
152767937.000000,64770139.000000
152771870.000000,64919102.000000
152775804.000000,65068066.000000
153077195.000000,65071800.000000
153378586.000000,65075535.000000
153378586.000000,65365992.000000
153683441.000000,65365992.000000
153683441.000000,65075932.000000
153832405.000000,65071999.000000
153981368.000000,65068066.000000
153985301.000000,64919102.000000
153989234.000000,64770139.000000
154293152.000000,64770139.000000
154293152.000000,65365992.000000
154598008.000000,65365992.000000
154598008.000000,65670848.000000
154294090.000000,65670848.000000
154290157.000000,65521884.000000
154286224.000000,65372921.000000
154137260.000000,65368988.000000
153988297.000000,65365055.000000
153988297.000000,65975703.000000
154293152.000000,65975703.000000
154293152.000000,66280559.000000
153988297.000000,66280559.000000
153988297.000000,66890270.000000
154598945.000000,66890270.000000
154591079.000000,67188196.000000
154442116.000000,67192130.000000
154293152.000000,67196063.000000
154293152.000000,67790979.000000
154889006.000000,67790979.000000
154889006.000000,67195125.000000
155497779.000000,67195125.000000
155501712.000000,67344088.000000
155505645.000000,67493052.000000
155654609.000000,67496985.000000
155803572.000000,67500918.000000
155803572.000000,67790041.000000
155654609.000000,67793974.000000
155505645.000000,67797907.000000
155501712.000000,67946871.000000
155497779.000000,68095834.000000
155803572.000000,68095834.000000
155803572.000000,67790979.000000
156108428.000000,67790979.000000
156108428.000000,68400690.000000
156413283.000000,68400690.000000
156413283.000000,68095294.000000
156714674.000000,68099028.000000
157016065.000000,68102763.000000
157019998.000000,68251726.000000
157023932.000000,68400690.000000
157618848.000000,68400690.000000
157618848.000000,68095834.000000
157313992.000000,68095834.000000
157313992.000000,67790979.000000
157923703.000000,67790979.000000
157923703.000000,67499980.000000
157618848.000000,67499980.000000
157618848.000000,67196063.000000
157469884.000000,67192130.000000
157320921.000000,67188196.000000
157313055.000000,66890270.000000
157618848.000000,66890270.000000
157618848.000000,66585414.000000
157923703.000000,66585414.000000
157923703.000000,66280559.000000
158228559.000000,66280559.000000
158228559.000000,68400690.000000
160348690.000000,68400690.000000
160348690.000000,66280559.000000
158228559.000000,66280559.000000
157923703.000000,66280559.000000
157618848.000000,66280559.000000
157618848.000000,66585414.000000
157313992.000000,66585414.000000
157313992.000000,65975703.000000
156718139.000000,65975703.000000
156718139.000000,66280559.000000
156413283.000000,66280559.000000
156413283.000000,66585414.000000
156108428.000000,66585414.000000
156108428.000000,66890270.000000
155803572.000000,66890270.000000
155803572.000000,67195125.000000
155497779.000000,67195125.000000
154889006.000000,67195125.000000
154889006.000000,66890270.000000
155193861.000000,66890270.000000
155193861.000000,66585414.000000
155498717.000000,66585414.000000
155498717.000000,66280559.000000
155803572.000000,66280559.000000
155803572.000000,66585414.000000
156108428.000000,66585414.000000
156108428.000000,66280559.000000
155803572.000000,66280559.000000
155803572.000000,65975703.000000
156108428.000000,65975703.000000
156108428.000000,65670848.000000
155803572.000000,65670848.000000
155803572.000000,65366065.000000
156413283.000000,65366065.000000
156413283.000000,65670848.000000
157023932.000000,65670848.000000
157019998.000000,65521884.000000
157016065.000000,65372921.000000
156413283.000000,65366065.000000
155803572.000000,65366065.000000
155803572.000000,65365992.000000
156108428.000000,65365992.000000
156108428.000000,65075932.000000
156257391.000000,65071999.000000
156406355.000000,65068066.000000
156410285.000000,64919371.000000
156414215.000000,64770677.000000
156457573.000000,64770139.000000
157022994.000000,64770139.000000
157022994.000000,65365992.000000
157618848.000000,65365992.000000
157618848.000000,65075932.000000
157469884.000000,65071999.000000
157320921.000000,65068066.000000
157316988.000000,64919102.000000
157313055.000000,64770139.000000
157617910.000000,64770139.000000
157621843.000000,64919102.000000
157625776.000000,65068066.000000
157774740.000000,65071999.000000
157923703.000000,65075932.000000
157923703.000000,65365055.000000
157774740.000000,65368988.000000
157625776.000000,65372921.000000
157621843.000000,65521884.000000
157617910.000000,65670848.000000
157923703.000000,65670848.000000
157923703.000000,65975703.000000
158228559.000000,65975703.000000
158228559.000000,65670848.000000
158533414.000000,65670848.000000
158533414.000000,65975703.000000
158838269.000000,65975703.000000
158838269.000000,65670848.000000
158533414.000000,65670848.000000
158533414.000000,65365992.000000
158228559.000000,65365992.000000
158228559.000000,65074994.000000
157923703.000000,65074994.000000
157923703.000000,64770139.000000
157617910.000000,64770139.000000
157313055.000000,64770139.000000
157022994.000000,64770139.000000
156457573.000000,64770139.000000
156715140.000000,64766943.000000
157016065.000000,64763210.000000
157019998.000000,64614247.000000
157023932.000000,64465283.000000
157313992.000000,64465283.000000
157313992.000000,63550717.000000
157023932.000000,63550717.000000
157019998.000000,63401753.000000
157016065.000000,63252790.000000
156753628.000000,63245861.000000
156718139.000000,63244924.000000
156718139.000000,63550717.000000
156413283.000000,63550717.000000
156413283.000000,63245861.000000
156108428.000000,63245861.000000
156108428.000000,62345152.000000
155803572.000000,62345152.000000
155803572.000000,62941006.000000
155498717.000000,62941006.000000
155498717.000000,62650008.000000
155193861.000000,62650008.000000
155193861.000000,63244924.000000
155044898.000000,63248857.000000
154895934.000000,63252790.000000
154892281.000000,63706609.000000
154888627.000000,64160428.000000
154598008.000000,64160428.000000
154598008.000000,63245861.000000
154889006.000000,63245861.000000
154889006.000000,62650008.000000
154598008.000000,62650008.000000
154598008.000000,62941006.000000
154293152.000000,62941006.000000
154293152.000000,62346090.000000
154442116.000000,62342157.000000
154591079.000000,62338224.000000
154595012.000000,62189260.000000
154598945.000000,62040297.000000
155192924.000000,62040297.000000
155196857.000000,62189260.000000
155200790.000000,62338224.000000
155349753.000000,62342157.000000
155498717.000000,62346090.000000
155498717.000000,62040297.000000
155193861.000000,62040297.000000
155193861.000000,61735441.000000
155803572.000000,61735441.000000
155803572.000000,62040297.000000
156108428.000000,62040297.000000
156108428.000000,61735441.000000
155803572.000000,61735441.000000
155193861.000000,61735441.000000
155193861.000000,61430586.000000
154889006.000000,61430586.000000
154889006.000000,61125731.000000
155803572.000000,61125731.000000
155803572.000000,61430586.000000
156413283.000000,61430586.000000
156413283.000000,62040297.000000
156108428.000000,62040297.000000
156108428.000000,62345152.000000
156718139.000000,62345152.000000
156718139.000000,61735441.000000
157022994.000000,61735441.000000
157022994.000000,61430586.000000
157313992.000000,61430586.000000
157313992.000000,61125731.000000
157023932.000000,61125731.000000
157019998.000000,60976767.000000
157016065.000000,60827804.000000
156714674.000000,60824069.000000
156413283.000000,60820335.000000
156413283.000000,61125731.000000
155803572.000000,61125731.000000
154889006.000000,61125731.000000
154889006.000000,60820875.000000
155803572.000000,60820875.000000
155803572.000000,60516020.000000
155498717.000000,60516020.000000
155498717.000000,60225021.000000
156413283.000000,60225021.000000
156413283.000000,60516020.000000
156718139.000000,60516020.000000
156718139.000000,60225021.000000
156413283.000000,60225021.000000
155498717.000000,60225021.000000
155193861.000000,60225021.000000
155193861.000000,60515082.000000
155044898.000000,60519015.000000
154895934.000000,60522948.000000
154892001.000000,60671912.000000
154888068.000000,60820875.000000
154598008.000000,60820875.000000
154598008.000000,60516020.000000
154889006.000000,60516020.000000
154889006.000000,59920166.000000
154293152.000000,59920166.000000
154293152.000000,60516020.000000
153988297.000000,60516020.000000
153988297.000000,60820875.000000
154293152.000000,60820875.000000
154293152.000000,61125731.000000
153988297.000000,61125731.000000
153988297.000000,61430586.000000
154293152.000000,61430586.000000
154293152.000000,61735441.000000
153988297.000000,61735441.000000
153988297.000000,62345152.000000
153683441.000000,62345152.000000
153683441.000000,62650008.000000
153378586.000000,62650008.000000
153378586.000000,62941006.000000
153073730.000000,62941006.000000
153073730.000000,63245861.000000
153378586.000000,63245861.000000
153378586.000000,63550717.000000
152768875.000000,63550717.000000
152768875.000000,64160428.000000
152174052.000000,64160428.000000
152170072.000000,63859037.000000
152169948.000000,63849413.000000
152168959.000000,63747943.000000
152168469.000000,63645195.000000
152168481.000000,63550717.000000
152463082.000000,63550717.000000
152768875.000000,63550717.000000
152768875.000000,63244924.000000
152619912.000000,63248857.000000
152470948.000000,63252790.000000
152467015.000000,63401753.000000
152463082.000000,63550717.000000
152168481.000000,63550717.000000
152168481.000000,63548417.000000
152168994.000000,63464854.000000
152170011.000000,63401753.000000
152173929.000000,63245861.000000
152464020.000000,63245861.000000
152464020.000000,62650008.000000
152173021.000000,62650008.000000
152173021.000000,62941006.000000
151868166.000000,62941006.000000
151868166.000000,63245861.000000
151563310.000000,63245861.000000
150953600.000000,63245861.000000
150953600.000000,62650008.000000
151563310.000000,62650008.000000
151563310.000000,62941006.000000
151868166.000000,62941006.000000
151868166.000000,62650008.000000
151563310.000000,62650008.000000
150953600.000000,62650008.000000
150953600.000000,62040297.000000
151563310.000000,62040297.000000
151563310.000000,62346090.000000
151598837.000000,62345152.000000
151712274.000000,62342157.000000
151861237.000000,62338224.000000
151865170.000000,62189260.000000
151869103.000000,62040297.000000
152173021.000000,62040297.000000
152173021.000000,62345152.000000
152463082.000000,62345152.000000
152467015.000000,62494116.000000
152470948.000000,62643079.000000
152619912.000000,62647012.000000
152768875.000000,62650945.000000
152768875.000000,62941006.000000
153073730.000000,62941006.000000
153073730.000000,62040297.000000
153378586.000000,62040297.000000
153378586.000000,62345152.000000
153683441.000000,62345152.000000
153683441.000000,62040297.000000
153378586.000000,62040297.000000
153073730.000000,62040297.000000
152173021.000000,62040297.000000
151869103.000000,62040297.000000
151563310.000000,62040297.000000
150953600.000000,62040297.000000
150953600.000000,59615310.000000
151563310.000000,59615310.000000
151563310.000000,61735441.000000
153683441.000000,61735441.000000
153683441.000000,59921104.000000
153988297.000000,59921104.000000
154137260.000000,59917170.000000
154286224.000000,59913237.000000
154290157.000000,59764274.000000
154294090.000000,59615310.000000
154888068.000000,59615310.000000
154892001.000000,59764274.000000
154895934.000000,59913237.000000
155044898.000000,59917170.000000
155193861.000000,59921104.000000
155193861.000000,59920166.000000
155802635.000000,59920166.000000
155806568.000000,60069129.000000
155810501.000000,60218093.000000
156406355.000000,60218093.000000
156410288.000000,60069129.000000
156414221.000000,59920166.000000
156718139.000000,59920166.000000
156718139.000000,60225021.000000
156867102.000000,60224188.000000
156941269.000000,60223931.000000
157035944.000000,60224062.000000
157122624.000000,60224676.000000
157197366.000000,60225715.000000
157256227.000000,60227120.000000
157295262.000000,60228833.000000
157310527.000000,60230794.000000
157310948.000000,60232743.000000
157312126.000000,60255536.000000
157313137.000000,60300559.000000
157313925.000000,60363700.000000
157314435.000000,60440850.000000
157314608.000000,60527896.000000
157314566.000000,60820875.000000
157618848.000000,60820875.000000
157618848.000000,61735441.000000
157313992.000000,61735441.000000
157313992.000000,62040297.000000
157022994.000000,62040297.000000
157022994.000000,62345152.000000
156718139.000000,62345152.000000
156718139.000000,62650008.000000
156413283.000000,62650008.000000
156413283.000000,62941006.000000
156718139.000000,62941006.000000
157022994.000000,62941006.000000
157022994.000000,63245861.000000
157313992.000000,63245861.000000
157313992.000000,62941006.000000
157022994.000000,62941006.000000
156718139.000000,62941006.000000
156718139.000000,62650945.000000
157016065.000000,62643079.000000
157019998.000000,62494116.000000
157023932.000000,62345152.000000
157617910.000000,62345152.000000
157621843.000000,62494116.000000
157625776.000000,62643079.000000
157774740.000000,62647012.000000
157923703.000000,62650945.000000
157923703.000000,62940068.000000
157774740.000000,62944002.000000
157625776.000000,62947935.000000
157622194.000000,63706609.000000
157618611.000000,64465283.000000
157923703.000000,64465283.000000
157923703.000000,64770139.000000
158533414.000000,64770139.000000
158838269.000000,64770139.000000
158838269.000000,65365055.000000
158987233.000000,65368988.000000
159136196.000000,65372921.000000
159140129.000000,65521884.000000
159144062.000000,65670848.000000
159447980.000000,65670848.000000
159447980.000000,65527658.000000
160043834.000000,65527658.000000
160043834.000000,65670848.000000
160348690.000000,65670848.000000
160348690.000000,65365992.000000
160205500.000000,65365992.000000
160161857.000000,65366425.000000
160108346.000000,65368323.000000
160069992.000000,65371385.000000
160053072.000000,65375230.000000
160050284.000000,65384721.000000
160046954.000000,65417471.000000
160044678.000000,65467209.000000
160043834.000000,65527658.000000
159447980.000000,65527658.000000
159447980.000000,65365992.000000
160043834.000000,65365992.000000
160043834.000000,64770139.000000
160348690.000000,64770139.000000
160348690.000000,64465283.000000
159738979.000000,64465283.000000
159738979.000000,64770139.000000
159448918.000000,64770139.000000
159444985.000000,64919102.000000
159441052.000000,65068066.000000
159292088.000000,65071999.000000
159143125.000000,65075932.000000
159143125.000000,64771076.000000
159292088.000000,64767143.000000
159441052.000000,64763210.000000
159444985.000000,64614247.000000
159448918.000000,64465283.000000
159143125.000000,64465283.000000
159143125.000000,64770139.000000
158838269.000000,64770139.000000
158533414.000000,64770139.000000
158533414.000000,64465283.000000
158228559.000000,64465283.000000
158228559.000000,64160428.000000
160348690.000000,64160428.000000
160348690.000000,63855572.000000
160043834.000000,63855572.000000
160043834.000000,63245861.000000
160348690.000000,63245861.000000
160348690.000000,62345152.000000
159738979.000000,62345152.000000
159738979.000000,62040297.000000
160348690.000000,62040297.000000
160348690.000000,61735441.000000
160043834.000000,61735441.000000
160043834.000000,61430586.000000
159738979.000000,61430586.000000
159738979.000000,61125731.000000
160348690.000000,61125731.000000
160348690.000000,60820875.000000
160043834.000000,60820875.000000
160043834.000000,60516020.000000
159738979.000000,60516020.000000
159738979.000000,60225021.000000
159143125.000000,60225021.000000
159143125.000000,59921104.000000
159292088.000000,59917170.000000
159441052.000000,59913237.000000
159444985.000000,59764274.000000
159448918.000000,59615310.000000
159739051.000000,59615310.000000
159742479.000000,59916702.000000
159745907.000000,60218093.000000
159894871.000000,60222026.000000
160043834.000000,60225959.000000
160043834.000000,60516020.000000
160348690.000000,60516020.000000
160348690.000000,60225021.000000
160043834.000000,60225021.000000
160043834.000000,59615310.000000
159739051.000000,59615310.000000
159448918.000000,59615310.000000
157618848.000000,59615310.000000
157618848.000000,59920166.000000
157022994.000000,59920166.000000
157022994.000000,59615310.000000
156413283.000000,59615310.000000
156413283.000000,59920166.000000
155802635.000000,59920166.000000
155193861.000000,59920166.000000
155193861.000000,59615310.000000
154888068.000000,59615310.000000
154294090.000000,59615310.000000
153988297.000000,59615310.000000
153988297.000000,59921104.000000
153683441.000000,59921104.000000
153683441.000000,59615310.000000
151563310.000000,59615310.000000
150953600.000000,59615310.000000
150953600.000000,59005600.000000
Z" /> 
<path style="fill:#000000; fill-opacity:1.0; 
stroke:#000000; stroke-width:1.000000; stroke-opacity:1; 
stroke-linecap:round; stroke-linejoin:round;fill-rule:evenodd;"
d="M 155498717.000000,64465283.000000
154889006.000000,64465283.000000
154889006.000000,64160428.000000
155498717.000000,64160428.000000
Z" /> 
<path style="fill:#000000; fill-opacity:1.0; 
stroke:#000000; stroke-width:1.000000; stroke-opacity:1; 
stroke-linecap:round; stroke-linejoin:round;fill-rule:evenodd;"
d="M 159738979.000000,61125731.000000
159143125.000000,61125731.000000
159143125.000000,60820875.000000
159738979.000000,60820875.000000
Z" /> 
<path style="fill:#000000; fill-opacity:1.0; 
stroke:#000000; stroke-width:1.000000; stroke-opacity:1; 
stroke-linecap:round; stroke-linejoin:round;fill-rule:evenodd;"
d="M 156413283.000000,67790979.000000
156108428.000000,67790979.000000
156108428.000000,67499980.000000
156413283.000000,67499980.000000
Z" /> 
<path style="fill:#000000; fill-opacity:1.0; 
stroke:#000000; stroke-width:1.000000; stroke-opacity:1; 
stroke-linecap:round; stroke-linejoin:round;fill-rule:evenodd;"
d="M 157022994.000000,61430586.000000
156718139.000000,61430586.000000
156718139.000000,61125731.000000
157022994.000000,61125731.000000
Z" /> 
<path style="fill:#000000; fill-opacity:1.0; 
stroke:#000000; stroke-width:1.000000; stroke-opacity:1; 
stroke-linecap:round; stroke-linejoin:round;fill-rule:evenodd;"
d="M 157313992.000000,66585414.000000
157313992.000000,66890270.000000
157022994.000000,66890270.000000
157022994.000000,67499980.000000
156718139.000000,67499980.000000
156718139.000000,66890270.000000
157022994.000000,66890270.000000
157022994.000000,66585414.000000
Z" /> 
<path style="fill:#000000; fill-opacity:1.0; 
stroke:#000000; stroke-width:1.000000; stroke-opacity:1; 
stroke-linecap:round; stroke-linejoin:round;fill-rule:evenodd;"
d="M 157022994.000000,66585414.000000
156718139.000000,66585414.000000
156718139.000000,66890270.000000
156413283.000000,66890270.000000
156413283.000000,66585414.000000
156718139.000000,66585414.000000
156718139.000000,66280559.000000
157022994.000000,66280559.000000
Z" /> 
<path style="fill:#000000; fill-opacity:1.0; 
stroke:#000000; stroke-width:1.000000; stroke-opacity:1; 
stroke-linecap:round; stroke-linejoin:round;fill-rule:evenodd;"
d="M 156108428.000000,65074994.000000
155803572.000000,65074994.000000
155803572.000000,64770139.000000
156108428.000000,64770139.000000
Z" /> 
<path style="fill:#000000; fill-opacity:1.0; 
stroke:#000000; stroke-width:1.000000; stroke-opacity:1; 
stroke-linecap:round; stroke-linejoin:round;fill-rule:evenodd;"
d="M 157313992.000000,67790979.000000
157022994.000000,67790979.000000
157022994.000000,67499980.000000
157313992.000000,67499980.000000
Z" /> 
<path style="fill:#000000; fill-opacity:1.0; 
stroke:#000000; stroke-width:1.000000; stroke-opacity:1; 
stroke-linecap:round; stroke-linejoin:round;fill-rule:evenodd;"
d="M 154293152.000000,64160428.000000
153988297.000000,64160428.000000
153988297.000000,63855572.000000
154293152.000000,63855572.000000
Z" /> 
<path style="fill:#000000; fill-opacity:1.0; 
stroke:#000000; stroke-width:1.000000; stroke-opacity:1; 
stroke-linecap:round; stroke-linejoin:round;fill-rule:evenodd;"
d="M 160029977.000000,66599271.000000
160029977.000000,68081977.000000
158547271.000000,68081977.000000
158547271.000000,66890270.000000
158838269.000000,66890270.000000
158838269.000000,67790979.000000
159738979.000000,67790979.000000
159738979.000000,66890270.000000
158838269.000000,66890270.000000
158547271.000000,66890270.000000
158547271.000000,66599271.000000
Z" /> 
<path style="fill:#000000; fill-opacity:1.0; 
stroke:#000000; stroke-width:1.000000; stroke-opacity:1; 
stroke-linecap:round; stroke-linejoin:round;fill-rule:evenodd;"
d="M 153073730.000000,64770139.000000
152768875.000000,64770139.000000
152768875.000000,64465283.000000
153073730.000000,64465283.000000
Z" /> 
<path style="fill:#000000; fill-opacity:1.0; 
stroke:#000000; stroke-width:1.000000; stroke-opacity:1; 
stroke-linecap:round; stroke-linejoin:round;fill-rule:evenodd;"
d="M 157022994.000000,64160428.000000
156718139.000000,64160428.000000
156718139.000000,64465283.000000
156108428.000000,64465283.000000
156108428.000000,63855572.000000
157022994.000000,63855572.000000
Z" /> 
<path style="fill:#000000; fill-opacity:1.0; 
stroke:#000000; stroke-width:1.000000; stroke-opacity:1; 
stroke-linecap:round; stroke-linejoin:round;fill-rule:evenodd;"
d="M 155803572.000000,65975703.000000
155498717.000000,65975703.000000
155498717.000000,65670848.000000
155803572.000000,65670848.000000
Z" /> 
<path style="fill:#000000; fill-opacity:1.0; 
stroke:#000000; stroke-width:1.000000; stroke-opacity:1; 
stroke-linecap:round; stroke-linejoin:round;fill-rule:evenodd;"
d="M 155498717.000000,65670848.000000
155193861.000000,65670848.000000
155193861.000000,65975703.000000
154889006.000000,65975703.000000
154889006.000000,66280559.000000
154598008.000000,66280559.000000
154598008.000000,65975703.000000
154888068.000000,65975703.000000
154892001.000000,65826740.000000
154895934.000000,65677776.000000
155044898.000000,65673843.000000
155193861.000000,65669910.000000
155193861.000000,65366566.000000
154900883.000000,65366609.000000
154870943.000000,65366591.000000
154786747.000000,65366299.000000
154713822.000000,65365690.000000
154656279.000000,65364821.000000
154618228.000000,65363748.000000
154603780.000000,65362527.000000
154602283.000000,65353398.000000
154600504.000000,65319869.000000
154599017.000000,65265541.000000
154597882.000000,65194356.000000
154597157.000000,65110259.000000
154596902.000000,65017193.000000
154597174.000000,64919102.000000
154598008.000000,64770139.000000
155498717.000000,64770139.000000
Z" /> 
<path style="fill:#000000; fill-opacity:1.0; 
stroke:#000000; stroke-width:1.000000; stroke-opacity:1; 
stroke-linecap:round; stroke-linejoin:round;fill-rule:evenodd;"
d="M 153988297.000000,63550717.000000
153683441.000000,63550717.000000
153683441.000000,63245861.000000
153378586.000000,63245861.000000
153378586.000000,62941006.000000
153683441.000000,62941006.000000
153683441.000000,62650008.000000
153988297.000000,62650008.000000
Z" /> 
<path style="fill:#000000; fill-opacity:1.0; 
stroke:#000000; stroke-width:1.000000; stroke-opacity:1; 
stroke-linecap:round; stroke-linejoin:round;fill-rule:evenodd;"
d="M 158838269.000000,60516020.000000
158228559.000000,60516020.000000
158228559.000000,60820875.000000
157923703.000000,60820875.000000
157923703.000000,60225021.000000
158228559.000000,60225021.000000
158228559.000000,59920166.000000
158838269.000000,59920166.000000
Z" /> 
<path style="fill:#000000; fill-opacity:1.0; 
stroke:#000000; stroke-width:1.000000; stroke-opacity:1; 
stroke-linecap:round; stroke-linejoin:round;fill-rule:evenodd;"
d="M 158533414.000000,62941006.000000
158228559.000000,62941006.000000
158228559.000000,62345152.000000
158533414.000000,62345152.000000
Z" /> 
<path style="fill:#000000; fill-opacity:1.0; 
stroke:#000000; stroke-width:1.000000; stroke-opacity:1; 
stroke-linecap:round; stroke-linejoin:round;fill-rule:evenodd;"
d="M 159738979.000000,61735441.000000
159447980.000000,61735441.000000
159447980.000000,62345152.000000
159738979.000000,62345152.000000
159739788.000000,62494116.000000
159739905.000000,62522109.000000
159739961.000000,62612306.000000
159739658.000000,62707782.000000
159739037.000000,62792043.000000
159737476.000000,62941006.000000
160043834.000000,62941006.000000
160043834.000000,63244924.000000
159894871.000000,63248857.000000
159745907.000000,63252790.000000
159743073.000000,63405218.000000
159742512.000000,63437519.000000
159741225.000000,63528319.000000
159740195.000000,63623336.000000
159739608.000000,63706609.000000
159738979.000000,63855572.000000
159448918.000000,63855572.000000
159444985.000000,63706609.000000
159441052.000000,63557645.000000
159292088.000000,63553712.000000
159143125.000000,63549779.000000
159143125.000000,63855572.000000
158533414.000000,63855572.000000
158533414.000000,63550717.000000
158838269.000000,63550717.000000
158838269.000000,62941006.000000
159143125.000000,62941006.000000
159143125.000000,63245861.000000
159448918.000000,63245861.000000
159441052.000000,62947935.000000
159292088.000000,62944002.000000
159143125.000000,62940068.000000
159143125.000000,61430586.000000
159738979.000000,61430586.000000
Z" /> 
<path style="fill:#000000; fill-opacity:1.0; 
stroke:#000000; stroke-width:1.000000; stroke-opacity:1; 
stroke-linecap:round; stroke-linejoin:round;fill-rule:evenodd;"
d="M 158228559.000000,64160428.000000
157923703.000000,64160428.000000
157923703.000000,63855572.000000
158228559.000000,63855572.000000
Z" /> 
<path style="fill:#000000; fill-opacity:1.0; 
stroke:#000000; stroke-width:1.000000; stroke-opacity:1; 
stroke-linecap:round; stroke-linejoin:round;fill-rule:evenodd;"
d="M 154598008.000000,66585414.000000
154293152.000000,66585414.000000
154293152.000000,66280559.000000
154598008.000000,66280559.000000
Z" /> 
<path style="fill:#000000; fill-opacity:1.0; 
stroke:#000000; stroke-width:1.000000; stroke-opacity:1; 
stroke-linecap:round; stroke-linejoin:round;fill-rule:evenodd;"
d="M 155803572.000000,64770139.000000
155498717.000000,64770139.000000
155498717.000000,64465283.000000
155803572.000000,64465283.000000
Z" /> 
<path style="fill:#000000; fill-opacity:1.0; 
stroke:#000000; stroke-width:1.000000; stroke-opacity:1; 
stroke-linecap:round; stroke-linejoin:round;fill-rule:evenodd;"
d="M 158838269.000000,61125731.000000
158838269.000000,62040297.000000
157923703.000000,62040297.000000
157923703.000000,61430586.000000
158228559.000000,61430586.000000
158228559.000000,61735441.000000
158533414.000000,61735441.000000
158533414.000000,61430586.000000
158228559.000000,61430586.000000
157923703.000000,61430586.000000
157923703.000000,61125731.000000
Z" /> 
<path style="fill:#000000; fill-opacity:1.0; 
stroke:#000000; stroke-width:1.000000; stroke-opacity:1; 
stroke-linecap:round; stroke-linejoin:round;fill-rule:evenodd;"
d="M 153364729.000000,59934023.000000
153364729.000000,61416729.000000
151882023.000000,61416729.000000
151882023.000000,60225021.000000
152173021.000000,60225021.000000
152173021.000000,61125731.000000
153073730.000000,61125731.000000
153073730.000000,60225021.000000
152173021.000000,60225021.000000
151882023.000000,60225021.000000
151882023.000000,59934023.000000
Z" /> 
<path style="fill:#000000; fill-opacity:1.0; 
stroke:#000000; stroke-width:1.000000; stroke-opacity:1; 
stroke-linecap:round; stroke-linejoin:round;fill-rule:evenodd;"
d="M 153683441.000000,63855572.000000
153378586.000000,63855572.000000
153378586.000000,63550717.000000
153683441.000000,63550717.000000
Z" /> 
<path style="fill:#000000; fill-opacity:1.0; 
stroke:#000000; stroke-width:1.000000; stroke-opacity:1; 
stroke-linecap:round; stroke-linejoin:round;fill-rule:evenodd;"
d="M 153364729.000000,66599271.000000
153364729.000000,68081977.000000
151882023.000000,68081977.000000
151882023.000000,66890270.000000
152173021.000000,66890270.000000
152173021.000000,67790979.000000
153073730.000000,67790979.000000
153073730.000000,66890270.000000
152173021.000000,66890270.000000
151882023.000000,66890270.000000
151882023.000000,66599271.000000
Z" /> 
<path style="fill:#000000; fill-opacity:1.0; 
stroke:#000000; stroke-width:1.000000; stroke-opacity:1; 
stroke-linecap:round; stroke-linejoin:round;fill-rule:evenodd;"
d="M 155193861.000000,66585414.000000
154889006.000000,66585414.000000
154889006.000000,66280559.000000
155193861.000000,66280559.000000
Z" /> 
<path style="fill:#000000; fill-opacity:1.0; 
stroke:#000000; stroke-width:1.000000; stroke-opacity:1; 
stroke-linecap:round; stroke-linejoin:round;fill-rule:evenodd;"
d="M 156108428.000000,67499980.000000
155803572.000000,67499980.000000
155803572.000000,67195125.000000
156108428.000000,67195125.000000
Z" /> 
<path style="fill:#000000; fill-opacity:1.0; 
stroke:#000000; stroke-width:1.000000; stroke-opacity:1; 
stroke-linecap:round; stroke-linejoin:round;fill-rule:evenodd;"
d="M 158533414.000000,63550717.000000
157923703.000000,63550717.000000
157923703.000000,63245861.000000
158533414.000000,63245861.000000
Z" /> 
<path style="fill:#000000; fill-opacity:1.0; 
stroke:#000000; stroke-width:1.000000; stroke-opacity:1; 
stroke-linecap:round; stroke-linejoin:round;fill-rule:evenodd;"
d="M 154598008.000000,64465283.000000
154293152.000000,64465283.000000
154293152.000000,64160428.000000
154598008.000000,64160428.000000
Z" /> 
<path style="fill:#000000; fill-opacity:1.0; 
stroke:#000000; stroke-width:1.000000; stroke-opacity:1; 
stroke-linecap:round; stroke-linejoin:round;fill-rule:evenodd;"
d="M 154598008.000000,62040297.000000
154293152.000000,62040297.000000
154293152.000000,61735441.000000
154598008.000000,61735441.000000
Z" /> 
</g>
<g style="fill:#000000; fill-opacity:1.0; 
stroke:#000000; stroke-width:120000.000000; stroke-opacity:1; 
stroke-linecap:round; stroke-linejoin:round;">
</g>
<g style="fill:#000000; fill-opacity:0.0; 
stroke:#000000; stroke-width:120000.000000; stroke-opacity:1; 
stroke-linecap:round; stroke-linejoin:round;">
<path d="M134450000 60050000
L133050000 60050000
" />
<path d="M134450000 61450000
L134450000 60050000
" />
<path d="M133050000 60050000
L133050000 61450000
" />
<path d="M133050000 61450000
L134450000 61450000
" />
<path d="M141758936 74195000
L142213064 74195000
" />
<path d="M141758936 75665000
L142213064 75665000
" />
<path d="M136681000 71648564
L136681000 71194436
" />
<path d="M135211000 71648564
L135211000 71194436
" />
<path d="M148880000 67310000
L148880000 68985000
" />
<path d="M148880000 67310000
L148880000 66660000
" />
<path d="M145760000 67310000
L145760000 67960000
" />
<path d="M145760000 67310000
L145760000 66660000
" />
<path d="M143700000 58550000
L142300000 58550000
" />
<path d="M143700000 59950000
L143700000 58550000
" />
<path d="M142300000 59950000
L143700000 59950000
" />
<path d="M142300000 58550000
L142300000 59950000
" />
<path d="M140234936 66472500
L140689064 66472500
" />
<path d="M140234936 65002500
L140689064 65002500
" />
<path d="M134305000 71180248
L134305000 71702752
" />
<path d="M132835000 71180248
L132835000 71702752
" />
<path d="M153330000 69850000
L153330000 71250000
" />
<path d="M153330000 71250000
L154730000 71250000
" />
<path d="M154730000 71250000
L154730000 69850000
" />
<path d="M154730000 69850000
L153330000 69850000
" />
<path d="M147238748 62735000
L147761252 62735000
" />
<path d="M147238748 61265000
L147761252 61265000
" />
<path d="M131735000 60227064
L131735000 59772936
" />
<path d="M130265000 60227064
L130265000 59772936
" />
<path d="M144030000 75078564
L144030000 74624436
" />
<path d="M145500000 75078564
L145500000 74624436
" />
<path d="M157250000 76236000
L155450000 76236000
" />
<path d="M157250000 76236000
L158050000 76236000
" />
<path d="M157250000 73116000
L158050000 73116000
" />
<path d="M157250000 73116000
L156450000 73116000
" />
<path d="M146015000 75112752
L146015000 74590248
" />
<path d="M147485000 75112752
L147485000 74590248
" />
<path d="M145451000 67310000
L145451000 66660000
" />
<path d="M142331000 67310000
L142331000 65635000
" />
<path d="M145451000 67310000
L145451000 67960000
" />
<path d="M142331000 67310000
L142331000 67960000
" />
<path d="M149071000 71347064
L149071000 70892936
" />
<path d="M147601000 71347064
L147601000 70892936
" />
<path d="M145510000 63000000
L145510000 62350000
" />
<path d="M145510000 63000000
L145510000 63650000
" />
<path d="M142390000 63000000
L142390000 63650000
" />
<path d="M142390000 63000000
L142390000 61325000
" />
<path d="M140689064 64138000
L140234936 64138000
" />
<path d="M140689064 62668000
L140234936 62668000
" />
</g>
<g style="fill:#000000; fill-opacity:1.0; 
stroke:#000000; stroke-width:1.000000; stroke-opacity:1; 
stroke-linecap:round; stroke-linejoin:round;">
<path style="fill:#000000; fill-opacity:1.0; 
stroke:#000000; stroke-width:1.000000; stroke-opacity:1; 
stroke-linecap:round; stroke-linejoin:round;fill-rule:evenodd;"
d="M 164406751.000000,67347222.000000
164432323.000000,67439449.000000
164470491.000000,67577508.000000
164506810.000000,67709297.000000
164535998.000000,67815665.000000
164545693.000000,67850859.000000
164571236.000000,67941112.000000
164592463.000000,68012767.000000
164605550.000000,68052778.000000
164611458.000000,68079723.000000
164597360.000000,68090262.000000
164557380.000000,68079073.000000
164487281.000000,68044896.000000
164382825.000000,67986468.000000
164338528.000000,67961538.000000
164263297.000000,67922388.000000
164208572.000000,67898201.000000
164183907.000000,67893446.000000
164181407.000000,67912971.000000
164184276.000000,67968977.000000
164192225.000000,68050825.000000
164203851.000000,68148247.000000
164217753.000000,68250977.000000
164232528.000000,68348749.000000
164246774.000000,68431296.000000
164259089.000000,68488354.000000
164268071.000000,68509654.000000
164280200.000000,68505520.000000
164313476.000000,68480738.000000
164315792.000000,68478513.000000
164328248.000000,68467568.000000
164334931.000000,68468356.000000
164335245.000000,68487617.000000
164328597.000000,68532091.000000
164314391.000000,68608517.000000
164292033.000000,68723634.000000
164279580.000000,68782377.000000
164265604.000000,68835978.000000
164256377.000000,68856649.000000
164253051.000000,68854189.000000
164229197.000000,68824502.000000
164188937.000000,68768263.000000
164138774.000000,68694441.000000
164099049.000000,68631926.000000
164061322.000000,68562408.000000
164047513.000000,68520335.000000
164058545.000000,68509158.000000
164095343.000000,68532323.000000
164116555.000000,68545348.000000
164130601.000000,68538976.000000
164130531.000000,68537918.000000
164123658.000000,68505050.000000
164106839.000000,68435517.000000
164081895.000000,68336559.000000
164050647.000000,68215414.000000
164014918.000000,68079322.000000
164010574.000000,68062884.000000
163975678.000000,67928680.000000
163945956.000000,67810648.000000
163923130.000000,67715910.000000
163908923.000000,67651591.000000
163905056.000000,67624814.000000
163920547.000000,67626426.000000
163968814.000000,67646647.000000
164041618.000000,67682989.000000
164130621.000000,67731507.000000
164206547.000000,67773123.000000
164282675.000000,67811723.000000
164335662.000000,67834844.000000
164357122.000000,67838526.000000
164352802.000000,67813552.000000
164333207.000000,67758041.000000
164302569.000000,67685512.000000
164270454.000000,67613620.000000
164221595.000000,67502584.000000
164176832.000000,67399272.000000
164142320.000000,67318809.000000
164103980.000000,67229589.000000
164074927.000000,67162159.000000
164037448.000000,67075410.000000
164331262.000000,67075410.000000
Z" /> 
<path style="fill:#000000; fill-opacity:1.0; 
stroke:#000000; stroke-width:1.000000; stroke-opacity:1; 
stroke-linecap:round; stroke-linejoin:round;fill-rule:evenodd;"
d="M 165934237.000000,69087101.000000
165926778.000000,69131622.000000
165898618.000000,69192077.000000
165893052.000000,69198927.000000
165870993.000000,69216649.000000
165835947.000000,69229274.000000
165779595.000000,69238305.000000
165693622.000000,69245249.000000
165569708.000000,69251612.000000
165510246.000000,69253572.000000
165399183.000000,69255812.000000
165251252.000000,69257827.000000
165071637.000000,69259579.000000
164865528.000000,69261035.000000
164638109.000000,69262159.000000
164394568.000000,69262914.000000
164140092.000000,69263265.000000
163879867.000000,69263178.000000
162484051.000000,69261476.000000
162439840.000000,69206864.000000
162410136.000000,69155043.000000
162395629.000000,69094271.000000
162395695.000000,69092958.000000
162408650.000000,69055204.000000
162430652.000000,69008031.000000
162696357.000000,69008031.000000
162697895.000000,69008515.000000
162731720.000000,69010329.000000
162806919.000000,69012035.000000
162919605.000000,69013604.000000
163065891.000000,69015008.000000
163241891.000000,69016219.000000
163443719.000000,69017210.000000
163667487.000000,69017952.000000
163909310.000000,69018418.000000
164165301.000000,69018579.000000
164232691.000000,69018566.000000
164485387.000000,69018274.000000
164722911.000000,69017626.000000
164941374.000000,69016655.000000
165136890.000000,69015394.000000
165305574.000000,69013877.000000
165443537.000000,69012137.000000
165546895.000000,69010208.000000
165611759.000000,69008123.000000
165634244.000000,69005916.000000
165631204.000000,68998693.000000
165608424.000000,68955172.000000
165564207.000000,68874197.000000
165499558.000000,68757559.000000
165415481.000000,68607045.000000
165312982.000000,68424445.000000
165193066.000000,68211547.000000
165056739.000000,67970141.000000
164905004.000000,67702015.000000
164738868.000000,67408958.000000
164559335.000000,67092760.000000
164508949.000000,67004330.000000
164423254.000000,66855128.000000
164346118.000000,66722329.000000
164280369.000000,66610717.000000
164228836.000000,66525073.000000
164194347.000000,66470180.000000
164179728.000000,66450820.000000
164179606.000000,66450819.000000
164175935.000000,66450357.000000
164172177.000000,66451075.000000
164166566.000000,66455969.000000
164157338.000000,66468035.000000
164142726.000000,66490267.000000
164120967.000000,66525662.000000
164090294.000000,66577216.000000
164048943.000000,66647924.000000
163995149.000000,66740781.000000
163927145.000000,66858785.000000
163843168.000000,67004929.000000
163741452.000000,67182211.000000
163620231.000000,67393625.000000
163477741.000000,67642168.000000
163412300.000000,67756290.000000
163293265.000000,67963772.000000
163180467.000000,68160255.000000
163076300.000000,68341577.000000
162983158.000000,68503572.000000
162903437.000000,68642077.000000
162839531.000000,68752929.000000
162793834.000000,68831963.000000
162768741.000000,68875016.000000
162735459.000000,68932515.000000
162707215.000000,68984122.000000
162696357.000000,69008031.000000
162430652.000000,69008031.000000
162442093.000000,68983502.000000
162493170.000000,68883314.000000
162559026.000000,68760103.000000
162636806.000000,68619331.000000
162723658.000000,68466460.000000
162733951.000000,68448579.000000
162835088.000000,68272797.000000
162951870.000000,68069699.000000
163077687.000000,67850788.000000
163205929.000000,67627567.000000
163329986.000000,67411539.000000
163443248.000000,67214208.000000
163520253.000000,67079992.000000
163636914.000000,66876740.000000
163733857.000000,66708218.000000
163813209.000000,66571018.000000
163877100.000000,66461733.000000
163927657.000000,66376954.000000
163967009.000000,66313273.000000
163997285.000000,66267283.000000
164020612.000000,66235576.000000
164039120.000000,66214742.000000
164054935.000000,66201376.000000
164070188.000000,66192067.000000
164087006.000000,66183410.000000
164096474.000000,66178762.000000
164187927.000000,66158764.000000
164273945.000000,66183165.000000
164348040.000000,66250304.000000
164349902.000000,66252820.000000
164383783.000000,66303759.000000
164433185.000000,66383863.000000
164491767.000000,66482645.000000
164553187.000000,66589618.000000
164557848.000000,66597873.000000
164618577.000000,66705359.000000
164674849.000000,66804815.000000
164720572.000000,66885485.000000
164749658.000000,66936612.000000
164765438.000000,66964316.000000
164803966.000000,67032140.000000
164858826.000000,67128828.000000
164926300.000000,67247823.000000
165002669.000000,67382567.000000
165084214.000000,67526503.000000
165100206.000000,67554735.000000
165204599.000000,67739035.000000
165320800.000000,67944177.000000
165440156.000000,68154887.000000
165554016.000000,68355889.000000
165653727.000000,68531910.000000
165700969.000000,68616078.000000
165777535.000000,68756190.000000
165841992.000000,68878981.000000
165891492.000000,68978820.000000
165903546.000000,69005916.000000
165923190.000000,69050071.000000
Z" /> 
</g>
<g style="fill:#000000; fill-opacity:1.0; 
stroke:#000000; stroke-width:120000.000000; stroke-opacity:1; 
stroke-linecap:round; stroke-linejoin:round;">
</g>
<g style="fill:#000000; fill-opacity:0.0; 
stroke:#000000; stroke-width:120000.000000; stroke-opacity:1; 
stroke-linecap:round; stroke-linejoin:round;">
<path d="M150360748 73433000
L150883252 73433000
" />
<path d="M150360748 74903000
L150883252 74903000
" />
<path d="M147702064 63315000
L147247936 63315000
" />
<path d="M147702064 64785000
L147247936 64785000
" />
<path d="M153300000 74800000
L153300000 76200000
" />
<path d="M153300000 76200000
L154700000 76200000
" />
<path d="M154700000 74800000
L153300000 74800000
" />
<path d="M154700000 76200000
L154700000 74800000
" />
<path d="M138800000 72700000
L140200000 72700000
" />
<path d="M140200000 71300000
L138800000 71300000
" />
<path d="M138800000 71300000
L138800000 72700000
" />
<path d="M140200000 72700000
L140200000 71300000
" />
<path d="M144550000 59300000
L144550000 60700000
" />
<path d="M145950000 60700000
L145950000 59300000
" />
<path d="M145950000 59300000
L144550000 59300000
" />
<path d="M144550000 60700000
L145950000 60700000
" />
<path d="M137735000 59663064
L137735000 59208936
" />
<path d="M136265000 59663064
L136265000 59208936
" />
<path d="M139522936 59485000
L139977064 59485000
" />
<path d="M139522936 58015000
L139977064 58015000
" />
<path d="M137902000 65532000
L137902000 63582000
" />
<path d="M137902000 65532000
L137902000 67482000
" />
<path d="M127782000 65532000
L127782000 62082000
" />
<path d="M127782000 65532000
L127782000 67482000
" />
<path d="M135750000 59350000
L133200000 59350000
" />
<path d="M135750000 57650000
L133200000 57650000
" />
<path d="M135750000 57650000
L135750000 59350000
" />
<path d="M147772936 59265000
L148227064 59265000
" />
<path d="M147772936 60735000
L148227064 60735000
" />
<path d="M140011252 60515000
L139488748 60515000
" />
<path d="M140011252 61985000
L139488748 61985000
" />
<path d="M149700000 77700000
L149700000 76300000
" />
<path d="M148300000 77700000
L149700000 77700000
" />
<path d="M149700000 76300000
L148300000 76300000
" />
<path d="M148300000 76300000
L148300000 77700000
" />
<path d="M144780000 72680000
L144130000 72680000
" />
<path d="M144780000 72680000
L145430000 72680000
" />
<path d="M144780000 69560000
L144130000 69560000
" />
<path d="M144780000 69560000
L146455000 69560000
" />
<path d="M140689064 68807000
L140234936 68807000
" />
<path d="M140689064 67337000
L140234936 67337000
" />
<path d="M129131748 69981500
L130554252 69981500
" />
<path d="M129131748 72701500
L130554252 72701500
" />
<path d="M142485000 70892936
L142485000 71347064
" />
<path d="M141015000 70892936
L141015000 71347064
" />
<path d="M129235000 59738748
L129235000 60261252
" />
<path d="M127765000 59738748
L127765000 60261252
" />
<g >
</g>
<g >
</g>
<g >
</g>
<g >
</g>
<g >
</g>
<g >
</g>
<g >
</g>
<g >
</g>
<g >
</g>
<g >
</g>
<g >
</g>
<g >
</g>
<g >
</g>
<g >
</g>
<g >
</g>
<g >
</g>
<g >
</g>
<g >
</g>
<g >
</g>
<g >
</g>
<g >
</g>
<g >
</g>
<g >
</g>
<g >
</g>
<g >
</g>
<g >
</g>
<g >
</g>
<g >
</g>
<g >
</g>
<g >
</g>
<g >
</g>
<g >
</g>
<g >
</g>
<g >
</g>
<g >
</g>
<g >
</g>
<g >
</g>
<g >
</g>
<g >
</g>
<g >
</g>
<g >
</g>
<g >
</g>
<g >
</g>
<g >
</g>
<g >
</g>
<g >
</g>
<g >
</g>
<g >
</g>
<g >
</g>
<g >
</g>
<g >
</g>
<g >
</g>
<g >
</g>
<g >
</g>
<g >
</g>
<g >
</g>
<g >
</g>
<g >
</g>
<g >
</g>
<g >
</g>
<g >
</g>
<g >
</g>
<g >
</g>
<g >
</g>
<g >
</g>
<g >
</g>
<g >
</g>
<g >
</g>
<g >
</g>
<g >
</g>
<g >
</g>
<g >
</g>
<g >
</g>
<g >
</g>
<g >
</g>
<g >
</g>
<g >
</g>
<g >
</g>
<g >
</g>
<g >
</g>
<g >
</g>
<g >
</g>
<g >
</g>
</g> 
</svg>
