G04 #@! TF.GenerationSoftware,KiCad,Pcbnew,(5.99.0-8941-ge2f8b1a4b1)*
G04 #@! TF.CreationDate,2021-03-24T22:34:04+13:00*
G04 #@! TF.ProjectId,OpenHVPS-5,4f70656e-4856-4505-932d-352e6b696361,V1.2.0*
G04 #@! TF.SameCoordinates,Original*
G04 #@! TF.FileFunction,Legend,Top*
G04 #@! TF.FilePolarity,Positive*
%FSLAX46Y46*%
G04 Gerber Fmt 4.6, Leading zero omitted, Abs format (unit mm)*
G04 Created by KiCad (PCBNEW (5.99.0-8941-ge2f8b1a4b1)) date 2021-03-24 22:34:04*
%MOMM*%
%LPD*%
G01*
G04 APERTURE LIST*
%ADD10C,0.325000*%
%ADD11C,0.150000*%
%ADD12C,0.075000*%
%ADD13C,0.100000*%
%ADD14C,0.120000*%
G04 APERTURE END LIST*
D10*
X146182500Y-75245000D02*
G75*
G03*
X146182500Y-75245000I-162500J0D01*
G01*
D11*
X137414000Y-69270000D02*
X159560000Y-69270000D01*
X158370000Y-75770000D02*
X156670000Y-75770000D01*
X159560000Y-69270000D02*
X159560000Y-77570000D01*
X159560000Y-77570000D02*
X165471000Y-77580787D01*
X137414000Y-69270000D02*
X137414000Y-57658000D01*
X166597000Y-76300000D02*
X165471000Y-77580787D01*
X166604000Y-58658000D02*
X166597000Y-76300000D01*
X165520000Y-57658000D02*
X137414000Y-57658000D01*
X165520000Y-57658000D02*
X166604000Y-58658000D01*
D12*
X127095809Y-77545380D02*
X127167238Y-77569190D01*
X127286285Y-77569190D01*
X127333904Y-77545380D01*
X127357714Y-77521571D01*
X127381523Y-77473952D01*
X127381523Y-77426333D01*
X127357714Y-77378714D01*
X127333904Y-77354904D01*
X127286285Y-77331095D01*
X127191047Y-77307285D01*
X127143428Y-77283476D01*
X127119619Y-77259666D01*
X127095809Y-77212047D01*
X127095809Y-77164428D01*
X127119619Y-77116809D01*
X127143428Y-77093000D01*
X127191047Y-77069190D01*
X127310095Y-77069190D01*
X127381523Y-77093000D01*
X127572000Y-77426333D02*
X127810095Y-77426333D01*
X127524380Y-77569190D02*
X127691047Y-77069190D01*
X127857714Y-77569190D01*
X128191047Y-77307285D02*
X128024380Y-77307285D01*
X128024380Y-77569190D02*
X128024380Y-77069190D01*
X128262476Y-77069190D01*
X128452952Y-77307285D02*
X128619619Y-77307285D01*
X128691047Y-77569190D02*
X128452952Y-77569190D01*
X128452952Y-77069190D01*
X128691047Y-77069190D01*
X128905333Y-77569190D02*
X128905333Y-77069190D01*
X129095809Y-77069190D01*
X129143428Y-77093000D01*
X129167238Y-77116809D01*
X129191047Y-77164428D01*
X129191047Y-77235857D01*
X129167238Y-77283476D01*
X129143428Y-77307285D01*
X129095809Y-77331095D01*
X128905333Y-77331095D01*
X129405333Y-77069190D02*
X129405333Y-77473952D01*
X129429142Y-77521571D01*
X129452952Y-77545380D01*
X129500571Y-77569190D01*
X129595809Y-77569190D01*
X129643428Y-77545380D01*
X129667238Y-77521571D01*
X129691047Y-77473952D01*
X129691047Y-77069190D01*
X130167238Y-77569190D02*
X129929142Y-77569190D01*
X129929142Y-77069190D01*
X130310095Y-77545380D02*
X130381523Y-77569190D01*
X130500571Y-77569190D01*
X130548190Y-77545380D01*
X130572000Y-77521571D01*
X130595809Y-77473952D01*
X130595809Y-77426333D01*
X130572000Y-77378714D01*
X130548190Y-77354904D01*
X130500571Y-77331095D01*
X130405333Y-77307285D01*
X130357714Y-77283476D01*
X130333904Y-77259666D01*
X130310095Y-77212047D01*
X130310095Y-77164428D01*
X130333904Y-77116809D01*
X130357714Y-77093000D01*
X130405333Y-77069190D01*
X130524380Y-77069190D01*
X130595809Y-77093000D01*
X130810095Y-77307285D02*
X130976761Y-77307285D01*
X131048190Y-77569190D02*
X130810095Y-77569190D01*
X130810095Y-77069190D01*
X131048190Y-77069190D01*
X133857714Y-77069190D02*
X134024380Y-77569190D01*
X134191047Y-77069190D01*
X134619619Y-77569190D02*
X134333904Y-77569190D01*
X134476761Y-77569190D02*
X134476761Y-77069190D01*
X134429142Y-77140619D01*
X134381523Y-77188238D01*
X134333904Y-77212047D01*
X134833904Y-77521571D02*
X134857714Y-77545380D01*
X134833904Y-77569190D01*
X134810095Y-77545380D01*
X134833904Y-77521571D01*
X134833904Y-77569190D01*
X135048190Y-77116809D02*
X135072000Y-77093000D01*
X135119619Y-77069190D01*
X135238666Y-77069190D01*
X135286285Y-77093000D01*
X135310095Y-77116809D01*
X135333904Y-77164428D01*
X135333904Y-77212047D01*
X135310095Y-77283476D01*
X135024380Y-77569190D01*
X135333904Y-77569190D01*
X135548190Y-77521571D02*
X135572000Y-77545380D01*
X135548190Y-77569190D01*
X135524380Y-77545380D01*
X135548190Y-77521571D01*
X135548190Y-77569190D01*
X135881523Y-77069190D02*
X135929142Y-77069190D01*
X135976761Y-77093000D01*
X136000571Y-77116809D01*
X136024380Y-77164428D01*
X136048190Y-77259666D01*
X136048190Y-77378714D01*
X136024380Y-77473952D01*
X136000571Y-77521571D01*
X135976761Y-77545380D01*
X135929142Y-77569190D01*
X135881523Y-77569190D01*
X135833904Y-77545380D01*
X135810095Y-77521571D01*
X135786285Y-77473952D01*
X135762476Y-77378714D01*
X135762476Y-77259666D01*
X135786285Y-77164428D01*
X135810095Y-77116809D01*
X135833904Y-77093000D01*
X135881523Y-77069190D01*
D13*
X128079047Y-73471428D02*
X128840952Y-73471428D01*
X128460000Y-73852380D02*
X128460000Y-73090476D01*
X130095238Y-73626190D02*
X130095238Y-73126190D01*
X130285714Y-73126190D01*
X130333333Y-73150000D01*
X130357142Y-73173809D01*
X130380952Y-73221428D01*
X130380952Y-73292857D01*
X130357142Y-73340476D01*
X130333333Y-73364285D01*
X130285714Y-73388095D01*
X130095238Y-73388095D01*
X130809523Y-73292857D02*
X130809523Y-73626190D01*
X130595238Y-73292857D02*
X130595238Y-73554761D01*
X130619047Y-73602380D01*
X130666666Y-73626190D01*
X130738095Y-73626190D01*
X130785714Y-73602380D01*
X130809523Y-73578571D01*
X131119047Y-73626190D02*
X131071428Y-73602380D01*
X131047619Y-73554761D01*
X131047619Y-73126190D01*
X131285714Y-73602380D02*
X131333333Y-73626190D01*
X131428571Y-73626190D01*
X131476190Y-73602380D01*
X131500000Y-73554761D01*
X131500000Y-73530952D01*
X131476190Y-73483333D01*
X131428571Y-73459523D01*
X131357142Y-73459523D01*
X131309523Y-73435714D01*
X131285714Y-73388095D01*
X131285714Y-73364285D01*
X131309523Y-73316666D01*
X131357142Y-73292857D01*
X131428571Y-73292857D01*
X131476190Y-73316666D01*
X131904761Y-73602380D02*
X131857142Y-73626190D01*
X131761904Y-73626190D01*
X131714285Y-73602380D01*
X131690476Y-73554761D01*
X131690476Y-73364285D01*
X131714285Y-73316666D01*
X131761904Y-73292857D01*
X131857142Y-73292857D01*
X131904761Y-73316666D01*
X131928571Y-73364285D01*
X131928571Y-73411904D01*
X131690476Y-73459523D01*
X133413047Y-73150000D02*
X133365428Y-73126190D01*
X133294000Y-73126190D01*
X133222571Y-73150000D01*
X133174952Y-73197619D01*
X133151142Y-73245238D01*
X133127333Y-73340476D01*
X133127333Y-73411904D01*
X133151142Y-73507142D01*
X133174952Y-73554761D01*
X133222571Y-73602380D01*
X133294000Y-73626190D01*
X133341619Y-73626190D01*
X133413047Y-73602380D01*
X133436857Y-73578571D01*
X133436857Y-73411904D01*
X133341619Y-73411904D01*
X133651142Y-73626190D02*
X133651142Y-73126190D01*
X133936857Y-73626190D01*
X133936857Y-73126190D01*
X134174952Y-73626190D02*
X134174952Y-73126190D01*
X134294000Y-73126190D01*
X134365428Y-73150000D01*
X134413047Y-73197619D01*
X134436857Y-73245238D01*
X134460666Y-73340476D01*
X134460666Y-73411904D01*
X134436857Y-73507142D01*
X134413047Y-73554761D01*
X134365428Y-73602380D01*
X134294000Y-73626190D01*
X134174952Y-73626190D01*
D12*
X126964285Y-71667666D02*
X126964285Y-71834333D01*
X127226190Y-71834333D02*
X126726190Y-71834333D01*
X126726190Y-71596238D01*
X127226190Y-71143857D02*
X127226190Y-71429571D01*
X127226190Y-71286714D02*
X126726190Y-71286714D01*
X126797619Y-71334333D01*
X126845238Y-71381952D01*
X126869047Y-71429571D01*
X145448571Y-60630571D02*
X145424761Y-60654380D01*
X145353333Y-60678190D01*
X145305714Y-60678190D01*
X145234285Y-60654380D01*
X145186666Y-60606761D01*
X145162857Y-60559142D01*
X145139047Y-60463904D01*
X145139047Y-60392476D01*
X145162857Y-60297238D01*
X145186666Y-60249619D01*
X145234285Y-60202000D01*
X145305714Y-60178190D01*
X145353333Y-60178190D01*
X145424761Y-60202000D01*
X145448571Y-60225809D01*
X145924761Y-60678190D02*
X145639047Y-60678190D01*
X145781904Y-60678190D02*
X145781904Y-60178190D01*
X145734285Y-60249619D01*
X145686666Y-60297238D01*
X145639047Y-60321047D01*
X146234285Y-60178190D02*
X146281904Y-60178190D01*
X146329523Y-60202000D01*
X146353333Y-60225809D01*
X146377142Y-60273428D01*
X146400952Y-60368666D01*
X146400952Y-60487714D01*
X146377142Y-60582952D01*
X146353333Y-60630571D01*
X146329523Y-60654380D01*
X146281904Y-60678190D01*
X146234285Y-60678190D01*
X146186666Y-60654380D01*
X146162857Y-60630571D01*
X146139047Y-60582952D01*
X146115238Y-60487714D01*
X146115238Y-60368666D01*
X146139047Y-60273428D01*
X146162857Y-60225809D01*
X146186666Y-60202000D01*
X146234285Y-60178190D01*
X164088095Y-69933333D02*
X164326190Y-69933333D01*
X164040476Y-70076190D02*
X164207142Y-69576190D01*
X164373809Y-70076190D01*
X164540476Y-69742857D02*
X164540476Y-70076190D01*
X164540476Y-69790476D02*
X164564285Y-69766666D01*
X164611904Y-69742857D01*
X164683333Y-69742857D01*
X164730952Y-69766666D01*
X164754761Y-69814285D01*
X164754761Y-70076190D01*
X165064285Y-70076190D02*
X165016666Y-70052380D01*
X164992857Y-70028571D01*
X164969047Y-69980952D01*
X164969047Y-69838095D01*
X164992857Y-69790476D01*
X165016666Y-69766666D01*
X165064285Y-69742857D01*
X165135714Y-69742857D01*
X165183333Y-69766666D01*
X165207142Y-69790476D01*
X165230952Y-69838095D01*
X165230952Y-69980952D01*
X165207142Y-70028571D01*
X165183333Y-70052380D01*
X165135714Y-70076190D01*
X165064285Y-70076190D01*
X165659523Y-70076190D02*
X165659523Y-69576190D01*
X165659523Y-70052380D02*
X165611904Y-70076190D01*
X165516666Y-70076190D01*
X165469047Y-70052380D01*
X165445238Y-70028571D01*
X165421428Y-69980952D01*
X165421428Y-69838095D01*
X165445238Y-69790476D01*
X165469047Y-69766666D01*
X165516666Y-69742857D01*
X165611904Y-69742857D01*
X165659523Y-69766666D01*
X166088095Y-70052380D02*
X166040476Y-70076190D01*
X165945238Y-70076190D01*
X165897619Y-70052380D01*
X165873809Y-70004761D01*
X165873809Y-69814285D01*
X165897619Y-69766666D01*
X165945238Y-69742857D01*
X166040476Y-69742857D01*
X166088095Y-69766666D01*
X166111904Y-69814285D01*
X166111904Y-69861904D01*
X165873809Y-69909523D01*
X164088095Y-73934333D02*
X164326190Y-73934333D01*
X164040476Y-74077190D02*
X164207142Y-73577190D01*
X164373809Y-74077190D01*
X164540476Y-73743857D02*
X164540476Y-74077190D01*
X164540476Y-73791476D02*
X164564285Y-73767666D01*
X164611904Y-73743857D01*
X164683333Y-73743857D01*
X164730952Y-73767666D01*
X164754761Y-73815285D01*
X164754761Y-74077190D01*
X165064285Y-74077190D02*
X165016666Y-74053380D01*
X164992857Y-74029571D01*
X164969047Y-73981952D01*
X164969047Y-73839095D01*
X164992857Y-73791476D01*
X165016666Y-73767666D01*
X165064285Y-73743857D01*
X165135714Y-73743857D01*
X165183333Y-73767666D01*
X165207142Y-73791476D01*
X165230952Y-73839095D01*
X165230952Y-73981952D01*
X165207142Y-74029571D01*
X165183333Y-74053380D01*
X165135714Y-74077190D01*
X165064285Y-74077190D01*
X165659523Y-74077190D02*
X165659523Y-73577190D01*
X165659523Y-74053380D02*
X165611904Y-74077190D01*
X165516666Y-74077190D01*
X165469047Y-74053380D01*
X165445238Y-74029571D01*
X165421428Y-73981952D01*
X165421428Y-73839095D01*
X165445238Y-73791476D01*
X165469047Y-73767666D01*
X165516666Y-73743857D01*
X165611904Y-73743857D01*
X165659523Y-73767666D01*
X166088095Y-74053380D02*
X166040476Y-74077190D01*
X165945238Y-74077190D01*
X165897619Y-74053380D01*
X165873809Y-74005761D01*
X165873809Y-73815285D01*
X165897619Y-73767666D01*
X165945238Y-73743857D01*
X166040476Y-73743857D01*
X166088095Y-73767666D01*
X166111904Y-73815285D01*
X166111904Y-73862904D01*
X165873809Y-73910523D01*
X157726190Y-63619047D02*
X157226190Y-63619047D01*
X157226190Y-63500000D01*
X157250000Y-63428571D01*
X157297619Y-63380952D01*
X157345238Y-63357142D01*
X157440476Y-63333333D01*
X157511904Y-63333333D01*
X157607142Y-63357142D01*
X157654761Y-63380952D01*
X157702380Y-63428571D01*
X157726190Y-63500000D01*
X157726190Y-63619047D01*
X157440476Y-63047619D02*
X157416666Y-63095238D01*
X157392857Y-63119047D01*
X157345238Y-63142857D01*
X157321428Y-63142857D01*
X157273809Y-63119047D01*
X157250000Y-63095238D01*
X157226190Y-63047619D01*
X157226190Y-62952380D01*
X157250000Y-62904761D01*
X157273809Y-62880952D01*
X157321428Y-62857142D01*
X157345238Y-62857142D01*
X157392857Y-62880952D01*
X157416666Y-62904761D01*
X157440476Y-62952380D01*
X157440476Y-63047619D01*
X157464285Y-63095238D01*
X157488095Y-63119047D01*
X157535714Y-63142857D01*
X157630952Y-63142857D01*
X157678571Y-63119047D01*
X157702380Y-63095238D01*
X157726190Y-63047619D01*
X157726190Y-62952380D01*
X157702380Y-62904761D01*
X157678571Y-62880952D01*
X157630952Y-62857142D01*
X157535714Y-62857142D01*
X157488095Y-62880952D01*
X157464285Y-62904761D01*
X157440476Y-62952380D01*
X143726190Y-63619047D02*
X143226190Y-63619047D01*
X143226190Y-63500000D01*
X143250000Y-63428571D01*
X143297619Y-63380952D01*
X143345238Y-63357142D01*
X143440476Y-63333333D01*
X143511904Y-63333333D01*
X143607142Y-63357142D01*
X143654761Y-63380952D01*
X143702380Y-63428571D01*
X143726190Y-63500000D01*
X143726190Y-63619047D01*
X143392857Y-62904761D02*
X143726190Y-62904761D01*
X143202380Y-63023809D02*
X143559523Y-63142857D01*
X143559523Y-62833333D01*
X159246190Y-71841428D02*
X159008095Y-72008095D01*
X159246190Y-72127142D02*
X158746190Y-72127142D01*
X158746190Y-71936666D01*
X158770000Y-71889047D01*
X158793809Y-71865238D01*
X158841428Y-71841428D01*
X158912857Y-71841428D01*
X158960476Y-71865238D01*
X158984285Y-71889047D01*
X159008095Y-71936666D01*
X159008095Y-72127142D01*
X159246190Y-71365238D02*
X159246190Y-71650952D01*
X159246190Y-71508095D02*
X158746190Y-71508095D01*
X158817619Y-71555714D01*
X158865238Y-71603333D01*
X158889047Y-71650952D01*
X158746190Y-71198571D02*
X158746190Y-70865238D01*
X159246190Y-71079523D01*
X152448571Y-60630571D02*
X152424761Y-60654380D01*
X152353333Y-60678190D01*
X152305714Y-60678190D01*
X152234285Y-60654380D01*
X152186666Y-60606761D01*
X152162857Y-60559142D01*
X152139047Y-60463904D01*
X152139047Y-60392476D01*
X152162857Y-60297238D01*
X152186666Y-60249619D01*
X152234285Y-60202000D01*
X152305714Y-60178190D01*
X152353333Y-60178190D01*
X152424761Y-60202000D01*
X152448571Y-60225809D01*
X152924761Y-60678190D02*
X152639047Y-60678190D01*
X152781904Y-60678190D02*
X152781904Y-60178190D01*
X152734285Y-60249619D01*
X152686666Y-60297238D01*
X152639047Y-60321047D01*
X153353333Y-60344857D02*
X153353333Y-60678190D01*
X153234285Y-60154380D02*
X153115238Y-60511523D01*
X153424761Y-60511523D01*
X140226190Y-63619047D02*
X139726190Y-63619047D01*
X139726190Y-63500000D01*
X139750000Y-63428571D01*
X139797619Y-63380952D01*
X139845238Y-63357142D01*
X139940476Y-63333333D01*
X140011904Y-63333333D01*
X140107142Y-63357142D01*
X140154761Y-63380952D01*
X140202380Y-63428571D01*
X140226190Y-63500000D01*
X140226190Y-63619047D01*
X139726190Y-63166666D02*
X139726190Y-62857142D01*
X139916666Y-63023809D01*
X139916666Y-62952380D01*
X139940476Y-62904761D01*
X139964285Y-62880952D01*
X140011904Y-62857142D01*
X140130952Y-62857142D01*
X140178571Y-62880952D01*
X140202380Y-62904761D01*
X140226190Y-62952380D01*
X140226190Y-63095238D01*
X140202380Y-63142857D01*
X140178571Y-63166666D01*
X147186666Y-68996190D02*
X147020000Y-68758095D01*
X146900952Y-68996190D02*
X146900952Y-68496190D01*
X147091428Y-68496190D01*
X147139047Y-68520000D01*
X147162857Y-68543809D01*
X147186666Y-68591428D01*
X147186666Y-68662857D01*
X147162857Y-68710476D01*
X147139047Y-68734285D01*
X147091428Y-68758095D01*
X146900952Y-68758095D01*
X147472380Y-68710476D02*
X147424761Y-68686666D01*
X147400952Y-68662857D01*
X147377142Y-68615238D01*
X147377142Y-68591428D01*
X147400952Y-68543809D01*
X147424761Y-68520000D01*
X147472380Y-68496190D01*
X147567619Y-68496190D01*
X147615238Y-68520000D01*
X147639047Y-68543809D01*
X147662857Y-68591428D01*
X147662857Y-68615238D01*
X147639047Y-68662857D01*
X147615238Y-68686666D01*
X147567619Y-68710476D01*
X147472380Y-68710476D01*
X147424761Y-68734285D01*
X147400952Y-68758095D01*
X147377142Y-68805714D01*
X147377142Y-68900952D01*
X147400952Y-68948571D01*
X147424761Y-68972380D01*
X147472380Y-68996190D01*
X147567619Y-68996190D01*
X147615238Y-68972380D01*
X147639047Y-68948571D01*
X147662857Y-68900952D01*
X147662857Y-68805714D01*
X147639047Y-68758095D01*
X147615238Y-68734285D01*
X147567619Y-68710476D01*
X148948571Y-60630571D02*
X148924761Y-60654380D01*
X148853333Y-60678190D01*
X148805714Y-60678190D01*
X148734285Y-60654380D01*
X148686666Y-60606761D01*
X148662857Y-60559142D01*
X148639047Y-60463904D01*
X148639047Y-60392476D01*
X148662857Y-60297238D01*
X148686666Y-60249619D01*
X148734285Y-60202000D01*
X148805714Y-60178190D01*
X148853333Y-60178190D01*
X148924761Y-60202000D01*
X148948571Y-60225809D01*
X149424761Y-60678190D02*
X149139047Y-60678190D01*
X149281904Y-60678190D02*
X149281904Y-60178190D01*
X149234285Y-60249619D01*
X149186666Y-60297238D01*
X149139047Y-60321047D01*
X149615238Y-60225809D02*
X149639047Y-60202000D01*
X149686666Y-60178190D01*
X149805714Y-60178190D01*
X149853333Y-60202000D01*
X149877142Y-60225809D01*
X149900952Y-60273428D01*
X149900952Y-60321047D01*
X149877142Y-60392476D01*
X149591428Y-60678190D01*
X149900952Y-60678190D01*
X150936666Y-68996190D02*
X150770000Y-68758095D01*
X150650952Y-68996190D02*
X150650952Y-68496190D01*
X150841428Y-68496190D01*
X150889047Y-68520000D01*
X150912857Y-68543809D01*
X150936666Y-68591428D01*
X150936666Y-68662857D01*
X150912857Y-68710476D01*
X150889047Y-68734285D01*
X150841428Y-68758095D01*
X150650952Y-68758095D01*
X151103333Y-68496190D02*
X151436666Y-68496190D01*
X151222380Y-68996190D01*
X143996190Y-72853333D02*
X143758095Y-73020000D01*
X143996190Y-73139047D02*
X143496190Y-73139047D01*
X143496190Y-72948571D01*
X143520000Y-72900952D01*
X143543809Y-72877142D01*
X143591428Y-72853333D01*
X143662857Y-72853333D01*
X143710476Y-72877142D01*
X143734285Y-72900952D01*
X143758095Y-72948571D01*
X143758095Y-73139047D01*
X143496190Y-72424761D02*
X143496190Y-72520000D01*
X143520000Y-72567619D01*
X143543809Y-72591428D01*
X143615238Y-72639047D01*
X143710476Y-72662857D01*
X143900952Y-72662857D01*
X143948571Y-72639047D01*
X143972380Y-72615238D01*
X143996190Y-72567619D01*
X143996190Y-72472380D01*
X143972380Y-72424761D01*
X143948571Y-72400952D01*
X143900952Y-72377142D01*
X143781904Y-72377142D01*
X143734285Y-72400952D01*
X143710476Y-72424761D01*
X143686666Y-72472380D01*
X143686666Y-72567619D01*
X143710476Y-72615238D01*
X143734285Y-72639047D01*
X143781904Y-72662857D01*
X150726190Y-63619047D02*
X150226190Y-63619047D01*
X150226190Y-63500000D01*
X150250000Y-63428571D01*
X150297619Y-63380952D01*
X150345238Y-63357142D01*
X150440476Y-63333333D01*
X150511904Y-63333333D01*
X150607142Y-63357142D01*
X150654761Y-63380952D01*
X150702380Y-63428571D01*
X150726190Y-63500000D01*
X150726190Y-63619047D01*
X150226190Y-62904761D02*
X150226190Y-63000000D01*
X150250000Y-63047619D01*
X150273809Y-63071428D01*
X150345238Y-63119047D01*
X150440476Y-63142857D01*
X150630952Y-63142857D01*
X150678571Y-63119047D01*
X150702380Y-63095238D01*
X150726190Y-63047619D01*
X150726190Y-62952380D01*
X150702380Y-62904761D01*
X150678571Y-62880952D01*
X150630952Y-62857142D01*
X150511904Y-62857142D01*
X150464285Y-62880952D01*
X150440476Y-62904761D01*
X150416666Y-62952380D01*
X150416666Y-63047619D01*
X150440476Y-63095238D01*
X150464285Y-63119047D01*
X150511904Y-63142857D01*
X136560857Y-73330571D02*
X136537047Y-73354380D01*
X136465619Y-73378190D01*
X136418000Y-73378190D01*
X136346571Y-73354380D01*
X136298952Y-73306761D01*
X136275142Y-73259142D01*
X136251333Y-73163904D01*
X136251333Y-73092476D01*
X136275142Y-72997238D01*
X136298952Y-72949619D01*
X136346571Y-72902000D01*
X136418000Y-72878190D01*
X136465619Y-72878190D01*
X136537047Y-72902000D01*
X136560857Y-72925809D01*
X136989428Y-73378190D02*
X136989428Y-73116285D01*
X136965619Y-73068666D01*
X136918000Y-73044857D01*
X136822761Y-73044857D01*
X136775142Y-73068666D01*
X136989428Y-73354380D02*
X136941809Y-73378190D01*
X136822761Y-73378190D01*
X136775142Y-73354380D01*
X136751333Y-73306761D01*
X136751333Y-73259142D01*
X136775142Y-73211523D01*
X136822761Y-73187714D01*
X136941809Y-73187714D01*
X136989428Y-73163904D01*
X137156095Y-73044857D02*
X137346571Y-73044857D01*
X137227523Y-72878190D02*
X137227523Y-73306761D01*
X137251333Y-73354380D01*
X137298952Y-73378190D01*
X137346571Y-73378190D01*
X137513238Y-73378190D02*
X137513238Y-72878190D01*
X137727523Y-73378190D02*
X137727523Y-73116285D01*
X137703714Y-73068666D01*
X137656095Y-73044857D01*
X137584666Y-73044857D01*
X137537047Y-73068666D01*
X137513238Y-73092476D01*
X138037047Y-73378190D02*
X137989428Y-73354380D01*
X137965619Y-73330571D01*
X137941809Y-73282952D01*
X137941809Y-73140095D01*
X137965619Y-73092476D01*
X137989428Y-73068666D01*
X138037047Y-73044857D01*
X138108476Y-73044857D01*
X138156095Y-73068666D01*
X138179904Y-73092476D01*
X138203714Y-73140095D01*
X138203714Y-73282952D01*
X138179904Y-73330571D01*
X138156095Y-73354380D01*
X138108476Y-73378190D01*
X138037047Y-73378190D01*
X138632285Y-73378190D02*
X138632285Y-72878190D01*
X138632285Y-73354380D02*
X138584666Y-73378190D01*
X138489428Y-73378190D01*
X138441809Y-73354380D01*
X138418000Y-73330571D01*
X138394190Y-73282952D01*
X138394190Y-73140095D01*
X138418000Y-73092476D01*
X138441809Y-73068666D01*
X138489428Y-73044857D01*
X138584666Y-73044857D01*
X138632285Y-73068666D01*
X139060857Y-73354380D02*
X139013238Y-73378190D01*
X138918000Y-73378190D01*
X138870380Y-73354380D01*
X138846571Y-73306761D01*
X138846571Y-73116285D01*
X138870380Y-73068666D01*
X138918000Y-73044857D01*
X139013238Y-73044857D01*
X139060857Y-73068666D01*
X139084666Y-73116285D01*
X139084666Y-73163904D01*
X138846571Y-73211523D01*
X154226190Y-63619047D02*
X153726190Y-63619047D01*
X153726190Y-63500000D01*
X153750000Y-63428571D01*
X153797619Y-63380952D01*
X153845238Y-63357142D01*
X153940476Y-63333333D01*
X154011904Y-63333333D01*
X154107142Y-63357142D01*
X154154761Y-63380952D01*
X154202380Y-63428571D01*
X154226190Y-63500000D01*
X154226190Y-63619047D01*
X153726190Y-63166666D02*
X153726190Y-62833333D01*
X154226190Y-63047619D01*
X130016666Y-58178571D02*
X129992857Y-58202380D01*
X129921428Y-58226190D01*
X129873809Y-58226190D01*
X129802380Y-58202380D01*
X129754761Y-58154761D01*
X129730952Y-58107142D01*
X129707142Y-58011904D01*
X129707142Y-57940476D01*
X129730952Y-57845238D01*
X129754761Y-57797619D01*
X129802380Y-57750000D01*
X129873809Y-57726190D01*
X129921428Y-57726190D01*
X129992857Y-57750000D01*
X130016666Y-57773809D01*
X130469047Y-57726190D02*
X130230952Y-57726190D01*
X130207142Y-57964285D01*
X130230952Y-57940476D01*
X130278571Y-57916666D01*
X130397619Y-57916666D01*
X130445238Y-57940476D01*
X130469047Y-57964285D01*
X130492857Y-58011904D01*
X130492857Y-58130952D01*
X130469047Y-58178571D01*
X130445238Y-58202380D01*
X130397619Y-58226190D01*
X130278571Y-58226190D01*
X130230952Y-58202380D01*
X130207142Y-58178571D01*
X153678571Y-66428571D02*
X153654761Y-66452380D01*
X153583333Y-66476190D01*
X153535714Y-66476190D01*
X153464285Y-66452380D01*
X153416666Y-66404761D01*
X153392857Y-66357142D01*
X153369047Y-66261904D01*
X153369047Y-66190476D01*
X153392857Y-66095238D01*
X153416666Y-66047619D01*
X153464285Y-66000000D01*
X153535714Y-65976190D01*
X153583333Y-65976190D01*
X153654761Y-66000000D01*
X153678571Y-66023809D01*
X154154761Y-66476190D02*
X153869047Y-66476190D01*
X154011904Y-66476190D02*
X154011904Y-65976190D01*
X153964285Y-66047619D01*
X153916666Y-66095238D01*
X153869047Y-66119047D01*
X154607142Y-65976190D02*
X154369047Y-65976190D01*
X154345238Y-66214285D01*
X154369047Y-66190476D01*
X154416666Y-66166666D01*
X154535714Y-66166666D01*
X154583333Y-66190476D01*
X154607142Y-66214285D01*
X154630952Y-66261904D01*
X154630952Y-66380952D01*
X154607142Y-66428571D01*
X154583333Y-66452380D01*
X154535714Y-66476190D01*
X154416666Y-66476190D01*
X154369047Y-66452380D01*
X154345238Y-66428571D01*
X163976190Y-66583333D02*
X163738095Y-66750000D01*
X163976190Y-66869047D02*
X163476190Y-66869047D01*
X163476190Y-66678571D01*
X163500000Y-66630952D01*
X163523809Y-66607142D01*
X163571428Y-66583333D01*
X163642857Y-66583333D01*
X163690476Y-66607142D01*
X163714285Y-66630952D01*
X163738095Y-66678571D01*
X163738095Y-66869047D01*
X163976190Y-66107142D02*
X163976190Y-66392857D01*
X163976190Y-66250000D02*
X163476190Y-66250000D01*
X163547619Y-66297619D01*
X163595238Y-66345238D01*
X163619047Y-66392857D01*
X138936666Y-60630571D02*
X138912857Y-60654380D01*
X138841428Y-60678190D01*
X138793809Y-60678190D01*
X138722380Y-60654380D01*
X138674761Y-60606761D01*
X138650952Y-60559142D01*
X138627142Y-60463904D01*
X138627142Y-60392476D01*
X138650952Y-60297238D01*
X138674761Y-60249619D01*
X138722380Y-60202000D01*
X138793809Y-60178190D01*
X138841428Y-60178190D01*
X138912857Y-60202000D01*
X138936666Y-60225809D01*
X139365238Y-60178190D02*
X139270000Y-60178190D01*
X139222380Y-60202000D01*
X139198571Y-60225809D01*
X139150952Y-60297238D01*
X139127142Y-60392476D01*
X139127142Y-60582952D01*
X139150952Y-60630571D01*
X139174761Y-60654380D01*
X139222380Y-60678190D01*
X139317619Y-60678190D01*
X139365238Y-60654380D01*
X139389047Y-60630571D01*
X139412857Y-60582952D01*
X139412857Y-60463904D01*
X139389047Y-60416285D01*
X139365238Y-60392476D01*
X139317619Y-60368666D01*
X139222380Y-60368666D01*
X139174761Y-60392476D01*
X139150952Y-60416285D01*
X139127142Y-60463904D01*
X141360571Y-73996190D02*
X141193904Y-73758095D01*
X141074857Y-73996190D02*
X141074857Y-73496190D01*
X141265333Y-73496190D01*
X141312952Y-73520000D01*
X141336761Y-73543809D01*
X141360571Y-73591428D01*
X141360571Y-73662857D01*
X141336761Y-73710476D01*
X141312952Y-73734285D01*
X141265333Y-73758095D01*
X141074857Y-73758095D01*
X141836761Y-73996190D02*
X141551047Y-73996190D01*
X141693904Y-73996190D02*
X141693904Y-73496190D01*
X141646285Y-73567619D01*
X141598666Y-73615238D01*
X141551047Y-73639047D01*
X142122476Y-73710476D02*
X142074857Y-73686666D01*
X142051047Y-73662857D01*
X142027238Y-73615238D01*
X142027238Y-73591428D01*
X142051047Y-73543809D01*
X142074857Y-73520000D01*
X142122476Y-73496190D01*
X142217714Y-73496190D01*
X142265333Y-73520000D01*
X142289142Y-73543809D01*
X142312952Y-73591428D01*
X142312952Y-73615238D01*
X142289142Y-73662857D01*
X142265333Y-73686666D01*
X142217714Y-73710476D01*
X142122476Y-73710476D01*
X142074857Y-73734285D01*
X142051047Y-73758095D01*
X142027238Y-73805714D01*
X142027238Y-73900952D01*
X142051047Y-73948571D01*
X142074857Y-73972380D01*
X142122476Y-73996190D01*
X142217714Y-73996190D01*
X142265333Y-73972380D01*
X142289142Y-73948571D01*
X142312952Y-73900952D01*
X142312952Y-73805714D01*
X142289142Y-73758095D01*
X142265333Y-73734285D01*
X142217714Y-73710476D01*
X139916666Y-66428571D02*
X139892857Y-66452380D01*
X139821428Y-66476190D01*
X139773809Y-66476190D01*
X139702380Y-66452380D01*
X139654761Y-66404761D01*
X139630952Y-66357142D01*
X139607142Y-66261904D01*
X139607142Y-66190476D01*
X139630952Y-66095238D01*
X139654761Y-66047619D01*
X139702380Y-66000000D01*
X139773809Y-65976190D01*
X139821428Y-65976190D01*
X139892857Y-66000000D01*
X139916666Y-66023809D01*
X140083333Y-65976190D02*
X140416666Y-65976190D01*
X140202380Y-66476190D01*
X150178571Y-66428571D02*
X150154761Y-66452380D01*
X150083333Y-66476190D01*
X150035714Y-66476190D01*
X149964285Y-66452380D01*
X149916666Y-66404761D01*
X149892857Y-66357142D01*
X149869047Y-66261904D01*
X149869047Y-66190476D01*
X149892857Y-66095238D01*
X149916666Y-66047619D01*
X149964285Y-66000000D01*
X150035714Y-65976190D01*
X150083333Y-65976190D01*
X150154761Y-66000000D01*
X150178571Y-66023809D01*
X150654761Y-66476190D02*
X150369047Y-66476190D01*
X150511904Y-66476190D02*
X150511904Y-65976190D01*
X150464285Y-66047619D01*
X150416666Y-66095238D01*
X150369047Y-66119047D01*
X150821428Y-65976190D02*
X151130952Y-65976190D01*
X150964285Y-66166666D01*
X151035714Y-66166666D01*
X151083333Y-66190476D01*
X151107142Y-66214285D01*
X151130952Y-66261904D01*
X151130952Y-66380952D01*
X151107142Y-66428571D01*
X151083333Y-66452380D01*
X151035714Y-66476190D01*
X150892857Y-66476190D01*
X150845238Y-66452380D01*
X150821428Y-66428571D01*
X146678571Y-66428571D02*
X146654761Y-66452380D01*
X146583333Y-66476190D01*
X146535714Y-66476190D01*
X146464285Y-66452380D01*
X146416666Y-66404761D01*
X146392857Y-66357142D01*
X146369047Y-66261904D01*
X146369047Y-66190476D01*
X146392857Y-66095238D01*
X146416666Y-66047619D01*
X146464285Y-66000000D01*
X146535714Y-65976190D01*
X146583333Y-65976190D01*
X146654761Y-66000000D01*
X146678571Y-66023809D01*
X147154761Y-66476190D02*
X146869047Y-66476190D01*
X147011904Y-66476190D02*
X147011904Y-65976190D01*
X146964285Y-66047619D01*
X146916666Y-66095238D01*
X146869047Y-66119047D01*
X147630952Y-66476190D02*
X147345238Y-66476190D01*
X147488095Y-66476190D02*
X147488095Y-65976190D01*
X147440476Y-66047619D01*
X147392857Y-66095238D01*
X147345238Y-66119047D01*
X134416666Y-63076190D02*
X134178571Y-63076190D01*
X134178571Y-62576190D01*
X134845238Y-63076190D02*
X134559523Y-63076190D01*
X134702380Y-63076190D02*
X134702380Y-62576190D01*
X134654761Y-62647619D01*
X134607142Y-62695238D01*
X134559523Y-62719047D01*
X140496190Y-76091428D02*
X140258095Y-76258095D01*
X140496190Y-76377142D02*
X139996190Y-76377142D01*
X139996190Y-76186666D01*
X140020000Y-76139047D01*
X140043809Y-76115238D01*
X140091428Y-76091428D01*
X140162857Y-76091428D01*
X140210476Y-76115238D01*
X140234285Y-76139047D01*
X140258095Y-76186666D01*
X140258095Y-76377142D01*
X140496190Y-75615238D02*
X140496190Y-75900952D01*
X140496190Y-75758095D02*
X139996190Y-75758095D01*
X140067619Y-75805714D01*
X140115238Y-75853333D01*
X140139047Y-75900952D01*
X140496190Y-75139047D02*
X140496190Y-75424761D01*
X140496190Y-75281904D02*
X139996190Y-75281904D01*
X140067619Y-75329523D01*
X140115238Y-75377142D01*
X140139047Y-75424761D01*
X139505571Y-68996190D02*
X139338904Y-68758095D01*
X139219857Y-68996190D02*
X139219857Y-68496190D01*
X139410333Y-68496190D01*
X139457952Y-68520000D01*
X139481761Y-68543809D01*
X139505571Y-68591428D01*
X139505571Y-68662857D01*
X139481761Y-68710476D01*
X139457952Y-68734285D01*
X139410333Y-68758095D01*
X139219857Y-68758095D01*
X139981761Y-68996190D02*
X139696047Y-68996190D01*
X139838904Y-68996190D02*
X139838904Y-68496190D01*
X139791285Y-68567619D01*
X139743666Y-68615238D01*
X139696047Y-68639047D01*
X140291285Y-68496190D02*
X140338904Y-68496190D01*
X140386523Y-68520000D01*
X140410333Y-68543809D01*
X140434142Y-68591428D01*
X140457952Y-68686666D01*
X140457952Y-68805714D01*
X140434142Y-68900952D01*
X140410333Y-68948571D01*
X140386523Y-68972380D01*
X140338904Y-68996190D01*
X140291285Y-68996190D01*
X140243666Y-68972380D01*
X140219857Y-68948571D01*
X140196047Y-68900952D01*
X140172238Y-68805714D01*
X140172238Y-68686666D01*
X140196047Y-68591428D01*
X140219857Y-68543809D01*
X140243666Y-68520000D01*
X140291285Y-68496190D01*
X157266571Y-66428571D02*
X157242761Y-66452380D01*
X157171333Y-66476190D01*
X157123714Y-66476190D01*
X157052285Y-66452380D01*
X157004666Y-66404761D01*
X156980857Y-66357142D01*
X156957047Y-66261904D01*
X156957047Y-66190476D01*
X156980857Y-66095238D01*
X157004666Y-66047619D01*
X157052285Y-66000000D01*
X157123714Y-65976190D01*
X157171333Y-65976190D01*
X157242761Y-66000000D01*
X157266571Y-66023809D01*
X157742761Y-66476190D02*
X157457047Y-66476190D01*
X157599904Y-66476190D02*
X157599904Y-65976190D01*
X157552285Y-66047619D01*
X157504666Y-66095238D01*
X157457047Y-66119047D01*
X157909428Y-65976190D02*
X158242761Y-65976190D01*
X158028476Y-66476190D01*
X127603333Y-57984285D02*
X127436666Y-57984285D01*
X127436666Y-58246190D02*
X127436666Y-57746190D01*
X127674761Y-57746190D01*
X128031904Y-57984285D02*
X128103333Y-58008095D01*
X128127142Y-58031904D01*
X128150952Y-58079523D01*
X128150952Y-58150952D01*
X128127142Y-58198571D01*
X128103333Y-58222380D01*
X128055714Y-58246190D01*
X127865238Y-58246190D01*
X127865238Y-57746190D01*
X128031904Y-57746190D01*
X128079523Y-57770000D01*
X128103333Y-57793809D01*
X128127142Y-57841428D01*
X128127142Y-57889047D01*
X128103333Y-57936666D01*
X128079523Y-57960476D01*
X128031904Y-57984285D01*
X127865238Y-57984285D01*
X128341428Y-57793809D02*
X128365238Y-57770000D01*
X128412857Y-57746190D01*
X128531904Y-57746190D01*
X128579523Y-57770000D01*
X128603333Y-57793809D01*
X128627142Y-57841428D01*
X128627142Y-57889047D01*
X128603333Y-57960476D01*
X128317619Y-58246190D01*
X128627142Y-58246190D01*
X143553666Y-68996190D02*
X143387000Y-68758095D01*
X143267952Y-68996190D02*
X143267952Y-68496190D01*
X143458428Y-68496190D01*
X143506047Y-68520000D01*
X143529857Y-68543809D01*
X143553666Y-68591428D01*
X143553666Y-68662857D01*
X143529857Y-68710476D01*
X143506047Y-68734285D01*
X143458428Y-68758095D01*
X143267952Y-68758095D01*
X143791761Y-68996190D02*
X143887000Y-68996190D01*
X143934619Y-68972380D01*
X143958428Y-68948571D01*
X144006047Y-68877142D01*
X144029857Y-68781904D01*
X144029857Y-68591428D01*
X144006047Y-68543809D01*
X143982238Y-68520000D01*
X143934619Y-68496190D01*
X143839380Y-68496190D01*
X143791761Y-68520000D01*
X143767952Y-68543809D01*
X143744142Y-68591428D01*
X143744142Y-68710476D01*
X143767952Y-68758095D01*
X143791761Y-68781904D01*
X143839380Y-68805714D01*
X143934619Y-68805714D01*
X143982238Y-68781904D01*
X144006047Y-68758095D01*
X144029857Y-68710476D01*
X156142571Y-60630571D02*
X156118761Y-60654380D01*
X156047333Y-60678190D01*
X155999714Y-60678190D01*
X155928285Y-60654380D01*
X155880666Y-60606761D01*
X155856857Y-60559142D01*
X155833047Y-60463904D01*
X155833047Y-60392476D01*
X155856857Y-60297238D01*
X155880666Y-60249619D01*
X155928285Y-60202000D01*
X155999714Y-60178190D01*
X156047333Y-60178190D01*
X156118761Y-60202000D01*
X156142571Y-60225809D01*
X156618761Y-60678190D02*
X156333047Y-60678190D01*
X156475904Y-60678190D02*
X156475904Y-60178190D01*
X156428285Y-60249619D01*
X156380666Y-60297238D01*
X156333047Y-60321047D01*
X157047333Y-60178190D02*
X156952095Y-60178190D01*
X156904476Y-60202000D01*
X156880666Y-60225809D01*
X156833047Y-60297238D01*
X156809238Y-60392476D01*
X156809238Y-60582952D01*
X156833047Y-60630571D01*
X156856857Y-60654380D01*
X156904476Y-60678190D01*
X156999714Y-60678190D01*
X157047333Y-60654380D01*
X157071142Y-60630571D01*
X157094952Y-60582952D01*
X157094952Y-60463904D01*
X157071142Y-60416285D01*
X157047333Y-60392476D01*
X156999714Y-60368666D01*
X156904476Y-60368666D01*
X156856857Y-60392476D01*
X156833047Y-60416285D01*
X156809238Y-60463904D01*
X143698571Y-70746190D02*
X143531904Y-70508095D01*
X143412857Y-70746190D02*
X143412857Y-70246190D01*
X143603333Y-70246190D01*
X143650952Y-70270000D01*
X143674761Y-70293809D01*
X143698571Y-70341428D01*
X143698571Y-70412857D01*
X143674761Y-70460476D01*
X143650952Y-70484285D01*
X143603333Y-70508095D01*
X143412857Y-70508095D01*
X144174761Y-70746190D02*
X143889047Y-70746190D01*
X144031904Y-70746190D02*
X144031904Y-70246190D01*
X143984285Y-70317619D01*
X143936666Y-70365238D01*
X143889047Y-70389047D01*
X144341428Y-70246190D02*
X144650952Y-70246190D01*
X144484285Y-70436666D01*
X144555714Y-70436666D01*
X144603333Y-70460476D01*
X144627142Y-70484285D01*
X144650952Y-70531904D01*
X144650952Y-70650952D01*
X144627142Y-70698571D01*
X144603333Y-70722380D01*
X144555714Y-70746190D01*
X144412857Y-70746190D01*
X144365238Y-70722380D01*
X144341428Y-70698571D01*
X143553666Y-66428571D02*
X143529857Y-66452380D01*
X143458428Y-66476190D01*
X143410809Y-66476190D01*
X143339380Y-66452380D01*
X143291761Y-66404761D01*
X143267952Y-66357142D01*
X143244142Y-66261904D01*
X143244142Y-66190476D01*
X143267952Y-66095238D01*
X143291761Y-66047619D01*
X143339380Y-66000000D01*
X143410809Y-65976190D01*
X143458428Y-65976190D01*
X143529857Y-66000000D01*
X143553666Y-66023809D01*
X143791761Y-66476190D02*
X143887000Y-66476190D01*
X143934619Y-66452380D01*
X143958428Y-66428571D01*
X144006047Y-66357142D01*
X144029857Y-66261904D01*
X144029857Y-66071428D01*
X144006047Y-66023809D01*
X143982238Y-66000000D01*
X143934619Y-65976190D01*
X143839380Y-65976190D01*
X143791761Y-66000000D01*
X143767952Y-66023809D01*
X143744142Y-66071428D01*
X143744142Y-66190476D01*
X143767952Y-66238095D01*
X143791761Y-66261904D01*
X143839380Y-66285714D01*
X143934619Y-66285714D01*
X143982238Y-66261904D01*
X144006047Y-66238095D01*
X144029857Y-66190476D01*
X144919047Y-74626190D02*
X144919047Y-75030952D01*
X144942857Y-75078571D01*
X144966666Y-75102380D01*
X145014285Y-75126190D01*
X145109523Y-75126190D01*
X145157142Y-75102380D01*
X145180952Y-75078571D01*
X145204761Y-75030952D01*
X145204761Y-74626190D01*
X145657142Y-74792857D02*
X145657142Y-75126190D01*
X145538095Y-74602380D02*
X145419047Y-74959523D01*
X145728571Y-74959523D01*
X134722380Y-69043809D02*
X134674761Y-69020000D01*
X134627142Y-68972380D01*
X134555714Y-68900952D01*
X134508095Y-68877142D01*
X134460476Y-68877142D01*
X134484285Y-68996190D02*
X134436666Y-68972380D01*
X134389047Y-68924761D01*
X134365238Y-68829523D01*
X134365238Y-68662857D01*
X134389047Y-68567619D01*
X134436666Y-68520000D01*
X134484285Y-68496190D01*
X134579523Y-68496190D01*
X134627142Y-68520000D01*
X134674761Y-68567619D01*
X134698571Y-68662857D01*
X134698571Y-68829523D01*
X134674761Y-68924761D01*
X134627142Y-68972380D01*
X134579523Y-68996190D01*
X134484285Y-68996190D01*
X135174761Y-68996190D02*
X134889047Y-68996190D01*
X135031904Y-68996190D02*
X135031904Y-68496190D01*
X134984285Y-68567619D01*
X134936666Y-68615238D01*
X134889047Y-68639047D01*
X161226190Y-63619047D02*
X160726190Y-63619047D01*
X160726190Y-63500000D01*
X160750000Y-63428571D01*
X160797619Y-63380952D01*
X160845238Y-63357142D01*
X160940476Y-63333333D01*
X161011904Y-63333333D01*
X161107142Y-63357142D01*
X161154761Y-63380952D01*
X161202380Y-63428571D01*
X161226190Y-63500000D01*
X161226190Y-63619047D01*
X161226190Y-63095238D02*
X161226190Y-63000000D01*
X161202380Y-62952380D01*
X161178571Y-62928571D01*
X161107142Y-62880952D01*
X161011904Y-62857142D01*
X160821428Y-62857142D01*
X160773809Y-62880952D01*
X160750000Y-62904761D01*
X160726190Y-62952380D01*
X160726190Y-63047619D01*
X160750000Y-63095238D01*
X160773809Y-63119047D01*
X160821428Y-63142857D01*
X160940476Y-63142857D01*
X160988095Y-63119047D01*
X161011904Y-63095238D01*
X161035714Y-63047619D01*
X161035714Y-62952380D01*
X161011904Y-62904761D01*
X160988095Y-62880952D01*
X160940476Y-62857142D01*
X159246190Y-75639047D02*
X158746190Y-75639047D01*
X158746190Y-75520000D01*
X158770000Y-75448571D01*
X158817619Y-75400952D01*
X158865238Y-75377142D01*
X158960476Y-75353333D01*
X159031904Y-75353333D01*
X159127142Y-75377142D01*
X159174761Y-75400952D01*
X159222380Y-75448571D01*
X159246190Y-75520000D01*
X159246190Y-75639047D01*
X158793809Y-75162857D02*
X158770000Y-75139047D01*
X158746190Y-75091428D01*
X158746190Y-74972380D01*
X158770000Y-74924761D01*
X158793809Y-74900952D01*
X158841428Y-74877142D01*
X158889047Y-74877142D01*
X158960476Y-74900952D01*
X159246190Y-75186666D01*
X159246190Y-74877142D01*
X162389047Y-63298190D02*
X162674761Y-63298190D01*
X162531904Y-63798190D02*
X162531904Y-63298190D01*
X162841428Y-63798190D02*
X162841428Y-63298190D01*
X163031904Y-63298190D01*
X163079523Y-63322000D01*
X163103333Y-63345809D01*
X163127142Y-63393428D01*
X163127142Y-63464857D01*
X163103333Y-63512476D01*
X163079523Y-63536285D01*
X163031904Y-63560095D01*
X162841428Y-63560095D01*
X163293809Y-63298190D02*
X163627142Y-63298190D01*
X163412857Y-63798190D01*
X137748571Y-71948571D02*
X137724761Y-71972380D01*
X137653333Y-71996190D01*
X137605714Y-71996190D01*
X137534285Y-71972380D01*
X137486666Y-71924761D01*
X137462857Y-71877142D01*
X137439047Y-71781904D01*
X137439047Y-71710476D01*
X137462857Y-71615238D01*
X137486666Y-71567619D01*
X137534285Y-71520000D01*
X137605714Y-71496190D01*
X137653333Y-71496190D01*
X137724761Y-71520000D01*
X137748571Y-71543809D01*
X138224761Y-71996190D02*
X137939047Y-71996190D01*
X138081904Y-71996190D02*
X138081904Y-71496190D01*
X138034285Y-71567619D01*
X137986666Y-71615238D01*
X137939047Y-71639047D01*
X138462857Y-71996190D02*
X138558095Y-71996190D01*
X138605714Y-71972380D01*
X138629523Y-71948571D01*
X138677142Y-71877142D01*
X138700952Y-71781904D01*
X138700952Y-71591428D01*
X138677142Y-71543809D01*
X138653333Y-71520000D01*
X138605714Y-71496190D01*
X138510476Y-71496190D01*
X138462857Y-71520000D01*
X138439047Y-71543809D01*
X138415238Y-71591428D01*
X138415238Y-71710476D01*
X138439047Y-71758095D01*
X138462857Y-71781904D01*
X138510476Y-71805714D01*
X138605714Y-71805714D01*
X138653333Y-71781904D01*
X138677142Y-71758095D01*
X138700952Y-71710476D01*
X159698571Y-60630571D02*
X159674761Y-60654380D01*
X159603333Y-60678190D01*
X159555714Y-60678190D01*
X159484285Y-60654380D01*
X159436666Y-60606761D01*
X159412857Y-60559142D01*
X159389047Y-60463904D01*
X159389047Y-60392476D01*
X159412857Y-60297238D01*
X159436666Y-60249619D01*
X159484285Y-60202000D01*
X159555714Y-60178190D01*
X159603333Y-60178190D01*
X159674761Y-60202000D01*
X159698571Y-60225809D01*
X160174761Y-60678190D02*
X159889047Y-60678190D01*
X160031904Y-60678190D02*
X160031904Y-60178190D01*
X159984285Y-60249619D01*
X159936666Y-60297238D01*
X159889047Y-60321047D01*
X160460476Y-60392476D02*
X160412857Y-60368666D01*
X160389047Y-60344857D01*
X160365238Y-60297238D01*
X160365238Y-60273428D01*
X160389047Y-60225809D01*
X160412857Y-60202000D01*
X160460476Y-60178190D01*
X160555714Y-60178190D01*
X160603333Y-60202000D01*
X160627142Y-60225809D01*
X160650952Y-60273428D01*
X160650952Y-60297238D01*
X160627142Y-60344857D01*
X160603333Y-60368666D01*
X160555714Y-60392476D01*
X160460476Y-60392476D01*
X160412857Y-60416285D01*
X160389047Y-60440095D01*
X160365238Y-60487714D01*
X160365238Y-60582952D01*
X160389047Y-60630571D01*
X160412857Y-60654380D01*
X160460476Y-60678190D01*
X160555714Y-60678190D01*
X160603333Y-60654380D01*
X160627142Y-60630571D01*
X160650952Y-60582952D01*
X160650952Y-60487714D01*
X160627142Y-60440095D01*
X160603333Y-60416285D01*
X160555714Y-60392476D01*
X142436666Y-60653571D02*
X142412857Y-60677380D01*
X142341428Y-60701190D01*
X142293809Y-60701190D01*
X142222380Y-60677380D01*
X142174761Y-60629761D01*
X142150952Y-60582142D01*
X142127142Y-60486904D01*
X142127142Y-60415476D01*
X142150952Y-60320238D01*
X142174761Y-60272619D01*
X142222380Y-60225000D01*
X142293809Y-60201190D01*
X142341428Y-60201190D01*
X142412857Y-60225000D01*
X142436666Y-60248809D01*
X142722380Y-60415476D02*
X142674761Y-60391666D01*
X142650952Y-60367857D01*
X142627142Y-60320238D01*
X142627142Y-60296428D01*
X142650952Y-60248809D01*
X142674761Y-60225000D01*
X142722380Y-60201190D01*
X142817619Y-60201190D01*
X142865238Y-60225000D01*
X142889047Y-60248809D01*
X142912857Y-60296428D01*
X142912857Y-60320238D01*
X142889047Y-60367857D01*
X142865238Y-60391666D01*
X142817619Y-60415476D01*
X142722380Y-60415476D01*
X142674761Y-60439285D01*
X142650952Y-60463095D01*
X142627142Y-60510714D01*
X142627142Y-60605952D01*
X142650952Y-60653571D01*
X142674761Y-60677380D01*
X142722380Y-60701190D01*
X142817619Y-60701190D01*
X142865238Y-60677380D01*
X142889047Y-60653571D01*
X142912857Y-60605952D01*
X142912857Y-60510714D01*
X142889047Y-60463095D01*
X142865238Y-60439285D01*
X142817619Y-60415476D01*
X147226190Y-63619047D02*
X146726190Y-63619047D01*
X146726190Y-63500000D01*
X146750000Y-63428571D01*
X146797619Y-63380952D01*
X146845238Y-63357142D01*
X146940476Y-63333333D01*
X147011904Y-63333333D01*
X147107142Y-63357142D01*
X147154761Y-63380952D01*
X147202380Y-63428571D01*
X147226190Y-63500000D01*
X147226190Y-63619047D01*
X146726190Y-62880952D02*
X146726190Y-63119047D01*
X146964285Y-63142857D01*
X146940476Y-63119047D01*
X146916666Y-63071428D01*
X146916666Y-62952380D01*
X146940476Y-62904761D01*
X146964285Y-62880952D01*
X147011904Y-62857142D01*
X147130952Y-62857142D01*
X147178571Y-62880952D01*
X147202380Y-62904761D01*
X147226190Y-62952380D01*
X147226190Y-63071428D01*
X147202380Y-63119047D01*
X147178571Y-63142857D01*
X144186666Y-77698571D02*
X144162857Y-77722380D01*
X144091428Y-77746190D01*
X144043809Y-77746190D01*
X143972380Y-77722380D01*
X143924761Y-77674761D01*
X143900952Y-77627142D01*
X143877142Y-77531904D01*
X143877142Y-77460476D01*
X143900952Y-77365238D01*
X143924761Y-77317619D01*
X143972380Y-77270000D01*
X144043809Y-77246190D01*
X144091428Y-77246190D01*
X144162857Y-77270000D01*
X144186666Y-77293809D01*
X144353333Y-77246190D02*
X144662857Y-77246190D01*
X144496190Y-77436666D01*
X144567619Y-77436666D01*
X144615238Y-77460476D01*
X144639047Y-77484285D01*
X144662857Y-77531904D01*
X144662857Y-77650952D01*
X144639047Y-77698571D01*
X144615238Y-77722380D01*
X144567619Y-77746190D01*
X144424761Y-77746190D01*
X144377142Y-77722380D01*
X144353333Y-77698571D01*
D14*
X129235000Y-71728064D02*
X129235000Y-71273936D01*
X127765000Y-71728064D02*
X127765000Y-71273936D01*
X163770000Y-60325000D02*
X163770000Y-62925000D01*
X163770000Y-60325000D02*
X166430000Y-60325000D01*
X163770000Y-57725000D02*
X165100000Y-57725000D01*
X163770000Y-62925000D02*
X166430000Y-62925000D01*
X163770000Y-59055000D02*
X163770000Y-57725000D01*
X166430000Y-60325000D02*
X166430000Y-62925000D01*
X145738748Y-59735000D02*
X146261252Y-59735000D01*
X145738748Y-58265000D02*
X146261252Y-58265000D01*
X164360000Y-71755000D02*
G75*
G03*
X164360000Y-71755000I-1800000J0D01*
G01*
X164360000Y-75565000D02*
G75*
G03*
X164360000Y-75565000I-1800000J0D01*
G01*
X159060000Y-62000000D02*
X159060000Y-61350000D01*
X155940000Y-62000000D02*
X155940000Y-63675000D01*
X159060000Y-62000000D02*
X159060000Y-62650000D01*
X155940000Y-62000000D02*
X155940000Y-61350000D01*
X141940000Y-62000000D02*
X141940000Y-63675000D01*
X145060000Y-62000000D02*
X145060000Y-61350000D01*
X141940000Y-62000000D02*
X141940000Y-61350000D01*
X145060000Y-62000000D02*
X145060000Y-62650000D01*
X158255000Y-71205436D02*
X158255000Y-71659564D01*
X156785000Y-71205436D02*
X156785000Y-71659564D01*
X152738748Y-59735000D02*
X153261252Y-59735000D01*
X152738748Y-58265000D02*
X153261252Y-58265000D01*
X138394000Y-61976000D02*
X138394000Y-63651000D01*
X141514000Y-61976000D02*
X141514000Y-61326000D01*
X141514000Y-61976000D02*
X141514000Y-62626000D01*
X138394000Y-61976000D02*
X138394000Y-61326000D01*
X147497064Y-66785000D02*
X147042936Y-66785000D01*
X147497064Y-68255000D02*
X147042936Y-68255000D01*
X149238748Y-58265000D02*
X149761252Y-58265000D01*
X149238748Y-59735000D02*
X149761252Y-59735000D01*
X151247064Y-68255000D02*
X150792936Y-68255000D01*
X151247064Y-66785000D02*
X150792936Y-66785000D01*
X145755000Y-72542936D02*
X145755000Y-72997064D01*
X144285000Y-72542936D02*
X144285000Y-72997064D01*
X148940000Y-62000000D02*
X148940000Y-61350000D01*
X152060000Y-62000000D02*
X152060000Y-61350000D01*
X148940000Y-62000000D02*
X148940000Y-63675000D01*
X152060000Y-62000000D02*
X152060000Y-62650000D01*
X139876000Y-75565000D02*
G75*
G03*
X139876000Y-75565000I-1700000J0D01*
G01*
X155560000Y-62000000D02*
X155560000Y-61350000D01*
X155560000Y-62000000D02*
X155560000Y-62650000D01*
X152440000Y-62000000D02*
X152440000Y-61350000D01*
X152440000Y-62000000D02*
X152440000Y-63675000D01*
X129365000Y-59738748D02*
X129365000Y-60261252D01*
X130835000Y-59738748D02*
X130835000Y-60261252D01*
X153738748Y-65735000D02*
X154261252Y-65735000D01*
X153738748Y-64265000D02*
X154261252Y-64265000D01*
X129770000Y-76895000D02*
X129770000Y-74235000D01*
X129770000Y-76895000D02*
X134910000Y-76895000D01*
X129770000Y-74235000D02*
X134910000Y-74235000D01*
X127170000Y-76895000D02*
X127170000Y-75565000D01*
X134910000Y-76895000D02*
X134910000Y-74235000D01*
X128500000Y-76895000D02*
X127170000Y-76895000D01*
G36*
X159648008Y-68234981D02*
G01*
X159712465Y-68112190D01*
X159789031Y-67972078D01*
X159836273Y-67887910D01*
X159935984Y-67711889D01*
X160049844Y-67510887D01*
X160169200Y-67300177D01*
X160285401Y-67095035D01*
X160389794Y-66910735D01*
X160405786Y-66882503D01*
X160487331Y-66738567D01*
X160563700Y-66603823D01*
X160631174Y-66484828D01*
X160686034Y-66388140D01*
X160724562Y-66320316D01*
X160740342Y-66292612D01*
X160769428Y-66241485D01*
X160815151Y-66160815D01*
X160871423Y-66061359D01*
X160932152Y-65953873D01*
X160936813Y-65945618D01*
X160998233Y-65838645D01*
X161056815Y-65739863D01*
X161106217Y-65659759D01*
X161140098Y-65608820D01*
X161141960Y-65606304D01*
X161216055Y-65539165D01*
X161302073Y-65514764D01*
X161393526Y-65534762D01*
X161402994Y-65539410D01*
X161419812Y-65548067D01*
X161435065Y-65557376D01*
X161450880Y-65570742D01*
X161469388Y-65591576D01*
X161492715Y-65623283D01*
X161522991Y-65669273D01*
X161562343Y-65732954D01*
X161612900Y-65817733D01*
X161676791Y-65927018D01*
X161756143Y-66064218D01*
X161853086Y-66232740D01*
X161969747Y-66435992D01*
X162046752Y-66570208D01*
X162160014Y-66767539D01*
X162284071Y-66983567D01*
X162412313Y-67206788D01*
X162538130Y-67425699D01*
X162654912Y-67628797D01*
X162756049Y-67804579D01*
X162766342Y-67822460D01*
X162853194Y-67975331D01*
X162930974Y-68116103D01*
X162996830Y-68239314D01*
X163047907Y-68339502D01*
X163081350Y-68411204D01*
X163094305Y-68448958D01*
X163094371Y-68450271D01*
X163079864Y-68511043D01*
X163050160Y-68562864D01*
X163005949Y-68617476D01*
X161610133Y-68619178D01*
X161349908Y-68619265D01*
X161095432Y-68618914D01*
X160851891Y-68618159D01*
X160624472Y-68617035D01*
X160418363Y-68615579D01*
X160238748Y-68613827D01*
X160090817Y-68611812D01*
X159979754Y-68609572D01*
X159920292Y-68607612D01*
X159796378Y-68601249D01*
X159710405Y-68594305D01*
X159654053Y-68585274D01*
X159619007Y-68572649D01*
X159596948Y-68554927D01*
X159591382Y-68548077D01*
X159563222Y-68487622D01*
X159555763Y-68443101D01*
X159566810Y-68406071D01*
X159586454Y-68361916D01*
X159855756Y-68361916D01*
X159878241Y-68364123D01*
X159943105Y-68366208D01*
X160046463Y-68368137D01*
X160184426Y-68369877D01*
X160353110Y-68371394D01*
X160548626Y-68372655D01*
X160767089Y-68373626D01*
X161004613Y-68374274D01*
X161257309Y-68374566D01*
X161324699Y-68374579D01*
X161580690Y-68374418D01*
X161822513Y-68373952D01*
X162046281Y-68373210D01*
X162248109Y-68372219D01*
X162424109Y-68371008D01*
X162570395Y-68369604D01*
X162683081Y-68368035D01*
X162758280Y-68366329D01*
X162792105Y-68364515D01*
X162793643Y-68364031D01*
X162782785Y-68340122D01*
X162754541Y-68288515D01*
X162721259Y-68231016D01*
X162696166Y-68187963D01*
X162650469Y-68108929D01*
X162586563Y-67998077D01*
X162506842Y-67859572D01*
X162413700Y-67697577D01*
X162309533Y-67516255D01*
X162196735Y-67319772D01*
X162077700Y-67112290D01*
X162012259Y-66998168D01*
X161869769Y-66749625D01*
X161748548Y-66538211D01*
X161646832Y-66360929D01*
X161562855Y-66214785D01*
X161494851Y-66096781D01*
X161441057Y-66003924D01*
X161399706Y-65933216D01*
X161369033Y-65881662D01*
X161347274Y-65846267D01*
X161332662Y-65824035D01*
X161323434Y-65811969D01*
X161317823Y-65807075D01*
X161314065Y-65806357D01*
X161310394Y-65806819D01*
X161310272Y-65806820D01*
X161295653Y-65826180D01*
X161261164Y-65881073D01*
X161209631Y-65966717D01*
X161143882Y-66078329D01*
X161066746Y-66211128D01*
X160981051Y-66360330D01*
X160930665Y-66448760D01*
X160751132Y-66764958D01*
X160584996Y-67058015D01*
X160433261Y-67326141D01*
X160296934Y-67567547D01*
X160177018Y-67780445D01*
X160074519Y-67963045D01*
X159990442Y-68113559D01*
X159925793Y-68230197D01*
X159881576Y-68311172D01*
X159858796Y-68354693D01*
X159855756Y-68361916D01*
X159586454Y-68361916D01*
X159598508Y-68334820D01*
X159648008Y-68234981D01*
G37*
G36*
X161415073Y-66518159D02*
G01*
X161386020Y-66585589D01*
X161347680Y-66674809D01*
X161313168Y-66755272D01*
X161268405Y-66858584D01*
X161219546Y-66969620D01*
X161187431Y-67041512D01*
X161156793Y-67114041D01*
X161137198Y-67169552D01*
X161132878Y-67194526D01*
X161154338Y-67190844D01*
X161207325Y-67167723D01*
X161283453Y-67129123D01*
X161359379Y-67087507D01*
X161448382Y-67038989D01*
X161521186Y-67002647D01*
X161569453Y-66982426D01*
X161584944Y-66980814D01*
X161581077Y-67007591D01*
X161566870Y-67071910D01*
X161544044Y-67166648D01*
X161514322Y-67284680D01*
X161479426Y-67418884D01*
X161475082Y-67435322D01*
X161439353Y-67571414D01*
X161408105Y-67692559D01*
X161383161Y-67791517D01*
X161366342Y-67861050D01*
X161359469Y-67893918D01*
X161359399Y-67894976D01*
X161373445Y-67901348D01*
X161394657Y-67888323D01*
X161431455Y-67865158D01*
X161442487Y-67876335D01*
X161428678Y-67918408D01*
X161390951Y-67987926D01*
X161351226Y-68050441D01*
X161301063Y-68124263D01*
X161260803Y-68180502D01*
X161236949Y-68210189D01*
X161233623Y-68212649D01*
X161224396Y-68191978D01*
X161210420Y-68138377D01*
X161197967Y-68079634D01*
X161175609Y-67964517D01*
X161161403Y-67888091D01*
X161154755Y-67843617D01*
X161155069Y-67824356D01*
X161161752Y-67823568D01*
X161174208Y-67834513D01*
X161176524Y-67836738D01*
X161209800Y-67861520D01*
X161221929Y-67865654D01*
X161230911Y-67844354D01*
X161243226Y-67787296D01*
X161257472Y-67704749D01*
X161272247Y-67606977D01*
X161286149Y-67504247D01*
X161297775Y-67406825D01*
X161305724Y-67324977D01*
X161308593Y-67268971D01*
X161306093Y-67249446D01*
X161281428Y-67254201D01*
X161226703Y-67278388D01*
X161151472Y-67317538D01*
X161107175Y-67342468D01*
X161002719Y-67400896D01*
X160932620Y-67435073D01*
X160892640Y-67446262D01*
X160878542Y-67435723D01*
X160884450Y-67408778D01*
X160897537Y-67368767D01*
X160918764Y-67297112D01*
X160944307Y-67206859D01*
X160954002Y-67171665D01*
X160983190Y-67065297D01*
X161019509Y-66933508D01*
X161057677Y-66795449D01*
X161083249Y-66703222D01*
X161158738Y-66431410D01*
X161452552Y-66431410D01*
X161415073Y-66518159D01*
G37*
X166160000Y-65592936D02*
X166160000Y-67047064D01*
X164340000Y-65592936D02*
X164340000Y-67047064D01*
X138738748Y-59735000D02*
X139261252Y-59735000D01*
X138738748Y-58265000D02*
X139261252Y-58265000D01*
X141997064Y-71785000D02*
X141542936Y-71785000D01*
X141997064Y-73255000D02*
X141542936Y-73255000D01*
X139738748Y-65735000D02*
X140261252Y-65735000D01*
X139738748Y-64265000D02*
X140261252Y-64265000D01*
X150238748Y-64265000D02*
X150761252Y-64265000D01*
X150238748Y-65735000D02*
X150761252Y-65735000D01*
X146738748Y-65735000D02*
X147261252Y-65735000D01*
X146738748Y-64265000D02*
X147261252Y-64265000D01*
X132400000Y-58100000D02*
X132400000Y-62100000D01*
X136600000Y-58100000D02*
X136600000Y-62100000D01*
X140785000Y-75997064D02*
X140785000Y-75542936D01*
X142255000Y-75997064D02*
X142255000Y-75542936D01*
X139630936Y-66785000D02*
X140085064Y-66785000D01*
X139630936Y-68255000D02*
X140085064Y-68255000D01*
X157326748Y-64265000D02*
X157849252Y-64265000D01*
X157326748Y-65735000D02*
X157849252Y-65735000D01*
X128755000Y-60247064D02*
X128755000Y-59792936D01*
X127285000Y-60247064D02*
X127285000Y-59792936D01*
X143835064Y-68255000D02*
X143380936Y-68255000D01*
X143835064Y-66785000D02*
X143380936Y-66785000D01*
X156326748Y-58265000D02*
X156849252Y-58265000D01*
X156326748Y-59735000D02*
X156849252Y-59735000D01*
X141997064Y-71255000D02*
X141542936Y-71255000D01*
X141997064Y-69785000D02*
X141542936Y-69785000D01*
X143326748Y-65735000D02*
X143849252Y-65735000D01*
X143326748Y-64265000D02*
X143849252Y-64265000D01*
X156330000Y-73520000D02*
X156330000Y-75470000D01*
X156330000Y-73520000D02*
X156330000Y-71570000D01*
X146210000Y-73520000D02*
X146210000Y-76970000D01*
X146210000Y-73520000D02*
X146210000Y-71570000D01*
X127726000Y-62630000D02*
X133736000Y-62630000D01*
X129976000Y-69450000D02*
X133736000Y-69450000D01*
X133736000Y-69450000D02*
X133736000Y-68190000D01*
X133736000Y-62630000D02*
X133736000Y-63890000D01*
X162560000Y-62000000D02*
X162560000Y-61350000D01*
X159440000Y-62000000D02*
X159440000Y-61350000D01*
X159440000Y-62000000D02*
X159440000Y-63675000D01*
X162560000Y-62000000D02*
X162560000Y-62650000D01*
X158370000Y-76770000D02*
X158370000Y-74220000D01*
X156670000Y-76770000D02*
X156670000Y-74220000D01*
X156670000Y-76770000D02*
X158370000Y-76770000D01*
X163720000Y-65720000D02*
X162320000Y-65720000D01*
X163720000Y-64320000D02*
X163720000Y-65720000D01*
X162320000Y-65720000D02*
X162320000Y-64320000D01*
X162320000Y-64320000D02*
X163720000Y-64320000D01*
X138331252Y-71255000D02*
X137808748Y-71255000D01*
X138331252Y-69785000D02*
X137808748Y-69785000D01*
X159738748Y-58265000D02*
X160261252Y-58265000D01*
X159738748Y-59735000D02*
X160261252Y-59735000D01*
X142238748Y-58265000D02*
X142761252Y-58265000D01*
X142238748Y-59735000D02*
X142761252Y-59735000D01*
X145440000Y-62000000D02*
X145440000Y-63675000D01*
X148560000Y-62000000D02*
X148560000Y-62650000D01*
X148560000Y-62000000D02*
X148560000Y-61350000D01*
X145440000Y-62000000D02*
X145440000Y-61350000D01*
X144008748Y-77005000D02*
X144531252Y-77005000D01*
X144008748Y-75535000D02*
X144531252Y-75535000D01*
M02*
