G04 #@! TF.GenerationSoftware,KiCad,Pcbnew,5.99.0-unknown-50e22de3ba~95~ubuntu20.04.1*
G04 #@! TF.CreationDate,2021-01-23T19:03:27+09:00*
G04 #@! TF.ProjectId,OpenRover-4,4f70656e-526f-4766-9572-2d342e6b6963,rev?*
G04 #@! TF.SameCoordinates,Original*
G04 #@! TF.FileFunction,Legend,Bot*
G04 #@! TF.FilePolarity,Positive*
%FSLAX46Y46*%
G04 Gerber Fmt 4.6, Leading zero omitted, Abs format (unit mm)*
G04 Created by KiCad (PCBNEW 5.99.0-unknown-50e22de3ba~95~ubuntu20.04.1) date 2021-01-23 19:03:27*
%MOMM*%
%LPD*%
G01*
G04 APERTURE LIST*
%ADD10C,0.104000*%
%ADD11C,0.150000*%
%ADD12C,0.100000*%
%ADD13C,0.075000*%
%ADD14C,0.300000*%
%ADD15C,0.120000*%
G04 APERTURE END LIST*
D10*
X163522365Y-67456780D02*
X163536293Y-67460742D01*
X165655500Y-67189284D02*
X165649584Y-67195409D01*
X163653010Y-67475922D02*
X165498696Y-67475922D01*
X164499255Y-65219458D02*
X164507419Y-65217134D01*
X165657428Y-67306051D02*
X165648507Y-67311008D01*
X164703070Y-65754852D02*
X164702042Y-65752794D01*
X164482753Y-65129405D02*
X164492678Y-65126581D01*
X165558290Y-67254351D02*
X165550337Y-67257191D01*
X165010940Y-66419964D02*
X165011054Y-66415978D01*
X164375157Y-65186886D02*
X164383178Y-65180510D01*
X164367393Y-65762207D02*
X164366257Y-65766008D01*
X164961043Y-65210342D02*
X164953322Y-65197451D01*
X164369828Y-65808746D02*
X164534129Y-66171173D01*
X165707217Y-67270330D02*
X165699395Y-67276977D01*
X165670030Y-67442283D02*
X165696169Y-67430458D01*
X163495044Y-67447535D02*
X163508612Y-67452377D01*
X163512271Y-67315692D02*
X163494268Y-67306076D01*
X164698559Y-65746914D02*
X164697271Y-65745055D01*
X165691502Y-66879868D02*
X165699790Y-66895347D01*
X164675649Y-65726082D02*
X164673672Y-65725062D01*
X163579045Y-67469921D02*
X163593590Y-67472062D01*
X164460076Y-65234912D02*
X164467676Y-65231320D01*
X164408325Y-65721555D02*
X164404600Y-65722891D01*
X164452605Y-65238749D02*
X164460076Y-65234912D01*
X164575839Y-65208237D02*
X164593394Y-65208805D01*
X165573854Y-67247913D02*
X165566131Y-67251258D01*
X164507419Y-65217134D02*
X164515682Y-65215073D01*
X164688330Y-65735044D02*
X164686654Y-65733576D01*
X164928006Y-65160801D02*
X164918879Y-65149276D01*
X164404308Y-65272222D02*
X164410743Y-65266752D01*
X165929109Y-67144872D02*
X165935704Y-67116717D01*
X164419977Y-65718953D02*
X164416024Y-65719581D01*
X163425383Y-67027040D02*
X163424831Y-67010256D01*
X165943240Y-67059773D02*
X165944182Y-67031143D01*
X164911528Y-67045009D02*
X164912310Y-67042309D01*
X164889554Y-65116840D02*
X164879159Y-65106758D01*
X164798600Y-65046919D02*
X164786080Y-65039963D01*
X164901210Y-67064863D02*
X164902880Y-67062588D01*
X165591796Y-67334450D02*
X165581871Y-67337273D01*
X164404600Y-65722891D02*
X164400971Y-65724452D01*
X164659024Y-65126570D02*
X164678749Y-65132529D01*
X165816146Y-67031126D02*
X165815475Y-67051530D01*
X164532480Y-65211749D02*
X164541006Y-65210492D01*
X163590025Y-67341966D02*
X163569823Y-67337282D01*
X164868469Y-65097050D02*
X164857492Y-65087720D01*
X164250154Y-66263763D02*
X164252261Y-66267623D01*
X164274280Y-66180363D02*
X164270684Y-66182702D01*
X165587059Y-67467335D02*
X165615406Y-67460761D01*
X164255380Y-66197844D02*
X164252946Y-66201509D01*
X165713051Y-66927239D02*
X165718024Y-66943557D01*
X163352328Y-67132012D02*
X163346287Y-67112169D01*
X164368769Y-65758468D02*
X164367393Y-65762207D01*
X163368438Y-66891486D02*
X163378507Y-66872665D01*
X163934716Y-66057968D02*
X163934716Y-66057968D01*
X165769071Y-67385111D02*
X165791305Y-67366836D01*
X165791981Y-67151577D02*
X165783255Y-67170796D01*
X164747195Y-65021592D02*
X164733819Y-65016318D01*
X164397448Y-65726232D02*
X164394042Y-65728228D01*
X163231064Y-67172711D02*
X163241429Y-67200155D01*
X164831742Y-67087239D02*
X164835422Y-67088247D01*
X164905901Y-67057841D02*
X164907250Y-67055377D01*
X164252946Y-66201509D02*
X164250750Y-66205368D01*
X163402052Y-67224938D02*
X163389772Y-67207770D01*
X163425384Y-66993471D02*
X163427042Y-66976733D01*
X163623069Y-67474939D02*
X163637986Y-67475664D01*
X164605792Y-64988913D02*
X164590875Y-64988188D01*
X164734580Y-65157778D02*
X164751913Y-65168558D01*
X163550098Y-67331323D02*
X163530898Y-67324117D01*
X165722242Y-67256230D02*
X165714835Y-67263413D01*
X164372237Y-65751224D02*
X164370384Y-65754803D01*
X164391946Y-65283823D02*
X164398040Y-65277913D01*
X163460191Y-66879868D02*
X163460191Y-66879868D01*
X164445266Y-65242828D02*
X164452605Y-65238749D01*
X164984712Y-66467875D02*
X164987869Y-66465425D01*
X164281907Y-66176432D02*
X164278026Y-66178270D01*
X165596264Y-67236404D02*
X165588925Y-67240484D01*
X164638823Y-65121886D02*
X164659024Y-65126570D01*
X164936795Y-65172676D02*
X164928006Y-65160801D01*
X163429804Y-66960086D02*
X163433672Y-66943579D01*
X163481668Y-67442261D02*
X163495044Y-67447535D01*
X165721892Y-66960063D02*
X165724655Y-66976708D01*
X164700947Y-65750785D02*
X164699785Y-65748824D01*
X165551405Y-67343817D02*
X165541040Y-67345343D01*
X165674761Y-67295269D02*
X165666182Y-67300804D01*
X163460177Y-67140610D02*
X163460177Y-67140610D01*
X164245539Y-66251603D02*
X164246792Y-66255738D01*
X164301360Y-65274246D02*
X164301360Y-65274246D01*
X164797858Y-67062363D02*
X164800247Y-67065623D01*
X164895588Y-67071246D02*
X164897563Y-67069196D01*
X164453753Y-65139756D02*
X164463285Y-65135996D01*
D11*
X159512000Y-77575000D02*
X165500000Y-77575000D01*
D10*
X165726312Y-66993447D02*
X165726865Y-67010233D01*
X164909423Y-65138103D02*
X164899645Y-65127290D01*
X164797858Y-67062363D02*
X164797858Y-67062363D01*
X164242280Y-65138092D02*
X164223697Y-65160793D01*
X163593590Y-67472062D02*
X163608268Y-67473737D01*
X163444721Y-66911167D02*
X163451904Y-66895355D01*
X163336218Y-67010722D02*
X163338232Y-66990379D01*
X163359712Y-66910701D02*
X163368438Y-66891486D01*
X165767684Y-67198803D02*
X165761922Y-67207748D01*
X164262149Y-65116827D02*
X164242280Y-65138092D01*
X163338232Y-67071869D02*
X163336218Y-67051523D01*
X165005084Y-66443127D02*
X165006672Y-66439417D01*
X164671660Y-65724110D02*
X164669613Y-65723228D01*
X164283234Y-65097036D02*
X164262149Y-65116827D01*
X164886720Y-67078578D02*
X164889079Y-67076883D01*
X164771401Y-65296293D02*
X164782295Y-65309596D01*
X165588925Y-67240484D02*
X165581454Y-67244321D01*
X164383178Y-65180510D02*
X164391391Y-65174411D01*
X164223697Y-65160793D02*
X164206467Y-65184889D01*
X165812392Y-67347047D02*
X165832262Y-67325783D01*
X164981413Y-66470117D02*
X164984712Y-66467875D01*
X164575850Y-64987946D02*
X164575850Y-64987946D01*
X165691502Y-67140610D02*
X165686974Y-67148163D01*
X165009116Y-66431779D02*
X165009970Y-66427876D01*
X164865017Y-67088432D02*
X164866810Y-67087981D01*
X165682232Y-67155522D02*
X165677282Y-67162682D01*
X164426044Y-65152850D02*
X164435127Y-65148187D01*
X163241429Y-66862131D02*
X163231064Y-66889575D01*
X164706432Y-65242834D02*
X164720692Y-65251707D01*
X163346287Y-66950089D02*
X163352328Y-66930254D01*
X165868079Y-67278990D02*
X165883889Y-67253540D01*
X164953322Y-65197451D02*
X164945236Y-65184894D01*
X165006512Y-66392424D02*
X165004878Y-66388672D01*
X164951220Y-66479942D02*
X164955266Y-66479554D01*
X164912973Y-67039574D02*
X164913517Y-67036807D01*
X163378507Y-66872665D02*
X164301360Y-65274246D01*
X164345118Y-65215081D02*
X164352309Y-65207635D01*
X163610653Y-67345346D02*
X163590025Y-67341966D01*
X164947127Y-66480072D02*
X164947127Y-66480072D01*
X164416024Y-65719581D02*
X164412136Y-65720450D01*
X164842933Y-67089601D02*
X164846744Y-67089943D01*
X164644271Y-65217136D02*
X164660499Y-65222044D01*
X163564642Y-67467317D02*
X163579045Y-67469921D01*
X164810884Y-65054283D02*
X164798600Y-65046919D01*
X164354556Y-65331069D02*
X164359298Y-65323711D01*
X164248825Y-66209354D02*
X164247192Y-66213428D01*
X163569823Y-67337282D02*
X163550098Y-67331323D01*
X164854185Y-67089962D02*
X164855992Y-67089840D01*
X165691502Y-66879868D02*
X165691502Y-66879868D01*
X165686974Y-67148163D02*
X165682232Y-67155522D01*
X164720692Y-65251707D02*
X164734358Y-65261514D01*
X163339307Y-67347025D02*
X163349702Y-67357105D01*
X163341588Y-66970149D02*
X163346287Y-66950089D01*
X164679487Y-65728323D02*
X164677587Y-65727169D01*
X164270684Y-66182702D02*
X164267248Y-66185281D01*
X165898020Y-67227124D02*
X165910267Y-67200155D01*
X164911107Y-67005447D02*
X164734265Y-66480072D01*
X164243889Y-66243165D02*
X164244571Y-66247407D01*
X165714835Y-67263413D02*
X165707217Y-67270330D01*
X165706973Y-67109319D02*
X165699790Y-67125128D01*
X164502722Y-65124076D02*
X164512879Y-65121893D01*
X163352328Y-66930254D02*
X163359712Y-66910701D01*
X165001178Y-66450272D02*
X165001178Y-66450272D01*
X163433667Y-67076924D02*
X163429801Y-67060420D01*
X164424098Y-65256489D02*
X164431008Y-65251701D01*
X164575850Y-64987946D02*
X164545909Y-64988913D01*
X164248331Y-66259796D02*
X164250154Y-66263763D01*
X164945236Y-65184894D02*
X164936795Y-65172676D01*
X164318643Y-65247415D02*
X164324906Y-65238956D01*
X164435127Y-65148187D02*
X164444365Y-65143821D01*
X164398040Y-65277913D02*
X164404308Y-65272222D01*
X165465690Y-67270996D02*
X165465690Y-67270996D01*
X164913824Y-67016900D02*
X164913349Y-67014026D01*
X164907250Y-67055377D02*
X164908489Y-67052858D01*
X164697950Y-65139735D02*
X164716576Y-65148161D01*
X163405940Y-67401807D02*
X163417979Y-67409574D01*
X164866810Y-67087981D02*
X164868597Y-67087469D01*
X164365903Y-65797330D02*
X164366963Y-65801189D01*
X164472953Y-65132545D02*
X164482753Y-65129405D01*
X164824589Y-67084574D02*
X164828128Y-67086014D01*
X165699790Y-67125128D02*
X165691502Y-67140610D01*
X163601351Y-67257207D02*
X163585554Y-67251278D01*
X164911107Y-67005447D02*
X164911107Y-67005447D01*
X165691374Y-67283352D02*
X165683161Y-67289450D01*
X164822923Y-65062050D02*
X164810884Y-65054283D01*
X164891345Y-67075094D02*
X164893515Y-67073213D01*
X164417123Y-65157808D02*
X164426044Y-65152850D01*
X164889079Y-67076883D02*
X164891345Y-67075094D01*
X164902880Y-67062588D02*
X164904444Y-67060246D01*
X164660499Y-65222044D02*
X164676296Y-65227979D01*
X164814529Y-67078991D02*
X164817779Y-67081060D01*
X164190659Y-65210342D02*
X163267814Y-66808746D01*
X164534129Y-66171173D02*
X164534129Y-66171173D01*
X164369828Y-65808746D02*
X164369828Y-65808746D01*
X164359298Y-65323711D02*
X164364248Y-65316550D01*
X165666777Y-67176397D02*
X165661233Y-67182945D01*
X163668450Y-67270429D02*
X163651169Y-67268744D01*
X164487482Y-64996533D02*
X164459133Y-65003106D01*
X164649816Y-64993931D02*
X164635271Y-64991790D01*
X163451904Y-66895355D02*
X163460191Y-66879868D01*
X165498696Y-67348083D02*
X163652997Y-67348083D01*
X164918879Y-65149276D02*
X164909423Y-65138103D01*
X164702042Y-65752794D02*
X164700947Y-65750785D01*
X164678473Y-64999597D02*
X164664220Y-64996535D01*
X164703070Y-65754852D02*
X164703070Y-65754852D01*
X164811396Y-67076717D02*
X164814529Y-67078991D01*
X164359717Y-65200452D02*
X164367335Y-65193534D01*
X163460177Y-67140610D02*
X163451893Y-67125131D01*
X165761922Y-67207748D02*
X165755906Y-67216451D01*
X164947127Y-66480072D02*
X164951220Y-66479942D01*
X164620594Y-64990115D02*
X164605792Y-64988913D01*
X165509049Y-67267484D02*
X165500523Y-67268741D01*
X164733819Y-65016318D02*
X164720250Y-65011476D01*
X164549610Y-65209510D02*
X164558287Y-65208804D01*
X164307320Y-66171173D02*
X164302896Y-66171325D01*
X164305467Y-65078760D02*
X164283234Y-65097036D01*
X165910267Y-66862131D02*
X165898020Y-66835162D01*
X164417341Y-65261507D02*
X164424098Y-65256489D01*
X165611265Y-67327860D02*
X165601596Y-67331311D01*
X164759753Y-65283830D02*
X164771401Y-65296293D01*
X165517492Y-67265956D02*
X165509049Y-67267484D01*
X163444713Y-67109326D02*
X163438637Y-67093241D01*
X164699785Y-65748824D02*
X164698559Y-65746914D01*
X165743140Y-67233121D02*
X165736401Y-67241080D01*
X163455529Y-67430435D02*
X163468494Y-67436559D01*
X164734265Y-66480072D02*
X164947127Y-66480072D01*
X165813461Y-66990377D02*
X165815475Y-67010723D01*
X163275536Y-67266428D02*
X163283622Y-67278983D01*
X163617579Y-67262109D02*
X163601351Y-67257207D01*
X163415295Y-67241111D02*
X163402052Y-67224938D01*
X164897563Y-67069196D02*
X164899438Y-67067067D01*
X164654479Y-65719099D02*
X164652222Y-65718814D01*
X164247192Y-66213428D02*
X164245850Y-66217576D01*
X164850341Y-65274231D02*
X165773187Y-66872665D01*
X164558287Y-65208804D02*
X164567031Y-65208379D01*
X164911992Y-67008296D02*
X164911107Y-67005447D01*
X163389772Y-67207770D02*
X163378507Y-67189636D01*
X163360393Y-67366812D02*
X163371371Y-67376141D01*
X165718024Y-67076911D02*
X165713051Y-67093232D01*
X165699790Y-66895347D02*
X165706973Y-66911153D01*
X164290024Y-66173551D02*
X164285911Y-66174857D01*
X163433672Y-66943579D02*
X163438644Y-66927257D01*
X163442782Y-67423892D02*
X163455529Y-67430435D01*
X165500523Y-67268741D02*
X165491919Y-67269723D01*
X164846236Y-65078773D02*
X164834710Y-65070215D01*
X164258041Y-66194382D02*
X164255380Y-66197844D01*
X165755906Y-67216451D02*
X165749644Y-67224910D01*
X165944182Y-67031143D02*
X165943240Y-67002513D01*
X163634198Y-67265963D02*
X163617579Y-67262109D01*
X163222583Y-67144872D02*
X163231064Y-67172711D01*
X164245850Y-66217576D02*
X164244800Y-66221782D01*
X164267248Y-66185281D02*
X164263988Y-66188093D01*
X164243388Y-66234601D02*
X164243495Y-66238892D01*
X163417979Y-67409574D02*
X163430263Y-67416937D01*
X164394042Y-65728228D02*
X164390763Y-65730432D01*
X164645350Y-65718445D02*
X164645350Y-65718445D01*
X164893515Y-67073213D02*
X164895588Y-67071246D01*
D11*
X159512000Y-71628000D02*
X159512000Y-77575000D01*
D10*
X164404508Y-65021584D02*
X164378369Y-65033410D01*
X165010578Y-66423934D02*
X165010940Y-66419964D01*
X165649584Y-67195409D02*
X165643490Y-67201319D01*
X164993720Y-66459929D02*
X164996392Y-66456892D01*
X164828128Y-67086014D02*
X164831742Y-67087239D01*
X164645350Y-65718445D02*
X164428038Y-65718445D01*
X163651169Y-67268744D02*
X163634198Y-67265963D01*
X164826796Y-65238924D02*
X164839075Y-65256094D01*
X165773187Y-67189621D02*
X165767684Y-67198803D01*
X164661120Y-65720419D02*
X164658930Y-65719902D01*
X165736401Y-67241080D02*
X165729433Y-67248784D01*
X164678749Y-65132529D02*
X164697950Y-65139735D01*
X163349702Y-67357105D02*
X163360393Y-67366812D01*
X163508612Y-67452377D02*
X163522365Y-67456780D01*
X165566131Y-67251258D02*
X165558290Y-67254351D01*
X165935704Y-67116717D02*
X165940414Y-67088324D01*
X165773187Y-66872665D02*
X165773187Y-66872665D01*
X164635271Y-64991790D02*
X164620594Y-64990115D01*
D11*
X162560000Y-71628000D02*
X159512000Y-71628000D01*
D10*
X164801663Y-65338623D02*
X164801663Y-65338623D01*
X163231064Y-66889575D02*
X163222583Y-66917414D01*
X165832262Y-67325783D02*
X165850847Y-67303085D01*
X164801663Y-65338623D02*
X165691502Y-66879868D01*
X165810105Y-67092112D02*
X165805406Y-67112178D01*
X164328780Y-65062037D02*
X164305467Y-65078760D01*
X164875647Y-67084791D02*
X164877380Y-67083957D01*
X165498696Y-67348083D02*
X165498696Y-67348083D01*
X164431008Y-65251701D02*
X164438065Y-65247147D01*
X164720250Y-65011476D02*
X164706497Y-65007072D01*
X164716576Y-65148161D02*
X164734580Y-65157778D01*
X165637223Y-67207011D02*
X165630787Y-67212481D01*
X165617432Y-67222744D02*
X165610523Y-67227532D01*
X164839155Y-67089035D02*
X164842933Y-67089601D01*
X164913349Y-67014026D02*
X164912739Y-67011157D01*
X164380298Y-65296288D02*
X164386030Y-65289949D01*
X163371371Y-67376141D02*
X163382627Y-67385086D01*
X165920630Y-67172711D02*
X165929109Y-67144872D01*
X164512879Y-65121893D02*
X164523143Y-65120036D01*
X165799365Y-66930247D02*
X165805406Y-66950083D01*
X164364128Y-65781618D02*
X164364204Y-65785564D01*
X164913517Y-67036807D02*
X164913939Y-67034014D01*
X164306864Y-65265064D02*
X164312627Y-65256119D01*
X164378369Y-65033410D02*
X164353103Y-65046907D01*
X165581454Y-67244321D02*
X165573854Y-67247913D01*
X163514452Y-67207044D02*
X163502090Y-67195441D01*
X164575839Y-65208237D02*
X164575839Y-65208237D01*
X165699395Y-67276977D02*
X165691374Y-67283352D01*
X164877380Y-67083957D02*
X164879098Y-67083054D01*
X164664220Y-64996535D02*
X164649816Y-64993931D01*
X164846744Y-67089943D02*
X164850577Y-67090057D01*
X165935704Y-66945570D02*
X165929109Y-66917414D01*
X164353103Y-65046907D02*
X164328780Y-65062037D01*
X163222583Y-66917414D02*
X163215987Y-66945570D01*
X165672129Y-67169642D02*
X165666777Y-67176397D01*
X165530581Y-67346537D02*
X165520033Y-67347394D01*
X164647656Y-65718486D02*
X164645350Y-65718445D01*
X164805524Y-67071565D02*
X164808391Y-67074241D01*
X165940414Y-67088324D02*
X165943240Y-67059773D01*
X165483242Y-67270428D02*
X165474497Y-67270854D01*
X164463285Y-65135996D02*
X164472953Y-65132545D01*
X163652997Y-67348083D02*
X163631660Y-67347394D01*
X163378507Y-67189636D02*
X163378507Y-67189636D01*
X164350028Y-65338623D02*
X164350028Y-65338623D01*
X164369402Y-65309591D02*
X164374753Y-65302836D01*
X164244040Y-66226032D02*
X164243569Y-66230310D01*
D11*
X166624000Y-75946000D02*
X166624000Y-63500000D01*
D10*
X164879159Y-65106758D02*
X164868469Y-65097050D01*
X164697271Y-65745055D02*
X164695922Y-65743248D01*
X165677282Y-67162682D02*
X165672129Y-67169642D01*
X165815475Y-67051530D02*
X165813461Y-67071877D01*
X163346287Y-67112169D02*
X163341588Y-67092103D01*
X163536293Y-67460742D02*
X163550388Y-67464256D01*
X165610523Y-67227532D02*
X165603465Y-67232086D01*
X164879098Y-67083054D02*
X164879098Y-67083054D01*
X163451893Y-67125131D02*
X163444713Y-67109326D01*
X163319438Y-67325765D02*
X163329216Y-67336577D01*
X165009027Y-66400126D02*
X165007895Y-66396247D01*
X163468494Y-67436559D02*
X163481668Y-67442261D01*
X165683161Y-67289450D02*
X165674761Y-67295269D01*
X163460323Y-67283383D02*
X163444479Y-67270362D01*
X164852379Y-67090034D02*
X164854185Y-67089962D01*
X163292065Y-67291199D02*
X163300853Y-67303071D01*
X163631660Y-67347394D02*
X163610653Y-67345346D01*
X165643490Y-67201319D02*
X165637223Y-67207011D01*
X164855992Y-67089840D02*
X164857801Y-67089667D01*
X164523143Y-65120036D02*
X164533507Y-65118509D01*
X164410743Y-65266752D02*
X164417341Y-65261507D01*
X165783255Y-67170796D02*
X165773187Y-67189621D01*
X164996392Y-66456892D02*
X164998882Y-66453672D01*
X164970779Y-66475547D02*
X164974436Y-66473959D01*
X163502090Y-67195441D02*
X163490441Y-67182973D01*
X164428038Y-65718445D02*
X164423985Y-65718573D01*
X163215987Y-66945570D02*
X163211275Y-66973962D01*
X164302896Y-66171325D02*
X164298530Y-66171777D01*
X163368438Y-67170802D02*
X163359712Y-67151575D01*
X164515682Y-65215073D02*
X164524037Y-65213276D01*
X165001178Y-66450272D02*
X165003252Y-66446750D01*
X164370384Y-65754803D02*
X164368769Y-65758468D01*
X165805406Y-67112178D02*
X165799365Y-67132018D01*
X164694514Y-65741495D02*
X164693049Y-65739797D01*
X165541040Y-67345343D02*
X165530581Y-67346537D01*
X165783255Y-66891482D02*
X165791981Y-66910695D01*
X164367335Y-65193534D02*
X164375157Y-65186886D01*
X164244571Y-66247407D02*
X164245539Y-66251603D01*
X164800247Y-67065623D02*
X164802806Y-67068691D01*
X165534110Y-67262099D02*
X165525848Y-67264160D01*
X164298530Y-66171777D02*
X164294235Y-66172522D01*
X164243495Y-66238892D02*
X164243889Y-66243165D01*
X164652222Y-65718814D02*
X164649948Y-65718610D01*
X164250750Y-66205368D02*
X164248825Y-66209354D01*
X164677587Y-65727169D02*
X164675649Y-65726082D01*
X163424831Y-67010256D02*
X163425384Y-66993471D01*
X165810105Y-66970145D02*
X165813461Y-66990377D01*
X165474497Y-67270854D02*
X165465690Y-67270996D01*
X164857492Y-65087720D02*
X164846236Y-65078773D01*
X164575850Y-65115768D02*
X164597187Y-65116458D01*
X165643086Y-67452398D02*
X165670030Y-67442283D01*
X164475399Y-65227975D02*
X164483239Y-65224881D01*
X164899645Y-65127290D02*
X164889554Y-65116840D01*
X163438644Y-66927257D02*
X163444721Y-66911167D01*
X165910267Y-67200155D02*
X165920630Y-67172711D01*
X164656715Y-65719462D02*
X164654479Y-65719099D01*
X164534129Y-66171173D02*
X164307320Y-66171173D01*
X164379121Y-65741230D02*
X164376630Y-65744398D01*
X164909616Y-67050287D02*
X164910629Y-67047670D01*
X164910629Y-67047670D02*
X164911528Y-67045009D01*
X165639424Y-67315671D02*
X165630185Y-67320036D01*
X165571826Y-67339778D02*
X165561669Y-67341960D01*
X165561669Y-67341960D02*
X165551405Y-67343817D01*
X163527488Y-67217759D02*
X163514452Y-67207044D01*
X165007895Y-66396247D02*
X165006512Y-66392424D01*
X165724655Y-67043758D02*
X165721892Y-67060404D01*
X164423985Y-65718573D02*
X164419977Y-65718953D01*
X163211275Y-67088324D02*
X163215987Y-67116717D01*
X165620797Y-67324100D02*
X165611265Y-67327860D01*
X165004878Y-66388672D02*
X164703070Y-65754852D01*
X165724655Y-66976708D02*
X165726312Y-66993447D01*
X164444365Y-65143821D02*
X164453753Y-65139756D01*
X164881728Y-67081667D02*
X164884269Y-67080174D01*
X164884269Y-67080174D02*
X164886720Y-67078578D01*
X163300853Y-67303071D02*
X163309981Y-67314595D01*
X164676296Y-65227979D02*
X164691620Y-65234917D01*
X164364524Y-65789506D02*
X164365090Y-65793431D01*
X163530898Y-67324117D02*
X163512271Y-67315692D01*
X164813553Y-65222749D02*
X164826796Y-65238924D01*
X163541156Y-67227563D02*
X163527488Y-67217759D01*
X165004878Y-66388672D02*
X165004878Y-66388672D01*
X164294235Y-66172522D02*
X164290024Y-66173551D01*
X165718024Y-66943557D02*
X165721892Y-66960063D01*
X165883889Y-66808746D02*
X164961043Y-65210342D01*
X165729433Y-67248784D02*
X165722242Y-67256230D01*
X163494268Y-67306076D02*
X163476935Y-67295297D01*
X165726312Y-67027019D02*
X165724655Y-67043758D01*
X163378507Y-67189636D02*
X163368438Y-67170802D01*
X164368271Y-65804998D02*
X164369828Y-65808746D01*
X164792396Y-65323713D02*
X164801663Y-65338623D01*
X164834710Y-65070215D02*
X164822923Y-65062050D01*
X165929109Y-66917414D02*
X165920630Y-66889575D01*
X163207506Y-67031143D02*
X163208448Y-67059773D01*
X164914238Y-67031197D02*
X164914411Y-67028360D01*
X164374328Y-65747742D02*
X164372237Y-65751224D01*
X164516430Y-64991788D02*
X164487482Y-64996533D01*
X165528635Y-67474954D02*
X165558112Y-67472079D01*
X164689955Y-65736570D02*
X164688330Y-65735044D01*
X164649948Y-65718610D02*
X164647656Y-65718486D01*
X164693049Y-65739797D02*
X164691529Y-65738155D01*
X165815475Y-67010723D02*
X165816146Y-67031126D01*
X164861415Y-67089161D02*
X164863218Y-67088825D01*
X164366257Y-65766008D02*
X164365362Y-65769862D01*
X163460191Y-66879868D02*
X163460191Y-66879883D01*
X163429454Y-67256262D02*
X163415295Y-67241111D01*
X165813461Y-67071877D02*
X165810105Y-67092112D01*
X163208448Y-67059773D02*
X163211275Y-67088324D01*
X164734265Y-66480072D02*
X164734265Y-66480072D01*
X165624189Y-67217726D02*
X165617432Y-67222744D01*
X165799365Y-67132018D02*
X165791981Y-67151577D01*
X164492678Y-65126581D02*
X164502722Y-65124076D01*
X164784369Y-65193495D02*
X164799394Y-65207597D01*
X164364248Y-65316550D02*
X164369402Y-65309591D01*
X164250750Y-66205368D02*
X164250750Y-66205368D01*
X163429801Y-67060420D02*
X163427039Y-67043777D01*
X163444479Y-67270362D02*
X163429454Y-67256262D01*
X163338232Y-66990379D02*
X163341588Y-66970149D01*
X165883889Y-67253540D02*
X165883889Y-67253540D01*
X164260914Y-66191129D02*
X164258041Y-66194382D01*
X165498696Y-67475922D02*
X165498696Y-67475922D01*
X163382627Y-67385086D02*
X163394153Y-67393643D01*
X164734358Y-65261514D02*
X164747392Y-65272229D01*
X165850847Y-67303085D02*
X165868079Y-67278990D01*
X164543966Y-65117315D02*
X164554514Y-65116458D01*
X164244800Y-66221782D02*
X164244040Y-66226032D01*
X164857801Y-67089667D02*
X164859609Y-67089441D01*
X164400971Y-65724452D02*
X164397448Y-65726232D01*
X164467676Y-65231320D02*
X164475399Y-65227975D01*
X164399791Y-65168592D02*
X164408370Y-65163057D01*
X164618194Y-65118506D02*
X164638823Y-65121886D01*
X165006672Y-66439417D02*
X165008016Y-66435630D01*
X163267814Y-67253540D02*
X163267814Y-67253540D01*
X164459133Y-65003106D02*
X164431452Y-65011470D01*
X163550388Y-67464256D02*
X163564642Y-67467317D01*
X163637986Y-67475664D02*
X163653010Y-67475906D01*
D11*
X165500000Y-77575000D02*
X166624000Y-75946000D01*
D10*
X164554514Y-65116458D02*
X164565144Y-65115941D01*
X164565144Y-65115941D02*
X164575850Y-65115768D01*
X164821136Y-67082922D02*
X164824589Y-67084574D01*
X164963178Y-66478031D02*
X164967022Y-66476907D01*
X164974436Y-66473959D02*
X164977985Y-66472147D01*
X163283622Y-67278983D02*
X163292065Y-67291199D01*
X164243569Y-66230310D02*
X164243388Y-66234601D01*
X164431452Y-65011470D02*
X164404508Y-65021584D01*
X164904444Y-67060246D02*
X164905901Y-67057841D01*
X164254651Y-66271362D02*
X164254592Y-66271606D01*
X163241429Y-67200155D02*
X163253679Y-67227124D01*
X164914378Y-67022645D02*
X164914167Y-67019774D01*
X164799394Y-65207597D02*
X164813553Y-65222749D01*
X164955266Y-66479554D02*
X164959255Y-66478916D01*
X164366963Y-65801189D02*
X164368271Y-65804998D01*
X164352309Y-65207635D02*
X164359717Y-65200452D01*
X164961043Y-65210342D02*
X164961043Y-65210342D01*
X165696169Y-67430458D02*
X165721434Y-67416962D01*
X164301360Y-65274246D02*
X164306864Y-65265064D01*
X164365362Y-65769862D02*
X164364708Y-65773755D01*
X163253679Y-66835162D02*
X163241429Y-66862131D01*
X164278026Y-66178270D02*
X164274280Y-66180363D01*
X165009908Y-66404052D02*
X165009027Y-66400126D01*
X164610678Y-65210493D02*
X164627650Y-65213278D01*
X165581871Y-67337273D02*
X165571826Y-67339778D01*
X163460191Y-66879883D02*
X163934716Y-66057968D01*
X165920630Y-66889575D02*
X165910267Y-66862131D01*
X165661233Y-67182945D02*
X165655500Y-67189284D01*
X164663286Y-65721011D02*
X164661120Y-65720419D01*
X163476935Y-67295297D02*
X163460323Y-67283383D01*
X164307320Y-66171173D02*
X164307320Y-66171173D01*
X165520033Y-67347394D02*
X165509403Y-67347910D01*
X164381790Y-65738244D02*
X164379121Y-65741230D01*
X165791981Y-66910695D02*
X165799365Y-66930247D01*
X164808391Y-67074241D02*
X164811396Y-67076717D01*
X164364204Y-65785564D02*
X164364524Y-65789506D01*
X164879098Y-67083054D02*
X164881728Y-67081667D01*
X164491193Y-65222041D02*
X164499255Y-65219458D01*
X165491919Y-67269723D02*
X165483242Y-67270428D01*
X164331411Y-65230745D02*
X164338150Y-65222785D01*
X163469445Y-67155535D02*
X163460177Y-67140610D01*
X165509403Y-67347910D02*
X165498696Y-67348083D01*
X164412136Y-65720450D02*
X164408325Y-65721555D01*
X164533507Y-65118509D02*
X164543966Y-65117315D01*
X164899438Y-67067067D02*
X164901210Y-67064863D01*
X165713051Y-67093232D02*
X165706973Y-67109319D01*
X164683160Y-65730824D02*
X164681345Y-65729542D01*
X163427042Y-66976733D02*
X163429804Y-66960086D01*
X164390763Y-65730432D02*
X164387621Y-65732840D01*
X164254592Y-66271606D02*
X164797858Y-67062363D01*
X164206467Y-65184889D02*
X164190659Y-65210342D01*
X165773187Y-66872665D02*
X165783255Y-66891482D01*
X164681345Y-65729542D02*
X164679487Y-65728323D01*
X164438065Y-65247147D02*
X164445266Y-65242828D01*
X164773334Y-65033420D02*
X164760369Y-65027295D01*
X165666182Y-67300804D02*
X165657428Y-67306051D01*
X165745758Y-67401833D02*
X165769071Y-67385111D01*
X163215987Y-67116717D02*
X163222583Y-67144872D01*
X163653010Y-67475906D02*
X163653010Y-67475906D01*
X164914459Y-67025508D02*
X164914378Y-67022645D01*
X164567031Y-65208379D02*
X164575839Y-65208237D01*
X164364708Y-65773755D02*
X164364297Y-65777677D01*
X164908489Y-67052858D02*
X164909616Y-67050287D01*
X164374328Y-65747742D02*
X164374328Y-65747742D01*
X164998882Y-66453672D02*
X165001178Y-66450272D01*
X163438637Y-67093241D02*
X163433667Y-67076924D01*
X163267814Y-67253540D02*
X163275536Y-67266428D01*
X163267814Y-66808746D02*
X163267814Y-66808746D01*
X164768525Y-65180473D02*
X164784369Y-65193495D01*
X164190659Y-65210342D02*
X164190659Y-65210342D01*
X164850341Y-65274231D02*
X164850341Y-65274231D01*
X164751913Y-65168558D02*
X164768525Y-65180473D01*
X164873901Y-67085558D02*
X164875647Y-67084791D01*
X165898020Y-66835162D02*
X165883889Y-66808746D01*
X165550337Y-67257191D02*
X165542275Y-67259775D01*
D11*
X162560000Y-63500000D02*
X162560000Y-71628000D01*
D10*
X164428038Y-65718445D02*
X164428038Y-65718445D01*
X164254651Y-66271362D02*
X164254651Y-66271362D01*
X165465690Y-67270996D02*
X163686002Y-67270996D01*
X165630185Y-67320036D02*
X165620797Y-67324100D01*
X164863218Y-67088825D02*
X164865017Y-67088432D01*
X164802806Y-67068691D02*
X164805524Y-67071565D01*
X163267814Y-66808746D02*
X163253679Y-66835162D01*
X165691502Y-67140610D02*
X165691502Y-67140610D01*
X165009970Y-66427876D02*
X165010578Y-66423934D01*
X165940414Y-66973962D02*
X165935704Y-66945570D01*
X165648507Y-67311008D02*
X165639424Y-67315671D01*
X164524037Y-65213276D02*
X164532480Y-65211749D01*
X165883889Y-66808746D02*
X165883889Y-66808746D01*
D11*
X166624000Y-63500000D02*
X162560000Y-63500000D01*
D10*
X165010539Y-66408010D02*
X165009908Y-66404052D01*
X163608268Y-67473737D02*
X163623069Y-67474939D01*
X164692569Y-65003111D02*
X164678473Y-64999597D01*
X164593394Y-65208805D02*
X164610678Y-65210493D01*
X164868597Y-67087469D02*
X164870375Y-67086896D01*
X164912310Y-67042309D02*
X164912973Y-67039574D01*
X164391391Y-65174411D02*
X164399791Y-65168592D01*
X164706497Y-65007072D02*
X164692569Y-65003111D01*
X163479546Y-67169663D02*
X163469445Y-67155535D01*
X164914167Y-67019774D02*
X164913824Y-67016900D01*
X164658930Y-65719902D02*
X164656715Y-65719462D01*
X165010921Y-66411990D02*
X165010539Y-66408010D01*
X164387621Y-65732840D02*
X164384627Y-65735446D01*
X165773187Y-67189621D02*
X165773187Y-67189621D01*
X164691620Y-65234917D02*
X164706432Y-65242834D01*
X165615406Y-67460761D02*
X165643086Y-67452398D01*
X165630787Y-67212481D02*
X165624189Y-67217726D01*
X163341588Y-67092103D02*
X163338232Y-67071869D01*
X164686654Y-65733576D02*
X164684930Y-65732169D01*
X165721434Y-67416962D02*
X165745758Y-67401833D01*
X163934716Y-66057968D02*
X164350028Y-65338623D01*
X163555416Y-67236433D02*
X163541156Y-67227563D01*
X163359712Y-67151575D02*
X163352328Y-67132012D01*
X164695922Y-65743248D02*
X164694514Y-65741495D01*
X163253679Y-67227124D02*
X163267814Y-67253540D01*
X163378507Y-66872665D02*
X163378507Y-66872665D01*
X163309981Y-67314595D02*
X163319438Y-67325765D01*
X164684930Y-65732169D02*
X164683160Y-65730824D01*
X164246792Y-66255738D02*
X164248331Y-66259796D01*
X164597187Y-65116458D02*
X164618194Y-65118506D01*
X165706973Y-66911153D02*
X165713051Y-66927239D01*
X164408370Y-65163057D02*
X164417123Y-65157808D01*
X164835422Y-67088247D02*
X164839155Y-67089035D01*
X163427039Y-67043777D02*
X163425383Y-67027040D01*
X164859609Y-67089441D02*
X164861415Y-67089161D01*
X165805406Y-66950083D02*
X165810105Y-66970145D01*
X164839075Y-65256094D02*
X164850341Y-65274231D01*
X164575850Y-65115768D02*
X164575850Y-65115768D01*
X164365090Y-65793431D02*
X164365903Y-65797330D01*
X164384627Y-65735446D02*
X164381790Y-65738244D01*
X163686002Y-67270996D02*
X163686002Y-67270996D01*
X164667534Y-65722417D02*
X164665425Y-65721678D01*
X164786080Y-65039963D02*
X164773334Y-65033420D01*
X164977985Y-66472147D02*
X164981413Y-66470117D01*
X163211275Y-66973962D02*
X163208448Y-67002513D01*
X163570229Y-67244346D02*
X163555416Y-67236433D01*
X165008016Y-66435630D02*
X165009116Y-66431779D01*
X164760369Y-65027295D02*
X164747195Y-65021592D01*
X165601596Y-67331311D02*
X165591796Y-67334450D01*
X165498696Y-67475922D02*
X165528635Y-67474954D01*
X165883889Y-67253540D02*
X165898020Y-67227124D01*
X164914411Y-67028360D02*
X164914459Y-67025508D01*
X165525848Y-67264160D02*
X165517492Y-67265956D01*
X164386030Y-65289949D02*
X164391946Y-65283823D01*
X164872144Y-67086259D02*
X164873901Y-67085558D01*
X165011054Y-66415978D02*
X165010921Y-66411990D01*
X164669613Y-65723228D02*
X164667534Y-65722417D01*
X164665425Y-65721678D02*
X164663286Y-65721011D01*
X164252261Y-66267623D02*
X164254651Y-66271362D01*
X164850577Y-67090057D02*
X164850577Y-67090057D01*
X164541006Y-65210492D02*
X164549610Y-65209510D01*
X164545909Y-64988913D02*
X164516430Y-64991788D01*
X163490441Y-67182973D02*
X163479546Y-67169663D01*
X163329216Y-67336577D02*
X163339307Y-67347025D01*
X163686002Y-67270996D02*
X163668450Y-67270429D01*
X164912739Y-67011157D02*
X164911992Y-67008296D01*
X164673672Y-65725062D02*
X164671660Y-65724110D01*
X165791305Y-67366836D02*
X165812392Y-67347047D01*
X164285911Y-66174857D02*
X164281907Y-66176432D01*
X163394153Y-67393643D02*
X163405940Y-67401807D01*
X163652997Y-67348083D02*
X163652997Y-67348083D01*
X164350028Y-65338623D02*
X164354556Y-65331069D01*
X164870375Y-67086896D02*
X164872144Y-67086259D01*
X164959255Y-66478916D02*
X164963178Y-66478031D01*
X164483239Y-65224881D02*
X164491193Y-65222041D01*
X164324906Y-65238956D02*
X164331411Y-65230745D01*
X164575850Y-65115768D02*
X164575850Y-65115768D01*
X163336218Y-67051523D02*
X163335547Y-67031122D01*
X165603465Y-67232086D02*
X165596264Y-67236404D01*
X163208448Y-67002513D02*
X163207506Y-67031143D01*
X165721892Y-67060404D02*
X165718024Y-67076911D01*
X164967022Y-66476907D02*
X164970779Y-66475547D01*
X165749644Y-67224910D02*
X165743140Y-67233121D01*
X163653010Y-67475906D02*
X163653010Y-67475922D01*
X164312627Y-65256119D02*
X164318643Y-65247415D01*
X164627650Y-65213278D02*
X164644271Y-65217136D01*
X163585554Y-67251278D02*
X163570229Y-67244346D01*
X165558112Y-67472079D02*
X165587059Y-67467335D01*
X164913939Y-67034014D02*
X164914238Y-67031197D01*
X164338150Y-65222785D02*
X164345118Y-65215081D01*
X164990876Y-66462775D02*
X164993720Y-66459929D01*
X164691529Y-65738155D02*
X164689955Y-65736570D01*
X165726865Y-67010233D02*
X165726312Y-67027019D01*
X164817779Y-67081060D02*
X164821136Y-67082922D01*
X163430263Y-67416937D02*
X163442782Y-67423892D01*
X163335547Y-67031122D02*
X163336218Y-67010722D01*
X165943240Y-67002513D02*
X165940414Y-66973962D01*
X164590875Y-64988188D02*
X164575850Y-64987946D01*
X164263988Y-66188093D02*
X164260914Y-66191129D01*
X165542275Y-67259775D02*
X165534110Y-67262099D01*
X165003252Y-66446750D02*
X165005084Y-66443127D01*
X164850577Y-67090057D02*
X164852379Y-67090034D01*
X164374753Y-65302836D02*
X164380298Y-65296288D01*
X164987869Y-66465425D02*
X164990876Y-66462775D01*
X164747392Y-65272229D02*
X164759753Y-65283830D01*
X164364297Y-65777677D02*
X164364128Y-65781618D01*
X164376630Y-65744398D02*
X164374328Y-65747742D01*
X164782295Y-65309596D02*
X164792396Y-65323713D01*
D12*
X134305952Y-73450000D02*
X134353571Y-73426190D01*
X134425000Y-73426190D01*
X134496428Y-73450000D01*
X134544047Y-73497619D01*
X134567857Y-73545238D01*
X134591666Y-73640476D01*
X134591666Y-73711904D01*
X134567857Y-73807142D01*
X134544047Y-73854761D01*
X134496428Y-73902380D01*
X134425000Y-73926190D01*
X134377380Y-73926190D01*
X134305952Y-73902380D01*
X134282142Y-73878571D01*
X134282142Y-73711904D01*
X134377380Y-73711904D01*
X134067857Y-73926190D02*
X134067857Y-73426190D01*
X133782142Y-73926190D01*
X133782142Y-73426190D01*
X133544047Y-73926190D02*
X133544047Y-73426190D01*
X133425000Y-73426190D01*
X133353571Y-73450000D01*
X133305952Y-73497619D01*
X133282142Y-73545238D01*
X133258333Y-73640476D01*
X133258333Y-73711904D01*
X133282142Y-73807142D01*
X133305952Y-73854761D01*
X133353571Y-73902380D01*
X133425000Y-73926190D01*
X133544047Y-73926190D01*
X160606952Y-60602761D02*
X160464095Y-60650380D01*
X160226000Y-60650380D01*
X160130761Y-60602761D01*
X160083142Y-60555142D01*
X160035523Y-60459904D01*
X160035523Y-60364666D01*
X160083142Y-60269428D01*
X160130761Y-60221809D01*
X160226000Y-60174190D01*
X160416476Y-60126571D01*
X160511714Y-60078952D01*
X160559333Y-60031333D01*
X160606952Y-59936095D01*
X160606952Y-59840857D01*
X160559333Y-59745619D01*
X160511714Y-59698000D01*
X160416476Y-59650380D01*
X160178380Y-59650380D01*
X160035523Y-59698000D01*
X159654571Y-60364666D02*
X159178380Y-60364666D01*
X159749809Y-60650380D02*
X159416476Y-59650380D01*
X159083142Y-60650380D01*
X158416476Y-60126571D02*
X158749809Y-60126571D01*
X158749809Y-60650380D02*
X158749809Y-59650380D01*
X158273619Y-59650380D01*
X157892666Y-60126571D02*
X157559333Y-60126571D01*
X157416476Y-60650380D02*
X157892666Y-60650380D01*
X157892666Y-59650380D01*
X157416476Y-59650380D01*
X156416476Y-60555142D02*
X156464095Y-60602761D01*
X156606952Y-60650380D01*
X156702190Y-60650380D01*
X156845047Y-60602761D01*
X156940285Y-60507523D01*
X156987904Y-60412285D01*
X157035523Y-60221809D01*
X157035523Y-60078952D01*
X156987904Y-59888476D01*
X156940285Y-59793238D01*
X156845047Y-59698000D01*
X156702190Y-59650380D01*
X156606952Y-59650380D01*
X156464095Y-59698000D01*
X156416476Y-59745619D01*
X156035523Y-60364666D02*
X155559333Y-60364666D01*
X156130761Y-60650380D02*
X155797428Y-59650380D01*
X155464095Y-60650380D01*
X155178380Y-60602761D02*
X155035523Y-60650380D01*
X154797428Y-60650380D01*
X154702190Y-60602761D01*
X154654571Y-60555142D01*
X154606952Y-60459904D01*
X154606952Y-60364666D01*
X154654571Y-60269428D01*
X154702190Y-60221809D01*
X154797428Y-60174190D01*
X154987904Y-60126571D01*
X155083142Y-60078952D01*
X155130761Y-60031333D01*
X155178380Y-59936095D01*
X155178380Y-59840857D01*
X155130761Y-59745619D01*
X155083142Y-59698000D01*
X154987904Y-59650380D01*
X154749809Y-59650380D01*
X154606952Y-59698000D01*
X154321238Y-59650380D02*
X153749809Y-59650380D01*
X154035523Y-60650380D02*
X154035523Y-59650380D01*
X128721952Y-73711428D02*
X127960047Y-73711428D01*
X128341000Y-74092380D02*
X128341000Y-73330476D01*
X131785761Y-73926190D02*
X131785761Y-73426190D01*
X131595285Y-73426190D01*
X131547666Y-73450000D01*
X131523857Y-73473809D01*
X131500047Y-73521428D01*
X131500047Y-73592857D01*
X131523857Y-73640476D01*
X131547666Y-73664285D01*
X131595285Y-73688095D01*
X131785761Y-73688095D01*
X131071476Y-73592857D02*
X131071476Y-73926190D01*
X131285761Y-73592857D02*
X131285761Y-73854761D01*
X131261952Y-73902380D01*
X131214333Y-73926190D01*
X131142904Y-73926190D01*
X131095285Y-73902380D01*
X131071476Y-73878571D01*
X130761952Y-73926190D02*
X130809571Y-73902380D01*
X130833380Y-73854761D01*
X130833380Y-73426190D01*
X130595285Y-73902380D02*
X130547666Y-73926190D01*
X130452428Y-73926190D01*
X130404809Y-73902380D01*
X130381000Y-73854761D01*
X130381000Y-73830952D01*
X130404809Y-73783333D01*
X130452428Y-73759523D01*
X130523857Y-73759523D01*
X130571476Y-73735714D01*
X130595285Y-73688095D01*
X130595285Y-73664285D01*
X130571476Y-73616666D01*
X130523857Y-73592857D01*
X130452428Y-73592857D01*
X130404809Y-73616666D01*
X129976238Y-73902380D02*
X130023857Y-73926190D01*
X130119095Y-73926190D01*
X130166714Y-73902380D01*
X130190523Y-73854761D01*
X130190523Y-73664285D01*
X130166714Y-73616666D01*
X130119095Y-73592857D01*
X130023857Y-73592857D01*
X129976238Y-73616666D01*
X129952428Y-73664285D01*
X129952428Y-73711904D01*
X130190523Y-73759523D01*
D13*
X162311904Y-77108333D02*
X162073809Y-77108333D01*
X162359523Y-77251190D02*
X162192857Y-76751190D01*
X162026190Y-77251190D01*
X161859523Y-76917857D02*
X161859523Y-77251190D01*
X161859523Y-76965476D02*
X161835714Y-76941666D01*
X161788095Y-76917857D01*
X161716666Y-76917857D01*
X161669047Y-76941666D01*
X161645238Y-76989285D01*
X161645238Y-77251190D01*
X161335714Y-77251190D02*
X161383333Y-77227380D01*
X161407142Y-77203571D01*
X161430952Y-77155952D01*
X161430952Y-77013095D01*
X161407142Y-76965476D01*
X161383333Y-76941666D01*
X161335714Y-76917857D01*
X161264285Y-76917857D01*
X161216666Y-76941666D01*
X161192857Y-76965476D01*
X161169047Y-77013095D01*
X161169047Y-77155952D01*
X161192857Y-77203571D01*
X161216666Y-77227380D01*
X161264285Y-77251190D01*
X161335714Y-77251190D01*
X160740476Y-77251190D02*
X160740476Y-76751190D01*
X160740476Y-77227380D02*
X160788095Y-77251190D01*
X160883333Y-77251190D01*
X160930952Y-77227380D01*
X160954761Y-77203571D01*
X160978571Y-77155952D01*
X160978571Y-77013095D01*
X160954761Y-76965476D01*
X160930952Y-76941666D01*
X160883333Y-76917857D01*
X160788095Y-76917857D01*
X160740476Y-76941666D01*
X160311904Y-77227380D02*
X160359523Y-77251190D01*
X160454761Y-77251190D01*
X160502380Y-77227380D01*
X160526190Y-77179761D01*
X160526190Y-76989285D01*
X160502380Y-76941666D01*
X160454761Y-76917857D01*
X160359523Y-76917857D01*
X160311904Y-76941666D01*
X160288095Y-76989285D01*
X160288095Y-77036904D01*
X160526190Y-77084523D01*
X139297142Y-76598571D02*
X139320952Y-76622380D01*
X139392380Y-76646190D01*
X139440000Y-76646190D01*
X139511428Y-76622380D01*
X139559047Y-76574761D01*
X139582857Y-76527142D01*
X139606666Y-76431904D01*
X139606666Y-76360476D01*
X139582857Y-76265238D01*
X139559047Y-76217619D01*
X139511428Y-76170000D01*
X139440000Y-76146190D01*
X139392380Y-76146190D01*
X139320952Y-76170000D01*
X139297142Y-76193809D01*
X138868571Y-76646190D02*
X138868571Y-76384285D01*
X138892380Y-76336666D01*
X138940000Y-76312857D01*
X139035238Y-76312857D01*
X139082857Y-76336666D01*
X138868571Y-76622380D02*
X138916190Y-76646190D01*
X139035238Y-76646190D01*
X139082857Y-76622380D01*
X139106666Y-76574761D01*
X139106666Y-76527142D01*
X139082857Y-76479523D01*
X139035238Y-76455714D01*
X138916190Y-76455714D01*
X138868571Y-76431904D01*
X138701904Y-76312857D02*
X138511428Y-76312857D01*
X138630476Y-76146190D02*
X138630476Y-76574761D01*
X138606666Y-76622380D01*
X138559047Y-76646190D01*
X138511428Y-76646190D01*
X138344761Y-76646190D02*
X138344761Y-76146190D01*
X138130476Y-76646190D02*
X138130476Y-76384285D01*
X138154285Y-76336666D01*
X138201904Y-76312857D01*
X138273333Y-76312857D01*
X138320952Y-76336666D01*
X138344761Y-76360476D01*
X137820952Y-76646190D02*
X137868571Y-76622380D01*
X137892380Y-76598571D01*
X137916190Y-76550952D01*
X137916190Y-76408095D01*
X137892380Y-76360476D01*
X137868571Y-76336666D01*
X137820952Y-76312857D01*
X137749523Y-76312857D01*
X137701904Y-76336666D01*
X137678095Y-76360476D01*
X137654285Y-76408095D01*
X137654285Y-76550952D01*
X137678095Y-76598571D01*
X137701904Y-76622380D01*
X137749523Y-76646190D01*
X137820952Y-76646190D01*
X137225714Y-76646190D02*
X137225714Y-76146190D01*
X137225714Y-76622380D02*
X137273333Y-76646190D01*
X137368571Y-76646190D01*
X137416190Y-76622380D01*
X137440000Y-76598571D01*
X137463809Y-76550952D01*
X137463809Y-76408095D01*
X137440000Y-76360476D01*
X137416190Y-76336666D01*
X137368571Y-76312857D01*
X137273333Y-76312857D01*
X137225714Y-76336666D01*
X136797142Y-76622380D02*
X136844761Y-76646190D01*
X136940000Y-76646190D01*
X136987619Y-76622380D01*
X137011428Y-76574761D01*
X137011428Y-76384285D01*
X136987619Y-76336666D01*
X136940000Y-76312857D01*
X136844761Y-76312857D01*
X136797142Y-76336666D01*
X136773333Y-76384285D01*
X136773333Y-76431904D01*
X137011428Y-76479523D01*
D14*
D13*
X142307428Y-76554690D02*
X142474095Y-76316595D01*
X142593142Y-76554690D02*
X142593142Y-76054690D01*
X142402666Y-76054690D01*
X142355047Y-76078500D01*
X142331238Y-76102309D01*
X142307428Y-76149928D01*
X142307428Y-76221357D01*
X142331238Y-76268976D01*
X142355047Y-76292785D01*
X142402666Y-76316595D01*
X142593142Y-76316595D01*
X142116952Y-76102309D02*
X142093142Y-76078500D01*
X142045523Y-76054690D01*
X141926476Y-76054690D01*
X141878857Y-76078500D01*
X141855047Y-76102309D01*
X141831238Y-76149928D01*
X141831238Y-76197547D01*
X141855047Y-76268976D01*
X142140761Y-76554690D01*
X141831238Y-76554690D01*
X141355047Y-76554690D02*
X141640761Y-76554690D01*
X141497904Y-76554690D02*
X141497904Y-76054690D01*
X141545523Y-76126119D01*
X141593142Y-76173738D01*
X141640761Y-76197547D01*
X137476190Y-71178571D02*
X137238095Y-71011904D01*
X137476190Y-70892857D02*
X136976190Y-70892857D01*
X136976190Y-71083333D01*
X137000000Y-71130952D01*
X137023809Y-71154761D01*
X137071428Y-71178571D01*
X137142857Y-71178571D01*
X137190476Y-71154761D01*
X137214285Y-71130952D01*
X137238095Y-71083333D01*
X137238095Y-70892857D01*
X137476190Y-71654761D02*
X137476190Y-71369047D01*
X137476190Y-71511904D02*
X136976190Y-71511904D01*
X137047619Y-71464285D01*
X137095238Y-71416666D01*
X137119047Y-71369047D01*
X137023809Y-71845238D02*
X137000000Y-71869047D01*
X136976190Y-71916666D01*
X136976190Y-72035714D01*
X137000000Y-72083333D01*
X137023809Y-72107142D01*
X137071428Y-72130952D01*
X137119047Y-72130952D01*
X137190476Y-72107142D01*
X137476190Y-71821428D01*
X137476190Y-72130952D01*
X146797619Y-67848809D02*
X146845238Y-67825000D01*
X146892857Y-67777380D01*
X146964285Y-67705952D01*
X147011904Y-67682142D01*
X147059523Y-67682142D01*
X147035714Y-67801190D02*
X147083333Y-67777380D01*
X147130952Y-67729761D01*
X147154761Y-67634523D01*
X147154761Y-67467857D01*
X147130952Y-67372619D01*
X147083333Y-67325000D01*
X147035714Y-67301190D01*
X146940476Y-67301190D01*
X146892857Y-67325000D01*
X146845238Y-67372619D01*
X146821428Y-67467857D01*
X146821428Y-67634523D01*
X146845238Y-67729761D01*
X146892857Y-67777380D01*
X146940476Y-67801190D01*
X147035714Y-67801190D01*
X146654761Y-67301190D02*
X146345238Y-67301190D01*
X146511904Y-67491666D01*
X146440476Y-67491666D01*
X146392857Y-67515476D01*
X146369047Y-67539285D01*
X146345238Y-67586904D01*
X146345238Y-67705952D01*
X146369047Y-67753571D01*
X146392857Y-67777380D01*
X146440476Y-67801190D01*
X146583333Y-67801190D01*
X146630952Y-67777380D01*
X146654761Y-67753571D01*
X142726190Y-65428571D02*
X142488095Y-65261904D01*
X142726190Y-65142857D02*
X142226190Y-65142857D01*
X142226190Y-65333333D01*
X142250000Y-65380952D01*
X142273809Y-65404761D01*
X142321428Y-65428571D01*
X142392857Y-65428571D01*
X142440476Y-65404761D01*
X142464285Y-65380952D01*
X142488095Y-65333333D01*
X142488095Y-65142857D01*
X142726190Y-65904761D02*
X142726190Y-65619047D01*
X142726190Y-65761904D02*
X142226190Y-65761904D01*
X142297619Y-65714285D01*
X142345238Y-65666666D01*
X142369047Y-65619047D01*
X142226190Y-66071428D02*
X142226190Y-66404761D01*
X142726190Y-66190476D01*
X133821428Y-69678571D02*
X133845238Y-69702380D01*
X133916666Y-69726190D01*
X133964285Y-69726190D01*
X134035714Y-69702380D01*
X134083333Y-69654761D01*
X134107142Y-69607142D01*
X134130952Y-69511904D01*
X134130952Y-69440476D01*
X134107142Y-69345238D01*
X134083333Y-69297619D01*
X134035714Y-69250000D01*
X133964285Y-69226190D01*
X133916666Y-69226190D01*
X133845238Y-69250000D01*
X133821428Y-69273809D01*
X133345238Y-69726190D02*
X133630952Y-69726190D01*
X133488095Y-69726190D02*
X133488095Y-69226190D01*
X133535714Y-69297619D01*
X133583333Y-69345238D01*
X133630952Y-69369047D01*
X133035714Y-69226190D02*
X132988095Y-69226190D01*
X132940476Y-69250000D01*
X132916666Y-69273809D01*
X132892857Y-69321428D01*
X132869047Y-69416666D01*
X132869047Y-69535714D01*
X132892857Y-69630952D01*
X132916666Y-69678571D01*
X132940476Y-69702380D01*
X132988095Y-69726190D01*
X133035714Y-69726190D01*
X133083333Y-69702380D01*
X133107142Y-69678571D01*
X133130952Y-69630952D01*
X133154761Y-69535714D01*
X133154761Y-69416666D01*
X133130952Y-69321428D01*
X133107142Y-69273809D01*
X133083333Y-69250000D01*
X133035714Y-69226190D01*
X149928571Y-61703571D02*
X149952380Y-61679761D01*
X149976190Y-61608333D01*
X149976190Y-61560714D01*
X149952380Y-61489285D01*
X149904761Y-61441666D01*
X149857142Y-61417857D01*
X149761904Y-61394047D01*
X149690476Y-61394047D01*
X149595238Y-61417857D01*
X149547619Y-61441666D01*
X149500000Y-61489285D01*
X149476190Y-61560714D01*
X149476190Y-61608333D01*
X149500000Y-61679761D01*
X149523809Y-61703571D01*
X149976190Y-62179761D02*
X149976190Y-61894047D01*
X149976190Y-62036904D02*
X149476190Y-62036904D01*
X149547619Y-61989285D01*
X149595238Y-61941666D01*
X149619047Y-61894047D01*
X149476190Y-62632142D02*
X149476190Y-62394047D01*
X149714285Y-62370238D01*
X149690476Y-62394047D01*
X149666666Y-62441666D01*
X149666666Y-62560714D01*
X149690476Y-62608333D01*
X149714285Y-62632142D01*
X149761904Y-62655952D01*
X149880952Y-62655952D01*
X149928571Y-62632142D01*
X149952380Y-62608333D01*
X149976190Y-62560714D01*
X149976190Y-62441666D01*
X149952380Y-62394047D01*
X149928571Y-62370238D01*
X131083333Y-58226190D02*
X131250000Y-57988095D01*
X131369047Y-58226190D02*
X131369047Y-57726190D01*
X131178571Y-57726190D01*
X131130952Y-57750000D01*
X131107142Y-57773809D01*
X131083333Y-57821428D01*
X131083333Y-57892857D01*
X131107142Y-57940476D01*
X131130952Y-57964285D01*
X131178571Y-57988095D01*
X131369047Y-57988095D01*
X130654761Y-57726190D02*
X130750000Y-57726190D01*
X130797619Y-57750000D01*
X130821428Y-57773809D01*
X130869047Y-57845238D01*
X130892857Y-57940476D01*
X130892857Y-58130952D01*
X130869047Y-58178571D01*
X130845238Y-58202380D01*
X130797619Y-58226190D01*
X130702380Y-58226190D01*
X130654761Y-58202380D01*
X130630952Y-58178571D01*
X130607142Y-58130952D01*
X130607142Y-58011904D01*
X130630952Y-57964285D01*
X130654761Y-57940476D01*
X130702380Y-57916666D01*
X130797619Y-57916666D01*
X130845238Y-57940476D01*
X130869047Y-57964285D01*
X130892857Y-58011904D01*
X145071428Y-76976190D02*
X145238095Y-76738095D01*
X145357142Y-76976190D02*
X145357142Y-76476190D01*
X145166666Y-76476190D01*
X145119047Y-76500000D01*
X145095238Y-76523809D01*
X145071428Y-76571428D01*
X145071428Y-76642857D01*
X145095238Y-76690476D01*
X145119047Y-76714285D01*
X145166666Y-76738095D01*
X145357142Y-76738095D01*
X144880952Y-76523809D02*
X144857142Y-76500000D01*
X144809523Y-76476190D01*
X144690476Y-76476190D01*
X144642857Y-76500000D01*
X144619047Y-76523809D01*
X144595238Y-76571428D01*
X144595238Y-76619047D01*
X144619047Y-76690476D01*
X144904761Y-76976190D01*
X144595238Y-76976190D01*
X144404761Y-76523809D02*
X144380952Y-76500000D01*
X144333333Y-76476190D01*
X144214285Y-76476190D01*
X144166666Y-76500000D01*
X144142857Y-76523809D01*
X144119047Y-76571428D01*
X144119047Y-76619047D01*
X144142857Y-76690476D01*
X144428571Y-76976190D01*
X144119047Y-76976190D01*
X157630952Y-76802190D02*
X157630952Y-77206952D01*
X157607142Y-77254571D01*
X157583333Y-77278380D01*
X157535714Y-77302190D01*
X157440476Y-77302190D01*
X157392857Y-77278380D01*
X157369047Y-77254571D01*
X157345238Y-77206952D01*
X157345238Y-76802190D01*
X157154761Y-76802190D02*
X156845238Y-76802190D01*
X157011904Y-76992666D01*
X156940476Y-76992666D01*
X156892857Y-77016476D01*
X156869047Y-77040285D01*
X156845238Y-77087904D01*
X156845238Y-77206952D01*
X156869047Y-77254571D01*
X156892857Y-77278380D01*
X156940476Y-77302190D01*
X157083333Y-77302190D01*
X157130952Y-77278380D01*
X157154761Y-77254571D01*
X147571428Y-76928571D02*
X147595238Y-76952380D01*
X147666666Y-76976190D01*
X147714285Y-76976190D01*
X147785714Y-76952380D01*
X147833333Y-76904761D01*
X147857142Y-76857142D01*
X147880952Y-76761904D01*
X147880952Y-76690476D01*
X147857142Y-76595238D01*
X147833333Y-76547619D01*
X147785714Y-76500000D01*
X147714285Y-76476190D01*
X147666666Y-76476190D01*
X147595238Y-76500000D01*
X147571428Y-76523809D01*
X147380952Y-76523809D02*
X147357142Y-76500000D01*
X147309523Y-76476190D01*
X147190476Y-76476190D01*
X147142857Y-76500000D01*
X147119047Y-76523809D01*
X147095238Y-76571428D01*
X147095238Y-76619047D01*
X147119047Y-76690476D01*
X147404761Y-76976190D01*
X147095238Y-76976190D01*
X146904761Y-76523809D02*
X146880952Y-76500000D01*
X146833333Y-76476190D01*
X146714285Y-76476190D01*
X146666666Y-76500000D01*
X146642857Y-76523809D01*
X146619047Y-76571428D01*
X146619047Y-76619047D01*
X146642857Y-76690476D01*
X146928571Y-76976190D01*
X146619047Y-76976190D01*
X149726190Y-70798571D02*
X149488095Y-70631904D01*
X149726190Y-70512857D02*
X149226190Y-70512857D01*
X149226190Y-70703333D01*
X149250000Y-70750952D01*
X149273809Y-70774761D01*
X149321428Y-70798571D01*
X149392857Y-70798571D01*
X149440476Y-70774761D01*
X149464285Y-70750952D01*
X149488095Y-70703333D01*
X149488095Y-70512857D01*
X149273809Y-70989047D02*
X149250000Y-71012857D01*
X149226190Y-71060476D01*
X149226190Y-71179523D01*
X149250000Y-71227142D01*
X149273809Y-71250952D01*
X149321428Y-71274761D01*
X149369047Y-71274761D01*
X149440476Y-71250952D01*
X149726190Y-70965238D01*
X149726190Y-71274761D01*
X149226190Y-71584285D02*
X149226190Y-71631904D01*
X149250000Y-71679523D01*
X149273809Y-71703333D01*
X149321428Y-71727142D01*
X149416666Y-71750952D01*
X149535714Y-71750952D01*
X149630952Y-71727142D01*
X149678571Y-71703333D01*
X149702380Y-71679523D01*
X149726190Y-71631904D01*
X149726190Y-71584285D01*
X149702380Y-71536666D01*
X149678571Y-71512857D01*
X149630952Y-71489047D01*
X149535714Y-71465238D01*
X149416666Y-71465238D01*
X149321428Y-71489047D01*
X149273809Y-71512857D01*
X149250000Y-71536666D01*
X149226190Y-71584285D01*
X143997619Y-61023809D02*
X144045238Y-61000000D01*
X144092857Y-60952380D01*
X144164285Y-60880952D01*
X144211904Y-60857142D01*
X144259523Y-60857142D01*
X144235714Y-60976190D02*
X144283333Y-60952380D01*
X144330952Y-60904761D01*
X144354761Y-60809523D01*
X144354761Y-60642857D01*
X144330952Y-60547619D01*
X144283333Y-60500000D01*
X144235714Y-60476190D01*
X144140476Y-60476190D01*
X144092857Y-60500000D01*
X144045238Y-60547619D01*
X144021428Y-60642857D01*
X144021428Y-60809523D01*
X144045238Y-60904761D01*
X144092857Y-60952380D01*
X144140476Y-60976190D01*
X144235714Y-60976190D01*
X143830952Y-60523809D02*
X143807142Y-60500000D01*
X143759523Y-60476190D01*
X143640476Y-60476190D01*
X143592857Y-60500000D01*
X143569047Y-60523809D01*
X143545238Y-60571428D01*
X143545238Y-60619047D01*
X143569047Y-60690476D01*
X143854761Y-60976190D01*
X143545238Y-60976190D01*
X138726190Y-63178571D02*
X138488095Y-63011904D01*
X138726190Y-62892857D02*
X138226190Y-62892857D01*
X138226190Y-63083333D01*
X138250000Y-63130952D01*
X138273809Y-63154761D01*
X138321428Y-63178571D01*
X138392857Y-63178571D01*
X138440476Y-63154761D01*
X138464285Y-63130952D01*
X138488095Y-63083333D01*
X138488095Y-62892857D01*
X138726190Y-63654761D02*
X138726190Y-63369047D01*
X138726190Y-63511904D02*
X138226190Y-63511904D01*
X138297619Y-63464285D01*
X138345238Y-63416666D01*
X138369047Y-63369047D01*
X138440476Y-63940476D02*
X138416666Y-63892857D01*
X138392857Y-63869047D01*
X138345238Y-63845238D01*
X138321428Y-63845238D01*
X138273809Y-63869047D01*
X138250000Y-63892857D01*
X138226190Y-63940476D01*
X138226190Y-64035714D01*
X138250000Y-64083333D01*
X138273809Y-64107142D01*
X138321428Y-64130952D01*
X138345238Y-64130952D01*
X138392857Y-64107142D01*
X138416666Y-64083333D01*
X138440476Y-64035714D01*
X138440476Y-63940476D01*
X138464285Y-63892857D01*
X138488095Y-63869047D01*
X138535714Y-63845238D01*
X138630952Y-63845238D01*
X138678571Y-63869047D01*
X138702380Y-63892857D01*
X138726190Y-63940476D01*
X138726190Y-64035714D01*
X138702380Y-64083333D01*
X138678571Y-64107142D01*
X138630952Y-64130952D01*
X138535714Y-64130952D01*
X138488095Y-64107142D01*
X138464285Y-64083333D01*
X138440476Y-64035714D01*
X150083333Y-75678571D02*
X150107142Y-75702380D01*
X150178571Y-75726190D01*
X150226190Y-75726190D01*
X150297619Y-75702380D01*
X150345238Y-75654761D01*
X150369047Y-75607142D01*
X150392857Y-75511904D01*
X150392857Y-75440476D01*
X150369047Y-75345238D01*
X150345238Y-75297619D01*
X150297619Y-75250000D01*
X150226190Y-75226190D01*
X150178571Y-75226190D01*
X150107142Y-75250000D01*
X150083333Y-75273809D01*
X149607142Y-75726190D02*
X149892857Y-75726190D01*
X149750000Y-75726190D02*
X149750000Y-75226190D01*
X149797619Y-75297619D01*
X149845238Y-75345238D01*
X149892857Y-75369047D01*
X149976190Y-63753571D02*
X149738095Y-63586904D01*
X149976190Y-63467857D02*
X149476190Y-63467857D01*
X149476190Y-63658333D01*
X149500000Y-63705952D01*
X149523809Y-63729761D01*
X149571428Y-63753571D01*
X149642857Y-63753571D01*
X149690476Y-63729761D01*
X149714285Y-63705952D01*
X149738095Y-63658333D01*
X149738095Y-63467857D01*
X149976190Y-64229761D02*
X149976190Y-63944047D01*
X149976190Y-64086904D02*
X149476190Y-64086904D01*
X149547619Y-64039285D01*
X149595238Y-63991666D01*
X149619047Y-63944047D01*
X149642857Y-64658333D02*
X149976190Y-64658333D01*
X149452380Y-64539285D02*
X149809523Y-64420238D01*
X149809523Y-64729761D01*
X137851428Y-57884190D02*
X138018095Y-57646095D01*
X138137142Y-57884190D02*
X138137142Y-57384190D01*
X137946666Y-57384190D01*
X137899047Y-57408000D01*
X137875238Y-57431809D01*
X137851428Y-57479428D01*
X137851428Y-57550857D01*
X137875238Y-57598476D01*
X137899047Y-57622285D01*
X137946666Y-57646095D01*
X138137142Y-57646095D01*
X137375238Y-57884190D02*
X137660952Y-57884190D01*
X137518095Y-57884190D02*
X137518095Y-57384190D01*
X137565714Y-57455619D01*
X137613333Y-57503238D01*
X137660952Y-57527047D01*
X136899047Y-57884190D02*
X137184761Y-57884190D01*
X137041904Y-57884190D02*
X137041904Y-57384190D01*
X137089523Y-57455619D01*
X137137142Y-57503238D01*
X137184761Y-57527047D01*
X140851428Y-57836190D02*
X141018095Y-57598095D01*
X141137142Y-57836190D02*
X141137142Y-57336190D01*
X140946666Y-57336190D01*
X140899047Y-57360000D01*
X140875238Y-57383809D01*
X140851428Y-57431428D01*
X140851428Y-57502857D01*
X140875238Y-57550476D01*
X140899047Y-57574285D01*
X140946666Y-57598095D01*
X141137142Y-57598095D01*
X140375238Y-57836190D02*
X140660952Y-57836190D01*
X140518095Y-57836190D02*
X140518095Y-57336190D01*
X140565714Y-57407619D01*
X140613333Y-57455238D01*
X140660952Y-57479047D01*
X140208571Y-57336190D02*
X139899047Y-57336190D01*
X140065714Y-57526666D01*
X139994285Y-57526666D01*
X139946666Y-57550476D01*
X139922857Y-57574285D01*
X139899047Y-57621904D01*
X139899047Y-57740952D01*
X139922857Y-57788571D01*
X139946666Y-57812380D01*
X139994285Y-57836190D01*
X140137142Y-57836190D01*
X140184761Y-57812380D01*
X140208571Y-57788571D01*
X126801190Y-64869047D02*
X127205952Y-64869047D01*
X127253571Y-64892857D01*
X127277380Y-64916666D01*
X127301190Y-64964285D01*
X127301190Y-65059523D01*
X127277380Y-65107142D01*
X127253571Y-65130952D01*
X127205952Y-65154761D01*
X126801190Y-65154761D01*
X126967857Y-65607142D02*
X127301190Y-65607142D01*
X126777380Y-65488095D02*
X127134523Y-65369047D01*
X127134523Y-65678571D01*
X134879047Y-58126190D02*
X134879047Y-57626190D01*
X134760000Y-57626190D01*
X134688571Y-57650000D01*
X134640952Y-57697619D01*
X134617142Y-57745238D01*
X134593333Y-57840476D01*
X134593333Y-57911904D01*
X134617142Y-58007142D01*
X134640952Y-58054761D01*
X134688571Y-58102380D01*
X134760000Y-58126190D01*
X134879047Y-58126190D01*
X134402857Y-57673809D02*
X134379047Y-57650000D01*
X134331428Y-57626190D01*
X134212380Y-57626190D01*
X134164761Y-57650000D01*
X134140952Y-57673809D01*
X134117142Y-57721428D01*
X134117142Y-57769047D01*
X134140952Y-57840476D01*
X134426666Y-58126190D01*
X134117142Y-58126190D01*
X149976190Y-59703571D02*
X149738095Y-59536904D01*
X149976190Y-59417857D02*
X149476190Y-59417857D01*
X149476190Y-59608333D01*
X149500000Y-59655952D01*
X149523809Y-59679761D01*
X149571428Y-59703571D01*
X149642857Y-59703571D01*
X149690476Y-59679761D01*
X149714285Y-59655952D01*
X149738095Y-59608333D01*
X149738095Y-59417857D01*
X149976190Y-60179761D02*
X149976190Y-59894047D01*
X149976190Y-60036904D02*
X149476190Y-60036904D01*
X149547619Y-59989285D01*
X149595238Y-59941666D01*
X149619047Y-59894047D01*
X149476190Y-60632142D02*
X149476190Y-60394047D01*
X149714285Y-60370238D01*
X149690476Y-60394047D01*
X149666666Y-60441666D01*
X149666666Y-60560714D01*
X149690476Y-60608333D01*
X149714285Y-60632142D01*
X149761904Y-60655952D01*
X149880952Y-60655952D01*
X149928571Y-60632142D01*
X149952380Y-60608333D01*
X149976190Y-60560714D01*
X149976190Y-60441666D01*
X149952380Y-60394047D01*
X149928571Y-60370238D01*
X138678571Y-60678571D02*
X138702380Y-60654761D01*
X138726190Y-60583333D01*
X138726190Y-60535714D01*
X138702380Y-60464285D01*
X138654761Y-60416666D01*
X138607142Y-60392857D01*
X138511904Y-60369047D01*
X138440476Y-60369047D01*
X138345238Y-60392857D01*
X138297619Y-60416666D01*
X138250000Y-60464285D01*
X138226190Y-60535714D01*
X138226190Y-60583333D01*
X138250000Y-60654761D01*
X138273809Y-60678571D01*
X138726190Y-61154761D02*
X138726190Y-60869047D01*
X138726190Y-61011904D02*
X138226190Y-61011904D01*
X138297619Y-60964285D01*
X138345238Y-60916666D01*
X138369047Y-60869047D01*
X138726190Y-61392857D02*
X138726190Y-61488095D01*
X138702380Y-61535714D01*
X138678571Y-61559523D01*
X138607142Y-61607142D01*
X138511904Y-61630952D01*
X138321428Y-61630952D01*
X138273809Y-61607142D01*
X138250000Y-61583333D01*
X138226190Y-61535714D01*
X138226190Y-61440476D01*
X138250000Y-61392857D01*
X138273809Y-61369047D01*
X138321428Y-61345238D01*
X138440476Y-61345238D01*
X138488095Y-61369047D01*
X138511904Y-61392857D01*
X138535714Y-61440476D01*
X138535714Y-61535714D01*
X138511904Y-61583333D01*
X138488095Y-61607142D01*
X138440476Y-61630952D01*
X145160952Y-68726190D02*
X145160952Y-69130952D01*
X145137142Y-69178571D01*
X145113333Y-69202380D01*
X145065714Y-69226190D01*
X144970476Y-69226190D01*
X144922857Y-69202380D01*
X144899047Y-69178571D01*
X144875238Y-69130952D01*
X144875238Y-68726190D01*
X144375238Y-69226190D02*
X144660952Y-69226190D01*
X144518095Y-69226190D02*
X144518095Y-68726190D01*
X144565714Y-68797619D01*
X144613333Y-68845238D01*
X144660952Y-68869047D01*
X142726190Y-67678571D02*
X142488095Y-67511904D01*
X142726190Y-67392857D02*
X142226190Y-67392857D01*
X142226190Y-67583333D01*
X142250000Y-67630952D01*
X142273809Y-67654761D01*
X142321428Y-67678571D01*
X142392857Y-67678571D01*
X142440476Y-67654761D01*
X142464285Y-67630952D01*
X142488095Y-67583333D01*
X142488095Y-67392857D01*
X142726190Y-68154761D02*
X142726190Y-67869047D01*
X142726190Y-68011904D02*
X142226190Y-68011904D01*
X142297619Y-67964285D01*
X142345238Y-67916666D01*
X142369047Y-67869047D01*
X142226190Y-68583333D02*
X142226190Y-68488095D01*
X142250000Y-68440476D01*
X142273809Y-68416666D01*
X142345238Y-68369047D01*
X142440476Y-68345238D01*
X142630952Y-68345238D01*
X142678571Y-68369047D01*
X142702380Y-68392857D01*
X142726190Y-68440476D01*
X142726190Y-68535714D01*
X142702380Y-68583333D01*
X142678571Y-68607142D01*
X142630952Y-68630952D01*
X142511904Y-68630952D01*
X142464285Y-68607142D01*
X142440476Y-68583333D01*
X142416666Y-68535714D01*
X142416666Y-68440476D01*
X142440476Y-68392857D01*
X142464285Y-68369047D01*
X142511904Y-68345238D01*
X129633333Y-69753571D02*
X129657142Y-69777380D01*
X129728571Y-69801190D01*
X129776190Y-69801190D01*
X129847619Y-69777380D01*
X129895238Y-69729761D01*
X129919047Y-69682142D01*
X129942857Y-69586904D01*
X129942857Y-69515476D01*
X129919047Y-69420238D01*
X129895238Y-69372619D01*
X129847619Y-69325000D01*
X129776190Y-69301190D01*
X129728571Y-69301190D01*
X129657142Y-69325000D01*
X129633333Y-69348809D01*
X129204761Y-69467857D02*
X129204761Y-69801190D01*
X129323809Y-69277380D02*
X129442857Y-69634523D01*
X129133333Y-69634523D01*
X140476190Y-70928571D02*
X140238095Y-70761904D01*
X140476190Y-70642857D02*
X139976190Y-70642857D01*
X139976190Y-70833333D01*
X140000000Y-70880952D01*
X140023809Y-70904761D01*
X140071428Y-70928571D01*
X140142857Y-70928571D01*
X140190476Y-70904761D01*
X140214285Y-70880952D01*
X140238095Y-70833333D01*
X140238095Y-70642857D01*
X140476190Y-71404761D02*
X140476190Y-71119047D01*
X140476190Y-71261904D02*
X139976190Y-71261904D01*
X140047619Y-71214285D01*
X140095238Y-71166666D01*
X140119047Y-71119047D01*
X140476190Y-71642857D02*
X140476190Y-71738095D01*
X140452380Y-71785714D01*
X140428571Y-71809523D01*
X140357142Y-71857142D01*
X140261904Y-71880952D01*
X140071428Y-71880952D01*
X140023809Y-71857142D01*
X140000000Y-71833333D01*
X139976190Y-71785714D01*
X139976190Y-71690476D01*
X140000000Y-71642857D01*
X140023809Y-71619047D01*
X140071428Y-71595238D01*
X140190476Y-71595238D01*
X140238095Y-71619047D01*
X140261904Y-71642857D01*
X140285714Y-71690476D01*
X140285714Y-71785714D01*
X140261904Y-71833333D01*
X140238095Y-71857142D01*
X140190476Y-71880952D01*
X128833333Y-58178571D02*
X128857142Y-58202380D01*
X128928571Y-58226190D01*
X128976190Y-58226190D01*
X129047619Y-58202380D01*
X129095238Y-58154761D01*
X129119047Y-58107142D01*
X129142857Y-58011904D01*
X129142857Y-57940476D01*
X129119047Y-57845238D01*
X129095238Y-57797619D01*
X129047619Y-57750000D01*
X128976190Y-57726190D01*
X128928571Y-57726190D01*
X128857142Y-57750000D01*
X128833333Y-57773809D01*
X128666666Y-57726190D02*
X128357142Y-57726190D01*
X128523809Y-57916666D01*
X128452380Y-57916666D01*
X128404761Y-57940476D01*
X128380952Y-57964285D01*
X128357142Y-58011904D01*
X128357142Y-58130952D01*
X128380952Y-58178571D01*
X128404761Y-58202380D01*
X128452380Y-58226190D01*
X128595238Y-58226190D01*
X128642857Y-58202380D01*
X128666666Y-58178571D01*
G36*
X156463861Y-68871414D02*
G01*
X156159006Y-68871414D01*
X156159006Y-68566559D01*
X156463861Y-68566559D01*
X156463861Y-68871414D01*
G37*
G36*
X158583992Y-70076979D02*
G01*
X158292994Y-70076979D01*
X158292994Y-69785980D01*
X158583992Y-69785980D01*
X158583992Y-70076979D01*
G37*
G36*
X155868008Y-66751283D02*
G01*
X155563152Y-66751283D01*
X155563152Y-66446428D01*
X155868008Y-66446428D01*
X155868008Y-66751283D01*
G37*
G36*
X157073572Y-68261703D02*
G01*
X156768717Y-68261703D01*
X156768717Y-67956848D01*
X157073572Y-67956848D01*
X157073572Y-68261703D01*
G37*
G36*
X160108269Y-62802020D02*
G01*
X159498559Y-62802020D01*
X159498559Y-63106875D01*
X159193703Y-63106875D01*
X159193703Y-62511021D01*
X159498559Y-62511021D01*
X159498559Y-62206166D01*
X160108269Y-62206166D01*
X160108269Y-62802020D01*
G37*
G36*
X154953441Y-67360994D02*
G01*
X154648586Y-67360994D01*
X154648586Y-67056139D01*
X154953441Y-67056139D01*
X154953441Y-67360994D01*
G37*
G36*
X157073572Y-67056139D02*
G01*
X156768717Y-67056139D01*
X156768717Y-66751283D01*
X157073572Y-66751283D01*
X157073572Y-67056139D01*
G37*
G36*
X157378428Y-67360994D02*
G01*
X157073572Y-67360994D01*
X157073572Y-67056139D01*
X157378428Y-67056139D01*
X157378428Y-67360994D01*
G37*
G36*
X159803414Y-65227006D02*
G01*
X159498559Y-65227006D01*
X159498559Y-64631152D01*
X159803414Y-64631152D01*
X159803414Y-65227006D01*
G37*
G36*
X162228400Y-61291600D02*
G01*
X162228400Y-71296400D01*
X152223600Y-71296400D01*
X152223600Y-68566559D01*
X152833310Y-68566559D01*
X152833310Y-70686690D01*
X156463861Y-70686690D01*
X156463861Y-70381834D01*
X155868008Y-70381834D01*
X155868008Y-70686690D01*
X154953441Y-70686690D01*
X154953441Y-68566559D01*
X152833310Y-68566559D01*
X152223600Y-68566559D01*
X152223600Y-65531861D01*
X152833310Y-65531861D01*
X152833310Y-66751283D01*
X153138706Y-66751283D01*
X153134972Y-67052674D01*
X153131237Y-67354066D01*
X152982274Y-67357999D01*
X152833310Y-67361932D01*
X152833310Y-68261703D01*
X153138166Y-68261703D01*
X153138166Y-67966086D01*
X153734020Y-67966086D01*
X153734020Y-68261703D01*
X154038875Y-68261703D01*
X154038875Y-67956848D01*
X154343730Y-67956848D01*
X154343730Y-68261703D01*
X154953441Y-68261703D01*
X154953441Y-67956848D01*
X154343730Y-67956848D01*
X154038875Y-67956848D01*
X154038875Y-67651992D01*
X153895685Y-67651992D01*
X153852042Y-67652425D01*
X153798531Y-67654323D01*
X153760177Y-67657385D01*
X153743258Y-67661230D01*
X153742278Y-67663871D01*
X153739643Y-67688542D01*
X153737373Y-67735284D01*
X153735595Y-67799913D01*
X153734434Y-67878242D01*
X153734020Y-67966086D01*
X153138166Y-67966086D01*
X153138166Y-67956848D01*
X153443331Y-67956848D01*
X153442568Y-67655457D01*
X153442541Y-67644462D01*
X153442344Y-67543626D01*
X153442231Y-67442195D01*
X153442203Y-67347246D01*
X153442263Y-67265856D01*
X153442413Y-67205102D01*
X153443021Y-67056139D01*
X154037937Y-67056139D01*
X154041870Y-67205102D01*
X154045804Y-67354066D01*
X154347195Y-67357800D01*
X154648586Y-67361535D01*
X154648586Y-67651992D01*
X154953441Y-67651992D01*
X154953441Y-67361932D01*
X155102405Y-67357999D01*
X155251368Y-67354066D01*
X155255301Y-67205102D01*
X155259234Y-67056139D01*
X155563152Y-67056139D01*
X155563152Y-67651992D01*
X155868008Y-67651992D01*
X155868008Y-67956848D01*
X155564090Y-67956848D01*
X155560157Y-67807884D01*
X155556224Y-67658921D01*
X155407260Y-67654988D01*
X155258297Y-67651055D01*
X155258297Y-68261703D01*
X155563152Y-68261703D01*
X155563152Y-68566559D01*
X155258297Y-68566559D01*
X155258297Y-69176270D01*
X155868945Y-69176270D01*
X155861079Y-69474196D01*
X155712116Y-69478130D01*
X155563152Y-69482063D01*
X155563152Y-70076979D01*
X156159006Y-70076979D01*
X156159006Y-69481125D01*
X156767779Y-69481125D01*
X156771712Y-69630088D01*
X156775645Y-69779052D01*
X156924609Y-69782985D01*
X157073572Y-69786918D01*
X157073572Y-70076041D01*
X156924609Y-70079974D01*
X156775645Y-70083907D01*
X156771712Y-70232871D01*
X156767779Y-70381834D01*
X157073572Y-70381834D01*
X157073572Y-70076979D01*
X157378428Y-70076979D01*
X157378428Y-70686690D01*
X157683283Y-70686690D01*
X157683283Y-70381294D01*
X157984674Y-70385028D01*
X158286065Y-70388763D01*
X158289998Y-70537726D01*
X158293932Y-70686690D01*
X158888848Y-70686690D01*
X158888848Y-70381834D01*
X158583992Y-70381834D01*
X158583992Y-70076979D01*
X159193703Y-70076979D01*
X159193703Y-69785980D01*
X158888848Y-69785980D01*
X158888848Y-69482063D01*
X158739884Y-69478130D01*
X158590921Y-69474196D01*
X158583055Y-69176270D01*
X158888848Y-69176270D01*
X158888848Y-68871414D01*
X159193703Y-68871414D01*
X159193703Y-68566559D01*
X159498559Y-68566559D01*
X159498559Y-70686690D01*
X161618690Y-70686690D01*
X161618690Y-68566559D01*
X159498559Y-68566559D01*
X159193703Y-68566559D01*
X158888848Y-68566559D01*
X158888848Y-68871414D01*
X158583992Y-68871414D01*
X158583992Y-68261703D01*
X157988139Y-68261703D01*
X157988139Y-68566559D01*
X157683283Y-68566559D01*
X157683283Y-68871414D01*
X157378428Y-68871414D01*
X157378428Y-69176270D01*
X157073572Y-69176270D01*
X157073572Y-69481125D01*
X156767779Y-69481125D01*
X156159006Y-69481125D01*
X156159006Y-69176270D01*
X156463861Y-69176270D01*
X156463861Y-68871414D01*
X156768717Y-68871414D01*
X156768717Y-68566559D01*
X157073572Y-68566559D01*
X157073572Y-68871414D01*
X157378428Y-68871414D01*
X157378428Y-68566559D01*
X157073572Y-68566559D01*
X157073572Y-68261703D01*
X157378428Y-68261703D01*
X157378428Y-67956848D01*
X157073572Y-67956848D01*
X157073572Y-67652065D01*
X157683283Y-67652065D01*
X157683283Y-67956848D01*
X158293932Y-67956848D01*
X158289998Y-67807884D01*
X158286065Y-67658921D01*
X157683283Y-67652065D01*
X157073572Y-67652065D01*
X157073572Y-67651992D01*
X157378428Y-67651992D01*
X157378428Y-67361932D01*
X157527391Y-67357999D01*
X157676355Y-67354066D01*
X157680285Y-67205371D01*
X157684215Y-67056677D01*
X157727573Y-67056139D01*
X158292994Y-67056139D01*
X158292994Y-67651992D01*
X158888848Y-67651992D01*
X158888848Y-67361932D01*
X158739884Y-67357999D01*
X158590921Y-67354066D01*
X158586988Y-67205102D01*
X158583055Y-67056139D01*
X158887910Y-67056139D01*
X158891843Y-67205102D01*
X158895776Y-67354066D01*
X159044740Y-67357999D01*
X159193703Y-67361932D01*
X159193703Y-67651055D01*
X159044740Y-67654988D01*
X158895776Y-67658921D01*
X158891843Y-67807884D01*
X158887910Y-67956848D01*
X159193703Y-67956848D01*
X159193703Y-68261703D01*
X159498559Y-68261703D01*
X159498559Y-67956848D01*
X159803414Y-67956848D01*
X159803414Y-68261703D01*
X160108269Y-68261703D01*
X160108269Y-67956848D01*
X159803414Y-67956848D01*
X159803414Y-67651992D01*
X159498559Y-67651992D01*
X159498559Y-67360994D01*
X159193703Y-67360994D01*
X159193703Y-67056139D01*
X158887910Y-67056139D01*
X158583055Y-67056139D01*
X158292994Y-67056139D01*
X157727573Y-67056139D01*
X157985140Y-67052943D01*
X158286065Y-67049210D01*
X158289998Y-66900247D01*
X158293932Y-66751283D01*
X158583992Y-66751283D01*
X158583992Y-65836717D01*
X158293932Y-65836717D01*
X158289998Y-65687753D01*
X158286065Y-65538790D01*
X158023628Y-65531861D01*
X157988139Y-65530924D01*
X157988139Y-65836717D01*
X157683283Y-65836717D01*
X157683283Y-65531861D01*
X157378428Y-65531861D01*
X157378428Y-64631152D01*
X157073572Y-64631152D01*
X157073572Y-65227006D01*
X156768717Y-65227006D01*
X156768717Y-64936008D01*
X156463861Y-64936008D01*
X156463861Y-65530924D01*
X156314898Y-65534857D01*
X156165934Y-65538790D01*
X156162281Y-65992609D01*
X156158627Y-66446428D01*
X155868008Y-66446428D01*
X155868008Y-65531861D01*
X156159006Y-65531861D01*
X156159006Y-64936008D01*
X155868008Y-64936008D01*
X155868008Y-65227006D01*
X155563152Y-65227006D01*
X155563152Y-64632090D01*
X155712116Y-64628157D01*
X155861079Y-64624224D01*
X155865012Y-64475260D01*
X155868945Y-64326297D01*
X156462924Y-64326297D01*
X156466857Y-64475260D01*
X156470790Y-64624224D01*
X156619753Y-64628157D01*
X156768717Y-64632090D01*
X156768717Y-64326297D01*
X156463861Y-64326297D01*
X156463861Y-64021441D01*
X157073572Y-64021441D01*
X157073572Y-64326297D01*
X157378428Y-64326297D01*
X157378428Y-64021441D01*
X157073572Y-64021441D01*
X156463861Y-64021441D01*
X156463861Y-63716586D01*
X156159006Y-63716586D01*
X156159006Y-63411731D01*
X157073572Y-63411731D01*
X157073572Y-63716586D01*
X157683283Y-63716586D01*
X157683283Y-64326297D01*
X157378428Y-64326297D01*
X157378428Y-64631152D01*
X157988139Y-64631152D01*
X157988139Y-64021441D01*
X158292994Y-64021441D01*
X158292994Y-63716586D01*
X158583992Y-63716586D01*
X158583992Y-63411731D01*
X158293932Y-63411731D01*
X158289998Y-63262767D01*
X158286065Y-63113804D01*
X157984674Y-63110069D01*
X157683283Y-63106335D01*
X157683283Y-63411731D01*
X157073572Y-63411731D01*
X156159006Y-63411731D01*
X156159006Y-63106875D01*
X157073572Y-63106875D01*
X157073572Y-62802020D01*
X156768717Y-62802020D01*
X156768717Y-62511021D01*
X157683283Y-62511021D01*
X157683283Y-62802020D01*
X157988139Y-62802020D01*
X157988139Y-62511021D01*
X157683283Y-62511021D01*
X156768717Y-62511021D01*
X156463861Y-62511021D01*
X156463861Y-62801082D01*
X156314898Y-62805015D01*
X156165934Y-62808948D01*
X156162001Y-62957912D01*
X156158068Y-63106875D01*
X155868008Y-63106875D01*
X155868008Y-62802020D01*
X156159006Y-62802020D01*
X156159006Y-62206166D01*
X155563152Y-62206166D01*
X155563152Y-62802020D01*
X155258297Y-62802020D01*
X155258297Y-63106875D01*
X155563152Y-63106875D01*
X155563152Y-63411731D01*
X155258297Y-63411731D01*
X155258297Y-63716586D01*
X155563152Y-63716586D01*
X155563152Y-64021441D01*
X155258297Y-64021441D01*
X155258297Y-64631152D01*
X154953441Y-64631152D01*
X154953441Y-64936008D01*
X154648586Y-64936008D01*
X154648586Y-65227006D01*
X154343730Y-65227006D01*
X154343730Y-65531861D01*
X154648586Y-65531861D01*
X154648586Y-65836717D01*
X154038875Y-65836717D01*
X154038875Y-66446428D01*
X153444052Y-66446428D01*
X153440072Y-66145037D01*
X153439948Y-66135413D01*
X153438959Y-66033943D01*
X153438469Y-65931195D01*
X153438481Y-65836717D01*
X153733082Y-65836717D01*
X154038875Y-65836717D01*
X154038875Y-65530924D01*
X153889912Y-65534857D01*
X153740948Y-65538790D01*
X153737015Y-65687753D01*
X153733082Y-65836717D01*
X153438481Y-65836717D01*
X153438481Y-65834417D01*
X153438994Y-65750854D01*
X153440011Y-65687753D01*
X153443929Y-65531861D01*
X153734020Y-65531861D01*
X153734020Y-64936008D01*
X153443021Y-64936008D01*
X153443021Y-65227006D01*
X153138166Y-65227006D01*
X153138166Y-65531861D01*
X152833310Y-65531861D01*
X152223600Y-65531861D01*
X152223600Y-64936008D01*
X152833310Y-64936008D01*
X152833310Y-65227006D01*
X153138166Y-65227006D01*
X153138166Y-64936008D01*
X152833310Y-64936008D01*
X152223600Y-64936008D01*
X152223600Y-64326297D01*
X152833310Y-64326297D01*
X152833310Y-64632090D01*
X152868837Y-64631152D01*
X152982274Y-64628157D01*
X153131237Y-64624224D01*
X153135170Y-64475260D01*
X153139103Y-64326297D01*
X153443021Y-64326297D01*
X153443021Y-64631152D01*
X153733082Y-64631152D01*
X153737015Y-64780116D01*
X153740948Y-64929079D01*
X153889912Y-64933012D01*
X154038875Y-64936945D01*
X154038875Y-65227006D01*
X154343730Y-65227006D01*
X154343730Y-64326297D01*
X154648586Y-64326297D01*
X154648586Y-64631152D01*
X154953441Y-64631152D01*
X154953441Y-64326297D01*
X154648586Y-64326297D01*
X154343730Y-64326297D01*
X153443021Y-64326297D01*
X153139103Y-64326297D01*
X152833310Y-64326297D01*
X152223600Y-64326297D01*
X152223600Y-61901310D01*
X152833310Y-61901310D01*
X152833310Y-64021441D01*
X154953441Y-64021441D01*
X154953441Y-62207104D01*
X155258297Y-62207104D01*
X155407260Y-62203170D01*
X155556224Y-62199237D01*
X155560157Y-62050274D01*
X155564090Y-61901310D01*
X156158068Y-61901310D01*
X156162001Y-62050274D01*
X156165934Y-62199237D01*
X156314898Y-62203170D01*
X156463861Y-62207104D01*
X156463861Y-62206166D01*
X157072635Y-62206166D01*
X157076568Y-62355129D01*
X157080501Y-62504093D01*
X157676355Y-62504093D01*
X157680288Y-62355129D01*
X157684221Y-62206166D01*
X157988139Y-62206166D01*
X157988139Y-62511021D01*
X158137102Y-62510188D01*
X158211269Y-62509931D01*
X158305944Y-62510062D01*
X158392624Y-62510676D01*
X158467366Y-62511715D01*
X158526227Y-62513120D01*
X158565262Y-62514833D01*
X158580527Y-62516794D01*
X158580948Y-62518743D01*
X158582126Y-62541536D01*
X158583137Y-62586559D01*
X158583925Y-62649700D01*
X158584435Y-62726850D01*
X158584608Y-62813896D01*
X158584566Y-63106875D01*
X158888848Y-63106875D01*
X158888848Y-64021441D01*
X158583992Y-64021441D01*
X158583992Y-64326297D01*
X158292994Y-64326297D01*
X158292994Y-64631152D01*
X157988139Y-64631152D01*
X157988139Y-64936008D01*
X157683283Y-64936008D01*
X157683283Y-65227006D01*
X157988139Y-65227006D01*
X158292994Y-65227006D01*
X158292994Y-65531861D01*
X158583992Y-65531861D01*
X158583992Y-65227006D01*
X158292994Y-65227006D01*
X157988139Y-65227006D01*
X157988139Y-64936945D01*
X158286065Y-64929079D01*
X158289998Y-64780116D01*
X158293932Y-64631152D01*
X158887910Y-64631152D01*
X158891843Y-64780116D01*
X158895776Y-64929079D01*
X159044740Y-64933012D01*
X159193703Y-64936945D01*
X159193703Y-65226068D01*
X159044740Y-65230002D01*
X158895776Y-65233935D01*
X158892194Y-65992609D01*
X158888611Y-66751283D01*
X159193703Y-66751283D01*
X159193703Y-67056139D01*
X159803414Y-67056139D01*
X160108269Y-67056139D01*
X160108269Y-67651055D01*
X160257233Y-67654988D01*
X160406196Y-67658921D01*
X160410129Y-67807884D01*
X160414062Y-67956848D01*
X160717980Y-67956848D01*
X160717980Y-67813658D01*
X161313834Y-67813658D01*
X161313834Y-67956848D01*
X161618690Y-67956848D01*
X161618690Y-67651992D01*
X161475500Y-67651992D01*
X161431857Y-67652425D01*
X161378346Y-67654323D01*
X161339992Y-67657385D01*
X161323072Y-67661230D01*
X161320284Y-67670721D01*
X161316954Y-67703471D01*
X161314678Y-67753209D01*
X161313834Y-67813658D01*
X160717980Y-67813658D01*
X160717980Y-67651992D01*
X161313834Y-67651992D01*
X161313834Y-67056139D01*
X161618690Y-67056139D01*
X161618690Y-66751283D01*
X161008979Y-66751283D01*
X161008979Y-67056139D01*
X160718918Y-67056139D01*
X160714985Y-67205102D01*
X160711052Y-67354066D01*
X160562088Y-67357999D01*
X160413125Y-67361932D01*
X160413125Y-67057076D01*
X160562088Y-67053143D01*
X160711052Y-67049210D01*
X160714985Y-66900247D01*
X160718918Y-66751283D01*
X160413125Y-66751283D01*
X160413125Y-67056139D01*
X160108269Y-67056139D01*
X159803414Y-67056139D01*
X159803414Y-66751283D01*
X159498559Y-66751283D01*
X159498559Y-66446428D01*
X161618690Y-66446428D01*
X161618690Y-66141572D01*
X161313834Y-66141572D01*
X161313834Y-65531861D01*
X161618690Y-65531861D01*
X161618690Y-64631152D01*
X161008979Y-64631152D01*
X161008979Y-64326297D01*
X161618690Y-64326297D01*
X161618690Y-64021441D01*
X161313834Y-64021441D01*
X161313834Y-63716586D01*
X161008979Y-63716586D01*
X161008979Y-63411731D01*
X161618690Y-63411731D01*
X161618690Y-63106875D01*
X161313834Y-63106875D01*
X161313834Y-62802020D01*
X161008979Y-62802020D01*
X161008979Y-62511021D01*
X160413125Y-62511021D01*
X160413125Y-62207104D01*
X160562088Y-62203170D01*
X160711052Y-62199237D01*
X160714985Y-62050274D01*
X160718918Y-61901310D01*
X161009051Y-61901310D01*
X161012479Y-62202702D01*
X161015907Y-62504093D01*
X161164871Y-62508026D01*
X161313834Y-62511959D01*
X161313834Y-62802020D01*
X161618690Y-62802020D01*
X161618690Y-62511021D01*
X161313834Y-62511021D01*
X161313834Y-61901310D01*
X161009051Y-61901310D01*
X160718918Y-61901310D01*
X158888848Y-61901310D01*
X158888848Y-62206166D01*
X158292994Y-62206166D01*
X158292994Y-61901310D01*
X157683283Y-61901310D01*
X157683283Y-62206166D01*
X157072635Y-62206166D01*
X156463861Y-62206166D01*
X156463861Y-61901310D01*
X156158068Y-61901310D01*
X155564090Y-61901310D01*
X155258297Y-61901310D01*
X155258297Y-62207104D01*
X154953441Y-62207104D01*
X154953441Y-61901310D01*
X152833310Y-61901310D01*
X152223600Y-61901310D01*
X152223600Y-61291600D01*
X162228400Y-61291600D01*
G37*
G36*
X161299977Y-68885271D02*
G01*
X161299977Y-70367977D01*
X159817271Y-70367977D01*
X159817271Y-69176270D01*
X160108269Y-69176270D01*
X160108269Y-70076979D01*
X161008979Y-70076979D01*
X161008979Y-69176270D01*
X160108269Y-69176270D01*
X159817271Y-69176270D01*
X159817271Y-68885271D01*
X161299977Y-68885271D01*
G37*
G36*
X154634729Y-68885271D02*
G01*
X154634729Y-70367977D01*
X153152023Y-70367977D01*
X153152023Y-69176270D01*
X153443021Y-69176270D01*
X153443021Y-70076979D01*
X154343730Y-70076979D01*
X154343730Y-69176270D01*
X153443021Y-69176270D01*
X153152023Y-69176270D01*
X153152023Y-68885271D01*
X154634729Y-68885271D01*
G37*
G36*
X158292994Y-63716586D02*
G01*
X157988139Y-63716586D01*
X157988139Y-63411731D01*
X158292994Y-63411731D01*
X158292994Y-63716586D01*
G37*
G36*
X161008979Y-64021441D02*
G01*
X160717980Y-64021441D01*
X160717980Y-64631152D01*
X161008979Y-64631152D01*
X161009788Y-64780116D01*
X161009905Y-64808109D01*
X161009961Y-64898306D01*
X161009658Y-64993782D01*
X161009037Y-65078043D01*
X161007476Y-65227006D01*
X161313834Y-65227006D01*
X161313834Y-65530924D01*
X161164871Y-65534857D01*
X161015907Y-65538790D01*
X161013073Y-65691218D01*
X161012512Y-65723519D01*
X161011225Y-65814319D01*
X161010195Y-65909336D01*
X161009608Y-65992609D01*
X161008979Y-66141572D01*
X160718918Y-66141572D01*
X160714985Y-65992609D01*
X160711052Y-65843645D01*
X160562088Y-65839712D01*
X160413125Y-65835779D01*
X160413125Y-66141572D01*
X159803414Y-66141572D01*
X159803414Y-65836717D01*
X160108269Y-65836717D01*
X160108269Y-65227006D01*
X160413125Y-65227006D01*
X160413125Y-65531861D01*
X160718918Y-65531861D01*
X160711052Y-65233935D01*
X160562088Y-65230002D01*
X160413125Y-65226068D01*
X160413125Y-63716586D01*
X161008979Y-63716586D01*
X161008979Y-64021441D01*
G37*
G36*
X159498559Y-66446428D02*
G01*
X159193703Y-66446428D01*
X159193703Y-66141572D01*
X159498559Y-66141572D01*
X159498559Y-66446428D01*
G37*
G36*
X154953441Y-66141572D02*
G01*
X154648586Y-66141572D01*
X154648586Y-65836717D01*
X154953441Y-65836717D01*
X154953441Y-66141572D01*
G37*
G36*
X159803414Y-65836717D02*
G01*
X159193703Y-65836717D01*
X159193703Y-65531861D01*
X159803414Y-65531861D01*
X159803414Y-65836717D01*
G37*
G36*
X156768717Y-67956848D02*
G01*
X156463861Y-67956848D01*
X156463861Y-68261703D01*
X156159006Y-68261703D01*
X156159006Y-68566559D01*
X155868008Y-68566559D01*
X155868008Y-68261703D01*
X156158068Y-68261703D01*
X156162001Y-68112740D01*
X156165934Y-67963776D01*
X156314898Y-67959843D01*
X156463861Y-67955910D01*
X156463861Y-67652566D01*
X156170883Y-67652609D01*
X156140943Y-67652591D01*
X156056747Y-67652299D01*
X155983822Y-67651690D01*
X155926279Y-67650821D01*
X155888228Y-67649748D01*
X155873780Y-67648527D01*
X155872283Y-67639398D01*
X155870504Y-67605869D01*
X155869017Y-67551541D01*
X155867882Y-67480356D01*
X155867157Y-67396259D01*
X155866902Y-67303193D01*
X155867174Y-67205102D01*
X155868008Y-67056139D01*
X156768717Y-67056139D01*
X156768717Y-67956848D01*
G37*
G36*
X157683283Y-70076979D02*
G01*
X157378428Y-70076979D01*
X157378428Y-69785980D01*
X157683283Y-69785980D01*
X157683283Y-70076979D01*
G37*
G36*
X155563152Y-66446428D02*
G01*
X155258297Y-66446428D01*
X155258297Y-66141572D01*
X155563152Y-66141572D01*
X155563152Y-66446428D01*
G37*
G36*
X155258297Y-65836717D02*
G01*
X154953441Y-65836717D01*
X154953441Y-65531861D01*
X154648586Y-65531861D01*
X154648586Y-65227006D01*
X154953441Y-65227006D01*
X154953441Y-64936008D01*
X155258297Y-64936008D01*
X155258297Y-65836717D01*
G37*
G36*
X156768717Y-65836717D02*
G01*
X157073572Y-65836717D01*
X157073572Y-65531861D01*
X157378428Y-65531861D01*
X157378428Y-66141572D01*
X156463861Y-66141572D01*
X156463861Y-65531861D01*
X156768717Y-65531861D01*
X156768717Y-65836717D01*
G37*
G36*
X155868008Y-68871414D02*
G01*
X155563152Y-68871414D01*
X155563152Y-68566559D01*
X155868008Y-68566559D01*
X155868008Y-68871414D01*
G37*
G36*
X154634729Y-62220023D02*
G01*
X154634729Y-63702729D01*
X153152023Y-63702729D01*
X153152023Y-62511021D01*
X153443021Y-62511021D01*
X153443021Y-63411731D01*
X154343730Y-63411731D01*
X154343730Y-62511021D01*
X153443021Y-62511021D01*
X153152023Y-62511021D01*
X153152023Y-62220023D01*
X154634729Y-62220023D01*
G37*
G36*
X157378428Y-69785980D02*
G01*
X157073572Y-69785980D01*
X157073572Y-69481125D01*
X157378428Y-69481125D01*
X157378428Y-69785980D01*
G37*
G36*
X155868008Y-64326297D02*
G01*
X155563152Y-64326297D01*
X155563152Y-64021441D01*
X155868008Y-64021441D01*
X155868008Y-64326297D01*
G37*
G36*
X156768717Y-66751283D02*
G01*
X156159006Y-66751283D01*
X156159006Y-66446428D01*
X156768717Y-66446428D01*
X156768717Y-66751283D01*
G37*
G36*
X160108269Y-63411731D02*
G01*
X160108269Y-64326297D01*
X159193703Y-64326297D01*
X159193703Y-63716586D01*
X159498559Y-63716586D01*
X159498559Y-64021441D01*
X159803414Y-64021441D01*
X159803414Y-63716586D01*
X159498559Y-63716586D01*
X159193703Y-63716586D01*
X159193703Y-63411731D01*
X160108269Y-63411731D01*
G37*
G36*
X154648586Y-66446428D02*
G01*
X155258297Y-66446428D01*
X155258297Y-66751283D01*
X154343730Y-66751283D01*
X154343730Y-66141572D01*
X154648586Y-66141572D01*
X154648586Y-66446428D01*
G37*
G36*
X159498559Y-67956848D02*
G01*
X159193703Y-67956848D01*
X159193703Y-67651992D01*
X159498559Y-67651992D01*
X159498559Y-67956848D01*
G37*
G36*
X154343730Y-67056139D02*
G01*
X154038875Y-67056139D01*
X154038875Y-66751283D01*
X154343730Y-66751283D01*
X154343730Y-67056139D01*
G37*
G36*
X158583992Y-68871414D02*
G01*
X158583992Y-69176270D01*
X158292994Y-69176270D01*
X158292994Y-69785980D01*
X157988139Y-69785980D01*
X157988139Y-69176270D01*
X158292994Y-69176270D01*
X158292994Y-68871414D01*
X158583992Y-68871414D01*
G37*
G36*
X158292994Y-68871414D02*
G01*
X157988139Y-68871414D01*
X157988139Y-69176270D01*
X157683283Y-69176270D01*
X157683283Y-68871414D01*
X157988139Y-68871414D01*
X157988139Y-68566559D01*
X158292994Y-68566559D01*
X158292994Y-68871414D01*
G37*
G36*
X158292994Y-66446428D02*
G01*
X157988139Y-66446428D01*
X157988139Y-66751283D01*
X157378428Y-66751283D01*
X157378428Y-66141572D01*
X158292994Y-66141572D01*
X158292994Y-66446428D01*
G37*
G36*
X161008979Y-63411731D02*
G01*
X160413125Y-63411731D01*
X160413125Y-63106875D01*
X161008979Y-63106875D01*
X161008979Y-63411731D01*
G37*
D15*
X141758936Y-75665000D02*
X142213064Y-75665000D01*
X141758936Y-74195000D02*
X142213064Y-74195000D01*
X136681000Y-71648564D02*
X136681000Y-71194436D01*
X135211000Y-71648564D02*
X135211000Y-71194436D01*
X143800000Y-65590000D02*
X145700000Y-65590000D01*
X145200000Y-67910000D02*
X143800000Y-67910000D01*
X140234936Y-66472500D02*
X140689064Y-66472500D01*
X140234936Y-65002500D02*
X140689064Y-65002500D01*
X134305000Y-71180248D02*
X134305000Y-71702752D01*
X132835000Y-71180248D02*
X132835000Y-71702752D01*
X147238748Y-61265000D02*
X147761252Y-61265000D01*
X147238748Y-62735000D02*
X147761252Y-62735000D01*
X131735000Y-60227064D02*
X131735000Y-59772936D01*
X130265000Y-60227064D02*
X130265000Y-59772936D01*
X145500000Y-75078564D02*
X145500000Y-74624436D01*
X144030000Y-75078564D02*
X144030000Y-74624436D01*
X157250000Y-73116000D02*
X158050000Y-73116000D01*
X157250000Y-76236000D02*
X158050000Y-76236000D01*
X157250000Y-76236000D02*
X155450000Y-76236000D01*
X157250000Y-73116000D02*
X156450000Y-73116000D01*
X146585000Y-75112752D02*
X146585000Y-74590248D01*
X148055000Y-75112752D02*
X148055000Y-74590248D01*
G36*
X151015793Y-66601148D02*
G01*
X150308472Y-67000445D01*
X150093267Y-67122740D01*
X149912568Y-67227909D01*
X149777444Y-67310499D01*
X149680636Y-67375396D01*
X149614881Y-67427492D01*
X149572918Y-67471674D01*
X149547486Y-67512832D01*
X149533928Y-67547184D01*
X149519574Y-67606951D01*
X149508960Y-67690779D01*
X149501581Y-67807382D01*
X149496934Y-67965474D01*
X149494516Y-68173770D01*
X149493822Y-68440983D01*
X149493822Y-69256045D01*
X149020320Y-69256045D01*
X149020320Y-68280221D01*
X149020321Y-68247330D01*
X149020515Y-67971365D01*
X149021448Y-67754060D01*
X149023687Y-67587291D01*
X149027803Y-67462932D01*
X149034363Y-67372859D01*
X149043936Y-67308945D01*
X149057090Y-67263068D01*
X149074395Y-67227101D01*
X149096418Y-67192920D01*
X149120299Y-67164338D01*
X149167527Y-67122101D01*
X149238987Y-67068959D01*
X149339081Y-67002242D01*
X149472211Y-66919279D01*
X149642780Y-66817401D01*
X149855191Y-66693937D01*
X150113845Y-66546218D01*
X150423146Y-66371572D01*
X150787497Y-66167332D01*
X151015793Y-66039685D01*
X151015793Y-66601148D01*
G37*
G36*
X151008448Y-65030673D02*
G01*
X150998882Y-65405620D01*
X149867073Y-66046924D01*
X149827001Y-66069644D01*
X149574186Y-66213607D01*
X149339184Y-66348475D01*
X149128853Y-66470236D01*
X148950052Y-66574881D01*
X148809637Y-66658401D01*
X148714467Y-66716786D01*
X148671400Y-66746025D01*
X148671187Y-66746218D01*
X148629533Y-66786179D01*
X148595911Y-66827753D01*
X148569462Y-66878276D01*
X148549327Y-66945085D01*
X148534646Y-67035517D01*
X148524561Y-67156907D01*
X148518213Y-67316594D01*
X148514742Y-67521913D01*
X148513290Y-67780201D01*
X148512996Y-68098795D01*
X148512715Y-68274353D01*
X148511246Y-68528965D01*
X148508666Y-68756490D01*
X148505135Y-68948817D01*
X148500814Y-69097834D01*
X148495865Y-69195432D01*
X148490449Y-69233497D01*
X148479718Y-69238048D01*
X148413873Y-69247265D01*
X148304385Y-69253655D01*
X148168019Y-69256045D01*
X147868137Y-69256045D01*
X147887297Y-66596007D01*
X147975959Y-66463243D01*
X147990594Y-66443193D01*
X148025988Y-66404808D01*
X148077619Y-66360554D01*
X148150849Y-66307060D01*
X148251042Y-66240957D01*
X148383561Y-66158873D01*
X148553768Y-66057437D01*
X148767026Y-65933279D01*
X149028698Y-65783029D01*
X149344147Y-65603315D01*
X149492660Y-65518926D01*
X149764482Y-65364533D01*
X150021036Y-65218890D01*
X150255067Y-65086113D01*
X150459318Y-64970315D01*
X150626535Y-64875610D01*
X150749462Y-64806113D01*
X150820843Y-64765939D01*
X151018013Y-64655726D01*
X151008448Y-65030673D01*
G37*
G36*
X150637580Y-68274796D02*
G01*
X150759755Y-68321285D01*
X150768090Y-68326875D01*
X150886543Y-68443840D01*
X150957897Y-68589729D01*
X150981983Y-68749213D01*
X150958631Y-68906963D01*
X150887675Y-69047651D01*
X150768944Y-69155950D01*
X150679944Y-69196899D01*
X150515604Y-69221882D01*
X150348942Y-69195855D01*
X150199293Y-69123020D01*
X150085991Y-69007575D01*
X150037360Y-68905284D01*
X150014808Y-68743124D01*
X150044756Y-68580448D01*
X150122903Y-68435660D01*
X150244952Y-68327164D01*
X150336234Y-68288419D01*
X150486834Y-68263950D01*
X150637580Y-68274796D01*
G37*
X149071000Y-71347064D02*
X149071000Y-70892936D01*
X147601000Y-71347064D02*
X147601000Y-70892936D01*
X142390000Y-63000000D02*
X142390000Y-63650000D01*
X142390000Y-63000000D02*
X142390000Y-61325000D01*
X145510000Y-63000000D02*
X145510000Y-62350000D01*
X145510000Y-63000000D02*
X145510000Y-63650000D01*
X140689064Y-64138000D02*
X140234936Y-64138000D01*
X140689064Y-62668000D02*
X140234936Y-62668000D01*
X150360748Y-74903000D02*
X150883252Y-74903000D01*
X150360748Y-73433000D02*
X150883252Y-73433000D01*
X147702064Y-63315000D02*
X147247936Y-63315000D01*
X147702064Y-64785000D02*
X147247936Y-64785000D01*
X138149000Y-59663064D02*
X138149000Y-59208936D01*
X136679000Y-59663064D02*
X136679000Y-59208936D01*
X140234936Y-59409000D02*
X140689064Y-59409000D01*
X140234936Y-57939000D02*
X140689064Y-57939000D01*
X137902000Y-65532000D02*
X137902000Y-63582000D01*
X127782000Y-65532000D02*
X127782000Y-62082000D01*
X127782000Y-65532000D02*
X127782000Y-67482000D01*
X137902000Y-65532000D02*
X137902000Y-67482000D01*
X136010000Y-60600000D02*
X133460000Y-60600000D01*
X136010000Y-58900000D02*
X133460000Y-58900000D01*
X136010000Y-58900000D02*
X136010000Y-60600000D01*
X147272936Y-59265000D02*
X147727064Y-59265000D01*
X147272936Y-60735000D02*
X147727064Y-60735000D01*
X140723252Y-60303500D02*
X140200748Y-60303500D01*
X140723252Y-61773500D02*
X140200748Y-61773500D01*
X144780000Y-72680000D02*
X145430000Y-72680000D01*
X144780000Y-69560000D02*
X144130000Y-69560000D01*
X144780000Y-72680000D02*
X144130000Y-72680000D01*
X144780000Y-69560000D02*
X146455000Y-69560000D01*
X140689064Y-68807000D02*
X140234936Y-68807000D01*
X140689064Y-67337000D02*
X140234936Y-67337000D01*
X129131748Y-72701500D02*
X130554252Y-72701500D01*
X129131748Y-69981500D02*
X130554252Y-69981500D01*
X140743000Y-70892936D02*
X140743000Y-71347064D01*
X142213000Y-70892936D02*
X142213000Y-71347064D01*
X129235000Y-59738748D02*
X129235000Y-60261252D01*
X127765000Y-59738748D02*
X127765000Y-60261252D01*
M02*
