<?xml version="1.0" standalone="no"?>
 <!DOCTYPE svg PUBLIC "-//W3C//DTD SVG 1.1//EN" 
 "http://www.w3.org/Graphics/SVG/1.1/DTD/svg11.dtd"> 
<svg
  xmlns:svg="http://www.w3.org/2000/svg"
  xmlns="http://www.w3.org/2000/svg"
  xmlns:xlink="http://www.w3.org/1999/xlink"
  version="1.1"
  width="29.700220cm" height="21.000720cm" viewBox="0 0 297002200 210007200">
<title>SVG Picture created as OpenHVPS-5-F_Silkscreen.svg date 2021/02/13 10:56:45 </title>
  <desc>Picture generated by PCBNEW </desc>
<g style="fill:#000000; fill-opacity:1.000000;stroke:#000000; stroke-opacity:1.000000;
stroke-linecap:round; stroke-linejoin:round;"
 transform="translate(0 0) scale(1 1)">
</g>
<g style="fill:#000000; fill-opacity:0.0; 
stroke:#000000; stroke-width:0.000000; stroke-opacity:1; 
stroke-linecap:round; stroke-linejoin:round;">
</g>
<g style="fill:#000000; fill-opacity:1.0; 
stroke:#000000; stroke-width:1.000000; stroke-opacity:1; 
stroke-linecap:round; stroke-linejoin:round;">
<circle cx="141500000.000000" cy="74750000.000000" r="325000.000000" /> 
</g>
<g style="fill:#000000; fill-opacity:1.0; 
stroke:#000000; stroke-width:150000.000000; stroke-opacity:1; 
stroke-linecap:round; stroke-linejoin:round;">
</g>
<g style="fill:#000000; fill-opacity:0.0; 
stroke:#000000; stroke-width:150000.000000; stroke-opacity:1; 
stroke-linecap:round; stroke-linejoin:round;">
<path d="M137414000 69000000
L159529629 69000000
" />
<path d="M159560000 74630000
L159560000 77570000
" />
<path d="M159560000 77570000
L165471000 77580787
" />
<path d="M137414000 69000000
L137414000 57658000
" />
<path d="M166597000 75992000
L165471000 77580787
" />
<path d="M166604000 58658000
L166597000 75992000
" />
<path d="M165520000 57658000
L137414000 57658000
" />
<path d="M159560000 69000000
L159560000 74630000
" />
<path d="M151750000 69900000
L151750000 71600000
" />
<path d="M165520000 57658000
L166604000 58658000
" />
</g>
<g style="fill:#000000; fill-opacity:0.0; 
stroke:#000000; stroke-width:75000.000000; stroke-opacity:1; 
stroke-linecap:round; stroke-linejoin:round;">
<text x="131064000.000000" y="77693762.000000"
textLength="6987143.000000" font-size="666666.000000" lengthAdjust="spacingAndGlyphs"
text-anchor="middle" opacity="0">SAFEPULSE V1.1.1</text>
<g class="stroked-text"><desc>SAFEPULSE V1.1.1</desc>
<path d="M127730666 77646142
L127802095 77669952
L127921142 77669952
L127968761 77646142
L127992571 77622333
L128016380 77574714
L128016380 77527095
L127992571 77479476
L127968761 77455666
L127921142 77431857
L127825904 77408047
L127778285 77384238
L127754476 77360428
L127730666 77312809
L127730666 77265190
L127754476 77217571
L127778285 77193762
L127825904 77169952
L127944952 77169952
L128016380 77193762
" />
<path d="M128206857 77527095
L128444952 77527095
" />
<path d="M128159238 77669952
L128325904 77169952
L128492571 77669952
" />
<path d="M128825904 77408047
L128659238 77408047
" />
<path d="M128659238 77669952
L128659238 77169952
L128897333 77169952
" />
<path d="M129087809 77408047
L129254476 77408047
" />
<path d="M129325904 77669952
L129087809 77669952
L129087809 77169952
L129325904 77169952
" />
<path d="M129540190 77669952
L129540190 77169952
L129730666 77169952
L129778285 77193762
L129802095 77217571
L129825904 77265190
L129825904 77336619
L129802095 77384238
L129778285 77408047
L129730666 77431857
L129540190 77431857
" />
<path d="M130040190 77169952
L130040190 77574714
L130064000 77622333
L130087809 77646142
L130135428 77669952
L130230666 77669952
L130278285 77646142
L130302095 77622333
L130325904 77574714
L130325904 77169952
" />
<path d="M130802095 77669952
L130564000 77669952
L130564000 77169952
" />
<path d="M130944952 77646142
L131016380 77669952
L131135428 77669952
L131183047 77646142
L131206857 77622333
L131230666 77574714
L131230666 77527095
L131206857 77479476
L131183047 77455666
L131135428 77431857
L131040190 77408047
L130992571 77384238
L130968761 77360428
L130944952 77312809
L130944952 77265190
L130968761 77217571
L130992571 77193762
L131040190 77169952
L131159238 77169952
L131230666 77193762
" />
<path d="M131444952 77408047
L131611619 77408047
" />
<path d="M131683047 77669952
L131444952 77669952
L131444952 77169952
L131683047 77169952
" />
<path d="M132206857 77169952
L132373523 77669952
L132540190 77169952
" />
<path d="M132968761 77669952
L132683047 77669952
" />
<path d="M132825904 77669952
L132825904 77169952
L132778285 77241381
L132730666 77289000
L132683047 77312809
" />
<path d="M133183047 77622333
L133206857 77646142
L133183047 77669952
L133159238 77646142
L133183047 77622333
L133183047 77669952
" />
<path d="M133683047 77669952
L133397333 77669952
" />
<path d="M133540190 77669952
L133540190 77169952
L133492571 77241381
L133444952 77289000
L133397333 77312809
" />
<path d="M133897333 77622333
L133921142 77646142
L133897333 77669952
L133873523 77646142
L133897333 77622333
L133897333 77669952
" />
<path d="M134397333 77669952
L134111619 77669952
" />
<path d="M134254476 77669952
L134254476 77169952
L134206857 77241381
L134159238 77289000
L134111619 77312809
" />
</g></g>
<g style="fill:#000000; fill-opacity:0.0; 
stroke:#000000; stroke-width:100000.000000; stroke-opacity:1; 
stroke-linecap:round; stroke-linejoin:round;">
<text x="128460000.000000" y="73900000.000000"
textLength="1335595.000000" font-size="1333333.000000" lengthAdjust="spacingAndGlyphs"
text-anchor="middle" opacity="0">+</text>
<g class="stroked-text"><desc>+</desc>
<path d="M128079047 73471428
L128840952 73471428
" />
<path d="M128460000 73852380
L128460000 73090476
" />
</g><text x="131000000.000000" y="73650000.000000"
textLength="2177619.000000" font-size="666666.000000" lengthAdjust="spacingAndGlyphs"
text-anchor="middle" opacity="0">Pulse</text>
<g class="stroked-text"><desc>Pulse</desc>
<path d="M130095238 73626190
L130095238 73126190
L130285714 73126190
L130333333 73150000
L130357142 73173809
L130380952 73221428
L130380952 73292857
L130357142 73340476
L130333333 73364285
L130285714 73388095
L130095238 73388095
" />
<path d="M130809523 73292857
L130809523 73626190
" />
<path d="M130595238 73292857
L130595238 73554761
L130619047 73602380
L130666666 73626190
L130738095 73626190
L130785714 73602380
L130809523 73578571
" />
<path d="M131119047 73626190
L131071428 73602380
L131047619 73554761
L131047619 73126190
" />
<path d="M131285714 73602380
L131333333 73626190
L131428571 73626190
L131476190 73602380
L131500000 73554761
L131500000 73530952
L131476190 73483333
L131428571 73459523
L131357142 73459523
L131309523 73435714
L131285714 73388095
L131285714 73364285
L131309523 73316666
L131357142 73292857
L131428571 73292857
L131476190 73316666
" />
<path d="M131904761 73602380
L131857142 73626190
L131761904 73626190
L131714285 73602380
L131690476 73554761
L131690476 73364285
L131714285 73316666
L131761904 73292857
L131857142 73292857
L131904761 73316666
L131928571 73364285
L131928571 73411904
L131690476 73459523
" />
</g><text x="133794000.000000" y="73650000.000000"
textLength="1653810.000000" font-size="666666.000000" lengthAdjust="spacingAndGlyphs"
text-anchor="middle" opacity="0">GND</text>
<g class="stroked-text"><desc>GND</desc>
<path d="M133413047 73150000
L133365428 73126190
L133294000 73126190
L133222571 73150000
L133174952 73197619
L133151142 73245238
L133127333 73340476
L133127333 73411904
L133151142 73507142
L133174952 73554761
L133222571 73602380
L133294000 73626190
L133341619 73626190
L133413047 73602380
L133436857 73578571
L133436857 73411904
L133341619 73411904
" />
<path d="M133651142 73626190
L133651142 73126190
L133936857 73626190
L133936857 73126190
" />
<path d="M134174952 73626190
L134174952 73126190
L134294000 73126190
L134365428 73150000
L134413047 73197619
L134436857 73245238
L134460666 73340476
L134460666 73411904
L134436857 73507142
L134413047 73554761
L134365428 73602380
L134294000 73626190
L134174952 73626190
" />
</g></g>
<g style="fill:#000000; fill-opacity:0.0; 
stroke:#000000; stroke-width:75000.000000; stroke-opacity:1; 
stroke-linecap:round; stroke-linejoin:round;">
<g transform="rotate(-90.000000 130023000.000000 71501000.000000)">
<text x="130023000.000000" y="71751000.000000"
textLength="1034762.000000" font-size="666666.000000" lengthAdjust="spacingAndGlyphs"
text-anchor="middle" opacity="0">F1</text>
</g>
<g class="stroked-text"><desc>F1</desc>
<path d="M129987285 71667666
L129987285 71834333
" />
<path d="M130249190 71834333
L129749190 71834333
L129749190 71596238
" />
<path d="M130249190 71143857
L130249190 71429571
" />
<path d="M130249190 71286714
L129749190 71286714
L129820619 71334333
L129868238 71381952
L129892047 71429571
" />
</g><text x="145770000.000000" y="60702000.000000"
textLength="1549881.000000" font-size="666666.000000" lengthAdjust="spacingAndGlyphs"
text-anchor="middle" opacity="0">C10</text>
<g class="stroked-text"><desc>C10</desc>
<path d="M145448571 60630571
L145424761 60654380
L145353333 60678190
L145305714 60678190
L145234285 60654380
L145186666 60606761
L145162857 60559142
L145139047 60463904
L145139047 60392476
L145162857 60297238
L145186666 60249619
L145234285 60202000
L145305714 60178190
L145353333 60178190
L145424761 60202000
L145448571 60225809
" />
<path d="M145924761 60678190
L145639047 60678190
" />
<path d="M145781904 60678190
L145781904 60178190
L145734285 60249619
L145686666 60297238
L145639047 60321047
" />
<path d="M146234285 60178190
L146281904 60178190
L146329523 60202000
L146353333 60225809
L146377142 60273428
L146400952 60368666
L146400952 60487714
L146377142 60582952
L146353333 60630571
L146329523 60654380
L146281904 60678190
L146234285 60678190
L146186666 60654380
L146162857 60630571
L146139047 60582952
L146115238 60487714
L146115238 60368666
L146139047 60273428
L146162857 60225809
L146186666 60202000
L146234285 60178190
" />
</g><text x="165100000.000000" y="70100000.000000"
textLength="2311786.000000" font-size="666666.000000" lengthAdjust="spacingAndGlyphs"
text-anchor="middle" opacity="0">Anode</text>
<g class="stroked-text"><desc>Anode</desc>
<path d="M164088095 69933333
L164326190 69933333
" />
<path d="M164040476 70076190
L164207142 69576190
L164373809 70076190
" />
<path d="M164540476 69742857
L164540476 70076190
" />
<path d="M164540476 69790476
L164564285 69766666
L164611904 69742857
L164683333 69742857
L164730952 69766666
L164754761 69814285
L164754761 70076190
" />
<path d="M165064285 70076190
L165016666 70052380
L164992857 70028571
L164969047 69980952
L164969047 69838095
L164992857 69790476
L165016666 69766666
L165064285 69742857
L165135714 69742857
L165183333 69766666
L165207142 69790476
L165230952 69838095
L165230952 69980952
L165207142 70028571
L165183333 70052380
L165135714 70076190
L165064285 70076190
" />
<path d="M165659523 70076190
L165659523 69576190
" />
<path d="M165659523 70052380
L165611904 70076190
L165516666 70076190
L165469047 70052380
L165445238 70028571
L165421428 69980952
L165421428 69838095
L165445238 69790476
L165469047 69766666
L165516666 69742857
L165611904 69742857
L165659523 69766666
" />
<path d="M166088095 70052380
L166040476 70076190
L165945238 70076190
L165897619 70052380
L165873809 70004761
L165873809 69814285
L165897619 69766666
L165945238 69742857
L166040476 69742857
L166088095 69766666
L166111904 69814285
L166111904 69861904
L165873809 69909523
" />
</g><text x="165100000.000000" y="74101000.000000"
textLength="2311786.000000" font-size="666666.000000" lengthAdjust="spacingAndGlyphs"
text-anchor="middle" opacity="0">Anode</text>
<g class="stroked-text"><desc>Anode</desc>
<path d="M164088095 73934333
L164326190 73934333
" />
<path d="M164040476 74077190
L164207142 73577190
L164373809 74077190
" />
<path d="M164540476 73743857
L164540476 74077190
" />
<path d="M164540476 73791476
L164564285 73767666
L164611904 73743857
L164683333 73743857
L164730952 73767666
L164754761 73815285
L164754761 74077190
" />
<path d="M165064285 74077190
L165016666 74053380
L164992857 74029571
L164969047 73981952
L164969047 73839095
L164992857 73791476
L165016666 73767666
L165064285 73743857
L165135714 73743857
L165183333 73767666
L165207142 73791476
L165230952 73839095
L165230952 73981952
L165207142 74029571
L165183333 74053380
L165135714 74077190
L165064285 74077190
" />
<path d="M165659523 74077190
L165659523 73577190
" />
<path d="M165659523 74053380
L165611904 74077190
L165516666 74077190
L165469047 74053380
L165445238 74029571
L165421428 73981952
L165421428 73839095
L165445238 73791476
L165469047 73767666
L165516666 73743857
L165611904 73743857
L165659523 73767666
" />
<path d="M166088095 74053380
L166040476 74077190
L165945238 74077190
L165897619 74053380
L165873809 74005761
L165873809 73815285
L165897619 73767666
L165945238 73743857
L166040476 73743857
L166088095 73767666
L166111904 73815285
L166111904 73862904
L165873809 73910523
" />
</g><g transform="rotate(-90.000000 157500000.000000 63250000.000000)">
<text x="157500000.000000" y="63500000.000000"
textLength="1073690.000000" font-size="666666.000000" lengthAdjust="spacingAndGlyphs"
text-anchor="middle" opacity="0">D8</text>
</g>
<g class="stroked-text"><desc>D8</desc>
<path d="M157726190 63619047
L157226190 63619047
L157226190 63500000
L157250000 63428571
L157297619 63380952
L157345238 63357142
L157440476 63333333
L157511904 63333333
L157607142 63357142
L157654761 63380952
L157702380 63428571
L157726190 63500000
L157726190 63619047
" />
<path d="M157440476 63047619
L157416666 63095238
L157392857 63119047
L157345238 63142857
L157321428 63142857
L157273809 63119047
L157250000 63095238
L157226190 63047619
L157226190 62952380
L157250000 62904761
L157273809 62880952
L157321428 62857142
L157345238 62857142
L157392857 62880952
L157416666 62904761
L157440476 62952380
L157440476 63047619
L157464285 63095238
L157488095 63119047
L157535714 63142857
L157630952 63142857
L157678571 63119047
L157702380 63095238
L157726190 63047619
L157726190 62952380
L157702380 62904761
L157678571 62880952
L157630952 62857142
L157535714 62857142
L157488095 62880952
L157464285 62904761
L157440476 62952380
" />
</g><g transform="rotate(-90.000000 143500000.000000 63250000.000000)">
<text x="143500000.000000" y="63500000.000000"
textLength="1073690.000000" font-size="666666.000000" lengthAdjust="spacingAndGlyphs"
text-anchor="middle" opacity="0">D4</text>
</g>
<g class="stroked-text"><desc>D4</desc>
<path d="M143726190 63619047
L143226190 63619047
L143226190 63500000
L143250000 63428571
L143297619 63380952
L143345238 63357142
L143440476 63333333
L143511904 63333333
L143607142 63357142
L143654761 63380952
L143702380 63428571
L143726190 63500000
L143726190 63619047
" />
<path d="M143392857 62904761
L143726190 62904761
" />
<path d="M143202380 63023809
L143559523 63142857
L143559523 62833333
" />
</g><text x="152770000.000000" y="60702000.000000"
textLength="1549881.000000" font-size="666666.000000" lengthAdjust="spacingAndGlyphs"
text-anchor="middle" opacity="0">C14</text>
<g class="stroked-text"><desc>C14</desc>
<path d="M152448571 60630571
L152424761 60654380
L152353333 60678190
L152305714 60678190
L152234285 60654380
L152186666 60606761
L152162857 60559142
L152139047 60463904
L152139047 60392476
L152162857 60297238
L152186666 60249619
L152234285 60202000
L152305714 60178190
L152353333 60178190
L152424761 60202000
L152448571 60225809
" />
<path d="M152924761 60678190
L152639047 60678190
" />
<path d="M152781904 60678190
L152781904 60178190
L152734285 60249619
L152686666 60297238
L152639047 60321047
" />
<path d="M153353333 60344857
L153353333 60678190
" />
<path d="M153234285 60154380
L153115238 60511523
L153424761 60511523
" />
</g><g transform="rotate(-90.000000 140000000.000000 63250000.000000)">
<text x="140000000.000000" y="63500000.000000"
textLength="1073690.000000" font-size="666666.000000" lengthAdjust="spacingAndGlyphs"
text-anchor="middle" opacity="0">D3</text>
</g>
<g class="stroked-text"><desc>D3</desc>
<path d="M140226190 63619047
L139726190 63619047
L139726190 63500000
L139750000 63428571
L139797619 63380952
L139845238 63357142
L139940476 63333333
L140011904 63333333
L140107142 63357142
L140154761 63380952
L140202380 63428571
L140226190 63500000
L140226190 63619047
" />
<path d="M139726190 63166666
L139726190 62857142
L139916666 63023809
L139916666 62952380
L139940476 62904761
L139964285 62880952
L140011904 62857142
L140130952 62857142
L140178571 62880952
L140202380 62904761
L140226190 62952380
L140226190 63095238
L140202380 63142857
L140178571 63166666
" />
</g><text x="137871200.000000" y="72289800.000000"
textLength="1073690.000000" font-size="666666.000000" lengthAdjust="spacingAndGlyphs"
text-anchor="middle" opacity="0">C2</text>
<g class="stroked-text"><desc>C2</desc>
<path d="M137787866 72218371
L137764057 72242180
L137692628 72265990
L137645009 72265990
L137573580 72242180
L137525961 72194561
L137502152 72146942
L137478342 72051704
L137478342 71980276
L137502152 71885038
L137525961 71837419
L137573580 71789800
L137645009 71765990
L137692628 71765990
L137764057 71789800
L137787866 71813609
" />
<path d="M137978342 71813609
L138002152 71789800
L138049771 71765990
L138168819 71765990
L138216438 71789800
L138240247 71813609
L138264057 71861228
L138264057 71908847
L138240247 71980276
L137954533 72265990
L138264057 72265990
" />
</g><text x="153500000.000000" y="68068000.000000"
textLength="1073690.000000" font-size="666666.000000" lengthAdjust="spacingAndGlyphs"
text-anchor="middle" opacity="0">R8</text>
<g class="stroked-text"><desc>R8</desc>
<path d="M153416666 68044190
L153250000 67806095
" />
<path d="M153130952 68044190
L153130952 67544190
L153321428 67544190
L153369047 67568000
L153392857 67591809
L153416666 67639428
L153416666 67710857
L153392857 67758476
L153369047 67782285
L153321428 67806095
L153130952 67806095
" />
<path d="M153702380 67758476
L153654761 67734666
L153630952 67710857
L153607142 67663238
L153607142 67639428
L153630952 67591809
L153654761 67568000
L153702380 67544190
L153797619 67544190
L153845238 67568000
L153869047 67591809
L153892857 67639428
L153892857 67663238
L153869047 67710857
L153845238 67734666
L153797619 67758476
L153702380 67758476
L153654761 67782285
L153630952 67806095
L153607142 67853714
L153607142 67948952
L153630952 67996571
L153654761 68020380
L153702380 68044190
L153797619 68044190
L153845238 68020380
L153869047 67996571
L153892857 67948952
L153892857 67853714
L153869047 67806095
L153845238 67782285
L153797619 67758476
" />
</g><text x="149270000.000000" y="60702000.000000"
textLength="1549881.000000" font-size="666666.000000" lengthAdjust="spacingAndGlyphs"
text-anchor="middle" opacity="0">C12</text>
<g class="stroked-text"><desc>C12</desc>
<path d="M148948571 60630571
L148924761 60654380
L148853333 60678190
L148805714 60678190
L148734285 60654380
L148686666 60606761
L148662857 60559142
L148639047 60463904
L148639047 60392476
L148662857 60297238
L148686666 60249619
L148734285 60202000
L148805714 60178190
L148853333 60178190
L148924761 60202000
L148948571 60225809
" />
<path d="M149424761 60678190
L149139047 60678190
" />
<path d="M149281904 60678190
L149281904 60178190
L149234285 60249619
L149186666 60297238
L149139047 60321047
" />
<path d="M149615238 60225809
L149639047 60202000
L149686666 60178190
L149805714 60178190
L149853333 60202000
L149877142 60225809
L149900952 60273428
L149900952 60321047
L149877142 60392476
L149591428 60678190
L149900952 60678190
" />
</g><text x="158500000.000000" y="68068000.000000"
textLength="1073690.000000" font-size="666666.000000" lengthAdjust="spacingAndGlyphs"
text-anchor="middle" opacity="0">R7</text>
<g class="stroked-text"><desc>R7</desc>
<path d="M158416666 68044190
L158250000 67806095
" />
<path d="M158130952 68044190
L158130952 67544190
L158321428 67544190
L158369047 67568000
L158392857 67591809
L158416666 67639428
L158416666 67710857
L158392857 67758476
L158369047 67782285
L158321428 67806095
L158130952 67806095
" />
<path d="M158583333 67544190
L158916666 67544190
L158702380 68044190
" />
</g><g transform="rotate(-90.000000 150500000.000000 63250000.000000)">
<text x="150500000.000000" y="63500000.000000"
textLength="1073690.000000" font-size="666666.000000" lengthAdjust="spacingAndGlyphs"
text-anchor="middle" opacity="0">D6</text>
</g>
<g class="stroked-text"><desc>D6</desc>
<path d="M150726190 63619047
L150226190 63619047
L150226190 63500000
L150250000 63428571
L150297619 63380952
L150345238 63357142
L150440476 63333333
L150511904 63333333
L150607142 63357142
L150654761 63380952
L150702380 63428571
L150726190 63500000
L150726190 63619047
" />
<path d="M150226190 62904761
L150226190 63000000
L150250000 63047619
L150273809 63071428
L150345238 63119047
L150440476 63142857
L150630952 63142857
L150678571 63119047
L150702380 63095238
L150726190 63047619
L150726190 62952380
L150702380 62904761
L150678571 62880952
L150630952 62857142
L150511904 62857142
L150464285 62880952
L150440476 62904761
L150416666 62952380
L150416666 63047619
L150440476 63095238
L150464285 63119047
L150511904 63142857
" />
</g><text x="152250000.000000" y="72250000.000000"
textLength="1073690.000000" font-size="666666.000000" lengthAdjust="spacingAndGlyphs"
text-anchor="middle" opacity="0">D1</text>
<g class="stroked-text"><desc>D1</desc>
<path d="M151880952 72226190
L151880952 71726190
L152000000 71726190
L152071428 71750000
L152119047 71797619
L152142857 71845238
L152166666 71940476
L152166666 72011904
L152142857 72107142
L152119047 72154761
L152071428 72202380
L152000000 72226190
L151880952 72226190
" />
<path d="M152642857 72226190
L152357142 72226190
" />
<path d="M152500000 72226190
L152500000 71726190
L152452380 71797619
L152404761 71845238
L152357142 71869047
" />
</g><g transform="rotate(-90.000000 135890000.000000 71501000.000000)">
<text x="135890000.000000" y="71751000.000000"
textLength="1073690.000000" font-size="666666.000000" lengthAdjust="spacingAndGlyphs"
text-anchor="middle" opacity="0">R5</text>
</g>
<g class="stroked-text"><desc>R5</desc>
<path d="M136116190 71584333
L135878095 71751000
" />
<path d="M136116190 71870047
L135616190 71870047
L135616190 71679571
L135640000 71631952
L135663809 71608142
L135711428 71584333
L135782857 71584333
L135830476 71608142
L135854285 71631952
L135878095 71679571
L135878095 71870047
" />
<path d="M135616190 71131952
L135616190 71370047
L135854285 71393857
L135830476 71370047
L135806666 71322428
L135806666 71203380
L135830476 71155761
L135854285 71131952
L135901904 71108142
L136020952 71108142
L136068571 71131952
L136092380 71155761
L136116190 71203380
L136116190 71322428
L136092380 71370047
L136068571 71393857
" />
</g><text x="138176000.000000" y="73656000.000000"
textLength="3121310.000000" font-size="666666.000000" lengthAdjust="spacingAndGlyphs"
text-anchor="middle" opacity="0">Cathode</text>
<g class="stroked-text"><desc>Cathode</desc>
<path d="M137068857 73584571
L137045047 73608380
L136973619 73632190
L136926000 73632190
L136854571 73608380
L136806952 73560761
L136783142 73513142
L136759333 73417904
L136759333 73346476
L136783142 73251238
L136806952 73203619
L136854571 73156000
L136926000 73132190
L136973619 73132190
L137045047 73156000
L137068857 73179809
" />
<path d="M137497428 73632190
L137497428 73370285
L137473619 73322666
L137426000 73298857
L137330761 73298857
L137283142 73322666
" />
<path d="M137497428 73608380
L137449809 73632190
L137330761 73632190
L137283142 73608380
L137259333 73560761
L137259333 73513142
L137283142 73465523
L137330761 73441714
L137449809 73441714
L137497428 73417904
" />
<path d="M137664095 73298857
L137854571 73298857
" />
<path d="M137735523 73132190
L137735523 73560761
L137759333 73608380
L137806952 73632190
L137854571 73632190
" />
<path d="M138021238 73632190
L138021238 73132190
" />
<path d="M138235523 73632190
L138235523 73370285
L138211714 73322666
L138164095 73298857
L138092666 73298857
L138045047 73322666
L138021238 73346476
" />
<path d="M138545047 73632190
L138497428 73608380
L138473619 73584571
L138449809 73536952
L138449809 73394095
L138473619 73346476
L138497428 73322666
L138545047 73298857
L138616476 73298857
L138664095 73322666
L138687904 73346476
L138711714 73394095
L138711714 73536952
L138687904 73584571
L138664095 73608380
L138616476 73632190
L138545047 73632190
" />
<path d="M139140285 73632190
L139140285 73132190
" />
<path d="M139140285 73608380
L139092666 73632190
L138997428 73632190
L138949809 73608380
L138926000 73584571
L138902190 73536952
L138902190 73394095
L138926000 73346476
L138949809 73322666
L138997428 73298857
L139092666 73298857
L139140285 73322666
" />
<path d="M139568857 73608380
L139521238 73632190
L139426000 73632190
L139378380 73608380
L139354571 73560761
L139354571 73370285
L139378380 73322666
L139426000 73298857
L139521238 73298857
L139568857 73322666
L139592666 73370285
L139592666 73417904
L139354571 73465523
" />
</g><g transform="rotate(-90.000000 154000000.000000 63250000.000000)">
<text x="154000000.000000" y="63500000.000000"
textLength="1073690.000000" font-size="666666.000000" lengthAdjust="spacingAndGlyphs"
text-anchor="middle" opacity="0">D7</text>
</g>
<g class="stroked-text"><desc>D7</desc>
<path d="M154226190 63619047
L153726190 63619047
L153726190 63500000
L153750000 63428571
L153797619 63380952
L153845238 63357142
L153940476 63333333
L154011904 63333333
L154107142 63357142
L154154761 63380952
L154202380 63428571
L154226190 63500000
L154226190 63619047
" />
<path d="M153726190 63166666
L153726190 62833333
L154226190 63047619
" />
</g><text x="130500000.000000" y="58250000.000000"
textLength="1073690.000000" font-size="666666.000000" lengthAdjust="spacingAndGlyphs"
text-anchor="middle" opacity="0">C5</text>
<g class="stroked-text"><desc>C5</desc>
<path d="M130416666 58178571
L130392857 58202380
L130321428 58226190
L130273809 58226190
L130202380 58202380
L130154761 58154761
L130130952 58107142
L130107142 58011904
L130107142 57940476
L130130952 57845238
L130154761 57797619
L130202380 57750000
L130273809 57726190
L130321428 57726190
L130392857 57750000
L130416666 57773809
" />
<path d="M130869047 57726190
L130630952 57726190
L130607142 57964285
L130630952 57940476
L130678571 57916666
L130797619 57916666
L130845238 57940476
L130869047 57964285
L130892857 58011904
L130892857 58130952
L130869047 58178571
L130845238 58202380
L130797619 58226190
L130678571 58226190
L130630952 58202380
L130607142 58178571
" />
</g><text x="154000000.000000" y="66500000.000000"
textLength="1549881.000000" font-size="666666.000000" lengthAdjust="spacingAndGlyphs"
text-anchor="middle" opacity="0">C15</text>
<g class="stroked-text"><desc>C15</desc>
<path d="M153678571 66428571
L153654761 66452380
L153583333 66476190
L153535714 66476190
L153464285 66452380
L153416666 66404761
L153392857 66357142
L153369047 66261904
L153369047 66190476
L153392857 66095238
L153416666 66047619
L153464285 66000000
L153535714 65976190
L153583333 65976190
L153654761 66000000
L153678571 66023809
" />
<path d="M154154761 66476190
L153869047 66476190
" />
<path d="M154011904 66476190
L154011904 65976190
L153964285 66047619
L153916666 66095238
L153869047 66119047
" />
<path d="M154607142 65976190
L154369047 65976190
L154345238 66214285
L154369047 66190476
L154416666 66166666
L154535714 66166666
L154583333 66190476
L154607142 66214285
L154630952 66261904
L154630952 66380952
L154607142 66428571
L154583333 66452380
L154535714 66476190
L154416666 66476190
L154369047 66452380
L154345238 66428571
" />
</g><g transform="rotate(-90.000000 163703000.000000 66220000.000000)">
<text x="163703000.000000" y="66470000.000000"
textLength="1073690.000000" font-size="666666.000000" lengthAdjust="spacingAndGlyphs"
text-anchor="middle" opacity="0">R1</text>
</g>
<g class="stroked-text"><desc>R1</desc>
<path d="M163929190 66303333
L163691095 66470000
" />
<path d="M163929190 66589047
L163429190 66589047
L163429190 66398571
L163453000 66350952
L163476809 66327142
L163524428 66303333
L163595857 66303333
L163643476 66327142
L163667285 66350952
L163691095 66398571
L163691095 66589047
" />
<path d="M163929190 65827142
L163929190 66112857
" />
<path d="M163929190 65970000
L163429190 65970000
L163500619 66017619
L163548238 66065238
L163572047 66112857
" />
</g><text x="139020000.000000" y="60702000.000000"
textLength="1073690.000000" font-size="666666.000000" lengthAdjust="spacingAndGlyphs"
text-anchor="middle" opacity="0">C6</text>
<g class="stroked-text"><desc>C6</desc>
<path d="M138936666 60630571
L138912857 60654380
L138841428 60678190
L138793809 60678190
L138722380 60654380
L138674761 60606761
L138650952 60559142
L138627142 60463904
L138627142 60392476
L138650952 60297238
L138674761 60249619
L138722380 60202000
L138793809 60178190
L138841428 60178190
L138912857 60202000
L138936666 60225809
" />
<path d="M139365238 60178190
L139270000 60178190
L139222380 60202000
L139198571 60225809
L139150952 60297238
L139127142 60392476
L139127142 60582952
L139150952 60630571
L139174761 60654380
L139222380 60678190
L139317619 60678190
L139365238 60654380
L139389047 60630571
L139412857 60582952
L139412857 60463904
L139389047 60416285
L139365238 60392476
L139317619 60368666
L139222380 60368666
L139174761 60392476
L139150952 60416285
L139127142 60463904
" />
</g><g transform="rotate(-90.000000 155067000.000000 70485000.000000)">
<text x="155067000.000000" y="70735000.000000"
textLength="1549881.000000" font-size="666666.000000" lengthAdjust="spacingAndGlyphs"
text-anchor="middle" opacity="0">R23</text>
</g>
<g class="stroked-text"><desc>R23</desc>
<path d="M155293190 70806428
L155055095 70973095
" />
<path d="M155293190 71092142
L154793190 71092142
L154793190 70901666
L154817000 70854047
L154840809 70830238
L154888428 70806428
L154959857 70806428
L155007476 70830238
L155031285 70854047
L155055095 70901666
L155055095 71092142
" />
<path d="M154840809 70615952
L154817000 70592142
L154793190 70544523
L154793190 70425476
L154817000 70377857
L154840809 70354047
L154888428 70330238
L154936047 70330238
L155007476 70354047
L155293190 70639761
L155293190 70330238
" />
<path d="M154793190 70163571
L154793190 69854047
L154983666 70020714
L154983666 69949285
L155007476 69901666
L155031285 69877857
L155078904 69854047
L155197952 69854047
L155245571 69877857
L155269380 69901666
L155293190 69949285
L155293190 70092142
L155269380 70139761
L155245571 70163571
" />
</g><text x="140000000.000000" y="66500000.000000"
textLength="1073690.000000" font-size="666666.000000" lengthAdjust="spacingAndGlyphs"
text-anchor="middle" opacity="0">C7</text>
<g class="stroked-text"><desc>C7</desc>
<path d="M139916666 66428571
L139892857 66452380
L139821428 66476190
L139773809 66476190
L139702380 66452380
L139654761 66404761
L139630952 66357142
L139607142 66261904
L139607142 66190476
L139630952 66095238
L139654761 66047619
L139702380 66000000
L139773809 65976190
L139821428 65976190
L139892857 66000000
L139916666 66023809
" />
<path d="M140083333 65976190
L140416666 65976190
L140202380 66476190
" />
</g><text x="150500000.000000" y="66500000.000000"
textLength="1549881.000000" font-size="666666.000000" lengthAdjust="spacingAndGlyphs"
text-anchor="middle" opacity="0">C13</text>
<g class="stroked-text"><desc>C13</desc>
<path d="M150178571 66428571
L150154761 66452380
L150083333 66476190
L150035714 66476190
L149964285 66452380
L149916666 66404761
L149892857 66357142
L149869047 66261904
L149869047 66190476
L149892857 66095238
L149916666 66047619
L149964285 66000000
L150035714 65976190
L150083333 65976190
L150154761 66000000
L150178571 66023809
" />
<path d="M150654761 66476190
L150369047 66476190
" />
<path d="M150511904 66476190
L150511904 65976190
L150464285 66047619
L150416666 66095238
L150369047 66119047
" />
<path d="M150821428 65976190
L151130952 65976190
L150964285 66166666
L151035714 66166666
L151083333 66190476
L151107142 66214285
L151130952 66261904
L151130952 66380952
L151107142 66428571
L151083333 66452380
L151035714 66476190
L150892857 66476190
L150845238 66452380
L150821428 66428571
" />
</g><text x="147000000.000000" y="66500000.000000"
textLength="1549881.000000" font-size="666666.000000" lengthAdjust="spacingAndGlyphs"
text-anchor="middle" opacity="0">C11</text>
<g class="stroked-text"><desc>C11</desc>
<path d="M146678571 66428571
L146654761 66452380
L146583333 66476190
L146535714 66476190
L146464285 66452380
L146416666 66404761
L146392857 66357142
L146369047 66261904
L146369047 66190476
L146392857 66095238
L146416666 66047619
L146464285 66000000
L146535714 65976190
L146583333 65976190
L146654761 66000000
L146678571 66023809
" />
<path d="M147154761 66476190
L146869047 66476190
" />
<path d="M147011904 66476190
L147011904 65976190
L146964285 66047619
L146916666 66095238
L146869047 66119047
" />
<path d="M147630952 66476190
L147345238 66476190
" />
<path d="M147488095 66476190
L147488095 65976190
L147440476 66047619
L147392857 66095238
L147345238 66119047
" />
</g><text x="134500000.000000" y="63000000.000000"
textLength="978452.000000" font-size="666666.000000" lengthAdjust="spacingAndGlyphs"
text-anchor="middle" opacity="0">L1</text>
<g class="stroked-text"><desc>L1</desc>
<path d="M134416666 62976190
L134178571 62976190
L134178571 62476190
" />
<path d="M134845238 62976190
L134559523 62976190
" />
<path d="M134702380 62976190
L134702380 62476190
L134654761 62547619
L134607142 62595238
L134559523 62619047
" />
</g><text x="143250000.000000" y="68068000.000000"
textLength="1549881.000000" font-size="666666.000000" lengthAdjust="spacingAndGlyphs"
text-anchor="middle" opacity="0">R10</text>
<g class="stroked-text"><desc>R10</desc>
<path d="M142928571 68044190
L142761904 67806095
" />
<path d="M142642857 68044190
L142642857 67544190
L142833333 67544190
L142880952 67568000
L142904761 67591809
L142928571 67639428
L142928571 67710857
L142904761 67758476
L142880952 67782285
L142833333 67806095
L142642857 67806095
" />
<path d="M143404761 68044190
L143119047 68044190
" />
<path d="M143261904 68044190
L143261904 67544190
L143214285 67615619
L143166666 67663238
L143119047 67687047
" />
<path d="M143714285 67544190
L143761904 67544190
L143809523 67568000
L143833333 67591809
L143857142 67639428
L143880952 67734666
L143880952 67853714
L143857142 67948952
L143833333 67996571
L143809523 68020380
L143761904 68044190
L143714285 68044190
L143666666 68020380
L143642857 67996571
L143619047 67948952
L143595238 67853714
L143595238 67734666
L143619047 67639428
L143642857 67591809
L143666666 67568000
L143714285 67544190
" />
</g><text x="157588000.000000" y="66500000.000000"
textLength="1549881.000000" font-size="666666.000000" lengthAdjust="spacingAndGlyphs"
text-anchor="middle" opacity="0">C17</text>
<g class="stroked-text"><desc>C17</desc>
<path d="M157266571 66428571
L157242761 66452380
L157171333 66476190
L157123714 66476190
L157052285 66452380
L157004666 66404761
L156980857 66357142
L156957047 66261904
L156957047 66190476
L156980857 66095238
L157004666 66047619
L157052285 66000000
L157123714 65976190
L157171333 65976190
L157242761 66000000
L157266571 66023809
" />
<path d="M157742761 66476190
L157457047 66476190
" />
<path d="M157599904 66476190
L157599904 65976190
L157552285 66047619
L157504666 66095238
L157457047 66119047
" />
<path d="M157909428 65976190
L158242761 65976190
L158028476 66476190
" />
</g><g transform="rotate(-90.000000 141000000.000000 73406000.000000)">
<text x="141000000.000000" y="73656000.000000"
textLength="1097500.000000" font-size="666666.000000" lengthAdjust="spacingAndGlyphs"
text-anchor="middle" opacity="0">U2</text>
</g>
<g class="stroked-text"><desc>U2</desc>
<path d="M140726190 73786952
L141130952 73786952
L141178571 73763142
L141202380 73739333
L141226190 73691714
L141226190 73596476
L141202380 73548857
L141178571 73525047
L141130952 73501238
L140726190 73501238
" />
<path d="M140773809 73286952
L140750000 73263142
L140726190 73215523
L140726190 73096476
L140750000 73048857
L140773809 73025047
L140821428 73001238
L140869047 73001238
L140940476 73025047
L141226190 73310761
L141226190 73001238
" />
</g><text x="128000000.000000" y="58250000.000000"
textLength="1502262.000000" font-size="666666.000000" lengthAdjust="spacingAndGlyphs"
text-anchor="middle" opacity="0">FB2</text>
<g class="stroked-text"><desc>FB2</desc>
<path d="M127583333 57964285
L127416666 57964285
" />
<path d="M127416666 58226190
L127416666 57726190
L127654761 57726190
" />
<path d="M128011904 57964285
L128083333 57988095
L128107142 58011904
L128130952 58059523
L128130952 58130952
L128107142 58178571
L128083333 58202380
L128035714 58226190
L127845238 58226190
L127845238 57726190
L128011904 57726190
L128059523 57750000
L128083333 57773809
L128107142 57821428
L128107142 57869047
L128083333 57916666
L128059523 57940476
L128011904 57964285
L127845238 57964285
" />
<path d="M128321428 57773809
L128345238 57750000
L128392857 57726190
L128511904 57726190
L128559523 57750000
L128583333 57773809
L128607142 57821428
L128607142 57869047
L128583333 57940476
L128297619 58226190
L128607142 58226190
" />
</g><text x="148500000.000000" y="68068000.000000"
textLength="1073690.000000" font-size="666666.000000" lengthAdjust="spacingAndGlyphs"
text-anchor="middle" opacity="0">R9</text>
<g class="stroked-text"><desc>R9</desc>
<path d="M148416666 68044190
L148250000 67806095
" />
<path d="M148130952 68044190
L148130952 67544190
L148321428 67544190
L148369047 67568000
L148392857 67591809
L148416666 67639428
L148416666 67710857
L148392857 67758476
L148369047 67782285
L148321428 67806095
L148130952 67806095
" />
<path d="M148654761 68044190
L148750000 68044190
L148797619 68020380
L148821428 67996571
L148869047 67925142
L148892857 67829904
L148892857 67639428
L148869047 67591809
L148845238 67568000
L148797619 67544190
L148702380 67544190
L148654761 67568000
L148630952 67591809
L148607142 67639428
L148607142 67758476
L148630952 67806095
L148654761 67829904
L148702380 67853714
L148797619 67853714
L148845238 67829904
L148869047 67806095
L148892857 67758476
" />
</g><text x="153310000.000000" y="77520000.000000"
textLength="1073690.000000" font-size="666666.000000" lengthAdjust="spacingAndGlyphs"
text-anchor="middle" opacity="0">R3</text>
<g class="stroked-text"><desc>R3</desc>
<path d="M153226666 77496190
L153060000 77258095
" />
<path d="M152940952 77496190
L152940952 76996190
L153131428 76996190
L153179047 77020000
L153202857 77043809
L153226666 77091428
L153226666 77162857
L153202857 77210476
L153179047 77234285
L153131428 77258095
L152940952 77258095
" />
<path d="M153393333 76996190
L153702857 76996190
L153536190 77186666
L153607619 77186666
L153655238 77210476
L153679047 77234285
L153702857 77281904
L153702857 77400952
L153679047 77448571
L153655238 77472380
L153607619 77496190
L153464761 77496190
L153417142 77472380
L153393333 77448571
" />
</g><text x="153289000.000000" y="74926000.000000"
textLength="1073690.000000" font-size="666666.000000" lengthAdjust="spacingAndGlyphs"
text-anchor="middle" opacity="0">R4</text>
<g class="stroked-text"><desc>R4</desc>
<path d="M153205666 74902190
L153039000 74664095
" />
<path d="M152919952 74902190
L152919952 74402190
L153110428 74402190
L153158047 74426000
L153181857 74449809
L153205666 74497428
L153205666 74568857
L153181857 74616476
L153158047 74640285
L153110428 74664095
L152919952 74664095
" />
<path d="M153634238 74568857
L153634238 74902190
" />
<path d="M153515190 74378380
L153396142 74735523
L153705666 74735523
" />
</g><text x="156270000.000000" y="60702000.000000"
textLength="1549881.000000" font-size="666666.000000" lengthAdjust="spacingAndGlyphs"
text-anchor="middle" opacity="0">C16</text>
<g class="stroked-text"><desc>C16</desc>
<path d="M155948571 60630571
L155924761 60654380
L155853333 60678190
L155805714 60678190
L155734285 60654380
L155686666 60606761
L155662857 60559142
L155639047 60463904
L155639047 60392476
L155662857 60297238
L155686666 60249619
L155734285 60202000
L155805714 60178190
L155853333 60178190
L155924761 60202000
L155948571 60225809
" />
<path d="M156424761 60678190
L156139047 60678190
" />
<path d="M156281904 60678190
L156281904 60178190
L156234285 60249619
L156186666 60297238
L156139047 60321047
" />
<path d="M156853333 60178190
L156758095 60178190
L156710476 60202000
L156686666 60225809
L156639047 60297238
L156615238 60392476
L156615238 60582952
L156639047 60630571
L156662857 60654380
L156710476 60678190
L156805714 60678190
L156853333 60654380
L156877142 60630571
L156900952 60582952
L156900952 60463904
L156877142 60416285
L156853333 60392476
L156805714 60368666
L156710476 60368666
L156662857 60392476
L156639047 60416285
L156615238 60463904
" />
</g><text x="143500000.000000" y="66500000.000000"
textLength="1073690.000000" font-size="666666.000000" lengthAdjust="spacingAndGlyphs"
text-anchor="middle" opacity="0">C9</text>
<g class="stroked-text"><desc>C9</desc>
<path d="M143416666 66428571
L143392857 66452380
L143321428 66476190
L143273809 66476190
L143202380 66452380
L143154761 66404761
L143130952 66357142
L143107142 66261904
L143107142 66190476
L143130952 66095238
L143154761 66047619
L143202380 66000000
L143273809 65976190
L143321428 65976190
L143392857 66000000
L143416666 66023809
" />
<path d="M143654761 66476190
L143750000 66476190
L143797619 66452380
L143821428 66428571
L143869047 66357142
L143892857 66261904
L143892857 66071428
L143869047 66023809
L143845238 66000000
L143797619 65976190
L143702380 65976190
L143654761 66000000
L143630952 66023809
L143607142 66071428
L143607142 66190476
L143630952 66238095
L143654761 66261904
L143702380 66285714
L143797619 66285714
L143845238 66261904
L143869047 66238095
L143892857 66190476
" />
</g><text x="134770000.000000" y="69020000.000000"
textLength="1097500.000000" font-size="666666.000000" lengthAdjust="spacingAndGlyphs"
text-anchor="middle" opacity="0">Q1</text>
<g class="stroked-text"><desc>Q1</desc>
<path d="M134722380 69043809
L134674761 69020000
L134627142 68972380
L134555714 68900952
L134508095 68877142
L134460476 68877142
" />
<path d="M134484285 68996190
L134436666 68972380
L134389047 68924761
L134365238 68829523
L134365238 68662857
L134389047 68567619
L134436666 68520000
L134484285 68496190
L134579523 68496190
L134627142 68520000
L134674761 68567619
L134698571 68662857
L134698571 68829523
L134674761 68924761
L134627142 68972380
L134579523 68996190
L134484285 68996190
" />
<path d="M135174761 68996190
L134889047 68996190
" />
<path d="M135031904 68996190
L135031904 68496190
L134984285 68567619
L134936666 68615238
L134889047 68639047
" />
</g><g transform="rotate(-90.000000 161000000.000000 63250000.000000)">
<text x="161000000.000000" y="63500000.000000"
textLength="1073690.000000" font-size="666666.000000" lengthAdjust="spacingAndGlyphs"
text-anchor="middle" opacity="0">D9</text>
</g>
<g class="stroked-text"><desc>D9</desc>
<path d="M161226190 63619047
L160726190 63619047
L160726190 63500000
L160750000 63428571
L160797619 63380952
L160845238 63357142
L160940476 63333333
L161011904 63333333
L161107142 63357142
L161154761 63380952
L161202380 63428571
L161226190 63500000
L161226190 63619047
" />
<path d="M161226190 63095238
L161226190 63000000
L161202380 62952380
L161178571 62928571
L161107142 62880952
L161011904 62857142
L160821428 62857142
L160773809 62880952
L160750000 62904761
L160726190 62952380
L160726190 63047619
L160750000 63095238
L160773809 63119047
L160821428 63142857
L160940476 63142857
L160988095 63119047
L161011904 63095238
L161035714 63047619
L161035714 62952380
L161011904 62904761
L160988095 62880952
L160940476 62857142
" />
</g><text x="159770000.000000" y="60702000.000000"
textLength="1549881.000000" font-size="666666.000000" lengthAdjust="spacingAndGlyphs"
text-anchor="middle" opacity="0">C18</text>
<g class="stroked-text"><desc>C18</desc>
<path d="M159448571 60630571
L159424761 60654380
L159353333 60678190
L159305714 60678190
L159234285 60654380
L159186666 60606761
L159162857 60559142
L159139047 60463904
L159139047 60392476
L159162857 60297238
L159186666 60249619
L159234285 60202000
L159305714 60178190
L159353333 60178190
L159424761 60202000
L159448571 60225809
" />
<path d="M159924761 60678190
L159639047 60678190
" />
<path d="M159781904 60678190
L159781904 60178190
L159734285 60249619
L159686666 60297238
L159639047 60321047
" />
<path d="M160210476 60392476
L160162857 60368666
L160139047 60344857
L160115238 60297238
L160115238 60273428
L160139047 60225809
L160162857 60202000
L160210476 60178190
L160305714 60178190
L160353333 60202000
L160377142 60225809
L160400952 60273428
L160400952 60297238
L160377142 60344857
L160353333 60368666
L160305714 60392476
L160210476 60392476
L160162857 60416285
L160139047 60440095
L160115238 60487714
L160115238 60582952
L160139047 60630571
L160162857 60654380
L160210476 60678190
L160305714 60678190
L160353333 60654380
L160377142 60630571
L160400952 60582952
L160400952 60487714
L160377142 60440095
L160353333 60416285
L160305714 60392476
" />
</g><text x="142520000.000000" y="60725000.000000"
textLength="1073690.000000" font-size="666666.000000" lengthAdjust="spacingAndGlyphs"
text-anchor="middle" opacity="0">C8</text>
<g class="stroked-text"><desc>C8</desc>
<path d="M142436666 60653571
L142412857 60677380
L142341428 60701190
L142293809 60701190
L142222380 60677380
L142174761 60629761
L142150952 60582142
L142127142 60486904
L142127142 60415476
L142150952 60320238
L142174761 60272619
L142222380 60225000
L142293809 60201190
L142341428 60201190
L142412857 60225000
L142436666 60248809
" />
<path d="M142722380 60415476
L142674761 60391666
L142650952 60367857
L142627142 60320238
L142627142 60296428
L142650952 60248809
L142674761 60225000
L142722380 60201190
L142817619 60201190
L142865238 60225000
L142889047 60248809
L142912857 60296428
L142912857 60320238
L142889047 60367857
L142865238 60391666
L142817619 60415476
L142722380 60415476
L142674761 60439285
L142650952 60463095
L142627142 60510714
L142627142 60605952
L142650952 60653571
L142674761 60677380
L142722380 60701190
L142817619 60701190
L142865238 60677380
L142889047 60653571
L142912857 60605952
L142912857 60510714
L142889047 60463095
L142865238 60439285
L142817619 60415476
" />
</g><g transform="rotate(-90.000000 133071000.000000 71501000.000000)">
<text x="133071000.000000" y="71751000.000000"
textLength="1502262.000000" font-size="666666.000000" lengthAdjust="spacingAndGlyphs"
text-anchor="middle" opacity="0">FB1</text>
</g>
<g class="stroked-text"><desc>FB1</desc>
<path d="M133035285 71917666
L133035285 72084333
" />
<path d="M133297190 72084333
L132797190 72084333
L132797190 71846238
" />
<path d="M133035285 71489095
L133059095 71417666
L133082904 71393857
L133130523 71370047
L133201952 71370047
L133249571 71393857
L133273380 71417666
L133297190 71465285
L133297190 71655761
L132797190 71655761
L132797190 71489095
L132821000 71441476
L132844809 71417666
L132892428 71393857
L132940047 71393857
L132987666 71417666
L133011476 71441476
L133035285 71489095
L133035285 71655761
" />
<path d="M133297190 70893857
L133297190 71179571
" />
<path d="M133297190 71036714
L132797190 71036714
L132868619 71084333
L132916238 71131952
L132940047 71179571
" />
</g><g transform="rotate(-90.000000 147000000.000000 63250000.000000)">
<text x="147000000.000000" y="63500000.000000"
textLength="1073690.000000" font-size="666666.000000" lengthAdjust="spacingAndGlyphs"
text-anchor="middle" opacity="0">D5</text>
</g>
<g class="stroked-text"><desc>D5</desc>
<path d="M147226190 63619047
L146726190 63619047
L146726190 63500000
L146750000 63428571
L146797619 63380952
L146845238 63357142
L146940476 63333333
L147011904 63333333
L147107142 63357142
L147154761 63380952
L147202380 63428571
L147226190 63500000
L147226190 63619047
" />
<path d="M146726190 62880952
L146726190 63119047
L146964285 63142857
L146940476 63119047
L146916666 63071428
L146916666 62952380
L146940476 62904761
L146964285 62880952
L147011904 62857142
L147130952 62857142
L147178571 62880952
L147202380 62904761
L147226190 62952380
L147226190 63071428
L147202380 63119047
L147178571 63142857
" />
</g></g>
<g style="fill:#000000; fill-opacity:0.0; 
stroke:#000000; stroke-width:120000.000000; stroke-opacity:1; 
stroke-linecap:round; stroke-linejoin:round;">
<path d="M129235000 71728064
L129235000 71273936
" />
<path d="M127765000 71728064
L127765000 71273936
" />
<path d="M163770000 60325000
L163770000 62925000
" />
<path d="M163770000 60325000
L166430000 60325000
" />
<path d="M163770000 57725000
L165100000 57725000
" />
<path d="M163770000 62925000
L166430000 62925000
" />
<path d="M163770000 59055000
L163770000 57725000
" />
<path d="M166430000 60325000
L166430000 62925000
" />
<path d="M145738748 59735000
L146261252 59735000
" />
<path d="M145738748 58265000
L146261252 58265000
" />
<circle cx="162560000.000000" cy="71755000.000000" r="1800000.000000" /> 
<circle cx="162560000.000000" cy="75565000.000000" r="1800000.000000" /> 
<path d="M159060000 62000000
L159060000 61350000
" />
<path d="M155940000 62000000
L155940000 63675000
" />
<path d="M159060000 62000000
L159060000 62650000
" />
<path d="M155940000 62000000
L155940000 61350000
" />
<path d="M141940000 62000000
L141940000 63675000
" />
<path d="M145060000 62000000
L145060000 61350000
" />
<path d="M141940000 62000000
L141940000 61350000
" />
<path d="M145060000 62000000
L145060000 62650000
" />
<path d="M152738748 59735000
L153261252 59735000
" />
<path d="M152738748 58265000
L153261252 58265000
" />
<path d="M138394000 61976000
L138394000 63651000
" />
<path d="M141514000 61976000
L141514000 61326000
" />
<path d="M141514000 61976000
L141514000 62626000
" />
<path d="M138394000 61976000
L138394000 61326000
" />
<path d="M137609948 71524800
L138132452 71524800
" />
<path d="M137609948 70054800
L138132452 70054800
" />
<path d="M151691064 67083000
L151236936 67083000
" />
<path d="M151691064 68553000
L151236936 68553000
" />
<path d="M149238748 58265000
L149761252 58265000
" />
<path d="M149238748 59735000
L149761252 59735000
" />
<path d="M156691064 68553000
L156236936 68553000
" />
<path d="M156691064 67083000
L156236936 67083000
" />
<path d="M148940000 62000000
L148940000 61350000
" />
<path d="M152060000 62000000
L152060000 61350000
" />
<path d="M148940000 62000000
L148940000 63675000
" />
<path d="M152060000 62000000
L152060000 62650000
" />
<path d="M150750000 69900000
L153300000 69900000
" />
<path d="M150750000 71600000
L153300000 71600000
" />
<path d="M150750000 69900000
L150750000 71600000
" />
<path d="M135228000 71273936
L135228000 71728064
" />
<path d="M133758000 71273936
L133758000 71728064
" />
<circle cx="138176000.000000" cy="75565000.000000" r="1700000.000000" /> 
<path d="M155560000 62000000
L155560000 61350000
" />
<path d="M155560000 62000000
L155560000 62650000
" />
<path d="M152440000 62000000
L152440000 61350000
" />
<path d="M152440000 62000000
L152440000 63675000
" />
<path d="M129765000 59738748
L129765000 60261252
" />
<path d="M131235000 59738748
L131235000 60261252
" />
<path d="M153738748 65735000
L154261252 65735000
" />
<path d="M153738748 64265000
L154261252 64265000
" />
<path d="M129770000 76895000
L129770000 74235000
" />
<path d="M129770000 76895000
L134910000 76895000
" />
<path d="M129770000 74235000
L134910000 74235000
" />
<path d="M127170000 76895000
L127170000 75565000
" />
<path d="M134910000 76895000
L134910000 74235000
" />
<path d="M128500000 76895000
L127170000 76895000
" />
</g>
<g style="fill:#000000; fill-opacity:1.0; 
stroke:#000000; stroke-width:1.000000; stroke-opacity:1; 
stroke-linecap:round; stroke-linejoin:round;">
<path style="fill:#000000; fill-opacity:1.0; 
stroke:#000000; stroke-width:1.000000; stroke-opacity:1; 
stroke-linecap:round; stroke-linejoin:round;fill-rule:evenodd;"
d="M 159648008.000000,68234981.000000
159712465.000000,68112190.000000
159789031.000000,67972078.000000
159836273.000000,67887910.000000
159935984.000000,67711889.000000
160049844.000000,67510887.000000
160169200.000000,67300177.000000
160285401.000000,67095035.000000
160389794.000000,66910735.000000
160405786.000000,66882503.000000
160487331.000000,66738567.000000
160563700.000000,66603823.000000
160631174.000000,66484828.000000
160686034.000000,66388140.000000
160724562.000000,66320316.000000
160740342.000000,66292612.000000
160769428.000000,66241485.000000
160815151.000000,66160815.000000
160871423.000000,66061359.000000
160932152.000000,65953873.000000
160936813.000000,65945618.000000
160998233.000000,65838645.000000
161056815.000000,65739863.000000
161106217.000000,65659759.000000
161140098.000000,65608820.000000
161141960.000000,65606304.000000
161216055.000000,65539165.000000
161302073.000000,65514764.000000
161393526.000000,65534762.000000
161402994.000000,65539410.000000
161419812.000000,65548067.000000
161435065.000000,65557376.000000
161450880.000000,65570742.000000
161469388.000000,65591576.000000
161492715.000000,65623283.000000
161522991.000000,65669273.000000
161562343.000000,65732954.000000
161612900.000000,65817733.000000
161676791.000000,65927018.000000
161756143.000000,66064218.000000
161853086.000000,66232740.000000
161969747.000000,66435992.000000
162046752.000000,66570208.000000
162160014.000000,66767539.000000
162284071.000000,66983567.000000
162412313.000000,67206788.000000
162538130.000000,67425699.000000
162654912.000000,67628797.000000
162756049.000000,67804579.000000
162766342.000000,67822460.000000
162853194.000000,67975331.000000
162930974.000000,68116103.000000
162996830.000000,68239314.000000
163047907.000000,68339502.000000
163081350.000000,68411204.000000
163094305.000000,68448958.000000
163094371.000000,68450271.000000
163079864.000000,68511043.000000
163050160.000000,68562864.000000
163005949.000000,68617476.000000
161610133.000000,68619178.000000
161349908.000000,68619265.000000
161095432.000000,68618914.000000
160851891.000000,68618159.000000
160624472.000000,68617035.000000
160418363.000000,68615579.000000
160238748.000000,68613827.000000
160090817.000000,68611812.000000
159979754.000000,68609572.000000
159920292.000000,68607612.000000
159796378.000000,68601249.000000
159710405.000000,68594305.000000
159654053.000000,68585274.000000
159619007.000000,68572649.000000
159596948.000000,68554927.000000
159591382.000000,68548077.000000
159563222.000000,68487622.000000
159555763.000000,68443101.000000
159566810.000000,68406071.000000
159586454.000000,68361916.000000
159855756.000000,68361916.000000
159878241.000000,68364123.000000
159943105.000000,68366208.000000
160046463.000000,68368137.000000
160184426.000000,68369877.000000
160353110.000000,68371394.000000
160548626.000000,68372655.000000
160767089.000000,68373626.000000
161004613.000000,68374274.000000
161257309.000000,68374566.000000
161324699.000000,68374579.000000
161580690.000000,68374418.000000
161822513.000000,68373952.000000
162046281.000000,68373210.000000
162248109.000000,68372219.000000
162424109.000000,68371008.000000
162570395.000000,68369604.000000
162683081.000000,68368035.000000
162758280.000000,68366329.000000
162792105.000000,68364515.000000
162793643.000000,68364031.000000
162782785.000000,68340122.000000
162754541.000000,68288515.000000
162721259.000000,68231016.000000
162696166.000000,68187963.000000
162650469.000000,68108929.000000
162586563.000000,67998077.000000
162506842.000000,67859572.000000
162413700.000000,67697577.000000
162309533.000000,67516255.000000
162196735.000000,67319772.000000
162077700.000000,67112290.000000
162012259.000000,66998168.000000
161869769.000000,66749625.000000
161748548.000000,66538211.000000
161646832.000000,66360929.000000
161562855.000000,66214785.000000
161494851.000000,66096781.000000
161441057.000000,66003924.000000
161399706.000000,65933216.000000
161369033.000000,65881662.000000
161347274.000000,65846267.000000
161332662.000000,65824035.000000
161323434.000000,65811969.000000
161317823.000000,65807075.000000
161314065.000000,65806357.000000
161310394.000000,65806819.000000
161310272.000000,65806820.000000
161295653.000000,65826180.000000
161261164.000000,65881073.000000
161209631.000000,65966717.000000
161143882.000000,66078329.000000
161066746.000000,66211128.000000
160981051.000000,66360330.000000
160930665.000000,66448760.000000
160751132.000000,66764958.000000
160584996.000000,67058015.000000
160433261.000000,67326141.000000
160296934.000000,67567547.000000
160177018.000000,67780445.000000
160074519.000000,67963045.000000
159990442.000000,68113559.000000
159925793.000000,68230197.000000
159881576.000000,68311172.000000
159858796.000000,68354693.000000
159855756.000000,68361916.000000
159586454.000000,68361916.000000
159598508.000000,68334820.000000
Z" /> 
<path style="fill:#000000; fill-opacity:1.0; 
stroke:#000000; stroke-width:1.000000; stroke-opacity:1; 
stroke-linecap:round; stroke-linejoin:round;fill-rule:evenodd;"
d="M 161415073.000000,66518159.000000
161386020.000000,66585589.000000
161347680.000000,66674809.000000
161313168.000000,66755272.000000
161268405.000000,66858584.000000
161219546.000000,66969620.000000
161187431.000000,67041512.000000
161156793.000000,67114041.000000
161137198.000000,67169552.000000
161132878.000000,67194526.000000
161154338.000000,67190844.000000
161207325.000000,67167723.000000
161283453.000000,67129123.000000
161359379.000000,67087507.000000
161448382.000000,67038989.000000
161521186.000000,67002647.000000
161569453.000000,66982426.000000
161584944.000000,66980814.000000
161581077.000000,67007591.000000
161566870.000000,67071910.000000
161544044.000000,67166648.000000
161514322.000000,67284680.000000
161479426.000000,67418884.000000
161475082.000000,67435322.000000
161439353.000000,67571414.000000
161408105.000000,67692559.000000
161383161.000000,67791517.000000
161366342.000000,67861050.000000
161359469.000000,67893918.000000
161359399.000000,67894976.000000
161373445.000000,67901348.000000
161394657.000000,67888323.000000
161431455.000000,67865158.000000
161442487.000000,67876335.000000
161428678.000000,67918408.000000
161390951.000000,67987926.000000
161351226.000000,68050441.000000
161301063.000000,68124263.000000
161260803.000000,68180502.000000
161236949.000000,68210189.000000
161233623.000000,68212649.000000
161224396.000000,68191978.000000
161210420.000000,68138377.000000
161197967.000000,68079634.000000
161175609.000000,67964517.000000
161161403.000000,67888091.000000
161154755.000000,67843617.000000
161155069.000000,67824356.000000
161161752.000000,67823568.000000
161174208.000000,67834513.000000
161176524.000000,67836738.000000
161209800.000000,67861520.000000
161221929.000000,67865654.000000
161230911.000000,67844354.000000
161243226.000000,67787296.000000
161257472.000000,67704749.000000
161272247.000000,67606977.000000
161286149.000000,67504247.000000
161297775.000000,67406825.000000
161305724.000000,67324977.000000
161308593.000000,67268971.000000
161306093.000000,67249446.000000
161281428.000000,67254201.000000
161226703.000000,67278388.000000
161151472.000000,67317538.000000
161107175.000000,67342468.000000
161002719.000000,67400896.000000
160932620.000000,67435073.000000
160892640.000000,67446262.000000
160878542.000000,67435723.000000
160884450.000000,67408778.000000
160897537.000000,67368767.000000
160918764.000000,67297112.000000
160944307.000000,67206859.000000
160954002.000000,67171665.000000
160983190.000000,67065297.000000
161019509.000000,66933508.000000
161057677.000000,66795449.000000
161083249.000000,66703222.000000
161158738.000000,66431410.000000
161452552.000000,66431410.000000
Z" /> 
</g>
<g style="fill:#000000; fill-opacity:1.0; 
stroke:#000000; stroke-width:120000.000000; stroke-opacity:1; 
stroke-linecap:round; stroke-linejoin:round;">
</g>
<g style="fill:#000000; fill-opacity:0.0; 
stroke:#000000; stroke-width:120000.000000; stroke-opacity:1; 
stroke-linecap:round; stroke-linejoin:round;">
<path d="M166160000 65592936
L166160000 67047064
" />
<path d="M164340000 65592936
L164340000 67047064
" />
<path d="M138738748 59735000
L139261252 59735000
" />
<path d="M138738748 58265000
L139261252 58265000
" />
<path d="M157235000 70384936
L157235000 70839064
" />
<path d="M155765000 70384936
L155765000 70839064
" />
<path d="M139738748 65735000
L140261252 65735000
" />
<path d="M139738748 64265000
L140261252 64265000
" />
<path d="M150238748 64265000
L150761252 64265000
" />
<path d="M150238748 65735000
L150761252 65735000
" />
<path d="M146738748 65735000
L147261252 65735000
" />
<path d="M146738748 64265000
L147261252 64265000
" />
<path d="M132400000 58000000
L132400000 62000000
" />
<path d="M136600000 58000000
L136600000 62000000
" />
<path d="M140736936 67083000
L141191064 67083000
" />
<path d="M140736936 68553000
L141191064 68553000
" />
<path d="M157326748 64265000
L157849252 64265000
" />
<path d="M157326748 65735000
L157849252 65735000
" />
<path d="M141615000 73406000
L141615000 76856000
" />
<path d="M141615000 73406000
L141615000 71456000
" />
<path d="M150485000 73406000
L150485000 71456000
" />
<path d="M150485000 73406000
L150485000 75356000
" />
<path d="M128735000 60227064
L128735000 59772936
" />
<path d="M127265000 60227064
L127265000 59772936
" />
<path d="M146691064 68553000
L146236936 68553000
" />
<path d="M146691064 67083000
L146236936 67083000
" />
<path d="M153022936 75211000
L153477064 75211000
" />
<path d="M153022936 76681000
L153477064 76681000
" />
<path d="M153022936 72544000
L153477064 72544000
" />
<path d="M153022936 74014000
L153477064 74014000
" />
<path d="M156326748 58265000
L156849252 58265000
" />
<path d="M156326748 59735000
L156849252 59735000
" />
<path d="M143326748 65735000
L143849252 65735000
" />
<path d="M143326748 64265000
L143849252 64265000
" />
<path d="M127726000 62630000
L133736000 62630000
" />
<path d="M129976000 69450000
L133736000 69450000
" />
<path d="M133736000 69450000
L133736000 68190000
" />
<path d="M133736000 62630000
L133736000 63890000
" />
<path d="M162560000 62000000
L162560000 61350000
" />
<path d="M159440000 62000000
L159440000 61350000
" />
<path d="M159440000 62000000
L159440000 63675000
" />
<path d="M162560000 62000000
L162560000 62650000
" />
<path d="M159738748 58265000
L160261252 58265000
" />
<path d="M159738748 59735000
L160261252 59735000
" />
<path d="M142238748 58265000
L142761252 58265000
" />
<path d="M142238748 59735000
L142761252 59735000
" />
<path d="M132231500 71273936
L132231500 71728064
" />
<path d="M130761500 71273936
L130761500 71728064
" />
<path d="M145440000 62000000
L145440000 63675000
" />
<path d="M148560000 62000000
L148560000 62650000
" />
<path d="M148560000 62000000
L148560000 61350000
" />
<path d="M145440000 62000000
L145440000 61350000
" />
<g >
</g>
<g >
</g>
<g >
</g>
<g >
</g>
<g >
</g>
<g >
</g>
<g >
</g>
<g >
</g>
<g >
</g>
<g >
</g>
<g >
</g>
<g >
</g>
<g >
</g>
<g >
</g>
<g >
</g>
<g >
</g>
<g >
</g>
<g >
</g>
<g >
</g>
<g >
</g>
<g >
</g>
<g >
</g>
<g >
</g>
<g >
</g>
<g >
</g>
<g >
</g>
<g >
</g>
<g >
</g>
<g >
</g>
<g >
</g>
<g >
</g>
<g >
</g>
<g >
</g>
<g >
</g>
<g >
</g>
<g >
</g>
<g >
</g>
<g >
</g>
<g >
</g>
<g >
</g>
<g >
</g>
<g >
</g>
<g >
</g>
<g >
</g>
<g >
</g>
<g >
</g>
<g >
</g>
<g >
</g>
<g >
</g>
<g >
</g>
<g >
</g>
<g >
</g>
<g >
</g>
<g >
</g>
<g >
</g>
<g >
</g>
<g >
</g>
<g >
</g>
<g >
</g>
<g >
</g>
<g >
</g>
<g >
</g>
<g >
</g>
<g >
</g>
<g >
</g>
<g >
</g>
<g >
</g>
<g >
</g>
<g >
</g>
<g >
</g>
<g >
</g>
<g >
</g>
<g >
</g>
<g >
</g>
<g >
</g>
<g >
</g>
<g >
</g>
<g >
</g>
<g >
</g>
<g >
</g>
<g >
</g>
<g >
</g>
<g >
</g>
<g >
</g>
</g> 
</svg>
