<?xml version="1.0" standalone="no"?>
 <!DOCTYPE svg PUBLIC "-//W3C//DTD SVG 1.1//EN" 
 "http://www.w3.org/Graphics/SVG/1.1/DTD/svg11.dtd"> 
<svg
  xmlns:svg="http://www.w3.org/2000/svg"
  xmlns="http://www.w3.org/2000/svg"
  xmlns:xlink="http://www.w3.org/1999/xlink"
  version="1.1"
  width="29.700220cm" height="21.000720cm" viewBox="0 0 297002200 210007200">
<title>SVG Picture created as OpenHVPS-5-B_Paste.svg date 2021/02/04 20:18:53 </title>
  <desc>Picture generated by PCBNEW </desc>
<g style="fill:#000000; fill-opacity:1.000000;stroke:#000000; stroke-opacity:1.000000;
stroke-linecap:round; stroke-linejoin:round;"
 transform="translate(0 0) scale(1 1)">
</g>
<g style="fill:#000000; fill-opacity:0.0; 
stroke:#000000; stroke-width:0.000000; stroke-opacity:1; 
stroke-linecap:round; stroke-linejoin:round;">
<g >
</g>
<g >
</g>
<g >
</g>
<g >
</g>
<g >
</g>
<g >
</g>
<g >
</g>
<g >
</g>
<g >
</g>
<g >
</g>
<g >
</g>
<g >
</g>
<g >
</g>
<g >
</g>
<g >
</g>
<g >
</g>
<g >
</g>
<g >
</g>
<g >
</g>
<g >
</g>
<g >
</g>
<g >
</g>
<g >
</g>
<g >
</g>
<g >
</g>
<g >
</g>
<g >
</g>
<g >
</g>
<g >
</g>
<g >
</g>
<g >
</g>
<g >
</g>
<g >
</g>
<g >
</g>
<g >
</g>
<g >
</g>
<g >
</g>
<g >
</g>
<g >
</g>
<g >
</g>
<g >
</g>
<g >
</g>
<g >
</g>
<g >
</g>
<g >
</g>
<g >
</g>
<g >
</g>
<g >
</g>
<g style="fill:#000000; fill-opacity:0.0; 
stroke:#000000; stroke-width:0.000000; stroke-opacity:1; 
stroke-linecap:round; stroke-linejoin:round;">
</g>
<g style="fill:#000000; fill-opacity:0.0; 
stroke:#000000; stroke-width:1.000000; stroke-opacity:1; 
stroke-linecap:round; stroke-linejoin:round;">
</g>
<g style="fill:#000000; fill-opacity:1.0; 
stroke:#000000; stroke-width:1.000000; stroke-opacity:1; 
stroke-linecap:round; stroke-linejoin:round;">
<path style="fill:#000000; fill-opacity:1.0; 
stroke:#000000; stroke-width:1.000000; stroke-opacity:1; 
stroke-linecap:round; stroke-linejoin:round;fill-rule:evenodd;"
d="M 140561000.000000,75380000.000000
140580030.000000,75475671.000000
140634223.000000,75556777.000000
140715329.000000,75610970.000000
140811000.000000,75630000.000000
141336000.000000,75630000.000000
141431671.000000,75610970.000000
141512777.000000,75556777.000000
141566970.000000,75475671.000000
141586000.000000,75380000.000000
141586000.000000,74480000.000000
141566970.000000,74384329.000000
141512777.000000,74303223.000000
141431671.000000,74249030.000000
141336000.000000,74230000.000000
140811000.000000,74230000.000000
140715329.000000,74249030.000000
140634223.000000,74303223.000000
140580030.000000,74384329.000000
140561000.000000,74480000.000000
Z" /> 
<path style="fill:#000000; fill-opacity:1.0; 
stroke:#000000; stroke-width:1.000000; stroke-opacity:1; 
stroke-linecap:round; stroke-linejoin:round;fill-rule:evenodd;"
d="M 142386000.000000,75380000.000000
142405030.000000,75475671.000000
142459223.000000,75556777.000000
142540329.000000,75610970.000000
142636000.000000,75630000.000000
143161000.000000,75630000.000000
143256671.000000,75610970.000000
143337777.000000,75556777.000000
143391970.000000,75475671.000000
143411000.000000,75380000.000000
143411000.000000,74480000.000000
143391970.000000,74384329.000000
143337777.000000,74303223.000000
143256671.000000,74249030.000000
143161000.000000,74230000.000000
142636000.000000,74230000.000000
142540329.000000,74249030.000000
142459223.000000,74303223.000000
142405030.000000,74384329.000000
142386000.000000,74480000.000000
Z" /> 
</g>
<g >
</g>
<g style="fill:#000000; fill-opacity:1.0; 
stroke:#000000; stroke-width:1.000000; stroke-opacity:1; 
stroke-linecap:round; stroke-linejoin:round;">
<path style="fill:#000000; fill-opacity:1.0; 
stroke:#000000; stroke-width:1.000000; stroke-opacity:1; 
stroke-linecap:round; stroke-linejoin:round;fill-rule:evenodd;"
d="M 136396000.000000,72846500.000000
136491671.000000,72827470.000000
136572777.000000,72773277.000000
136626970.000000,72692171.000000
136646000.000000,72596500.000000
136646000.000000,72071500.000000
136626970.000000,71975829.000000
136572777.000000,71894723.000000
136491671.000000,71840530.000000
136396000.000000,71821500.000000
135496000.000000,71821500.000000
135400329.000000,71840530.000000
135319223.000000,71894723.000000
135265030.000000,71975829.000000
135246000.000000,72071500.000000
135246000.000000,72596500.000000
135265030.000000,72692171.000000
135319223.000000,72773277.000000
135400329.000000,72827470.000000
135496000.000000,72846500.000000
Z" /> 
<path style="fill:#000000; fill-opacity:1.0; 
stroke:#000000; stroke-width:1.000000; stroke-opacity:1; 
stroke-linecap:round; stroke-linejoin:round;fill-rule:evenodd;"
d="M 136396000.000000,71021500.000000
136491671.000000,71002470.000000
136572777.000000,70948277.000000
136626970.000000,70867171.000000
136646000.000000,70771500.000000
136646000.000000,70246500.000000
136626970.000000,70150829.000000
136572777.000000,70069723.000000
136491671.000000,70015530.000000
136396000.000000,69996500.000000
135496000.000000,69996500.000000
135400329.000000,70015530.000000
135319223.000000,70069723.000000
135265030.000000,70150829.000000
135246000.000000,70246500.000000
135246000.000000,70771500.000000
135265030.000000,70867171.000000
135319223.000000,70948277.000000
135400329.000000,71002470.000000
135496000.000000,71021500.000000
Z" /> 
</g>
<g >
</g>
<g style="fill:#000000; fill-opacity:1.0; 
stroke:#000000; stroke-width:1.000000; stroke-opacity:1; 
stroke-linecap:round; stroke-linejoin:round;">
<path style="fill:#000000; fill-opacity:1.0; 
stroke:#000000; stroke-width:1.000000; stroke-opacity:1; 
stroke-linecap:round; stroke-linejoin:round;fill-rule:evenodd;"
d="M 145774999.000000,65900001.000000
145774999.000000,66299999.000000
145125001.000000,66299999.000000
145125001.000000,65900001.000000
Z" /> 
<path style="fill:#000000; fill-opacity:1.0; 
stroke:#000000; stroke-width:1.000000; stroke-opacity:1; 
stroke-linecap:round; stroke-linejoin:round;fill-rule:evenodd;"
d="M 145774999.000000,66550001.000000
145774999.000000,66949999.000000
145125001.000000,66949999.000000
145125001.000000,66550001.000000
Z" /> 
<path style="fill:#000000; fill-opacity:1.0; 
stroke:#000000; stroke-width:1.000000; stroke-opacity:1; 
stroke-linecap:round; stroke-linejoin:round;fill-rule:evenodd;"
d="M 145774999.000000,67200001.000000
145774999.000000,67599999.000000
145125001.000000,67599999.000000
145125001.000000,67200001.000000
Z" /> 
<path style="fill:#000000; fill-opacity:1.0; 
stroke:#000000; stroke-width:1.000000; stroke-opacity:1; 
stroke-linecap:round; stroke-linejoin:round;fill-rule:evenodd;"
d="M 143874999.000000,67200001.000000
143874999.000000,67599999.000000
143225001.000000,67599999.000000
143225001.000000,67200001.000000
Z" /> 
<path style="fill:#000000; fill-opacity:1.0; 
stroke:#000000; stroke-width:1.000000; stroke-opacity:1; 
stroke-linecap:round; stroke-linejoin:round;fill-rule:evenodd;"
d="M 143874999.000000,66550001.000000
143874999.000000,66949999.000000
143225001.000000,66949999.000000
143225001.000000,66550001.000000
Z" /> 
<path style="fill:#000000; fill-opacity:1.0; 
stroke:#000000; stroke-width:1.000000; stroke-opacity:1; 
stroke-linecap:round; stroke-linejoin:round;fill-rule:evenodd;"
d="M 143874999.000000,65900001.000000
143874999.000000,66299999.000000
143225001.000000,66299999.000000
143225001.000000,65900001.000000
Z" /> 
</g>
<g >
</g>
<g >
</g>
<g style="fill:#000000; fill-opacity:1.0; 
stroke:#000000; stroke-width:1.000000; stroke-opacity:1; 
stroke-linecap:round; stroke-linejoin:round;">
<path style="fill:#000000; fill-opacity:1.0; 
stroke:#000000; stroke-width:1.000000; stroke-opacity:1; 
stroke-linecap:round; stroke-linejoin:round;fill-rule:evenodd;"
d="M 139037000.000000,66187500.000000
139056030.000000,66283171.000000
139110223.000000,66364277.000000
139191329.000000,66418470.000000
139287000.000000,66437500.000000
139812000.000000,66437500.000000
139907671.000000,66418470.000000
139988777.000000,66364277.000000
140042970.000000,66283171.000000
140062000.000000,66187500.000000
140062000.000000,65287500.000000
140042970.000000,65191829.000000
139988777.000000,65110723.000000
139907671.000000,65056530.000000
139812000.000000,65037500.000000
139287000.000000,65037500.000000
139191329.000000,65056530.000000
139110223.000000,65110723.000000
139056030.000000,65191829.000000
139037000.000000,65287500.000000
Z" /> 
<path style="fill:#000000; fill-opacity:1.0; 
stroke:#000000; stroke-width:1.000000; stroke-opacity:1; 
stroke-linecap:round; stroke-linejoin:round;fill-rule:evenodd;"
d="M 140862000.000000,66187500.000000
140881030.000000,66283171.000000
140935223.000000,66364277.000000
141016329.000000,66418470.000000
141112000.000000,66437500.000000
141637000.000000,66437500.000000
141732671.000000,66418470.000000
141813777.000000,66364277.000000
141867970.000000,66283171.000000
141887000.000000,66187500.000000
141887000.000000,65287500.000000
141867970.000000,65191829.000000
141813777.000000,65110723.000000
141732671.000000,65056530.000000
141637000.000000,65037500.000000
141112000.000000,65037500.000000
141016329.000000,65056530.000000
140935223.000000,65110723.000000
140881030.000000,65191829.000000
140862000.000000,65287500.000000
Z" /> 
</g>
<g >
</g>
<g style="fill:#000000; fill-opacity:1.0; 
stroke:#000000; stroke-width:1.000000; stroke-opacity:1; 
stroke-linecap:round; stroke-linejoin:round;">
<path style="fill:#000000; fill-opacity:1.0; 
stroke:#000000; stroke-width:1.000000; stroke-opacity:1; 
stroke-linecap:round; stroke-linejoin:round;fill-rule:evenodd;"
d="M 133095000.000000,69991500.000000
132999329.000000,70010530.000000
132918223.000000,70064723.000000
132864030.000000,70145829.000000
132845000.000000,70241500.000000
132845000.000000,70741500.000000
132864030.000000,70837171.000000
132918223.000000,70918277.000000
132999329.000000,70972470.000000
133095000.000000,70991500.000000
134045000.000000,70991500.000000
134140671.000000,70972470.000000
134221777.000000,70918277.000000
134275970.000000,70837171.000000
134295000.000000,70741500.000000
134295000.000000,70241500.000000
134275970.000000,70145829.000000
134221777.000000,70064723.000000
134140671.000000,70010530.000000
134045000.000000,69991500.000000
Z" /> 
<path style="fill:#000000; fill-opacity:1.0; 
stroke:#000000; stroke-width:1.000000; stroke-opacity:1; 
stroke-linecap:round; stroke-linejoin:round;fill-rule:evenodd;"
d="M 133095000.000000,71891500.000000
132999329.000000,71910530.000000
132918223.000000,71964723.000000
132864030.000000,72045829.000000
132845000.000000,72141500.000000
132845000.000000,72641500.000000
132864030.000000,72737171.000000
132918223.000000,72818277.000000
132999329.000000,72872470.000000
133095000.000000,72891500.000000
134045000.000000,72891500.000000
134140671.000000,72872470.000000
134221777.000000,72818277.000000
134275970.000000,72737171.000000
134295000.000000,72641500.000000
134295000.000000,72141500.000000
134275970.000000,72045829.000000
134221777.000000,71964723.000000
134140671.000000,71910530.000000
134045000.000000,71891500.000000
Z" /> 
</g>
<g >
</g>
<g >
</g>
<g >
</g>
<g style="fill:#000000; fill-opacity:1.0; 
stroke:#000000; stroke-width:1.000000; stroke-opacity:1; 
stroke-linecap:round; stroke-linejoin:round;">
<path style="fill:#000000; fill-opacity:1.0; 
stroke:#000000; stroke-width:1.000000; stroke-opacity:1; 
stroke-linecap:round; stroke-linejoin:round;fill-rule:evenodd;"
d="M 146050000.000000,62475000.000000
146069030.000000,62570671.000000
146123223.000000,62651777.000000
146204329.000000,62705970.000000
146300000.000000,62725000.000000
146800000.000000,62725000.000000
146895671.000000,62705970.000000
146976777.000000,62651777.000000
147030970.000000,62570671.000000
147050000.000000,62475000.000000
147050000.000000,61525000.000000
147030970.000000,61429329.000000
146976777.000000,61348223.000000
146895671.000000,61294030.000000
146800000.000000,61275000.000000
146300000.000000,61275000.000000
146204329.000000,61294030.000000
146123223.000000,61348223.000000
146069030.000000,61429329.000000
146050000.000000,61525000.000000
Z" /> 
<path style="fill:#000000; fill-opacity:1.0; 
stroke:#000000; stroke-width:1.000000; stroke-opacity:1; 
stroke-linecap:round; stroke-linejoin:round;fill-rule:evenodd;"
d="M 147950000.000000,62475000.000000
147969030.000000,62570671.000000
148023223.000000,62651777.000000
148104329.000000,62705970.000000
148200000.000000,62725000.000000
148700000.000000,62725000.000000
148795671.000000,62705970.000000
148876777.000000,62651777.000000
148930970.000000,62570671.000000
148950000.000000,62475000.000000
148950000.000000,61525000.000000
148930970.000000,61429329.000000
148876777.000000,61348223.000000
148795671.000000,61294030.000000
148700000.000000,61275000.000000
148200000.000000,61275000.000000
148104329.000000,61294030.000000
148023223.000000,61348223.000000
147969030.000000,61429329.000000
147950000.000000,61525000.000000
Z" /> 
</g>
<g >
</g>
<g style="fill:#000000; fill-opacity:1.0; 
stroke:#000000; stroke-width:1.000000; stroke-opacity:1; 
stroke-linecap:round; stroke-linejoin:round;">
<path style="fill:#000000; fill-opacity:1.0; 
stroke:#000000; stroke-width:1.000000; stroke-opacity:1; 
stroke-linecap:round; stroke-linejoin:round;fill-rule:evenodd;"
d="M 131450000.000000,61425000.000000
131545671.000000,61405970.000000
131626777.000000,61351777.000000
131680970.000000,61270671.000000
131700000.000000,61175000.000000
131700000.000000,60650000.000000
131680970.000000,60554329.000000
131626777.000000,60473223.000000
131545671.000000,60419030.000000
131450000.000000,60400000.000000
130550000.000000,60400000.000000
130454329.000000,60419030.000000
130373223.000000,60473223.000000
130319030.000000,60554329.000000
130300000.000000,60650000.000000
130300000.000000,61175000.000000
130319030.000000,61270671.000000
130373223.000000,61351777.000000
130454329.000000,61405970.000000
130550000.000000,61425000.000000
Z" /> 
<path style="fill:#000000; fill-opacity:1.0; 
stroke:#000000; stroke-width:1.000000; stroke-opacity:1; 
stroke-linecap:round; stroke-linejoin:round;fill-rule:evenodd;"
d="M 131450000.000000,59600000.000000
131545671.000000,59580970.000000
131626777.000000,59526777.000000
131680970.000000,59445671.000000
131700000.000000,59350000.000000
131700000.000000,58825000.000000
131680970.000000,58729329.000000
131626777.000000,58648223.000000
131545671.000000,58594030.000000
131450000.000000,58575000.000000
130550000.000000,58575000.000000
130454329.000000,58594030.000000
130373223.000000,58648223.000000
130319030.000000,58729329.000000
130300000.000000,58825000.000000
130300000.000000,59350000.000000
130319030.000000,59445671.000000
130373223.000000,59526777.000000
130454329.000000,59580970.000000
130550000.000000,59600000.000000
Z" /> 
</g>
<g >
</g>
<g style="fill:#000000; fill-opacity:1.0; 
stroke:#000000; stroke-width:1.000000; stroke-opacity:1; 
stroke-linecap:round; stroke-linejoin:round;">
<path style="fill:#000000; fill-opacity:1.0; 
stroke:#000000; stroke-width:1.000000; stroke-opacity:1; 
stroke-linecap:round; stroke-linejoin:round;fill-rule:evenodd;"
d="M 145215000.000000,76276500.000000
145310671.000000,76257470.000000
145391777.000000,76203277.000000
145445970.000000,76122171.000000
145465000.000000,76026500.000000
145465000.000000,75501500.000000
145445970.000000,75405829.000000
145391777.000000,75324723.000000
145310671.000000,75270530.000000
145215000.000000,75251500.000000
144315000.000000,75251500.000000
144219329.000000,75270530.000000
144138223.000000,75324723.000000
144084030.000000,75405829.000000
144065000.000000,75501500.000000
144065000.000000,76026500.000000
144084030.000000,76122171.000000
144138223.000000,76203277.000000
144219329.000000,76257470.000000
144315000.000000,76276500.000000
Z" /> 
<path style="fill:#000000; fill-opacity:1.0; 
stroke:#000000; stroke-width:1.000000; stroke-opacity:1; 
stroke-linecap:round; stroke-linejoin:round;fill-rule:evenodd;"
d="M 145215000.000000,74451500.000000
145310671.000000,74432470.000000
145391777.000000,74378277.000000
145445970.000000,74297171.000000
145465000.000000,74201500.000000
145465000.000000,73676500.000000
145445970.000000,73580829.000000
145391777.000000,73499723.000000
145310671.000000,73445530.000000
145215000.000000,73426500.000000
144315000.000000,73426500.000000
144219329.000000,73445530.000000
144138223.000000,73499723.000000
144084030.000000,73580829.000000
144065000.000000,73676500.000000
144065000.000000,74201500.000000
144084030.000000,74297171.000000
144138223.000000,74378277.000000
144219329.000000,74432470.000000
144315000.000000,74451500.000000
Z" /> 
</g>
<g >
</g>
<g style="fill:#000000; fill-opacity:1.0; 
stroke:#000000; stroke-width:1.000000; stroke-opacity:1; 
stroke-linecap:round; stroke-linejoin:round;">
<path style="fill:#000000; fill-opacity:1.0; 
stroke:#000000; stroke-width:1.000000; stroke-opacity:1; 
stroke-linecap:round; stroke-linejoin:round;fill-rule:evenodd;"
d="M 155450000.000000,75776000.000000
155461418.000000,75833403.000000
155493934.000000,75882066.000000
155542597.000000,75914582.000000
155600000.000000,75926000.000000
156625000.000000,75926000.000000
156682403.000000,75914582.000000
156731066.000000,75882066.000000
156763582.000000,75833403.000000
156775000.000000,75776000.000000
156775000.000000,75476000.000000
156763582.000000,75418597.000000
156731066.000000,75369934.000000
156682403.000000,75337418.000000
156625000.000000,75326000.000000
155600000.000000,75326000.000000
155542597.000000,75337418.000000
155493934.000000,75369934.000000
155461418.000000,75418597.000000
155450000.000000,75476000.000000
Z" /> 
<path style="fill:#000000; fill-opacity:1.0; 
stroke:#000000; stroke-width:1.000000; stroke-opacity:1; 
stroke-linecap:round; stroke-linejoin:round;fill-rule:evenodd;"
d="M 155450000.000000,74826000.000000
155461418.000000,74883403.000000
155493934.000000,74932066.000000
155542597.000000,74964582.000000
155600000.000000,74976000.000000
156625000.000000,74976000.000000
156682403.000000,74964582.000000
156731066.000000,74932066.000000
156763582.000000,74883403.000000
156775000.000000,74826000.000000
156775000.000000,74526000.000000
156763582.000000,74468597.000000
156731066.000000,74419934.000000
156682403.000000,74387418.000000
156625000.000000,74376000.000000
155600000.000000,74376000.000000
155542597.000000,74387418.000000
155493934.000000,74419934.000000
155461418.000000,74468597.000000
155450000.000000,74526000.000000
Z" /> 
<path style="fill:#000000; fill-opacity:1.0; 
stroke:#000000; stroke-width:1.000000; stroke-opacity:1; 
stroke-linecap:round; stroke-linejoin:round;fill-rule:evenodd;"
d="M 155450000.000000,73876000.000000
155461418.000000,73933403.000000
155493934.000000,73982066.000000
155542597.000000,74014582.000000
155600000.000000,74026000.000000
156625000.000000,74026000.000000
156682403.000000,74014582.000000
156731066.000000,73982066.000000
156763582.000000,73933403.000000
156775000.000000,73876000.000000
156775000.000000,73576000.000000
156763582.000000,73518597.000000
156731066.000000,73469934.000000
156682403.000000,73437418.000000
156625000.000000,73426000.000000
155600000.000000,73426000.000000
155542597.000000,73437418.000000
155493934.000000,73469934.000000
155461418.000000,73518597.000000
155450000.000000,73576000.000000
Z" /> 
<path style="fill:#000000; fill-opacity:1.0; 
stroke:#000000; stroke-width:1.000000; stroke-opacity:1; 
stroke-linecap:round; stroke-linejoin:round;fill-rule:evenodd;"
d="M 157725000.000000,73876000.000000
157736418.000000,73933403.000000
157768934.000000,73982066.000000
157817597.000000,74014582.000000
157875000.000000,74026000.000000
158900000.000000,74026000.000000
158957403.000000,74014582.000000
159006066.000000,73982066.000000
159038582.000000,73933403.000000
159050000.000000,73876000.000000
159050000.000000,73576000.000000
159038582.000000,73518597.000000
159006066.000000,73469934.000000
158957403.000000,73437418.000000
158900000.000000,73426000.000000
157875000.000000,73426000.000000
157817597.000000,73437418.000000
157768934.000000,73469934.000000
157736418.000000,73518597.000000
157725000.000000,73576000.000000
Z" /> 
<path style="fill:#000000; fill-opacity:1.0; 
stroke:#000000; stroke-width:1.000000; stroke-opacity:1; 
stroke-linecap:round; stroke-linejoin:round;fill-rule:evenodd;"
d="M 157725000.000000,75776000.000000
157736418.000000,75833403.000000
157768934.000000,75882066.000000
157817597.000000,75914582.000000
157875000.000000,75926000.000000
158900000.000000,75926000.000000
158957403.000000,75914582.000000
159006066.000000,75882066.000000
159038582.000000,75833403.000000
159050000.000000,75776000.000000
159050000.000000,75476000.000000
159038582.000000,75418597.000000
159006066.000000,75369934.000000
158957403.000000,75337418.000000
158900000.000000,75326000.000000
157875000.000000,75326000.000000
157817597.000000,75337418.000000
157768934.000000,75369934.000000
157736418.000000,75418597.000000
157725000.000000,75476000.000000
Z" /> 
</g>
<g >
</g>
<g style="fill:#000000; fill-opacity:1.0; 
stroke:#000000; stroke-width:1.000000; stroke-opacity:1; 
stroke-linecap:round; stroke-linejoin:round;">
<path style="fill:#000000; fill-opacity:1.0; 
stroke:#000000; stroke-width:1.000000; stroke-opacity:1; 
stroke-linecap:round; stroke-linejoin:round;fill-rule:evenodd;"
d="M 147225000.000000,76301500.000000
147320671.000000,76282470.000000
147401777.000000,76228277.000000
147455970.000000,76147171.000000
147475000.000000,76051500.000000
147475000.000000,75551500.000000
147455970.000000,75455829.000000
147401777.000000,75374723.000000
147320671.000000,75320530.000000
147225000.000000,75301500.000000
146275000.000000,75301500.000000
146179329.000000,75320530.000000
146098223.000000,75374723.000000
146044030.000000,75455829.000000
146025000.000000,75551500.000000
146025000.000000,76051500.000000
146044030.000000,76147171.000000
146098223.000000,76228277.000000
146179329.000000,76282470.000000
146275000.000000,76301500.000000
Z" /> 
<path style="fill:#000000; fill-opacity:1.0; 
stroke:#000000; stroke-width:1.000000; stroke-opacity:1; 
stroke-linecap:round; stroke-linejoin:round;fill-rule:evenodd;"
d="M 147225000.000000,74401500.000000
147320671.000000,74382470.000000
147401777.000000,74328277.000000
147455970.000000,74247171.000000
147475000.000000,74151500.000000
147475000.000000,73651500.000000
147455970.000000,73555829.000000
147401777.000000,73474723.000000
147320671.000000,73420530.000000
147225000.000000,73401500.000000
146275000.000000,73401500.000000
146179329.000000,73420530.000000
146098223.000000,73474723.000000
146044030.000000,73555829.000000
146025000.000000,73651500.000000
146025000.000000,74151500.000000
146044030.000000,74247171.000000
146098223.000000,74328277.000000
146179329.000000,74382470.000000
146275000.000000,74401500.000000
Z" /> 
</g>
<g >
</g>
<g >
</g>
<g >
</g>
<g style="fill:#000000; fill-opacity:1.0; 
stroke:#000000; stroke-width:1.000000; stroke-opacity:1; 
stroke-linecap:round; stroke-linejoin:round;">
<path style="fill:#000000; fill-opacity:1.0; 
stroke:#000000; stroke-width:1.000000; stroke-opacity:1; 
stroke-linecap:round; stroke-linejoin:round;fill-rule:evenodd;"
d="M 148786000.000000,72545000.000000
148881671.000000,72525970.000000
148962777.000000,72471777.000000
149016970.000000,72390671.000000
149036000.000000,72295000.000000
149036000.000000,71770000.000000
149016970.000000,71674329.000000
148962777.000000,71593223.000000
148881671.000000,71539030.000000
148786000.000000,71520000.000000
147886000.000000,71520000.000000
147790329.000000,71539030.000000
147709223.000000,71593223.000000
147655030.000000,71674329.000000
147636000.000000,71770000.000000
147636000.000000,72295000.000000
147655030.000000,72390671.000000
147709223.000000,72471777.000000
147790329.000000,72525970.000000
147886000.000000,72545000.000000
Z" /> 
<path style="fill:#000000; fill-opacity:1.0; 
stroke:#000000; stroke-width:1.000000; stroke-opacity:1; 
stroke-linecap:round; stroke-linejoin:round;fill-rule:evenodd;"
d="M 148786000.000000,70720000.000000
148881671.000000,70700970.000000
148962777.000000,70646777.000000
149016970.000000,70565671.000000
149036000.000000,70470000.000000
149036000.000000,69945000.000000
149016970.000000,69849329.000000
148962777.000000,69768223.000000
148881671.000000,69714030.000000
148786000.000000,69695000.000000
147886000.000000,69695000.000000
147790329.000000,69714030.000000
147709223.000000,69768223.000000
147655030.000000,69849329.000000
147636000.000000,69945000.000000
147636000.000000,70470000.000000
147655030.000000,70565671.000000
147709223.000000,70646777.000000
147790329.000000,70700970.000000
147886000.000000,70720000.000000
Z" /> 
</g>
<g >
</g>
<g style="fill:#000000; fill-opacity:1.0; 
stroke:#000000; stroke-width:1.000000; stroke-opacity:1; 
stroke-linecap:round; stroke-linejoin:round;">
<path style="fill:#000000; fill-opacity:1.0; 
stroke:#000000; stroke-width:1.000000; stroke-opacity:1; 
stroke-linecap:round; stroke-linejoin:round;fill-rule:evenodd;"
d="M 142850000.000000,61325000.000000
142792597.000000,61336418.000000
142743934.000000,61368934.000000
142711418.000000,61417597.000000
142700000.000000,61475000.000000
142700000.000000,62650000.000000
142711418.000000,62707403.000000
142743934.000000,62756066.000000
142792597.000000,62788582.000000
142850000.000000,62800000.000000
143150000.000000,62800000.000000
143207403.000000,62788582.000000
143256066.000000,62756066.000000
143288582.000000,62707403.000000
143300000.000000,62650000.000000
143300000.000000,61475000.000000
143288582.000000,61417597.000000
143256066.000000,61368934.000000
143207403.000000,61336418.000000
143150000.000000,61325000.000000
Z" /> 
<path style="fill:#000000; fill-opacity:1.0; 
stroke:#000000; stroke-width:1.000000; stroke-opacity:1; 
stroke-linecap:round; stroke-linejoin:round;fill-rule:evenodd;"
d="M 144750000.000000,61325000.000000
144692597.000000,61336418.000000
144643934.000000,61368934.000000
144611418.000000,61417597.000000
144600000.000000,61475000.000000
144600000.000000,62650000.000000
144611418.000000,62707403.000000
144643934.000000,62756066.000000
144692597.000000,62788582.000000
144750000.000000,62800000.000000
145050000.000000,62800000.000000
145107403.000000,62788582.000000
145156066.000000,62756066.000000
145188582.000000,62707403.000000
145200000.000000,62650000.000000
145200000.000000,61475000.000000
145188582.000000,61417597.000000
145156066.000000,61368934.000000
145107403.000000,61336418.000000
145050000.000000,61325000.000000
Z" /> 
<path style="fill:#000000; fill-opacity:1.0; 
stroke:#000000; stroke-width:1.000000; stroke-opacity:1; 
stroke-linecap:round; stroke-linejoin:round;fill-rule:evenodd;"
d="M 143800000.000000,63200000.000000
143742597.000000,63211418.000000
143693934.000000,63243934.000000
143661418.000000,63292597.000000
143650000.000000,63350000.000000
143650000.000000,64525000.000000
143661418.000000,64582403.000000
143693934.000000,64631066.000000
143742597.000000,64663582.000000
143800000.000000,64675000.000000
144100000.000000,64675000.000000
144157403.000000,64663582.000000
144206066.000000,64631066.000000
144238582.000000,64582403.000000
144250000.000000,64525000.000000
144250000.000000,63350000.000000
144238582.000000,63292597.000000
144206066.000000,63243934.000000
144157403.000000,63211418.000000
144100000.000000,63200000.000000
Z" /> 
</g>
<g >
</g>
<g style="fill:#000000; fill-opacity:1.0; 
stroke:#000000; stroke-width:1.000000; stroke-opacity:1; 
stroke-linecap:round; stroke-linejoin:round;">
<path style="fill:#000000; fill-opacity:1.0; 
stroke:#000000; stroke-width:1.000000; stroke-opacity:1; 
stroke-linecap:round; stroke-linejoin:round;fill-rule:evenodd;"
d="M 141887000.000000,62953000.000000
141867970.000000,62857329.000000
141813777.000000,62776223.000000
141732671.000000,62722030.000000
141637000.000000,62703000.000000
141112000.000000,62703000.000000
141016329.000000,62722030.000000
140935223.000000,62776223.000000
140881030.000000,62857329.000000
140862000.000000,62953000.000000
140862000.000000,63853000.000000
140881030.000000,63948671.000000
140935223.000000,64029777.000000
141016329.000000,64083970.000000
141112000.000000,64103000.000000
141637000.000000,64103000.000000
141732671.000000,64083970.000000
141813777.000000,64029777.000000
141867970.000000,63948671.000000
141887000.000000,63853000.000000
Z" /> 
<path style="fill:#000000; fill-opacity:1.0; 
stroke:#000000; stroke-width:1.000000; stroke-opacity:1; 
stroke-linecap:round; stroke-linejoin:round;fill-rule:evenodd;"
d="M 140062000.000000,62953000.000000
140042970.000000,62857329.000000
139988777.000000,62776223.000000
139907671.000000,62722030.000000
139812000.000000,62703000.000000
139287000.000000,62703000.000000
139191329.000000,62722030.000000
139110223.000000,62776223.000000
139056030.000000,62857329.000000
139037000.000000,62953000.000000
139037000.000000,63853000.000000
139056030.000000,63948671.000000
139110223.000000,64029777.000000
139191329.000000,64083970.000000
139287000.000000,64103000.000000
139812000.000000,64103000.000000
139907671.000000,64083970.000000
139988777.000000,64029777.000000
140042970.000000,63948671.000000
140062000.000000,63853000.000000
Z" /> 
</g>
<g >
</g>
<g style="fill:#000000; fill-opacity:1.0; 
stroke:#000000; stroke-width:1.000000; stroke-opacity:1; 
stroke-linecap:round; stroke-linejoin:round;">
<path style="fill:#000000; fill-opacity:1.0; 
stroke:#000000; stroke-width:1.000000; stroke-opacity:1; 
stroke-linecap:round; stroke-linejoin:round;fill-rule:evenodd;"
d="M 149172000.000000,74643000.000000
149191030.000000,74738671.000000
149245223.000000,74819777.000000
149326329.000000,74873970.000000
149422000.000000,74893000.000000
149922000.000000,74893000.000000
150017671.000000,74873970.000000
150098777.000000,74819777.000000
150152970.000000,74738671.000000
150172000.000000,74643000.000000
150172000.000000,73693000.000000
150152970.000000,73597329.000000
150098777.000000,73516223.000000
150017671.000000,73462030.000000
149922000.000000,73443000.000000
149422000.000000,73443000.000000
149326329.000000,73462030.000000
149245223.000000,73516223.000000
149191030.000000,73597329.000000
149172000.000000,73693000.000000
Z" /> 
<path style="fill:#000000; fill-opacity:1.0; 
stroke:#000000; stroke-width:1.000000; stroke-opacity:1; 
stroke-linecap:round; stroke-linejoin:round;fill-rule:evenodd;"
d="M 151072000.000000,74643000.000000
151091030.000000,74738671.000000
151145223.000000,74819777.000000
151226329.000000,74873970.000000
151322000.000000,74893000.000000
151822000.000000,74893000.000000
151917671.000000,74873970.000000
151998777.000000,74819777.000000
152052970.000000,74738671.000000
152072000.000000,74643000.000000
152072000.000000,73693000.000000
152052970.000000,73597329.000000
151998777.000000,73516223.000000
151917671.000000,73462030.000000
151822000.000000,73443000.000000
151322000.000000,73443000.000000
151226329.000000,73462030.000000
151145223.000000,73516223.000000
151091030.000000,73597329.000000
151072000.000000,73693000.000000
Z" /> 
</g>
<g >
</g>
<g style="fill:#000000; fill-opacity:1.0; 
stroke:#000000; stroke-width:1.000000; stroke-opacity:1; 
stroke-linecap:round; stroke-linejoin:round;">
<path style="fill:#000000; fill-opacity:1.0; 
stroke:#000000; stroke-width:1.000000; stroke-opacity:1; 
stroke-linecap:round; stroke-linejoin:round;fill-rule:evenodd;"
d="M 148900000.000000,63600000.000000
148880970.000000,63504329.000000
148826777.000000,63423223.000000
148745671.000000,63369030.000000
148650000.000000,63350000.000000
148125000.000000,63350000.000000
148029329.000000,63369030.000000
147948223.000000,63423223.000000
147894030.000000,63504329.000000
147875000.000000,63600000.000000
147875000.000000,64500000.000000
147894030.000000,64595671.000000
147948223.000000,64676777.000000
148029329.000000,64730970.000000
148125000.000000,64750000.000000
148650000.000000,64750000.000000
148745671.000000,64730970.000000
148826777.000000,64676777.000000
148880970.000000,64595671.000000
148900000.000000,64500000.000000
Z" /> 
<path style="fill:#000000; fill-opacity:1.0; 
stroke:#000000; stroke-width:1.000000; stroke-opacity:1; 
stroke-linecap:round; stroke-linejoin:round;fill-rule:evenodd;"
d="M 147075000.000000,63600000.000000
147055970.000000,63504329.000000
147001777.000000,63423223.000000
146920671.000000,63369030.000000
146825000.000000,63350000.000000
146300000.000000,63350000.000000
146204329.000000,63369030.000000
146123223.000000,63423223.000000
146069030.000000,63504329.000000
146050000.000000,63600000.000000
146050000.000000,64500000.000000
146069030.000000,64595671.000000
146123223.000000,64676777.000000
146204329.000000,64730970.000000
146300000.000000,64750000.000000
146825000.000000,64750000.000000
146920671.000000,64730970.000000
147001777.000000,64676777.000000
147055970.000000,64595671.000000
147075000.000000,64500000.000000
Z" /> 
</g>
<g >
</g>
<g >
</g>
<g >
</g>
<g >
</g>
<g style="fill:#000000; fill-opacity:1.0; 
stroke:#000000; stroke-width:1.000000; stroke-opacity:1; 
stroke-linecap:round; stroke-linejoin:round;">
<path style="fill:#000000; fill-opacity:1.0; 
stroke:#000000; stroke-width:1.000000; stroke-opacity:1; 
stroke-linecap:round; stroke-linejoin:round;fill-rule:evenodd;"
d="M 137450000.000000,60861000.000000
137545671.000000,60841970.000000
137626777.000000,60787777.000000
137680970.000000,60706671.000000
137700000.000000,60611000.000000
137700000.000000,60086000.000000
137680970.000000,59990329.000000
137626777.000000,59909223.000000
137545671.000000,59855030.000000
137450000.000000,59836000.000000
136550000.000000,59836000.000000
136454329.000000,59855030.000000
136373223.000000,59909223.000000
136319030.000000,59990329.000000
136300000.000000,60086000.000000
136300000.000000,60611000.000000
136319030.000000,60706671.000000
136373223.000000,60787777.000000
136454329.000000,60841970.000000
136550000.000000,60861000.000000
Z" /> 
<path style="fill:#000000; fill-opacity:1.0; 
stroke:#000000; stroke-width:1.000000; stroke-opacity:1; 
stroke-linecap:round; stroke-linejoin:round;fill-rule:evenodd;"
d="M 137450000.000000,59036000.000000
137545671.000000,59016970.000000
137626777.000000,58962777.000000
137680970.000000,58881671.000000
137700000.000000,58786000.000000
137700000.000000,58261000.000000
137680970.000000,58165329.000000
137626777.000000,58084223.000000
137545671.000000,58030030.000000
137450000.000000,58011000.000000
136550000.000000,58011000.000000
136454329.000000,58030030.000000
136373223.000000,58084223.000000
136319030.000000,58165329.000000
136300000.000000,58261000.000000
136300000.000000,58786000.000000
136319030.000000,58881671.000000
136373223.000000,58962777.000000
136454329.000000,59016970.000000
136550000.000000,59036000.000000
Z" /> 
</g>
<g >
</g>
<g style="fill:#000000; fill-opacity:1.0; 
stroke:#000000; stroke-width:1.000000; stroke-opacity:1; 
stroke-linecap:round; stroke-linejoin:round;">
<path style="fill:#000000; fill-opacity:1.0; 
stroke:#000000; stroke-width:1.000000; stroke-opacity:1; 
stroke-linecap:round; stroke-linejoin:round;fill-rule:evenodd;"
d="M 138325000.000000,59200000.000000
138344030.000000,59295671.000000
138398223.000000,59376777.000000
138479329.000000,59430970.000000
138575000.000000,59450000.000000
139100000.000000,59450000.000000
139195671.000000,59430970.000000
139276777.000000,59376777.000000
139330970.000000,59295671.000000
139350000.000000,59200000.000000
139350000.000000,58300000.000000
139330970.000000,58204329.000000
139276777.000000,58123223.000000
139195671.000000,58069030.000000
139100000.000000,58050000.000000
138575000.000000,58050000.000000
138479329.000000,58069030.000000
138398223.000000,58123223.000000
138344030.000000,58204329.000000
138325000.000000,58300000.000000
Z" /> 
<path style="fill:#000000; fill-opacity:1.0; 
stroke:#000000; stroke-width:1.000000; stroke-opacity:1; 
stroke-linecap:round; stroke-linejoin:round;fill-rule:evenodd;"
d="M 140150000.000000,59200000.000000
140169030.000000,59295671.000000
140223223.000000,59376777.000000
140304329.000000,59430970.000000
140400000.000000,59450000.000000
140925000.000000,59450000.000000
141020671.000000,59430970.000000
141101777.000000,59376777.000000
141155970.000000,59295671.000000
141175000.000000,59200000.000000
141175000.000000,58300000.000000
141155970.000000,58204329.000000
141101777.000000,58123223.000000
141020671.000000,58069030.000000
140925000.000000,58050000.000000
140400000.000000,58050000.000000
140304329.000000,58069030.000000
140223223.000000,58123223.000000
140169030.000000,58204329.000000
140150000.000000,58300000.000000
Z" /> 
</g>
<g >
</g>
<g style="fill:#000000; fill-opacity:1.0; 
stroke:#000000; stroke-width:1.000000; stroke-opacity:1; 
stroke-linecap:round; stroke-linejoin:round;">
<path style="fill:#000000; fill-opacity:1.0; 
stroke:#000000; stroke-width:1.000000; stroke-opacity:1; 
stroke-linecap:round; stroke-linejoin:round;fill-rule:evenodd;"
d="M 128247000.000000,62082000.000000
128189597.000000,62093418.000000
128140934.000000,62125934.000000
128108418.000000,62174597.000000
128097000.000000,62232000.000000
128097000.000000,63882000.000000
128108418.000000,63939403.000000
128140934.000000,63988066.000000
128189597.000000,64020582.000000
128247000.000000,64032000.000000
128547000.000000,64032000.000000
128604403.000000,64020582.000000
128653066.000000,63988066.000000
128685582.000000,63939403.000000
128697000.000000,63882000.000000
128697000.000000,62232000.000000
128685582.000000,62174597.000000
128653066.000000,62125934.000000
128604403.000000,62093418.000000
128547000.000000,62082000.000000
Z" /> 
<path style="fill:#000000; fill-opacity:1.0; 
stroke:#000000; stroke-width:1.000000; stroke-opacity:1; 
stroke-linecap:round; stroke-linejoin:round;fill-rule:evenodd;"
d="M 129517000.000000,62082000.000000
129459597.000000,62093418.000000
129410934.000000,62125934.000000
129378418.000000,62174597.000000
129367000.000000,62232000.000000
129367000.000000,63882000.000000
129378418.000000,63939403.000000
129410934.000000,63988066.000000
129459597.000000,64020582.000000
129517000.000000,64032000.000000
129817000.000000,64032000.000000
129874403.000000,64020582.000000
129923066.000000,63988066.000000
129955582.000000,63939403.000000
129967000.000000,63882000.000000
129967000.000000,62232000.000000
129955582.000000,62174597.000000
129923066.000000,62125934.000000
129874403.000000,62093418.000000
129817000.000000,62082000.000000
Z" /> 
<path style="fill:#000000; fill-opacity:1.0; 
stroke:#000000; stroke-width:1.000000; stroke-opacity:1; 
stroke-linecap:round; stroke-linejoin:round;fill-rule:evenodd;"
d="M 130787000.000000,62082000.000000
130729597.000000,62093418.000000
130680934.000000,62125934.000000
130648418.000000,62174597.000000
130637000.000000,62232000.000000
130637000.000000,63882000.000000
130648418.000000,63939403.000000
130680934.000000,63988066.000000
130729597.000000,64020582.000000
130787000.000000,64032000.000000
131087000.000000,64032000.000000
131144403.000000,64020582.000000
131193066.000000,63988066.000000
131225582.000000,63939403.000000
131237000.000000,63882000.000000
131237000.000000,62232000.000000
131225582.000000,62174597.000000
131193066.000000,62125934.000000
131144403.000000,62093418.000000
131087000.000000,62082000.000000
Z" /> 
<path style="fill:#000000; fill-opacity:1.0; 
stroke:#000000; stroke-width:1.000000; stroke-opacity:1; 
stroke-linecap:round; stroke-linejoin:round;fill-rule:evenodd;"
d="M 132057000.000000,62082000.000000
131999597.000000,62093418.000000
131950934.000000,62125934.000000
131918418.000000,62174597.000000
131907000.000000,62232000.000000
131907000.000000,63882000.000000
131918418.000000,63939403.000000
131950934.000000,63988066.000000
131999597.000000,64020582.000000
132057000.000000,64032000.000000
132357000.000000,64032000.000000
132414403.000000,64020582.000000
132463066.000000,63988066.000000
132495582.000000,63939403.000000
132507000.000000,63882000.000000
132507000.000000,62232000.000000
132495582.000000,62174597.000000
132463066.000000,62125934.000000
132414403.000000,62093418.000000
132357000.000000,62082000.000000
Z" /> 
<path style="fill:#000000; fill-opacity:1.0; 
stroke:#000000; stroke-width:1.000000; stroke-opacity:1; 
stroke-linecap:round; stroke-linejoin:round;fill-rule:evenodd;"
d="M 133327000.000000,62082000.000000
133269597.000000,62093418.000000
133220934.000000,62125934.000000
133188418.000000,62174597.000000
133177000.000000,62232000.000000
133177000.000000,63882000.000000
133188418.000000,63939403.000000
133220934.000000,63988066.000000
133269597.000000,64020582.000000
133327000.000000,64032000.000000
133627000.000000,64032000.000000
133684403.000000,64020582.000000
133733066.000000,63988066.000000
133765582.000000,63939403.000000
133777000.000000,63882000.000000
133777000.000000,62232000.000000
133765582.000000,62174597.000000
133733066.000000,62125934.000000
133684403.000000,62093418.000000
133627000.000000,62082000.000000
Z" /> 
<path style="fill:#000000; fill-opacity:1.0; 
stroke:#000000; stroke-width:1.000000; stroke-opacity:1; 
stroke-linecap:round; stroke-linejoin:round;fill-rule:evenodd;"
d="M 134597000.000000,62082000.000000
134539597.000000,62093418.000000
134490934.000000,62125934.000000
134458418.000000,62174597.000000
134447000.000000,62232000.000000
134447000.000000,63882000.000000
134458418.000000,63939403.000000
134490934.000000,63988066.000000
134539597.000000,64020582.000000
134597000.000000,64032000.000000
134897000.000000,64032000.000000
134954403.000000,64020582.000000
135003066.000000,63988066.000000
135035582.000000,63939403.000000
135047000.000000,63882000.000000
135047000.000000,62232000.000000
135035582.000000,62174597.000000
135003066.000000,62125934.000000
134954403.000000,62093418.000000
134897000.000000,62082000.000000
Z" /> 
<path style="fill:#000000; fill-opacity:1.0; 
stroke:#000000; stroke-width:1.000000; stroke-opacity:1; 
stroke-linecap:round; stroke-linejoin:round;fill-rule:evenodd;"
d="M 135867000.000000,62082000.000000
135809597.000000,62093418.000000
135760934.000000,62125934.000000
135728418.000000,62174597.000000
135717000.000000,62232000.000000
135717000.000000,63882000.000000
135728418.000000,63939403.000000
135760934.000000,63988066.000000
135809597.000000,64020582.000000
135867000.000000,64032000.000000
136167000.000000,64032000.000000
136224403.000000,64020582.000000
136273066.000000,63988066.000000
136305582.000000,63939403.000000
136317000.000000,63882000.000000
136317000.000000,62232000.000000
136305582.000000,62174597.000000
136273066.000000,62125934.000000
136224403.000000,62093418.000000
136167000.000000,62082000.000000
Z" /> 
<path style="fill:#000000; fill-opacity:1.0; 
stroke:#000000; stroke-width:1.000000; stroke-opacity:1; 
stroke-linecap:round; stroke-linejoin:round;fill-rule:evenodd;"
d="M 137137000.000000,62082000.000000
137079597.000000,62093418.000000
137030934.000000,62125934.000000
136998418.000000,62174597.000000
136987000.000000,62232000.000000
136987000.000000,63882000.000000
136998418.000000,63939403.000000
137030934.000000,63988066.000000
137079597.000000,64020582.000000
137137000.000000,64032000.000000
137437000.000000,64032000.000000
137494403.000000,64020582.000000
137543066.000000,63988066.000000
137575582.000000,63939403.000000
137587000.000000,63882000.000000
137587000.000000,62232000.000000
137575582.000000,62174597.000000
137543066.000000,62125934.000000
137494403.000000,62093418.000000
137437000.000000,62082000.000000
Z" /> 
<path style="fill:#000000; fill-opacity:1.0; 
stroke:#000000; stroke-width:1.000000; stroke-opacity:1; 
stroke-linecap:round; stroke-linejoin:round;fill-rule:evenodd;"
d="M 137137000.000000,67032000.000000
137079597.000000,67043418.000000
137030934.000000,67075934.000000
136998418.000000,67124597.000000
136987000.000000,67182000.000000
136987000.000000,68832000.000000
136998418.000000,68889403.000000
137030934.000000,68938066.000000
137079597.000000,68970582.000000
137137000.000000,68982000.000000
137437000.000000,68982000.000000
137494403.000000,68970582.000000
137543066.000000,68938066.000000
137575582.000000,68889403.000000
137587000.000000,68832000.000000
137587000.000000,67182000.000000
137575582.000000,67124597.000000
137543066.000000,67075934.000000
137494403.000000,67043418.000000
137437000.000000,67032000.000000
Z" /> 
<path style="fill:#000000; fill-opacity:1.0; 
stroke:#000000; stroke-width:1.000000; stroke-opacity:1; 
stroke-linecap:round; stroke-linejoin:round;fill-rule:evenodd;"
d="M 135867000.000000,67032000.000000
135809597.000000,67043418.000000
135760934.000000,67075934.000000
135728418.000000,67124597.000000
135717000.000000,67182000.000000
135717000.000000,68832000.000000
135728418.000000,68889403.000000
135760934.000000,68938066.000000
135809597.000000,68970582.000000
135867000.000000,68982000.000000
136167000.000000,68982000.000000
136224403.000000,68970582.000000
136273066.000000,68938066.000000
136305582.000000,68889403.000000
136317000.000000,68832000.000000
136317000.000000,67182000.000000
136305582.000000,67124597.000000
136273066.000000,67075934.000000
136224403.000000,67043418.000000
136167000.000000,67032000.000000
Z" /> 
<path style="fill:#000000; fill-opacity:1.0; 
stroke:#000000; stroke-width:1.000000; stroke-opacity:1; 
stroke-linecap:round; stroke-linejoin:round;fill-rule:evenodd;"
d="M 134597000.000000,67032000.000000
134539597.000000,67043418.000000
134490934.000000,67075934.000000
134458418.000000,67124597.000000
134447000.000000,67182000.000000
134447000.000000,68832000.000000
134458418.000000,68889403.000000
134490934.000000,68938066.000000
134539597.000000,68970582.000000
134597000.000000,68982000.000000
134897000.000000,68982000.000000
134954403.000000,68970582.000000
135003066.000000,68938066.000000
135035582.000000,68889403.000000
135047000.000000,68832000.000000
135047000.000000,67182000.000000
135035582.000000,67124597.000000
135003066.000000,67075934.000000
134954403.000000,67043418.000000
134897000.000000,67032000.000000
Z" /> 
<path style="fill:#000000; fill-opacity:1.0; 
stroke:#000000; stroke-width:1.000000; stroke-opacity:1; 
stroke-linecap:round; stroke-linejoin:round;fill-rule:evenodd;"
d="M 133327000.000000,67032000.000000
133269597.000000,67043418.000000
133220934.000000,67075934.000000
133188418.000000,67124597.000000
133177000.000000,67182000.000000
133177000.000000,68832000.000000
133188418.000000,68889403.000000
133220934.000000,68938066.000000
133269597.000000,68970582.000000
133327000.000000,68982000.000000
133627000.000000,68982000.000000
133684403.000000,68970582.000000
133733066.000000,68938066.000000
133765582.000000,68889403.000000
133777000.000000,68832000.000000
133777000.000000,67182000.000000
133765582.000000,67124597.000000
133733066.000000,67075934.000000
133684403.000000,67043418.000000
133627000.000000,67032000.000000
Z" /> 
<path style="fill:#000000; fill-opacity:1.0; 
stroke:#000000; stroke-width:1.000000; stroke-opacity:1; 
stroke-linecap:round; stroke-linejoin:round;fill-rule:evenodd;"
d="M 132057000.000000,67032000.000000
131999597.000000,67043418.000000
131950934.000000,67075934.000000
131918418.000000,67124597.000000
131907000.000000,67182000.000000
131907000.000000,68832000.000000
131918418.000000,68889403.000000
131950934.000000,68938066.000000
131999597.000000,68970582.000000
132057000.000000,68982000.000000
132357000.000000,68982000.000000
132414403.000000,68970582.000000
132463066.000000,68938066.000000
132495582.000000,68889403.000000
132507000.000000,68832000.000000
132507000.000000,67182000.000000
132495582.000000,67124597.000000
132463066.000000,67075934.000000
132414403.000000,67043418.000000
132357000.000000,67032000.000000
Z" /> 
<path style="fill:#000000; fill-opacity:1.0; 
stroke:#000000; stroke-width:1.000000; stroke-opacity:1; 
stroke-linecap:round; stroke-linejoin:round;fill-rule:evenodd;"
d="M 130787000.000000,67032000.000000
130729597.000000,67043418.000000
130680934.000000,67075934.000000
130648418.000000,67124597.000000
130637000.000000,67182000.000000
130637000.000000,68832000.000000
130648418.000000,68889403.000000
130680934.000000,68938066.000000
130729597.000000,68970582.000000
130787000.000000,68982000.000000
131087000.000000,68982000.000000
131144403.000000,68970582.000000
131193066.000000,68938066.000000
131225582.000000,68889403.000000
131237000.000000,68832000.000000
131237000.000000,67182000.000000
131225582.000000,67124597.000000
131193066.000000,67075934.000000
131144403.000000,67043418.000000
131087000.000000,67032000.000000
Z" /> 
<path style="fill:#000000; fill-opacity:1.0; 
stroke:#000000; stroke-width:1.000000; stroke-opacity:1; 
stroke-linecap:round; stroke-linejoin:round;fill-rule:evenodd;"
d="M 129517000.000000,67032000.000000
129459597.000000,67043418.000000
129410934.000000,67075934.000000
129378418.000000,67124597.000000
129367000.000000,67182000.000000
129367000.000000,68832000.000000
129378418.000000,68889403.000000
129410934.000000,68938066.000000
129459597.000000,68970582.000000
129517000.000000,68982000.000000
129817000.000000,68982000.000000
129874403.000000,68970582.000000
129923066.000000,68938066.000000
129955582.000000,68889403.000000
129967000.000000,68832000.000000
129967000.000000,67182000.000000
129955582.000000,67124597.000000
129923066.000000,67075934.000000
129874403.000000,67043418.000000
129817000.000000,67032000.000000
Z" /> 
<path style="fill:#000000; fill-opacity:1.0; 
stroke:#000000; stroke-width:1.000000; stroke-opacity:1; 
stroke-linecap:round; stroke-linejoin:round;fill-rule:evenodd;"
d="M 128247000.000000,67032000.000000
128189597.000000,67043418.000000
128140934.000000,67075934.000000
128108418.000000,67124597.000000
128097000.000000,67182000.000000
128097000.000000,68832000.000000
128108418.000000,68889403.000000
128140934.000000,68938066.000000
128189597.000000,68970582.000000
128247000.000000,68982000.000000
128547000.000000,68982000.000000
128604403.000000,68970582.000000
128653066.000000,68938066.000000
128685582.000000,68889403.000000
128697000.000000,68832000.000000
128697000.000000,67182000.000000
128685582.000000,67124597.000000
128653066.000000,67075934.000000
128604403.000000,67043418.000000
128547000.000000,67032000.000000
Z" /> 
</g>
<g >
</g>
<g style="fill:#000000; fill-opacity:1.0; 
stroke:#000000; stroke-width:1.000000; stroke-opacity:1; 
stroke-linecap:round; stroke-linejoin:round;">
<path style="fill:#000000; fill-opacity:1.0; 
stroke:#000000; stroke-width:1.000000; stroke-opacity:1; 
stroke-linecap:round; stroke-linejoin:round;fill-rule:evenodd;"
d="M 135599999.000000,58275001.000000
135599999.000000,58724999.000000
135000001.000000,58724999.000000
135000001.000000,58275001.000000
Z" /> 
<path style="fill:#000000; fill-opacity:1.0; 
stroke:#000000; stroke-width:1.000000; stroke-opacity:1; 
stroke-linecap:round; stroke-linejoin:round;fill-rule:evenodd;"
d="M 133499999.000000,58275001.000000
133499999.000000,58724999.000000
132900001.000000,58724999.000000
132900001.000000,58275001.000000
Z" /> 
</g>
<g >
</g>
<g style="fill:#000000; fill-opacity:1.0; 
stroke:#000000; stroke-width:1.000000; stroke-opacity:1; 
stroke-linecap:round; stroke-linejoin:round;">
<path style="fill:#000000; fill-opacity:1.0; 
stroke:#000000; stroke-width:1.000000; stroke-opacity:1; 
stroke-linecap:round; stroke-linejoin:round;fill-rule:evenodd;"
d="M 146575000.000000,60450000.000000
146594030.000000,60545671.000000
146648223.000000,60626777.000000
146729329.000000,60680970.000000
146825000.000000,60700000.000000
147350000.000000,60700000.000000
147445671.000000,60680970.000000
147526777.000000,60626777.000000
147580970.000000,60545671.000000
147600000.000000,60450000.000000
147600000.000000,59550000.000000
147580970.000000,59454329.000000
147526777.000000,59373223.000000
147445671.000000,59319030.000000
147350000.000000,59300000.000000
146825000.000000,59300000.000000
146729329.000000,59319030.000000
146648223.000000,59373223.000000
146594030.000000,59454329.000000
146575000.000000,59550000.000000
Z" /> 
<path style="fill:#000000; fill-opacity:1.0; 
stroke:#000000; stroke-width:1.000000; stroke-opacity:1; 
stroke-linecap:round; stroke-linejoin:round;fill-rule:evenodd;"
d="M 148400000.000000,60450000.000000
148419030.000000,60545671.000000
148473223.000000,60626777.000000
148554329.000000,60680970.000000
148650000.000000,60700000.000000
149175000.000000,60700000.000000
149270671.000000,60680970.000000
149351777.000000,60626777.000000
149405970.000000,60545671.000000
149425000.000000,60450000.000000
149425000.000000,59550000.000000
149405970.000000,59454329.000000
149351777.000000,59373223.000000
149270671.000000,59319030.000000
149175000.000000,59300000.000000
148650000.000000,59300000.000000
148554329.000000,59319030.000000
148473223.000000,59373223.000000
148419030.000000,59454329.000000
148400000.000000,59550000.000000
Z" /> 
</g>
<g >
</g>
<g style="fill:#000000; fill-opacity:1.0; 
stroke:#000000; stroke-width:1.000000; stroke-opacity:1; 
stroke-linecap:round; stroke-linejoin:round;">
<path style="fill:#000000; fill-opacity:1.0; 
stroke:#000000; stroke-width:1.000000; stroke-opacity:1; 
stroke-linecap:round; stroke-linejoin:round;fill-rule:evenodd;"
d="M 141200000.000000,60775000.000000
141180970.000000,60679329.000000
141126777.000000,60598223.000000
141045671.000000,60544030.000000
140950000.000000,60525000.000000
140450000.000000,60525000.000000
140354329.000000,60544030.000000
140273223.000000,60598223.000000
140219030.000000,60679329.000000
140200000.000000,60775000.000000
140200000.000000,61725000.000000
140219030.000000,61820671.000000
140273223.000000,61901777.000000
140354329.000000,61955970.000000
140450000.000000,61975000.000000
140950000.000000,61975000.000000
141045671.000000,61955970.000000
141126777.000000,61901777.000000
141180970.000000,61820671.000000
141200000.000000,61725000.000000
Z" /> 
<path style="fill:#000000; fill-opacity:1.0; 
stroke:#000000; stroke-width:1.000000; stroke-opacity:1; 
stroke-linecap:round; stroke-linejoin:round;fill-rule:evenodd;"
d="M 139300000.000000,60775000.000000
139280970.000000,60679329.000000
139226777.000000,60598223.000000
139145671.000000,60544030.000000
139050000.000000,60525000.000000
138550000.000000,60525000.000000
138454329.000000,60544030.000000
138373223.000000,60598223.000000
138319030.000000,60679329.000000
138300000.000000,60775000.000000
138300000.000000,61725000.000000
138319030.000000,61820671.000000
138373223.000000,61901777.000000
138454329.000000,61955970.000000
138550000.000000,61975000.000000
139050000.000000,61975000.000000
139145671.000000,61955970.000000
139226777.000000,61901777.000000
139280970.000000,61820671.000000
139300000.000000,61725000.000000
Z" /> 
</g>
<g >
</g>
<g >
</g>
<g style="fill:#000000; fill-opacity:1.0; 
stroke:#000000; stroke-width:1.000000; stroke-opacity:1; 
stroke-linecap:round; stroke-linejoin:round;">
<path style="fill:#000000; fill-opacity:1.0; 
stroke:#000000; stroke-width:1.000000; stroke-opacity:1; 
stroke-linecap:round; stroke-linejoin:round;fill-rule:evenodd;"
d="M 146455000.000000,70020000.000000
146443582.000000,69962597.000000
146411066.000000,69913934.000000
146362403.000000,69881418.000000
146305000.000000,69870000.000000
145130000.000000,69870000.000000
145072597.000000,69881418.000000
145023934.000000,69913934.000000
144991418.000000,69962597.000000
144980000.000000,70020000.000000
144980000.000000,70320000.000000
144991418.000000,70377403.000000
145023934.000000,70426066.000000
145072597.000000,70458582.000000
145130000.000000,70470000.000000
146305000.000000,70470000.000000
146362403.000000,70458582.000000
146411066.000000,70426066.000000
146443582.000000,70377403.000000
146455000.000000,70320000.000000
Z" /> 
<path style="fill:#000000; fill-opacity:1.0; 
stroke:#000000; stroke-width:1.000000; stroke-opacity:1; 
stroke-linecap:round; stroke-linejoin:round;fill-rule:evenodd;"
d="M 146455000.000000,71920000.000000
146443582.000000,71862597.000000
146411066.000000,71813934.000000
146362403.000000,71781418.000000
146305000.000000,71770000.000000
145130000.000000,71770000.000000
145072597.000000,71781418.000000
145023934.000000,71813934.000000
144991418.000000,71862597.000000
144980000.000000,71920000.000000
144980000.000000,72220000.000000
144991418.000000,72277403.000000
145023934.000000,72326066.000000
145072597.000000,72358582.000000
145130000.000000,72370000.000000
146305000.000000,72370000.000000
146362403.000000,72358582.000000
146411066.000000,72326066.000000
146443582.000000,72277403.000000
146455000.000000,72220000.000000
Z" /> 
<path style="fill:#000000; fill-opacity:1.0; 
stroke:#000000; stroke-width:1.000000; stroke-opacity:1; 
stroke-linecap:round; stroke-linejoin:round;fill-rule:evenodd;"
d="M 144580000.000000,70970000.000000
144568582.000000,70912597.000000
144536066.000000,70863934.000000
144487403.000000,70831418.000000
144430000.000000,70820000.000000
143255000.000000,70820000.000000
143197597.000000,70831418.000000
143148934.000000,70863934.000000
143116418.000000,70912597.000000
143105000.000000,70970000.000000
143105000.000000,71270000.000000
143116418.000000,71327403.000000
143148934.000000,71376066.000000
143197597.000000,71408582.000000
143255000.000000,71420000.000000
144430000.000000,71420000.000000
144487403.000000,71408582.000000
144536066.000000,71376066.000000
144568582.000000,71327403.000000
144580000.000000,71270000.000000
Z" /> 
</g>
<g >
</g>
<g style="fill:#000000; fill-opacity:1.0; 
stroke:#000000; stroke-width:1.000000; stroke-opacity:1; 
stroke-linecap:round; stroke-linejoin:round;">
<path style="fill:#000000; fill-opacity:1.0; 
stroke:#000000; stroke-width:1.000000; stroke-opacity:1; 
stroke-linecap:round; stroke-linejoin:round;fill-rule:evenodd;"
d="M 141887000.000000,67622000.000000
141867970.000000,67526329.000000
141813777.000000,67445223.000000
141732671.000000,67391030.000000
141637000.000000,67372000.000000
141112000.000000,67372000.000000
141016329.000000,67391030.000000
140935223.000000,67445223.000000
140881030.000000,67526329.000000
140862000.000000,67622000.000000
140862000.000000,68522000.000000
140881030.000000,68617671.000000
140935223.000000,68698777.000000
141016329.000000,68752970.000000
141112000.000000,68772000.000000
141637000.000000,68772000.000000
141732671.000000,68752970.000000
141813777.000000,68698777.000000
141867970.000000,68617671.000000
141887000.000000,68522000.000000
Z" /> 
<path style="fill:#000000; fill-opacity:1.0; 
stroke:#000000; stroke-width:1.000000; stroke-opacity:1; 
stroke-linecap:round; stroke-linejoin:round;fill-rule:evenodd;"
d="M 140062000.000000,67622000.000000
140042970.000000,67526329.000000
139988777.000000,67445223.000000
139907671.000000,67391030.000000
139812000.000000,67372000.000000
139287000.000000,67372000.000000
139191329.000000,67391030.000000
139110223.000000,67445223.000000
139056030.000000,67526329.000000
139037000.000000,67622000.000000
139037000.000000,68522000.000000
139056030.000000,68617671.000000
139110223.000000,68698777.000000
139191329.000000,68752970.000000
139287000.000000,68772000.000000
139812000.000000,68772000.000000
139907671.000000,68752970.000000
139988777.000000,68698777.000000
140042970.000000,68617671.000000
140062000.000000,68522000.000000
Z" /> 
</g>
<g >
</g>
<g style="fill:#000000; fill-opacity:1.0; 
stroke:#000000; stroke-width:1.000000; stroke-opacity:1; 
stroke-linecap:round; stroke-linejoin:round;">
<path style="fill:#000000; fill-opacity:1.0; 
stroke:#000000; stroke-width:1.000000; stroke-opacity:1; 
stroke-linecap:round; stroke-linejoin:round;fill-rule:evenodd;"
d="M 127793000.000000,72441500.000000
127812030.000000,72537171.000000
127866223.000000,72618277.000000
127947329.000000,72672470.000000
128043000.000000,72691500.000000
128693000.000000,72691500.000000
128788671.000000,72672470.000000
128869777.000000,72618277.000000
128923970.000000,72537171.000000
128943000.000000,72441500.000000
128943000.000000,70241500.000000
128923970.000000,70145829.000000
128869777.000000,70064723.000000
128788671.000000,70010530.000000
128693000.000000,69991500.000000
128043000.000000,69991500.000000
127947329.000000,70010530.000000
127866223.000000,70064723.000000
127812030.000000,70145829.000000
127793000.000000,70241500.000000
Z" /> 
<path style="fill:#000000; fill-opacity:1.0; 
stroke:#000000; stroke-width:1.000000; stroke-opacity:1; 
stroke-linecap:round; stroke-linejoin:round;fill-rule:evenodd;"
d="M 130743000.000000,72441500.000000
130762030.000000,72537171.000000
130816223.000000,72618277.000000
130897329.000000,72672470.000000
130993000.000000,72691500.000000
131643000.000000,72691500.000000
131738671.000000,72672470.000000
131819777.000000,72618277.000000
131873970.000000,72537171.000000
131893000.000000,72441500.000000
131893000.000000,70241500.000000
131873970.000000,70145829.000000
131819777.000000,70064723.000000
131738671.000000,70010530.000000
131643000.000000,69991500.000000
130993000.000000,69991500.000000
130897329.000000,70010530.000000
130816223.000000,70064723.000000
130762030.000000,70145829.000000
130743000.000000,70241500.000000
Z" /> 
</g>
<g >
</g>
<g style="fill:#000000; fill-opacity:1.0; 
stroke:#000000; stroke-width:1.000000; stroke-opacity:1; 
stroke-linecap:round; stroke-linejoin:round;">
<path style="fill:#000000; fill-opacity:1.0; 
stroke:#000000; stroke-width:1.000000; stroke-opacity:1; 
stroke-linecap:round; stroke-linejoin:round;fill-rule:evenodd;"
d="M 141300000.000000,69695000.000000
141204329.000000,69714030.000000
141123223.000000,69768223.000000
141069030.000000,69849329.000000
141050000.000000,69945000.000000
141050000.000000,70470000.000000
141069030.000000,70565671.000000
141123223.000000,70646777.000000
141204329.000000,70700970.000000
141300000.000000,70720000.000000
142200000.000000,70720000.000000
142295671.000000,70700970.000000
142376777.000000,70646777.000000
142430970.000000,70565671.000000
142450000.000000,70470000.000000
142450000.000000,69945000.000000
142430970.000000,69849329.000000
142376777.000000,69768223.000000
142295671.000000,69714030.000000
142200000.000000,69695000.000000
Z" /> 
<path style="fill:#000000; fill-opacity:1.0; 
stroke:#000000; stroke-width:1.000000; stroke-opacity:1; 
stroke-linecap:round; stroke-linejoin:round;fill-rule:evenodd;"
d="M 141300000.000000,71520000.000000
141204329.000000,71539030.000000
141123223.000000,71593223.000000
141069030.000000,71674329.000000
141050000.000000,71770000.000000
141050000.000000,72295000.000000
141069030.000000,72390671.000000
141123223.000000,72471777.000000
141204329.000000,72525970.000000
141300000.000000,72545000.000000
142200000.000000,72545000.000000
142295671.000000,72525970.000000
142376777.000000,72471777.000000
142430970.000000,72390671.000000
142450000.000000,72295000.000000
142450000.000000,71770000.000000
142430970.000000,71674329.000000
142376777.000000,71593223.000000
142295671.000000,71539030.000000
142200000.000000,71520000.000000
Z" /> 
</g>
<g >
</g>
<g style="fill:#000000; fill-opacity:1.0; 
stroke:#000000; stroke-width:1.000000; stroke-opacity:1; 
stroke-linecap:round; stroke-linejoin:round;">
<path style="fill:#000000; fill-opacity:1.0; 
stroke:#000000; stroke-width:1.000000; stroke-opacity:1; 
stroke-linecap:round; stroke-linejoin:round;fill-rule:evenodd;"
d="M 128025000.000000,58550000.000000
127929329.000000,58569030.000000
127848223.000000,58623223.000000
127794030.000000,58704329.000000
127775000.000000,58800000.000000
127775000.000000,59300000.000000
127794030.000000,59395671.000000
127848223.000000,59476777.000000
127929329.000000,59530970.000000
128025000.000000,59550000.000000
128975000.000000,59550000.000000
129070671.000000,59530970.000000
129151777.000000,59476777.000000
129205970.000000,59395671.000000
129225000.000000,59300000.000000
129225000.000000,58800000.000000
129205970.000000,58704329.000000
129151777.000000,58623223.000000
129070671.000000,58569030.000000
128975000.000000,58550000.000000
Z" /> 
<path style="fill:#000000; fill-opacity:1.0; 
stroke:#000000; stroke-width:1.000000; stroke-opacity:1; 
stroke-linecap:round; stroke-linejoin:round;fill-rule:evenodd;"
d="M 128025000.000000,60450000.000000
127929329.000000,60469030.000000
127848223.000000,60523223.000000
127794030.000000,60604329.000000
127775000.000000,60700000.000000
127775000.000000,61200000.000000
127794030.000000,61295671.000000
127848223.000000,61376777.000000
127929329.000000,61430970.000000
128025000.000000,61450000.000000
128975000.000000,61450000.000000
129070671.000000,61430970.000000
129151777.000000,61376777.000000
129205970.000000,61295671.000000
129225000.000000,61200000.000000
129225000.000000,60700000.000000
129205970.000000,60604329.000000
129151777.000000,60523223.000000
129070671.000000,60469030.000000
128975000.000000,60450000.000000
Z" /> 
</g>
<g >
</g>
<g >
</g>
<g >
</g>
</g> 
</svg>
