G04 #@! TF.GenerationSoftware,KiCad,Pcbnew,(5.99.0-8941-ge2f8b1a4b1)*
G04 #@! TF.CreationDate,2021-03-24T22:34:04+13:00*
G04 #@! TF.ProjectId,OpenHVPS-5,4f70656e-4856-4505-932d-352e6b696361,V1.2.0*
G04 #@! TF.SameCoordinates,Original*
G04 #@! TF.FileFunction,Copper,L2,Bot*
G04 #@! TF.FilePolarity,Positive*
%FSLAX46Y46*%
G04 Gerber Fmt 4.6, Leading zero omitted, Abs format (unit mm)*
G04 Created by KiCad (PCBNEW (5.99.0-8941-ge2f8b1a4b1)) date 2021-03-24 22:34:04*
%MOMM*%
%LPD*%
G01*
G04 APERTURE LIST*
G04 Aperture macros list*
%AMRoundRect*
0 Rectangle with rounded corners*
0 $1 Rounding radius*
0 $2 $3 $4 $5 $6 $7 $8 $9 X,Y pos of 4 corners*
0 Add a 4 corners polygon primitive as box body*
4,1,4,$2,$3,$4,$5,$6,$7,$8,$9,$2,$3,0*
0 Add four circle primitives for the rounded corners*
1,1,$1+$1,$2,$3*
1,1,$1+$1,$4,$5*
1,1,$1+$1,$6,$7*
1,1,$1+$1,$8,$9*
0 Add four rect primitives between the rounded corners*
20,1,$1+$1,$2,$3,$4,$5,0*
20,1,$1+$1,$4,$5,$6,$7,0*
20,1,$1+$1,$6,$7,$8,$9,0*
20,1,$1+$1,$8,$9,$2,$3,0*%
G04 Aperture macros list end*
G04 #@! TA.AperFunction,ComponentPad*
%ADD10R,1.700000X1.700000*%
G04 #@! TD*
G04 #@! TA.AperFunction,ComponentPad*
%ADD11O,1.700000X1.700000*%
G04 #@! TD*
G04 #@! TA.AperFunction,ComponentPad*
%ADD12C,2.500000*%
G04 #@! TD*
G04 #@! TA.AperFunction,ComponentPad*
%ADD13C,2.800000*%
G04 #@! TD*
G04 #@! TA.AperFunction,SMDPad,CuDef*
%ADD14R,1.000000X1.000000*%
G04 #@! TD*
G04 #@! TA.AperFunction,SMDPad,CuDef*
%ADD15RoundRect,0.250000X-0.262500X-0.450000X0.262500X-0.450000X0.262500X0.450000X-0.262500X0.450000X0*%
G04 #@! TD*
G04 #@! TA.AperFunction,SMDPad,CuDef*
%ADD16RoundRect,0.150000X0.587500X0.150000X-0.587500X0.150000X-0.587500X-0.150000X0.587500X-0.150000X0*%
G04 #@! TD*
G04 #@! TA.AperFunction,SMDPad,CuDef*
%ADD17RoundRect,0.250000X-0.250000X-0.475000X0.250000X-0.475000X0.250000X0.475000X-0.250000X0.475000X0*%
G04 #@! TD*
G04 #@! TA.AperFunction,SMDPad,CuDef*
%ADD18RoundRect,0.250000X-0.475000X0.250000X-0.475000X-0.250000X0.475000X-0.250000X0.475000X0.250000X0*%
G04 #@! TD*
G04 #@! TA.AperFunction,SMDPad,CuDef*
%ADD19RoundRect,0.250000X0.450000X-0.262500X0.450000X0.262500X-0.450000X0.262500X-0.450000X-0.262500X0*%
G04 #@! TD*
G04 #@! TA.AperFunction,SMDPad,CuDef*
%ADD20RoundRect,0.250000X-0.450000X0.262500X-0.450000X-0.262500X0.450000X-0.262500X0.450000X0.262500X0*%
G04 #@! TD*
G04 #@! TA.AperFunction,SMDPad,CuDef*
%ADD21R,0.450000X0.600000*%
G04 #@! TD*
G04 #@! TA.AperFunction,SMDPad,CuDef*
%ADD22RoundRect,0.150000X-0.512500X-0.150000X0.512500X-0.150000X0.512500X0.150000X-0.512500X0.150000X0*%
G04 #@! TD*
G04 #@! TA.AperFunction,SMDPad,CuDef*
%ADD23RoundRect,0.150000X-0.587500X-0.150000X0.587500X-0.150000X0.587500X0.150000X-0.587500X0.150000X0*%
G04 #@! TD*
G04 #@! TA.AperFunction,SMDPad,CuDef*
%ADD24RoundRect,0.150000X0.150000X-0.587500X0.150000X0.587500X-0.150000X0.587500X-0.150000X-0.587500X0*%
G04 #@! TD*
G04 #@! TA.AperFunction,SMDPad,CuDef*
%ADD25RoundRect,0.250000X0.262500X0.450000X-0.262500X0.450000X-0.262500X-0.450000X0.262500X-0.450000X0*%
G04 #@! TD*
G04 #@! TA.AperFunction,SMDPad,CuDef*
%ADD26RoundRect,0.150000X0.150000X-0.825000X0.150000X0.825000X-0.150000X0.825000X-0.150000X-0.825000X0*%
G04 #@! TD*
G04 #@! TA.AperFunction,SMDPad,CuDef*
%ADD27RoundRect,0.250000X0.250000X0.475000X-0.250000X0.475000X-0.250000X-0.475000X0.250000X-0.475000X0*%
G04 #@! TD*
G04 #@! TA.AperFunction,SMDPad,CuDef*
%ADD28RoundRect,0.250000X0.475000X-0.250000X0.475000X0.250000X-0.475000X0.250000X-0.475000X-0.250000X0*%
G04 #@! TD*
G04 #@! TA.AperFunction,SMDPad,CuDef*
%ADD29RoundRect,0.250000X-0.325000X-1.100000X0.325000X-1.100000X0.325000X1.100000X-0.325000X1.100000X0*%
G04 #@! TD*
G04 #@! TA.AperFunction,ViaPad*
%ADD30C,0.800000*%
G04 #@! TD*
G04 #@! TA.AperFunction,Conductor*
%ADD31C,0.250000*%
G04 #@! TD*
G04 #@! TA.AperFunction,Conductor*
%ADD32C,0.330200*%
G04 #@! TD*
G04 #@! TA.AperFunction,Conductor*
%ADD33C,0.500000*%
G04 #@! TD*
G04 APERTURE END LIST*
D10*
X165100000Y-59055000D03*
D11*
X165100000Y-61595000D03*
D12*
X162560000Y-71755000D03*
D13*
X162560000Y-75565000D03*
X138176000Y-75565000D03*
D10*
X128500000Y-75565000D03*
D11*
X131040000Y-75565000D03*
X133580000Y-75565000D03*
D14*
X132520000Y-68020000D03*
D15*
X140607500Y-75520000D03*
X142432500Y-75520000D03*
D14*
X150100000Y-66000000D03*
D15*
X140857500Y-72770000D03*
X142682500Y-72770000D03*
D16*
X154207500Y-71820000D03*
X154207500Y-73720000D03*
X152332500Y-72770000D03*
D14*
X140926250Y-59800000D03*
D15*
X146187500Y-61200000D03*
X148012500Y-61200000D03*
D17*
X148320000Y-76270000D03*
X150220000Y-76270000D03*
D18*
X129520000Y-59070000D03*
X129520000Y-60970000D03*
D14*
X133270000Y-71020000D03*
D17*
X154870000Y-70020000D03*
X156770000Y-70020000D03*
D19*
X141520000Y-70932500D03*
X141520000Y-69107500D03*
D20*
X144270000Y-74607500D03*
X144270000Y-76432500D03*
D21*
X134520000Y-67170000D03*
X134520000Y-69270000D03*
D20*
X127520000Y-59107500D03*
X127520000Y-60932500D03*
D22*
X140962500Y-64450000D03*
X140962500Y-63500000D03*
X140962500Y-62550000D03*
X143237500Y-62550000D03*
X143237500Y-64450000D03*
D18*
X146270000Y-74570000D03*
X146270000Y-76470000D03*
D23*
X156262500Y-76470000D03*
X156262500Y-74570000D03*
X158137500Y-75520000D03*
D15*
X146487500Y-66600000D03*
X148312500Y-66600000D03*
D24*
X150470000Y-73957500D03*
X148570000Y-73957500D03*
X149520000Y-72082500D03*
D14*
X129520000Y-64270000D03*
D25*
X148013750Y-59250000D03*
X146188750Y-59250000D03*
D18*
X138770000Y-67320000D03*
X138770000Y-69220000D03*
D15*
X147487500Y-68500000D03*
X149312500Y-68500000D03*
D14*
X144600000Y-66700000D03*
X144520000Y-72770000D03*
X148020000Y-70770000D03*
D26*
X139080000Y-65195000D03*
X137810000Y-65195000D03*
X136540000Y-65195000D03*
X135270000Y-65195000D03*
X134000000Y-65195000D03*
X132730000Y-65195000D03*
X131460000Y-65195000D03*
X131460000Y-60245000D03*
X132730000Y-60245000D03*
X134000000Y-60245000D03*
X135270000Y-60245000D03*
X136540000Y-60245000D03*
X137810000Y-60245000D03*
X139080000Y-60245000D03*
D20*
X128270000Y-67107500D03*
X128270000Y-68932500D03*
D27*
X139220000Y-71020000D03*
X137320000Y-71020000D03*
D28*
X145700000Y-64850000D03*
X145700000Y-62950000D03*
D15*
X140857500Y-66770000D03*
X142682500Y-66770000D03*
D20*
X136520000Y-67307500D03*
X136520000Y-69132500D03*
D15*
X156107500Y-72020000D03*
X157932500Y-72020000D03*
D14*
X130520000Y-68020000D03*
D16*
X145457500Y-69070000D03*
X145457500Y-70970000D03*
X143582500Y-70020000D03*
D25*
X152932500Y-70020000D03*
X151107500Y-70020000D03*
D28*
X150100000Y-64250000D03*
X150100000Y-62350000D03*
D19*
X127520000Y-64432500D03*
X127520000Y-62607500D03*
X147800000Y-64812500D03*
X147800000Y-62987500D03*
D29*
X128368000Y-71341500D03*
X131318000Y-71341500D03*
D25*
X153682500Y-76270000D03*
X151857500Y-76270000D03*
D30*
X154500000Y-68000000D03*
X146270000Y-75770000D03*
X150270000Y-70020000D03*
X150520000Y-77020000D03*
X132770000Y-72770000D03*
X138020000Y-62770000D03*
X156270000Y-75520000D03*
X150368200Y-72621800D03*
X135770000Y-70520000D03*
X130270000Y-62270000D03*
X139020000Y-57770000D03*
X133520000Y-67020000D03*
X140750000Y-59750000D03*
X139634500Y-72883000D03*
X135764700Y-71941100D03*
X126920900Y-69342400D03*
X148020000Y-72770000D03*
X130520000Y-66770000D03*
X151770000Y-67020000D03*
X149020000Y-76520000D03*
X145770000Y-72020000D03*
X152919800Y-74131600D03*
X127770000Y-67520000D03*
D31*
X140627500Y-67000000D02*
X140857500Y-66770000D01*
X138770000Y-67320000D02*
X139090000Y-67000000D01*
X138758000Y-67307500D02*
X138770000Y-67320000D01*
X139080000Y-65195000D02*
X139080000Y-67010000D01*
X139080000Y-67010000D02*
X138770000Y-67320000D01*
X139090000Y-67000000D02*
X140627500Y-67000000D01*
X136520000Y-67307500D02*
X138758000Y-67307500D01*
D32*
X149857500Y-69770000D02*
X150107500Y-70020000D01*
X157932000Y-73113700D02*
X157932500Y-73113200D01*
X145457500Y-70970000D02*
X145507500Y-71020000D01*
X139020000Y-57770000D02*
X139250000Y-58000000D01*
X131460000Y-65195000D02*
X131460000Y-64210000D01*
D33*
X129167500Y-68932500D02*
X129167500Y-69191000D01*
D31*
X131318000Y-70612000D02*
X131318000Y-70568000D01*
X131318000Y-71341500D02*
X131342000Y-71341500D01*
D32*
X157932000Y-75314500D02*
X158137500Y-75520000D01*
D31*
X137520000Y-70520000D02*
X135770000Y-70520000D01*
D32*
X129357500Y-68932500D02*
X129520000Y-68770000D01*
X149032500Y-73957500D02*
X148570000Y-73957500D01*
X131460000Y-64210000D02*
X130270000Y-63020000D01*
X146270000Y-76470000D02*
X146270000Y-77520000D01*
X133580000Y-75565000D02*
X133580000Y-76330000D01*
X139270000Y-62770000D02*
X140000000Y-63500000D01*
X138020000Y-62770000D02*
X139270000Y-62770000D01*
X156270000Y-75520000D02*
X157457500Y-75520000D01*
X156770000Y-70020000D02*
X157932000Y-71182500D01*
X150220000Y-76270000D02*
X150220000Y-77470000D01*
X133580000Y-75565000D02*
X133580000Y-74210000D01*
X133580000Y-72710000D02*
X133580000Y-74210000D01*
X146520000Y-69770000D02*
X149857500Y-69770000D01*
X130845000Y-65195000D02*
X129520000Y-66520000D01*
X157458000Y-77332500D02*
X157270000Y-77520000D01*
X144270000Y-76432500D02*
X144270000Y-77520000D01*
D33*
X133580000Y-73603500D02*
X131318000Y-71341500D01*
D32*
X148038300Y-73957500D02*
X148570000Y-73957500D01*
X145457500Y-70832500D02*
X146520000Y-69770000D01*
D31*
X138770000Y-69220000D02*
X138770000Y-69270000D01*
D32*
X139250000Y-58000000D02*
X163500000Y-58000000D01*
X145457500Y-70970000D02*
X145457500Y-70832500D01*
D33*
X128520000Y-68932500D02*
X129357500Y-68932500D01*
D32*
X145507500Y-71020000D02*
X146677700Y-71020000D01*
X157458000Y-75520000D02*
X157458000Y-77332500D01*
D31*
X138770000Y-69220000D02*
X138570000Y-69220000D01*
D33*
X133580000Y-76330000D02*
X134770000Y-77520000D01*
D32*
X130270000Y-63020000D02*
X130270000Y-62270000D01*
D31*
X138770000Y-69270000D02*
X137520000Y-70520000D01*
D32*
X146677700Y-72596900D02*
X148038300Y-73957500D01*
D33*
X129167500Y-69191000D02*
X131318000Y-71341500D01*
X134770000Y-77520000D02*
X159020000Y-77520000D01*
D32*
X129520000Y-61520000D02*
X129520000Y-60970000D01*
X135770000Y-70520000D02*
X133580000Y-72710000D01*
X138090000Y-62700000D02*
X138020000Y-62770000D01*
X133580000Y-74210000D02*
X133580000Y-73603500D01*
X140000000Y-63500000D02*
X140962500Y-63500000D01*
D31*
X131318000Y-70568000D02*
X131318000Y-70612000D01*
D32*
X146270000Y-75770000D02*
X146270000Y-76470000D01*
D31*
X131318000Y-71341500D02*
X131318000Y-70612000D01*
D32*
X150368200Y-72621800D02*
X149032500Y-73957500D01*
X157932500Y-73113200D02*
X157932500Y-72020000D01*
D33*
X131318000Y-72068000D02*
X131318000Y-71341500D01*
D32*
X129520000Y-66520000D02*
X129520000Y-68770000D01*
X130270000Y-62270000D02*
X129520000Y-61520000D01*
X157932000Y-71182500D02*
X157932000Y-73113700D01*
X131460000Y-65195000D02*
X130845000Y-65195000D01*
X146677700Y-71020000D02*
X146677700Y-72596900D01*
X157932000Y-73113700D02*
X157932000Y-75314500D01*
D31*
X151020000Y-69479400D02*
X151020000Y-70569000D01*
X131318000Y-70568000D02*
X131318000Y-70231000D01*
X133520000Y-67270000D02*
X133520000Y-67020000D01*
X132520000Y-68270000D02*
X133520000Y-67270000D01*
X156107500Y-72020000D02*
X155857500Y-71770000D01*
X154870000Y-70020000D02*
X154770000Y-70020000D01*
X155857500Y-71770000D02*
X154257500Y-71770000D01*
X154870000Y-70020000D02*
X154870000Y-71157500D01*
X154770000Y-70020000D02*
X153350000Y-68600000D01*
X154257500Y-71770000D02*
X154207500Y-71820000D01*
X154870000Y-71157500D02*
X154207500Y-71820000D01*
X154307500Y-71920000D02*
X154207500Y-71820000D01*
X154308000Y-71920000D02*
X154307500Y-71920000D01*
X154308000Y-71920000D02*
X154208000Y-71820000D01*
X153350000Y-68600000D02*
X149312500Y-68600000D01*
X156108000Y-72020000D02*
X156107500Y-72020000D01*
X128368000Y-71341500D02*
X128368000Y-70789500D01*
X139634500Y-72668600D02*
X136492200Y-72668600D01*
X139735900Y-72770000D02*
X139634500Y-72668600D01*
X140857500Y-72770000D02*
X140857500Y-71595000D01*
X136492200Y-72668600D02*
X135764700Y-71941100D01*
X127083100Y-69180200D02*
X126920900Y-69342400D01*
X139634500Y-72668600D02*
X139634500Y-72883000D01*
X140379300Y-72770000D02*
X139735900Y-72770000D01*
X128368000Y-70789500D02*
X126920900Y-69342400D01*
X126920900Y-65031600D02*
X127520000Y-64432500D01*
X140695000Y-72770000D02*
X140695000Y-72454300D01*
X126920900Y-69342400D02*
X126920900Y-65031600D01*
X140857500Y-71595000D02*
X141520000Y-70932500D01*
X140695000Y-72454300D02*
X140379300Y-72770000D01*
X148707500Y-72082500D02*
X149520000Y-72082500D01*
X149457500Y-72020000D02*
X149513300Y-72075700D01*
X148020000Y-70770000D02*
X148020000Y-72770000D01*
X148020000Y-72770000D02*
X148707500Y-72082500D01*
X149513300Y-72075700D02*
X149520000Y-72082500D01*
X151738500Y-73363700D02*
X152332000Y-72770000D01*
X150470000Y-73957500D02*
X151145000Y-73957500D01*
X152932500Y-72170000D02*
X152332500Y-72770000D01*
X151738500Y-73363700D02*
X151738800Y-73363700D01*
X152932500Y-70020000D02*
X152932500Y-72170000D01*
X151145000Y-73957500D02*
X151738500Y-73363700D01*
X151738800Y-73363700D02*
X152332500Y-72770000D01*
X136300000Y-58300000D02*
X136800000Y-58800000D01*
X136800000Y-58800000D02*
X138300000Y-58800000D01*
X131700000Y-58300000D02*
X136300000Y-58300000D01*
X129520000Y-59070000D02*
X129590000Y-59000000D01*
X127520000Y-59107500D02*
X129482500Y-59107500D01*
X139080000Y-59580000D02*
X139080000Y-60245000D01*
X129590000Y-59000000D02*
X131000000Y-59000000D01*
X129482500Y-59107500D02*
X129520000Y-59070000D01*
X138300000Y-58800000D02*
X139080000Y-59580000D01*
X131000000Y-59000000D02*
X131700000Y-58300000D01*
X139080000Y-60245000D02*
X139080000Y-61210000D01*
X132730000Y-60245000D02*
X132730000Y-59760000D01*
X137810000Y-60245000D02*
X137810000Y-60730000D01*
X132730000Y-61230000D02*
X133520000Y-62020000D01*
X134520000Y-67770000D02*
X133520000Y-68770000D01*
X134520000Y-67170000D02*
X134520000Y-66720000D01*
X134520000Y-66720000D02*
X134000000Y-66200000D01*
X136540000Y-65700000D02*
X135020000Y-67220000D01*
X132730000Y-60245000D02*
X132730000Y-61230000D01*
X135270000Y-60245000D02*
X135270000Y-61020000D01*
X137770000Y-60285000D02*
X137810000Y-60245000D01*
X136540000Y-65195000D02*
X137810000Y-65195000D01*
X134020000Y-65175000D02*
X134000000Y-65195000D01*
X133520000Y-70770000D02*
X133270000Y-71020000D01*
X134570000Y-67220000D02*
X134520000Y-67170000D01*
X135270000Y-60980000D02*
X136540000Y-62250000D01*
X137770000Y-60770000D02*
X137770000Y-60285000D01*
X136540000Y-65195000D02*
X136540000Y-62250000D01*
X133520000Y-62020000D02*
X136520000Y-62020000D01*
X136540000Y-65195000D02*
X136540000Y-65700000D01*
X134520000Y-67170000D02*
X134520000Y-67770000D01*
X133520000Y-68770000D02*
X133520000Y-70770000D01*
X136540000Y-62250000D02*
X136540000Y-62000000D01*
X134000000Y-66200000D02*
X134000000Y-65195000D01*
X136540000Y-62000000D02*
X137810000Y-60730000D01*
X135270000Y-60245000D02*
X135270000Y-60980000D01*
X135020000Y-67220000D02*
X134570000Y-67220000D01*
X135270000Y-59470000D02*
X135270000Y-60245000D01*
X147845000Y-64881250D02*
X147895000Y-64831250D01*
X148412500Y-66600000D02*
X149200000Y-66600000D01*
X147487500Y-68600000D02*
X147487500Y-67525000D01*
X147487500Y-67525000D02*
X148412500Y-66600000D01*
X149200000Y-66600000D02*
X149800000Y-66000000D01*
X148412500Y-66600000D02*
X148412500Y-65712500D01*
X147900000Y-65200000D02*
X147900000Y-64812500D01*
X150200000Y-64350000D02*
X150100000Y-64250000D01*
X149750000Y-63900000D02*
X150100000Y-64250000D01*
X149800000Y-66000000D02*
X150200000Y-66000000D01*
X150200000Y-66000000D02*
X150200000Y-64350000D01*
X148412500Y-65712500D02*
X147900000Y-65200000D01*
X147017500Y-69070000D02*
X147487500Y-68600000D01*
X145457500Y-69070000D02*
X147017500Y-69070000D01*
X145720000Y-69070000D02*
X145457500Y-69070000D01*
X132020000Y-58770000D02*
X133770000Y-58770000D01*
X132020000Y-66770000D02*
X132730000Y-66060000D01*
X131460000Y-60245000D02*
X131460000Y-61210000D01*
X135270000Y-64270000D02*
X135270000Y-65195000D01*
X133770000Y-58770000D02*
X134000000Y-59000000D01*
X132730000Y-64310000D02*
X133270000Y-63770000D01*
X132770000Y-65155000D02*
X132730000Y-65195000D01*
X133770000Y-58770000D02*
X136020000Y-58770000D01*
X132730000Y-66060000D02*
X132730000Y-65195000D01*
X130520000Y-66770000D02*
X132020000Y-66770000D01*
X131460000Y-61210000D02*
X132770000Y-62520000D01*
X130520000Y-66770000D02*
X130520000Y-68270000D01*
X134770000Y-63770000D02*
X135270000Y-64270000D01*
X131460000Y-60245000D02*
X131460000Y-59330000D01*
X133270000Y-63770000D02*
X134770000Y-63770000D01*
X132770000Y-62520000D02*
X132770000Y-65155000D01*
X132730000Y-65195000D02*
X132730000Y-64310000D01*
X136020000Y-58770000D02*
X136540000Y-59290000D01*
X134000000Y-59000000D02*
X134000000Y-60245000D01*
X136540000Y-59290000D02*
X136540000Y-60245000D01*
X131460000Y-59330000D02*
X132020000Y-58770000D01*
X136382000Y-69270000D02*
X136520000Y-69132500D01*
X134520000Y-69270000D02*
X136382000Y-69270000D01*
X142432000Y-75357500D02*
X143182000Y-74607500D01*
X150770000Y-75020000D02*
X146720000Y-75020000D01*
X151857500Y-76107500D02*
X150770000Y-75020000D01*
X142432500Y-75520000D02*
X142432000Y-75520000D01*
X144270000Y-74607500D02*
X144270000Y-73020000D01*
X151857500Y-76270000D02*
X151857500Y-76107500D01*
X143182000Y-74607500D02*
X144270000Y-74607500D01*
X144308000Y-74570000D02*
X144270000Y-74607500D01*
X146270000Y-74570000D02*
X144308000Y-74570000D01*
X146720000Y-75020000D02*
X146270000Y-74570000D01*
X144270000Y-73020000D02*
X144520000Y-72770000D01*
X142432000Y-75520000D02*
X142432000Y-75357500D01*
X127520000Y-60932500D02*
X127520000Y-62607500D01*
X140585000Y-75542500D02*
X140607500Y-75520000D01*
X140562000Y-75565000D02*
X140585000Y-75542500D01*
X138176000Y-75565000D02*
X140562000Y-75565000D01*
X140585000Y-75542500D02*
X140608000Y-75520000D01*
X146188750Y-62661250D02*
X145900000Y-62950000D01*
X146188750Y-61250000D02*
X146188750Y-62661250D01*
X151500000Y-64000000D02*
X150800000Y-63300000D01*
X151770000Y-67020000D02*
X151520000Y-67020000D01*
X143237500Y-62550000D02*
X143237500Y-62050000D01*
X150800000Y-63300000D02*
X149200000Y-63300000D01*
X148013750Y-60213750D02*
X145073750Y-60213750D01*
X148900000Y-63000000D02*
X148900000Y-62400000D01*
X148013750Y-59250000D02*
X148013750Y-59286250D01*
X143237500Y-62050000D02*
X145073750Y-60213750D01*
X148013750Y-61250000D02*
X147895000Y-61368750D01*
X151500000Y-66750000D02*
X151500000Y-64000000D01*
X148013750Y-61513750D02*
X148013750Y-61250000D01*
X151770000Y-67020000D02*
X151500000Y-66750000D01*
X149200000Y-63300000D02*
X148900000Y-63000000D01*
X148013750Y-61813750D02*
X148013750Y-60213750D01*
X148013750Y-60213750D02*
X148013750Y-59250000D01*
X148013750Y-59425000D02*
X148013750Y-59000000D01*
X148013750Y-59425000D02*
X148013750Y-59250000D01*
X148900000Y-62400000D02*
X148013750Y-61513750D01*
X144770000Y-65830000D02*
X144770000Y-66770000D01*
X145750000Y-64850000D02*
X144770000Y-65830000D01*
X145100000Y-64850000D02*
X145900000Y-64850000D01*
X145900000Y-64850000D02*
X145750000Y-64850000D01*
X145900000Y-64850000D02*
X145350000Y-64850000D01*
X141550000Y-64450000D02*
X142300000Y-63700000D01*
X144770000Y-66770000D02*
X144830000Y-66770000D01*
X142300000Y-63700000D02*
X143950000Y-63700000D01*
X142682500Y-66770000D02*
X144270000Y-66770000D01*
X140962500Y-64450000D02*
X141550000Y-64450000D01*
X143950000Y-63700000D02*
X145100000Y-64850000D01*
X149020000Y-76520000D02*
X148570000Y-76520000D01*
X142520500Y-72770500D02*
X142520000Y-72770000D01*
X142520500Y-72770500D02*
X142520500Y-72770000D01*
X142682500Y-72357500D02*
X143270000Y-71770000D01*
X142682500Y-72770000D02*
X142682500Y-72357500D01*
X143270000Y-71770000D02*
X145520000Y-71770000D01*
X148570000Y-76520000D02*
X148320000Y-76270000D01*
X145520000Y-71770000D02*
X145770000Y-72020000D01*
X148270000Y-76270000D02*
X148320000Y-76270000D01*
X153008400Y-74131600D02*
X152919800Y-74131600D01*
X154620000Y-73720000D02*
X155500000Y-74600000D01*
X153420000Y-73720000D02*
X153008400Y-74131600D01*
X154207500Y-73720000D02*
X154620000Y-73720000D01*
X154207500Y-73720000D02*
X153420000Y-73720000D01*
X153682500Y-76270000D02*
X155382500Y-76270000D01*
X155382500Y-76270000D02*
X155582500Y-76470000D01*
X155582500Y-76395100D02*
X155582500Y-76470000D01*
X143150000Y-64450000D02*
X141750000Y-65850000D01*
X141520000Y-69107500D02*
X141770000Y-68857500D01*
X139220000Y-71020000D02*
X139607500Y-71020000D01*
X141520000Y-69020000D02*
X141520000Y-69107500D01*
X146587500Y-67112500D02*
X145680000Y-68020000D01*
X141520000Y-67980000D02*
X141520000Y-69107500D01*
X141750000Y-67750000D02*
X141520000Y-67980000D01*
X143237500Y-64450000D02*
X143150000Y-64450000D01*
X139607500Y-71020000D02*
X141520000Y-69107500D01*
X142520000Y-68020000D02*
X141520000Y-69020000D01*
X145680000Y-68020000D02*
X142520000Y-68020000D01*
X141750000Y-65850000D02*
X141750000Y-67750000D01*
X128107500Y-67520000D02*
X128520000Y-67107500D01*
X129520000Y-65270000D02*
X128520000Y-66270000D01*
X129520000Y-65270000D02*
X129520000Y-64270000D01*
X127770000Y-67520000D02*
X128107500Y-67520000D01*
X128520000Y-66270000D02*
X128520000Y-67107500D01*
X144300000Y-63300000D02*
X142300000Y-63300000D01*
X146800000Y-63900000D02*
X144900000Y-63900000D01*
X141550000Y-62550000D02*
X140962500Y-62550000D01*
X147712500Y-62987500D02*
X146800000Y-63900000D01*
X147900000Y-62987500D02*
X147712500Y-62987500D01*
X144900000Y-63900000D02*
X144300000Y-63300000D01*
X142300000Y-63300000D02*
X141550000Y-62550000D01*
G04 #@! TA.AperFunction,Conductor*
G36*
X129516995Y-68698502D02*
G01*
X129554872Y-68736379D01*
X129627051Y-68848691D01*
X129627053Y-68848694D01*
X129631923Y-68856271D01*
X129638733Y-68862172D01*
X129735569Y-68946082D01*
X129735572Y-68946084D01*
X129742381Y-68951984D01*
X129750579Y-68955728D01*
X129773072Y-68966000D01*
X129875330Y-69012700D01*
X129884245Y-69013982D01*
X129884246Y-69013982D01*
X130015552Y-69032861D01*
X130015559Y-69032862D01*
X130020000Y-69033500D01*
X131020000Y-69033500D01*
X131093079Y-69028273D01*
X131171165Y-69005345D01*
X131224670Y-68989635D01*
X131224672Y-68989634D01*
X131233316Y-68987096D01*
X131308033Y-68939078D01*
X131348691Y-68912949D01*
X131348694Y-68912947D01*
X131356271Y-68908077D01*
X131392062Y-68866773D01*
X131423432Y-68830570D01*
X131483158Y-68792186D01*
X131554154Y-68792186D01*
X131613880Y-68830570D01*
X131624652Y-68844958D01*
X131626930Y-68848502D01*
X131631923Y-68856271D01*
X131638733Y-68862172D01*
X131735569Y-68946082D01*
X131735572Y-68946084D01*
X131742381Y-68951984D01*
X131750579Y-68955728D01*
X131773072Y-68966000D01*
X131875330Y-69012700D01*
X131884245Y-69013982D01*
X131884246Y-69013982D01*
X132015552Y-69032861D01*
X132015559Y-69032862D01*
X132020000Y-69033500D01*
X132760500Y-69033500D01*
X132828621Y-69053502D01*
X132875114Y-69107158D01*
X132886500Y-69159500D01*
X132886500Y-69880858D01*
X132866498Y-69948979D01*
X132812842Y-69995472D01*
X132769490Y-70006536D01*
X132696921Y-70011727D01*
X132627111Y-70032225D01*
X132565330Y-70050365D01*
X132565328Y-70050366D01*
X132556684Y-70052904D01*
X132549106Y-70057774D01*
X132549104Y-70057775D01*
X132546794Y-70059260D01*
X132544157Y-70060034D01*
X132540904Y-70061520D01*
X132540690Y-70061052D01*
X132478674Y-70079265D01*
X132410552Y-70059265D01*
X132364057Y-70005611D01*
X132360230Y-69996256D01*
X132327737Y-69906739D01*
X132321227Y-69893740D01*
X132232359Y-69758194D01*
X132223035Y-69747042D01*
X132105371Y-69635578D01*
X132093724Y-69626865D01*
X131953571Y-69545457D01*
X131940246Y-69539663D01*
X131784300Y-69492432D01*
X131771677Y-69489984D01*
X131701816Y-69483749D01*
X131696221Y-69483500D01*
X131590115Y-69483500D01*
X131574876Y-69487975D01*
X131573671Y-69489365D01*
X131572000Y-69497048D01*
X131572000Y-73181385D01*
X131576475Y-73196624D01*
X131577865Y-73197829D01*
X131585548Y-73199500D01*
X131682223Y-73199500D01*
X131689524Y-73199076D01*
X131811255Y-73184883D01*
X131825410Y-73181537D01*
X131977761Y-73126237D01*
X131990760Y-73119727D01*
X132126306Y-73030859D01*
X132137458Y-73021535D01*
X132248922Y-72903871D01*
X132257635Y-72892224D01*
X132339043Y-72752071D01*
X132344837Y-72738746D01*
X132392068Y-72582800D01*
X132394516Y-72570177D01*
X132400751Y-72500316D01*
X132401000Y-72494721D01*
X132401000Y-72106312D01*
X132421002Y-72038191D01*
X132474658Y-71991698D01*
X132544932Y-71981594D01*
X132579343Y-71991698D01*
X132625330Y-72012700D01*
X132634245Y-72013982D01*
X132634246Y-72013982D01*
X132765552Y-72032861D01*
X132765559Y-72032862D01*
X132770000Y-72033500D01*
X133770000Y-72033500D01*
X133843079Y-72028273D01*
X133921165Y-72005345D01*
X133974670Y-71989635D01*
X133974672Y-71989634D01*
X133983316Y-71987096D01*
X134040861Y-71950114D01*
X134098691Y-71912949D01*
X134098694Y-71912947D01*
X134106271Y-71908077D01*
X134112172Y-71901267D01*
X134196082Y-71804431D01*
X134196084Y-71804428D01*
X134201984Y-71797619D01*
X134218468Y-71761525D01*
X134258958Y-71672864D01*
X134258958Y-71672863D01*
X134262700Y-71664670D01*
X134265855Y-71642726D01*
X134282861Y-71524448D01*
X134282862Y-71524441D01*
X134283500Y-71520000D01*
X134283500Y-70520000D01*
X134278273Y-70446921D01*
X134237096Y-70306684D01*
X134218419Y-70277622D01*
X134198416Y-70209501D01*
X134218417Y-70141380D01*
X134272073Y-70094887D01*
X134324416Y-70083500D01*
X134745000Y-70083500D01*
X134818079Y-70078273D01*
X134917417Y-70049105D01*
X134949670Y-70039635D01*
X134949672Y-70039634D01*
X134958316Y-70037096D01*
X135023084Y-69995472D01*
X135073691Y-69962949D01*
X135073694Y-69962947D01*
X135081271Y-69958077D01*
X135089155Y-69948979D01*
X135090883Y-69946985D01*
X135150610Y-69908603D01*
X135186105Y-69903500D01*
X135453860Y-69903500D01*
X135521981Y-69923502D01*
X135540511Y-69938026D01*
X135612645Y-70006358D01*
X135765555Y-70095175D01*
X135934796Y-70146433D01*
X135941236Y-70147008D01*
X135941237Y-70147008D01*
X136011185Y-70153251D01*
X136011191Y-70153251D01*
X136013978Y-70153500D01*
X136226895Y-70153500D01*
X136295016Y-70173502D01*
X136341509Y-70227158D01*
X136351613Y-70297432D01*
X136347486Y-70316022D01*
X136320933Y-70403697D01*
X136318484Y-70416323D01*
X136312249Y-70486184D01*
X136312000Y-70491779D01*
X136312000Y-70747885D01*
X136316475Y-70763124D01*
X136317865Y-70764329D01*
X136325548Y-70766000D01*
X137448000Y-70766000D01*
X137516121Y-70786002D01*
X137562614Y-70839658D01*
X137574000Y-70892000D01*
X137574000Y-71148000D01*
X137553998Y-71216121D01*
X137500342Y-71262614D01*
X137448000Y-71274000D01*
X136433081Y-71274000D01*
X136359020Y-71249936D01*
X136226792Y-71153867D01*
X136226791Y-71153866D01*
X136221450Y-71149986D01*
X136215422Y-71147302D01*
X136215420Y-71147301D01*
X136053018Y-71074995D01*
X136053017Y-71074995D01*
X136046987Y-71072310D01*
X135942193Y-71050035D01*
X135866644Y-71033976D01*
X135866639Y-71033976D01*
X135860187Y-71032604D01*
X135669213Y-71032604D01*
X135662761Y-71033976D01*
X135662756Y-71033976D01*
X135587207Y-71050035D01*
X135482413Y-71072310D01*
X135476383Y-71074995D01*
X135476382Y-71074995D01*
X135313980Y-71147301D01*
X135313978Y-71147302D01*
X135307950Y-71149986D01*
X135302609Y-71153866D01*
X135302608Y-71153867D01*
X135158793Y-71258354D01*
X135158791Y-71258356D01*
X135153449Y-71262237D01*
X135149028Y-71267147D01*
X135149027Y-71267148D01*
X135099075Y-71322626D01*
X135025663Y-71404158D01*
X134930176Y-71569546D01*
X134928134Y-71575831D01*
X134876689Y-71734164D01*
X134871162Y-71751173D01*
X134851200Y-71941100D01*
X134851890Y-71947665D01*
X134869567Y-72115847D01*
X134871162Y-72131027D01*
X134873202Y-72137305D01*
X134873202Y-72137306D01*
X134894665Y-72203363D01*
X134930176Y-72312654D01*
X135025663Y-72478042D01*
X135030081Y-72482949D01*
X135030082Y-72482950D01*
X135108699Y-72570263D01*
X135153449Y-72619963D01*
X135158791Y-72623844D01*
X135158793Y-72623846D01*
X135279439Y-72711500D01*
X135307950Y-72732214D01*
X135313978Y-72734898D01*
X135313980Y-72734899D01*
X135436077Y-72789260D01*
X135482413Y-72809890D01*
X135575813Y-72829743D01*
X135662756Y-72848224D01*
X135662761Y-72848224D01*
X135669213Y-72849596D01*
X135725101Y-72849596D01*
X135793222Y-72869598D01*
X135814196Y-72886501D01*
X135988818Y-73061123D01*
X135996169Y-73069201D01*
X136000227Y-73075595D01*
X136006006Y-73081022D01*
X136006007Y-73081023D01*
X136049062Y-73121454D01*
X136051892Y-73124197D01*
X136072233Y-73144538D01*
X136075653Y-73147190D01*
X136084676Y-73154897D01*
X136116899Y-73185157D01*
X136123843Y-73188974D01*
X136123848Y-73188978D01*
X136134650Y-73194916D01*
X136151177Y-73205772D01*
X136167177Y-73218183D01*
X136174448Y-73221330D01*
X136174449Y-73221330D01*
X136207751Y-73235741D01*
X136218407Y-73240962D01*
X136257152Y-73262262D01*
X136264835Y-73264234D01*
X136264836Y-73264235D01*
X136276768Y-73267299D01*
X136295472Y-73273703D01*
X136306785Y-73278599D01*
X136306792Y-73278601D01*
X136314064Y-73281748D01*
X136321888Y-73282987D01*
X136321891Y-73282988D01*
X136357735Y-73288665D01*
X136369356Y-73291072D01*
X136406418Y-73300587D01*
X136412175Y-73302065D01*
X136412731Y-73302100D01*
X136432652Y-73302100D01*
X136452362Y-73303651D01*
X136464314Y-73305544D01*
X136464315Y-73305544D01*
X136472144Y-73306784D01*
X136480036Y-73306038D01*
X136515782Y-73302659D01*
X136527640Y-73302100D01*
X138754681Y-73302100D01*
X138822802Y-73322102D01*
X138863800Y-73365100D01*
X138895463Y-73419942D01*
X138899881Y-73424849D01*
X138899882Y-73424850D01*
X138998503Y-73534380D01*
X139023249Y-73561863D01*
X139028591Y-73565744D01*
X139028593Y-73565746D01*
X139070591Y-73596259D01*
X139113945Y-73652481D01*
X139120020Y-73723217D01*
X139086889Y-73786009D01*
X139025069Y-73820921D01*
X138954188Y-73816867D01*
X138946108Y-73813665D01*
X138942068Y-73811540D01*
X138680921Y-73719319D01*
X138409197Y-73665763D01*
X138404640Y-73665536D01*
X138404639Y-73665536D01*
X138137157Y-73652220D01*
X138137151Y-73652220D01*
X138132588Y-73651993D01*
X137856888Y-73678297D01*
X137852454Y-73679382D01*
X137852448Y-73679383D01*
X137624694Y-73735114D01*
X137587873Y-73744124D01*
X137583647Y-73745836D01*
X137583643Y-73745837D01*
X137335412Y-73846381D01*
X137335407Y-73846384D01*
X137331179Y-73848096D01*
X137327244Y-73850400D01*
X137327238Y-73850403D01*
X137096889Y-73985279D01*
X137092182Y-73988035D01*
X136875889Y-74161008D01*
X136686832Y-74363393D01*
X136633339Y-74440502D01*
X136531573Y-74587196D01*
X136531570Y-74587201D01*
X136528970Y-74590949D01*
X136526938Y-74595034D01*
X136526936Y-74595037D01*
X136510370Y-74628337D01*
X136405611Y-74838911D01*
X136404190Y-74843245D01*
X136404189Y-74843248D01*
X136327114Y-75078366D01*
X136319339Y-75102082D01*
X136318559Y-75106573D01*
X136318559Y-75106574D01*
X136317600Y-75112098D01*
X136271961Y-75374952D01*
X136271838Y-75379510D01*
X136264975Y-75633148D01*
X136264470Y-75651802D01*
X136265005Y-75656320D01*
X136265005Y-75656326D01*
X136290996Y-75875919D01*
X136297022Y-75926834D01*
X136298206Y-75931236D01*
X136298207Y-75931243D01*
X136316791Y-76000356D01*
X136368936Y-76194286D01*
X136478705Y-76448556D01*
X136624029Y-76684317D01*
X136801865Y-76896629D01*
X137008487Y-77081046D01*
X137094930Y-77138153D01*
X137203302Y-77209747D01*
X137237852Y-77232572D01*
X137237853Y-77232573D01*
X137239567Y-77233705D01*
X137239322Y-77234076D01*
X137287019Y-77282889D01*
X137301308Y-77352433D01*
X137275730Y-77418662D01*
X137218406Y-77460549D01*
X137175768Y-77467992D01*
X132319846Y-77469025D01*
X127820524Y-77469982D01*
X127798876Y-77468112D01*
X127785461Y-77465774D01*
X127780594Y-77465686D01*
X127683864Y-77463937D01*
X127676255Y-77463569D01*
X127658659Y-77462184D01*
X127648836Y-77461022D01*
X127548779Y-77445175D01*
X127519028Y-77440463D01*
X127509320Y-77438531D01*
X127505660Y-77437652D01*
X127496148Y-77434969D01*
X127371155Y-77394356D01*
X127361886Y-77390937D01*
X127361210Y-77390657D01*
X127358426Y-77389504D01*
X127349436Y-77385360D01*
X127232321Y-77325686D01*
X127223681Y-77320847D01*
X127220493Y-77318893D01*
X127212277Y-77313403D01*
X127142427Y-77262655D01*
X127105936Y-77236142D01*
X127098181Y-77230028D01*
X127095309Y-77227575D01*
X127088055Y-77220869D01*
X126995127Y-77127940D01*
X126988412Y-77120676D01*
X126985971Y-77117818D01*
X126979846Y-77110048D01*
X126970775Y-77097562D01*
X126936307Y-77050122D01*
X126902599Y-77003726D01*
X126897105Y-76995504D01*
X126895150Y-76992314D01*
X126890313Y-76983678D01*
X126830641Y-76866566D01*
X126826494Y-76857569D01*
X126825060Y-76854106D01*
X126821641Y-76844837D01*
X126781030Y-76719852D01*
X126778350Y-76710353D01*
X126777466Y-76706669D01*
X126775539Y-76696985D01*
X126757891Y-76585556D01*
X126754977Y-76567156D01*
X126753814Y-76557332D01*
X126752431Y-76539758D01*
X126752064Y-76532152D01*
X126750366Y-76438299D01*
X126750285Y-76433816D01*
X126749241Y-76427355D01*
X126747616Y-76417312D01*
X126746000Y-76397197D01*
X126746000Y-74715000D01*
X127136500Y-74715000D01*
X127136500Y-76415000D01*
X127141727Y-76488079D01*
X127145191Y-76499875D01*
X127179338Y-76616170D01*
X127182904Y-76628316D01*
X127199107Y-76653528D01*
X127257051Y-76743691D01*
X127257053Y-76743694D01*
X127261923Y-76751271D01*
X127268733Y-76757172D01*
X127365569Y-76841082D01*
X127365572Y-76841084D01*
X127372381Y-76846984D01*
X127380579Y-76850728D01*
X127492998Y-76902068D01*
X127505330Y-76907700D01*
X127514245Y-76908982D01*
X127514246Y-76908982D01*
X127645552Y-76927861D01*
X127645559Y-76927862D01*
X127650000Y-76928500D01*
X129350000Y-76928500D01*
X129423079Y-76923273D01*
X129517179Y-76895643D01*
X129554670Y-76884635D01*
X129554672Y-76884634D01*
X129563316Y-76882096D01*
X129630446Y-76838954D01*
X129678691Y-76807949D01*
X129678694Y-76807947D01*
X129686271Y-76803077D01*
X129711086Y-76774439D01*
X129776082Y-76699431D01*
X129776084Y-76699428D01*
X129781984Y-76692619D01*
X129842700Y-76559670D01*
X129843320Y-76555360D01*
X129880432Y-76497610D01*
X129945012Y-76468117D01*
X130015286Y-76478220D01*
X130047335Y-76499270D01*
X130215629Y-76651069D01*
X130220142Y-76653928D01*
X130220144Y-76653929D01*
X130272123Y-76686852D01*
X130410406Y-76774439D01*
X130623184Y-76863228D01*
X130628387Y-76864425D01*
X130628392Y-76864426D01*
X130842678Y-76913701D01*
X130842683Y-76913702D01*
X130847881Y-76914897D01*
X130853209Y-76915200D01*
X130853212Y-76915200D01*
X130999421Y-76923502D01*
X131078071Y-76927968D01*
X131083378Y-76927368D01*
X131083380Y-76927368D01*
X131204272Y-76913701D01*
X131307173Y-76902068D01*
X131312288Y-76900587D01*
X131312292Y-76900586D01*
X131437161Y-76864426D01*
X131528635Y-76837937D01*
X131736125Y-76737409D01*
X131740463Y-76734309D01*
X131740468Y-76734306D01*
X131919370Y-76606459D01*
X131923711Y-76603357D01*
X132086030Y-76439617D01*
X132164679Y-76327503D01*
X132207953Y-76265816D01*
X132263449Y-76221536D01*
X132334075Y-76214289D01*
X132397407Y-76246375D01*
X132421781Y-76277958D01*
X132439550Y-76310617D01*
X132445402Y-76319491D01*
X132581486Y-76492113D01*
X132588750Y-76499875D01*
X132751967Y-76647094D01*
X132760444Y-76653528D01*
X132946122Y-76771136D01*
X132955567Y-76776053D01*
X133158406Y-76860694D01*
X133168545Y-76863950D01*
X133308345Y-76896096D01*
X133322422Y-76895257D01*
X133326000Y-76885999D01*
X133326000Y-75832548D01*
X133834000Y-75832548D01*
X133834000Y-76884941D01*
X133838151Y-76899079D01*
X133848798Y-76900774D01*
X133852192Y-76900096D01*
X134063333Y-76838954D01*
X134073259Y-76835143D01*
X134271065Y-76739307D01*
X134280212Y-76733876D01*
X134459041Y-76606083D01*
X134467149Y-76599182D01*
X134621893Y-76443082D01*
X134628706Y-76434933D01*
X134754940Y-76254988D01*
X134760295Y-76245787D01*
X134854399Y-76047156D01*
X134858123Y-76037197D01*
X134915968Y-75830718D01*
X134914430Y-75822351D01*
X134902137Y-75819000D01*
X133852115Y-75819000D01*
X133836876Y-75823475D01*
X133835671Y-75824865D01*
X133834000Y-75832548D01*
X133326000Y-75832548D01*
X133326000Y-74248717D01*
X133325328Y-74246430D01*
X133834000Y-74246430D01*
X133834000Y-75292885D01*
X133838475Y-75308124D01*
X133839865Y-75309329D01*
X133847548Y-75311000D01*
X134899079Y-75311000D01*
X134912610Y-75307027D01*
X134913876Y-75298218D01*
X134866954Y-75117433D01*
X134863419Y-75107395D01*
X134773147Y-74906998D01*
X134767967Y-74897692D01*
X134645218Y-74715366D01*
X134638557Y-74707080D01*
X134486830Y-74548030D01*
X134478873Y-74540990D01*
X134302523Y-74409782D01*
X134293486Y-74404178D01*
X134097550Y-74304559D01*
X134087699Y-74300559D01*
X133877778Y-74235378D01*
X133867396Y-74233095D01*
X133851959Y-74231049D01*
X133837792Y-74233246D01*
X133834000Y-74246430D01*
X133325328Y-74246430D01*
X133322027Y-74235186D01*
X133311420Y-74233661D01*
X133193554Y-74258391D01*
X133183358Y-74261451D01*
X132978932Y-74342182D01*
X132969396Y-74346916D01*
X132781486Y-74460942D01*
X132772896Y-74467206D01*
X132606884Y-74611264D01*
X132599464Y-74618895D01*
X132460100Y-74788860D01*
X132454079Y-74797622D01*
X132420427Y-74856739D01*
X132369344Y-74906045D01*
X132299714Y-74919906D01*
X132233643Y-74893922D01*
X132206405Y-74864773D01*
X132150013Y-74781011D01*
X132102627Y-74710626D01*
X132067485Y-74673787D01*
X131999930Y-74602972D01*
X131943482Y-74543799D01*
X131922920Y-74528500D01*
X131762786Y-74409357D01*
X131762787Y-74409357D01*
X131758504Y-74406171D01*
X131753753Y-74403755D01*
X131753749Y-74403753D01*
X131557740Y-74304097D01*
X131557739Y-74304097D01*
X131552982Y-74301678D01*
X131427965Y-74262859D01*
X131337895Y-74234891D01*
X131337889Y-74234890D01*
X131332792Y-74233307D01*
X131212509Y-74217365D01*
X131109515Y-74203714D01*
X131109510Y-74203714D01*
X131104230Y-74203014D01*
X131098900Y-74203214D01*
X131098899Y-74203214D01*
X131005320Y-74206727D01*
X130873831Y-74211663D01*
X130846656Y-74217365D01*
X130653411Y-74257912D01*
X130653408Y-74257913D01*
X130648184Y-74259009D01*
X130433740Y-74343697D01*
X130236631Y-74463306D01*
X130232601Y-74466803D01*
X130072177Y-74606011D01*
X130062492Y-74614415D01*
X130057339Y-74620700D01*
X130056364Y-74621365D01*
X130055390Y-74622366D01*
X130055186Y-74622168D01*
X129998681Y-74660695D01*
X129927710Y-74662628D01*
X129866961Y-74625885D01*
X129839008Y-74576309D01*
X129824852Y-74528100D01*
X129817096Y-74501684D01*
X129781039Y-74445579D01*
X129742949Y-74386309D01*
X129742947Y-74386306D01*
X129738077Y-74378729D01*
X129727801Y-74369825D01*
X129634431Y-74288918D01*
X129634428Y-74288916D01*
X129627619Y-74283016D01*
X129619421Y-74279272D01*
X129502864Y-74226042D01*
X129502863Y-74226042D01*
X129494670Y-74222300D01*
X129485755Y-74221018D01*
X129485754Y-74221018D01*
X129354448Y-74202139D01*
X129354441Y-74202138D01*
X129350000Y-74201500D01*
X127650000Y-74201500D01*
X127576921Y-74206727D01*
X127523884Y-74222300D01*
X127445330Y-74245365D01*
X127445328Y-74245366D01*
X127436684Y-74247904D01*
X127416350Y-74260972D01*
X127321309Y-74322051D01*
X127321306Y-74322053D01*
X127313729Y-74326923D01*
X127307828Y-74333733D01*
X127223918Y-74430569D01*
X127223916Y-74430572D01*
X127218016Y-74437381D01*
X127214272Y-74445579D01*
X127161881Y-74560300D01*
X127157300Y-74570330D01*
X127156018Y-74579245D01*
X127156018Y-74579246D01*
X127137139Y-74710552D01*
X127137138Y-74710559D01*
X127136500Y-74715000D01*
X126746000Y-74715000D01*
X126746000Y-70376896D01*
X126766002Y-70308775D01*
X126819658Y-70262282D01*
X126872000Y-70250896D01*
X126881301Y-70250896D01*
X126949422Y-70270898D01*
X126970397Y-70287801D01*
X127247596Y-70565001D01*
X127281621Y-70627313D01*
X127284500Y-70654096D01*
X127284500Y-72484386D01*
X127293891Y-72564935D01*
X127299117Y-72609755D01*
X127299978Y-72617143D01*
X127302474Y-72624021D01*
X127302475Y-72624023D01*
X127344187Y-72738937D01*
X127360313Y-72783364D01*
X127416850Y-72869598D01*
X127439321Y-72903871D01*
X127457269Y-72931247D01*
X127585645Y-73052858D01*
X127738555Y-73141675D01*
X127870169Y-73181537D01*
X127894738Y-73188978D01*
X127907796Y-73192933D01*
X127914236Y-73193508D01*
X127914237Y-73193508D01*
X127984185Y-73199751D01*
X127984191Y-73199751D01*
X127986978Y-73200000D01*
X128735886Y-73200000D01*
X128831106Y-73188898D01*
X128861371Y-73185370D01*
X128861372Y-73185370D01*
X128868643Y-73184522D01*
X128875521Y-73182026D01*
X128875523Y-73182025D01*
X129027985Y-73126684D01*
X129034864Y-73124187D01*
X129151337Y-73047824D01*
X129176628Y-73031243D01*
X129176629Y-73031242D01*
X129182747Y-73027231D01*
X129304358Y-72898855D01*
X129393175Y-72745945D01*
X129444433Y-72576704D01*
X129445016Y-72570177D01*
X129451251Y-72500315D01*
X129451251Y-72500309D01*
X129451500Y-72497522D01*
X129451500Y-71609048D01*
X130235000Y-71609048D01*
X130235000Y-72480723D01*
X130235424Y-72488024D01*
X130249617Y-72609755D01*
X130252963Y-72623910D01*
X130308263Y-72776261D01*
X130314773Y-72789260D01*
X130403641Y-72924806D01*
X130412965Y-72935958D01*
X130530629Y-73047422D01*
X130542276Y-73056135D01*
X130682429Y-73137543D01*
X130695754Y-73143337D01*
X130851700Y-73190568D01*
X130864323Y-73193016D01*
X130934184Y-73199251D01*
X130939779Y-73199500D01*
X131045885Y-73199500D01*
X131061124Y-73195025D01*
X131062329Y-73193635D01*
X131064000Y-73185952D01*
X131064000Y-71613615D01*
X131059525Y-71598376D01*
X131058135Y-71597171D01*
X131050452Y-71595500D01*
X130253115Y-71595500D01*
X130237876Y-71599975D01*
X130236671Y-71601365D01*
X130235000Y-71609048D01*
X129451500Y-71609048D01*
X129451500Y-70198614D01*
X129450295Y-70188279D01*
X130235000Y-70188279D01*
X130235000Y-71069385D01*
X130239475Y-71084624D01*
X130240865Y-71085829D01*
X130248548Y-71087500D01*
X131045885Y-71087500D01*
X131061124Y-71083025D01*
X131062329Y-71081635D01*
X131064000Y-71073952D01*
X131064000Y-69501615D01*
X131059525Y-69486376D01*
X131058135Y-69485171D01*
X131050452Y-69483500D01*
X130953777Y-69483500D01*
X130946476Y-69483924D01*
X130824745Y-69498117D01*
X130810590Y-69501463D01*
X130658239Y-69556763D01*
X130645240Y-69563273D01*
X130509694Y-69652141D01*
X130498542Y-69661465D01*
X130387078Y-69779129D01*
X130378365Y-69790776D01*
X130296957Y-69930929D01*
X130291163Y-69944254D01*
X130243932Y-70100200D01*
X130241484Y-70112823D01*
X130235249Y-70182684D01*
X130235000Y-70188279D01*
X129450295Y-70188279D01*
X129439407Y-70094887D01*
X129436870Y-70073129D01*
X129436870Y-70073128D01*
X129436022Y-70065857D01*
X129433089Y-70057775D01*
X129378184Y-69906515D01*
X129375687Y-69899636D01*
X129316121Y-69808782D01*
X129295498Y-69740848D01*
X129314878Y-69672547D01*
X129321902Y-69663502D01*
X129321539Y-69663230D01*
X129334635Y-69645724D01*
X129416043Y-69505571D01*
X129421837Y-69492246D01*
X129469068Y-69336300D01*
X129471516Y-69323677D01*
X129477751Y-69253816D01*
X129478000Y-69248221D01*
X129478000Y-69204615D01*
X129473525Y-69189376D01*
X129472135Y-69188171D01*
X129464452Y-69186500D01*
X128142000Y-69186500D01*
X128073879Y-69166498D01*
X128027386Y-69112842D01*
X128016000Y-69060500D01*
X128016000Y-68804500D01*
X128036002Y-68736379D01*
X128089658Y-68689886D01*
X128142000Y-68678500D01*
X129448874Y-68678500D01*
X129516995Y-68698502D01*
G37*
G04 #@! TD.AperFunction*
G04 #@! TA.AperFunction,Conductor*
G36*
X152732646Y-67457502D02*
G01*
X152769762Y-67510834D01*
X152770000Y-67520000D01*
X166213000Y-67520000D01*
X166281121Y-67540002D01*
X166327614Y-67593658D01*
X166339000Y-67646000D01*
X166339000Y-68863354D01*
X166318998Y-68931475D01*
X166265342Y-68977968D01*
X166211297Y-68989342D01*
X162403086Y-68937880D01*
X159600000Y-68900000D01*
X159600000Y-75132662D01*
X159579998Y-75200783D01*
X159526342Y-75247276D01*
X159456068Y-75257380D01*
X159391488Y-75227886D01*
X159356848Y-75179046D01*
X159308909Y-75057966D01*
X159301332Y-75044184D01*
X159212966Y-74922559D01*
X159202198Y-74911092D01*
X159086361Y-74815264D01*
X159073079Y-74806835D01*
X158937055Y-74742827D01*
X158922087Y-74737964D01*
X158791824Y-74713114D01*
X158780039Y-74712000D01*
X158409615Y-74712000D01*
X158394376Y-74716475D01*
X158393171Y-74717865D01*
X158391500Y-74725548D01*
X158391500Y-76309885D01*
X158395975Y-76325124D01*
X158397365Y-76326329D01*
X158405048Y-76328000D01*
X158760621Y-76328000D01*
X158768511Y-76327503D01*
X158882016Y-76313165D01*
X158897249Y-76309254D01*
X159037034Y-76253909D01*
X159050816Y-76246332D01*
X159172441Y-76157966D01*
X159183908Y-76147198D01*
X159279736Y-76031361D01*
X159288165Y-76018079D01*
X159352174Y-75882051D01*
X159354167Y-75875919D01*
X159394241Y-75817313D01*
X159459637Y-75789676D01*
X159529594Y-75801783D01*
X159581900Y-75849789D01*
X159600000Y-75914855D01*
X159600000Y-77337249D01*
X159579998Y-77405370D01*
X159526342Y-77451863D01*
X159474028Y-77463249D01*
X158759900Y-77463401D01*
X157167667Y-77463739D01*
X157099542Y-77443751D01*
X157053037Y-77390106D01*
X157042919Y-77319834D01*
X157072398Y-77255247D01*
X157121257Y-77220587D01*
X157162273Y-77204348D01*
X157162277Y-77204346D01*
X157169644Y-77201429D01*
X157201471Y-77178306D01*
X157297783Y-77108331D01*
X157304197Y-77103671D01*
X157410212Y-76975521D01*
X157481026Y-76825033D01*
X157482511Y-76817250D01*
X157482512Y-76817246D01*
X157507386Y-76686852D01*
X157507386Y-76686849D01*
X157508500Y-76681011D01*
X157508500Y-76454000D01*
X157528502Y-76385879D01*
X157582158Y-76339386D01*
X157634500Y-76328000D01*
X157865385Y-76328000D01*
X157880624Y-76323525D01*
X157881829Y-76322135D01*
X157883500Y-76314452D01*
X157883500Y-75792115D01*
X157879025Y-75776876D01*
X157877635Y-75775671D01*
X157869952Y-75774000D01*
X157262667Y-75774000D01*
X157206511Y-75757684D01*
X157205521Y-75759788D01*
X157055033Y-75688974D01*
X157047250Y-75687489D01*
X157047246Y-75687488D01*
X156916852Y-75662614D01*
X156916849Y-75662614D01*
X156911011Y-75661500D01*
X155635421Y-75661500D01*
X155624443Y-75662887D01*
X155617852Y-75663719D01*
X155567312Y-75659741D01*
X155560636Y-75656852D01*
X155552807Y-75655612D01*
X155516965Y-75649935D01*
X155505344Y-75647528D01*
X155468282Y-75638013D01*
X155468281Y-75638013D01*
X155462525Y-75636535D01*
X155461969Y-75636500D01*
X155442048Y-75636500D01*
X155422338Y-75634949D01*
X155410386Y-75633056D01*
X155410385Y-75633056D01*
X155402556Y-75631816D01*
X155394664Y-75632562D01*
X155358918Y-75635941D01*
X155347060Y-75636500D01*
X154773478Y-75636500D01*
X154705357Y-75616498D01*
X154658864Y-75562842D01*
X154655039Y-75553490D01*
X154630185Y-75485017D01*
X154630184Y-75485015D01*
X154627687Y-75478136D01*
X154530731Y-75330253D01*
X154402355Y-75208642D01*
X154249445Y-75119825D01*
X154103164Y-75075521D01*
X154086395Y-75070442D01*
X154086394Y-75070442D01*
X154080204Y-75068567D01*
X154073764Y-75067992D01*
X154073763Y-75067992D01*
X154003815Y-75061749D01*
X154003809Y-75061749D01*
X154001022Y-75061500D01*
X153573316Y-75061500D01*
X153505195Y-75041498D01*
X153458702Y-74987842D01*
X153448598Y-74917568D01*
X153478092Y-74852988D01*
X153499255Y-74833564D01*
X153525707Y-74814346D01*
X153525709Y-74814344D01*
X153531051Y-74810463D01*
X153547040Y-74792705D01*
X153654418Y-74673450D01*
X153654419Y-74673449D01*
X153658837Y-74668542D01*
X153703317Y-74591500D01*
X153754699Y-74542507D01*
X153812436Y-74528500D01*
X154480406Y-74528500D01*
X154548527Y-74548502D01*
X154569501Y-74565405D01*
X155080034Y-75075938D01*
X155157302Y-75135873D01*
X155182008Y-75161368D01*
X155191329Y-75174197D01*
X155319479Y-75280212D01*
X155326652Y-75283587D01*
X155326653Y-75283588D01*
X155354667Y-75296770D01*
X155469967Y-75351026D01*
X155477750Y-75352511D01*
X155477754Y-75352512D01*
X155608148Y-75377386D01*
X155608151Y-75377386D01*
X155613989Y-75378500D01*
X156889579Y-75378500D01*
X156953207Y-75370462D01*
X157007141Y-75363649D01*
X157007144Y-75363648D01*
X157015006Y-75362655D01*
X157022372Y-75359738D01*
X157022374Y-75359738D01*
X157162275Y-75304347D01*
X157162277Y-75304346D01*
X157169644Y-75301429D01*
X157185288Y-75290063D01*
X157259348Y-75266000D01*
X157865385Y-75266000D01*
X157880624Y-75261525D01*
X157881829Y-75260135D01*
X157883500Y-75252452D01*
X157883500Y-74730115D01*
X157879025Y-74714876D01*
X157877635Y-74713671D01*
X157869952Y-74712000D01*
X157634500Y-74712000D01*
X157566379Y-74691998D01*
X157519886Y-74638342D01*
X157508500Y-74586000D01*
X157508500Y-74380421D01*
X157499430Y-74308621D01*
X157493649Y-74262859D01*
X157493648Y-74262856D01*
X157492655Y-74254994D01*
X157488843Y-74245365D01*
X157434347Y-74107725D01*
X157434346Y-74107723D01*
X157431429Y-74100356D01*
X157393375Y-74047978D01*
X157338331Y-73972217D01*
X157333671Y-73965803D01*
X157205521Y-73859788D01*
X157055033Y-73788974D01*
X157047250Y-73787489D01*
X157047246Y-73787488D01*
X156916852Y-73762614D01*
X156916849Y-73762614D01*
X156911011Y-73761500D01*
X155635421Y-73761500D01*
X155631491Y-73761996D01*
X155631482Y-73761997D01*
X155627388Y-73762514D01*
X155557298Y-73751205D01*
X155522506Y-73726602D01*
X155490405Y-73694501D01*
X155456379Y-73632189D01*
X155453500Y-73605406D01*
X155453500Y-73530421D01*
X155443909Y-73454500D01*
X155438649Y-73412859D01*
X155438648Y-73412856D01*
X155437655Y-73404994D01*
X155414051Y-73345377D01*
X155407572Y-73274678D01*
X155440344Y-73211698D01*
X155501963Y-73176434D01*
X155567725Y-73178404D01*
X155709796Y-73221433D01*
X155716236Y-73222008D01*
X155716237Y-73222008D01*
X155786185Y-73228251D01*
X155786191Y-73228251D01*
X155788978Y-73228500D01*
X156412886Y-73228500D01*
X156508106Y-73217398D01*
X156538371Y-73213870D01*
X156538372Y-73213870D01*
X156545643Y-73213022D01*
X156552521Y-73210526D01*
X156552523Y-73210525D01*
X156704985Y-73155184D01*
X156711864Y-73152687D01*
X156821170Y-73081023D01*
X156853628Y-73059743D01*
X156853629Y-73059742D01*
X156859747Y-73055731D01*
X156864778Y-73050420D01*
X156864783Y-73050416D01*
X156927547Y-72984160D01*
X156988916Y-72948461D01*
X157059842Y-72951608D01*
X157105673Y-72979339D01*
X157207629Y-73075922D01*
X157219276Y-73084635D01*
X157359429Y-73166043D01*
X157372754Y-73171837D01*
X157528700Y-73219068D01*
X157541323Y-73221516D01*
X157611184Y-73227751D01*
X157616779Y-73228000D01*
X157660385Y-73228000D01*
X157675624Y-73223525D01*
X157676829Y-73222135D01*
X157678500Y-73214452D01*
X157678500Y-72287548D01*
X158186500Y-72287548D01*
X158186500Y-73209885D01*
X158190975Y-73225124D01*
X158192365Y-73226329D01*
X158200048Y-73228000D01*
X158234223Y-73228000D01*
X158241524Y-73227576D01*
X158363255Y-73213383D01*
X158377410Y-73210037D01*
X158529761Y-73154737D01*
X158542760Y-73148227D01*
X158678306Y-73059359D01*
X158689458Y-73050035D01*
X158800922Y-72932371D01*
X158809635Y-72920724D01*
X158891043Y-72780571D01*
X158896837Y-72767246D01*
X158944068Y-72611300D01*
X158946516Y-72598677D01*
X158952751Y-72528816D01*
X158953000Y-72523221D01*
X158953000Y-72292115D01*
X158948525Y-72276876D01*
X158947135Y-72275671D01*
X158939452Y-72274000D01*
X158204615Y-72274000D01*
X158189376Y-72278475D01*
X158188171Y-72279865D01*
X158186500Y-72287548D01*
X157678500Y-72287548D01*
X157678500Y-70868292D01*
X157691051Y-70825548D01*
X158186500Y-70825548D01*
X158186500Y-71747885D01*
X158190975Y-71763124D01*
X158192365Y-71764329D01*
X158200048Y-71766000D01*
X158934885Y-71766000D01*
X158950124Y-71761525D01*
X158951329Y-71760135D01*
X158953000Y-71752452D01*
X158953000Y-71530777D01*
X158952576Y-71523476D01*
X158938383Y-71401745D01*
X158935037Y-71387590D01*
X158879737Y-71235239D01*
X158873227Y-71222240D01*
X158784359Y-71086694D01*
X158775035Y-71075542D01*
X158657371Y-70964078D01*
X158645724Y-70955365D01*
X158505571Y-70873957D01*
X158492246Y-70868163D01*
X158336300Y-70820932D01*
X158323677Y-70818484D01*
X158253816Y-70812249D01*
X158248221Y-70812000D01*
X158204615Y-70812000D01*
X158189376Y-70816475D01*
X158188171Y-70817865D01*
X158186500Y-70825548D01*
X157691051Y-70825548D01*
X157698502Y-70800171D01*
X157709276Y-70785779D01*
X157731598Y-70760018D01*
X157769068Y-70636300D01*
X157771516Y-70623677D01*
X157777751Y-70553816D01*
X157778000Y-70548221D01*
X157778000Y-70292115D01*
X157773525Y-70276876D01*
X157772135Y-70275671D01*
X157764452Y-70274000D01*
X156642000Y-70274000D01*
X156573879Y-70253998D01*
X156527386Y-70200342D01*
X156516000Y-70148000D01*
X156516000Y-68805115D01*
X156514659Y-68800548D01*
X157024000Y-68800548D01*
X157024000Y-69747885D01*
X157028475Y-69763124D01*
X157029865Y-69764329D01*
X157037548Y-69766000D01*
X157759885Y-69766000D01*
X157775124Y-69761525D01*
X157776329Y-69760135D01*
X157778000Y-69752452D01*
X157778000Y-69505777D01*
X157777576Y-69498476D01*
X157763383Y-69376745D01*
X157760037Y-69362590D01*
X157704737Y-69210239D01*
X157698227Y-69197240D01*
X157609359Y-69061694D01*
X157600035Y-69050542D01*
X157482371Y-68939078D01*
X157470724Y-68930365D01*
X157330571Y-68848957D01*
X157317246Y-68843163D01*
X157161300Y-68795932D01*
X157148677Y-68793484D01*
X157078816Y-68787249D01*
X157073221Y-68787000D01*
X157042115Y-68787000D01*
X157026876Y-68791475D01*
X157025671Y-68792865D01*
X157024000Y-68800548D01*
X156514659Y-68800548D01*
X156511525Y-68789876D01*
X156510135Y-68788671D01*
X156502452Y-68787000D01*
X156480777Y-68787000D01*
X156473476Y-68787424D01*
X156351745Y-68801617D01*
X156337590Y-68804963D01*
X156185239Y-68860263D01*
X156172240Y-68866773D01*
X156036694Y-68955641D01*
X156025542Y-68964965D01*
X155911081Y-69085793D01*
X155849712Y-69121491D01*
X155778785Y-69118344D01*
X155720819Y-69077350D01*
X155714237Y-69068226D01*
X155709745Y-69061375D01*
X155709744Y-69061374D01*
X155705731Y-69055253D01*
X155577355Y-68933642D01*
X155424445Y-68844825D01*
X155255204Y-68793567D01*
X155248764Y-68792992D01*
X155248763Y-68792992D01*
X155178815Y-68786749D01*
X155178809Y-68786749D01*
X155176022Y-68786500D01*
X154577114Y-68786500D01*
X154548158Y-68789876D01*
X154508081Y-68794548D01*
X154438102Y-68782569D01*
X154404395Y-68758491D01*
X153853391Y-68207487D01*
X153846031Y-68199399D01*
X153841973Y-68193005D01*
X153793121Y-68147130D01*
X153790280Y-68144376D01*
X153769966Y-68124062D01*
X153766555Y-68121417D01*
X153757533Y-68113711D01*
X153731077Y-68088867D01*
X153725301Y-68083443D01*
X153718357Y-68079626D01*
X153718355Y-68079624D01*
X153707547Y-68073682D01*
X153691023Y-68062828D01*
X153681286Y-68055275D01*
X153681285Y-68055275D01*
X153675023Y-68050417D01*
X153634447Y-68032858D01*
X153623790Y-68027637D01*
X153611761Y-68021024D01*
X153585048Y-68006338D01*
X153577365Y-68004366D01*
X153577364Y-68004365D01*
X153565432Y-68001301D01*
X153546728Y-67994897D01*
X153535415Y-67990001D01*
X153535408Y-67989999D01*
X153528136Y-67986852D01*
X153520312Y-67985613D01*
X153520309Y-67985612D01*
X153484465Y-67979935D01*
X153472844Y-67977528D01*
X153435782Y-67968013D01*
X153435781Y-67968013D01*
X153430025Y-67966535D01*
X153429469Y-67966500D01*
X153409548Y-67966500D01*
X153389838Y-67964949D01*
X153377886Y-67963056D01*
X153377885Y-67963056D01*
X153370056Y-67961816D01*
X153362164Y-67962562D01*
X153326418Y-67965941D01*
X153314560Y-67966500D01*
X152400668Y-67966500D01*
X152332547Y-67946498D01*
X152286054Y-67892842D01*
X152275950Y-67822568D01*
X152305444Y-67757988D01*
X152326607Y-67738564D01*
X152375907Y-67702746D01*
X152375909Y-67702744D01*
X152381251Y-67698863D01*
X152385673Y-67693952D01*
X152504618Y-67561850D01*
X152504619Y-67561849D01*
X152509037Y-67556942D01*
X152545640Y-67493544D01*
X152597021Y-67444552D01*
X152666735Y-67431115D01*
X152732646Y-67457502D01*
G37*
G04 #@! TD.AperFunction*
G04 #@! TA.AperFunction,Conductor*
G36*
X145503642Y-76198502D02*
G01*
X145518034Y-76209276D01*
X145523865Y-76214329D01*
X145531548Y-76216000D01*
X146398000Y-76216000D01*
X146466121Y-76236002D01*
X146512614Y-76289658D01*
X146524000Y-76342000D01*
X146524000Y-76598000D01*
X146503998Y-76666121D01*
X146450342Y-76712614D01*
X146398000Y-76724000D01*
X145079479Y-76724000D01*
X145011358Y-76703998D01*
X144996966Y-76693224D01*
X144991135Y-76688171D01*
X144983452Y-76686500D01*
X144142000Y-76686500D01*
X144073879Y-76666498D01*
X144027386Y-76612842D01*
X144016000Y-76560500D01*
X144016000Y-76304500D01*
X144036002Y-76236379D01*
X144089658Y-76189886D01*
X144142000Y-76178500D01*
X145435521Y-76178500D01*
X145503642Y-76198502D01*
G37*
G04 #@! TD.AperFunction*
G04 #@! TA.AperFunction,Conductor*
G36*
X146950020Y-69704014D02*
G01*
X146957411Y-69705666D01*
X146965337Y-69705417D01*
X146965338Y-69705417D01*
X147024366Y-69703562D01*
X147028323Y-69703500D01*
X147057078Y-69703500D01*
X147057078Y-69703901D01*
X147124075Y-69719080D01*
X147173843Y-69769713D01*
X147188337Y-69839214D01*
X147162955Y-69905518D01*
X147157964Y-69911657D01*
X147093918Y-69985569D01*
X147093916Y-69985572D01*
X147088016Y-69992381D01*
X147084272Y-70000579D01*
X147038777Y-70100200D01*
X147027300Y-70125330D01*
X147026018Y-70134245D01*
X147026018Y-70134246D01*
X147007139Y-70265552D01*
X147007138Y-70265559D01*
X147006500Y-70270000D01*
X147006500Y-71270000D01*
X147011727Y-71343079D01*
X147028220Y-71399250D01*
X147047938Y-71466402D01*
X147052904Y-71483316D01*
X147062074Y-71497585D01*
X147127051Y-71598691D01*
X147127053Y-71598694D01*
X147131923Y-71606271D01*
X147138733Y-71612172D01*
X147235569Y-71696082D01*
X147235572Y-71696084D01*
X147242381Y-71701984D01*
X147250578Y-71705728D01*
X147250582Y-71705730D01*
X147312843Y-71734164D01*
X147366498Y-71780657D01*
X147386500Y-71848777D01*
X147386500Y-72067481D01*
X147366498Y-72135602D01*
X147354136Y-72151791D01*
X147296137Y-72216206D01*
X147280963Y-72233058D01*
X147185476Y-72398446D01*
X147183434Y-72404731D01*
X147131381Y-72564935D01*
X147126462Y-72580073D01*
X147125772Y-72586636D01*
X147125772Y-72586637D01*
X147121843Y-72624023D01*
X147106500Y-72770000D01*
X147107190Y-72776565D01*
X147124124Y-72937678D01*
X147126462Y-72959927D01*
X147128502Y-72966205D01*
X147128502Y-72966206D01*
X147157722Y-73056135D01*
X147185476Y-73141554D01*
X147188779Y-73147276D01*
X147188780Y-73147277D01*
X147219042Y-73199692D01*
X147280963Y-73306942D01*
X147285381Y-73311849D01*
X147285382Y-73311850D01*
X147382708Y-73419942D01*
X147408749Y-73448863D01*
X147414091Y-73452744D01*
X147414093Y-73452746D01*
X147557521Y-73556952D01*
X147563250Y-73561114D01*
X147569278Y-73563798D01*
X147569280Y-73563799D01*
X147635139Y-73593121D01*
X147696684Y-73620523D01*
X147750779Y-73666502D01*
X147766330Y-73700131D01*
X147766475Y-73700624D01*
X147767865Y-73701829D01*
X147775548Y-73703500D01*
X149359885Y-73703500D01*
X149375124Y-73699025D01*
X149376329Y-73697635D01*
X149378000Y-73689952D01*
X149378000Y-73454500D01*
X149398002Y-73386379D01*
X149451658Y-73339886D01*
X149504000Y-73328500D01*
X149535500Y-73328500D01*
X149603621Y-73348502D01*
X149650114Y-73402158D01*
X149661500Y-73454500D01*
X149661500Y-74260500D01*
X149641498Y-74328621D01*
X149587842Y-74375114D01*
X149535500Y-74386500D01*
X149504000Y-74386500D01*
X149435879Y-74366498D01*
X149389386Y-74312842D01*
X149378000Y-74260500D01*
X149378000Y-74229615D01*
X149373525Y-74214376D01*
X149372135Y-74213171D01*
X149364452Y-74211500D01*
X147780115Y-74211500D01*
X147764876Y-74215975D01*
X147763671Y-74217365D01*
X147762000Y-74225048D01*
X147762000Y-74260500D01*
X147741998Y-74328621D01*
X147688342Y-74375114D01*
X147636000Y-74386500D01*
X147628416Y-74386500D01*
X147560295Y-74366498D01*
X147513802Y-74312842D01*
X147503264Y-74275091D01*
X147488870Y-74151629D01*
X147488870Y-74151628D01*
X147488022Y-74144357D01*
X147483392Y-74131600D01*
X147430184Y-73985015D01*
X147427687Y-73978136D01*
X147330731Y-73830253D01*
X147202355Y-73708642D01*
X147049445Y-73619825D01*
X146880204Y-73568567D01*
X146873764Y-73567992D01*
X146873763Y-73567992D01*
X146803815Y-73561749D01*
X146803809Y-73561749D01*
X146801022Y-73561500D01*
X145752114Y-73561500D01*
X145748480Y-73561924D01*
X145748475Y-73561924D01*
X145715695Y-73565746D01*
X145647321Y-73573718D01*
X145577343Y-73561740D01*
X145524949Y-73513829D01*
X145506775Y-73445198D01*
X145510993Y-73418408D01*
X145512700Y-73414670D01*
X145513983Y-73405749D01*
X145532861Y-73274448D01*
X145532862Y-73274441D01*
X145533500Y-73270000D01*
X145533500Y-73052918D01*
X145553502Y-72984797D01*
X145607158Y-72938304D01*
X145671350Y-72927824D01*
X145674513Y-72928496D01*
X145865487Y-72928496D01*
X145871939Y-72927124D01*
X145871944Y-72927124D01*
X145981337Y-72903871D01*
X146052287Y-72888790D01*
X146095393Y-72869598D01*
X146220720Y-72813799D01*
X146220722Y-72813798D01*
X146226750Y-72811114D01*
X146232092Y-72807233D01*
X146375907Y-72702746D01*
X146375909Y-72702744D01*
X146381251Y-72698863D01*
X146385673Y-72693952D01*
X146504618Y-72561850D01*
X146504619Y-72561849D01*
X146509037Y-72556942D01*
X146586511Y-72422754D01*
X146601220Y-72397277D01*
X146601221Y-72397276D01*
X146604524Y-72391554D01*
X146636834Y-72292115D01*
X146661498Y-72216206D01*
X146661498Y-72216205D01*
X146663538Y-72209927D01*
X146683500Y-72020000D01*
X146672249Y-71912949D01*
X146664228Y-71836637D01*
X146664228Y-71836636D01*
X146663538Y-71830073D01*
X146655207Y-71804431D01*
X146607113Y-71656415D01*
X146604524Y-71648446D01*
X146589526Y-71622469D01*
X146572789Y-71553474D01*
X146596010Y-71486382D01*
X146599115Y-71482339D01*
X146608165Y-71468079D01*
X146672173Y-71332055D01*
X146677036Y-71317087D01*
X146691400Y-71241794D01*
X146690129Y-71228755D01*
X146675207Y-71224000D01*
X146242559Y-71224000D01*
X146191310Y-71213107D01*
X146058318Y-71153895D01*
X146058317Y-71153895D01*
X146052287Y-71151210D01*
X145958887Y-71131357D01*
X145871944Y-71112876D01*
X145871939Y-71112876D01*
X145865487Y-71111504D01*
X145674513Y-71111504D01*
X145668061Y-71112876D01*
X145668056Y-71112876D01*
X145605864Y-71126096D01*
X145584782Y-71130577D01*
X145554628Y-71133268D01*
X145547887Y-71133056D01*
X145540056Y-71131816D01*
X145532164Y-71132562D01*
X145496418Y-71135941D01*
X145484560Y-71136500D01*
X143348383Y-71136500D01*
X143337479Y-71135986D01*
X143330088Y-71134334D01*
X143322162Y-71134583D01*
X143322161Y-71134583D01*
X143263134Y-71136438D01*
X143259176Y-71136500D01*
X143230422Y-71136500D01*
X143226155Y-71137039D01*
X143214313Y-71137972D01*
X143182665Y-71138967D01*
X143178040Y-71139112D01*
X143170117Y-71139361D01*
X143150667Y-71145012D01*
X143131305Y-71149022D01*
X143111212Y-71151560D01*
X143077349Y-71164967D01*
X143070108Y-71167834D01*
X143058878Y-71171679D01*
X143024034Y-71181802D01*
X143024032Y-71181803D01*
X143016421Y-71184014D01*
X143009597Y-71188050D01*
X142998988Y-71194324D01*
X142981241Y-71203018D01*
X142962400Y-71210478D01*
X142955984Y-71215139D01*
X142955983Y-71215140D01*
X142928562Y-71235063D01*
X142861694Y-71258922D01*
X142792543Y-71242843D01*
X142743062Y-71191929D01*
X142728500Y-71133128D01*
X142728500Y-70941608D01*
X142748502Y-70873487D01*
X142802158Y-70826994D01*
X142878109Y-70817840D01*
X142933989Y-70828500D01*
X144209579Y-70828500D01*
X144269486Y-70820932D01*
X144327141Y-70813649D01*
X144327144Y-70813648D01*
X144335006Y-70812655D01*
X144342372Y-70809738D01*
X144342374Y-70809738D01*
X144482275Y-70754347D01*
X144482277Y-70754346D01*
X144489644Y-70751429D01*
X144505288Y-70740063D01*
X144579348Y-70716000D01*
X145185385Y-70716000D01*
X145200624Y-70711525D01*
X145201829Y-70710135D01*
X145203500Y-70702452D01*
X145203500Y-70180115D01*
X145202159Y-70175548D01*
X145711500Y-70175548D01*
X145711500Y-70697885D01*
X145715975Y-70713124D01*
X145717365Y-70714329D01*
X145725048Y-70716000D01*
X146676747Y-70716000D01*
X146690624Y-70711925D01*
X146692661Y-70698574D01*
X146688165Y-70662984D01*
X146684254Y-70647751D01*
X146628909Y-70507966D01*
X146621332Y-70494184D01*
X146532966Y-70372559D01*
X146522198Y-70361092D01*
X146406361Y-70265264D01*
X146393079Y-70256835D01*
X146257055Y-70192827D01*
X146242087Y-70187964D01*
X146111824Y-70163114D01*
X146100039Y-70162000D01*
X145729615Y-70162000D01*
X145714376Y-70166475D01*
X145713171Y-70167865D01*
X145711500Y-70175548D01*
X145202159Y-70175548D01*
X145199025Y-70164876D01*
X145197635Y-70163671D01*
X145189952Y-70162000D01*
X144954500Y-70162000D01*
X144886379Y-70141998D01*
X144839886Y-70088342D01*
X144828500Y-70036000D01*
X144828500Y-70004500D01*
X144848502Y-69936379D01*
X144902158Y-69889886D01*
X144954500Y-69878500D01*
X146084579Y-69878500D01*
X146143693Y-69871032D01*
X146202141Y-69863649D01*
X146202144Y-69863648D01*
X146210006Y-69862655D01*
X146217372Y-69859738D01*
X146217374Y-69859738D01*
X146357275Y-69804347D01*
X146357277Y-69804346D01*
X146364644Y-69801429D01*
X146375466Y-69793567D01*
X146466311Y-69727564D01*
X146540372Y-69703500D01*
X146939116Y-69703500D01*
X146950020Y-69704014D01*
G37*
G04 #@! TD.AperFunction*
G04 #@! TA.AperFunction,Conductor*
G36*
X150040071Y-69652452D02*
G01*
X150080556Y-69710774D01*
X150086036Y-69744601D01*
X150091475Y-69763124D01*
X150092865Y-69764329D01*
X150100548Y-69766000D01*
X151235500Y-69766000D01*
X151303621Y-69786002D01*
X151350114Y-69839658D01*
X151361500Y-69892000D01*
X151361500Y-71209885D01*
X151365975Y-71225124D01*
X151367365Y-71226329D01*
X151375048Y-71228000D01*
X151409223Y-71228000D01*
X151416524Y-71227576D01*
X151538255Y-71213383D01*
X151552410Y-71210037D01*
X151704761Y-71154737D01*
X151717760Y-71148227D01*
X151853306Y-71059359D01*
X151864458Y-71050035D01*
X151926845Y-70984178D01*
X151988214Y-70948480D01*
X152059141Y-70951628D01*
X152104971Y-70979358D01*
X152212645Y-71081358D01*
X152236285Y-71095089D01*
X152285144Y-71146599D01*
X152299000Y-71204043D01*
X152299000Y-71835500D01*
X152278998Y-71903621D01*
X152225342Y-71950114D01*
X152173000Y-71961500D01*
X151705421Y-71961500D01*
X151646307Y-71968968D01*
X151587859Y-71976351D01*
X151587856Y-71976352D01*
X151579994Y-71977345D01*
X151572628Y-71980262D01*
X151572626Y-71980262D01*
X151432725Y-72035653D01*
X151432723Y-72035654D01*
X151425356Y-72038571D01*
X151418945Y-72043229D01*
X151418943Y-72043230D01*
X151332118Y-72106312D01*
X151290803Y-72136329D01*
X151184788Y-72264479D01*
X151181413Y-72271652D01*
X151181412Y-72271653D01*
X151167309Y-72301623D01*
X151113974Y-72414967D01*
X151112489Y-72422750D01*
X151112488Y-72422754D01*
X151093323Y-72523221D01*
X151086500Y-72558989D01*
X151086500Y-72663467D01*
X151066498Y-72731588D01*
X151012842Y-72778081D01*
X150942568Y-72788185D01*
X150906852Y-72777475D01*
X150900245Y-72774366D01*
X150825033Y-72738974D01*
X150817250Y-72737489D01*
X150817246Y-72737488D01*
X150686852Y-72712614D01*
X150686849Y-72712614D01*
X150681011Y-72711500D01*
X150454500Y-72711500D01*
X150386379Y-72691498D01*
X150339886Y-72637842D01*
X150328500Y-72585500D01*
X150328500Y-71455421D01*
X150312655Y-71329994D01*
X150295881Y-71287628D01*
X150289402Y-71216928D01*
X150322174Y-71153948D01*
X150383794Y-71118684D01*
X150454696Y-71122332D01*
X150476319Y-71132290D01*
X150534429Y-71166043D01*
X150547754Y-71171837D01*
X150703700Y-71219068D01*
X150716323Y-71221516D01*
X150786184Y-71227751D01*
X150791779Y-71228000D01*
X150835385Y-71228000D01*
X150850624Y-71223525D01*
X150851829Y-71222135D01*
X150853500Y-71214452D01*
X150853500Y-70292115D01*
X150849025Y-70276876D01*
X150847635Y-70275671D01*
X150839952Y-70274000D01*
X150105115Y-70274000D01*
X150089876Y-70278475D01*
X150088671Y-70279865D01*
X150087000Y-70287548D01*
X150087000Y-70509223D01*
X150087424Y-70516524D01*
X150101617Y-70638255D01*
X150104963Y-70652410D01*
X150140764Y-70751040D01*
X150145205Y-70821897D01*
X150110632Y-70883908D01*
X150048023Y-70917383D01*
X149977255Y-70911694D01*
X149968677Y-70908039D01*
X149882207Y-70867350D01*
X149882208Y-70867350D01*
X149875033Y-70863974D01*
X149867250Y-70862489D01*
X149867246Y-70862488D01*
X149736852Y-70837614D01*
X149736849Y-70837614D01*
X149731011Y-70836500D01*
X149330421Y-70836500D01*
X149204994Y-70852345D01*
X149197619Y-70855265D01*
X149190834Y-70857007D01*
X149119879Y-70854574D01*
X149061504Y-70814166D01*
X149034241Y-70748612D01*
X149033500Y-70734965D01*
X149033500Y-70270000D01*
X149028273Y-70196921D01*
X148994923Y-70083339D01*
X148989635Y-70065330D01*
X148989634Y-70065328D01*
X148987096Y-70056684D01*
X148954868Y-70006537D01*
X148912949Y-69941309D01*
X148912947Y-69941306D01*
X148908077Y-69933729D01*
X148901268Y-69927829D01*
X148895366Y-69921018D01*
X148896845Y-69919737D01*
X148864638Y-69869623D01*
X148864638Y-69798626D01*
X148903021Y-69738900D01*
X148967602Y-69709407D01*
X148991139Y-69708249D01*
X148991192Y-69708251D01*
X148993978Y-69708500D01*
X149617886Y-69708500D01*
X149713106Y-69697398D01*
X149743371Y-69693870D01*
X149743372Y-69693870D01*
X149750643Y-69693022D01*
X149757521Y-69690526D01*
X149757523Y-69690525D01*
X149916864Y-69632687D01*
X149917879Y-69635483D01*
X149974482Y-69625276D01*
X150040071Y-69652452D01*
G37*
G04 #@! TD.AperFunction*
G04 #@! TA.AperFunction,Conductor*
G36*
X140124417Y-67821032D02*
G01*
X140132683Y-67826658D01*
X140137645Y-67831358D01*
X140143973Y-67835034D01*
X140143975Y-67835035D01*
X140182156Y-67857212D01*
X140290555Y-67920175D01*
X140459796Y-67971433D01*
X140466236Y-67972008D01*
X140466237Y-67972008D01*
X140536185Y-67978251D01*
X140536191Y-67978251D01*
X140538978Y-67978500D01*
X140586511Y-67978500D01*
X140654632Y-67998502D01*
X140701125Y-68052158D01*
X140711229Y-68122432D01*
X140681735Y-68187012D01*
X140655596Y-68209872D01*
X140580253Y-68259269D01*
X140458642Y-68387645D01*
X140369825Y-68540555D01*
X140318567Y-68709796D01*
X140311500Y-68788978D01*
X140311500Y-69367906D01*
X140291498Y-69436027D01*
X140274595Y-69457001D01*
X140206838Y-69524758D01*
X140144526Y-69558784D01*
X140073711Y-69553719D01*
X140016875Y-69511172D01*
X140000613Y-69478685D01*
X139997135Y-69475671D01*
X139989452Y-69474000D01*
X138642000Y-69474000D01*
X138573879Y-69453998D01*
X138527386Y-69400342D01*
X138516000Y-69348000D01*
X138516000Y-69092000D01*
X138536002Y-69023879D01*
X138589658Y-68977386D01*
X138642000Y-68966000D01*
X139984885Y-68966000D01*
X140000124Y-68961525D01*
X140001329Y-68960135D01*
X140003000Y-68952452D01*
X140003000Y-68930777D01*
X140002576Y-68923476D01*
X139988383Y-68801745D01*
X139985037Y-68787590D01*
X139929737Y-68635239D01*
X139923227Y-68622240D01*
X139834359Y-68486694D01*
X139825035Y-68475542D01*
X139704207Y-68361081D01*
X139668509Y-68299712D01*
X139671656Y-68228785D01*
X139712650Y-68170819D01*
X139721774Y-68164237D01*
X139728625Y-68159745D01*
X139728626Y-68159744D01*
X139734747Y-68155731D01*
X139856358Y-68027355D01*
X139945175Y-67874445D01*
X139945516Y-67874643D01*
X139988199Y-67823524D01*
X140055942Y-67802279D01*
X140124417Y-67821032D01*
G37*
G04 #@! TD.AperFunction*
G04 #@! TA.AperFunction,Conductor*
G36*
X163843342Y-57678323D02*
G01*
X163889846Y-57731968D01*
X163899965Y-57802240D01*
X163870469Y-57866847D01*
X163858749Y-57880373D01*
X163818016Y-57927381D01*
X163757300Y-58060330D01*
X163756018Y-58069245D01*
X163756018Y-58069246D01*
X163737139Y-58200552D01*
X163737138Y-58200559D01*
X163736500Y-58205000D01*
X163736500Y-59905000D01*
X163741727Y-59978079D01*
X163782904Y-60118316D01*
X163807426Y-60156472D01*
X163857051Y-60233691D01*
X163857053Y-60233694D01*
X163861923Y-60241271D01*
X163868733Y-60247172D01*
X163965569Y-60331082D01*
X163965572Y-60331084D01*
X163972381Y-60336984D01*
X164105330Y-60397700D01*
X164111639Y-60398607D01*
X164170244Y-60436269D01*
X164199738Y-60500849D01*
X164189636Y-60571123D01*
X164157601Y-60613949D01*
X164142430Y-60627114D01*
X164122492Y-60644415D01*
X164119109Y-60648541D01*
X164119105Y-60648545D01*
X164054460Y-60727386D01*
X163976304Y-60822705D01*
X163973665Y-60827341D01*
X163973663Y-60827344D01*
X163914156Y-60931882D01*
X163862245Y-61023077D01*
X163783578Y-61239802D01*
X163782629Y-61245051D01*
X163782628Y-61245054D01*
X163750672Y-61421773D01*
X163742551Y-61466683D01*
X163741795Y-61545461D01*
X163740429Y-61687784D01*
X163740338Y-61697233D01*
X163777002Y-61924861D01*
X163851494Y-62143056D01*
X163854044Y-62147743D01*
X163854045Y-62147745D01*
X163875835Y-62187794D01*
X163961685Y-62345580D01*
X164104424Y-62526644D01*
X164108389Y-62530220D01*
X164271659Y-62677489D01*
X164271665Y-62677494D01*
X164275629Y-62681069D01*
X164280142Y-62683928D01*
X164280144Y-62683929D01*
X164315524Y-62706338D01*
X164470406Y-62804439D01*
X164683184Y-62893228D01*
X164688387Y-62894425D01*
X164688392Y-62894426D01*
X164902678Y-62943701D01*
X164902683Y-62943702D01*
X164907881Y-62944897D01*
X164913209Y-62945200D01*
X164913212Y-62945200D01*
X165069293Y-62954063D01*
X165138071Y-62957968D01*
X165143378Y-62957368D01*
X165143380Y-62957368D01*
X165264272Y-62943701D01*
X165367173Y-62932068D01*
X165372288Y-62930587D01*
X165372292Y-62930586D01*
X165502068Y-62893005D01*
X165588635Y-62867937D01*
X165796125Y-62767409D01*
X165800463Y-62764309D01*
X165800468Y-62764306D01*
X165979370Y-62636459D01*
X165983711Y-62633357D01*
X166123517Y-62492327D01*
X166185680Y-62458030D01*
X166256518Y-62462787D01*
X166313538Y-62505085D01*
X166338639Y-62571497D01*
X166339000Y-62581033D01*
X166339000Y-66624000D01*
X166318998Y-66692121D01*
X166265342Y-66738614D01*
X166213000Y-66750000D01*
X152750000Y-66750000D01*
X152750013Y-66750508D01*
X152695391Y-66750508D01*
X152635664Y-66712125D01*
X152611055Y-66668547D01*
X152604524Y-66648446D01*
X152509037Y-66483058D01*
X152381251Y-66341137D01*
X152375909Y-66337256D01*
X152375907Y-66337254D01*
X152232092Y-66232767D01*
X152232091Y-66232766D01*
X152226750Y-66228886D01*
X152220718Y-66226201D01*
X152220714Y-66226198D01*
X152208253Y-66220650D01*
X152154156Y-66174671D01*
X152133500Y-66105543D01*
X152133500Y-64078383D01*
X152134014Y-64067479D01*
X152135666Y-64060088D01*
X152134233Y-64014479D01*
X152133562Y-63993147D01*
X152133500Y-63989189D01*
X152133500Y-63960422D01*
X152132960Y-63956148D01*
X152132026Y-63944296D01*
X152131849Y-63938642D01*
X152130638Y-63900117D01*
X152124986Y-63880661D01*
X152120981Y-63861321D01*
X152118440Y-63841212D01*
X152115521Y-63833840D01*
X152115520Y-63833835D01*
X152102164Y-63800101D01*
X152098319Y-63788872D01*
X152088197Y-63754031D01*
X152088197Y-63754030D01*
X152085986Y-63746421D01*
X152075676Y-63728988D01*
X152066982Y-63711241D01*
X152059522Y-63692400D01*
X152033533Y-63656629D01*
X152027017Y-63646710D01*
X152007543Y-63613782D01*
X152004513Y-63608658D01*
X152004145Y-63608241D01*
X151990062Y-63594158D01*
X151977228Y-63579133D01*
X151965446Y-63562917D01*
X151931664Y-63534970D01*
X151922885Y-63526981D01*
X151334005Y-62938101D01*
X151299979Y-62875789D01*
X151302509Y-62812483D01*
X151324068Y-62741300D01*
X151326516Y-62728677D01*
X151332751Y-62658816D01*
X151333000Y-62653221D01*
X151333000Y-62622115D01*
X151328525Y-62606876D01*
X151327135Y-62605671D01*
X151319452Y-62604000D01*
X149972000Y-62604000D01*
X149903879Y-62583998D01*
X149857386Y-62530342D01*
X149846000Y-62478000D01*
X149846000Y-61360115D01*
X149844659Y-61355548D01*
X150354000Y-61355548D01*
X150354000Y-62077885D01*
X150358475Y-62093124D01*
X150359865Y-62094329D01*
X150367548Y-62096000D01*
X151314885Y-62096000D01*
X151330124Y-62091525D01*
X151331329Y-62090135D01*
X151333000Y-62082452D01*
X151333000Y-62060777D01*
X151332576Y-62053476D01*
X151318383Y-61931745D01*
X151315037Y-61917590D01*
X151259737Y-61765239D01*
X151253227Y-61752240D01*
X151164359Y-61616694D01*
X151155035Y-61605542D01*
X151037371Y-61494078D01*
X151025724Y-61485365D01*
X150885571Y-61403957D01*
X150872246Y-61398163D01*
X150716300Y-61350932D01*
X150703677Y-61348484D01*
X150633816Y-61342249D01*
X150628221Y-61342000D01*
X150372115Y-61342000D01*
X150356876Y-61346475D01*
X150355671Y-61347865D01*
X150354000Y-61355548D01*
X149844659Y-61355548D01*
X149841525Y-61344876D01*
X149840135Y-61343671D01*
X149832452Y-61342000D01*
X149585777Y-61342000D01*
X149578476Y-61342424D01*
X149456745Y-61356617D01*
X149442590Y-61359963D01*
X149290239Y-61415263D01*
X149277240Y-61421773D01*
X149228585Y-61453672D01*
X149160649Y-61474295D01*
X149092349Y-61454915D01*
X149045369Y-61401686D01*
X149033500Y-61348300D01*
X149033500Y-60707114D01*
X149018022Y-60574357D01*
X148995866Y-60513316D01*
X148960184Y-60415015D01*
X148957687Y-60408136D01*
X148885255Y-60297658D01*
X148864632Y-60229724D01*
X148884012Y-60161423D01*
X148884693Y-60160432D01*
X148887608Y-60157355D01*
X148891285Y-60151025D01*
X148891287Y-60151022D01*
X148972748Y-60010775D01*
X148976425Y-60004445D01*
X149027683Y-59835204D01*
X149034750Y-59756022D01*
X149034750Y-58757114D01*
X149019272Y-58624357D01*
X148975133Y-58502754D01*
X148961434Y-58465015D01*
X148958937Y-58458136D01*
X148883218Y-58342645D01*
X148865993Y-58316372D01*
X148865992Y-58316371D01*
X148861981Y-58310253D01*
X148733605Y-58188642D01*
X148580695Y-58099825D01*
X148411454Y-58048567D01*
X148405014Y-58047992D01*
X148405013Y-58047992D01*
X148335065Y-58041749D01*
X148335059Y-58041749D01*
X148332272Y-58041500D01*
X147708364Y-58041500D01*
X147617138Y-58052136D01*
X147582879Y-58056130D01*
X147582878Y-58056130D01*
X147575607Y-58056978D01*
X147568729Y-58059474D01*
X147568727Y-58059475D01*
X147457565Y-58099825D01*
X147409386Y-58117313D01*
X147318282Y-58177043D01*
X147270086Y-58208642D01*
X147261503Y-58214269D01*
X147256472Y-58219580D01*
X147256467Y-58219584D01*
X147193703Y-58285840D01*
X147132334Y-58321539D01*
X147061408Y-58318392D01*
X147015577Y-58290661D01*
X146913621Y-58194078D01*
X146901974Y-58185365D01*
X146761821Y-58103957D01*
X146748496Y-58098163D01*
X146592550Y-58050932D01*
X146579927Y-58048484D01*
X146510066Y-58042249D01*
X146504471Y-58042000D01*
X146460865Y-58042000D01*
X146445626Y-58046475D01*
X146444421Y-58047865D01*
X146442750Y-58055548D01*
X146442750Y-59378000D01*
X146422748Y-59446121D01*
X146369092Y-59492614D01*
X146316750Y-59504000D01*
X145186365Y-59504000D01*
X145171126Y-59508475D01*
X145148861Y-59534170D01*
X145147717Y-59533179D01*
X145142163Y-59543350D01*
X145079849Y-59577372D01*
X145053072Y-59580250D01*
X145034172Y-59580250D01*
X145029901Y-59580789D01*
X145018072Y-59581721D01*
X144973867Y-59583111D01*
X144966251Y-59585324D01*
X144966249Y-59585324D01*
X144954411Y-59588763D01*
X144935052Y-59592772D01*
X144922829Y-59594316D01*
X144922828Y-59594316D01*
X144914962Y-59595310D01*
X144907586Y-59598230D01*
X144907587Y-59598230D01*
X144873861Y-59611582D01*
X144862632Y-59615427D01*
X144827785Y-59625551D01*
X144827784Y-59625552D01*
X144820172Y-59627763D01*
X144813349Y-59631798D01*
X144802733Y-59638076D01*
X144784981Y-59646772D01*
X144766150Y-59654228D01*
X144743731Y-59670516D01*
X144730379Y-59680217D01*
X144720461Y-59686732D01*
X144682409Y-59709236D01*
X144681991Y-59709605D01*
X144667908Y-59723688D01*
X144652883Y-59736522D01*
X144636667Y-59748304D01*
X144627972Y-59758815D01*
X144608721Y-59782085D01*
X144600731Y-59790865D01*
X142844987Y-61546609D01*
X142836899Y-61553969D01*
X142830505Y-61558027D01*
X142825080Y-61563804D01*
X142784631Y-61606878D01*
X142781876Y-61609720D01*
X142761562Y-61630034D01*
X142758917Y-61633445D01*
X142751213Y-61642465D01*
X142720943Y-61674699D01*
X142715059Y-61685402D01*
X142712663Y-61687784D01*
X142712463Y-61688060D01*
X142712419Y-61688028D01*
X142664718Y-61735461D01*
X142620440Y-61749709D01*
X142559994Y-61757345D01*
X142552628Y-61760262D01*
X142552626Y-61760262D01*
X142412725Y-61815653D01*
X142412723Y-61815654D01*
X142405356Y-61818571D01*
X142398945Y-61823229D01*
X142398943Y-61823230D01*
X142286758Y-61904737D01*
X142270803Y-61916329D01*
X142196760Y-62005832D01*
X142137927Y-62045569D01*
X142066949Y-62047192D01*
X142006362Y-62010183D01*
X141997740Y-61999577D01*
X141963331Y-61952217D01*
X141958671Y-61945803D01*
X141830521Y-61839788D01*
X141680033Y-61768974D01*
X141672250Y-61767489D01*
X141672246Y-61767488D01*
X141541852Y-61742614D01*
X141541849Y-61742614D01*
X141536011Y-61741500D01*
X140410421Y-61741500D01*
X140351307Y-61748968D01*
X140292859Y-61756351D01*
X140292856Y-61756352D01*
X140284994Y-61757345D01*
X140277628Y-61760262D01*
X140277626Y-61760262D01*
X140137725Y-61815653D01*
X140137723Y-61815654D01*
X140130356Y-61818571D01*
X140123945Y-61823229D01*
X140123943Y-61823230D01*
X140011758Y-61904737D01*
X139995803Y-61916329D01*
X139889788Y-62044479D01*
X139818974Y-62194967D01*
X139817489Y-62202750D01*
X139817488Y-62202754D01*
X139793523Y-62328383D01*
X139791500Y-62338989D01*
X139791500Y-62739579D01*
X139794624Y-62764306D01*
X139802173Y-62824062D01*
X139807345Y-62865006D01*
X139810262Y-62872372D01*
X139810262Y-62872374D01*
X139853034Y-62980402D01*
X139859513Y-63051102D01*
X139849890Y-63080434D01*
X139822827Y-63137945D01*
X139817964Y-63152913D01*
X139803600Y-63228206D01*
X139804871Y-63241245D01*
X139819793Y-63246000D01*
X140037333Y-63246000D01*
X140093489Y-63262316D01*
X140094479Y-63260212D01*
X140244967Y-63331026D01*
X140252750Y-63332511D01*
X140252754Y-63332512D01*
X140383148Y-63357386D01*
X140383151Y-63357386D01*
X140388989Y-63358500D01*
X141090500Y-63358500D01*
X141158621Y-63378502D01*
X141205114Y-63432158D01*
X141216500Y-63484500D01*
X141216500Y-63515500D01*
X141196498Y-63583621D01*
X141142842Y-63630114D01*
X141090500Y-63641500D01*
X140410421Y-63641500D01*
X140351307Y-63648968D01*
X140292859Y-63656351D01*
X140292856Y-63656352D01*
X140284994Y-63657345D01*
X140277628Y-63660262D01*
X140277626Y-63660262D01*
X140137725Y-63715653D01*
X140137723Y-63715654D01*
X140130356Y-63718571D01*
X140121685Y-63724871D01*
X140114712Y-63729937D01*
X140040652Y-63754000D01*
X139818253Y-63754000D01*
X139803014Y-63758475D01*
X139796592Y-63765887D01*
X139776336Y-63809253D01*
X139716283Y-63847124D01*
X139645289Y-63846516D01*
X139601506Y-63823012D01*
X139591629Y-63814841D01*
X139585521Y-63809788D01*
X139578020Y-63806258D01*
X139536854Y-63786887D01*
X139435033Y-63738974D01*
X139427250Y-63737489D01*
X139427246Y-63737488D01*
X139296852Y-63712614D01*
X139296849Y-63712614D01*
X139291011Y-63711500D01*
X138890421Y-63711500D01*
X138834448Y-63718571D01*
X138772859Y-63726351D01*
X138772856Y-63726352D01*
X138764994Y-63727345D01*
X138757628Y-63730262D01*
X138757626Y-63730262D01*
X138617725Y-63785653D01*
X138617723Y-63785654D01*
X138610356Y-63788571D01*
X138603945Y-63793229D01*
X138603943Y-63793230D01*
X138518797Y-63855092D01*
X138451929Y-63878951D01*
X138382777Y-63862870D01*
X138364421Y-63850241D01*
X138321629Y-63814841D01*
X138315521Y-63809788D01*
X138308020Y-63806258D01*
X138266854Y-63786887D01*
X138165033Y-63738974D01*
X138157250Y-63737489D01*
X138157246Y-63737488D01*
X138026852Y-63712614D01*
X138026849Y-63712614D01*
X138021011Y-63711500D01*
X137620421Y-63711500D01*
X137564448Y-63718571D01*
X137502859Y-63726351D01*
X137502856Y-63726352D01*
X137494994Y-63727345D01*
X137487628Y-63730262D01*
X137487626Y-63730262D01*
X137345884Y-63786382D01*
X137275184Y-63792861D01*
X137212204Y-63760089D01*
X137176940Y-63698469D01*
X137173500Y-63669230D01*
X137173500Y-62328383D01*
X137174015Y-62317474D01*
X137175666Y-62310088D01*
X137175417Y-62302169D01*
X137175500Y-62301293D01*
X137201825Y-62235357D01*
X137211845Y-62224059D01*
X137670499Y-61765405D01*
X137732811Y-61731379D01*
X137759594Y-61728500D01*
X137999579Y-61728500D01*
X138058693Y-61721032D01*
X138117141Y-61713649D01*
X138117144Y-61713648D01*
X138125006Y-61712655D01*
X138132372Y-61709738D01*
X138132374Y-61709738D01*
X138272275Y-61654347D01*
X138272277Y-61654346D01*
X138279644Y-61651429D01*
X138291980Y-61642467D01*
X138371203Y-61584908D01*
X138438071Y-61561049D01*
X138507223Y-61577130D01*
X138525579Y-61589759D01*
X138567182Y-61624176D01*
X138574479Y-61630212D01*
X138581652Y-61633587D01*
X138581653Y-61633588D01*
X138605720Y-61644913D01*
X138632387Y-61661836D01*
X138731766Y-61744050D01*
X138731770Y-61744053D01*
X138737875Y-61749103D01*
X138882693Y-61817250D01*
X138890476Y-61818735D01*
X138890477Y-61818735D01*
X139032122Y-61845755D01*
X139032124Y-61845755D01*
X139039908Y-61847240D01*
X139119776Y-61842215D01*
X139191732Y-61837688D01*
X139191734Y-61837688D01*
X139199643Y-61837190D01*
X139207179Y-61834741D01*
X139207181Y-61834741D01*
X139344318Y-61790183D01*
X139344321Y-61790181D01*
X139351860Y-61787732D01*
X139486995Y-61701973D01*
X139506793Y-61680890D01*
X139537942Y-61656728D01*
X139542269Y-61654349D01*
X139549644Y-61651429D01*
X139684197Y-61553671D01*
X139790212Y-61425521D01*
X139861026Y-61275033D01*
X139862511Y-61267250D01*
X139862512Y-61267246D01*
X139887386Y-61136852D01*
X139887386Y-61136849D01*
X139888500Y-61131011D01*
X139888500Y-60782480D01*
X139908502Y-60714359D01*
X139962158Y-60667866D01*
X140032432Y-60657762D01*
X140097012Y-60687255D01*
X140148631Y-60731984D01*
X140281580Y-60792700D01*
X140290495Y-60793982D01*
X140290496Y-60793982D01*
X140421802Y-60812861D01*
X140421809Y-60812862D01*
X140426250Y-60813500D01*
X141426250Y-60813500D01*
X141499329Y-60808273D01*
X141587173Y-60782480D01*
X141630920Y-60769635D01*
X141630922Y-60769634D01*
X141639566Y-60767096D01*
X141694201Y-60731984D01*
X141754941Y-60692949D01*
X141754944Y-60692947D01*
X141762521Y-60688077D01*
X141800355Y-60644415D01*
X141852332Y-60584431D01*
X141852334Y-60584428D01*
X141858234Y-60577619D01*
X141896739Y-60493306D01*
X141915208Y-60452864D01*
X141915208Y-60452863D01*
X141918950Y-60444670D01*
X141923464Y-60413273D01*
X141939111Y-60304448D01*
X141939112Y-60304441D01*
X141939750Y-60300000D01*
X141939750Y-59300000D01*
X141934523Y-59226921D01*
X141897870Y-59102090D01*
X141895885Y-59095330D01*
X141895884Y-59095328D01*
X141893346Y-59086684D01*
X141862161Y-59038160D01*
X141819199Y-58971309D01*
X141819197Y-58971306D01*
X141814327Y-58963729D01*
X141807517Y-58957828D01*
X141710681Y-58873918D01*
X141710678Y-58873916D01*
X141703869Y-58868016D01*
X141570920Y-58807300D01*
X141562005Y-58806018D01*
X141562004Y-58806018D01*
X141430698Y-58787139D01*
X141430691Y-58787138D01*
X141426250Y-58786500D01*
X140426250Y-58786500D01*
X140353171Y-58791727D01*
X140300134Y-58807300D01*
X140221580Y-58830365D01*
X140221578Y-58830366D01*
X140212934Y-58832904D01*
X140205355Y-58837775D01*
X140097559Y-58907051D01*
X140097556Y-58907053D01*
X140089979Y-58911923D01*
X140084078Y-58918733D01*
X140000168Y-59015569D01*
X140000166Y-59015572D01*
X139994266Y-59022381D01*
X139990523Y-59030578D01*
X139985650Y-59038160D01*
X139983994Y-59037096D01*
X139945016Y-59082084D01*
X139876896Y-59102090D01*
X139808774Y-59082092D01*
X139774953Y-59050151D01*
X139718331Y-58972217D01*
X139713671Y-58965803D01*
X139585521Y-58859788D01*
X139435033Y-58788974D01*
X139427250Y-58787489D01*
X139427246Y-58787488D01*
X139296852Y-58762614D01*
X139296849Y-58762614D01*
X139291011Y-58761500D01*
X139209595Y-58761500D01*
X139159460Y-58746779D01*
X145168250Y-58746779D01*
X145168250Y-58977885D01*
X145172725Y-58993124D01*
X145174115Y-58994329D01*
X145181798Y-58996000D01*
X145916635Y-58996000D01*
X145931874Y-58991525D01*
X145933079Y-58990135D01*
X145934750Y-58982452D01*
X145934750Y-58060115D01*
X145930275Y-58044876D01*
X145928885Y-58043671D01*
X145921202Y-58042000D01*
X145887027Y-58042000D01*
X145879726Y-58042424D01*
X145757995Y-58056617D01*
X145743840Y-58059963D01*
X145591489Y-58115263D01*
X145578490Y-58121773D01*
X145442944Y-58210641D01*
X145431792Y-58219965D01*
X145320328Y-58337629D01*
X145311615Y-58349276D01*
X145230207Y-58489429D01*
X145224413Y-58502754D01*
X145177182Y-58658700D01*
X145174734Y-58671323D01*
X145168499Y-58741184D01*
X145168250Y-58746779D01*
X139159460Y-58746779D01*
X139141474Y-58741498D01*
X139120500Y-58724595D01*
X138803390Y-58407485D01*
X138796030Y-58399397D01*
X138791973Y-58393005D01*
X138743138Y-58347145D01*
X138740299Y-58344394D01*
X138722768Y-58326864D01*
X138719966Y-58324062D01*
X138716555Y-58321417D01*
X138707533Y-58313711D01*
X138684286Y-58291880D01*
X138675301Y-58283443D01*
X138668357Y-58279626D01*
X138668355Y-58279624D01*
X138657547Y-58273682D01*
X138641023Y-58262828D01*
X138631286Y-58255275D01*
X138631285Y-58255275D01*
X138625023Y-58250417D01*
X138584447Y-58232858D01*
X138573790Y-58227637D01*
X138535048Y-58206338D01*
X138527365Y-58204366D01*
X138527364Y-58204365D01*
X138515432Y-58201301D01*
X138496728Y-58194897D01*
X138485415Y-58190001D01*
X138485408Y-58189999D01*
X138478136Y-58186852D01*
X138470312Y-58185613D01*
X138470309Y-58185612D01*
X138434465Y-58179935D01*
X138422844Y-58177528D01*
X138385782Y-58168013D01*
X138385781Y-58168013D01*
X138380025Y-58166535D01*
X138379469Y-58166500D01*
X138359548Y-58166500D01*
X138339838Y-58164949D01*
X138327886Y-58163056D01*
X138327885Y-58163056D01*
X138320056Y-58161816D01*
X138312164Y-58162562D01*
X138276418Y-58165941D01*
X138264560Y-58166500D01*
X137114594Y-58166500D01*
X137046473Y-58146498D01*
X137025499Y-58129595D01*
X136803391Y-57907487D01*
X136796031Y-57899399D01*
X136791973Y-57893005D01*
X136781763Y-57883417D01*
X136780156Y-57881908D01*
X136744190Y-57820695D01*
X136747029Y-57749755D01*
X136787769Y-57691611D01*
X136853478Y-57664723D01*
X136866374Y-57664058D01*
X141781621Y-57663013D01*
X163775217Y-57658335D01*
X163843342Y-57678323D01*
G37*
G04 #@! TD.AperFunction*
G04 #@! TA.AperFunction,Conductor*
G36*
X129685561Y-66104509D02*
G01*
X129742397Y-66147056D01*
X129767208Y-66213576D01*
X129750648Y-66285565D01*
X129685476Y-66398446D01*
X129683434Y-66404731D01*
X129647195Y-66516262D01*
X129607121Y-66574868D01*
X129541725Y-66602505D01*
X129471768Y-66590398D01*
X129419462Y-66542392D01*
X129408925Y-66520321D01*
X129402687Y-66503136D01*
X129371792Y-66456013D01*
X129351170Y-66388078D01*
X129370551Y-66319777D01*
X129388070Y-66297834D01*
X129552434Y-66133470D01*
X129614746Y-66099444D01*
X129685561Y-66104509D01*
G37*
G04 #@! TD.AperFunction*
G04 #@! TA.AperFunction,Conductor*
G36*
X129716121Y-60736002D02*
G01*
X129762614Y-60789658D01*
X129774000Y-60842000D01*
X129774000Y-61959885D01*
X129778475Y-61975124D01*
X129779865Y-61976329D01*
X129787548Y-61978000D01*
X130034223Y-61978000D01*
X130041524Y-61977576D01*
X130163255Y-61963383D01*
X130177410Y-61960037D01*
X130329761Y-61904737D01*
X130342760Y-61898227D01*
X130478306Y-61809359D01*
X130489458Y-61800035D01*
X130600922Y-61682371D01*
X130609635Y-61670724D01*
X130662763Y-61579259D01*
X130714274Y-61530401D01*
X130784023Y-61517147D01*
X130852032Y-61545461D01*
X130867222Y-61558027D01*
X130948370Y-61625159D01*
X130948374Y-61625162D01*
X130954479Y-61630212D01*
X130961652Y-61633587D01*
X130961653Y-61633588D01*
X130985720Y-61644913D01*
X131012386Y-61661835D01*
X131028334Y-61675028D01*
X131037115Y-61683019D01*
X132099595Y-62745499D01*
X132133621Y-62807811D01*
X132136500Y-62834594D01*
X132136500Y-63692250D01*
X132116498Y-63760371D01*
X132062842Y-63806864D01*
X131992568Y-63816968D01*
X131956852Y-63806258D01*
X131822055Y-63742827D01*
X131807087Y-63737964D01*
X131731794Y-63723600D01*
X131718755Y-63724871D01*
X131714000Y-63739793D01*
X131714000Y-65323000D01*
X131693998Y-65391121D01*
X131640342Y-65437614D01*
X131588000Y-65449000D01*
X130670115Y-65449000D01*
X130654876Y-65453475D01*
X130653671Y-65454865D01*
X130652000Y-65462548D01*
X130652000Y-65735504D01*
X130631998Y-65803625D01*
X130578342Y-65850118D01*
X130526000Y-65861504D01*
X130424513Y-65861504D01*
X130418061Y-65862876D01*
X130418056Y-65862876D01*
X130331113Y-65881357D01*
X130237713Y-65901210D01*
X130231683Y-65903895D01*
X130231682Y-65903895D01*
X130069280Y-65976201D01*
X130069278Y-65976202D01*
X130063250Y-65978886D01*
X130057910Y-65982766D01*
X130055771Y-65984320D01*
X130054325Y-65984836D01*
X130052191Y-65986068D01*
X130051966Y-65985678D01*
X129988903Y-66008178D01*
X129919752Y-65992097D01*
X129870272Y-65941182D01*
X129856173Y-65871600D01*
X129881932Y-65805441D01*
X129892616Y-65793288D01*
X129912513Y-65773391D01*
X129920601Y-65766031D01*
X129926995Y-65761973D01*
X129972870Y-65713121D01*
X129975624Y-65710280D01*
X129995938Y-65689966D01*
X129998583Y-65686555D01*
X130006289Y-65677533D01*
X130031133Y-65651077D01*
X130036557Y-65645301D01*
X130040376Y-65638355D01*
X130046318Y-65627547D01*
X130057172Y-65611023D01*
X130064723Y-65601289D01*
X130064724Y-65601287D01*
X130069583Y-65595023D01*
X130087146Y-65554439D01*
X130092353Y-65543810D01*
X130113662Y-65505048D01*
X130118701Y-65485422D01*
X130125102Y-65466728D01*
X130129999Y-65455412D01*
X130133148Y-65448135D01*
X130140064Y-65404469D01*
X130142471Y-65392844D01*
X130146363Y-65377687D01*
X130153465Y-65350025D01*
X130153500Y-65349469D01*
X130153500Y-65346231D01*
X130154767Y-65338231D01*
X130156933Y-65338574D01*
X130175585Y-65281739D01*
X130226334Y-65239146D01*
X130233316Y-65237096D01*
X130307549Y-65189389D01*
X130348691Y-65162949D01*
X130348694Y-65162947D01*
X130356271Y-65158077D01*
X130364421Y-65148672D01*
X130446082Y-65054431D01*
X130446084Y-65054428D01*
X130451984Y-65047619D01*
X130455728Y-65039422D01*
X130455730Y-65039418D01*
X130475869Y-64995320D01*
X130522362Y-64941665D01*
X130590483Y-64921663D01*
X130630011Y-64933270D01*
X130665548Y-64941000D01*
X131187885Y-64941000D01*
X131203124Y-64936525D01*
X131204329Y-64935135D01*
X131206000Y-64927452D01*
X131206000Y-63738253D01*
X131201925Y-63724376D01*
X131188574Y-63722339D01*
X131152984Y-63726835D01*
X131137751Y-63730746D01*
X130997966Y-63786091D01*
X130984184Y-63793668D01*
X130862559Y-63882034D01*
X130851092Y-63892802D01*
X130756585Y-64007042D01*
X130697751Y-64046780D01*
X130626773Y-64048403D01*
X130566186Y-64011394D01*
X130535225Y-63947504D01*
X130533500Y-63926727D01*
X130533500Y-63770000D01*
X130528273Y-63696921D01*
X130496040Y-63587145D01*
X130489635Y-63565330D01*
X130489634Y-63565328D01*
X130487096Y-63556684D01*
X130422217Y-63455731D01*
X130412949Y-63441309D01*
X130412947Y-63441306D01*
X130408077Y-63433729D01*
X130401267Y-63427828D01*
X130304431Y-63343918D01*
X130304428Y-63343916D01*
X130297619Y-63338016D01*
X130274275Y-63327355D01*
X130172864Y-63281042D01*
X130172863Y-63281042D01*
X130164670Y-63277300D01*
X130155755Y-63276018D01*
X130155754Y-63276018D01*
X130024448Y-63257139D01*
X130024441Y-63257138D01*
X130020000Y-63256500D01*
X129020000Y-63256500D01*
X128946921Y-63261727D01*
X128898250Y-63276018D01*
X128837801Y-63293767D01*
X128766804Y-63293767D01*
X128707078Y-63255383D01*
X128677585Y-63190802D01*
X128681713Y-63136350D01*
X128721433Y-63005204D01*
X128725676Y-62957665D01*
X128728251Y-62928815D01*
X128728251Y-62928809D01*
X128728500Y-62926022D01*
X128728500Y-62302114D01*
X128713022Y-62169357D01*
X128693641Y-62115963D01*
X128689200Y-62045105D01*
X128723773Y-61983095D01*
X128786382Y-61949620D01*
X128848603Y-61952381D01*
X128903700Y-61969068D01*
X128916323Y-61971516D01*
X128986184Y-61977751D01*
X128991779Y-61978000D01*
X129247885Y-61978000D01*
X129263124Y-61973525D01*
X129264329Y-61972135D01*
X129266000Y-61964452D01*
X129266000Y-60842000D01*
X129286002Y-60773879D01*
X129339658Y-60727386D01*
X129392000Y-60716000D01*
X129648000Y-60716000D01*
X129716121Y-60736002D01*
G37*
G04 #@! TD.AperFunction*
M02*
