%FSLAX45Y45*%
G04 Gerber Fmt 4.5, Leading zero omitted, Abs format (unit mm)*
G04 Created by KiCad (PCBNEW (5.99.0-10336-g9846076676)) date 2021-04-19 15:00:07*
%MOMM*%
%LPD*%
G01*
G04 APERTURE LIST*
%TA.AperFunction,Profile*%
%ADD10C,0.100000*%
%TD*%
%ADD11C,0.200000*%
%ADD12C,0.040000*%
%ADD13C,0.100000*%
%ADD14C,0.140000*%
G04 APERTURE END LIST*
D10*
X16534700Y-7797000D02*
G75*
G03*
X16684700Y-7647000I0J150000D01*
G01*
X16534700Y-7797000D02*
X12773800Y-7797800D01*
X16684700Y-5865000D02*
X16684700Y-7647000D01*
X16684700Y-5865000D02*
G75*
G03*
X16534700Y-5715000I-150000J0D01*
G01*
X15970000Y-6946500D02*
X16040000Y-6946500D01*
X16040000Y-6946500D02*
X16040000Y-7746500D01*
X16040000Y-7746500D02*
X15970000Y-7746500D01*
X15970000Y-7746500D02*
X15970000Y-6946500D01*
X12623800Y-7647800D02*
G75*
G03*
X12773800Y-7797800I150000J0D01*
G01*
X12773800Y-5715800D02*
X16534700Y-5715000D01*
X12623800Y-7647800D02*
X12623800Y-5865800D01*
X12773800Y-5715800D02*
G75*
G03*
X12623800Y-5865800I0J-150000D01*
G01*
D11*
D12*
X12672090Y-6914240D02*
X12712090Y-6954240D01*
X12712090Y-6914240D02*
X12672090Y-6954240D01*
X12757000Y-6732000D02*
X12797000Y-6772000D01*
X12797000Y-6732000D02*
X12757000Y-6772000D01*
X13007000Y-6207000D02*
X13047000Y-6247000D01*
X13047000Y-6207000D02*
X13007000Y-6247000D01*
X13046420Y-6676889D02*
X13086420Y-6716889D01*
X13086420Y-6676889D02*
X13046420Y-6716889D01*
X13257000Y-7257000D02*
X13297000Y-7297000D01*
X13297000Y-7257000D02*
X13257000Y-7297000D01*
X13332000Y-6682000D02*
X13372000Y-6722000D01*
X13372000Y-6682000D02*
X13332000Y-6722000D01*
X13556470Y-7174110D02*
X13596470Y-7214110D01*
X13596470Y-7174110D02*
X13556470Y-7214110D01*
X13557000Y-7032000D02*
X13597000Y-7072000D01*
X13597000Y-7032000D02*
X13557000Y-7072000D01*
X13782000Y-6257000D02*
X13822000Y-6297000D01*
X13822000Y-6257000D02*
X13782000Y-6297000D01*
X13882000Y-5757000D02*
X13922000Y-5797000D01*
X13922000Y-5757000D02*
X13882000Y-5797000D01*
X13943450Y-7231700D02*
X13983450Y-7271700D01*
X13983450Y-7231700D02*
X13943450Y-7271700D01*
X14050000Y-5846500D02*
X14090000Y-5886500D01*
X14090000Y-5846500D02*
X14050000Y-5886500D01*
X14150000Y-6086500D02*
X14190000Y-6126500D01*
X14190000Y-6086500D02*
X14150000Y-6126500D01*
X14500000Y-6091382D02*
X14540000Y-6131382D01*
X14540000Y-6091382D02*
X14500000Y-6131382D01*
X14557000Y-7182000D02*
X14597000Y-7222000D01*
X14597000Y-7182000D02*
X14557000Y-7222000D01*
X14595300Y-7561900D02*
X14635300Y-7601900D01*
X14635300Y-7561900D02*
X14595300Y-7601900D01*
X14782000Y-7257000D02*
X14822000Y-7297000D01*
X14822000Y-7257000D02*
X14782000Y-7297000D01*
X14866144Y-6084987D02*
X14906144Y-6124987D01*
X14906144Y-6084987D02*
X14866144Y-6124987D01*
X14880000Y-7646500D02*
X14920000Y-7686500D01*
X14920000Y-7646500D02*
X14880000Y-7686500D01*
X15020000Y-7003100D02*
X15060000Y-7043100D01*
X15060000Y-7003100D02*
X15020000Y-7043100D01*
X15040000Y-7226500D02*
X15080000Y-7266500D01*
X15080000Y-7226500D02*
X15040000Y-7266500D01*
X15040000Y-7687250D02*
X15080000Y-7727250D01*
X15080000Y-7687250D02*
X15040000Y-7727250D01*
X15180000Y-6686500D02*
X15220000Y-6726500D01*
X15220000Y-6686500D02*
X15180000Y-6726500D01*
X15271980Y-7393160D02*
X15311980Y-7433160D01*
X15311980Y-7393160D02*
X15271980Y-7433160D01*
X15430000Y-6780000D02*
X15470000Y-6820000D01*
X15470000Y-6780000D02*
X15430000Y-6820000D01*
X15607000Y-7532000D02*
X15647000Y-7572000D01*
X15647000Y-7532000D02*
X15607000Y-7572000D01*
D13*
X12900000Y-7556500D02*
G75*
G03*
X12900000Y-7556500I-50000J0D01*
G01*
X13154000Y-7556500D02*
G75*
G03*
X13154000Y-7556500I-50000J0D01*
G01*
X13408000Y-7556500D02*
G75*
G03*
X13408000Y-7556500I-50000J0D01*
G01*
X13916000Y-7556500D02*
G75*
G03*
X13916000Y-7556500I-50000J0D01*
G01*
X16456000Y-6032500D02*
G75*
G03*
X16456000Y-6032500I-50000J0D01*
G01*
X16456000Y-6286500D02*
G75*
G03*
X16456000Y-6286500I-50000J0D01*
G01*
X16456000Y-7175500D02*
G75*
G03*
X16456000Y-7175500I-50000J0D01*
G01*
D14*
X16406000Y-7486500D02*
X16406000Y-7626500D01*
X16336000Y-7556500D02*
X16476000Y-7556500D01*
D11*
X12866419Y-8123276D02*
X12866419Y-7923276D01*
X12914038Y-7923276D01*
X12942609Y-7932800D01*
X12961657Y-7951848D01*
X12971181Y-7970895D01*
X12980705Y-8008990D01*
X12980705Y-8037562D01*
X12971181Y-8075657D01*
X12961657Y-8094705D01*
X12942609Y-8113752D01*
X12914038Y-8123276D01*
X12866419Y-8123276D01*
X13066419Y-8123276D02*
X13066419Y-7989943D01*
X13066419Y-8028038D02*
X13075943Y-8008990D01*
X13085467Y-7999467D01*
X13104514Y-7989943D01*
X13123562Y-7989943D01*
X13190228Y-8123276D02*
X13190228Y-7989943D01*
X13190228Y-7923276D02*
X13180705Y-7932800D01*
X13190228Y-7942324D01*
X13199752Y-7932800D01*
X13190228Y-7923276D01*
X13190228Y-7942324D01*
X13314038Y-8123276D02*
X13294990Y-8113752D01*
X13285467Y-8094705D01*
X13285467Y-7923276D01*
X13418800Y-8123276D02*
X13399752Y-8113752D01*
X13390228Y-8094705D01*
X13390228Y-7923276D01*
X13647371Y-8123276D02*
X13647371Y-7923276D01*
X13714038Y-8066133D01*
X13780705Y-7923276D01*
X13780705Y-8123276D01*
X13961657Y-8123276D02*
X13961657Y-8018514D01*
X13952133Y-7999467D01*
X13933086Y-7989943D01*
X13894990Y-7989943D01*
X13875943Y-7999467D01*
X13961657Y-8113752D02*
X13942609Y-8123276D01*
X13894990Y-8123276D01*
X13875943Y-8113752D01*
X13866419Y-8094705D01*
X13866419Y-8075657D01*
X13875943Y-8056609D01*
X13894990Y-8047086D01*
X13942609Y-8047086D01*
X13961657Y-8037562D01*
X14056895Y-7989943D02*
X14056895Y-8189943D01*
X14056895Y-7999467D02*
X14075943Y-7989943D01*
X14114038Y-7989943D01*
X14133086Y-7999467D01*
X14142609Y-8008990D01*
X14152133Y-8028038D01*
X14152133Y-8085181D01*
X14142609Y-8104228D01*
X14133086Y-8113752D01*
X14114038Y-8123276D01*
X14075943Y-8123276D01*
X14056895Y-8113752D01*
X14237848Y-8104228D02*
X14247371Y-8113752D01*
X14237848Y-8123276D01*
X14228324Y-8113752D01*
X14237848Y-8104228D01*
X14237848Y-8123276D01*
X14237848Y-7999467D02*
X14247371Y-8008990D01*
X14237848Y-8018514D01*
X14228324Y-8008990D01*
X14237848Y-7999467D01*
X14237848Y-8018514D01*
D12*
X12568800Y-8432800D02*
X12608800Y-8472800D01*
X12608800Y-8432800D02*
X12568800Y-8472800D01*
D11*
X12904514Y-8343276D02*
X12923562Y-8343276D01*
X12942609Y-8352800D01*
X12952133Y-8362324D01*
X12961657Y-8381371D01*
X12971181Y-8419467D01*
X12971181Y-8467086D01*
X12961657Y-8505181D01*
X12952133Y-8524229D01*
X12942609Y-8533752D01*
X12923562Y-8543276D01*
X12904514Y-8543276D01*
X12885467Y-8533752D01*
X12875943Y-8524229D01*
X12866419Y-8505181D01*
X12856895Y-8467086D01*
X12856895Y-8419467D01*
X12866419Y-8381371D01*
X12875943Y-8362324D01*
X12885467Y-8352800D01*
X12904514Y-8343276D01*
X13056895Y-8524229D02*
X13066419Y-8533752D01*
X13056895Y-8543276D01*
X13047371Y-8533752D01*
X13056895Y-8524229D01*
X13056895Y-8543276D01*
X13237848Y-8409943D02*
X13237848Y-8543276D01*
X13190228Y-8333752D02*
X13142609Y-8476610D01*
X13266419Y-8476610D01*
X13380705Y-8343276D02*
X13399752Y-8343276D01*
X13418800Y-8352800D01*
X13428324Y-8362324D01*
X13437848Y-8381371D01*
X13447371Y-8419467D01*
X13447371Y-8467086D01*
X13437848Y-8505181D01*
X13428324Y-8524229D01*
X13418800Y-8533752D01*
X13399752Y-8543276D01*
X13380705Y-8543276D01*
X13361657Y-8533752D01*
X13352133Y-8524229D01*
X13342609Y-8505181D01*
X13333086Y-8467086D01*
X13333086Y-8419467D01*
X13342609Y-8381371D01*
X13352133Y-8362324D01*
X13361657Y-8352800D01*
X13380705Y-8343276D01*
X13571181Y-8343276D02*
X13590228Y-8343276D01*
X13609276Y-8352800D01*
X13618800Y-8362324D01*
X13628324Y-8381371D01*
X13637848Y-8419467D01*
X13637848Y-8467086D01*
X13628324Y-8505181D01*
X13618800Y-8524229D01*
X13609276Y-8533752D01*
X13590228Y-8543276D01*
X13571181Y-8543276D01*
X13552133Y-8533752D01*
X13542609Y-8524229D01*
X13533086Y-8505181D01*
X13523562Y-8467086D01*
X13523562Y-8419467D01*
X13533086Y-8381371D01*
X13542609Y-8362324D01*
X13552133Y-8352800D01*
X13571181Y-8343276D01*
X13723562Y-8543276D02*
X13723562Y-8409943D01*
X13723562Y-8428990D02*
X13733086Y-8419467D01*
X13752133Y-8409943D01*
X13780705Y-8409943D01*
X13799752Y-8419467D01*
X13809276Y-8438514D01*
X13809276Y-8543276D01*
X13809276Y-8438514D02*
X13818800Y-8419467D01*
X13837848Y-8409943D01*
X13866419Y-8409943D01*
X13885467Y-8419467D01*
X13894990Y-8438514D01*
X13894990Y-8543276D01*
X13990228Y-8543276D02*
X13990228Y-8409943D01*
X13990228Y-8428990D02*
X13999752Y-8419467D01*
X14018800Y-8409943D01*
X14047371Y-8409943D01*
X14066419Y-8419467D01*
X14075943Y-8438514D01*
X14075943Y-8543276D01*
X14075943Y-8438514D02*
X14085467Y-8419467D01*
X14104514Y-8409943D01*
X14133086Y-8409943D01*
X14152133Y-8419467D01*
X14161657Y-8438514D01*
X14161657Y-8543276D01*
X14552133Y-8333752D02*
X14380705Y-8590895D01*
X14809276Y-8343276D02*
X14828324Y-8343276D01*
X14847371Y-8352800D01*
X14856895Y-8362324D01*
X14866419Y-8381371D01*
X14875943Y-8419467D01*
X14875943Y-8467086D01*
X14866419Y-8505181D01*
X14856895Y-8524229D01*
X14847371Y-8533752D01*
X14828324Y-8543276D01*
X14809276Y-8543276D01*
X14790228Y-8533752D01*
X14780705Y-8524229D01*
X14771181Y-8505181D01*
X14761657Y-8467086D01*
X14761657Y-8419467D01*
X14771181Y-8381371D01*
X14780705Y-8362324D01*
X14790228Y-8352800D01*
X14809276Y-8343276D01*
X14961657Y-8524229D02*
X14971181Y-8533752D01*
X14961657Y-8543276D01*
X14952133Y-8533752D01*
X14961657Y-8524229D01*
X14961657Y-8543276D01*
X15094990Y-8343276D02*
X15114038Y-8343276D01*
X15133086Y-8352800D01*
X15142609Y-8362324D01*
X15152133Y-8381371D01*
X15161657Y-8419467D01*
X15161657Y-8467086D01*
X15152133Y-8505181D01*
X15142609Y-8524229D01*
X15133086Y-8533752D01*
X15114038Y-8543276D01*
X15094990Y-8543276D01*
X15075943Y-8533752D01*
X15066419Y-8524229D01*
X15056895Y-8505181D01*
X15047371Y-8467086D01*
X15047371Y-8419467D01*
X15056895Y-8381371D01*
X15066419Y-8362324D01*
X15075943Y-8352800D01*
X15094990Y-8343276D01*
X15352133Y-8543276D02*
X15237848Y-8543276D01*
X15294990Y-8543276D02*
X15294990Y-8343276D01*
X15275943Y-8371848D01*
X15256895Y-8390895D01*
X15237848Y-8400419D01*
X15533086Y-8343276D02*
X15437848Y-8343276D01*
X15428324Y-8438514D01*
X15437848Y-8428990D01*
X15456895Y-8419467D01*
X15504514Y-8419467D01*
X15523562Y-8428990D01*
X15533086Y-8438514D01*
X15542609Y-8457562D01*
X15542609Y-8505181D01*
X15533086Y-8524229D01*
X15523562Y-8533752D01*
X15504514Y-8543276D01*
X15456895Y-8543276D01*
X15437848Y-8533752D01*
X15428324Y-8524229D01*
X15609276Y-8343276D02*
X15742609Y-8343276D01*
X15656895Y-8543276D01*
X15809276Y-8343276D02*
X15809276Y-8381371D01*
X15885467Y-8343276D02*
X15885467Y-8381371D01*
X16180705Y-8619467D02*
X16171181Y-8609943D01*
X16152133Y-8581371D01*
X16142609Y-8562324D01*
X16133086Y-8533752D01*
X16123562Y-8486133D01*
X16123562Y-8448038D01*
X16133086Y-8400419D01*
X16142609Y-8371848D01*
X16152133Y-8352800D01*
X16171181Y-8324228D01*
X16180705Y-8314705D01*
X16247371Y-8362324D02*
X16256895Y-8352800D01*
X16275943Y-8343276D01*
X16323562Y-8343276D01*
X16342609Y-8352800D01*
X16352133Y-8362324D01*
X16361657Y-8381371D01*
X16361657Y-8400419D01*
X16352133Y-8428990D01*
X16237848Y-8543276D01*
X16361657Y-8543276D01*
X16533086Y-8343276D02*
X16494990Y-8343276D01*
X16475943Y-8352800D01*
X16466419Y-8362324D01*
X16447371Y-8390895D01*
X16437848Y-8428990D01*
X16437848Y-8505181D01*
X16447371Y-8524229D01*
X16456895Y-8533752D01*
X16475943Y-8543276D01*
X16514038Y-8543276D01*
X16533086Y-8533752D01*
X16542609Y-8524229D01*
X16552133Y-8505181D01*
X16552133Y-8457562D01*
X16542609Y-8438514D01*
X16533086Y-8428990D01*
X16514038Y-8419467D01*
X16475943Y-8419467D01*
X16456895Y-8428990D01*
X16447371Y-8438514D01*
X16437848Y-8457562D01*
X16790229Y-8543276D02*
X16790229Y-8343276D01*
X16875943Y-8543276D02*
X16875943Y-8438514D01*
X16866419Y-8419467D01*
X16847371Y-8409943D01*
X16818800Y-8409943D01*
X16799752Y-8419467D01*
X16790229Y-8428990D01*
X16999752Y-8543276D02*
X16980705Y-8533752D01*
X16971181Y-8524229D01*
X16961657Y-8505181D01*
X16961657Y-8448038D01*
X16971181Y-8428990D01*
X16980705Y-8419467D01*
X16999752Y-8409943D01*
X17028324Y-8409943D01*
X17047371Y-8419467D01*
X17056895Y-8428990D01*
X17066419Y-8448038D01*
X17066419Y-8505181D01*
X17056895Y-8524229D01*
X17047371Y-8533752D01*
X17028324Y-8543276D01*
X16999752Y-8543276D01*
X17180705Y-8543276D02*
X17161657Y-8533752D01*
X17152133Y-8514705D01*
X17152133Y-8343276D01*
X17333086Y-8533752D02*
X17314038Y-8543276D01*
X17275943Y-8543276D01*
X17256895Y-8533752D01*
X17247371Y-8514705D01*
X17247371Y-8438514D01*
X17256895Y-8419467D01*
X17275943Y-8409943D01*
X17314038Y-8409943D01*
X17333086Y-8419467D01*
X17342610Y-8438514D01*
X17342610Y-8457562D01*
X17247371Y-8476610D01*
X17418800Y-8533752D02*
X17437848Y-8543276D01*
X17475943Y-8543276D01*
X17494990Y-8533752D01*
X17504514Y-8514705D01*
X17504514Y-8505181D01*
X17494990Y-8486133D01*
X17475943Y-8476610D01*
X17447371Y-8476610D01*
X17428324Y-8467086D01*
X17418800Y-8448038D01*
X17418800Y-8438514D01*
X17428324Y-8419467D01*
X17447371Y-8409943D01*
X17475943Y-8409943D01*
X17494990Y-8419467D01*
X17571181Y-8619467D02*
X17580705Y-8609943D01*
X17599752Y-8581371D01*
X17609276Y-8562324D01*
X17618800Y-8533752D01*
X17628324Y-8486133D01*
X17628324Y-8448038D01*
X17618800Y-8400419D01*
X17609276Y-8371848D01*
X17599752Y-8352800D01*
X17580705Y-8324228D01*
X17571181Y-8314705D01*
D13*
X12608800Y-8716800D02*
G75*
G03*
X12608800Y-8716800I-50000J0D01*
G01*
D11*
X12971181Y-8807276D02*
X12856895Y-8807276D01*
X12914038Y-8807276D02*
X12914038Y-8607276D01*
X12894990Y-8635848D01*
X12875943Y-8654895D01*
X12856895Y-8664419D01*
X13056895Y-8788229D02*
X13066419Y-8797752D01*
X13056895Y-8807276D01*
X13047371Y-8797752D01*
X13056895Y-8788229D01*
X13056895Y-8807276D01*
X13190228Y-8607276D02*
X13209276Y-8607276D01*
X13228324Y-8616800D01*
X13237848Y-8626324D01*
X13247371Y-8645371D01*
X13256895Y-8683467D01*
X13256895Y-8731086D01*
X13247371Y-8769181D01*
X13237848Y-8788229D01*
X13228324Y-8797752D01*
X13209276Y-8807276D01*
X13190228Y-8807276D01*
X13171181Y-8797752D01*
X13161657Y-8788229D01*
X13152133Y-8769181D01*
X13142609Y-8731086D01*
X13142609Y-8683467D01*
X13152133Y-8645371D01*
X13161657Y-8626324D01*
X13171181Y-8616800D01*
X13190228Y-8607276D01*
X13380705Y-8607276D02*
X13399752Y-8607276D01*
X13418800Y-8616800D01*
X13428324Y-8626324D01*
X13437848Y-8645371D01*
X13447371Y-8683467D01*
X13447371Y-8731086D01*
X13437848Y-8769181D01*
X13428324Y-8788229D01*
X13418800Y-8797752D01*
X13399752Y-8807276D01*
X13380705Y-8807276D01*
X13361657Y-8797752D01*
X13352133Y-8788229D01*
X13342609Y-8769181D01*
X13333086Y-8731086D01*
X13333086Y-8683467D01*
X13342609Y-8645371D01*
X13352133Y-8626324D01*
X13361657Y-8616800D01*
X13380705Y-8607276D01*
X13571181Y-8607276D02*
X13590228Y-8607276D01*
X13609276Y-8616800D01*
X13618800Y-8626324D01*
X13628324Y-8645371D01*
X13637848Y-8683467D01*
X13637848Y-8731086D01*
X13628324Y-8769181D01*
X13618800Y-8788229D01*
X13609276Y-8797752D01*
X13590228Y-8807276D01*
X13571181Y-8807276D01*
X13552133Y-8797752D01*
X13542609Y-8788229D01*
X13533086Y-8769181D01*
X13523562Y-8731086D01*
X13523562Y-8683467D01*
X13533086Y-8645371D01*
X13542609Y-8626324D01*
X13552133Y-8616800D01*
X13571181Y-8607276D01*
X13723562Y-8807276D02*
X13723562Y-8673943D01*
X13723562Y-8692990D02*
X13733086Y-8683467D01*
X13752133Y-8673943D01*
X13780705Y-8673943D01*
X13799752Y-8683467D01*
X13809276Y-8702514D01*
X13809276Y-8807276D01*
X13809276Y-8702514D02*
X13818800Y-8683467D01*
X13837848Y-8673943D01*
X13866419Y-8673943D01*
X13885467Y-8683467D01*
X13894990Y-8702514D01*
X13894990Y-8807276D01*
X13990228Y-8807276D02*
X13990228Y-8673943D01*
X13990228Y-8692990D02*
X13999752Y-8683467D01*
X14018800Y-8673943D01*
X14047371Y-8673943D01*
X14066419Y-8683467D01*
X14075943Y-8702514D01*
X14075943Y-8807276D01*
X14075943Y-8702514D02*
X14085467Y-8683467D01*
X14104514Y-8673943D01*
X14133086Y-8673943D01*
X14152133Y-8683467D01*
X14161657Y-8702514D01*
X14161657Y-8807276D01*
X14552133Y-8597752D02*
X14380705Y-8854895D01*
X14809276Y-8607276D02*
X14828324Y-8607276D01*
X14847371Y-8616800D01*
X14856895Y-8626324D01*
X14866419Y-8645371D01*
X14875943Y-8683467D01*
X14875943Y-8731086D01*
X14866419Y-8769181D01*
X14856895Y-8788229D01*
X14847371Y-8797752D01*
X14828324Y-8807276D01*
X14809276Y-8807276D01*
X14790228Y-8797752D01*
X14780705Y-8788229D01*
X14771181Y-8769181D01*
X14761657Y-8731086D01*
X14761657Y-8683467D01*
X14771181Y-8645371D01*
X14780705Y-8626324D01*
X14790228Y-8616800D01*
X14809276Y-8607276D01*
X14961657Y-8788229D02*
X14971181Y-8797752D01*
X14961657Y-8807276D01*
X14952133Y-8797752D01*
X14961657Y-8788229D01*
X14961657Y-8807276D01*
X15094990Y-8607276D02*
X15114038Y-8607276D01*
X15133086Y-8616800D01*
X15142609Y-8626324D01*
X15152133Y-8645371D01*
X15161657Y-8683467D01*
X15161657Y-8731086D01*
X15152133Y-8769181D01*
X15142609Y-8788229D01*
X15133086Y-8797752D01*
X15114038Y-8807276D01*
X15094990Y-8807276D01*
X15075943Y-8797752D01*
X15066419Y-8788229D01*
X15056895Y-8769181D01*
X15047371Y-8731086D01*
X15047371Y-8683467D01*
X15056895Y-8645371D01*
X15066419Y-8626324D01*
X15075943Y-8616800D01*
X15094990Y-8607276D01*
X15228324Y-8607276D02*
X15352133Y-8607276D01*
X15285467Y-8683467D01*
X15314038Y-8683467D01*
X15333086Y-8692990D01*
X15342609Y-8702514D01*
X15352133Y-8721562D01*
X15352133Y-8769181D01*
X15342609Y-8788229D01*
X15333086Y-8797752D01*
X15314038Y-8807276D01*
X15256895Y-8807276D01*
X15237848Y-8797752D01*
X15228324Y-8788229D01*
X15447371Y-8807276D02*
X15485467Y-8807276D01*
X15504514Y-8797752D01*
X15514038Y-8788229D01*
X15533086Y-8759657D01*
X15542609Y-8721562D01*
X15542609Y-8645371D01*
X15533086Y-8626324D01*
X15523562Y-8616800D01*
X15504514Y-8607276D01*
X15466419Y-8607276D01*
X15447371Y-8616800D01*
X15437848Y-8626324D01*
X15428324Y-8645371D01*
X15428324Y-8692990D01*
X15437848Y-8712038D01*
X15447371Y-8721562D01*
X15466419Y-8731086D01*
X15504514Y-8731086D01*
X15523562Y-8721562D01*
X15533086Y-8712038D01*
X15542609Y-8692990D01*
X15714038Y-8673943D02*
X15714038Y-8807276D01*
X15666419Y-8597752D02*
X15618800Y-8740610D01*
X15742609Y-8740610D01*
X15809276Y-8607276D02*
X15809276Y-8645371D01*
X15885467Y-8607276D02*
X15885467Y-8645371D01*
X16180705Y-8883467D02*
X16171181Y-8873943D01*
X16152133Y-8845371D01*
X16142609Y-8826324D01*
X16133086Y-8797752D01*
X16123562Y-8750133D01*
X16123562Y-8712038D01*
X16133086Y-8664419D01*
X16142609Y-8635848D01*
X16152133Y-8616800D01*
X16171181Y-8588229D01*
X16180705Y-8578705D01*
X16237848Y-8607276D02*
X16371181Y-8607276D01*
X16285467Y-8807276D01*
X16599752Y-8807276D02*
X16599752Y-8607276D01*
X16685467Y-8807276D02*
X16685467Y-8702514D01*
X16675943Y-8683467D01*
X16656895Y-8673943D01*
X16628324Y-8673943D01*
X16609276Y-8683467D01*
X16599752Y-8692990D01*
X16809276Y-8807276D02*
X16790229Y-8797752D01*
X16780705Y-8788229D01*
X16771181Y-8769181D01*
X16771181Y-8712038D01*
X16780705Y-8692990D01*
X16790229Y-8683467D01*
X16809276Y-8673943D01*
X16837848Y-8673943D01*
X16856895Y-8683467D01*
X16866419Y-8692990D01*
X16875943Y-8712038D01*
X16875943Y-8769181D01*
X16866419Y-8788229D01*
X16856895Y-8797752D01*
X16837848Y-8807276D01*
X16809276Y-8807276D01*
X16990229Y-8807276D02*
X16971181Y-8797752D01*
X16961657Y-8778705D01*
X16961657Y-8607276D01*
X17142610Y-8797752D02*
X17123562Y-8807276D01*
X17085467Y-8807276D01*
X17066419Y-8797752D01*
X17056895Y-8778705D01*
X17056895Y-8702514D01*
X17066419Y-8683467D01*
X17085467Y-8673943D01*
X17123562Y-8673943D01*
X17142610Y-8683467D01*
X17152133Y-8702514D01*
X17152133Y-8721562D01*
X17056895Y-8740610D01*
X17228324Y-8797752D02*
X17247371Y-8807276D01*
X17285467Y-8807276D01*
X17304514Y-8797752D01*
X17314038Y-8778705D01*
X17314038Y-8769181D01*
X17304514Y-8750133D01*
X17285467Y-8740610D01*
X17256895Y-8740610D01*
X17237848Y-8731086D01*
X17228324Y-8712038D01*
X17228324Y-8702514D01*
X17237848Y-8683467D01*
X17256895Y-8673943D01*
X17285467Y-8673943D01*
X17304514Y-8683467D01*
X17380705Y-8883467D02*
X17390229Y-8873943D01*
X17409276Y-8845371D01*
X17418800Y-8826324D01*
X17428324Y-8797752D01*
X17437848Y-8750133D01*
X17437848Y-8712038D01*
X17428324Y-8664419D01*
X17418800Y-8635848D01*
X17409276Y-8616800D01*
X17390229Y-8588229D01*
X17380705Y-8578705D01*
D14*
X12538800Y-8910800D02*
X12538800Y-9050800D01*
X12468800Y-8980800D02*
X12608800Y-8980800D01*
D11*
X12971181Y-9071276D02*
X12856895Y-9071276D01*
X12914038Y-9071276D02*
X12914038Y-8871276D01*
X12894990Y-8899848D01*
X12875943Y-8918895D01*
X12856895Y-8928419D01*
X13056895Y-9052229D02*
X13066419Y-9061752D01*
X13056895Y-9071276D01*
X13047371Y-9061752D01*
X13056895Y-9052229D01*
X13056895Y-9071276D01*
X13237848Y-8937943D02*
X13237848Y-9071276D01*
X13190228Y-8861752D02*
X13142609Y-9004610D01*
X13266419Y-9004610D01*
X13380705Y-8871276D02*
X13399752Y-8871276D01*
X13418800Y-8880800D01*
X13428324Y-8890324D01*
X13437848Y-8909371D01*
X13447371Y-8947467D01*
X13447371Y-8995086D01*
X13437848Y-9033181D01*
X13428324Y-9052229D01*
X13418800Y-9061752D01*
X13399752Y-9071276D01*
X13380705Y-9071276D01*
X13361657Y-9061752D01*
X13352133Y-9052229D01*
X13342609Y-9033181D01*
X13333086Y-8995086D01*
X13333086Y-8947467D01*
X13342609Y-8909371D01*
X13352133Y-8890324D01*
X13361657Y-8880800D01*
X13380705Y-8871276D01*
X13571181Y-8871276D02*
X13590228Y-8871276D01*
X13609276Y-8880800D01*
X13618800Y-8890324D01*
X13628324Y-8909371D01*
X13637848Y-8947467D01*
X13637848Y-8995086D01*
X13628324Y-9033181D01*
X13618800Y-9052229D01*
X13609276Y-9061752D01*
X13590228Y-9071276D01*
X13571181Y-9071276D01*
X13552133Y-9061752D01*
X13542609Y-9052229D01*
X13533086Y-9033181D01*
X13523562Y-8995086D01*
X13523562Y-8947467D01*
X13533086Y-8909371D01*
X13542609Y-8890324D01*
X13552133Y-8880800D01*
X13571181Y-8871276D01*
X13723562Y-9071276D02*
X13723562Y-8937943D01*
X13723562Y-8956990D02*
X13733086Y-8947467D01*
X13752133Y-8937943D01*
X13780705Y-8937943D01*
X13799752Y-8947467D01*
X13809276Y-8966514D01*
X13809276Y-9071276D01*
X13809276Y-8966514D02*
X13818800Y-8947467D01*
X13837848Y-8937943D01*
X13866419Y-8937943D01*
X13885467Y-8947467D01*
X13894990Y-8966514D01*
X13894990Y-9071276D01*
X13990228Y-9071276D02*
X13990228Y-8937943D01*
X13990228Y-8956990D02*
X13999752Y-8947467D01*
X14018800Y-8937943D01*
X14047371Y-8937943D01*
X14066419Y-8947467D01*
X14075943Y-8966514D01*
X14075943Y-9071276D01*
X14075943Y-8966514D02*
X14085467Y-8947467D01*
X14104514Y-8937943D01*
X14133086Y-8937943D01*
X14152133Y-8947467D01*
X14161657Y-8966514D01*
X14161657Y-9071276D01*
X14552133Y-8861752D02*
X14380705Y-9118895D01*
X14809276Y-8871276D02*
X14828324Y-8871276D01*
X14847371Y-8880800D01*
X14856895Y-8890324D01*
X14866419Y-8909371D01*
X14875943Y-8947467D01*
X14875943Y-8995086D01*
X14866419Y-9033181D01*
X14856895Y-9052229D01*
X14847371Y-9061752D01*
X14828324Y-9071276D01*
X14809276Y-9071276D01*
X14790228Y-9061752D01*
X14780705Y-9052229D01*
X14771181Y-9033181D01*
X14761657Y-8995086D01*
X14761657Y-8947467D01*
X14771181Y-8909371D01*
X14780705Y-8890324D01*
X14790228Y-8880800D01*
X14809276Y-8871276D01*
X14961657Y-9052229D02*
X14971181Y-9061752D01*
X14961657Y-9071276D01*
X14952133Y-9061752D01*
X14961657Y-9052229D01*
X14961657Y-9071276D01*
X15094990Y-8871276D02*
X15114038Y-8871276D01*
X15133086Y-8880800D01*
X15142609Y-8890324D01*
X15152133Y-8909371D01*
X15161657Y-8947467D01*
X15161657Y-8995086D01*
X15152133Y-9033181D01*
X15142609Y-9052229D01*
X15133086Y-9061752D01*
X15114038Y-9071276D01*
X15094990Y-9071276D01*
X15075943Y-9061752D01*
X15066419Y-9052229D01*
X15056895Y-9033181D01*
X15047371Y-8995086D01*
X15047371Y-8947467D01*
X15056895Y-8909371D01*
X15066419Y-8890324D01*
X15075943Y-8880800D01*
X15094990Y-8871276D01*
X15342609Y-8871276D02*
X15247371Y-8871276D01*
X15237848Y-8966514D01*
X15247371Y-8956990D01*
X15266419Y-8947467D01*
X15314038Y-8947467D01*
X15333086Y-8956990D01*
X15342609Y-8966514D01*
X15352133Y-8985562D01*
X15352133Y-9033181D01*
X15342609Y-9052229D01*
X15333086Y-9061752D01*
X15314038Y-9071276D01*
X15266419Y-9071276D01*
X15247371Y-9061752D01*
X15237848Y-9052229D01*
X15533086Y-8871276D02*
X15437848Y-8871276D01*
X15428324Y-8966514D01*
X15437848Y-8956990D01*
X15456895Y-8947467D01*
X15504514Y-8947467D01*
X15523562Y-8956990D01*
X15533086Y-8966514D01*
X15542609Y-8985562D01*
X15542609Y-9033181D01*
X15533086Y-9052229D01*
X15523562Y-9061752D01*
X15504514Y-9071276D01*
X15456895Y-9071276D01*
X15437848Y-9061752D01*
X15428324Y-9052229D01*
X15733086Y-9071276D02*
X15618800Y-9071276D01*
X15675943Y-9071276D02*
X15675943Y-8871276D01*
X15656895Y-8899848D01*
X15637848Y-8918895D01*
X15618800Y-8928419D01*
X15809276Y-8871276D02*
X15809276Y-8909371D01*
X15885467Y-8871276D02*
X15885467Y-8909371D01*
X16180705Y-9147467D02*
X16171181Y-9137943D01*
X16152133Y-9109371D01*
X16142609Y-9090324D01*
X16133086Y-9061752D01*
X16123562Y-9014133D01*
X16123562Y-8976038D01*
X16133086Y-8928419D01*
X16142609Y-8899848D01*
X16152133Y-8880800D01*
X16171181Y-8852229D01*
X16180705Y-8842705D01*
X16361657Y-9071276D02*
X16247371Y-9071276D01*
X16304514Y-9071276D02*
X16304514Y-8871276D01*
X16285467Y-8899848D01*
X16266419Y-8918895D01*
X16247371Y-8928419D01*
X16599752Y-9071276D02*
X16599752Y-8871276D01*
X16685467Y-9071276D02*
X16685467Y-8966514D01*
X16675943Y-8947467D01*
X16656895Y-8937943D01*
X16628324Y-8937943D01*
X16609276Y-8947467D01*
X16599752Y-8956990D01*
X16809276Y-9071276D02*
X16790229Y-9061752D01*
X16780705Y-9052229D01*
X16771181Y-9033181D01*
X16771181Y-8976038D01*
X16780705Y-8956990D01*
X16790229Y-8947467D01*
X16809276Y-8937943D01*
X16837848Y-8937943D01*
X16856895Y-8947467D01*
X16866419Y-8956990D01*
X16875943Y-8976038D01*
X16875943Y-9033181D01*
X16866419Y-9052229D01*
X16856895Y-9061752D01*
X16837848Y-9071276D01*
X16809276Y-9071276D01*
X16990229Y-9071276D02*
X16971181Y-9061752D01*
X16961657Y-9042705D01*
X16961657Y-8871276D01*
X17142610Y-9061752D02*
X17123562Y-9071276D01*
X17085467Y-9071276D01*
X17066419Y-9061752D01*
X17056895Y-9042705D01*
X17056895Y-8966514D01*
X17066419Y-8947467D01*
X17085467Y-8937943D01*
X17123562Y-8937943D01*
X17142610Y-8947467D01*
X17152133Y-8966514D01*
X17152133Y-8985562D01*
X17056895Y-9004610D01*
X17218800Y-9147467D02*
X17228324Y-9137943D01*
X17247371Y-9109371D01*
X17256895Y-9090324D01*
X17266419Y-9061752D01*
X17275943Y-9014133D01*
X17275943Y-8976038D01*
X17266419Y-8928419D01*
X17256895Y-8899848D01*
X17247371Y-8880800D01*
X17228324Y-8852229D01*
X17218800Y-8842705D01*
M02*
