G04 #@! TF.GenerationSoftware,KiCad,Pcbnew,(5.99.0-10336-g9846076676)*
G04 #@! TF.CreationDate,2021-04-19T15:00:14+12:00*
G04 #@! TF.ProjectId,OpenHVPS-5,4f70656e-4856-4505-932d-352e6b696361,V1.2.1*
G04 #@! TF.SameCoordinates,Original*
G04 #@! TF.FileFunction,Legend,Bot*
G04 #@! TF.FilePolarity,Positive*
%FSLAX46Y46*%
G04 Gerber Fmt 4.6, Leading zero omitted, Abs format (unit mm)*
G04 Created by KiCad (PCBNEW (5.99.0-10336-g9846076676)) date 2021-04-19 15:00:14*
%MOMM*%
%LPD*%
G01*
G04 APERTURE LIST*
%ADD10C,0.150000*%
%ADD11C,0.325000*%
%ADD12C,0.100000*%
%ADD13C,0.075000*%
%ADD14C,0.120000*%
G04 APERTURE END LIST*
D10*
X159512000Y-77575000D02*
X165100000Y-77575000D01*
X166370000Y-76200000D02*
X165100000Y-77575000D01*
X159512000Y-69350000D02*
X161520000Y-69350000D01*
X161520000Y-65405000D02*
X166370000Y-65405000D01*
X133670000Y-67770000D02*
X135370000Y-67770000D01*
X166370000Y-65405000D02*
X166370000Y-76200000D01*
X159512000Y-71500000D02*
X159512000Y-77575000D01*
D11*
X140362500Y-65500000D02*
G75*
G03*
X140362500Y-65500000I-162500J0D01*
G01*
D10*
X161520000Y-69350000D02*
X161520000Y-65405000D01*
X159512000Y-71500000D02*
X159512000Y-69350000D01*
D12*
X134305952Y-73450000D02*
X134353571Y-73426190D01*
X134425000Y-73426190D01*
X134496428Y-73450000D01*
X134544047Y-73497619D01*
X134567857Y-73545238D01*
X134591666Y-73640476D01*
X134591666Y-73711904D01*
X134567857Y-73807142D01*
X134544047Y-73854761D01*
X134496428Y-73902380D01*
X134425000Y-73926190D01*
X134377380Y-73926190D01*
X134305952Y-73902380D01*
X134282142Y-73878571D01*
X134282142Y-73711904D01*
X134377380Y-73711904D01*
X134067857Y-73926190D02*
X134067857Y-73426190D01*
X133782142Y-73926190D01*
X133782142Y-73426190D01*
X133544047Y-73926190D02*
X133544047Y-73426190D01*
X133425000Y-73426190D01*
X133353571Y-73450000D01*
X133305952Y-73497619D01*
X133282142Y-73545238D01*
X133258333Y-73640476D01*
X133258333Y-73711904D01*
X133282142Y-73807142D01*
X133305952Y-73854761D01*
X133353571Y-73902380D01*
X133425000Y-73926190D01*
X133544047Y-73926190D01*
X160841714Y-58674523D02*
X160706000Y-58719761D01*
X160479809Y-58719761D01*
X160389333Y-58674523D01*
X160344095Y-58629285D01*
X160298857Y-58538809D01*
X160298857Y-58448333D01*
X160344095Y-58357857D01*
X160389333Y-58312619D01*
X160479809Y-58267380D01*
X160660761Y-58222142D01*
X160751238Y-58176904D01*
X160796476Y-58131666D01*
X160841714Y-58041190D01*
X160841714Y-57950714D01*
X160796476Y-57860238D01*
X160751238Y-57815000D01*
X160660761Y-57769761D01*
X160434571Y-57769761D01*
X160298857Y-57815000D01*
X159936952Y-58448333D02*
X159484571Y-58448333D01*
X160027428Y-58719761D02*
X159710761Y-57769761D01*
X159394095Y-58719761D01*
X158760761Y-58222142D02*
X159077428Y-58222142D01*
X159077428Y-58719761D02*
X159077428Y-57769761D01*
X158625047Y-57769761D01*
X158263142Y-58222142D02*
X157946476Y-58222142D01*
X157810761Y-58719761D02*
X158263142Y-58719761D01*
X158263142Y-57769761D01*
X157810761Y-57769761D01*
X156860761Y-58629285D02*
X156906000Y-58674523D01*
X157041714Y-58719761D01*
X157132190Y-58719761D01*
X157267904Y-58674523D01*
X157358380Y-58584047D01*
X157403619Y-58493571D01*
X157448857Y-58312619D01*
X157448857Y-58176904D01*
X157403619Y-57995952D01*
X157358380Y-57905476D01*
X157267904Y-57815000D01*
X157132190Y-57769761D01*
X157041714Y-57769761D01*
X156906000Y-57815000D01*
X156860761Y-57860238D01*
X156498857Y-58448333D02*
X156046476Y-58448333D01*
X156589333Y-58719761D02*
X156272666Y-57769761D01*
X155956000Y-58719761D01*
X155684571Y-58674523D02*
X155548857Y-58719761D01*
X155322666Y-58719761D01*
X155232190Y-58674523D01*
X155186952Y-58629285D01*
X155141714Y-58538809D01*
X155141714Y-58448333D01*
X155186952Y-58357857D01*
X155232190Y-58312619D01*
X155322666Y-58267380D01*
X155503619Y-58222142D01*
X155594095Y-58176904D01*
X155639333Y-58131666D01*
X155684571Y-58041190D01*
X155684571Y-57950714D01*
X155639333Y-57860238D01*
X155594095Y-57815000D01*
X155503619Y-57769761D01*
X155277428Y-57769761D01*
X155141714Y-57815000D01*
X154870285Y-57769761D02*
X154327428Y-57769761D01*
X154598857Y-58719761D02*
X154598857Y-57769761D01*
X154010761Y-58629285D02*
X153965523Y-58674523D01*
X154010761Y-58719761D01*
X154056000Y-58674523D01*
X154010761Y-58629285D01*
X154010761Y-58719761D01*
X153377428Y-57769761D02*
X153196476Y-57769761D01*
X153106000Y-57815000D01*
X153015523Y-57905476D01*
X152970285Y-58086428D01*
X152970285Y-58403095D01*
X153015523Y-58584047D01*
X153106000Y-58674523D01*
X153196476Y-58719761D01*
X153377428Y-58719761D01*
X153467904Y-58674523D01*
X153558380Y-58584047D01*
X153603619Y-58403095D01*
X153603619Y-58086428D01*
X153558380Y-57905476D01*
X153467904Y-57815000D01*
X153377428Y-57769761D01*
X152020285Y-58719761D02*
X152336952Y-58267380D01*
X152563142Y-58719761D02*
X152563142Y-57769761D01*
X152201238Y-57769761D01*
X152110761Y-57815000D01*
X152065523Y-57860238D01*
X152020285Y-57950714D01*
X152020285Y-58086428D01*
X152065523Y-58176904D01*
X152110761Y-58222142D01*
X152201238Y-58267380D01*
X152563142Y-58267380D01*
X151115523Y-57815000D02*
X151206000Y-57769761D01*
X151341714Y-57769761D01*
X151477428Y-57815000D01*
X151567904Y-57905476D01*
X151613142Y-57995952D01*
X151658380Y-58176904D01*
X151658380Y-58312619D01*
X151613142Y-58493571D01*
X151567904Y-58584047D01*
X151477428Y-58674523D01*
X151341714Y-58719761D01*
X151251238Y-58719761D01*
X151115523Y-58674523D01*
X151070285Y-58629285D01*
X151070285Y-58312619D01*
X151251238Y-58312619D01*
X128721952Y-73711428D02*
X127960047Y-73711428D01*
X128341000Y-74092380D02*
X128341000Y-73330476D01*
D13*
X137572190Y-77545380D02*
X137500761Y-77569190D01*
X137381714Y-77569190D01*
X137334095Y-77545380D01*
X137310285Y-77521571D01*
X137286476Y-77473952D01*
X137286476Y-77426333D01*
X137310285Y-77378714D01*
X137334095Y-77354904D01*
X137381714Y-77331095D01*
X137476952Y-77307285D01*
X137524571Y-77283476D01*
X137548380Y-77259666D01*
X137572190Y-77212047D01*
X137572190Y-77164428D01*
X137548380Y-77116809D01*
X137524571Y-77093000D01*
X137476952Y-77069190D01*
X137357904Y-77069190D01*
X137286476Y-77093000D01*
X137096000Y-77426333D02*
X136857904Y-77426333D01*
X137143619Y-77569190D02*
X136976952Y-77069190D01*
X136810285Y-77569190D01*
X136476952Y-77307285D02*
X136643619Y-77307285D01*
X136643619Y-77569190D02*
X136643619Y-77069190D01*
X136405523Y-77069190D01*
X136215047Y-77307285D02*
X136048380Y-77307285D01*
X135976952Y-77569190D02*
X136215047Y-77569190D01*
X136215047Y-77069190D01*
X135976952Y-77069190D01*
X135762666Y-77569190D02*
X135762666Y-77069190D01*
X135572190Y-77069190D01*
X135524571Y-77093000D01*
X135500761Y-77116809D01*
X135476952Y-77164428D01*
X135476952Y-77235857D01*
X135500761Y-77283476D01*
X135524571Y-77307285D01*
X135572190Y-77331095D01*
X135762666Y-77331095D01*
X135262666Y-77069190D02*
X135262666Y-77473952D01*
X135238857Y-77521571D01*
X135215047Y-77545380D01*
X135167428Y-77569190D01*
X135072190Y-77569190D01*
X135024571Y-77545380D01*
X135000761Y-77521571D01*
X134976952Y-77473952D01*
X134976952Y-77069190D01*
X134500761Y-77569190D02*
X134738857Y-77569190D01*
X134738857Y-77069190D01*
X134357904Y-77545380D02*
X134286476Y-77569190D01*
X134167428Y-77569190D01*
X134119809Y-77545380D01*
X134096000Y-77521571D01*
X134072190Y-77473952D01*
X134072190Y-77426333D01*
X134096000Y-77378714D01*
X134119809Y-77354904D01*
X134167428Y-77331095D01*
X134262666Y-77307285D01*
X134310285Y-77283476D01*
X134334095Y-77259666D01*
X134357904Y-77212047D01*
X134357904Y-77164428D01*
X134334095Y-77116809D01*
X134310285Y-77093000D01*
X134262666Y-77069190D01*
X134143619Y-77069190D01*
X134072190Y-77093000D01*
X133857904Y-77307285D02*
X133691238Y-77307285D01*
X133619809Y-77569190D02*
X133857904Y-77569190D01*
X133857904Y-77069190D01*
X133619809Y-77069190D01*
X130810285Y-77069190D02*
X130643619Y-77569190D01*
X130476952Y-77069190D01*
X130048380Y-77569190D02*
X130334095Y-77569190D01*
X130191238Y-77569190D02*
X130191238Y-77069190D01*
X130238857Y-77140619D01*
X130286476Y-77188238D01*
X130334095Y-77212047D01*
X129834095Y-77521571D02*
X129810285Y-77545380D01*
X129834095Y-77569190D01*
X129857904Y-77545380D01*
X129834095Y-77521571D01*
X129834095Y-77569190D01*
X129619809Y-77116809D02*
X129596000Y-77093000D01*
X129548380Y-77069190D01*
X129429333Y-77069190D01*
X129381714Y-77093000D01*
X129357904Y-77116809D01*
X129334095Y-77164428D01*
X129334095Y-77212047D01*
X129357904Y-77283476D01*
X129643619Y-77569190D01*
X129334095Y-77569190D01*
X129119809Y-77521571D02*
X129096000Y-77545380D01*
X129119809Y-77569190D01*
X129143619Y-77545380D01*
X129119809Y-77521571D01*
X129119809Y-77569190D01*
X128619809Y-77569190D02*
X128905523Y-77569190D01*
X128762666Y-77569190D02*
X128762666Y-77069190D01*
X128810285Y-77140619D01*
X128857904Y-77188238D01*
X128905523Y-77212047D01*
D12*
X131785761Y-73926190D02*
X131785761Y-73426190D01*
X131595285Y-73426190D01*
X131547666Y-73450000D01*
X131523857Y-73473809D01*
X131500047Y-73521428D01*
X131500047Y-73592857D01*
X131523857Y-73640476D01*
X131547666Y-73664285D01*
X131595285Y-73688095D01*
X131785761Y-73688095D01*
X131071476Y-73592857D02*
X131071476Y-73926190D01*
X131285761Y-73592857D02*
X131285761Y-73854761D01*
X131261952Y-73902380D01*
X131214333Y-73926190D01*
X131142904Y-73926190D01*
X131095285Y-73902380D01*
X131071476Y-73878571D01*
X130761952Y-73926190D02*
X130809571Y-73902380D01*
X130833380Y-73854761D01*
X130833380Y-73426190D01*
X130595285Y-73902380D02*
X130547666Y-73926190D01*
X130452428Y-73926190D01*
X130404809Y-73902380D01*
X130381000Y-73854761D01*
X130381000Y-73830952D01*
X130404809Y-73783333D01*
X130452428Y-73759523D01*
X130523857Y-73759523D01*
X130571476Y-73735714D01*
X130595285Y-73688095D01*
X130595285Y-73664285D01*
X130571476Y-73616666D01*
X130523857Y-73592857D01*
X130452428Y-73592857D01*
X130404809Y-73616666D01*
X129976238Y-73902380D02*
X130023857Y-73926190D01*
X130119095Y-73926190D01*
X130166714Y-73902380D01*
X130190523Y-73854761D01*
X130190523Y-73664285D01*
X130166714Y-73616666D01*
X130119095Y-73592857D01*
X130023857Y-73592857D01*
X129976238Y-73616666D01*
X129952428Y-73664285D01*
X129952428Y-73711904D01*
X130190523Y-73759523D01*
D13*
X162785904Y-73616333D02*
X162547809Y-73616333D01*
X162833523Y-73759190D02*
X162666857Y-73259190D01*
X162500190Y-73759190D01*
X162333523Y-73425857D02*
X162333523Y-73759190D01*
X162333523Y-73473476D02*
X162309714Y-73449666D01*
X162262095Y-73425857D01*
X162190666Y-73425857D01*
X162143047Y-73449666D01*
X162119238Y-73497285D01*
X162119238Y-73759190D01*
X161809714Y-73759190D02*
X161857333Y-73735380D01*
X161881142Y-73711571D01*
X161904952Y-73663952D01*
X161904952Y-73521095D01*
X161881142Y-73473476D01*
X161857333Y-73449666D01*
X161809714Y-73425857D01*
X161738285Y-73425857D01*
X161690666Y-73449666D01*
X161666857Y-73473476D01*
X161643047Y-73521095D01*
X161643047Y-73663952D01*
X161666857Y-73711571D01*
X161690666Y-73735380D01*
X161738285Y-73759190D01*
X161809714Y-73759190D01*
X161214476Y-73759190D02*
X161214476Y-73259190D01*
X161214476Y-73735380D02*
X161262095Y-73759190D01*
X161357333Y-73759190D01*
X161404952Y-73735380D01*
X161428761Y-73711571D01*
X161452571Y-73663952D01*
X161452571Y-73521095D01*
X161428761Y-73473476D01*
X161404952Y-73449666D01*
X161357333Y-73425857D01*
X161262095Y-73425857D01*
X161214476Y-73449666D01*
X160785904Y-73735380D02*
X160833523Y-73759190D01*
X160928761Y-73759190D01*
X160976380Y-73735380D01*
X161000190Y-73687761D01*
X161000190Y-73497285D01*
X160976380Y-73449666D01*
X160928761Y-73425857D01*
X160833523Y-73425857D01*
X160785904Y-73449666D01*
X160762095Y-73497285D01*
X160762095Y-73544904D01*
X161000190Y-73592523D01*
X162785904Y-77172333D02*
X162547809Y-77172333D01*
X162833523Y-77315190D02*
X162666857Y-76815190D01*
X162500190Y-77315190D01*
X162333523Y-76981857D02*
X162333523Y-77315190D01*
X162333523Y-77029476D02*
X162309714Y-77005666D01*
X162262095Y-76981857D01*
X162190666Y-76981857D01*
X162143047Y-77005666D01*
X162119238Y-77053285D01*
X162119238Y-77315190D01*
X161809714Y-77315190D02*
X161857333Y-77291380D01*
X161881142Y-77267571D01*
X161904952Y-77219952D01*
X161904952Y-77077095D01*
X161881142Y-77029476D01*
X161857333Y-77005666D01*
X161809714Y-76981857D01*
X161738285Y-76981857D01*
X161690666Y-77005666D01*
X161666857Y-77029476D01*
X161643047Y-77077095D01*
X161643047Y-77219952D01*
X161666857Y-77267571D01*
X161690666Y-77291380D01*
X161738285Y-77315190D01*
X161809714Y-77315190D01*
X161214476Y-77315190D02*
X161214476Y-76815190D01*
X161214476Y-77291380D02*
X161262095Y-77315190D01*
X161357333Y-77315190D01*
X161404952Y-77291380D01*
X161428761Y-77267571D01*
X161452571Y-77219952D01*
X161452571Y-77077095D01*
X161428761Y-77029476D01*
X161404952Y-77005666D01*
X161357333Y-76981857D01*
X161262095Y-76981857D01*
X161214476Y-77005666D01*
X160785904Y-77291380D02*
X160833523Y-77315190D01*
X160928761Y-77315190D01*
X160976380Y-77291380D01*
X161000190Y-77243761D01*
X161000190Y-77053285D01*
X160976380Y-77005666D01*
X160928761Y-76981857D01*
X160833523Y-76981857D01*
X160785904Y-77005666D01*
X160762095Y-77053285D01*
X160762095Y-77100904D01*
X161000190Y-77148523D01*
X139607142Y-73743571D02*
X139630952Y-73767380D01*
X139702380Y-73791190D01*
X139750000Y-73791190D01*
X139821428Y-73767380D01*
X139869047Y-73719761D01*
X139892857Y-73672142D01*
X139916666Y-73576904D01*
X139916666Y-73505476D01*
X139892857Y-73410238D01*
X139869047Y-73362619D01*
X139821428Y-73315000D01*
X139750000Y-73291190D01*
X139702380Y-73291190D01*
X139630952Y-73315000D01*
X139607142Y-73338809D01*
X139178571Y-73791190D02*
X139178571Y-73529285D01*
X139202380Y-73481666D01*
X139250000Y-73457857D01*
X139345238Y-73457857D01*
X139392857Y-73481666D01*
X139178571Y-73767380D02*
X139226190Y-73791190D01*
X139345238Y-73791190D01*
X139392857Y-73767380D01*
X139416666Y-73719761D01*
X139416666Y-73672142D01*
X139392857Y-73624523D01*
X139345238Y-73600714D01*
X139226190Y-73600714D01*
X139178571Y-73576904D01*
X139011904Y-73457857D02*
X138821428Y-73457857D01*
X138940476Y-73291190D02*
X138940476Y-73719761D01*
X138916666Y-73767380D01*
X138869047Y-73791190D01*
X138821428Y-73791190D01*
X138654761Y-73791190D02*
X138654761Y-73291190D01*
X138440476Y-73791190D02*
X138440476Y-73529285D01*
X138464285Y-73481666D01*
X138511904Y-73457857D01*
X138583333Y-73457857D01*
X138630952Y-73481666D01*
X138654761Y-73505476D01*
X138130952Y-73791190D02*
X138178571Y-73767380D01*
X138202380Y-73743571D01*
X138226190Y-73695952D01*
X138226190Y-73553095D01*
X138202380Y-73505476D01*
X138178571Y-73481666D01*
X138130952Y-73457857D01*
X138059523Y-73457857D01*
X138011904Y-73481666D01*
X137988095Y-73505476D01*
X137964285Y-73553095D01*
X137964285Y-73695952D01*
X137988095Y-73743571D01*
X138011904Y-73767380D01*
X138059523Y-73791190D01*
X138130952Y-73791190D01*
X137535714Y-73791190D02*
X137535714Y-73291190D01*
X137535714Y-73767380D02*
X137583333Y-73791190D01*
X137678571Y-73791190D01*
X137726190Y-73767380D01*
X137750000Y-73743571D01*
X137773809Y-73695952D01*
X137773809Y-73553095D01*
X137750000Y-73505476D01*
X137726190Y-73481666D01*
X137678571Y-73457857D01*
X137583333Y-73457857D01*
X137535714Y-73481666D01*
X137107142Y-73767380D02*
X137154761Y-73791190D01*
X137250000Y-73791190D01*
X137297619Y-73767380D01*
X137321428Y-73719761D01*
X137321428Y-73529285D01*
X137297619Y-73481666D01*
X137250000Y-73457857D01*
X137154761Y-73457857D01*
X137107142Y-73481666D01*
X137083333Y-73529285D01*
X137083333Y-73576904D01*
X137321428Y-73624523D01*
X133150952Y-68996190D02*
X132865238Y-68996190D01*
X133008095Y-69496190D02*
X133008095Y-68996190D01*
X132698571Y-69496190D02*
X132698571Y-68996190D01*
X132508095Y-68996190D01*
X132460476Y-69020000D01*
X132436666Y-69043809D01*
X132412857Y-69091428D01*
X132412857Y-69162857D01*
X132436666Y-69210476D01*
X132460476Y-69234285D01*
X132508095Y-69258095D01*
X132698571Y-69258095D01*
X131960476Y-68996190D02*
X132198571Y-68996190D01*
X132222380Y-69234285D01*
X132198571Y-69210476D01*
X132150952Y-69186666D01*
X132031904Y-69186666D01*
X131984285Y-69210476D01*
X131960476Y-69234285D01*
X131936666Y-69281904D01*
X131936666Y-69400952D01*
X131960476Y-69448571D01*
X131984285Y-69472380D01*
X132031904Y-69496190D01*
X132150952Y-69496190D01*
X132198571Y-69472380D01*
X132222380Y-69448571D01*
X142029428Y-76427690D02*
X142196095Y-76189595D01*
X142315142Y-76427690D02*
X142315142Y-75927690D01*
X142124666Y-75927690D01*
X142077047Y-75951500D01*
X142053238Y-75975309D01*
X142029428Y-76022928D01*
X142029428Y-76094357D01*
X142053238Y-76141976D01*
X142077047Y-76165785D01*
X142124666Y-76189595D01*
X142315142Y-76189595D01*
X141838952Y-75975309D02*
X141815142Y-75951500D01*
X141767523Y-75927690D01*
X141648476Y-75927690D01*
X141600857Y-75951500D01*
X141577047Y-75975309D01*
X141553238Y-76022928D01*
X141553238Y-76070547D01*
X141577047Y-76141976D01*
X141862761Y-76427690D01*
X141553238Y-76427690D01*
X141077047Y-76427690D02*
X141362761Y-76427690D01*
X141219904Y-76427690D02*
X141219904Y-75927690D01*
X141267523Y-75999119D01*
X141315142Y-76046738D01*
X141362761Y-76070547D01*
X150630952Y-66926190D02*
X150345238Y-66926190D01*
X150488095Y-67426190D02*
X150488095Y-66926190D01*
X150178571Y-67426190D02*
X150178571Y-66926190D01*
X149988095Y-66926190D01*
X149940476Y-66950000D01*
X149916666Y-66973809D01*
X149892857Y-67021428D01*
X149892857Y-67092857D01*
X149916666Y-67140476D01*
X149940476Y-67164285D01*
X149988095Y-67188095D01*
X150178571Y-67188095D01*
X149416666Y-67426190D02*
X149702380Y-67426190D01*
X149559523Y-67426190D02*
X149559523Y-66926190D01*
X149607142Y-66997619D01*
X149654761Y-67045238D01*
X149702380Y-67069047D01*
X143321428Y-71891190D02*
X143488095Y-71653095D01*
X143607142Y-71891190D02*
X143607142Y-71391190D01*
X143416666Y-71391190D01*
X143369047Y-71415000D01*
X143345238Y-71438809D01*
X143321428Y-71486428D01*
X143321428Y-71557857D01*
X143345238Y-71605476D01*
X143369047Y-71629285D01*
X143416666Y-71653095D01*
X143607142Y-71653095D01*
X142845238Y-71891190D02*
X143130952Y-71891190D01*
X142988095Y-71891190D02*
X142988095Y-71391190D01*
X143035714Y-71462619D01*
X143083333Y-71510238D01*
X143130952Y-71534047D01*
X142654761Y-71438809D02*
X142630952Y-71415000D01*
X142583333Y-71391190D01*
X142464285Y-71391190D01*
X142416666Y-71415000D01*
X142392857Y-71438809D01*
X142369047Y-71486428D01*
X142369047Y-71534047D01*
X142392857Y-71605476D01*
X142678571Y-71891190D01*
X142369047Y-71891190D01*
X154567619Y-73043809D02*
X154615238Y-73020000D01*
X154662857Y-72972380D01*
X154734285Y-72900952D01*
X154781904Y-72877142D01*
X154829523Y-72877142D01*
X154805714Y-72996190D02*
X154853333Y-72972380D01*
X154900952Y-72924761D01*
X154924761Y-72829523D01*
X154924761Y-72662857D01*
X154900952Y-72567619D01*
X154853333Y-72520000D01*
X154805714Y-72496190D01*
X154710476Y-72496190D01*
X154662857Y-72520000D01*
X154615238Y-72567619D01*
X154591428Y-72662857D01*
X154591428Y-72829523D01*
X154615238Y-72924761D01*
X154662857Y-72972380D01*
X154710476Y-72996190D01*
X154805714Y-72996190D01*
X154424761Y-72496190D02*
X154115238Y-72496190D01*
X154281904Y-72686666D01*
X154210476Y-72686666D01*
X154162857Y-72710476D01*
X154139047Y-72734285D01*
X154115238Y-72781904D01*
X154115238Y-72900952D01*
X154139047Y-72948571D01*
X154162857Y-72972380D01*
X154210476Y-72996190D01*
X154353333Y-72996190D01*
X154400952Y-72972380D01*
X154424761Y-72948571D01*
X139830952Y-58191190D02*
X139545238Y-58191190D01*
X139688095Y-58691190D02*
X139688095Y-58191190D01*
X139378571Y-58691190D02*
X139378571Y-58191190D01*
X139188095Y-58191190D01*
X139140476Y-58215000D01*
X139116666Y-58238809D01*
X139092857Y-58286428D01*
X139092857Y-58357857D01*
X139116666Y-58405476D01*
X139140476Y-58429285D01*
X139188095Y-58453095D01*
X139378571Y-58453095D01*
X138664285Y-58191190D02*
X138759523Y-58191190D01*
X138807142Y-58215000D01*
X138830952Y-58238809D01*
X138878571Y-58310238D01*
X138902380Y-58405476D01*
X138902380Y-58595952D01*
X138878571Y-58643571D01*
X138854761Y-58667380D01*
X138807142Y-58691190D01*
X138711904Y-58691190D01*
X138664285Y-58667380D01*
X138640476Y-58643571D01*
X138616666Y-58595952D01*
X138616666Y-58476904D01*
X138640476Y-58429285D01*
X138664285Y-58405476D01*
X138711904Y-58381666D01*
X138807142Y-58381666D01*
X138854761Y-58405476D01*
X138878571Y-58429285D01*
X138902380Y-58476904D01*
X142921428Y-59791190D02*
X143088095Y-59553095D01*
X143207142Y-59791190D02*
X143207142Y-59291190D01*
X143016666Y-59291190D01*
X142969047Y-59315000D01*
X142945238Y-59338809D01*
X142921428Y-59386428D01*
X142921428Y-59457857D01*
X142945238Y-59505476D01*
X142969047Y-59529285D01*
X143016666Y-59553095D01*
X143207142Y-59553095D01*
X142730952Y-59338809D02*
X142707142Y-59315000D01*
X142659523Y-59291190D01*
X142540476Y-59291190D01*
X142492857Y-59315000D01*
X142469047Y-59338809D01*
X142445238Y-59386428D01*
X142445238Y-59434047D01*
X142469047Y-59505476D01*
X142754761Y-59791190D01*
X142445238Y-59791190D01*
X142016666Y-59457857D02*
X142016666Y-59791190D01*
X142135714Y-59267380D02*
X142254761Y-59624523D01*
X141945238Y-59624523D01*
X149821428Y-77698571D02*
X149845238Y-77722380D01*
X149916666Y-77746190D01*
X149964285Y-77746190D01*
X150035714Y-77722380D01*
X150083333Y-77674761D01*
X150107142Y-77627142D01*
X150130952Y-77531904D01*
X150130952Y-77460476D01*
X150107142Y-77365238D01*
X150083333Y-77317619D01*
X150035714Y-77270000D01*
X149964285Y-77246190D01*
X149916666Y-77246190D01*
X149845238Y-77270000D01*
X149821428Y-77293809D01*
X149630952Y-77293809D02*
X149607142Y-77270000D01*
X149559523Y-77246190D01*
X149440476Y-77246190D01*
X149392857Y-77270000D01*
X149369047Y-77293809D01*
X149345238Y-77341428D01*
X149345238Y-77389047D01*
X149369047Y-77460476D01*
X149654761Y-77746190D01*
X149345238Y-77746190D01*
X149178571Y-77246190D02*
X148869047Y-77246190D01*
X149035714Y-77436666D01*
X148964285Y-77436666D01*
X148916666Y-77460476D01*
X148892857Y-77484285D01*
X148869047Y-77531904D01*
X148869047Y-77650952D01*
X148892857Y-77698571D01*
X148916666Y-77722380D01*
X148964285Y-77746190D01*
X149107142Y-77746190D01*
X149154761Y-77722380D01*
X149178571Y-77698571D01*
X129603333Y-58198571D02*
X129627142Y-58222380D01*
X129698571Y-58246190D01*
X129746190Y-58246190D01*
X129817619Y-58222380D01*
X129865238Y-58174761D01*
X129889047Y-58127142D01*
X129912857Y-58031904D01*
X129912857Y-57960476D01*
X129889047Y-57865238D01*
X129865238Y-57817619D01*
X129817619Y-57770000D01*
X129746190Y-57746190D01*
X129698571Y-57746190D01*
X129627142Y-57770000D01*
X129603333Y-57793809D01*
X129412857Y-57793809D02*
X129389047Y-57770000D01*
X129341428Y-57746190D01*
X129222380Y-57746190D01*
X129174761Y-57770000D01*
X129150952Y-57793809D01*
X129127142Y-57841428D01*
X129127142Y-57889047D01*
X129150952Y-57960476D01*
X129436666Y-58246190D01*
X129127142Y-58246190D01*
X133930952Y-71991190D02*
X133645238Y-71991190D01*
X133788095Y-72491190D02*
X133788095Y-71991190D01*
X133478571Y-72491190D02*
X133478571Y-71991190D01*
X133288095Y-71991190D01*
X133240476Y-72015000D01*
X133216666Y-72038809D01*
X133192857Y-72086428D01*
X133192857Y-72157857D01*
X133216666Y-72205476D01*
X133240476Y-72229285D01*
X133288095Y-72253095D01*
X133478571Y-72253095D01*
X133026190Y-71991190D02*
X132716666Y-71991190D01*
X132883333Y-72181666D01*
X132811904Y-72181666D01*
X132764285Y-72205476D01*
X132740476Y-72229285D01*
X132716666Y-72276904D01*
X132716666Y-72395952D01*
X132740476Y-72443571D01*
X132764285Y-72467380D01*
X132811904Y-72491190D01*
X132954761Y-72491190D01*
X133002380Y-72467380D01*
X133026190Y-72443571D01*
X158521428Y-70243571D02*
X158545238Y-70267380D01*
X158616666Y-70291190D01*
X158664285Y-70291190D01*
X158735714Y-70267380D01*
X158783333Y-70219761D01*
X158807142Y-70172142D01*
X158830952Y-70076904D01*
X158830952Y-70005476D01*
X158807142Y-69910238D01*
X158783333Y-69862619D01*
X158735714Y-69815000D01*
X158664285Y-69791190D01*
X158616666Y-69791190D01*
X158545238Y-69815000D01*
X158521428Y-69838809D01*
X158330952Y-69838809D02*
X158307142Y-69815000D01*
X158259523Y-69791190D01*
X158140476Y-69791190D01*
X158092857Y-69815000D01*
X158069047Y-69838809D01*
X158045238Y-69886428D01*
X158045238Y-69934047D01*
X158069047Y-70005476D01*
X158354761Y-70291190D01*
X158045238Y-70291190D01*
X157616666Y-69957857D02*
X157616666Y-70291190D01*
X157735714Y-69767380D02*
X157854761Y-70124523D01*
X157545238Y-70124523D01*
X140496190Y-69698571D02*
X140258095Y-69531904D01*
X140496190Y-69412857D02*
X139996190Y-69412857D01*
X139996190Y-69603333D01*
X140020000Y-69650952D01*
X140043809Y-69674761D01*
X140091428Y-69698571D01*
X140162857Y-69698571D01*
X140210476Y-69674761D01*
X140234285Y-69650952D01*
X140258095Y-69603333D01*
X140258095Y-69412857D01*
X140043809Y-69889047D02*
X140020000Y-69912857D01*
X139996190Y-69960476D01*
X139996190Y-70079523D01*
X140020000Y-70127142D01*
X140043809Y-70150952D01*
X140091428Y-70174761D01*
X140139047Y-70174761D01*
X140210476Y-70150952D01*
X140496190Y-69865238D01*
X140496190Y-70174761D01*
X139996190Y-70627142D02*
X139996190Y-70389047D01*
X140234285Y-70365238D01*
X140210476Y-70389047D01*
X140186666Y-70436666D01*
X140186666Y-70555714D01*
X140210476Y-70603333D01*
X140234285Y-70627142D01*
X140281904Y-70650952D01*
X140400952Y-70650952D01*
X140448571Y-70627142D01*
X140472380Y-70603333D01*
X140496190Y-70555714D01*
X140496190Y-70436666D01*
X140472380Y-70389047D01*
X140448571Y-70365238D01*
X144838428Y-77664690D02*
X145005095Y-77426595D01*
X145124142Y-77664690D02*
X145124142Y-77164690D01*
X144933666Y-77164690D01*
X144886047Y-77188500D01*
X144862238Y-77212309D01*
X144838428Y-77259928D01*
X144838428Y-77331357D01*
X144862238Y-77378976D01*
X144886047Y-77402785D01*
X144933666Y-77426595D01*
X145124142Y-77426595D01*
X144647952Y-77212309D02*
X144624142Y-77188500D01*
X144576523Y-77164690D01*
X144457476Y-77164690D01*
X144409857Y-77188500D01*
X144386047Y-77212309D01*
X144362238Y-77259928D01*
X144362238Y-77307547D01*
X144386047Y-77378976D01*
X144671761Y-77664690D01*
X144362238Y-77664690D01*
X144171761Y-77212309D02*
X144147952Y-77188500D01*
X144100333Y-77164690D01*
X143981285Y-77164690D01*
X143933666Y-77188500D01*
X143909857Y-77212309D01*
X143886047Y-77259928D01*
X143886047Y-77307547D01*
X143909857Y-77378976D01*
X144195571Y-77664690D01*
X143886047Y-77664690D01*
X134889047Y-70246190D02*
X134889047Y-69746190D01*
X134770000Y-69746190D01*
X134698571Y-69770000D01*
X134650952Y-69817619D01*
X134627142Y-69865238D01*
X134603333Y-69960476D01*
X134603333Y-70031904D01*
X134627142Y-70127142D01*
X134650952Y-70174761D01*
X134698571Y-70222380D01*
X134770000Y-70246190D01*
X134889047Y-70246190D01*
X134127142Y-70246190D02*
X134412857Y-70246190D01*
X134270000Y-70246190D02*
X134270000Y-69746190D01*
X134317619Y-69817619D01*
X134365238Y-69865238D01*
X134412857Y-69889047D01*
X127603333Y-58246190D02*
X127770000Y-58008095D01*
X127889047Y-58246190D02*
X127889047Y-57746190D01*
X127698571Y-57746190D01*
X127650952Y-57770000D01*
X127627142Y-57793809D01*
X127603333Y-57841428D01*
X127603333Y-57912857D01*
X127627142Y-57960476D01*
X127650952Y-57984285D01*
X127698571Y-58008095D01*
X127889047Y-58008095D01*
X127150952Y-57746190D02*
X127389047Y-57746190D01*
X127412857Y-57984285D01*
X127389047Y-57960476D01*
X127341428Y-57936666D01*
X127222380Y-57936666D01*
X127174761Y-57960476D01*
X127150952Y-57984285D01*
X127127142Y-58031904D01*
X127127142Y-58150952D01*
X127150952Y-58198571D01*
X127174761Y-58222380D01*
X127222380Y-58246190D01*
X127341428Y-58246190D01*
X127389047Y-58222380D01*
X127412857Y-58198571D01*
X147180952Y-60691190D02*
X147180952Y-61095952D01*
X147157142Y-61143571D01*
X147133333Y-61167380D01*
X147085714Y-61191190D01*
X146990476Y-61191190D01*
X146942857Y-61167380D01*
X146919047Y-61143571D01*
X146895238Y-61095952D01*
X146895238Y-60691190D01*
X146704761Y-60691190D02*
X146395238Y-60691190D01*
X146561904Y-60881666D01*
X146490476Y-60881666D01*
X146442857Y-60905476D01*
X146419047Y-60929285D01*
X146395238Y-60976904D01*
X146395238Y-61095952D01*
X146419047Y-61143571D01*
X146442857Y-61167380D01*
X146490476Y-61191190D01*
X146633333Y-61191190D01*
X146680952Y-61167380D01*
X146704761Y-61143571D01*
X146925428Y-77662071D02*
X146949238Y-77685880D01*
X147020666Y-77709690D01*
X147068285Y-77709690D01*
X147139714Y-77685880D01*
X147187333Y-77638261D01*
X147211142Y-77590642D01*
X147234952Y-77495404D01*
X147234952Y-77423976D01*
X147211142Y-77328738D01*
X147187333Y-77281119D01*
X147139714Y-77233500D01*
X147068285Y-77209690D01*
X147020666Y-77209690D01*
X146949238Y-77233500D01*
X146925428Y-77257309D01*
X146734952Y-77257309D02*
X146711142Y-77233500D01*
X146663523Y-77209690D01*
X146544476Y-77209690D01*
X146496857Y-77233500D01*
X146473047Y-77257309D01*
X146449238Y-77304928D01*
X146449238Y-77352547D01*
X146473047Y-77423976D01*
X146758761Y-77709690D01*
X146449238Y-77709690D01*
X146258761Y-77257309D02*
X146234952Y-77233500D01*
X146187333Y-77209690D01*
X146068285Y-77209690D01*
X146020666Y-77233500D01*
X145996857Y-77257309D01*
X145973047Y-77304928D01*
X145973047Y-77352547D01*
X145996857Y-77423976D01*
X146282571Y-77709690D01*
X145973047Y-77709690D01*
X155347619Y-75873809D02*
X155395238Y-75850000D01*
X155442857Y-75802380D01*
X155514285Y-75730952D01*
X155561904Y-75707142D01*
X155609523Y-75707142D01*
X155585714Y-75826190D02*
X155633333Y-75802380D01*
X155680952Y-75754761D01*
X155704761Y-75659523D01*
X155704761Y-75492857D01*
X155680952Y-75397619D01*
X155633333Y-75350000D01*
X155585714Y-75326190D01*
X155490476Y-75326190D01*
X155442857Y-75350000D01*
X155395238Y-75397619D01*
X155371428Y-75492857D01*
X155371428Y-75659523D01*
X155395238Y-75754761D01*
X155442857Y-75802380D01*
X155490476Y-75826190D01*
X155585714Y-75826190D01*
X154942857Y-75492857D02*
X154942857Y-75826190D01*
X155061904Y-75302380D02*
X155180952Y-75659523D01*
X154871428Y-75659523D01*
X146921428Y-66191190D02*
X147088095Y-65953095D01*
X147207142Y-66191190D02*
X147207142Y-65691190D01*
X147016666Y-65691190D01*
X146969047Y-65715000D01*
X146945238Y-65738809D01*
X146921428Y-65786428D01*
X146921428Y-65857857D01*
X146945238Y-65905476D01*
X146969047Y-65929285D01*
X147016666Y-65953095D01*
X147207142Y-65953095D01*
X146730952Y-65738809D02*
X146707142Y-65715000D01*
X146659523Y-65691190D01*
X146540476Y-65691190D01*
X146492857Y-65715000D01*
X146469047Y-65738809D01*
X146445238Y-65786428D01*
X146445238Y-65834047D01*
X146469047Y-65905476D01*
X146754761Y-66191190D01*
X146445238Y-66191190D01*
X146135714Y-65691190D02*
X146088095Y-65691190D01*
X146040476Y-65715000D01*
X146016666Y-65738809D01*
X145992857Y-65786428D01*
X145969047Y-65881666D01*
X145969047Y-66000714D01*
X145992857Y-66095952D01*
X146016666Y-66143571D01*
X146040476Y-66167380D01*
X146088095Y-66191190D01*
X146135714Y-66191190D01*
X146183333Y-66167380D01*
X146207142Y-66143571D01*
X146230952Y-66095952D01*
X146254761Y-66000714D01*
X146254761Y-65881666D01*
X146230952Y-65786428D01*
X146207142Y-65738809D01*
X146183333Y-65715000D01*
X146135714Y-65691190D01*
X149567619Y-74543809D02*
X149615238Y-74520000D01*
X149662857Y-74472380D01*
X149734285Y-74400952D01*
X149781904Y-74377142D01*
X149829523Y-74377142D01*
X149805714Y-74496190D02*
X149853333Y-74472380D01*
X149900952Y-74424761D01*
X149924761Y-74329523D01*
X149924761Y-74162857D01*
X149900952Y-74067619D01*
X149853333Y-74020000D01*
X149805714Y-73996190D01*
X149710476Y-73996190D01*
X149662857Y-74020000D01*
X149615238Y-74067619D01*
X149591428Y-74162857D01*
X149591428Y-74329523D01*
X149615238Y-74424761D01*
X149662857Y-74472380D01*
X149710476Y-74496190D01*
X149805714Y-74496190D01*
X149400952Y-74043809D02*
X149377142Y-74020000D01*
X149329523Y-73996190D01*
X149210476Y-73996190D01*
X149162857Y-74020000D01*
X149139047Y-74043809D01*
X149115238Y-74091428D01*
X149115238Y-74139047D01*
X149139047Y-74210476D01*
X149424761Y-74496190D01*
X149115238Y-74496190D01*
X130389047Y-62726190D02*
X130103333Y-62726190D01*
X130246190Y-63226190D02*
X130246190Y-62726190D01*
X129936666Y-63226190D02*
X129936666Y-62726190D01*
X129746190Y-62726190D01*
X129698571Y-62750000D01*
X129674761Y-62773809D01*
X129650952Y-62821428D01*
X129650952Y-62892857D01*
X129674761Y-62940476D01*
X129698571Y-62964285D01*
X129746190Y-62988095D01*
X129936666Y-62988095D01*
X129174761Y-63226190D02*
X129460476Y-63226190D01*
X129317619Y-63226190D02*
X129317619Y-62726190D01*
X129365238Y-62797619D01*
X129412857Y-62845238D01*
X129460476Y-62869047D01*
X128865238Y-62726190D02*
X128817619Y-62726190D01*
X128770000Y-62750000D01*
X128746190Y-62773809D01*
X128722380Y-62821428D01*
X128698571Y-62916666D01*
X128698571Y-63035714D01*
X128722380Y-63130952D01*
X128746190Y-63178571D01*
X128770000Y-63202380D01*
X128817619Y-63226190D01*
X128865238Y-63226190D01*
X128912857Y-63202380D01*
X128936666Y-63178571D01*
X128960476Y-63130952D01*
X128984285Y-63035714D01*
X128984285Y-62916666D01*
X128960476Y-62821428D01*
X128936666Y-62773809D01*
X128912857Y-62750000D01*
X128865238Y-62726190D01*
X148521428Y-59791190D02*
X148688095Y-59553095D01*
X148807142Y-59791190D02*
X148807142Y-59291190D01*
X148616666Y-59291190D01*
X148569047Y-59315000D01*
X148545238Y-59338809D01*
X148521428Y-59386428D01*
X148521428Y-59457857D01*
X148545238Y-59505476D01*
X148569047Y-59529285D01*
X148616666Y-59553095D01*
X148807142Y-59553095D01*
X148330952Y-59338809D02*
X148307142Y-59315000D01*
X148259523Y-59291190D01*
X148140476Y-59291190D01*
X148092857Y-59315000D01*
X148069047Y-59338809D01*
X148045238Y-59386428D01*
X148045238Y-59434047D01*
X148069047Y-59505476D01*
X148354761Y-59791190D01*
X148045238Y-59791190D01*
X147878571Y-59291190D02*
X147569047Y-59291190D01*
X147735714Y-59481666D01*
X147664285Y-59481666D01*
X147616666Y-59505476D01*
X147592857Y-59529285D01*
X147569047Y-59576904D01*
X147569047Y-59695952D01*
X147592857Y-59743571D01*
X147616666Y-59767380D01*
X147664285Y-59791190D01*
X147807142Y-59791190D01*
X147854761Y-59767380D01*
X147878571Y-59743571D01*
X140103333Y-68448571D02*
X140127142Y-68472380D01*
X140198571Y-68496190D01*
X140246190Y-68496190D01*
X140317619Y-68472380D01*
X140365238Y-68424761D01*
X140389047Y-68377142D01*
X140412857Y-68281904D01*
X140412857Y-68210476D01*
X140389047Y-68115238D01*
X140365238Y-68067619D01*
X140317619Y-68020000D01*
X140246190Y-67996190D01*
X140198571Y-67996190D01*
X140127142Y-68020000D01*
X140103333Y-68043809D01*
X139627142Y-68496190D02*
X139912857Y-68496190D01*
X139770000Y-68496190D02*
X139770000Y-67996190D01*
X139817619Y-68067619D01*
X139865238Y-68115238D01*
X139912857Y-68139047D01*
X149621428Y-68391190D02*
X149788095Y-68153095D01*
X149907142Y-68391190D02*
X149907142Y-67891190D01*
X149716666Y-67891190D01*
X149669047Y-67915000D01*
X149645238Y-67938809D01*
X149621428Y-67986428D01*
X149621428Y-68057857D01*
X149645238Y-68105476D01*
X149669047Y-68129285D01*
X149716666Y-68153095D01*
X149907142Y-68153095D01*
X149145238Y-68391190D02*
X149430952Y-68391190D01*
X149288095Y-68391190D02*
X149288095Y-67891190D01*
X149335714Y-67962619D01*
X149383333Y-68010238D01*
X149430952Y-68034047D01*
X148716666Y-68057857D02*
X148716666Y-68391190D01*
X148835714Y-67867380D02*
X148954761Y-68224523D01*
X148645238Y-68224523D01*
X145130952Y-65873190D02*
X144845238Y-65873190D01*
X144988095Y-66373190D02*
X144988095Y-65873190D01*
X144678571Y-66373190D02*
X144678571Y-65873190D01*
X144488095Y-65873190D01*
X144440476Y-65897000D01*
X144416666Y-65920809D01*
X144392857Y-65968428D01*
X144392857Y-66039857D01*
X144416666Y-66087476D01*
X144440476Y-66111285D01*
X144488095Y-66135095D01*
X144678571Y-66135095D01*
X144202380Y-65920809D02*
X144178571Y-65897000D01*
X144130952Y-65873190D01*
X144011904Y-65873190D01*
X143964285Y-65897000D01*
X143940476Y-65920809D01*
X143916666Y-65968428D01*
X143916666Y-66016047D01*
X143940476Y-66087476D01*
X144226190Y-66373190D01*
X143916666Y-66373190D01*
X146650952Y-72746190D02*
X146365238Y-72746190D01*
X146508095Y-73246190D02*
X146508095Y-72746190D01*
X146198571Y-73246190D02*
X146198571Y-72746190D01*
X146008095Y-72746190D01*
X145960476Y-72770000D01*
X145936666Y-72793809D01*
X145912857Y-72841428D01*
X145912857Y-72912857D01*
X145936666Y-72960476D01*
X145960476Y-72984285D01*
X146008095Y-73008095D01*
X146198571Y-73008095D01*
X145627142Y-72960476D02*
X145674761Y-72936666D01*
X145698571Y-72912857D01*
X145722380Y-72865238D01*
X145722380Y-72841428D01*
X145698571Y-72793809D01*
X145674761Y-72770000D01*
X145627142Y-72746190D01*
X145531904Y-72746190D01*
X145484285Y-72770000D01*
X145460476Y-72793809D01*
X145436666Y-72841428D01*
X145436666Y-72865238D01*
X145460476Y-72912857D01*
X145484285Y-72936666D01*
X145531904Y-72960476D01*
X145627142Y-72960476D01*
X145674761Y-72984285D01*
X145698571Y-73008095D01*
X145722380Y-73055714D01*
X145722380Y-73150952D01*
X145698571Y-73198571D01*
X145674761Y-73222380D01*
X145627142Y-73246190D01*
X145531904Y-73246190D01*
X145484285Y-73222380D01*
X145460476Y-73198571D01*
X145436666Y-73150952D01*
X145436666Y-73055714D01*
X145460476Y-73008095D01*
X145484285Y-72984285D01*
X145531904Y-72960476D01*
X149934952Y-70573190D02*
X149649238Y-70573190D01*
X149792095Y-71073190D02*
X149792095Y-70573190D01*
X149482571Y-71073190D02*
X149482571Y-70573190D01*
X149292095Y-70573190D01*
X149244476Y-70597000D01*
X149220666Y-70620809D01*
X149196857Y-70668428D01*
X149196857Y-70739857D01*
X149220666Y-70787476D01*
X149244476Y-70811285D01*
X149292095Y-70835095D01*
X149482571Y-70835095D01*
X148958761Y-71073190D02*
X148863523Y-71073190D01*
X148815904Y-71049380D01*
X148792095Y-71025571D01*
X148744476Y-70954142D01*
X148720666Y-70858904D01*
X148720666Y-70668428D01*
X148744476Y-70620809D01*
X148768285Y-70597000D01*
X148815904Y-70573190D01*
X148911142Y-70573190D01*
X148958761Y-70597000D01*
X148982571Y-70620809D01*
X149006380Y-70668428D01*
X149006380Y-70787476D01*
X148982571Y-70835095D01*
X148958761Y-70858904D01*
X148911142Y-70882714D01*
X148815904Y-70882714D01*
X148768285Y-70858904D01*
X148744476Y-70835095D01*
X148720666Y-70787476D01*
X135400952Y-58246190D02*
X135400952Y-58650952D01*
X135377142Y-58698571D01*
X135353333Y-58722380D01*
X135305714Y-58746190D01*
X135210476Y-58746190D01*
X135162857Y-58722380D01*
X135139047Y-58698571D01*
X135115238Y-58650952D01*
X135115238Y-58246190D01*
X134900952Y-58293809D02*
X134877142Y-58270000D01*
X134829523Y-58246190D01*
X134710476Y-58246190D01*
X134662857Y-58270000D01*
X134639047Y-58293809D01*
X134615238Y-58341428D01*
X134615238Y-58389047D01*
X134639047Y-58460476D01*
X134924761Y-58746190D01*
X134615238Y-58746190D01*
X127226190Y-67678571D02*
X126988095Y-67511904D01*
X127226190Y-67392857D02*
X126726190Y-67392857D01*
X126726190Y-67583333D01*
X126750000Y-67630952D01*
X126773809Y-67654761D01*
X126821428Y-67678571D01*
X126892857Y-67678571D01*
X126940476Y-67654761D01*
X126964285Y-67630952D01*
X126988095Y-67583333D01*
X126988095Y-67392857D01*
X126773809Y-67869047D02*
X126750000Y-67892857D01*
X126726190Y-67940476D01*
X126726190Y-68059523D01*
X126750000Y-68107142D01*
X126773809Y-68130952D01*
X126821428Y-68154761D01*
X126869047Y-68154761D01*
X126940476Y-68130952D01*
X127226190Y-67845238D01*
X127226190Y-68154761D01*
X126726190Y-68583333D02*
X126726190Y-68488095D01*
X126750000Y-68440476D01*
X126773809Y-68416666D01*
X126845238Y-68369047D01*
X126940476Y-68345238D01*
X127130952Y-68345238D01*
X127178571Y-68369047D01*
X127202380Y-68392857D01*
X127226190Y-68440476D01*
X127226190Y-68535714D01*
X127202380Y-68583333D01*
X127178571Y-68607142D01*
X127130952Y-68630952D01*
X127011904Y-68630952D01*
X126964285Y-68607142D01*
X126940476Y-68583333D01*
X126916666Y-68535714D01*
X126916666Y-68440476D01*
X126940476Y-68392857D01*
X126964285Y-68369047D01*
X127011904Y-68345238D01*
X136121428Y-71343571D02*
X136145238Y-71367380D01*
X136216666Y-71391190D01*
X136264285Y-71391190D01*
X136335714Y-71367380D01*
X136383333Y-71319761D01*
X136407142Y-71272142D01*
X136430952Y-71176904D01*
X136430952Y-71105476D01*
X136407142Y-71010238D01*
X136383333Y-70962619D01*
X136335714Y-70915000D01*
X136264285Y-70891190D01*
X136216666Y-70891190D01*
X136145238Y-70915000D01*
X136121428Y-70938809D01*
X135930952Y-70938809D02*
X135907142Y-70915000D01*
X135859523Y-70891190D01*
X135740476Y-70891190D01*
X135692857Y-70915000D01*
X135669047Y-70938809D01*
X135645238Y-70986428D01*
X135645238Y-71034047D01*
X135669047Y-71105476D01*
X135954761Y-71391190D01*
X135645238Y-71391190D01*
X135478571Y-70891190D02*
X135145238Y-70891190D01*
X135359523Y-71391190D01*
X141851333Y-66191190D02*
X142018000Y-65953095D01*
X142137047Y-66191190D02*
X142137047Y-65691190D01*
X141946571Y-65691190D01*
X141898952Y-65715000D01*
X141875142Y-65738809D01*
X141851333Y-65786428D01*
X141851333Y-65857857D01*
X141875142Y-65905476D01*
X141898952Y-65929285D01*
X141946571Y-65953095D01*
X142137047Y-65953095D01*
X141684666Y-65691190D02*
X141375142Y-65691190D01*
X141541809Y-65881666D01*
X141470380Y-65881666D01*
X141422761Y-65905476D01*
X141398952Y-65929285D01*
X141375142Y-65976904D01*
X141375142Y-66095952D01*
X141398952Y-66143571D01*
X141422761Y-66167380D01*
X141470380Y-66191190D01*
X141613238Y-66191190D01*
X141660857Y-66167380D01*
X141684666Y-66143571D01*
X136353333Y-70246190D02*
X136520000Y-70008095D01*
X136639047Y-70246190D02*
X136639047Y-69746190D01*
X136448571Y-69746190D01*
X136400952Y-69770000D01*
X136377142Y-69793809D01*
X136353333Y-69841428D01*
X136353333Y-69912857D01*
X136377142Y-69960476D01*
X136400952Y-69984285D01*
X136448571Y-70008095D01*
X136639047Y-70008095D01*
X135924761Y-69912857D02*
X135924761Y-70246190D01*
X136043809Y-69722380D02*
X136162857Y-70079523D01*
X135853333Y-70079523D01*
X157321428Y-73496190D02*
X157488095Y-73258095D01*
X157607142Y-73496190D02*
X157607142Y-72996190D01*
X157416666Y-72996190D01*
X157369047Y-73020000D01*
X157345238Y-73043809D01*
X157321428Y-73091428D01*
X157321428Y-73162857D01*
X157345238Y-73210476D01*
X157369047Y-73234285D01*
X157416666Y-73258095D01*
X157607142Y-73258095D01*
X156845238Y-73496190D02*
X157130952Y-73496190D01*
X156988095Y-73496190D02*
X156988095Y-72996190D01*
X157035714Y-73067619D01*
X157083333Y-73115238D01*
X157130952Y-73139047D01*
X156392857Y-72996190D02*
X156630952Y-72996190D01*
X156654761Y-73234285D01*
X156630952Y-73210476D01*
X156583333Y-73186666D01*
X156464285Y-73186666D01*
X156416666Y-73210476D01*
X156392857Y-73234285D01*
X156369047Y-73281904D01*
X156369047Y-73400952D01*
X156392857Y-73448571D01*
X156416666Y-73472380D01*
X156464285Y-73496190D01*
X156583333Y-73496190D01*
X156630952Y-73472380D01*
X156654761Y-73448571D01*
X131130952Y-68976190D02*
X130845238Y-68976190D01*
X130988095Y-69476190D02*
X130988095Y-68976190D01*
X130678571Y-69476190D02*
X130678571Y-68976190D01*
X130488095Y-68976190D01*
X130440476Y-69000000D01*
X130416666Y-69023809D01*
X130392857Y-69071428D01*
X130392857Y-69142857D01*
X130416666Y-69190476D01*
X130440476Y-69214285D01*
X130488095Y-69238095D01*
X130678571Y-69238095D01*
X129964285Y-69142857D02*
X129964285Y-69476190D01*
X130083333Y-68952380D02*
X130202380Y-69309523D01*
X129892857Y-69309523D01*
X146150952Y-69746190D02*
X146150952Y-70150952D01*
X146127142Y-70198571D01*
X146103333Y-70222380D01*
X146055714Y-70246190D01*
X145960476Y-70246190D01*
X145912857Y-70222380D01*
X145889047Y-70198571D01*
X145865238Y-70150952D01*
X145865238Y-69746190D01*
X145365238Y-70246190D02*
X145650952Y-70246190D01*
X145508095Y-70246190D02*
X145508095Y-69746190D01*
X145555714Y-69817619D01*
X145603333Y-69865238D01*
X145650952Y-69889047D01*
X151841428Y-71496190D02*
X152008095Y-71258095D01*
X152127142Y-71496190D02*
X152127142Y-70996190D01*
X151936666Y-70996190D01*
X151889047Y-71020000D01*
X151865238Y-71043809D01*
X151841428Y-71091428D01*
X151841428Y-71162857D01*
X151865238Y-71210476D01*
X151889047Y-71234285D01*
X151936666Y-71258095D01*
X152127142Y-71258095D01*
X151365238Y-71496190D02*
X151650952Y-71496190D01*
X151508095Y-71496190D02*
X151508095Y-70996190D01*
X151555714Y-71067619D01*
X151603333Y-71115238D01*
X151650952Y-71139047D01*
X150936666Y-70996190D02*
X151031904Y-70996190D01*
X151079523Y-71020000D01*
X151103333Y-71043809D01*
X151150952Y-71115238D01*
X151174761Y-71210476D01*
X151174761Y-71400952D01*
X151150952Y-71448571D01*
X151127142Y-71472380D01*
X151079523Y-71496190D01*
X150984285Y-71496190D01*
X150936666Y-71472380D01*
X150912857Y-71448571D01*
X150889047Y-71400952D01*
X150889047Y-71281904D01*
X150912857Y-71234285D01*
X150936666Y-71210476D01*
X150984285Y-71186666D01*
X151079523Y-71186666D01*
X151127142Y-71210476D01*
X151150952Y-71234285D01*
X151174761Y-71281904D01*
X150521428Y-61328571D02*
X150545238Y-61352380D01*
X150616666Y-61376190D01*
X150664285Y-61376190D01*
X150735714Y-61352380D01*
X150783333Y-61304761D01*
X150807142Y-61257142D01*
X150830952Y-61161904D01*
X150830952Y-61090476D01*
X150807142Y-60995238D01*
X150783333Y-60947619D01*
X150735714Y-60900000D01*
X150664285Y-60876190D01*
X150616666Y-60876190D01*
X150545238Y-60900000D01*
X150521428Y-60923809D01*
X150330952Y-60923809D02*
X150307142Y-60900000D01*
X150259523Y-60876190D01*
X150140476Y-60876190D01*
X150092857Y-60900000D01*
X150069047Y-60923809D01*
X150045238Y-60971428D01*
X150045238Y-61019047D01*
X150069047Y-61090476D01*
X150354761Y-61376190D01*
X150045238Y-61376190D01*
X149592857Y-60876190D02*
X149830952Y-60876190D01*
X149854761Y-61114285D01*
X149830952Y-61090476D01*
X149783333Y-61066666D01*
X149664285Y-61066666D01*
X149616666Y-61090476D01*
X149592857Y-61114285D01*
X149569047Y-61161904D01*
X149569047Y-61280952D01*
X149592857Y-61328571D01*
X149616666Y-61352380D01*
X149664285Y-61376190D01*
X149783333Y-61376190D01*
X149830952Y-61352380D01*
X149854761Y-61328571D01*
X127916666Y-65464285D02*
X128083333Y-65464285D01*
X128083333Y-65726190D02*
X128083333Y-65226190D01*
X127845238Y-65226190D01*
X127488095Y-65464285D02*
X127416666Y-65488095D01*
X127392857Y-65511904D01*
X127369047Y-65559523D01*
X127369047Y-65630952D01*
X127392857Y-65678571D01*
X127416666Y-65702380D01*
X127464285Y-65726190D01*
X127654761Y-65726190D01*
X127654761Y-65226190D01*
X127488095Y-65226190D01*
X127440476Y-65250000D01*
X127416666Y-65273809D01*
X127392857Y-65321428D01*
X127392857Y-65369047D01*
X127416666Y-65416666D01*
X127440476Y-65440476D01*
X127488095Y-65464285D01*
X127654761Y-65464285D01*
X126892857Y-65726190D02*
X127178571Y-65726190D01*
X127035714Y-65726190D02*
X127035714Y-65226190D01*
X127083333Y-65297619D01*
X127130952Y-65345238D01*
X127178571Y-65369047D01*
X148421428Y-62491190D02*
X148588095Y-62253095D01*
X148707142Y-62491190D02*
X148707142Y-61991190D01*
X148516666Y-61991190D01*
X148469047Y-62015000D01*
X148445238Y-62038809D01*
X148421428Y-62086428D01*
X148421428Y-62157857D01*
X148445238Y-62205476D01*
X148469047Y-62229285D01*
X148516666Y-62253095D01*
X148707142Y-62253095D01*
X148230952Y-62038809D02*
X148207142Y-62015000D01*
X148159523Y-61991190D01*
X148040476Y-61991190D01*
X147992857Y-62015000D01*
X147969047Y-62038809D01*
X147945238Y-62086428D01*
X147945238Y-62134047D01*
X147969047Y-62205476D01*
X148254761Y-62491190D01*
X147945238Y-62491190D01*
X147778571Y-61991190D02*
X147445238Y-61991190D01*
X147659523Y-62491190D01*
X127105571Y-71576166D02*
X127129380Y-71552357D01*
X127153190Y-71480928D01*
X127153190Y-71433309D01*
X127129380Y-71361880D01*
X127081761Y-71314261D01*
X127034142Y-71290452D01*
X126938904Y-71266642D01*
X126867476Y-71266642D01*
X126772238Y-71290452D01*
X126724619Y-71314261D01*
X126677000Y-71361880D01*
X126653190Y-71433309D01*
X126653190Y-71480928D01*
X126677000Y-71552357D01*
X126700809Y-71576166D01*
X126819857Y-72004738D02*
X127153190Y-72004738D01*
X126629380Y-71885690D02*
X126986523Y-71766642D01*
X126986523Y-72076166D01*
X153321428Y-77746190D02*
X153488095Y-77508095D01*
X153607142Y-77746190D02*
X153607142Y-77246190D01*
X153416666Y-77246190D01*
X153369047Y-77270000D01*
X153345238Y-77293809D01*
X153321428Y-77341428D01*
X153321428Y-77412857D01*
X153345238Y-77460476D01*
X153369047Y-77484285D01*
X153416666Y-77508095D01*
X153607142Y-77508095D01*
X152845238Y-77746190D02*
X153130952Y-77746190D01*
X152988095Y-77746190D02*
X152988095Y-77246190D01*
X153035714Y-77317619D01*
X153083333Y-77365238D01*
X153130952Y-77389047D01*
X152607142Y-77746190D02*
X152511904Y-77746190D01*
X152464285Y-77722380D01*
X152440476Y-77698571D01*
X152392857Y-77627142D01*
X152369047Y-77531904D01*
X152369047Y-77341428D01*
X152392857Y-77293809D01*
X152416666Y-77270000D01*
X152464285Y-77246190D01*
X152559523Y-77246190D01*
X152607142Y-77270000D01*
X152630952Y-77293809D01*
X152654761Y-77341428D01*
X152654761Y-77460476D01*
X152630952Y-77508095D01*
X152607142Y-77531904D01*
X152559523Y-77555714D01*
X152464285Y-77555714D01*
X152416666Y-77531904D01*
X152392857Y-77508095D01*
X152369047Y-77460476D01*
X143519047Y-64115190D02*
X143519047Y-64519952D01*
X143495238Y-64567571D01*
X143471428Y-64591380D01*
X143423809Y-64615190D01*
X143328571Y-64615190D01*
X143280952Y-64591380D01*
X143257142Y-64567571D01*
X143233333Y-64519952D01*
X143233333Y-64115190D01*
X143042857Y-64115190D02*
X142733333Y-64115190D01*
X142900000Y-64305666D01*
X142828571Y-64305666D01*
X142780952Y-64329476D01*
X142757142Y-64353285D01*
X142733333Y-64400904D01*
X142733333Y-64519952D01*
X142757142Y-64567571D01*
X142780952Y-64591380D01*
X142828571Y-64615190D01*
X142971428Y-64615190D01*
X143019047Y-64591380D01*
X143042857Y-64567571D01*
X142566666Y-64115190D02*
X142257142Y-64115190D01*
X142423809Y-64305666D01*
X142352380Y-64305666D01*
X142304761Y-64329476D01*
X142280952Y-64353285D01*
X142257142Y-64400904D01*
X142257142Y-64519952D01*
X142280952Y-64567571D01*
X142304761Y-64591380D01*
X142352380Y-64615190D01*
X142495238Y-64615190D01*
X142542857Y-64591380D01*
X142566666Y-64567571D01*
G36*
X155498717Y-63550717D02*
G01*
X155803572Y-63550717D01*
X155803572Y-63245861D01*
X156108428Y-63245861D01*
X156108428Y-63855572D01*
X155193861Y-63855572D01*
X155193861Y-63245861D01*
X155498717Y-63245861D01*
X155498717Y-63550717D01*
G37*
G36*
X158228559Y-65670848D02*
G01*
X157923703Y-65670848D01*
X157923703Y-65365992D01*
X158228559Y-65365992D01*
X158228559Y-65670848D01*
G37*
G36*
X153378586Y-64160428D02*
G01*
X153988297Y-64160428D01*
X153988297Y-64465283D01*
X153073730Y-64465283D01*
X153073730Y-63855572D01*
X153378586Y-63855572D01*
X153378586Y-64160428D01*
G37*
G36*
X153683441Y-65074994D02*
G01*
X153378586Y-65074994D01*
X153378586Y-64770139D01*
X153683441Y-64770139D01*
X153683441Y-65074994D01*
G37*
G36*
X160958400Y-59005600D02*
G01*
X160958400Y-69010400D01*
X150953600Y-69010400D01*
X150953600Y-66280559D01*
X151563310Y-66280559D01*
X151563310Y-68400690D01*
X153683441Y-68400690D01*
X153683441Y-68095834D01*
X154598008Y-68095834D01*
X154598008Y-68400690D01*
X155193861Y-68400690D01*
X155193861Y-68095834D01*
X154598008Y-68095834D01*
X153683441Y-68095834D01*
X153683441Y-66280559D01*
X151563310Y-66280559D01*
X150953600Y-66280559D01*
X150953600Y-63245861D01*
X151563310Y-63245861D01*
X151563310Y-64465283D01*
X151868706Y-64465283D01*
X151864972Y-64766674D01*
X151861237Y-65068066D01*
X151712274Y-65071999D01*
X151563310Y-65075932D01*
X151563310Y-65975703D01*
X151868166Y-65975703D01*
X151868166Y-65680086D01*
X152464020Y-65680086D01*
X152464020Y-65975703D01*
X152768875Y-65975703D01*
X152768875Y-65670848D01*
X153073730Y-65670848D01*
X153073730Y-65975703D01*
X153683441Y-65975703D01*
X153683441Y-65670848D01*
X153073730Y-65670848D01*
X152768875Y-65670848D01*
X152768875Y-65365992D01*
X152625685Y-65365992D01*
X152582042Y-65366425D01*
X152528531Y-65368323D01*
X152490177Y-65371385D01*
X152473258Y-65375230D01*
X152472278Y-65377871D01*
X152469643Y-65402542D01*
X152467373Y-65449284D01*
X152465595Y-65513913D01*
X152464434Y-65592242D01*
X152464020Y-65680086D01*
X151868166Y-65680086D01*
X151868166Y-65670848D01*
X152173331Y-65670848D01*
X152172568Y-65369457D01*
X152172541Y-65358462D01*
X152172344Y-65257626D01*
X152172231Y-65156195D01*
X152172203Y-65061246D01*
X152172263Y-64979856D01*
X152172413Y-64919102D01*
X152173021Y-64770139D01*
X152767937Y-64770139D01*
X152771870Y-64919102D01*
X152775804Y-65068066D01*
X153077195Y-65071800D01*
X153378586Y-65075535D01*
X153378586Y-65365992D01*
X153683441Y-65365992D01*
X153683441Y-65075932D01*
X153832405Y-65071999D01*
X153981368Y-65068066D01*
X153985301Y-64919102D01*
X153989234Y-64770139D01*
X154293152Y-64770139D01*
X154293152Y-65365992D01*
X154598008Y-65365992D01*
X154598008Y-65670848D01*
X154294090Y-65670848D01*
X154290157Y-65521884D01*
X154286224Y-65372921D01*
X154137260Y-65368988D01*
X153988297Y-65365055D01*
X153988297Y-65975703D01*
X154293152Y-65975703D01*
X154293152Y-66280559D01*
X153988297Y-66280559D01*
X153988297Y-66890270D01*
X154598945Y-66890270D01*
X154591079Y-67188196D01*
X154442116Y-67192130D01*
X154293152Y-67196063D01*
X154293152Y-67790979D01*
X154889006Y-67790979D01*
X154889006Y-67195125D01*
X155497779Y-67195125D01*
X155501712Y-67344088D01*
X155505645Y-67493052D01*
X155654609Y-67496985D01*
X155803572Y-67500918D01*
X155803572Y-67790041D01*
X155654609Y-67793974D01*
X155505645Y-67797907D01*
X155501712Y-67946871D01*
X155497779Y-68095834D01*
X155803572Y-68095834D01*
X155803572Y-67790979D01*
X156108428Y-67790979D01*
X156108428Y-68400690D01*
X156413283Y-68400690D01*
X156413283Y-68095294D01*
X156714674Y-68099028D01*
X157016065Y-68102763D01*
X157019998Y-68251726D01*
X157023932Y-68400690D01*
X157618848Y-68400690D01*
X157618848Y-68095834D01*
X157313992Y-68095834D01*
X157313992Y-67790979D01*
X157923703Y-67790979D01*
X157923703Y-67499980D01*
X157618848Y-67499980D01*
X157618848Y-67196063D01*
X157469884Y-67192130D01*
X157320921Y-67188196D01*
X157313055Y-66890270D01*
X157618848Y-66890270D01*
X157618848Y-66585414D01*
X157923703Y-66585414D01*
X157923703Y-66280559D01*
X158228559Y-66280559D01*
X158228559Y-68400690D01*
X160348690Y-68400690D01*
X160348690Y-66280559D01*
X158228559Y-66280559D01*
X157923703Y-66280559D01*
X157618848Y-66280559D01*
X157618848Y-66585414D01*
X157313992Y-66585414D01*
X157313992Y-65975703D01*
X156718139Y-65975703D01*
X156718139Y-66280559D01*
X156413283Y-66280559D01*
X156413283Y-66585414D01*
X156108428Y-66585414D01*
X156108428Y-66890270D01*
X155803572Y-66890270D01*
X155803572Y-67195125D01*
X155497779Y-67195125D01*
X154889006Y-67195125D01*
X154889006Y-66890270D01*
X155193861Y-66890270D01*
X155193861Y-66585414D01*
X155498717Y-66585414D01*
X155498717Y-66280559D01*
X155803572Y-66280559D01*
X155803572Y-66585414D01*
X156108428Y-66585414D01*
X156108428Y-66280559D01*
X155803572Y-66280559D01*
X155803572Y-65975703D01*
X156108428Y-65975703D01*
X156108428Y-65670848D01*
X157023932Y-65670848D01*
X157019998Y-65521884D01*
X157016065Y-65372921D01*
X156413283Y-65366065D01*
X156413283Y-65670848D01*
X155803572Y-65670848D01*
X155803572Y-65365992D01*
X156108428Y-65365992D01*
X156108428Y-65075932D01*
X156257391Y-65071999D01*
X156406355Y-65068066D01*
X156410285Y-64919371D01*
X156414215Y-64770677D01*
X156457573Y-64770139D01*
X157022994Y-64770139D01*
X157022994Y-65365992D01*
X157618848Y-65365992D01*
X157618848Y-65075932D01*
X157469884Y-65071999D01*
X157320921Y-65068066D01*
X157316988Y-64919102D01*
X157313055Y-64770139D01*
X157617910Y-64770139D01*
X157621843Y-64919102D01*
X157625776Y-65068066D01*
X157774740Y-65071999D01*
X157923703Y-65075932D01*
X157923703Y-65365055D01*
X157774740Y-65368988D01*
X157625776Y-65372921D01*
X157621843Y-65521884D01*
X157617910Y-65670848D01*
X157923703Y-65670848D01*
X157923703Y-65975703D01*
X158228559Y-65975703D01*
X158228559Y-65670848D01*
X158533414Y-65670848D01*
X158533414Y-65975703D01*
X158838269Y-65975703D01*
X158838269Y-65670848D01*
X158533414Y-65670848D01*
X158533414Y-65365992D01*
X158228559Y-65365992D01*
X158228559Y-65074994D01*
X157923703Y-65074994D01*
X157923703Y-64770139D01*
X157617910Y-64770139D01*
X157313055Y-64770139D01*
X157022994Y-64770139D01*
X156457573Y-64770139D01*
X156715140Y-64766943D01*
X157016065Y-64763210D01*
X157019998Y-64614247D01*
X157023932Y-64465283D01*
X157313992Y-64465283D01*
X157313992Y-63550717D01*
X157023932Y-63550717D01*
X157019998Y-63401753D01*
X157016065Y-63252790D01*
X156753628Y-63245861D01*
X156718139Y-63244924D01*
X156718139Y-63550717D01*
X156413283Y-63550717D01*
X156413283Y-63245861D01*
X156108428Y-63245861D01*
X156108428Y-62345152D01*
X155803572Y-62345152D01*
X155803572Y-62941006D01*
X155498717Y-62941006D01*
X155498717Y-62650008D01*
X155193861Y-62650008D01*
X155193861Y-63244924D01*
X155044898Y-63248857D01*
X154895934Y-63252790D01*
X154892281Y-63706609D01*
X154888627Y-64160428D01*
X154598008Y-64160428D01*
X154598008Y-63245861D01*
X154889006Y-63245861D01*
X154889006Y-62650008D01*
X154598008Y-62650008D01*
X154598008Y-62941006D01*
X154293152Y-62941006D01*
X154293152Y-62346090D01*
X154442116Y-62342157D01*
X154591079Y-62338224D01*
X154595012Y-62189260D01*
X154598945Y-62040297D01*
X155192924Y-62040297D01*
X155196857Y-62189260D01*
X155200790Y-62338224D01*
X155349753Y-62342157D01*
X155498717Y-62346090D01*
X155498717Y-62040297D01*
X155193861Y-62040297D01*
X155193861Y-61735441D01*
X155803572Y-61735441D01*
X155803572Y-62040297D01*
X156108428Y-62040297D01*
X156108428Y-61735441D01*
X155803572Y-61735441D01*
X155193861Y-61735441D01*
X155193861Y-61430586D01*
X154889006Y-61430586D01*
X154889006Y-61125731D01*
X155803572Y-61125731D01*
X155803572Y-61430586D01*
X156413283Y-61430586D01*
X156413283Y-62040297D01*
X156108428Y-62040297D01*
X156108428Y-62345152D01*
X156718139Y-62345152D01*
X156718139Y-61735441D01*
X157022994Y-61735441D01*
X157022994Y-61430586D01*
X157313992Y-61430586D01*
X157313992Y-61125731D01*
X157023932Y-61125731D01*
X157019998Y-60976767D01*
X157016065Y-60827804D01*
X156714674Y-60824069D01*
X156413283Y-60820335D01*
X156413283Y-61125731D01*
X155803572Y-61125731D01*
X154889006Y-61125731D01*
X154889006Y-60820875D01*
X155803572Y-60820875D01*
X155803572Y-60516020D01*
X155498717Y-60516020D01*
X155498717Y-60225021D01*
X156413283Y-60225021D01*
X156413283Y-60516020D01*
X156718139Y-60516020D01*
X156718139Y-60225021D01*
X156413283Y-60225021D01*
X155498717Y-60225021D01*
X155193861Y-60225021D01*
X155193861Y-60515082D01*
X155044898Y-60519015D01*
X154895934Y-60522948D01*
X154892001Y-60671912D01*
X154888068Y-60820875D01*
X154598008Y-60820875D01*
X154598008Y-60516020D01*
X154889006Y-60516020D01*
X154889006Y-59920166D01*
X154293152Y-59920166D01*
X154293152Y-60516020D01*
X153988297Y-60516020D01*
X153988297Y-60820875D01*
X154293152Y-60820875D01*
X154293152Y-61125731D01*
X153988297Y-61125731D01*
X153988297Y-61430586D01*
X154293152Y-61430586D01*
X154293152Y-61735441D01*
X153988297Y-61735441D01*
X153988297Y-62345152D01*
X153683441Y-62345152D01*
X153683441Y-62650008D01*
X153378586Y-62650008D01*
X153378586Y-62941006D01*
X153073730Y-62941006D01*
X153073730Y-63245861D01*
X153378586Y-63245861D01*
X153378586Y-63550717D01*
X152768875Y-63550717D01*
X152768875Y-64160428D01*
X152174052Y-64160428D01*
X152170072Y-63859037D01*
X152169948Y-63849413D01*
X152168959Y-63747943D01*
X152168469Y-63645195D01*
X152168481Y-63550717D01*
X152463082Y-63550717D01*
X152768875Y-63550717D01*
X152768875Y-63244924D01*
X152619912Y-63248857D01*
X152470948Y-63252790D01*
X152467015Y-63401753D01*
X152463082Y-63550717D01*
X152168481Y-63550717D01*
X152168481Y-63548417D01*
X152168994Y-63464854D01*
X152170011Y-63401753D01*
X152173929Y-63245861D01*
X152464020Y-63245861D01*
X152464020Y-62650008D01*
X152173021Y-62650008D01*
X152173021Y-62941006D01*
X151868166Y-62941006D01*
X151868166Y-63245861D01*
X151563310Y-63245861D01*
X150953600Y-63245861D01*
X150953600Y-62650008D01*
X151563310Y-62650008D01*
X151563310Y-62941006D01*
X151868166Y-62941006D01*
X151868166Y-62650008D01*
X151563310Y-62650008D01*
X150953600Y-62650008D01*
X150953600Y-62040297D01*
X151563310Y-62040297D01*
X151563310Y-62346090D01*
X151598837Y-62345152D01*
X151712274Y-62342157D01*
X151861237Y-62338224D01*
X151865170Y-62189260D01*
X151869103Y-62040297D01*
X152173021Y-62040297D01*
X152173021Y-62345152D01*
X152463082Y-62345152D01*
X152467015Y-62494116D01*
X152470948Y-62643079D01*
X152619912Y-62647012D01*
X152768875Y-62650945D01*
X152768875Y-62941006D01*
X153073730Y-62941006D01*
X153073730Y-62040297D01*
X153378586Y-62040297D01*
X153378586Y-62345152D01*
X153683441Y-62345152D01*
X153683441Y-62040297D01*
X153378586Y-62040297D01*
X153073730Y-62040297D01*
X152173021Y-62040297D01*
X151869103Y-62040297D01*
X151563310Y-62040297D01*
X150953600Y-62040297D01*
X150953600Y-59615310D01*
X151563310Y-59615310D01*
X151563310Y-61735441D01*
X153683441Y-61735441D01*
X153683441Y-59921104D01*
X153988297Y-59921104D01*
X154137260Y-59917170D01*
X154286224Y-59913237D01*
X154290157Y-59764274D01*
X154294090Y-59615310D01*
X154888068Y-59615310D01*
X154892001Y-59764274D01*
X154895934Y-59913237D01*
X155044898Y-59917170D01*
X155193861Y-59921104D01*
X155193861Y-59920166D01*
X155802635Y-59920166D01*
X155806568Y-60069129D01*
X155810501Y-60218093D01*
X156406355Y-60218093D01*
X156410288Y-60069129D01*
X156414221Y-59920166D01*
X156718139Y-59920166D01*
X156718139Y-60225021D01*
X156867102Y-60224188D01*
X156941269Y-60223931D01*
X157035944Y-60224062D01*
X157122624Y-60224676D01*
X157197366Y-60225715D01*
X157256227Y-60227120D01*
X157295262Y-60228833D01*
X157310527Y-60230794D01*
X157310948Y-60232743D01*
X157312126Y-60255536D01*
X157313137Y-60300559D01*
X157313925Y-60363700D01*
X157314435Y-60440850D01*
X157314608Y-60527896D01*
X157314566Y-60820875D01*
X157618848Y-60820875D01*
X157618848Y-61735441D01*
X157313992Y-61735441D01*
X157313992Y-62040297D01*
X157022994Y-62040297D01*
X157022994Y-62345152D01*
X156718139Y-62345152D01*
X156718139Y-62650008D01*
X156413283Y-62650008D01*
X156413283Y-62941006D01*
X156718139Y-62941006D01*
X157022994Y-62941006D01*
X157022994Y-63245861D01*
X157313992Y-63245861D01*
X157313992Y-62941006D01*
X157022994Y-62941006D01*
X156718139Y-62941006D01*
X156718139Y-62650945D01*
X157016065Y-62643079D01*
X157019998Y-62494116D01*
X157023932Y-62345152D01*
X157617910Y-62345152D01*
X157621843Y-62494116D01*
X157625776Y-62643079D01*
X157774740Y-62647012D01*
X157923703Y-62650945D01*
X157923703Y-62940068D01*
X157774740Y-62944002D01*
X157625776Y-62947935D01*
X157622194Y-63706609D01*
X157618611Y-64465283D01*
X157923703Y-64465283D01*
X157923703Y-64770139D01*
X158533414Y-64770139D01*
X158838269Y-64770139D01*
X158838269Y-65365055D01*
X158987233Y-65368988D01*
X159136196Y-65372921D01*
X159140129Y-65521884D01*
X159144062Y-65670848D01*
X159447980Y-65670848D01*
X159447980Y-65527658D01*
X160043834Y-65527658D01*
X160043834Y-65670848D01*
X160348690Y-65670848D01*
X160348690Y-65365992D01*
X160205500Y-65365992D01*
X160161857Y-65366425D01*
X160108346Y-65368323D01*
X160069992Y-65371385D01*
X160053072Y-65375230D01*
X160050284Y-65384721D01*
X160046954Y-65417471D01*
X160044678Y-65467209D01*
X160043834Y-65527658D01*
X159447980Y-65527658D01*
X159447980Y-65365992D01*
X160043834Y-65365992D01*
X160043834Y-64770139D01*
X160348690Y-64770139D01*
X160348690Y-64465283D01*
X159738979Y-64465283D01*
X159738979Y-64770139D01*
X159448918Y-64770139D01*
X159444985Y-64919102D01*
X159441052Y-65068066D01*
X159292088Y-65071999D01*
X159143125Y-65075932D01*
X159143125Y-64771076D01*
X159292088Y-64767143D01*
X159441052Y-64763210D01*
X159444985Y-64614247D01*
X159448918Y-64465283D01*
X159143125Y-64465283D01*
X159143125Y-64770139D01*
X158838269Y-64770139D01*
X158533414Y-64770139D01*
X158533414Y-64465283D01*
X158228559Y-64465283D01*
X158228559Y-64160428D01*
X160348690Y-64160428D01*
X160348690Y-63855572D01*
X160043834Y-63855572D01*
X160043834Y-63245861D01*
X160348690Y-63245861D01*
X160348690Y-62345152D01*
X159738979Y-62345152D01*
X159738979Y-62040297D01*
X160348690Y-62040297D01*
X160348690Y-61735441D01*
X160043834Y-61735441D01*
X160043834Y-61430586D01*
X159738979Y-61430586D01*
X159738979Y-61125731D01*
X160348690Y-61125731D01*
X160348690Y-60820875D01*
X160043834Y-60820875D01*
X160043834Y-60516020D01*
X159738979Y-60516020D01*
X159738979Y-60225021D01*
X159143125Y-60225021D01*
X159143125Y-59921104D01*
X159292088Y-59917170D01*
X159441052Y-59913237D01*
X159444985Y-59764274D01*
X159448918Y-59615310D01*
X159739051Y-59615310D01*
X159742479Y-59916702D01*
X159745907Y-60218093D01*
X159894871Y-60222026D01*
X160043834Y-60225959D01*
X160043834Y-60516020D01*
X160348690Y-60516020D01*
X160348690Y-60225021D01*
X160043834Y-60225021D01*
X160043834Y-59615310D01*
X159739051Y-59615310D01*
X159448918Y-59615310D01*
X157618848Y-59615310D01*
X157618848Y-59920166D01*
X157022994Y-59920166D01*
X157022994Y-59615310D01*
X156413283Y-59615310D01*
X156413283Y-59920166D01*
X155802635Y-59920166D01*
X155193861Y-59920166D01*
X155193861Y-59615310D01*
X154888068Y-59615310D01*
X154294090Y-59615310D01*
X153988297Y-59615310D01*
X153988297Y-59921104D01*
X153683441Y-59921104D01*
X153683441Y-59615310D01*
X151563310Y-59615310D01*
X150953600Y-59615310D01*
X150953600Y-59005600D01*
X160958400Y-59005600D01*
G37*
G36*
X155498717Y-64465283D02*
G01*
X154889006Y-64465283D01*
X154889006Y-64160428D01*
X155498717Y-64160428D01*
X155498717Y-64465283D01*
G37*
G36*
X159738979Y-61125731D02*
G01*
X159143125Y-61125731D01*
X159143125Y-60820875D01*
X159738979Y-60820875D01*
X159738979Y-61125731D01*
G37*
G36*
X156413283Y-67790979D02*
G01*
X156108428Y-67790979D01*
X156108428Y-67499980D01*
X156413283Y-67499980D01*
X156413283Y-67790979D01*
G37*
G36*
X157022994Y-61430586D02*
G01*
X156718139Y-61430586D01*
X156718139Y-61125731D01*
X157022994Y-61125731D01*
X157022994Y-61430586D01*
G37*
G36*
X157313992Y-66585414D02*
G01*
X157313992Y-66890270D01*
X157022994Y-66890270D01*
X157022994Y-67499980D01*
X156718139Y-67499980D01*
X156718139Y-66890270D01*
X157022994Y-66890270D01*
X157022994Y-66585414D01*
X157313992Y-66585414D01*
G37*
G36*
X157022994Y-66585414D02*
G01*
X156718139Y-66585414D01*
X156718139Y-66890270D01*
X156413283Y-66890270D01*
X156413283Y-66585414D01*
X156718139Y-66585414D01*
X156718139Y-66280559D01*
X157022994Y-66280559D01*
X157022994Y-66585414D01*
G37*
G36*
X156108428Y-65074994D02*
G01*
X155803572Y-65074994D01*
X155803572Y-64770139D01*
X156108428Y-64770139D01*
X156108428Y-65074994D01*
G37*
G36*
X157313992Y-67790979D02*
G01*
X157022994Y-67790979D01*
X157022994Y-67499980D01*
X157313992Y-67499980D01*
X157313992Y-67790979D01*
G37*
G36*
X154293152Y-64160428D02*
G01*
X153988297Y-64160428D01*
X153988297Y-63855572D01*
X154293152Y-63855572D01*
X154293152Y-64160428D01*
G37*
G36*
X160029977Y-66599271D02*
G01*
X160029977Y-68081977D01*
X158547271Y-68081977D01*
X158547271Y-66890270D01*
X158838269Y-66890270D01*
X158838269Y-67790979D01*
X159738979Y-67790979D01*
X159738979Y-66890270D01*
X158838269Y-66890270D01*
X158547271Y-66890270D01*
X158547271Y-66599271D01*
X160029977Y-66599271D01*
G37*
G36*
X153073730Y-64770139D02*
G01*
X152768875Y-64770139D01*
X152768875Y-64465283D01*
X153073730Y-64465283D01*
X153073730Y-64770139D01*
G37*
G36*
X157022994Y-64160428D02*
G01*
X156718139Y-64160428D01*
X156718139Y-64465283D01*
X156108428Y-64465283D01*
X156108428Y-63855572D01*
X157022994Y-63855572D01*
X157022994Y-64160428D01*
G37*
G36*
X155803572Y-65975703D02*
G01*
X155498717Y-65975703D01*
X155498717Y-65670848D01*
X155803572Y-65670848D01*
X155803572Y-65975703D01*
G37*
G36*
X155498717Y-65670848D02*
G01*
X155193861Y-65670848D01*
X155193861Y-65975703D01*
X154889006Y-65975703D01*
X154889006Y-66280559D01*
X154598008Y-66280559D01*
X154598008Y-65975703D01*
X154888068Y-65975703D01*
X154892001Y-65826740D01*
X154895934Y-65677776D01*
X155044898Y-65673843D01*
X155193861Y-65669910D01*
X155193861Y-65366566D01*
X154900883Y-65366609D01*
X154870943Y-65366591D01*
X154786747Y-65366299D01*
X154713822Y-65365690D01*
X154656279Y-65364821D01*
X154618228Y-65363748D01*
X154603780Y-65362527D01*
X154602283Y-65353398D01*
X154600504Y-65319869D01*
X154599017Y-65265541D01*
X154597882Y-65194356D01*
X154597157Y-65110259D01*
X154596902Y-65017193D01*
X154597174Y-64919102D01*
X154598008Y-64770139D01*
X155498717Y-64770139D01*
X155498717Y-65670848D01*
G37*
G36*
X153988297Y-63550717D02*
G01*
X153683441Y-63550717D01*
X153683441Y-63245861D01*
X153378586Y-63245861D01*
X153378586Y-62941006D01*
X153683441Y-62941006D01*
X153683441Y-62650008D01*
X153988297Y-62650008D01*
X153988297Y-63550717D01*
G37*
G36*
X158838269Y-60516020D02*
G01*
X158228559Y-60516020D01*
X158228559Y-60820875D01*
X157923703Y-60820875D01*
X157923703Y-60225021D01*
X158228559Y-60225021D01*
X158228559Y-59920166D01*
X158838269Y-59920166D01*
X158838269Y-60516020D01*
G37*
G36*
X158533414Y-62941006D02*
G01*
X158228559Y-62941006D01*
X158228559Y-62345152D01*
X158533414Y-62345152D01*
X158533414Y-62941006D01*
G37*
G36*
X159738979Y-61735441D02*
G01*
X159447980Y-61735441D01*
X159447980Y-62345152D01*
X159738979Y-62345152D01*
X159739788Y-62494116D01*
X159739905Y-62522109D01*
X159739961Y-62612306D01*
X159739658Y-62707782D01*
X159739037Y-62792043D01*
X159737476Y-62941006D01*
X160043834Y-62941006D01*
X160043834Y-63244924D01*
X159894871Y-63248857D01*
X159745907Y-63252790D01*
X159743073Y-63405218D01*
X159742512Y-63437519D01*
X159741225Y-63528319D01*
X159740195Y-63623336D01*
X159739608Y-63706609D01*
X159738979Y-63855572D01*
X159448918Y-63855572D01*
X159444985Y-63706609D01*
X159441052Y-63557645D01*
X159292088Y-63553712D01*
X159143125Y-63549779D01*
X159143125Y-63855572D01*
X158533414Y-63855572D01*
X158533414Y-63550717D01*
X158838269Y-63550717D01*
X158838269Y-62941006D01*
X159143125Y-62941006D01*
X159143125Y-63245861D01*
X159448918Y-63245861D01*
X159441052Y-62947935D01*
X159292088Y-62944002D01*
X159143125Y-62940068D01*
X159143125Y-61430586D01*
X159738979Y-61430586D01*
X159738979Y-61735441D01*
G37*
G36*
X158228559Y-64160428D02*
G01*
X157923703Y-64160428D01*
X157923703Y-63855572D01*
X158228559Y-63855572D01*
X158228559Y-64160428D01*
G37*
G36*
X154598008Y-66585414D02*
G01*
X154293152Y-66585414D01*
X154293152Y-66280559D01*
X154598008Y-66280559D01*
X154598008Y-66585414D01*
G37*
G36*
X155803572Y-64770139D02*
G01*
X155498717Y-64770139D01*
X155498717Y-64465283D01*
X155803572Y-64465283D01*
X155803572Y-64770139D01*
G37*
G36*
X158838269Y-61125731D02*
G01*
X158838269Y-62040297D01*
X157923703Y-62040297D01*
X157923703Y-61430586D01*
X158228559Y-61430586D01*
X158228559Y-61735441D01*
X158533414Y-61735441D01*
X158533414Y-61430586D01*
X158228559Y-61430586D01*
X157923703Y-61430586D01*
X157923703Y-61125731D01*
X158838269Y-61125731D01*
G37*
G36*
X153364729Y-59934023D02*
G01*
X153364729Y-61416729D01*
X151882023Y-61416729D01*
X151882023Y-60225021D01*
X152173021Y-60225021D01*
X152173021Y-61125731D01*
X153073730Y-61125731D01*
X153073730Y-60225021D01*
X152173021Y-60225021D01*
X151882023Y-60225021D01*
X151882023Y-59934023D01*
X153364729Y-59934023D01*
G37*
G36*
X153683441Y-63855572D02*
G01*
X153378586Y-63855572D01*
X153378586Y-63550717D01*
X153683441Y-63550717D01*
X153683441Y-63855572D01*
G37*
G36*
X153364729Y-66599271D02*
G01*
X153364729Y-68081977D01*
X151882023Y-68081977D01*
X151882023Y-66890270D01*
X152173021Y-66890270D01*
X152173021Y-67790979D01*
X153073730Y-67790979D01*
X153073730Y-66890270D01*
X152173021Y-66890270D01*
X151882023Y-66890270D01*
X151882023Y-66599271D01*
X153364729Y-66599271D01*
G37*
G36*
X155193861Y-66585414D02*
G01*
X154889006Y-66585414D01*
X154889006Y-66280559D01*
X155193861Y-66280559D01*
X155193861Y-66585414D01*
G37*
G36*
X156108428Y-67499980D02*
G01*
X155803572Y-67499980D01*
X155803572Y-67195125D01*
X156108428Y-67195125D01*
X156108428Y-67499980D01*
G37*
G36*
X158533414Y-63550717D02*
G01*
X157923703Y-63550717D01*
X157923703Y-63245861D01*
X158533414Y-63245861D01*
X158533414Y-63550717D01*
G37*
G36*
X154598008Y-64465283D02*
G01*
X154293152Y-64465283D01*
X154293152Y-64160428D01*
X154598008Y-64160428D01*
X154598008Y-64465283D01*
G37*
G36*
X154598008Y-62040297D02*
G01*
X154293152Y-62040297D01*
X154293152Y-61735441D01*
X154598008Y-61735441D01*
X154598008Y-62040297D01*
G37*
D14*
X133220000Y-67320000D02*
X131820000Y-67320000D01*
X133220000Y-68720000D02*
X133220000Y-67320000D01*
X131820000Y-67320000D02*
X131820000Y-68720000D01*
X131820000Y-68720000D02*
X133220000Y-68720000D01*
X141480936Y-74068000D02*
X141935064Y-74068000D01*
X141480936Y-75538000D02*
X141935064Y-75538000D01*
X149400000Y-66700000D02*
X150800000Y-66700000D01*
X149400000Y-65300000D02*
X149400000Y-66700000D01*
X150800000Y-65300000D02*
X149400000Y-65300000D01*
X150800000Y-66700000D02*
X150800000Y-65300000D01*
X141480936Y-73506000D02*
X141935064Y-73506000D01*
X141480936Y-72036000D02*
X141935064Y-72036000D01*
X153270000Y-71210000D02*
X154945000Y-71210000D01*
X153270000Y-71210000D02*
X152620000Y-71210000D01*
X153270000Y-74330000D02*
X153920000Y-74330000D01*
X153270000Y-74330000D02*
X152620000Y-74330000D01*
X141600000Y-57565000D02*
X140200000Y-57565000D01*
X141600000Y-58965000D02*
X141600000Y-57565000D01*
X140200000Y-58965000D02*
X141600000Y-58965000D01*
X140200000Y-57565000D02*
X140200000Y-58965000D01*
X144027064Y-59000000D02*
X143572936Y-59000000D01*
X144027064Y-57530000D02*
X143572936Y-57530000D01*
X149238748Y-75535000D02*
X149761252Y-75535000D01*
X149238748Y-77005000D02*
X149761252Y-77005000D01*
X130255000Y-59758748D02*
X130255000Y-60281252D01*
X128785000Y-59758748D02*
X128785000Y-60281252D01*
X132570000Y-70320000D02*
X132570000Y-71720000D01*
X132570000Y-71720000D02*
X133970000Y-71720000D01*
X133970000Y-71720000D02*
X133970000Y-70320000D01*
X133970000Y-70320000D02*
X132570000Y-70320000D01*
X155558748Y-70755000D02*
X156081252Y-70755000D01*
X155558748Y-69285000D02*
X156081252Y-69285000D01*
X142255000Y-70247064D02*
X142255000Y-69792936D01*
X140785000Y-70247064D02*
X140785000Y-69792936D01*
X145237000Y-75292936D02*
X145237000Y-75747064D01*
X143767000Y-75292936D02*
X143767000Y-75747064D01*
X133670000Y-66720000D02*
X133670000Y-69270000D01*
X135370000Y-66720000D02*
X135370000Y-69270000D01*
X133670000Y-66720000D02*
X135370000Y-66720000D01*
X126785000Y-59792936D02*
X126785000Y-60247064D01*
X128255000Y-59792936D02*
X128255000Y-60247064D01*
X145200000Y-62525000D02*
X143400000Y-62525000D01*
X145200000Y-62525000D02*
X146000000Y-62525000D01*
X145200000Y-59405000D02*
X146000000Y-59405000D01*
X145200000Y-59405000D02*
X144400000Y-59405000D01*
X147269000Y-75303748D02*
X147269000Y-75826252D01*
X145799000Y-75303748D02*
X145799000Y-75826252D01*
X157200000Y-73960000D02*
X156550000Y-73960000D01*
X157200000Y-77080000D02*
X155525000Y-77080000D01*
X157200000Y-73960000D02*
X157850000Y-73960000D01*
X157200000Y-77080000D02*
X157850000Y-77080000D01*
X147072936Y-67759000D02*
X147527064Y-67759000D01*
X147072936Y-66289000D02*
X147527064Y-66289000D01*
X147960000Y-73020000D02*
X147960000Y-73670000D01*
X147960000Y-73020000D02*
X147960000Y-72370000D01*
X151080000Y-73020000D02*
X151080000Y-72370000D01*
X151080000Y-73020000D02*
X151080000Y-74695000D01*
G36*
X164406751Y-67347222D02*
G01*
X164432323Y-67439449D01*
X164470491Y-67577508D01*
X164506810Y-67709297D01*
X164535998Y-67815665D01*
X164545693Y-67850859D01*
X164571236Y-67941112D01*
X164592463Y-68012767D01*
X164605550Y-68052778D01*
X164611458Y-68079723D01*
X164597360Y-68090262D01*
X164557380Y-68079073D01*
X164487281Y-68044896D01*
X164382825Y-67986468D01*
X164338528Y-67961538D01*
X164263297Y-67922388D01*
X164208572Y-67898201D01*
X164183907Y-67893446D01*
X164181407Y-67912971D01*
X164184276Y-67968977D01*
X164192225Y-68050825D01*
X164203851Y-68148247D01*
X164217753Y-68250977D01*
X164232528Y-68348749D01*
X164246774Y-68431296D01*
X164259089Y-68488354D01*
X164268071Y-68509654D01*
X164280200Y-68505520D01*
X164313476Y-68480738D01*
X164315792Y-68478513D01*
X164328248Y-68467568D01*
X164334931Y-68468356D01*
X164335245Y-68487617D01*
X164328597Y-68532091D01*
X164314391Y-68608517D01*
X164292033Y-68723634D01*
X164279580Y-68782377D01*
X164265604Y-68835978D01*
X164256377Y-68856649D01*
X164253051Y-68854189D01*
X164229197Y-68824502D01*
X164188937Y-68768263D01*
X164138774Y-68694441D01*
X164099049Y-68631926D01*
X164061322Y-68562408D01*
X164047513Y-68520335D01*
X164058545Y-68509158D01*
X164095343Y-68532323D01*
X164116555Y-68545348D01*
X164130601Y-68538976D01*
X164130531Y-68537918D01*
X164123658Y-68505050D01*
X164106839Y-68435517D01*
X164081895Y-68336559D01*
X164050647Y-68215414D01*
X164014918Y-68079322D01*
X164010574Y-68062884D01*
X163975678Y-67928680D01*
X163945956Y-67810648D01*
X163923130Y-67715910D01*
X163908923Y-67651591D01*
X163905056Y-67624814D01*
X163920547Y-67626426D01*
X163968814Y-67646647D01*
X164041618Y-67682989D01*
X164130621Y-67731507D01*
X164206547Y-67773123D01*
X164282675Y-67811723D01*
X164335662Y-67834844D01*
X164357122Y-67838526D01*
X164352802Y-67813552D01*
X164333207Y-67758041D01*
X164302569Y-67685512D01*
X164270454Y-67613620D01*
X164221595Y-67502584D01*
X164176832Y-67399272D01*
X164142320Y-67318809D01*
X164103980Y-67229589D01*
X164074927Y-67162159D01*
X164037448Y-67075410D01*
X164331262Y-67075410D01*
X164406751Y-67347222D01*
G37*
G36*
X165934237Y-69087101D02*
G01*
X165926778Y-69131622D01*
X165898618Y-69192077D01*
X165893052Y-69198927D01*
X165870993Y-69216649D01*
X165835947Y-69229274D01*
X165779595Y-69238305D01*
X165693622Y-69245249D01*
X165569708Y-69251612D01*
X165510246Y-69253572D01*
X165399183Y-69255812D01*
X165251252Y-69257827D01*
X165071637Y-69259579D01*
X164865528Y-69261035D01*
X164638109Y-69262159D01*
X164394568Y-69262914D01*
X164140092Y-69263265D01*
X163879867Y-69263178D01*
X162484051Y-69261476D01*
X162439840Y-69206864D01*
X162410136Y-69155043D01*
X162395629Y-69094271D01*
X162395695Y-69092958D01*
X162408650Y-69055204D01*
X162430652Y-69008031D01*
X162696357Y-69008031D01*
X162697895Y-69008515D01*
X162731720Y-69010329D01*
X162806919Y-69012035D01*
X162919605Y-69013604D01*
X163065891Y-69015008D01*
X163241891Y-69016219D01*
X163443719Y-69017210D01*
X163667487Y-69017952D01*
X163909310Y-69018418D01*
X164165301Y-69018579D01*
X164232691Y-69018566D01*
X164485387Y-69018274D01*
X164722911Y-69017626D01*
X164941374Y-69016655D01*
X165136890Y-69015394D01*
X165305574Y-69013877D01*
X165443537Y-69012137D01*
X165546895Y-69010208D01*
X165611759Y-69008123D01*
X165634244Y-69005916D01*
X165631204Y-68998693D01*
X165608424Y-68955172D01*
X165564207Y-68874197D01*
X165499558Y-68757559D01*
X165415481Y-68607045D01*
X165312982Y-68424445D01*
X165193066Y-68211547D01*
X165056739Y-67970141D01*
X164905004Y-67702015D01*
X164738868Y-67408958D01*
X164559335Y-67092760D01*
X164508949Y-67004330D01*
X164423254Y-66855128D01*
X164346118Y-66722329D01*
X164280369Y-66610717D01*
X164228836Y-66525073D01*
X164194347Y-66470180D01*
X164179728Y-66450820D01*
X164179606Y-66450819D01*
X164175935Y-66450357D01*
X164172177Y-66451075D01*
X164166566Y-66455969D01*
X164157338Y-66468035D01*
X164142726Y-66490267D01*
X164120967Y-66525662D01*
X164090294Y-66577216D01*
X164048943Y-66647924D01*
X163995149Y-66740781D01*
X163927145Y-66858785D01*
X163843168Y-67004929D01*
X163741452Y-67182211D01*
X163620231Y-67393625D01*
X163477741Y-67642168D01*
X163412300Y-67756290D01*
X163293265Y-67963772D01*
X163180467Y-68160255D01*
X163076300Y-68341577D01*
X162983158Y-68503572D01*
X162903437Y-68642077D01*
X162839531Y-68752929D01*
X162793834Y-68831963D01*
X162768741Y-68875016D01*
X162735459Y-68932515D01*
X162707215Y-68984122D01*
X162696357Y-69008031D01*
X162430652Y-69008031D01*
X162442093Y-68983502D01*
X162493170Y-68883314D01*
X162559026Y-68760103D01*
X162636806Y-68619331D01*
X162723658Y-68466460D01*
X162733951Y-68448579D01*
X162835088Y-68272797D01*
X162951870Y-68069699D01*
X163077687Y-67850788D01*
X163205929Y-67627567D01*
X163329986Y-67411539D01*
X163443248Y-67214208D01*
X163520253Y-67079992D01*
X163636914Y-66876740D01*
X163733857Y-66708218D01*
X163813209Y-66571018D01*
X163877100Y-66461733D01*
X163927657Y-66376954D01*
X163967009Y-66313273D01*
X163997285Y-66267283D01*
X164020612Y-66235576D01*
X164039120Y-66214742D01*
X164054935Y-66201376D01*
X164070188Y-66192067D01*
X164087006Y-66183410D01*
X164096474Y-66178762D01*
X164187927Y-66158764D01*
X164273945Y-66183165D01*
X164348040Y-66250304D01*
X164349902Y-66252820D01*
X164383783Y-66303759D01*
X164433185Y-66383863D01*
X164491767Y-66482645D01*
X164553187Y-66589618D01*
X164557848Y-66597873D01*
X164618577Y-66705359D01*
X164674849Y-66804815D01*
X164720572Y-66885485D01*
X164749658Y-66936612D01*
X164765438Y-66964316D01*
X164803966Y-67032140D01*
X164858826Y-67128828D01*
X164926300Y-67247823D01*
X165002669Y-67382567D01*
X165084214Y-67526503D01*
X165100206Y-67554735D01*
X165204599Y-67739035D01*
X165320800Y-67944177D01*
X165440156Y-68154887D01*
X165554016Y-68355889D01*
X165653727Y-68531910D01*
X165700969Y-68616078D01*
X165777535Y-68756190D01*
X165841992Y-68878981D01*
X165891492Y-68978820D01*
X165903546Y-69005916D01*
X165923190Y-69050071D01*
X165934237Y-69087101D01*
G37*
X130220000Y-63570000D02*
X128820000Y-63570000D01*
X128820000Y-64970000D02*
X130220000Y-64970000D01*
X130220000Y-64970000D02*
X130220000Y-63570000D01*
X128820000Y-63570000D02*
X128820000Y-64970000D01*
X147427064Y-57530000D02*
X146972936Y-57530000D01*
X147427064Y-59000000D02*
X146972936Y-59000000D01*
X139505000Y-68008748D02*
X139505000Y-68531252D01*
X138035000Y-68008748D02*
X138035000Y-68531252D01*
X148084936Y-69950000D02*
X148539064Y-69950000D01*
X148084936Y-68480000D02*
X148539064Y-68480000D01*
X143800000Y-66565000D02*
X143800000Y-67965000D01*
X143800000Y-67965000D02*
X145200000Y-67965000D01*
X145200000Y-66565000D02*
X143800000Y-66565000D01*
X145200000Y-67965000D02*
X145200000Y-66565000D01*
X143820000Y-73470000D02*
X145220000Y-73470000D01*
X145220000Y-72070000D02*
X143820000Y-72070000D01*
X143820000Y-72070000D02*
X143820000Y-73470000D01*
X145220000Y-73470000D02*
X145220000Y-72070000D01*
X147104000Y-70547000D02*
X147104000Y-71947000D01*
X148504000Y-71947000D02*
X148504000Y-70547000D01*
X148504000Y-70547000D02*
X147104000Y-70547000D01*
X147104000Y-71947000D02*
X148504000Y-71947000D01*
X139705000Y-62720000D02*
X139705000Y-66170000D01*
X139705000Y-62720000D02*
X139705000Y-60770000D01*
X130835000Y-62720000D02*
X130835000Y-60770000D01*
X130835000Y-62720000D02*
X130835000Y-64670000D01*
X129005000Y-67792936D02*
X129005000Y-68247064D01*
X127535000Y-67792936D02*
X127535000Y-68247064D01*
X138531252Y-70285000D02*
X138008748Y-70285000D01*
X138531252Y-71755000D02*
X138008748Y-71755000D01*
X141480936Y-67918000D02*
X141935064Y-67918000D01*
X141480936Y-66448000D02*
X141935064Y-66448000D01*
X135785000Y-67992936D02*
X135785000Y-68447064D01*
X137255000Y-67992936D02*
X137255000Y-68447064D01*
X156792936Y-71285000D02*
X157247064Y-71285000D01*
X156792936Y-72755000D02*
X157247064Y-72755000D01*
X131220000Y-68720000D02*
X131220000Y-67320000D01*
X129820000Y-68720000D02*
X131220000Y-68720000D01*
X131220000Y-67320000D02*
X129820000Y-67320000D01*
X129820000Y-67320000D02*
X129820000Y-68720000D01*
X144520000Y-71580000D02*
X143870000Y-71580000D01*
X144520000Y-71580000D02*
X145170000Y-71580000D01*
X144520000Y-68460000D02*
X143870000Y-68460000D01*
X144520000Y-68460000D02*
X146195000Y-68460000D01*
X152247064Y-70755000D02*
X151792936Y-70755000D01*
X152247064Y-69285000D02*
X151792936Y-69285000D01*
X149365000Y-63561252D02*
X149365000Y-63038748D01*
X150835000Y-63561252D02*
X150835000Y-63038748D01*
X128255000Y-63747064D02*
X128255000Y-63292936D01*
X126785000Y-63747064D02*
X126785000Y-63292936D01*
X147365000Y-64592064D02*
X147365000Y-64137936D01*
X148835000Y-64592064D02*
X148835000Y-64137936D01*
X129058748Y-70141000D02*
X130481252Y-70141000D01*
X129058748Y-72861000D02*
X130481252Y-72861000D01*
X153227064Y-77005000D02*
X152772936Y-77005000D01*
X153227064Y-75535000D02*
X152772936Y-75535000D01*
X143840000Y-65089000D02*
X143840000Y-63689000D01*
X146160000Y-63689000D02*
X146160000Y-65589000D01*
M02*
