%TF.GenerationSoftware,KiCad,Pcbnew,8.99.0-unknown-2123e2ca9c~177~ubuntu22.04.1*%
%TF.CreationDate,2024-04-04T17:44:23+09:00*%
%TF.ProjectId,SafePulse,53616665-5075-46c7-9365-2e6b69636164,V1.2.4*%
%TF.SameCoordinates,PX78d49e0PY49c7f08*%
%TF.FileFunction,Copper,L2,Inr*%
%TF.FilePolarity,Positive*%
%FSLAX46Y46*%
G04 Gerber Fmt 4.6, Leading zero omitted, Abs format (unit mm)*
G04 Created by KiCad (PCBNEW 8.99.0-unknown-2123e2ca9c~177~ubuntu22.04.1) date 2024-04-04 17:44:23*
%MOMM*%
%LPD*%
G01*
G04 APERTURE LIST*
%TA.AperFunction,ComponentPad*%
%ADD10C,1.700000*%
%TD*%
%TA.AperFunction,ComponentPad*%
%ADD11O,1.700000X1.700000*%
%TD*%
%TA.AperFunction,ComponentPad*%
%ADD12C,2.500000*%
%TD*%
%TA.AperFunction,ComponentPad*%
%ADD13C,2.800000*%
%TD*%
%TA.AperFunction,ComponentPad*%
%ADD14R,1.700000X1.700000*%
%TD*%
%TA.AperFunction,ViaPad*%
%ADD15C,0.800000*%
%TD*%
%TA.AperFunction,Conductor*%
%ADD16C,0.250000*%
%TD*%
G04 APERTURE END LIST*
D10*
%TO.N,unconnected-(two_pinheader1-Pad1)*%
%TO.C,two_pinheader1*%
X37360000Y17040000D03*
D11*
%TO.N,unconnected-(two_pinheader1-Pad2)*%
X37360000Y14500000D03*
%TD*%
D12*
%TO.N,Net-(H2-Pad1)*%
%TO.C,H2*%
X37360000Y5610000D03*
%TD*%
D13*
%TO.N,Net-(H2-Pad1)*%
%TO.C,H4*%
X37360000Y1800000D03*
%TD*%
%TO.N,Net-(H1-Pad1)*%
%TO.C,H1*%
X11960000Y1800000D03*
%TD*%
D14*
%TO.N,Net-(F1-Pad1)*%
%TO.C,J1*%
X1800000Y1800000D03*
D11*
%TO.N,Net-(D2-Pad2)*%
X4340000Y1800000D03*
%TO.N,GND*%
X6880000Y1800000D03*
%TD*%
D15*
%TO.N,GND*%
X19446747Y1733798D03*
X18500000Y16251183D03*
X27800000Y9365000D03*
X23550000Y7463500D03*
X2250000Y7800000D03*
X15000000Y16300000D03*
X22161441Y16315130D03*
X11301303Y14625832D03*
X29750000Y1850000D03*
X7950000Y7450000D03*
X23900000Y4900000D03*
X5300000Y5000000D03*
X9400000Y6800000D03*
X4450000Y16200000D03*
%TO.N,Net-(C7-Pad1)*%
X6150000Y10400000D03*
%TO.N,+3V3*%
X100000Y11900000D03*
X12934500Y4848000D03*
X9064700Y5423900D03*
X6700000Y7750000D03*
%TO.N,Net-(Q2-Pad3)*%
X21320000Y4595000D03*
%TO.N,Net-(Q1-Pad1)*%
X6030000Y11970000D03*
X3550000Y13950000D03*
%TO.N,Net-(Q3-Pad2)*%
X26219800Y3233400D03*
%TO.N,Net-(C6-Pad2)*%
X14000000Y18700000D03*
%TO.N,Net-(R23-Pad1)*%
X25300000Y10300000D03*
%TO.N,Net-(IC1-Pad6)*%
X2300000Y6800000D03*
%TO.N,Net-(IC1-Pad7)*%
X4000000Y8900000D03*
X2300000Y5800000D03*
%TO.N,Net-(R6-Pad1)*%
X19450000Y4950000D03*
X22250000Y251500D03*
%TD*%
D16*
%TO.N,Net-(IC1-Pad7)*%
X2300000Y5800000D02*
X3000000Y5800000D01*
X4000000Y6800000D02*
X4000000Y8900000D01*
X3000000Y5800000D02*
X4000000Y6800000D01*
%TD*%
%TA.AperFunction,Conductor*%
%TO.N,GND*%
G36*
X13142121Y20169498D02*
G01*
X13188614Y20115842D01*
X13200000Y20063500D01*
X13200000Y19050000D01*
X13385440Y19050000D01*
X13453561Y19029998D01*
X13500054Y18976342D01*
X13510158Y18906068D01*
X13501849Y18875783D01*
X13486077Y18837706D01*
X13467948Y18700001D01*
X13467948Y18700000D01*
X13486077Y18562295D01*
X13539226Y18433978D01*
X13539228Y18433975D01*
X13539229Y18433974D01*
X13623782Y18323782D01*
X13733974Y18239229D01*
X13733977Y18239227D01*
X13806331Y18209258D01*
X13862295Y18186077D01*
X14000000Y18167948D01*
X14137705Y18186077D01*
X14233239Y18225649D01*
X14266022Y18239227D01*
X14266022Y18239228D01*
X14266026Y18239229D01*
X14376218Y18323782D01*
X14460771Y18433974D01*
X14513923Y18562295D01*
X14532052Y18700000D01*
X14531479Y18704349D01*
X14517829Y18808033D01*
X14513923Y18837705D01*
X14498151Y18875783D01*
X14490562Y18946373D01*
X14522342Y19009859D01*
X14583400Y19046086D01*
X14614560Y19050000D01*
X31514000Y19050000D01*
X31582121Y19029998D01*
X31628614Y18976342D01*
X31640000Y18924000D01*
X31640000Y-463500D01*
X31619998Y-531621D01*
X31566342Y-578114D01*
X31514000Y-589500D01*
X1042501Y-589500D01*
X1033512Y-589179D01*
X835013Y-574982D01*
X817219Y-572423D01*
X627165Y-531079D01*
X609916Y-526015D01*
X427678Y-458044D01*
X411324Y-450575D01*
X240624Y-357365D01*
X225501Y-347646D01*
X69796Y-231087D01*
X56210Y-219314D01*
X-81315Y-81789D01*
X-93088Y-68203D01*
X-209647Y87502D01*
X-219366Y102625D01*
X-225465Y113795D01*
X-300659Y251501D01*
X21717948Y251501D01*
X21717948Y251500D01*
X21736077Y113795D01*
X21789226Y-14522D01*
X21789228Y-14525D01*
X21789229Y-14526D01*
X21873782Y-124718D01*
X21983974Y-209271D01*
X21983977Y-209273D01*
X22056331Y-239242D01*
X22112295Y-262423D01*
X22250000Y-280552D01*
X22387705Y-262423D01*
X22491780Y-219314D01*
X22516022Y-209273D01*
X22516022Y-209272D01*
X22516026Y-209271D01*
X22626218Y-124718D01*
X22710771Y-14526D01*
X22763923Y113795D01*
X22782052Y251500D01*
X22763923Y389205D01*
X22726711Y479043D01*
X22710773Y517523D01*
X22684228Y552117D01*
X22626218Y627718D01*
X22516026Y712271D01*
X22516025Y712272D01*
X22516022Y712274D01*
X22387705Y765423D01*
X22250000Y783552D01*
X22112294Y765423D01*
X21983977Y712274D01*
X21873782Y627718D01*
X21789226Y517523D01*
X21736077Y389206D01*
X21717948Y251501D01*
X-300659Y251501D01*
X-312579Y273330D01*
X-320045Y289679D01*
X-388016Y471917D01*
X-393080Y489166D01*
X-434424Y679220D01*
X-436982Y697004D01*
X-451179Y895513D01*
X-451500Y904501D01*
X-451500Y2662559D01*
X822500Y2662559D01*
X822500Y937442D01*
X829052Y904501D01*
X829898Y900252D01*
X858078Y858078D01*
X900252Y829898D01*
X937442Y822500D01*
X937447Y822500D01*
X2662553Y822500D01*
X2662558Y822500D01*
X2699748Y829898D01*
X2741922Y858078D01*
X2770102Y900252D01*
X2777500Y937442D01*
X2777500Y1800004D01*
X3357770Y1800004D01*
X3357770Y1799997D01*
X3376641Y1608384D01*
X3376641Y1608382D01*
X3432537Y1424120D01*
X3432539Y1424114D01*
X3468118Y1357551D01*
X3523306Y1254302D01*
X3645459Y1105459D01*
X3794302Y983306D01*
X3880098Y937447D01*
X3950156Y900000D01*
X3964117Y892538D01*
X4148376Y836643D01*
X4148380Y836643D01*
X4148382Y836642D01*
X4339997Y817770D01*
X4340000Y817770D01*
X4340003Y817770D01*
X4531616Y836642D01*
X4531618Y836642D01*
X4531619Y836643D01*
X4531624Y836643D01*
X4715883Y892538D01*
X4885698Y983306D01*
X5034541Y1105459D01*
X5156694Y1254302D01*
X5247462Y1424117D01*
X5294099Y1577859D01*
X5333013Y1637238D01*
X5397855Y1666154D01*
X5468036Y1655423D01*
X5521274Y1608453D01*
X5536817Y1572212D01*
X5591176Y1357551D01*
X5591179Y1357544D01*
X5681580Y1151452D01*
X5804674Y963042D01*
X5957097Y797466D01*
X6134698Y659233D01*
X6134699Y659232D01*
X6332628Y552118D01*
X6332630Y552117D01*
X6545483Y479045D01*
X6545492Y479043D01*
X6626000Y465609D01*
X6626000Y1369298D01*
X6687007Y1334075D01*
X6814174Y1300000D01*
X6945826Y1300000D01*
X7072993Y1334075D01*
X7134000Y1369298D01*
X7134000Y465610D01*
X7214507Y479043D01*
X7214516Y479045D01*
X7427369Y552117D01*
X7427371Y552118D01*
X7625300Y659232D01*
X7625301Y659233D01*
X7802902Y797466D01*
X7955325Y963042D01*
X8078419Y1151452D01*
X8168820Y1357544D01*
X8168823Y1357551D01*
X8216544Y1546000D01*
X7310703Y1546000D01*
X7345925Y1607007D01*
X7380000Y1734174D01*
X7380000Y1800000D01*
X10427777Y1800000D01*
X10446641Y1560309D01*
X10502768Y1326519D01*
X10594780Y1104382D01*
X10720400Y899390D01*
X10720408Y899379D01*
X10876554Y716555D01*
X11059378Y560409D01*
X11059389Y560401D01*
X11264381Y434781D01*
X11264383Y434781D01*
X11264385Y434779D01*
X11486517Y342769D01*
X11720308Y286641D01*
X11960000Y267777D01*
X12199692Y286641D01*
X12433483Y342769D01*
X12655615Y434779D01*
X12860618Y560406D01*
X13043445Y716555D01*
X13199594Y899382D01*
X13325221Y1104385D01*
X13417231Y1326517D01*
X13473359Y1560308D01*
X13492223Y1800000D01*
X13473359Y2039692D01*
X13417231Y2273483D01*
X13325221Y2495615D01*
X13325219Y2495619D01*
X13199599Y2700611D01*
X13199591Y2700622D01*
X13043445Y2883446D01*
X12860621Y3039592D01*
X12860610Y3039600D01*
X12655618Y3165220D01*
X12491014Y3233401D01*
X25687748Y3233401D01*
X25687748Y3233400D01*
X25705877Y3095695D01*
X25759026Y2967378D01*
X25759028Y2967375D01*
X25759029Y2967374D01*
X25843582Y2857182D01*
X25914800Y2802535D01*
X25953777Y2772627D01*
X26026131Y2742658D01*
X26082095Y2719477D01*
X26219800Y2701348D01*
X26357505Y2719477D01*
X26453039Y2759049D01*
X26485822Y2772627D01*
X26485822Y2772628D01*
X26485826Y2772629D01*
X26596018Y2857182D01*
X26680571Y2967374D01*
X26733723Y3095695D01*
X26751852Y3233400D01*
X26733723Y3371105D01*
X26710542Y3427069D01*
X26680573Y3499423D01*
X26680571Y3499426D01*
X26596018Y3609618D01*
X26485826Y3694171D01*
X26485825Y3694172D01*
X26485822Y3694174D01*
X26357505Y3747323D01*
X26219800Y3765452D01*
X26082094Y3747323D01*
X25953777Y3694174D01*
X25843582Y3609618D01*
X25759026Y3499423D01*
X25705877Y3371106D01*
X25687748Y3233401D01*
X12491014Y3233401D01*
X12433481Y3257232D01*
X12273550Y3295628D01*
X12199692Y3313359D01*
X11960000Y3332223D01*
X11720308Y3313359D01*
X11486518Y3257232D01*
X11264381Y3165220D01*
X11059389Y3039600D01*
X11059378Y3039592D01*
X10876554Y2883446D01*
X10720408Y2700622D01*
X10720400Y2700611D01*
X10594780Y2495619D01*
X10502768Y2273482D01*
X10446641Y2039692D01*
X10427777Y1800000D01*
X7380000Y1800000D01*
X7380000Y1865826D01*
X7345925Y1992993D01*
X7310703Y2054000D01*
X8216544Y2054000D01*
X8216544Y2054001D01*
X8168823Y2242450D01*
X8168820Y2242457D01*
X8078419Y2448549D01*
X7955325Y2636959D01*
X7802902Y2802535D01*
X7625301Y2940768D01*
X7625300Y2940769D01*
X7427371Y3047883D01*
X7427369Y3047884D01*
X7214512Y3120957D01*
X7214501Y3120960D01*
X7134000Y3134394D01*
X7134000Y2230703D01*
X7072993Y2265925D01*
X6945826Y2300000D01*
X6814174Y2300000D01*
X6687007Y2265925D01*
X6626000Y2230703D01*
X6626000Y3134393D01*
X6625999Y3134394D01*
X6545498Y3120960D01*
X6545487Y3120957D01*
X6332630Y3047884D01*
X6332628Y3047883D01*
X6134699Y2940769D01*
X6134698Y2940768D01*
X5957097Y2802535D01*
X5804674Y2636959D01*
X5681580Y2448549D01*
X5591179Y2242457D01*
X5591176Y2242450D01*
X5536817Y2027789D01*
X5500705Y1966663D01*
X5437277Y1934764D01*
X5366674Y1942221D01*
X5311309Y1986665D01*
X5294100Y2022140D01*
X5247462Y2175883D01*
X5156694Y2345698D01*
X5034541Y2494541D01*
X4885698Y2616694D01*
X4847785Y2636959D01*
X4715886Y2707461D01*
X4715880Y2707463D01*
X4531617Y2763359D01*
X4340003Y2782230D01*
X4339997Y2782230D01*
X4148383Y2763359D01*
X4148381Y2763359D01*
X3964119Y2707463D01*
X3964113Y2707461D01*
X3794301Y2616694D01*
X3645459Y2494541D01*
X3523306Y2345699D01*
X3432539Y2175887D01*
X3432537Y2175881D01*
X3376641Y1991619D01*
X3376641Y1991617D01*
X3357770Y1800004D01*
X2777500Y1800004D01*
X2777500Y2662558D01*
X2770102Y2699748D01*
X2741922Y2741922D01*
X2699748Y2770102D01*
X2699745Y2770103D01*
X2662558Y2777500D01*
X937442Y2777500D01*
X937441Y2777500D01*
X900254Y2770103D01*
X900252Y2770103D01*
X900252Y2770102D01*
X858078Y2741922D01*
X830480Y2700618D01*
X829897Y2699746D01*
X822500Y2662559D01*
X-451500Y2662559D01*
X-451500Y4848001D01*
X12402448Y4848001D01*
X12402448Y4848000D01*
X12420577Y4710295D01*
X12473726Y4581978D01*
X12473728Y4581975D01*
X12473729Y4581974D01*
X12558282Y4471782D01*
X12668474Y4387229D01*
X12668477Y4387227D01*
X12740831Y4357258D01*
X12796795Y4334077D01*
X12934500Y4315948D01*
X13072205Y4334077D01*
X13167739Y4373649D01*
X13200522Y4387227D01*
X13200522Y4387228D01*
X13200526Y4387229D01*
X13310718Y4471782D01*
X13395271Y4581974D01*
X13448423Y4710295D01*
X13466552Y4848000D01*
X13453123Y4950001D01*
X18917948Y4950001D01*
X18917948Y4950000D01*
X18936077Y4812295D01*
X18989226Y4683978D01*
X18989228Y4683975D01*
X18989229Y4683974D01*
X19073782Y4573782D01*
X19183974Y4489229D01*
X19183977Y4489227D01*
X19256331Y4459258D01*
X19312295Y4436077D01*
X19450000Y4417948D01*
X19587705Y4436077D01*
X19683239Y4475649D01*
X19716022Y4489227D01*
X19716022Y4489228D01*
X19716026Y4489229D01*
X19826218Y4573782D01*
X19842500Y4595001D01*
X20787948Y4595001D01*
X20787948Y4595000D01*
X20806077Y4457295D01*
X20859226Y4328978D01*
X20859228Y4328975D01*
X20859229Y4328974D01*
X20943782Y4218782D01*
X21053974Y4134229D01*
X21053977Y4134227D01*
X21126331Y4104258D01*
X21182295Y4081077D01*
X21320000Y4062948D01*
X21457705Y4081077D01*
X21553239Y4120649D01*
X21586022Y4134227D01*
X21586022Y4134228D01*
X21586026Y4134229D01*
X21696218Y4218782D01*
X21780771Y4328974D01*
X21833923Y4457295D01*
X21852052Y4595000D01*
X21833923Y4732705D01*
X21786167Y4848000D01*
X21780773Y4861023D01*
X21780771Y4861026D01*
X21696218Y4971218D01*
X21586026Y5055771D01*
X21586025Y5055772D01*
X21586022Y5055774D01*
X21457705Y5108923D01*
X21320000Y5127052D01*
X21182294Y5108923D01*
X21053977Y5055774D01*
X20943782Y4971218D01*
X20859226Y4861023D01*
X20806077Y4732706D01*
X20787948Y4595001D01*
X19842500Y4595001D01*
X19910771Y4683974D01*
X19921674Y4710295D01*
X19930956Y4732706D01*
X19963923Y4812295D01*
X19982052Y4950000D01*
X19963923Y5087705D01*
X19934857Y5157878D01*
X19910773Y5216023D01*
X19904485Y5224218D01*
X19826218Y5326218D01*
X19716026Y5410771D01*
X19716025Y5410772D01*
X19716022Y5410774D01*
X19587705Y5463923D01*
X19450000Y5482052D01*
X19312294Y5463923D01*
X19183977Y5410774D01*
X19073782Y5326218D01*
X18989226Y5216023D01*
X18936077Y5087706D01*
X18917948Y4950001D01*
X13453123Y4950001D01*
X13448423Y4985705D01*
X13419400Y5055774D01*
X13395273Y5114023D01*
X13395271Y5114026D01*
X13310718Y5224218D01*
X13200526Y5308771D01*
X13200525Y5308772D01*
X13200522Y5308774D01*
X13072205Y5361923D01*
X12934500Y5380052D01*
X12796794Y5361923D01*
X12668477Y5308774D01*
X12558282Y5224218D01*
X12473726Y5114023D01*
X12420577Y4985706D01*
X12402448Y4848001D01*
X-451500Y4848001D01*
X-451500Y6800001D01*
X1767948Y6800001D01*
X1767948Y6800000D01*
X1786077Y6662295D01*
X1839226Y6533978D01*
X1923784Y6423780D01*
X1954824Y6399962D01*
X1996691Y6342624D01*
X2000913Y6271753D01*
X1966149Y6209850D01*
X1954824Y6200038D01*
X1923784Y6176221D01*
X1839226Y6066023D01*
X1786077Y5937706D01*
X1767948Y5800001D01*
X1767948Y5800000D01*
X1786077Y5662295D01*
X1839226Y5533978D01*
X1839228Y5533975D01*
X1839229Y5533974D01*
X1923782Y5423782D01*
X2004399Y5361923D01*
X2033977Y5339227D01*
X2106331Y5309258D01*
X2162295Y5286077D01*
X2300000Y5267948D01*
X2437705Y5286077D01*
X2533239Y5325649D01*
X2566022Y5339227D01*
X2566022Y5339228D01*
X2566026Y5339229D01*
X2676218Y5423782D01*
X2676309Y5423901D01*
X8532648Y5423901D01*
X8532648Y5423900D01*
X8550777Y5286195D01*
X8603926Y5157878D01*
X8603928Y5157875D01*
X8603929Y5157874D01*
X8688482Y5047682D01*
X8798674Y4963129D01*
X8798677Y4963127D01*
X8871031Y4933158D01*
X8926995Y4909977D01*
X9064700Y4891848D01*
X9202405Y4909977D01*
X9299032Y4950001D01*
X9330722Y4963127D01*
X9330722Y4963128D01*
X9330726Y4963129D01*
X9440918Y5047682D01*
X9525471Y5157874D01*
X9578623Y5286195D01*
X9596752Y5423900D01*
X9578623Y5561605D01*
X9555442Y5617569D01*
X9525473Y5689923D01*
X9525471Y5689926D01*
X9440918Y5800118D01*
X9330726Y5884671D01*
X9330725Y5884672D01*
X9330722Y5884674D01*
X9202405Y5937823D01*
X9064700Y5955952D01*
X8926994Y5937823D01*
X8798677Y5884674D01*
X8688482Y5800118D01*
X8603926Y5689923D01*
X8550777Y5561606D01*
X8532648Y5423901D01*
X2676309Y5423901D01*
X2733324Y5498206D01*
X2790661Y5540071D01*
X2833286Y5547500D01*
X3050225Y5547500D01*
X3143030Y5585941D01*
X4214059Y6656970D01*
X4252500Y6749775D01*
X4252500Y6850225D01*
X4252500Y7750001D01*
X6167948Y7750001D01*
X6167948Y7750000D01*
X6186077Y7612295D01*
X6239226Y7483978D01*
X6239228Y7483975D01*
X6239229Y7483974D01*
X6323782Y7373782D01*
X6433974Y7289229D01*
X6433977Y7289227D01*
X6502671Y7260774D01*
X6562295Y7236077D01*
X6700000Y7217948D01*
X6837705Y7236077D01*
X6933239Y7275649D01*
X6966022Y7289227D01*
X6966022Y7289228D01*
X6966026Y7289229D01*
X7076218Y7373782D01*
X7160771Y7483974D01*
X7213923Y7612295D01*
X7232052Y7750000D01*
X7213923Y7887705D01*
X7190742Y7943669D01*
X7160773Y8016023D01*
X7160771Y8016026D01*
X7076218Y8126218D01*
X6966026Y8210771D01*
X6966025Y8210772D01*
X6966022Y8210774D01*
X6837705Y8263923D01*
X6700000Y8282052D01*
X6562294Y8263923D01*
X6433977Y8210774D01*
X6323782Y8126218D01*
X6239226Y8016023D01*
X6186077Y7887706D01*
X6167948Y7750001D01*
X4252500Y7750001D01*
X4252500Y8366714D01*
X4272502Y8434835D01*
X4301793Y8466675D01*
X4376218Y8523782D01*
X4460771Y8633974D01*
X4513923Y8762295D01*
X4532052Y8900000D01*
X4513923Y9037705D01*
X4490742Y9093669D01*
X4460773Y9166023D01*
X4460771Y9166026D01*
X4376218Y9276218D01*
X4266026Y9360771D01*
X4266025Y9360772D01*
X4266022Y9360774D01*
X4137705Y9413923D01*
X4000000Y9432052D01*
X3862294Y9413923D01*
X3733977Y9360774D01*
X3623782Y9276218D01*
X3539226Y9166023D01*
X3486077Y9037706D01*
X3467948Y8900001D01*
X3467948Y8900000D01*
X3486077Y8762295D01*
X3539226Y8633978D01*
X3539228Y8633975D01*
X3539229Y8633974D01*
X3623782Y8523782D01*
X3698205Y8466676D01*
X3740071Y8409339D01*
X3747500Y8366714D01*
X3747500Y6956779D01*
X3727498Y6888658D01*
X3710595Y6867684D01*
X2932316Y6089405D01*
X2870004Y6055379D01*
X2843221Y6052500D01*
X2833286Y6052500D01*
X2765165Y6072502D01*
X2733325Y6101794D01*
X2676218Y6176218D01*
X2676216Y6176219D01*
X2676216Y6176220D01*
X2645176Y6200037D01*
X2603308Y6257374D01*
X2599086Y6328245D01*
X2633849Y6390148D01*
X2645176Y6399963D01*
X2676215Y6423780D01*
X2676218Y6423782D01*
X2760771Y6533974D01*
X2813923Y6662295D01*
X2832052Y6800000D01*
X2813923Y6937705D01*
X2790742Y6993669D01*
X2760773Y7066023D01*
X2760771Y7066026D01*
X2676218Y7176218D01*
X2566026Y7260771D01*
X2566025Y7260772D01*
X2566022Y7260774D01*
X2437705Y7313923D01*
X2300000Y7332052D01*
X2162294Y7313923D01*
X2033977Y7260774D01*
X1923782Y7176218D01*
X1839226Y7066023D01*
X1786077Y6937706D01*
X1767948Y6800001D01*
X-451500Y6800001D01*
X-451500Y10400001D01*
X5617948Y10400001D01*
X5617948Y10400000D01*
X5636077Y10262295D01*
X5689226Y10133978D01*
X5689228Y10133975D01*
X5689229Y10133974D01*
X5773782Y10023782D01*
X5883974Y9939229D01*
X5883977Y9939227D01*
X5956331Y9909258D01*
X6012295Y9886077D01*
X6150000Y9867948D01*
X6287705Y9886077D01*
X6383239Y9925649D01*
X6416022Y9939227D01*
X6416022Y9939228D01*
X6416026Y9939229D01*
X6526218Y10023782D01*
X6610771Y10133974D01*
X6663923Y10262295D01*
X6668887Y10300001D01*
X24767948Y10300001D01*
X24767948Y10300000D01*
X24786077Y10162295D01*
X24839226Y10033978D01*
X24839228Y10033975D01*
X24839229Y10033974D01*
X24923782Y9923782D01*
X24996547Y9867948D01*
X25033977Y9839227D01*
X25106331Y9809258D01*
X25162295Y9786077D01*
X25300000Y9767948D01*
X25437705Y9786077D01*
X25533239Y9825649D01*
X25566022Y9839227D01*
X25566022Y9839228D01*
X25566026Y9839229D01*
X25676218Y9923782D01*
X25760771Y10033974D01*
X25813923Y10162295D01*
X25832052Y10300000D01*
X25813923Y10437705D01*
X25772502Y10537705D01*
X25760773Y10566023D01*
X25760771Y10566026D01*
X25676218Y10676218D01*
X25566026Y10760771D01*
X25566025Y10760772D01*
X25566022Y10760774D01*
X25437705Y10813923D01*
X25300000Y10832052D01*
X25162294Y10813923D01*
X25033977Y10760774D01*
X24923782Y10676218D01*
X24839226Y10566023D01*
X24786077Y10437706D01*
X24767948Y10300001D01*
X6668887Y10300001D01*
X6682052Y10400000D01*
X6663923Y10537705D01*
X6640742Y10593669D01*
X6610773Y10666023D01*
X6602950Y10676218D01*
X6526218Y10776218D01*
X6416026Y10860771D01*
X6416025Y10860772D01*
X6416022Y10860774D01*
X6287705Y10913923D01*
X6150000Y10932052D01*
X6012294Y10913923D01*
X5883977Y10860774D01*
X5773782Y10776218D01*
X5689226Y10666023D01*
X5636077Y10537706D01*
X5617948Y10400001D01*
X-451500Y10400001D01*
X-451500Y11402778D01*
X-431498Y11470899D01*
X-377842Y11517392D01*
X-307568Y11527496D01*
X-248798Y11502742D01*
X-166026Y11439229D01*
X-166023Y11439227D01*
X-93669Y11409258D01*
X-37705Y11386077D01*
X100000Y11367948D01*
X237705Y11386077D01*
X333239Y11425649D01*
X366022Y11439227D01*
X366022Y11439228D01*
X366026Y11439229D01*
X476218Y11523782D01*
X560771Y11633974D01*
X613923Y11762295D01*
X632052Y11900000D01*
X622836Y11970001D01*
X5497948Y11970001D01*
X5497948Y11970000D01*
X5516077Y11832295D01*
X5569226Y11703978D01*
X5569228Y11703975D01*
X5569229Y11703974D01*
X5653782Y11593782D01*
X5753336Y11517392D01*
X5763977Y11509227D01*
X5836331Y11479258D01*
X5892295Y11456077D01*
X6030000Y11437948D01*
X6167705Y11456077D01*
X6263239Y11495649D01*
X6296022Y11509227D01*
X6296022Y11509228D01*
X6296026Y11509229D01*
X6406218Y11593782D01*
X6490771Y11703974D01*
X6543923Y11832295D01*
X6562052Y11970000D01*
X6543923Y12107705D01*
X6519766Y12166026D01*
X6490773Y12236023D01*
X6463428Y12271660D01*
X6406218Y12346218D01*
X6296026Y12430771D01*
X6296025Y12430772D01*
X6296022Y12430774D01*
X6167705Y12483923D01*
X6030000Y12502052D01*
X5892294Y12483923D01*
X5763977Y12430774D01*
X5653782Y12346218D01*
X5569226Y12236023D01*
X5516077Y12107706D01*
X5497948Y11970001D01*
X622836Y11970001D01*
X613923Y12037705D01*
X584928Y12107706D01*
X560773Y12166023D01*
X560771Y12166026D01*
X476218Y12276218D01*
X366026Y12360771D01*
X366025Y12360772D01*
X366022Y12360774D01*
X237705Y12413923D01*
X100000Y12432052D01*
X-37706Y12413923D01*
X-166025Y12360773D01*
X-248797Y12297260D01*
X-315017Y12271660D01*
X-384566Y12285925D01*
X-435362Y12335527D01*
X-451500Y12397223D01*
X-451500Y13950001D01*
X3017948Y13950001D01*
X3017948Y13950000D01*
X3036077Y13812295D01*
X3089226Y13683978D01*
X3089228Y13683975D01*
X3089229Y13683974D01*
X3173782Y13573782D01*
X3283974Y13489229D01*
X3283977Y13489227D01*
X3356331Y13459258D01*
X3412295Y13436077D01*
X3550000Y13417948D01*
X3687705Y13436077D01*
X3783239Y13475649D01*
X3816022Y13489227D01*
X3816022Y13489228D01*
X3816026Y13489229D01*
X3926218Y13573782D01*
X4010771Y13683974D01*
X4063923Y13812295D01*
X4082052Y13950000D01*
X4063923Y14087705D01*
X4040742Y14143669D01*
X4010773Y14216023D01*
X4010771Y14216026D01*
X3926218Y14326218D01*
X3816026Y14410771D01*
X3816025Y14410772D01*
X3816022Y14410774D01*
X3687705Y14463923D01*
X3550000Y14482052D01*
X3412294Y14463923D01*
X3283977Y14410774D01*
X3173782Y14326218D01*
X3089226Y14216023D01*
X3036077Y14087706D01*
X3017948Y13950001D01*
X-451500Y13950001D01*
X-451500Y18695500D01*
X-451179Y18704488D01*
X-451001Y18706984D01*
X-436982Y18902999D01*
X-434424Y18920781D01*
X-393080Y19110835D01*
X-388016Y19128084D01*
X-356000Y19213923D01*
X-320043Y19310327D01*
X-312581Y19326666D01*
X-219361Y19497386D01*
X-209654Y19512489D01*
X-93082Y19668212D01*
X-81322Y19681783D01*
X56217Y19819322D01*
X69788Y19831082D01*
X225511Y19947654D01*
X240614Y19957361D01*
X411334Y20050581D01*
X427673Y20058043D01*
X609917Y20126017D01*
X627165Y20131080D01*
X817219Y20172424D01*
X835001Y20174982D01*
X1016425Y20187957D01*
X1033513Y20189179D01*
X1042501Y20189500D01*
X13074000Y20189500D01*
X13142121Y20169498D01*
G37*
%TD.AperFunction*%
%TD*%
M02*
