G04 #@! TF.GenerationSoftware,KiCad,Pcbnew,5.99.0-unknown-5a0a2a8366~101~ubuntu20.04.1*
G04 #@! TF.CreationDate,2021-02-21T23:03:29+09:00*
G04 #@! TF.ProjectId,OpenHVPS-5,4f70656e-4856-4505-932d-352e6b696361,V1.1*
G04 #@! TF.SameCoordinates,Original*
G04 #@! TF.FileFunction,Paste,Bot*
G04 #@! TF.FilePolarity,Positive*
%FSLAX46Y46*%
G04 Gerber Fmt 4.6, Leading zero omitted, Abs format (unit mm)*
G04 Created by KiCad (PCBNEW 5.99.0-unknown-5a0a2a8366~101~ubuntu20.04.1) date 2021-02-21 23:03:29*
%MOMM*%
%LPD*%
G01*
G04 APERTURE LIST*
G04 Aperture macros list*
%AMRoundRect*
0 Rectangle with rounded corners*
0 $1 Rounding radius*
0 $2 $3 $4 $5 $6 $7 $8 $9 X,Y pos of 4 corners*
0 Add a 4 corners polygon primitive as box body*
4,1,4,$2,$3,$4,$5,$6,$7,$8,$9,$2,$3,0*
0 Add four circle primitives for the rounded corners*
1,1,$1+$1,$2,$3*
1,1,$1+$1,$4,$5*
1,1,$1+$1,$6,$7*
1,1,$1+$1,$8,$9*
0 Add four rect primitives between the rounded corners*
20,1,$1+$1,$2,$3,$4,$5,0*
20,1,$1+$1,$4,$5,$6,$7,0*
20,1,$1+$1,$6,$7,$8,$9,0*
20,1,$1+$1,$8,$9,$2,$3,0*%
G04 Aperture macros list end*
%ADD10RoundRect,0.250000X-0.262500X-0.450000X0.262500X-0.450000X0.262500X0.450000X-0.262500X0.450000X0*%
%ADD11RoundRect,0.150000X0.587500X0.150000X-0.587500X0.150000X-0.587500X-0.150000X0.587500X-0.150000X0*%
%ADD12RoundRect,0.250000X0.262500X0.450000X-0.262500X0.450000X-0.262500X-0.450000X0.262500X-0.450000X0*%
%ADD13RoundRect,0.250000X-0.250000X-0.475000X0.250000X-0.475000X0.250000X0.475000X-0.250000X0.475000X0*%
%ADD14RoundRect,0.250000X-0.475000X0.250000X-0.475000X-0.250000X0.475000X-0.250000X0.475000X0.250000X0*%
%ADD15RoundRect,0.250000X0.450000X-0.262500X0.450000X0.262500X-0.450000X0.262500X-0.450000X-0.262500X0*%
%ADD16RoundRect,0.250000X-0.450000X0.262500X-0.450000X-0.262500X0.450000X-0.262500X0.450000X0.262500X0*%
%ADD17R,0.450000X0.600000*%
%ADD18RoundRect,0.150000X-0.512500X-0.150000X0.512500X-0.150000X0.512500X0.150000X-0.512500X0.150000X0*%
%ADD19RoundRect,0.150000X-0.587500X-0.150000X0.587500X-0.150000X0.587500X0.150000X-0.587500X0.150000X0*%
%ADD20RoundRect,0.150000X0.150000X-0.587500X0.150000X0.587500X-0.150000X0.587500X-0.150000X-0.587500X0*%
%ADD21RoundRect,0.150000X0.150000X-0.825000X0.150000X0.825000X-0.150000X0.825000X-0.150000X-0.825000X0*%
%ADD22RoundRect,0.250000X0.250000X0.475000X-0.250000X0.475000X-0.250000X-0.475000X0.250000X-0.475000X0*%
%ADD23RoundRect,0.250000X0.475000X-0.250000X0.475000X0.250000X-0.475000X0.250000X-0.475000X-0.250000X0*%
%ADD24RoundRect,0.250000X-0.325000X-1.100000X0.325000X-1.100000X0.325000X1.100000X-0.325000X1.100000X0*%
G04 APERTURE END LIST*
D10*
X140607500Y-75520000D03*
X142432500Y-75520000D03*
X140857500Y-72770000D03*
X142682500Y-72770000D03*
D11*
X154207500Y-71820000D03*
X154207500Y-73720000D03*
X152332500Y-72770000D03*
D12*
X148013750Y-61250000D03*
X146188750Y-61250000D03*
D13*
X148320000Y-76270000D03*
X150220000Y-76270000D03*
D14*
X129520000Y-59070000D03*
X129520000Y-60970000D03*
D13*
X154870000Y-70020000D03*
X156770000Y-70020000D03*
D15*
X141520000Y-70932500D03*
X141520000Y-69107500D03*
D16*
X144270000Y-74607500D03*
X144270000Y-76432500D03*
D17*
X134520000Y-67170000D03*
X134520000Y-69270000D03*
D16*
X127520000Y-59107500D03*
X127520000Y-60932500D03*
D18*
X143257500Y-64831250D03*
X143257500Y-63881250D03*
X143257500Y-62931250D03*
X145532500Y-62931250D03*
X145532500Y-64831250D03*
D14*
X146270000Y-74570000D03*
X146270000Y-76470000D03*
D19*
X155582500Y-76470000D03*
X155582500Y-74570000D03*
X157457500Y-75520000D03*
D15*
X141270000Y-64793750D03*
X141270000Y-62968750D03*
D20*
X150470000Y-73957500D03*
X148570000Y-73957500D03*
X149520000Y-72082500D03*
D12*
X148013750Y-59250000D03*
X146188750Y-59250000D03*
D14*
X138770000Y-67320000D03*
X138770000Y-69220000D03*
D10*
X148337500Y-68000000D03*
X150162500Y-68000000D03*
D21*
X139080000Y-65195000D03*
X137810000Y-65195000D03*
X136540000Y-65195000D03*
X135270000Y-65195000D03*
X134000000Y-65195000D03*
X132730000Y-65195000D03*
X131460000Y-65195000D03*
X131460000Y-60245000D03*
X132730000Y-60245000D03*
X134000000Y-60245000D03*
X135270000Y-60245000D03*
X136540000Y-60245000D03*
X137810000Y-60245000D03*
X139080000Y-60245000D03*
D16*
X128270000Y-67107500D03*
X128270000Y-68932500D03*
D22*
X139220000Y-71020000D03*
X137320000Y-71020000D03*
D23*
X147500000Y-64831250D03*
X147500000Y-62931250D03*
D10*
X140857500Y-66770000D03*
X142682500Y-66770000D03*
D16*
X136520000Y-67307500D03*
X136520000Y-69132500D03*
D10*
X156107500Y-72020000D03*
X157932500Y-72020000D03*
D11*
X145457500Y-69070000D03*
X145457500Y-70970000D03*
X143582500Y-70020000D03*
D12*
X152932500Y-70020000D03*
X151107500Y-70020000D03*
D23*
X143351250Y-61450000D03*
X143351250Y-59550000D03*
D15*
X127520000Y-64432500D03*
X127520000Y-62607500D03*
D24*
X128368000Y-71341500D03*
X131318000Y-71341500D03*
D12*
X153682500Y-76270000D03*
X151857500Y-76270000D03*
M02*
