M48
; DRILL file {KiCad 5.99.0-unknown-5a0a2a8366~101~ubuntu20.04.1} date Sun Feb 21 23:03:35 2021
; FORMAT={2:4/ absolute / inch / suppress leading zeros}
; #@! TF.CreationDate,2021-02-21T23:03:35+09:00
; #@! TF.GenerationSoftware,Kicad,Pcbnew,5.99.0-unknown-5a0a2a8366~101~ubuntu20.04.1
; #@! TF.FileFunction,Plated,1,2,PTH
FMAT,2
INCH,TZ
T1C0.0157
T2C0.0394
T3C0.0551
%
G90
G05
T1
X49969Y-27300
X50303Y-26583
X51287Y-24516
X51386Y-26287
X52272Y-28650
X52567Y-26386
X53451Y-28323
X53453Y-27764
X54339Y-24713
X54732Y-22744
X54974Y-28694
X55413Y-23524
X57390Y-28354
X57587Y-29831
X58276Y-28650
X58669Y-30126
X59161Y-27567
X59200Y-28591
X59260Y-30323
X59752Y-26386
X60205Y-29186
X60827Y-26772
X61524Y-29732
T2
X50591Y-29750
X51591Y-29750
X52591Y-29750
X54400Y-29750
X64000Y-28250
X65000Y-23250
X65000Y-24250
T3
X64000Y-29750
T0
M30
